M48
;GenerationSoftware,Autodesk,EAGLE,9.6.2*%
;CreationDate,2023-05-14T16:05:35Z*%
FMAT,2
ICI,OFF
INCH,TZ,00.0000
T5C0.0276
T4C0.0320
T3C0.0400
T2C0.1180
T1C0.1220
%
G90
M72
T1
X1575Y16535
X16142Y5118
X16142Y18110
T2
X12610Y4087
X11429Y2236
X13791Y2236
T3
X15933Y20551
X15933Y21551
X15933Y22551
X14567Y7874
X9630Y8075
X9630Y6295
X7070Y6295
X7070Y8075
X1783Y11150
X14567Y6874
X1461Y1736
X1461Y2736
X1461Y3736
X1783Y14150
X1783Y13150
X1783Y12150
X14567Y8874
X1783Y10150
X1783Y9150
X16177Y7047
X16177Y8047
X16177Y9047
X16177Y10047
X16177Y11047
X16177Y12047
X16177Y13047
X16177Y14047
X16177Y15047
X16177Y16047
X2177Y22406
X2177Y21406
X2177Y20406
X2177Y19406
X2177Y18406
X15933Y19551
T4
X5177Y976
X5177Y1976
X5654Y3996
X4654Y3996
X13539Y16988
X14539Y16988
X13579Y18413
X14579Y18413
X12996Y9114
X11996Y9114
X4461Y17126
X10689Y5610
X10689Y8610
X4921Y5579
X4921Y6579
X5461Y17126
X5902Y8177
X9823Y9240
X9823Y10240
X9823Y11240
X9823Y12240
X9823Y13240
X9823Y14240
X9823Y15240
X9823Y16240
X9823Y17240
X9823Y18240
X2902Y8177
X9823Y20240
X9823Y21240
X9823Y22240
X6823Y22240
X6823Y21240
X6823Y20240
X6823Y19240
X6823Y18240
X6823Y17240
X6823Y16240
X9823Y19240
X6823Y14240
X6823Y13240
X6823Y12240
X6823Y11240
X6823Y10240
X6823Y9240
X2917Y15295
X5917Y15295
X6823Y15240
T5
X11476Y17130
X11476Y19130
M30