G04*
G04 #@! TF.GenerationSoftware,Altium Limited,Altium Designer,23.1.1 (15)*
G04*
G04 Layer_Physical_Order=1*
G04 Layer_Color=255*
%FSLAX44Y44*%
%MOMM*%
G71*
G04*
G04 #@! TF.SameCoordinates,7520F120-D5D8-497E-858A-6684157EE888*
G04*
G04*
G04 #@! TF.FilePolarity,Positive*
G04*
G01*
G75*
%ADD11C,0.2540*%
%ADD22C,0.5080*%
%ADD23C,1.4600*%
%ADD24C,1.7500*%
%ADD25R,1.7500X1.7500*%
%ADD26C,1.5000*%
%ADD27C,1.6500*%
%ADD28R,1.5000X1.5000*%
%ADD29R,1.5000X1.5000*%
%ADD30C,1.4000*%
%ADD31C,4.0000*%
G36*
X500070Y1031477D02*
X501018D01*
Y1031161D01*
X501650D01*
Y1030845D01*
X501966D01*
Y1030529D01*
X502598D01*
Y1030213D01*
X502914D01*
Y1029897D01*
X503546D01*
Y1029581D01*
X503863D01*
Y1029264D01*
X504179D01*
Y1028948D01*
X504495D01*
Y1028632D01*
X504811D01*
Y1028316D01*
X505127D01*
Y1028000D01*
X505443D01*
Y1027684D01*
X505759D01*
Y1027052D01*
X506075D01*
Y1026736D01*
X506391D01*
Y1026420D01*
X506707D01*
Y1025788D01*
X507024D01*
Y1025155D01*
X507340D01*
Y1024207D01*
X507656D01*
Y1021994D01*
X507340D01*
Y1021046D01*
X507024D01*
Y1020730D01*
X506707D01*
Y1020414D01*
X506391D01*
Y1020098D01*
X506075D01*
Y1019782D01*
X505759D01*
Y1019466D01*
X505127D01*
Y1019150D01*
X504495D01*
Y1018833D01*
X500070D01*
Y1019150D01*
X499121D01*
Y1019466D01*
X498489D01*
Y1019782D01*
X497857D01*
Y1020098D01*
X497225D01*
Y1020414D01*
X496593D01*
Y1020730D01*
X495960D01*
Y1021046D01*
X495644D01*
Y1021362D01*
X495328D01*
Y1021678D01*
X495012D01*
Y1021994D01*
X494696D01*
Y1022310D01*
X494380D01*
Y1022627D01*
X494064D01*
Y1023259D01*
X493748D01*
Y1023891D01*
X493432D01*
Y1024839D01*
X493116D01*
Y1028000D01*
X493432D01*
Y1028948D01*
X493748D01*
Y1029581D01*
X494064D01*
Y1030213D01*
X494380D01*
Y1030529D01*
X494696D01*
Y1030845D01*
X495012D01*
Y1031161D01*
X495644D01*
Y1031477D01*
X496277D01*
Y1031793D01*
X500070D01*
Y1031477D01*
D02*
G37*
G36*
X491535Y1021046D02*
X492483D01*
Y1020730D01*
X493432D01*
Y1020414D01*
X494064D01*
Y1020098D01*
X494696D01*
Y1019782D01*
X495328D01*
Y1019466D01*
X495644D01*
Y1019150D01*
X496277D01*
Y1018833D01*
X496593D01*
Y1018517D01*
X496909D01*
Y1018201D01*
X497541D01*
Y1017885D01*
X497857D01*
Y1017253D01*
X498173D01*
Y1016937D01*
X498489D01*
Y1016305D01*
X498805D01*
Y1015673D01*
X499121D01*
Y1013460D01*
X498805D01*
Y1012828D01*
X498489D01*
Y1012196D01*
X498173D01*
Y1011880D01*
X497857D01*
Y1011563D01*
X497541D01*
Y1011247D01*
X497225D01*
Y1010931D01*
X496909D01*
Y1010615D01*
X496277D01*
Y1010299D01*
X495644D01*
Y1009983D01*
X494380D01*
Y1009667D01*
X489639D01*
Y1009983D01*
X488374D01*
Y1010299D01*
X487426D01*
Y1010615D01*
X486794D01*
Y1010931D01*
X486478D01*
Y1011247D01*
X486162D01*
Y1011563D01*
X485530D01*
Y1011880D01*
X485213D01*
Y1012512D01*
X484897D01*
Y1012828D01*
X484581D01*
Y1013460D01*
X484265D01*
Y1014092D01*
X483949D01*
Y1015040D01*
X483633D01*
Y1017885D01*
X483949D01*
Y1018833D01*
X484265D01*
Y1019466D01*
X484581D01*
Y1019782D01*
X484897D01*
Y1020098D01*
X485213D01*
Y1020414D01*
X485846D01*
Y1020730D01*
X486162D01*
Y1021046D01*
X487110D01*
Y1021362D01*
X491535D01*
Y1021046D01*
D02*
G37*
G36*
X493116Y1008719D02*
X495012D01*
Y1008403D01*
X496277D01*
Y1008086D01*
X496909D01*
Y1007770D01*
X497225D01*
Y1007454D01*
X497857D01*
Y1007138D01*
X498173D01*
Y1006822D01*
X498489D01*
Y1006506D01*
X498805D01*
Y1005874D01*
X499121D01*
Y1002713D01*
X498805D01*
Y1001765D01*
X498489D01*
Y1001449D01*
X498173D01*
Y1001133D01*
Y1000816D01*
X497857D01*
Y1000500D01*
X497541D01*
Y1000184D01*
X497225D01*
Y999868D01*
X496909D01*
Y999552D01*
X496277D01*
Y999236D01*
X495960D01*
Y998920D01*
X495328D01*
Y998604D01*
X494696D01*
Y998288D01*
X493748D01*
Y997972D01*
X492799D01*
Y997656D01*
X491851D01*
Y997339D01*
X488374D01*
Y997656D01*
X487426D01*
Y997972D01*
X486794D01*
Y998288D01*
X486478D01*
Y998604D01*
X485846D01*
Y998920D01*
X485530D01*
Y999236D01*
X485213D01*
Y999552D01*
X484897D01*
Y999868D01*
X484581D01*
Y1000500D01*
X484265D01*
Y1001133D01*
X483949D01*
Y1001765D01*
X483633D01*
Y1004926D01*
X483949D01*
Y1005558D01*
X484265D01*
Y1006190D01*
X484581D01*
Y1006506D01*
X484897D01*
Y1006822D01*
X485213D01*
Y1007138D01*
X485846D01*
Y1007454D01*
X486162D01*
Y1007770D01*
X486794D01*
Y1008086D01*
X487426D01*
Y1008403D01*
X488374D01*
Y1008719D01*
X490271D01*
Y1009035D01*
X493116D01*
Y1008719D01*
D02*
G37*
G36*
X517138Y1023891D02*
X518087D01*
Y1023575D01*
X518719D01*
Y1023259D01*
X519035D01*
Y1022943D01*
X519667D01*
Y1022627D01*
X519983D01*
Y1022310D01*
X520299D01*
Y1021994D01*
X520615D01*
Y1021678D01*
X520931D01*
Y1021046D01*
X521247D01*
Y1020730D01*
X521564D01*
Y1020098D01*
X521880D01*
Y1019466D01*
X522196D01*
Y1018833D01*
X522512D01*
Y1017253D01*
X522828D01*
Y1014408D01*
X522512D01*
Y1013144D01*
X522196D01*
Y1011880D01*
X521880D01*
Y1010931D01*
X521564D01*
Y1007454D01*
X521880D01*
Y1006506D01*
X522196D01*
Y1005242D01*
X522512D01*
Y1004293D01*
X522828D01*
Y1000816D01*
X522512D01*
Y999552D01*
X522196D01*
Y998920D01*
X521880D01*
Y998288D01*
X521564D01*
Y997656D01*
X521247D01*
Y997023D01*
X520931D01*
Y996391D01*
X520615D01*
Y996075D01*
X520299D01*
Y995759D01*
X519983D01*
Y995443D01*
X519667D01*
Y995127D01*
X519351D01*
Y994811D01*
X519035D01*
Y994495D01*
X518403D01*
Y994179D01*
X517771D01*
Y993863D01*
X516822D01*
Y993546D01*
X513978D01*
Y993863D01*
X513029D01*
Y994179D01*
X512081D01*
Y994495D01*
X511449D01*
Y994811D01*
X510817D01*
Y995127D01*
X510500D01*
Y995443D01*
X510184D01*
Y995759D01*
X509868D01*
Y996075D01*
X509552D01*
Y996391D01*
X509236D01*
Y996707D01*
X508920D01*
Y997023D01*
X508604D01*
Y997656D01*
X508288D01*
Y997972D01*
X507972D01*
Y998288D01*
X507656D01*
Y998920D01*
X507340D01*
Y999552D01*
X507024D01*
Y1000184D01*
X506707D01*
Y1000816D01*
X506391D01*
Y1001133D01*
X506075D01*
Y1001449D01*
X505759D01*
Y1001765D01*
X505443D01*
Y1002081D01*
X504811D01*
Y1002397D01*
X504179D01*
Y1002713D01*
X503546D01*
Y1003029D01*
X502914D01*
Y1003345D01*
X502598D01*
Y1003661D01*
X502282D01*
Y1003977D01*
X501650D01*
Y1004293D01*
X501334D01*
Y1004926D01*
X501018D01*
Y1005874D01*
X500702D01*
Y1007138D01*
X500386D01*
Y1009667D01*
X500702D01*
Y1011247D01*
X501018D01*
Y1012196D01*
X501334D01*
Y1013144D01*
X501650D01*
Y1013460D01*
X501966D01*
Y1014092D01*
X502282D01*
Y1014408D01*
X502598D01*
Y1014724D01*
X503230D01*
Y1015040D01*
X503546D01*
Y1015357D01*
X503863D01*
Y1015673D01*
X504495D01*
Y1015989D01*
X505127D01*
Y1016305D01*
X505443D01*
Y1016621D01*
X506075D01*
Y1016937D01*
X506391D01*
Y1017253D01*
X506707D01*
Y1017569D01*
X507024D01*
Y1017885D01*
X507340D01*
Y1018201D01*
X507656D01*
Y1018833D01*
X507972D01*
Y1019466D01*
X508288D01*
Y1019782D01*
X508604D01*
Y1020414D01*
X508920D01*
Y1020730D01*
X509236D01*
Y1021362D01*
X509552D01*
Y1021678D01*
X509868D01*
Y1021994D01*
X510184D01*
Y1022310D01*
X510500D01*
Y1022627D01*
X510817D01*
Y1022943D01*
X511133D01*
Y1023259D01*
X511449D01*
Y1023575D01*
X512081D01*
Y1023891D01*
X512713D01*
Y1024207D01*
X517138D01*
Y1023891D01*
D02*
G37*
G36*
X503230Y999236D02*
X504495D01*
Y998920D01*
X505127D01*
Y998604D01*
X505443D01*
Y998288D01*
X505759D01*
Y997972D01*
X506075D01*
Y997656D01*
X506391D01*
Y997023D01*
X506707D01*
Y996075D01*
X507024D01*
Y993863D01*
X506707D01*
Y992914D01*
X506391D01*
Y992282D01*
X506075D01*
Y991650D01*
X505759D01*
Y991334D01*
X505443D01*
Y990702D01*
X505127D01*
Y990386D01*
X504811D01*
Y990069D01*
X504495D01*
Y989753D01*
X504179D01*
Y989437D01*
X503863D01*
Y989121D01*
X503230D01*
Y988805D01*
X502914D01*
Y988489D01*
X502598D01*
Y988173D01*
X501966D01*
Y987857D01*
X501334D01*
Y987541D01*
X500702D01*
Y987225D01*
X500070D01*
Y986908D01*
X496277D01*
Y987225D01*
X495644D01*
Y987541D01*
X494696D01*
Y987857D01*
X494380D01*
Y988173D01*
X494064D01*
Y988489D01*
X493432D01*
Y988805D01*
X493116D01*
Y989437D01*
X492799D01*
Y989753D01*
X492483D01*
Y990386D01*
X492167D01*
Y991334D01*
X491851D01*
Y993230D01*
X492167D01*
Y994179D01*
X492483D01*
Y994811D01*
X492799D01*
Y995127D01*
X493116D01*
Y995759D01*
X493432D01*
Y996075D01*
X493748D01*
Y996391D01*
X494064D01*
Y996707D01*
X494380D01*
Y997023D01*
X495012D01*
Y997339D01*
X495328D01*
Y997656D01*
X495960D01*
Y997972D01*
X496593D01*
Y998288D01*
X497225D01*
Y998604D01*
X498173D01*
Y998920D01*
X499437D01*
Y999236D01*
X501018D01*
Y999552D01*
X503230D01*
Y999236D01*
D02*
G37*
D11*
X596364Y830481D02*
G03*
X591721Y835124I-10894J-6251D01*
G01*
X542290Y824230D02*
X585470D01*
X542290Y1103630D02*
X585470D01*
X801370Y760730D02*
Y964962D01*
X813038Y976630D02*
X814070D01*
X801370Y964962D02*
X813038Y976630D01*
X801370Y760730D02*
X814070Y748030D01*
X596364Y830481D02*
X606425Y820420D01*
X542290Y849630D02*
X585470D01*
X526415D02*
X542290D01*
X588001Y838844D02*
X591721Y835124D01*
X762000Y618490D02*
X792124D01*
X720725D02*
X762000D01*
X542290Y900430D02*
X585470D01*
X542290Y925830D02*
X585470D01*
X542290Y951230D02*
X585470D01*
X542290Y976630D02*
X585470D01*
X542290Y1002030D02*
X585470D01*
X542290Y1027430D02*
X585470D01*
X303923Y742632D02*
X402025Y644530D01*
X606425Y732790D02*
Y820420D01*
X577025Y689800D02*
Y740182D01*
X427990Y657225D02*
X501015Y730250D01*
Y824230D02*
X526415Y849630D01*
X587257Y847843D02*
X588001Y847099D01*
X303607Y743583D02*
X303617Y743405D01*
X542290Y798830D02*
X585470D01*
X303600Y743590D02*
X303607Y743583D01*
X588001Y838844D02*
Y847099D01*
X303965Y658225D02*
X305600Y656590D01*
X615950Y619760D02*
Y650875D01*
X584873Y748030D02*
X585470D01*
X514985Y651510D02*
Y721360D01*
X606425Y732790D02*
X720725Y618490D01*
X402025Y644530D02*
X508005D01*
X585470Y849630D02*
X587257Y847843D01*
X613410Y617220D02*
X615950Y619760D01*
X303617Y743405D02*
X303923Y742632D01*
X427990Y656590D02*
Y657225D01*
X541655Y748030D02*
X585470D01*
X514985Y721360D02*
X541655Y748030D01*
X577025Y689800D02*
X615950Y650875D01*
X508005Y644530D02*
X514985Y651510D01*
X577025Y740182D02*
X584873Y748030D01*
X303965Y658225D02*
Y743225D01*
X501015Y730250D02*
Y824230D01*
X814070Y748030D02*
X858520D01*
X890270Y635000D02*
Y671830D01*
X814070Y748030D02*
X890270Y671830D01*
X873760Y618490D02*
X890270Y635000D01*
X951230Y798830D02*
X967522D01*
X920750D02*
X951230D01*
X969010Y816610D01*
Y1005840D01*
X751840Y1047750D02*
X772160Y1027430D01*
X751840Y1047750D02*
Y1158240D01*
X796290Y1202690D01*
X1008162D02*
X1009650Y1201202D01*
X796290Y1202690D02*
X1008162D01*
X1009650Y1076960D02*
Y1201202D01*
X969010Y1036320D02*
X1009650Y1076960D01*
X741680Y722630D02*
Y947420D01*
X585470Y1103630D02*
X741680Y947420D01*
Y722630D02*
X805180Y659130D01*
X858520D01*
X873760Y643890D01*
X596900Y617220D02*
X610870Y603250D01*
X906780D01*
X922020Y618490D01*
X596900Y617220D02*
X613410D01*
X595630Y618490D02*
X596900Y617220D01*
X922020Y618490D02*
X947420D01*
X947837Y618907D01*
Y628312D02*
X969010Y649485D01*
X947837Y618907D02*
Y628312D01*
X967522Y798830D02*
X969010Y797342D01*
Y649485D02*
Y797342D01*
X822960Y618490D02*
X873760D01*
X792124D02*
X822960D01*
X565150D02*
X595630D01*
X534670D02*
X565150D01*
X915670Y1116330D02*
Y1147445D01*
X877570Y1078230D02*
X915670Y1116330D01*
X858520Y1078230D02*
X877570D01*
X772160Y1103630D02*
X814070D01*
X874395Y808355D02*
X890270Y824230D01*
X858520Y748030D02*
X874395Y763905D01*
Y808355D01*
X890270Y798830D02*
X920750D01*
X890270Y824230D02*
X920750D01*
X951230D01*
X920750Y849630D02*
X951230D01*
X890270D02*
X920750D01*
X858520D02*
X890270D01*
X920750Y875030D02*
X951230D01*
X890270D02*
X920750D01*
X858520D02*
X890270D01*
Y900430D02*
X920750D01*
X951230D01*
X858520D02*
X890270D01*
Y925830D02*
X920750D01*
X858520D02*
X890270D01*
X920750D02*
X951230D01*
X920750Y951230D02*
X951230D01*
X890270D02*
X920750D01*
X858520D02*
X890270D01*
X969010Y1036320D02*
Y1064260D01*
X991870Y1087120D01*
Y1116330D01*
X943610Y1036320D02*
X944880Y1037590D01*
Y1073150D01*
X966470Y1094740D01*
Y1116330D01*
X914400Y976630D02*
X943610Y1005840D01*
X858520Y976630D02*
X914400D01*
X943610Y1005840D02*
Y1036320D01*
X969010Y1005840D02*
Y1036320D01*
X859515Y1002030D02*
X867015Y994530D01*
X858520Y1002030D02*
X859515D01*
X906900Y994530D02*
X918210Y1005840D01*
X867015Y994530D02*
X906900D01*
X897495Y1025010D02*
X906900Y1034415D01*
X861892Y1027430D02*
X864312Y1025010D01*
X858520Y1027430D02*
X861892D01*
X916305Y1034415D02*
X918210Y1036320D01*
X906900Y1034415D02*
X916305D01*
X864312Y1025010D02*
X897495D01*
X859452Y1053762D02*
X868342D01*
X895350Y1070610D02*
X941070Y1116330D01*
X885190Y1070610D02*
X895350D01*
X858520Y1052830D02*
X859452Y1053762D01*
X868342D02*
X885190Y1070610D01*
X820420Y1052830D02*
X858520D01*
X991870Y1147445D02*
Y1178560D01*
Y1116330D02*
Y1147445D01*
X966470Y1116330D02*
Y1147445D01*
Y1178560D01*
X941070Y1147445D02*
Y1178560D01*
Y1116330D02*
Y1147445D01*
X915670D02*
Y1178560D01*
X890270Y1116330D02*
Y1147445D01*
Y1178560D01*
X820420Y976630D02*
X858520D01*
X820420Y900430D02*
X858520D01*
X820420Y875030D02*
X858520D01*
X820420Y849630D02*
X858520D01*
X820420Y925830D02*
X858520D01*
X820420Y824230D02*
X858520D01*
X820420Y798830D02*
X858520D01*
X820420Y1002030D02*
X858520D01*
X820420Y1103630D02*
X858520D01*
X820420Y1027430D02*
X858520D01*
X820420Y1078230D02*
X858520D01*
D22*
X354330Y1038860D02*
Y1149350D01*
X404330Y1038860D02*
Y1149350D01*
Y1038860D02*
X405600Y1037590D01*
X354330Y1038860D02*
X355600Y1037590D01*
D23*
X803470Y707430D02*
D03*
X596070D02*
D03*
X803470Y1144230D02*
D03*
X595670D02*
D03*
D24*
X814070Y1103630D02*
D03*
Y1078230D02*
D03*
Y1052830D02*
D03*
Y1027430D02*
D03*
Y1002030D02*
D03*
Y976630D02*
D03*
Y951230D02*
D03*
Y925830D02*
D03*
Y900430D02*
D03*
Y875030D02*
D03*
Y849630D02*
D03*
Y824230D02*
D03*
Y798830D02*
D03*
Y773430D02*
D03*
Y748030D02*
D03*
X585470D02*
D03*
Y773430D02*
D03*
Y798830D02*
D03*
Y824230D02*
D03*
Y849630D02*
D03*
Y875030D02*
D03*
Y900430D02*
D03*
Y925830D02*
D03*
Y951230D02*
D03*
Y976630D02*
D03*
Y1002030D02*
D03*
Y1027430D02*
D03*
Y1052830D02*
D03*
Y1078230D02*
D03*
D25*
Y1103630D02*
D03*
D26*
X303600Y743590D02*
D03*
X457600D02*
D03*
X355600Y1037590D02*
D03*
X405600D02*
D03*
X943610Y1036320D02*
D03*
X918210D02*
D03*
X892810D02*
D03*
X943610Y1005840D02*
D03*
X918210D02*
D03*
X892810D02*
D03*
X951230Y849630D02*
D03*
Y824230D02*
D03*
Y875030D02*
D03*
Y900430D02*
D03*
Y925830D02*
D03*
Y951230D02*
D03*
X920750Y849630D02*
D03*
Y824230D02*
D03*
Y875030D02*
D03*
Y900430D02*
D03*
Y925830D02*
D03*
Y951230D02*
D03*
X892810Y767080D02*
D03*
X951230Y768350D02*
D03*
X858520Y748030D02*
D03*
Y773430D02*
D03*
Y798830D02*
D03*
Y824230D02*
D03*
Y849630D02*
D03*
Y875030D02*
D03*
Y900430D02*
D03*
Y925830D02*
D03*
Y951230D02*
D03*
Y976630D02*
D03*
Y1002030D02*
D03*
Y1027430D02*
D03*
Y1052830D02*
D03*
Y1078230D02*
D03*
X890270Y849630D02*
D03*
Y824230D02*
D03*
Y875030D02*
D03*
Y900430D02*
D03*
Y925830D02*
D03*
Y951230D02*
D03*
X822960Y643890D02*
D03*
X966470Y1116330D02*
D03*
X941070D02*
D03*
X915670D02*
D03*
X890270D02*
D03*
X542290Y748030D02*
D03*
Y773430D02*
D03*
Y798830D02*
D03*
Y824230D02*
D03*
Y849630D02*
D03*
Y875030D02*
D03*
Y900430D02*
D03*
Y925830D02*
D03*
Y951230D02*
D03*
Y976630D02*
D03*
Y1002030D02*
D03*
Y1027430D02*
D03*
Y1052830D02*
D03*
Y1078230D02*
D03*
X966470Y1147445D02*
D03*
X941070D02*
D03*
X915670D02*
D03*
X890270D02*
D03*
X966470Y1178560D02*
D03*
X941070D02*
D03*
X915670D02*
D03*
X890270D02*
D03*
X762000Y643890D02*
D03*
X792124D02*
D03*
X595630D02*
D03*
X565150D02*
D03*
X534670D02*
D03*
X947420Y694690D02*
D03*
Y669290D02*
D03*
Y643890D02*
D03*
X873760D02*
D03*
Y669290D02*
D03*
D27*
X404330Y1149350D02*
D03*
X354330D02*
D03*
X477990Y656590D02*
D03*
X427990D02*
D03*
X305600D02*
D03*
X355600D02*
D03*
D28*
X969010Y1036320D02*
D03*
Y1005840D02*
D03*
X991870Y1116330D02*
D03*
Y1147445D02*
D03*
Y1178560D02*
D03*
D29*
X951230Y798830D02*
D03*
X920750D02*
D03*
X892810Y741680D02*
D03*
X951230Y742950D02*
D03*
X858520Y1103630D02*
D03*
X890270Y798830D02*
D03*
X822960Y618490D02*
D03*
X542290Y1103630D02*
D03*
X762000Y618490D02*
D03*
X792124D02*
D03*
X595630D02*
D03*
X565150D02*
D03*
X534670D02*
D03*
X947420D02*
D03*
X873760D02*
D03*
D30*
X772160Y1027430D02*
D03*
Y1103630D02*
D03*
D31*
X289560Y1200150D02*
D03*
X1003300Y622300D02*
D03*
M02*
