G04*
G04 #@! TF.GenerationSoftware,Altium Limited,Altium Designer,23.1.1 (15)*
G04*
G04 Layer_Physical_Order=2*
G04 Layer_Color=16711680*
%FSLAX44Y44*%
%MOMM*%
G71*
G04*
G04 #@! TF.SameCoordinates,7520F120-D5D8-497E-858A-6684157EE888*
G04*
G04*
G04 #@! TF.FilePolarity,Positive*
G04*
G01*
G75*
%ADD11C,0.2540*%
%ADD23C,1.4600*%
%ADD24C,1.7500*%
%ADD25R,1.7500X1.7500*%
%ADD26C,1.5000*%
%ADD27C,1.6500*%
%ADD28R,1.5000X1.5000*%
%ADD29R,1.5000X1.5000*%
%ADD30C,1.4000*%
%ADD31C,4.0000*%
G36*
X1024890Y1226820D02*
X1027430Y1224280D01*
Y598170D01*
X262890D01*
Y948690D01*
X447040D01*
X509270Y1010920D01*
Y1227191D01*
X510169Y1228088D01*
X1024890Y1226820D01*
D02*
G37*
%LPC*%
G36*
X891592Y1188600D02*
X891540D01*
Y1179830D01*
X900310D01*
Y1179882D01*
X899626Y1182435D01*
X898304Y1184725D01*
X896435Y1186594D01*
X894145Y1187916D01*
X891592Y1188600D01*
D02*
G37*
G36*
X889000D02*
X888948D01*
X886395Y1187916D01*
X884105Y1186594D01*
X882236Y1184725D01*
X880914Y1182435D01*
X880230Y1179882D01*
Y1179830D01*
X889000D01*
Y1188600D01*
D02*
G37*
G36*
X1001910D02*
X981830D01*
Y1168520D01*
X1001910D01*
Y1188600D01*
D02*
G37*
G36*
X967792D02*
X965148D01*
X962595Y1187916D01*
X960305Y1186594D01*
X958436Y1184725D01*
X957114Y1182435D01*
X956430Y1179882D01*
Y1177238D01*
X957114Y1174685D01*
X958436Y1172395D01*
X960305Y1170526D01*
X962595Y1169204D01*
X965148Y1168520D01*
X967792D01*
X970345Y1169204D01*
X972635Y1170526D01*
X974504Y1172395D01*
X975826Y1174685D01*
X976510Y1177238D01*
Y1179882D01*
X975826Y1182435D01*
X974504Y1184725D01*
X972635Y1186594D01*
X970345Y1187916D01*
X967792Y1188600D01*
D02*
G37*
G36*
X942392D02*
X939748D01*
X937195Y1187916D01*
X934905Y1186594D01*
X933036Y1184725D01*
X931714Y1182435D01*
X931030Y1179882D01*
Y1177238D01*
X931714Y1174685D01*
X933036Y1172395D01*
X934905Y1170526D01*
X937195Y1169204D01*
X939748Y1168520D01*
X942392D01*
X944945Y1169204D01*
X947235Y1170526D01*
X949104Y1172395D01*
X950426Y1174685D01*
X951110Y1177238D01*
Y1179882D01*
X950426Y1182435D01*
X949104Y1184725D01*
X947235Y1186594D01*
X944945Y1187916D01*
X942392Y1188600D01*
D02*
G37*
G36*
X916992D02*
X914348D01*
X911795Y1187916D01*
X909505Y1186594D01*
X907636Y1184725D01*
X906314Y1182435D01*
X905630Y1179882D01*
Y1177238D01*
X906314Y1174685D01*
X907636Y1172395D01*
X909505Y1170526D01*
X911795Y1169204D01*
X914348Y1168520D01*
X916992D01*
X919545Y1169204D01*
X921835Y1170526D01*
X923704Y1172395D01*
X925026Y1174685D01*
X925710Y1177238D01*
Y1179882D01*
X925026Y1182435D01*
X923704Y1184725D01*
X921835Y1186594D01*
X919545Y1187916D01*
X916992Y1188600D01*
D02*
G37*
G36*
X900310Y1177290D02*
X891540D01*
Y1168520D01*
X891592D01*
X894145Y1169204D01*
X896435Y1170526D01*
X898304Y1172395D01*
X899626Y1174685D01*
X900310Y1177238D01*
Y1177290D01*
D02*
G37*
G36*
X889000D02*
X880230D01*
Y1177238D01*
X880914Y1174685D01*
X882236Y1172395D01*
X884105Y1170526D01*
X886395Y1169204D01*
X888948Y1168520D01*
X889000D01*
Y1177290D01*
D02*
G37*
G36*
X891592Y1157485D02*
X891540D01*
Y1148715D01*
X900310D01*
Y1148767D01*
X899626Y1151320D01*
X898304Y1153610D01*
X896435Y1155479D01*
X894145Y1156801D01*
X891592Y1157485D01*
D02*
G37*
G36*
X889000D02*
X888948D01*
X886395Y1156801D01*
X884105Y1155479D01*
X882236Y1153610D01*
X880914Y1151320D01*
X880230Y1148767D01*
Y1148715D01*
X889000D01*
Y1157485D01*
D02*
G37*
G36*
X1001910D02*
X981830D01*
Y1137405D01*
X1001910D01*
Y1157485D01*
D02*
G37*
G36*
X967792D02*
X965148D01*
X962595Y1156801D01*
X960305Y1155479D01*
X958436Y1153610D01*
X957114Y1151320D01*
X956430Y1148767D01*
Y1146123D01*
X957114Y1143570D01*
X958436Y1141280D01*
X960305Y1139411D01*
X962595Y1138089D01*
X965148Y1137405D01*
X967792D01*
X970345Y1138089D01*
X972635Y1139411D01*
X974504Y1141280D01*
X975826Y1143570D01*
X976510Y1146123D01*
Y1148767D01*
X975826Y1151320D01*
X974504Y1153610D01*
X972635Y1155479D01*
X970345Y1156801D01*
X967792Y1157485D01*
D02*
G37*
G36*
X942392D02*
X939748D01*
X937195Y1156801D01*
X934905Y1155479D01*
X933036Y1153610D01*
X931714Y1151320D01*
X931030Y1148767D01*
Y1146123D01*
X931714Y1143570D01*
X933036Y1141280D01*
X934905Y1139411D01*
X937195Y1138089D01*
X939748Y1137405D01*
X942392D01*
X944945Y1138089D01*
X947235Y1139411D01*
X949104Y1141280D01*
X950426Y1143570D01*
X951110Y1146123D01*
Y1148767D01*
X950426Y1151320D01*
X949104Y1153610D01*
X947235Y1155479D01*
X944945Y1156801D01*
X942392Y1157485D01*
D02*
G37*
G36*
X916992D02*
X914348D01*
X911795Y1156801D01*
X909505Y1155479D01*
X907636Y1153610D01*
X906314Y1151320D01*
X905630Y1148767D01*
Y1146123D01*
X906314Y1143570D01*
X907636Y1141280D01*
X909505Y1139411D01*
X911795Y1138089D01*
X914348Y1137405D01*
X916992D01*
X919545Y1138089D01*
X921835Y1139411D01*
X923704Y1141280D01*
X925026Y1143570D01*
X925710Y1146123D01*
Y1148767D01*
X925026Y1151320D01*
X923704Y1153610D01*
X921835Y1155479D01*
X919545Y1156801D01*
X916992Y1157485D01*
D02*
G37*
G36*
X900310Y1146175D02*
X891540D01*
Y1137405D01*
X891592D01*
X894145Y1138089D01*
X896435Y1139411D01*
X898304Y1141280D01*
X899626Y1143570D01*
X900310Y1146123D01*
Y1146175D01*
D02*
G37*
G36*
X889000D02*
X880230D01*
Y1146123D01*
X880914Y1143570D01*
X882236Y1141280D01*
X884105Y1139411D01*
X886395Y1138089D01*
X888948Y1137405D01*
X889000D01*
Y1146175D01*
D02*
G37*
G36*
X805158Y1161370D02*
X801782D01*
X798470Y1160711D01*
X795351Y1159419D01*
X792544Y1157543D01*
X790156Y1155156D01*
X788281Y1152349D01*
X786989Y1149230D01*
X786330Y1145918D01*
Y1142542D01*
X786989Y1139230D01*
X788281Y1136111D01*
X790156Y1133304D01*
X792544Y1130917D01*
X795351Y1129041D01*
X798470Y1127749D01*
X801782Y1127090D01*
X805158D01*
X808470Y1127749D01*
X811589Y1129041D01*
X814396Y1130917D01*
X816784Y1133304D01*
X818659Y1136111D01*
X819951Y1139230D01*
X820610Y1142542D01*
Y1145918D01*
X819951Y1149230D01*
X818659Y1152349D01*
X816784Y1155156D01*
X814396Y1157543D01*
X811589Y1159419D01*
X808470Y1160711D01*
X805158Y1161370D01*
D02*
G37*
G36*
X597358D02*
X593982D01*
X590670Y1160711D01*
X587551Y1159419D01*
X584744Y1157543D01*
X582356Y1155156D01*
X580481Y1152349D01*
X579189Y1149230D01*
X578530Y1145918D01*
Y1142542D01*
X579189Y1139230D01*
X580481Y1136111D01*
X582356Y1133304D01*
X584744Y1130917D01*
X587551Y1129041D01*
X590670Y1127749D01*
X593982Y1127090D01*
X597358D01*
X600670Y1127749D01*
X603789Y1129041D01*
X606596Y1130917D01*
X608983Y1133304D01*
X610859Y1136111D01*
X612151Y1139230D01*
X612810Y1142542D01*
Y1145918D01*
X612151Y1149230D01*
X610859Y1152349D01*
X608983Y1155156D01*
X606596Y1157543D01*
X603789Y1159419D01*
X600670Y1160711D01*
X597358Y1161370D01*
D02*
G37*
G36*
X891592Y1126370D02*
X891540D01*
Y1117600D01*
X900310D01*
Y1117652D01*
X899626Y1120205D01*
X898304Y1122495D01*
X896435Y1124364D01*
X894145Y1125686D01*
X891592Y1126370D01*
D02*
G37*
G36*
X889000D02*
X888948D01*
X886395Y1125686D01*
X884105Y1124364D01*
X882236Y1122495D01*
X880914Y1120205D01*
X880230Y1117652D01*
Y1117600D01*
X889000D01*
Y1126370D01*
D02*
G37*
G36*
X1001910D02*
X981830D01*
Y1106290D01*
X1001910D01*
Y1126370D01*
D02*
G37*
G36*
X967792D02*
X965148D01*
X962595Y1125686D01*
X960305Y1124364D01*
X958436Y1122495D01*
X957114Y1120205D01*
X956430Y1117652D01*
Y1115008D01*
X957114Y1112455D01*
X958436Y1110165D01*
X960305Y1108296D01*
X962595Y1106974D01*
X965148Y1106290D01*
X967792D01*
X970345Y1106974D01*
X972635Y1108296D01*
X974504Y1110165D01*
X975826Y1112455D01*
X976510Y1115008D01*
Y1117652D01*
X975826Y1120205D01*
X974504Y1122495D01*
X972635Y1124364D01*
X970345Y1125686D01*
X967792Y1126370D01*
D02*
G37*
G36*
X942392D02*
X939748D01*
X937195Y1125686D01*
X934905Y1124364D01*
X933036Y1122495D01*
X931714Y1120205D01*
X931030Y1117652D01*
Y1115008D01*
X931714Y1112455D01*
X933036Y1110165D01*
X934905Y1108296D01*
X937195Y1106974D01*
X939748Y1106290D01*
X942392D01*
X944945Y1106974D01*
X947235Y1108296D01*
X949104Y1110165D01*
X950426Y1112455D01*
X951110Y1115008D01*
Y1117652D01*
X950426Y1120205D01*
X949104Y1122495D01*
X947235Y1124364D01*
X944945Y1125686D01*
X942392Y1126370D01*
D02*
G37*
G36*
X916992D02*
X914348D01*
X911795Y1125686D01*
X909505Y1124364D01*
X907636Y1122495D01*
X906314Y1120205D01*
X905630Y1117652D01*
Y1115008D01*
X906314Y1112455D01*
X907636Y1110165D01*
X909505Y1108296D01*
X911795Y1106974D01*
X914348Y1106290D01*
X916992D01*
X919545Y1106974D01*
X921835Y1108296D01*
X923704Y1110165D01*
X925026Y1112455D01*
X925710Y1115008D01*
Y1117652D01*
X925026Y1120205D01*
X923704Y1122495D01*
X921835Y1124364D01*
X919545Y1125686D01*
X916992Y1126370D01*
D02*
G37*
G36*
X900310Y1115060D02*
X891540D01*
Y1106290D01*
X891592D01*
X894145Y1106974D01*
X896435Y1108296D01*
X898304Y1110165D01*
X899626Y1112455D01*
X900310Y1115008D01*
Y1115060D01*
D02*
G37*
G36*
X889000D02*
X880230D01*
Y1115008D01*
X880914Y1112455D01*
X882236Y1110165D01*
X884105Y1108296D01*
X886395Y1106974D01*
X888948Y1106290D01*
X889000D01*
Y1115060D01*
D02*
G37*
G36*
X773416Y1113170D02*
X770904D01*
X768478Y1112520D01*
X766302Y1111264D01*
X764526Y1109488D01*
X763270Y1107312D01*
X762620Y1104886D01*
Y1102374D01*
X763270Y1099948D01*
X764526Y1097772D01*
X766302Y1095996D01*
X768478Y1094740D01*
X770904Y1094090D01*
X773416D01*
X775842Y1094740D01*
X778018Y1095996D01*
X779794Y1097772D01*
X781050Y1099948D01*
X781700Y1102374D01*
Y1104886D01*
X781050Y1107312D01*
X779794Y1109488D01*
X778018Y1111264D01*
X775842Y1112520D01*
X773416Y1113170D01*
D02*
G37*
G36*
X552330Y1113670D02*
X532250D01*
Y1093590D01*
X552330D01*
Y1113670D01*
D02*
G37*
G36*
X815556Y1114920D02*
X812584D01*
X809712Y1114151D01*
X807138Y1112664D01*
X805036Y1110562D01*
X803549Y1107988D01*
X802780Y1105116D01*
Y1102144D01*
X803549Y1099272D01*
X805036Y1096698D01*
X807138Y1094596D01*
X809712Y1093109D01*
X812584Y1092340D01*
X815556D01*
X818428Y1093109D01*
X821002Y1094596D01*
X823104Y1096698D01*
X824591Y1099272D01*
X825360Y1102144D01*
Y1105116D01*
X824591Y1107988D01*
X823104Y1110562D01*
X821002Y1112664D01*
X818428Y1114151D01*
X815556Y1114920D01*
D02*
G37*
G36*
X596760D02*
X574180D01*
Y1092340D01*
X596760D01*
Y1114920D01*
D02*
G37*
G36*
X859842Y1088270D02*
X857198D01*
X854645Y1087586D01*
X852355Y1086264D01*
X850486Y1084395D01*
X849164Y1082105D01*
X848480Y1079552D01*
Y1076908D01*
X849164Y1074355D01*
X850486Y1072065D01*
X852355Y1070196D01*
X854645Y1068874D01*
X857198Y1068190D01*
X859842D01*
X862395Y1068874D01*
X864685Y1070196D01*
X866554Y1072065D01*
X867876Y1074355D01*
X868560Y1076908D01*
Y1079552D01*
X867876Y1082105D01*
X866554Y1084395D01*
X864685Y1086264D01*
X862395Y1087586D01*
X859842Y1088270D01*
D02*
G37*
G36*
X543612D02*
X540968D01*
X538415Y1087586D01*
X536125Y1086264D01*
X534256Y1084395D01*
X532934Y1082105D01*
X532250Y1079552D01*
Y1076908D01*
X532934Y1074355D01*
X534256Y1072065D01*
X536125Y1070196D01*
X538415Y1068874D01*
X540968Y1068190D01*
X543612D01*
X546165Y1068874D01*
X548455Y1070196D01*
X550324Y1072065D01*
X551646Y1074355D01*
X552330Y1076908D01*
Y1079552D01*
X551646Y1082105D01*
X550324Y1084395D01*
X548455Y1086264D01*
X546165Y1087586D01*
X543612Y1088270D01*
D02*
G37*
G36*
X815556Y1089520D02*
X812584D01*
X809712Y1088751D01*
X807138Y1087264D01*
X805036Y1085162D01*
X803549Y1082588D01*
X802780Y1079716D01*
Y1076744D01*
X803549Y1073872D01*
X805036Y1071298D01*
X807138Y1069196D01*
X809712Y1067709D01*
X812584Y1066940D01*
X815556D01*
X818428Y1067709D01*
X821002Y1069196D01*
X823104Y1071298D01*
X824591Y1073872D01*
X825360Y1076744D01*
Y1079716D01*
X824591Y1082588D01*
X823104Y1085162D01*
X821002Y1087264D01*
X818428Y1088751D01*
X815556Y1089520D01*
D02*
G37*
G36*
X586956D02*
X583984D01*
X581112Y1088751D01*
X578538Y1087264D01*
X576436Y1085162D01*
X574949Y1082588D01*
X574180Y1079716D01*
Y1076744D01*
X574949Y1073872D01*
X576436Y1071298D01*
X578538Y1069196D01*
X581112Y1067709D01*
X583984Y1066940D01*
X586956D01*
X589828Y1067709D01*
X592402Y1069196D01*
X594504Y1071298D01*
X595991Y1073872D01*
X596760Y1076744D01*
Y1079716D01*
X595991Y1082588D01*
X594504Y1085162D01*
X592402Y1087264D01*
X589828Y1088751D01*
X586956Y1089520D01*
D02*
G37*
G36*
X859842Y1062870D02*
X857198D01*
X854645Y1062186D01*
X852355Y1060864D01*
X850486Y1058995D01*
X849164Y1056705D01*
X848480Y1054152D01*
Y1051508D01*
X849164Y1048955D01*
X850486Y1046665D01*
X852355Y1044796D01*
X854645Y1043474D01*
X857198Y1042790D01*
X859842D01*
X862395Y1043474D01*
X864685Y1044796D01*
X866554Y1046665D01*
X867876Y1048955D01*
X868560Y1051508D01*
Y1054152D01*
X867876Y1056705D01*
X866554Y1058995D01*
X864685Y1060864D01*
X862395Y1062186D01*
X859842Y1062870D01*
D02*
G37*
G36*
X543612D02*
X540968D01*
X538415Y1062186D01*
X536125Y1060864D01*
X534256Y1058995D01*
X532934Y1056705D01*
X532250Y1054152D01*
Y1051508D01*
X532934Y1048955D01*
X534256Y1046665D01*
X536125Y1044796D01*
X538415Y1043474D01*
X540968Y1042790D01*
X543612D01*
X546165Y1043474D01*
X548455Y1044796D01*
X550324Y1046665D01*
X551646Y1048955D01*
X552330Y1051508D01*
Y1054152D01*
X551646Y1056705D01*
X550324Y1058995D01*
X548455Y1060864D01*
X546165Y1062186D01*
X543612Y1062870D01*
D02*
G37*
G36*
X815556Y1064120D02*
X812584D01*
X809712Y1063351D01*
X807138Y1061864D01*
X805036Y1059762D01*
X803549Y1057188D01*
X802780Y1054316D01*
Y1051344D01*
X803549Y1048472D01*
X805036Y1045898D01*
X807138Y1043796D01*
X809712Y1042309D01*
X812584Y1041540D01*
X815556D01*
X818428Y1042309D01*
X821002Y1043796D01*
X823104Y1045898D01*
X824591Y1048472D01*
X825360Y1051344D01*
Y1054316D01*
X824591Y1057188D01*
X823104Y1059762D01*
X821002Y1061864D01*
X818428Y1063351D01*
X815556Y1064120D01*
D02*
G37*
G36*
X586956D02*
X583984D01*
X581112Y1063351D01*
X578538Y1061864D01*
X576436Y1059762D01*
X574949Y1057188D01*
X574180Y1054316D01*
Y1051344D01*
X574949Y1048472D01*
X576436Y1045898D01*
X578538Y1043796D01*
X581112Y1042309D01*
X583984Y1041540D01*
X586956D01*
X589828Y1042309D01*
X592402Y1043796D01*
X594504Y1045898D01*
X595991Y1048472D01*
X596760Y1051344D01*
Y1054316D01*
X595991Y1057188D01*
X594504Y1059762D01*
X592402Y1061864D01*
X589828Y1063351D01*
X586956Y1064120D01*
D02*
G37*
G36*
X894132Y1046360D02*
X894080D01*
Y1037590D01*
X902850D01*
Y1037642D01*
X902166Y1040195D01*
X900844Y1042485D01*
X898975Y1044354D01*
X896685Y1045676D01*
X894132Y1046360D01*
D02*
G37*
G36*
X891540D02*
X891488D01*
X888935Y1045676D01*
X886645Y1044354D01*
X884776Y1042485D01*
X883454Y1040195D01*
X882770Y1037642D01*
Y1037590D01*
X891540D01*
Y1046360D01*
D02*
G37*
G36*
X979050D02*
X958970D01*
Y1026280D01*
X979050D01*
Y1046360D01*
D02*
G37*
G36*
X944932D02*
X942288D01*
X939735Y1045676D01*
X937445Y1044354D01*
X935576Y1042485D01*
X934254Y1040195D01*
X933570Y1037642D01*
Y1034998D01*
X934254Y1032445D01*
X935576Y1030155D01*
X937445Y1028286D01*
X939735Y1026964D01*
X942288Y1026280D01*
X944932D01*
X947485Y1026964D01*
X949775Y1028286D01*
X951644Y1030155D01*
X952966Y1032445D01*
X953650Y1034998D01*
Y1037642D01*
X952966Y1040195D01*
X951644Y1042485D01*
X949775Y1044354D01*
X947485Y1045676D01*
X944932Y1046360D01*
D02*
G37*
G36*
X919532D02*
X916888D01*
X914335Y1045676D01*
X912045Y1044354D01*
X910176Y1042485D01*
X908854Y1040195D01*
X908170Y1037642D01*
Y1034998D01*
X908854Y1032445D01*
X910176Y1030155D01*
X912045Y1028286D01*
X914335Y1026964D01*
X916888Y1026280D01*
X919532D01*
X922085Y1026964D01*
X924375Y1028286D01*
X926244Y1030155D01*
X927566Y1032445D01*
X928250Y1034998D01*
Y1037642D01*
X927566Y1040195D01*
X926244Y1042485D01*
X924375Y1044354D01*
X922085Y1045676D01*
X919532Y1046360D01*
D02*
G37*
G36*
X902850Y1035050D02*
X894080D01*
Y1026280D01*
X894132D01*
X896685Y1026964D01*
X898975Y1028286D01*
X900844Y1030155D01*
X902166Y1032445D01*
X902850Y1034998D01*
Y1035050D01*
D02*
G37*
G36*
X891540D02*
X882770D01*
Y1034998D01*
X883454Y1032445D01*
X884776Y1030155D01*
X886645Y1028286D01*
X888935Y1026964D01*
X891488Y1026280D01*
X891540D01*
Y1035050D01*
D02*
G37*
G36*
X773416Y1036970D02*
X770904D01*
X768478Y1036320D01*
X766302Y1035064D01*
X764526Y1033288D01*
X763270Y1031112D01*
X762620Y1028686D01*
Y1026174D01*
X763270Y1023748D01*
X764526Y1021572D01*
X766302Y1019796D01*
X768478Y1018540D01*
X770904Y1017890D01*
X773416D01*
X775842Y1018540D01*
X778018Y1019796D01*
X779794Y1021572D01*
X781050Y1023748D01*
X781700Y1026174D01*
Y1028686D01*
X781050Y1031112D01*
X779794Y1033288D01*
X778018Y1035064D01*
X775842Y1036320D01*
X773416Y1036970D01*
D02*
G37*
G36*
X859842Y1037470D02*
X857198D01*
X854645Y1036786D01*
X852355Y1035464D01*
X850486Y1033595D01*
X849164Y1031305D01*
X848480Y1028752D01*
Y1026108D01*
X849164Y1023555D01*
X850486Y1021265D01*
X852355Y1019396D01*
X854645Y1018074D01*
X857198Y1017390D01*
X859842D01*
X862395Y1018074D01*
X864685Y1019396D01*
X866554Y1021265D01*
X867876Y1023555D01*
X868560Y1026108D01*
Y1028752D01*
X867876Y1031305D01*
X866554Y1033595D01*
X864685Y1035464D01*
X862395Y1036786D01*
X859842Y1037470D01*
D02*
G37*
G36*
X543612D02*
X540968D01*
X538415Y1036786D01*
X536125Y1035464D01*
X534256Y1033595D01*
X532934Y1031305D01*
X532250Y1028752D01*
Y1026108D01*
X532934Y1023555D01*
X534256Y1021265D01*
X536125Y1019396D01*
X538415Y1018074D01*
X540968Y1017390D01*
X543612D01*
X546165Y1018074D01*
X548455Y1019396D01*
X550324Y1021265D01*
X551646Y1023555D01*
X552330Y1026108D01*
Y1028752D01*
X551646Y1031305D01*
X550324Y1033595D01*
X548455Y1035464D01*
X546165Y1036786D01*
X543612Y1037470D01*
D02*
G37*
G36*
X815556Y1038720D02*
X812584D01*
X809712Y1037951D01*
X807138Y1036464D01*
X805036Y1034362D01*
X803549Y1031788D01*
X802780Y1028916D01*
Y1025944D01*
X803549Y1023072D01*
X805036Y1020498D01*
X807138Y1018396D01*
X809712Y1016909D01*
X812584Y1016140D01*
X815556D01*
X818428Y1016909D01*
X821002Y1018396D01*
X823104Y1020498D01*
X824591Y1023072D01*
X825360Y1025944D01*
Y1028916D01*
X824591Y1031788D01*
X823104Y1034362D01*
X821002Y1036464D01*
X818428Y1037951D01*
X815556Y1038720D01*
D02*
G37*
G36*
X586956D02*
X583984D01*
X581112Y1037951D01*
X578538Y1036464D01*
X576436Y1034362D01*
X574949Y1031788D01*
X574180Y1028916D01*
Y1025944D01*
X574949Y1023072D01*
X576436Y1020498D01*
X578538Y1018396D01*
X581112Y1016909D01*
X583984Y1016140D01*
X586956D01*
X589828Y1016909D01*
X592402Y1018396D01*
X594504Y1020498D01*
X595991Y1023072D01*
X596760Y1025944D01*
Y1028916D01*
X595991Y1031788D01*
X594504Y1034362D01*
X592402Y1036464D01*
X589828Y1037951D01*
X586956Y1038720D01*
D02*
G37*
G36*
X894132Y1015880D02*
X894080D01*
Y1007110D01*
X902850D01*
Y1007162D01*
X902166Y1009715D01*
X900844Y1012005D01*
X898975Y1013874D01*
X896685Y1015196D01*
X894132Y1015880D01*
D02*
G37*
G36*
X891540D02*
X891488D01*
X888935Y1015196D01*
X886645Y1013874D01*
X884776Y1012005D01*
X883454Y1009715D01*
X882770Y1007162D01*
Y1007110D01*
X891540D01*
Y1015880D01*
D02*
G37*
G36*
X979050D02*
X958970D01*
Y995800D01*
X979050D01*
Y1015880D01*
D02*
G37*
G36*
X944932D02*
X942288D01*
X939735Y1015196D01*
X937445Y1013874D01*
X935576Y1012005D01*
X934254Y1009715D01*
X933570Y1007162D01*
Y1004518D01*
X934254Y1001965D01*
X935576Y999675D01*
X937445Y997806D01*
X939735Y996484D01*
X942288Y995800D01*
X944932D01*
X947485Y996484D01*
X949775Y997806D01*
X951644Y999675D01*
X952966Y1001965D01*
X953650Y1004518D01*
Y1007162D01*
X952966Y1009715D01*
X951644Y1012005D01*
X949775Y1013874D01*
X947485Y1015196D01*
X944932Y1015880D01*
D02*
G37*
G36*
X919532D02*
X916888D01*
X914335Y1015196D01*
X912045Y1013874D01*
X910176Y1012005D01*
X908854Y1009715D01*
X908170Y1007162D01*
Y1004518D01*
X908854Y1001965D01*
X910176Y999675D01*
X912045Y997806D01*
X914335Y996484D01*
X916888Y995800D01*
X919532D01*
X922085Y996484D01*
X924375Y997806D01*
X926244Y999675D01*
X927566Y1001965D01*
X928250Y1004518D01*
Y1007162D01*
X927566Y1009715D01*
X926244Y1012005D01*
X924375Y1013874D01*
X922085Y1015196D01*
X919532Y1015880D01*
D02*
G37*
G36*
X902850Y1004570D02*
X894080D01*
Y995800D01*
X894132D01*
X896685Y996484D01*
X898975Y997806D01*
X900844Y999675D01*
X902166Y1001965D01*
X902850Y1004518D01*
Y1004570D01*
D02*
G37*
G36*
X891540D02*
X882770D01*
Y1004518D01*
X883454Y1001965D01*
X884776Y999675D01*
X886645Y997806D01*
X888935Y996484D01*
X891488Y995800D01*
X891540D01*
Y1004570D01*
D02*
G37*
G36*
X859842Y1012070D02*
X857198D01*
X854645Y1011386D01*
X852355Y1010064D01*
X850486Y1008195D01*
X849164Y1005905D01*
X848480Y1003352D01*
Y1000708D01*
X849164Y998155D01*
X850486Y995865D01*
X852355Y993996D01*
X854645Y992674D01*
X857198Y991990D01*
X859842D01*
X862395Y992674D01*
X864685Y993996D01*
X866554Y995865D01*
X867876Y998155D01*
X868560Y1000708D01*
Y1003352D01*
X867876Y1005905D01*
X866554Y1008195D01*
X864685Y1010064D01*
X862395Y1011386D01*
X859842Y1012070D01*
D02*
G37*
G36*
X543612D02*
X540968D01*
X538415Y1011386D01*
X536125Y1010064D01*
X534256Y1008195D01*
X532934Y1005905D01*
X532250Y1003352D01*
Y1000708D01*
X532934Y998155D01*
X534256Y995865D01*
X536125Y993996D01*
X538415Y992674D01*
X540968Y991990D01*
X543612D01*
X546165Y992674D01*
X548455Y993996D01*
X550324Y995865D01*
X551646Y998155D01*
X552330Y1000708D01*
Y1003352D01*
X551646Y1005905D01*
X550324Y1008195D01*
X548455Y1010064D01*
X546165Y1011386D01*
X543612Y1012070D01*
D02*
G37*
G36*
X815556Y1013320D02*
X812584D01*
X809712Y1012551D01*
X807138Y1011064D01*
X805036Y1008962D01*
X803549Y1006388D01*
X802780Y1003516D01*
Y1000544D01*
X803549Y997672D01*
X805036Y995098D01*
X807138Y992996D01*
X809712Y991509D01*
X812584Y990740D01*
X815556D01*
X818428Y991509D01*
X821002Y992996D01*
X823104Y995098D01*
X824591Y997672D01*
X825360Y1000544D01*
Y1003516D01*
X824591Y1006388D01*
X823104Y1008962D01*
X821002Y1011064D01*
X818428Y1012551D01*
X815556Y1013320D01*
D02*
G37*
G36*
X586956D02*
X583984D01*
X581112Y1012551D01*
X578538Y1011064D01*
X576436Y1008962D01*
X574949Y1006388D01*
X574180Y1003516D01*
Y1000544D01*
X574949Y997672D01*
X576436Y995098D01*
X578538Y992996D01*
X581112Y991509D01*
X583984Y990740D01*
X586956D01*
X589828Y991509D01*
X592402Y992996D01*
X594504Y995098D01*
X595991Y997672D01*
X596760Y1000544D01*
Y1003516D01*
X595991Y1006388D01*
X594504Y1008962D01*
X592402Y1011064D01*
X589828Y1012551D01*
X586956Y1013320D01*
D02*
G37*
G36*
X859842Y986670D02*
X857198D01*
X854645Y985986D01*
X852355Y984664D01*
X850486Y982795D01*
X849164Y980505D01*
X848480Y977952D01*
Y975308D01*
X849164Y972755D01*
X850486Y970465D01*
X852355Y968596D01*
X854645Y967274D01*
X857198Y966590D01*
X859842D01*
X862395Y967274D01*
X864685Y968596D01*
X866554Y970465D01*
X867876Y972755D01*
X868560Y975308D01*
Y977952D01*
X867876Y980505D01*
X866554Y982795D01*
X864685Y984664D01*
X862395Y985986D01*
X859842Y986670D01*
D02*
G37*
G36*
X543612D02*
X540968D01*
X538415Y985986D01*
X536125Y984664D01*
X534256Y982795D01*
X532934Y980505D01*
X532250Y977952D01*
Y975308D01*
X532934Y972755D01*
X534256Y970465D01*
X536125Y968596D01*
X538415Y967274D01*
X540968Y966590D01*
X543612D01*
X546165Y967274D01*
X548455Y968596D01*
X550324Y970465D01*
X551646Y972755D01*
X552330Y975308D01*
Y977952D01*
X551646Y980505D01*
X550324Y982795D01*
X548455Y984664D01*
X546165Y985986D01*
X543612Y986670D01*
D02*
G37*
G36*
X815556Y987920D02*
X812584D01*
X809712Y987151D01*
X807138Y985664D01*
X805036Y983562D01*
X803549Y980988D01*
X802780Y978116D01*
Y975144D01*
X803549Y972272D01*
X805036Y969698D01*
X807138Y967596D01*
X809712Y966109D01*
X812584Y965340D01*
X815556D01*
X818428Y966109D01*
X821002Y967596D01*
X823104Y969698D01*
X824591Y972272D01*
X825360Y975144D01*
Y978116D01*
X824591Y980988D01*
X823104Y983562D01*
X821002Y985664D01*
X818428Y987151D01*
X815556Y987920D01*
D02*
G37*
G36*
X586956D02*
X583984D01*
X581112Y987151D01*
X578538Y985664D01*
X576436Y983562D01*
X574949Y980988D01*
X574180Y978116D01*
Y975144D01*
X574949Y972272D01*
X576436Y969698D01*
X578538Y967596D01*
X581112Y966109D01*
X583984Y965340D01*
X586956D01*
X589828Y966109D01*
X592402Y967596D01*
X594504Y969698D01*
X595991Y972272D01*
X596760Y975144D01*
Y978116D01*
X595991Y980988D01*
X594504Y983562D01*
X592402Y985664D01*
X589828Y987151D01*
X586956Y987920D01*
D02*
G37*
G36*
X952552Y961270D02*
X952500D01*
Y952500D01*
X961270D01*
Y952552D01*
X960586Y955105D01*
X959264Y957395D01*
X957395Y959264D01*
X955105Y960586D01*
X952552Y961270D01*
D02*
G37*
G36*
X922072D02*
X922020D01*
Y952500D01*
X930790D01*
Y952552D01*
X930106Y955105D01*
X928784Y957395D01*
X926915Y959264D01*
X924625Y960586D01*
X922072Y961270D01*
D02*
G37*
G36*
X891592D02*
X891540D01*
Y952500D01*
X900310D01*
Y952552D01*
X899626Y955105D01*
X898304Y957395D01*
X896435Y959264D01*
X894145Y960586D01*
X891592Y961270D01*
D02*
G37*
G36*
X859842D02*
X859790D01*
Y952500D01*
X868560D01*
Y952552D01*
X867876Y955105D01*
X866554Y957395D01*
X864685Y959264D01*
X862395Y960586D01*
X859842Y961270D01*
D02*
G37*
G36*
X815556Y962520D02*
X815340D01*
Y952500D01*
X825360D01*
Y952716D01*
X824591Y955588D01*
X823104Y958162D01*
X821002Y960264D01*
X818428Y961751D01*
X815556Y962520D01*
D02*
G37*
G36*
X812800D02*
X812584D01*
X809712Y961751D01*
X807138Y960264D01*
X805036Y958162D01*
X803549Y955588D01*
X802780Y952716D01*
Y952500D01*
X812800D01*
Y962520D01*
D02*
G37*
G36*
X857250Y961270D02*
X857198D01*
X854645Y960586D01*
X852355Y959264D01*
X850486Y957395D01*
X849164Y955105D01*
X848480Y952552D01*
Y952500D01*
X857250D01*
Y961270D01*
D02*
G37*
G36*
X949960D02*
X949908D01*
X947355Y960586D01*
X945065Y959264D01*
X943196Y957395D01*
X941874Y955105D01*
X941190Y952552D01*
Y952500D01*
X949960D01*
Y961270D01*
D02*
G37*
G36*
X919480D02*
X919428D01*
X916875Y960586D01*
X914585Y959264D01*
X912716Y957395D01*
X911394Y955105D01*
X910710Y952552D01*
Y952500D01*
X919480D01*
Y961270D01*
D02*
G37*
G36*
X889000D02*
X888948D01*
X886395Y960586D01*
X884105Y959264D01*
X882236Y957395D01*
X880914Y955105D01*
X880230Y952552D01*
Y952500D01*
X889000D01*
Y961270D01*
D02*
G37*
G36*
X961270Y949960D02*
X952500D01*
Y941190D01*
X952552D01*
X955105Y941874D01*
X957395Y943196D01*
X959264Y945065D01*
X960586Y947355D01*
X961270Y949908D01*
Y949960D01*
D02*
G37*
G36*
X949960D02*
X941190D01*
Y949908D01*
X941874Y947355D01*
X943196Y945065D01*
X945065Y943196D01*
X947355Y941874D01*
X949908Y941190D01*
X949960D01*
Y949960D01*
D02*
G37*
G36*
X930790D02*
X922020D01*
Y941190D01*
X922072D01*
X924625Y941874D01*
X926915Y943196D01*
X928784Y945065D01*
X930106Y947355D01*
X930790Y949908D01*
Y949960D01*
D02*
G37*
G36*
X919480D02*
X910710D01*
Y949908D01*
X911394Y947355D01*
X912716Y945065D01*
X914585Y943196D01*
X916875Y941874D01*
X919428Y941190D01*
X919480D01*
Y949960D01*
D02*
G37*
G36*
X900310D02*
X891540D01*
Y941190D01*
X891592D01*
X894145Y941874D01*
X896435Y943196D01*
X898304Y945065D01*
X899626Y947355D01*
X900310Y949908D01*
Y949960D01*
D02*
G37*
G36*
X889000D02*
X880230D01*
Y949908D01*
X880914Y947355D01*
X882236Y945065D01*
X884105Y943196D01*
X886395Y941874D01*
X888948Y941190D01*
X889000D01*
Y949960D01*
D02*
G37*
G36*
X868560D02*
X859790D01*
Y941190D01*
X859842D01*
X862395Y941874D01*
X864685Y943196D01*
X866554Y945065D01*
X867876Y947355D01*
X868560Y949908D01*
Y949960D01*
D02*
G37*
G36*
X857250D02*
X848480D01*
Y949908D01*
X849164Y947355D01*
X850486Y945065D01*
X852355Y943196D01*
X854645Y941874D01*
X857198Y941190D01*
X857250D01*
Y949960D01*
D02*
G37*
G36*
X543612Y961270D02*
X540968D01*
X538415Y960586D01*
X536125Y959264D01*
X534256Y957395D01*
X532934Y955105D01*
X532250Y952552D01*
Y949908D01*
X532934Y947355D01*
X534256Y945065D01*
X536125Y943196D01*
X538415Y941874D01*
X540968Y941190D01*
X543612D01*
X546165Y941874D01*
X548455Y943196D01*
X550324Y945065D01*
X551646Y947355D01*
X552330Y949908D01*
Y952552D01*
X551646Y955105D01*
X550324Y957395D01*
X548455Y959264D01*
X546165Y960586D01*
X543612Y961270D01*
D02*
G37*
G36*
X825360Y949960D02*
X815340D01*
Y939940D01*
X815556D01*
X818428Y940709D01*
X821002Y942196D01*
X823104Y944298D01*
X824591Y946872D01*
X825360Y949744D01*
Y949960D01*
D02*
G37*
G36*
X812800D02*
X802780D01*
Y949744D01*
X803549Y946872D01*
X805036Y944298D01*
X807138Y942196D01*
X809712Y940709D01*
X812584Y939940D01*
X812800D01*
Y949960D01*
D02*
G37*
G36*
X586956Y962520D02*
X583984D01*
X581112Y961751D01*
X578538Y960264D01*
X576436Y958162D01*
X574949Y955588D01*
X574180Y952716D01*
Y949744D01*
X574949Y946872D01*
X576436Y944298D01*
X578538Y942196D01*
X581112Y940709D01*
X583984Y939940D01*
X586956D01*
X589828Y940709D01*
X592402Y942196D01*
X594504Y944298D01*
X595991Y946872D01*
X596760Y949744D01*
Y952716D01*
X595991Y955588D01*
X594504Y958162D01*
X592402Y960264D01*
X589828Y961751D01*
X586956Y962520D01*
D02*
G37*
G36*
X952552Y935870D02*
X949908D01*
X947355Y935186D01*
X945065Y933864D01*
X943196Y931995D01*
X941874Y929705D01*
X941190Y927152D01*
Y924508D01*
X941874Y921955D01*
X943196Y919665D01*
X945065Y917796D01*
X947355Y916474D01*
X949908Y915790D01*
X952552D01*
X955105Y916474D01*
X957395Y917796D01*
X959264Y919665D01*
X960586Y921955D01*
X961270Y924508D01*
Y927152D01*
X960586Y929705D01*
X959264Y931995D01*
X957395Y933864D01*
X955105Y935186D01*
X952552Y935870D01*
D02*
G37*
G36*
X922072D02*
X919428D01*
X916875Y935186D01*
X914585Y933864D01*
X912716Y931995D01*
X911394Y929705D01*
X910710Y927152D01*
Y924508D01*
X911394Y921955D01*
X912716Y919665D01*
X914585Y917796D01*
X916875Y916474D01*
X919428Y915790D01*
X922072D01*
X924625Y916474D01*
X926915Y917796D01*
X928784Y919665D01*
X930106Y921955D01*
X930790Y924508D01*
Y927152D01*
X930106Y929705D01*
X928784Y931995D01*
X926915Y933864D01*
X924625Y935186D01*
X922072Y935870D01*
D02*
G37*
G36*
X891592D02*
X888948D01*
X886395Y935186D01*
X884105Y933864D01*
X882236Y931995D01*
X880914Y929705D01*
X880230Y927152D01*
Y924508D01*
X880914Y921955D01*
X882236Y919665D01*
X884105Y917796D01*
X886395Y916474D01*
X888948Y915790D01*
X891592D01*
X894145Y916474D01*
X896435Y917796D01*
X898304Y919665D01*
X899626Y921955D01*
X900310Y924508D01*
Y927152D01*
X899626Y929705D01*
X898304Y931995D01*
X896435Y933864D01*
X894145Y935186D01*
X891592Y935870D01*
D02*
G37*
G36*
X859842D02*
X857198D01*
X854645Y935186D01*
X852355Y933864D01*
X850486Y931995D01*
X849164Y929705D01*
X848480Y927152D01*
Y924508D01*
X849164Y921955D01*
X850486Y919665D01*
X852355Y917796D01*
X854645Y916474D01*
X857198Y915790D01*
X859842D01*
X862395Y916474D01*
X864685Y917796D01*
X866554Y919665D01*
X867876Y921955D01*
X868560Y924508D01*
Y927152D01*
X867876Y929705D01*
X866554Y931995D01*
X864685Y933864D01*
X862395Y935186D01*
X859842Y935870D01*
D02*
G37*
G36*
X543612D02*
X540968D01*
X538415Y935186D01*
X536125Y933864D01*
X534256Y931995D01*
X532934Y929705D01*
X532250Y927152D01*
Y924508D01*
X532934Y921955D01*
X534256Y919665D01*
X536125Y917796D01*
X538415Y916474D01*
X540968Y915790D01*
X543612D01*
X546165Y916474D01*
X548455Y917796D01*
X550324Y919665D01*
X551646Y921955D01*
X552330Y924508D01*
Y927152D01*
X551646Y929705D01*
X550324Y931995D01*
X548455Y933864D01*
X546165Y935186D01*
X543612Y935870D01*
D02*
G37*
G36*
X815556Y937120D02*
X812584D01*
X809712Y936351D01*
X807138Y934864D01*
X805036Y932762D01*
X803549Y930188D01*
X802780Y927316D01*
Y924344D01*
X803549Y921472D01*
X803794Y921048D01*
X787061Y904315D01*
X596117D01*
X595991Y904788D01*
X594504Y907362D01*
X592402Y909464D01*
X589828Y910951D01*
X586956Y911720D01*
X583984D01*
X581112Y910951D01*
X578538Y909464D01*
X576436Y907362D01*
X574949Y904788D01*
X574180Y901916D01*
Y898944D01*
X574949Y896072D01*
X576436Y893498D01*
X578538Y891396D01*
X581112Y889909D01*
X583984Y889140D01*
X586956D01*
X589828Y889909D01*
X592402Y891396D01*
X594504Y893498D01*
X595991Y896072D01*
X596117Y896545D01*
X788670D01*
X790157Y896841D01*
X791417Y897683D01*
X809288Y915554D01*
X809712Y915309D01*
X812584Y914540D01*
X815556D01*
X818428Y915309D01*
X821002Y916796D01*
X823104Y918898D01*
X824591Y921472D01*
X825360Y924344D01*
Y927316D01*
X824591Y930188D01*
X823104Y932762D01*
X821002Y934864D01*
X818428Y936351D01*
X815556Y937120D01*
D02*
G37*
G36*
X586956D02*
X583984D01*
X581112Y936351D01*
X578538Y934864D01*
X576436Y932762D01*
X574949Y930188D01*
X574180Y927316D01*
Y924344D01*
X574949Y921472D01*
X576436Y918898D01*
X578538Y916796D01*
X581112Y915309D01*
X583984Y914540D01*
X586956D01*
X589828Y915309D01*
X592402Y916796D01*
X594504Y918898D01*
X595991Y921472D01*
X596760Y924344D01*
Y927316D01*
X595991Y930188D01*
X594504Y932762D01*
X592402Y934864D01*
X589828Y936351D01*
X586956Y937120D01*
D02*
G37*
G36*
X952552Y910470D02*
X949908D01*
X947355Y909786D01*
X945065Y908464D01*
X943196Y906595D01*
X941874Y904305D01*
X941190Y901752D01*
Y899108D01*
X941874Y896555D01*
X943196Y894265D01*
X945065Y892396D01*
X947355Y891074D01*
X949908Y890390D01*
X952552D01*
X955105Y891074D01*
X957395Y892396D01*
X959264Y894265D01*
X960586Y896555D01*
X961270Y899108D01*
Y901752D01*
X960586Y904305D01*
X959264Y906595D01*
X957395Y908464D01*
X955105Y909786D01*
X952552Y910470D01*
D02*
G37*
G36*
X922072D02*
X919428D01*
X916875Y909786D01*
X914585Y908464D01*
X912716Y906595D01*
X911394Y904305D01*
X910710Y901752D01*
Y899108D01*
X911394Y896555D01*
X912716Y894265D01*
X914585Y892396D01*
X916875Y891074D01*
X919428Y890390D01*
X922072D01*
X924625Y891074D01*
X926915Y892396D01*
X928784Y894265D01*
X930106Y896555D01*
X930790Y899108D01*
Y901752D01*
X930106Y904305D01*
X928784Y906595D01*
X926915Y908464D01*
X924625Y909786D01*
X922072Y910470D01*
D02*
G37*
G36*
X891592D02*
X888948D01*
X886395Y909786D01*
X884105Y908464D01*
X882236Y906595D01*
X880914Y904305D01*
X880230Y901752D01*
Y899108D01*
X880914Y896555D01*
X882236Y894265D01*
X884105Y892396D01*
X886395Y891074D01*
X888948Y890390D01*
X891592D01*
X894145Y891074D01*
X896435Y892396D01*
X898304Y894265D01*
X899626Y896555D01*
X900310Y899108D01*
Y901752D01*
X899626Y904305D01*
X898304Y906595D01*
X896435Y908464D01*
X894145Y909786D01*
X891592Y910470D01*
D02*
G37*
G36*
X859842D02*
X857198D01*
X854645Y909786D01*
X852355Y908464D01*
X850486Y906595D01*
X849164Y904305D01*
X848480Y901752D01*
Y899108D01*
X849164Y896555D01*
X850486Y894265D01*
X852355Y892396D01*
X854645Y891074D01*
X857198Y890390D01*
X859842D01*
X862395Y891074D01*
X864685Y892396D01*
X866554Y894265D01*
X867876Y896555D01*
X868560Y899108D01*
Y901752D01*
X867876Y904305D01*
X866554Y906595D01*
X864685Y908464D01*
X862395Y909786D01*
X859842Y910470D01*
D02*
G37*
G36*
X543612D02*
X540968D01*
X538415Y909786D01*
X536125Y908464D01*
X534256Y906595D01*
X532934Y904305D01*
X532250Y901752D01*
Y899108D01*
X532934Y896555D01*
X534256Y894265D01*
X536125Y892396D01*
X538415Y891074D01*
X540968Y890390D01*
X543612D01*
X546165Y891074D01*
X548455Y892396D01*
X550324Y894265D01*
X551646Y896555D01*
X552330Y899108D01*
Y901752D01*
X551646Y904305D01*
X550324Y906595D01*
X548455Y908464D01*
X546165Y909786D01*
X543612Y910470D01*
D02*
G37*
G36*
X815556Y911720D02*
X812584D01*
X809712Y910951D01*
X807138Y909464D01*
X805036Y907362D01*
X803549Y904788D01*
X802780Y901916D01*
Y898944D01*
X803549Y896072D01*
X805036Y893498D01*
X807138Y891396D01*
X809712Y889909D01*
X812584Y889140D01*
X815556D01*
X818428Y889909D01*
X821002Y891396D01*
X823104Y893498D01*
X824591Y896072D01*
X825360Y898944D01*
Y901916D01*
X824591Y904788D01*
X823104Y907362D01*
X821002Y909464D01*
X818428Y910951D01*
X815556Y911720D01*
D02*
G37*
G36*
X543612Y885070D02*
X543560D01*
Y876300D01*
X552330D01*
Y876352D01*
X551646Y878905D01*
X550324Y881195D01*
X548455Y883064D01*
X546165Y884386D01*
X543612Y885070D01*
D02*
G37*
G36*
X586956Y886320D02*
X586740D01*
Y876300D01*
X596760D01*
Y876516D01*
X595991Y879388D01*
X594504Y881962D01*
X592402Y884064D01*
X589828Y885551D01*
X586956Y886320D01*
D02*
G37*
G36*
X584200D02*
X583984D01*
X581112Y885551D01*
X578538Y884064D01*
X576436Y881962D01*
X574949Y879388D01*
X574180Y876516D01*
Y876300D01*
X584200D01*
Y886320D01*
D02*
G37*
G36*
X541020Y885070D02*
X540968D01*
X538415Y884386D01*
X536125Y883064D01*
X534256Y881195D01*
X532934Y878905D01*
X532250Y876352D01*
Y876300D01*
X541020D01*
Y885070D01*
D02*
G37*
G36*
X922072D02*
X919428D01*
X916875Y884386D01*
X914585Y883064D01*
X912716Y881195D01*
X911394Y878905D01*
X910710Y876352D01*
Y873708D01*
X911394Y871155D01*
X912716Y868865D01*
X914585Y866996D01*
X916875Y865674D01*
X919428Y864990D01*
X922072D01*
X924625Y865674D01*
X926915Y866996D01*
X928784Y868865D01*
X930106Y871155D01*
X930790Y873708D01*
Y876352D01*
X930106Y878905D01*
X928784Y881195D01*
X926915Y883064D01*
X924625Y884386D01*
X922072Y885070D01*
D02*
G37*
G36*
X891592D02*
X888948D01*
X886395Y884386D01*
X884105Y883064D01*
X882236Y881195D01*
X880914Y878905D01*
X880230Y876352D01*
Y873708D01*
X880914Y871155D01*
X882236Y868865D01*
X884105Y866996D01*
X886395Y865674D01*
X888948Y864990D01*
X891592D01*
X894145Y865674D01*
X896435Y866996D01*
X898304Y868865D01*
X899626Y871155D01*
X900310Y873708D01*
Y876352D01*
X899626Y878905D01*
X898304Y881195D01*
X896435Y883064D01*
X894145Y884386D01*
X891592Y885070D01*
D02*
G37*
G36*
X859842D02*
X857198D01*
X854645Y884386D01*
X852355Y883064D01*
X850486Y881195D01*
X849164Y878905D01*
X848480Y876352D01*
Y873708D01*
X849164Y871155D01*
X850486Y868865D01*
X852355Y866996D01*
X854645Y865674D01*
X857198Y864990D01*
X859842D01*
X862395Y865674D01*
X864685Y866996D01*
X866554Y868865D01*
X867876Y871155D01*
X868560Y873708D01*
Y876352D01*
X867876Y878905D01*
X866554Y881195D01*
X864685Y883064D01*
X862395Y884386D01*
X859842Y885070D01*
D02*
G37*
G36*
X552330Y873760D02*
X543560D01*
Y864990D01*
X543612D01*
X546165Y865674D01*
X548455Y866996D01*
X550324Y868865D01*
X551646Y871155D01*
X552330Y873708D01*
Y873760D01*
D02*
G37*
G36*
X541020D02*
X532250D01*
Y873708D01*
X532934Y871155D01*
X534256Y868865D01*
X536125Y866996D01*
X538415Y865674D01*
X540968Y864990D01*
X541020D01*
Y873760D01*
D02*
G37*
G36*
X815556Y886320D02*
X812584D01*
X809712Y885551D01*
X807138Y884064D01*
X805036Y881962D01*
X803549Y879388D01*
X802780Y876516D01*
Y873544D01*
X803549Y870672D01*
X805036Y868098D01*
X807138Y865996D01*
X809712Y864509D01*
X812584Y863740D01*
X815556D01*
X818428Y864509D01*
X821002Y865996D01*
X823104Y868098D01*
X824591Y870672D01*
X825360Y873544D01*
Y876516D01*
X824591Y879388D01*
X823104Y881962D01*
X821002Y884064D01*
X818428Y885551D01*
X815556Y886320D01*
D02*
G37*
G36*
X596760Y873760D02*
X586740D01*
Y863740D01*
X586956D01*
X589828Y864509D01*
X592402Y865996D01*
X594504Y868098D01*
X595991Y870672D01*
X596760Y873544D01*
Y873760D01*
D02*
G37*
G36*
X584200D02*
X574180D01*
Y873544D01*
X574949Y870672D01*
X576436Y868098D01*
X578538Y865996D01*
X581112Y864509D01*
X583984Y863740D01*
X584200D01*
Y873760D01*
D02*
G37*
G36*
X952552Y885070D02*
X949908D01*
X947355Y884386D01*
X945065Y883064D01*
X943196Y881195D01*
X941874Y878905D01*
X941190Y876352D01*
Y873708D01*
X941874Y871155D01*
X943196Y868865D01*
X945065Y866996D01*
X947355Y865674D01*
X949908Y864990D01*
X952552D01*
X955095Y865671D01*
X958655Y862111D01*
Y858063D01*
X957482Y857577D01*
X957395Y857664D01*
X955105Y858986D01*
X952552Y859670D01*
X949908D01*
X947355Y858986D01*
X945065Y857664D01*
X943196Y855795D01*
X941874Y853505D01*
X941190Y850952D01*
Y848308D01*
X941874Y845755D01*
X943196Y843465D01*
X945065Y841596D01*
X947355Y840274D01*
X949908Y839590D01*
X952552D01*
X955105Y840274D01*
X957395Y841596D01*
X957482Y841683D01*
X958655Y841197D01*
Y832663D01*
X957482Y832177D01*
X957395Y832264D01*
X955105Y833586D01*
X952552Y834270D01*
X949908D01*
X947355Y833586D01*
X945065Y832264D01*
X943196Y830395D01*
X941874Y828105D01*
X941190Y825552D01*
Y822908D01*
X941874Y820355D01*
X943196Y818065D01*
X945065Y816196D01*
X947355Y814874D01*
X949908Y814190D01*
X952552D01*
X955105Y814874D01*
X957395Y816196D01*
X957482Y816283D01*
X958655Y815797D01*
Y808870D01*
X941190D01*
Y788790D01*
X954425D01*
X954911Y787617D01*
X949701Y782407D01*
X948859Y781147D01*
X948564Y779660D01*
Y778030D01*
X947355Y777706D01*
X945065Y776384D01*
X943196Y774515D01*
X941874Y772225D01*
X941190Y769672D01*
Y767028D01*
X941874Y764475D01*
X943196Y762185D01*
X945065Y760316D01*
X947355Y758994D01*
X949908Y758310D01*
X952552D01*
X955105Y758994D01*
X957395Y760316D01*
X959264Y762185D01*
X960586Y764475D01*
X961270Y767028D01*
Y769672D01*
X960586Y772225D01*
X959264Y774515D01*
X957395Y776384D01*
X956551Y776871D01*
X956447Y778165D01*
X965287Y787005D01*
X966129Y788265D01*
X966425Y789752D01*
Y863720D01*
X966129Y865207D01*
X965287Y866467D01*
X960589Y871165D01*
X961270Y873708D01*
Y876352D01*
X960586Y878905D01*
X959264Y881195D01*
X957395Y883064D01*
X955105Y884386D01*
X952552Y885070D01*
D02*
G37*
G36*
X922072Y859670D02*
X919428D01*
X916875Y858986D01*
X914585Y857664D01*
X912716Y855795D01*
X911394Y853505D01*
X910710Y850952D01*
Y848308D01*
X911394Y845755D01*
X912716Y843465D01*
X914585Y841596D01*
X916875Y840274D01*
X919428Y839590D01*
X922072D01*
X924625Y840274D01*
X926915Y841596D01*
X928784Y843465D01*
X930106Y845755D01*
X930790Y848308D01*
Y850952D01*
X930106Y853505D01*
X928784Y855795D01*
X926915Y857664D01*
X924625Y858986D01*
X922072Y859670D01*
D02*
G37*
G36*
X891592D02*
X888948D01*
X886395Y858986D01*
X884105Y857664D01*
X882236Y855795D01*
X880914Y853505D01*
X880230Y850952D01*
Y848308D01*
X880914Y845755D01*
X882236Y843465D01*
X884105Y841596D01*
X886395Y840274D01*
X888948Y839590D01*
X891592D01*
X894145Y840274D01*
X896435Y841596D01*
X898304Y843465D01*
X899626Y845755D01*
X900310Y848308D01*
Y850952D01*
X899626Y853505D01*
X898304Y855795D01*
X896435Y857664D01*
X894145Y858986D01*
X891592Y859670D01*
D02*
G37*
G36*
X859842D02*
X857198D01*
X854645Y858986D01*
X852355Y857664D01*
X850486Y855795D01*
X849164Y853505D01*
X848480Y850952D01*
Y848308D01*
X849164Y845755D01*
X850486Y843465D01*
X852355Y841596D01*
X854645Y840274D01*
X857198Y839590D01*
X859842D01*
X862395Y840274D01*
X864685Y841596D01*
X866554Y843465D01*
X867876Y845755D01*
X868560Y848308D01*
Y850952D01*
X867876Y853505D01*
X866554Y855795D01*
X864685Y857664D01*
X862395Y858986D01*
X859842Y859670D01*
D02*
G37*
G36*
X543612D02*
X540968D01*
X538415Y858986D01*
X536125Y857664D01*
X534256Y855795D01*
X532934Y853505D01*
X532250Y850952D01*
Y848308D01*
X532934Y845755D01*
X534256Y843465D01*
X536125Y841596D01*
X538415Y840274D01*
X540968Y839590D01*
X543612D01*
X546165Y840274D01*
X548455Y841596D01*
X550324Y843465D01*
X551646Y845755D01*
X552330Y848308D01*
Y850952D01*
X551646Y853505D01*
X550324Y855795D01*
X548455Y857664D01*
X546165Y858986D01*
X543612Y859670D01*
D02*
G37*
G36*
X586956Y860920D02*
X583984D01*
X581112Y860151D01*
X578538Y858664D01*
X576436Y856562D01*
X574949Y853988D01*
X574180Y851116D01*
Y848144D01*
X574949Y845272D01*
X576436Y842698D01*
X578538Y840596D01*
X581112Y839109D01*
X583984Y838340D01*
X586956D01*
X589828Y839109D01*
X592402Y840596D01*
X594504Y842698D01*
X595991Y845272D01*
X596760Y848144D01*
Y851116D01*
X595991Y853988D01*
X594504Y856562D01*
X592402Y858664D01*
X589828Y860151D01*
X586956Y860920D01*
D02*
G37*
G36*
X815556D02*
X812584D01*
X809712Y860151D01*
X807138Y858664D01*
X805036Y856562D01*
X803549Y853988D01*
X802780Y851116D01*
Y848144D01*
X803549Y845272D01*
X805036Y842698D01*
X807138Y840596D01*
X809712Y839109D01*
X812584Y838340D01*
X815556D01*
X818428Y839109D01*
X818852Y839354D01*
X824155Y834051D01*
Y831691D01*
X822885Y831381D01*
X821002Y833264D01*
X818428Y834751D01*
X815556Y835520D01*
X812584D01*
X809712Y834751D01*
X807138Y833264D01*
X805036Y831162D01*
X803549Y828588D01*
X802780Y825716D01*
Y822744D01*
X803549Y819872D01*
X805036Y817298D01*
X807138Y815196D01*
X809712Y813709D01*
X812584Y812940D01*
X815556D01*
X818428Y813709D01*
X821002Y815196D01*
X822885Y817079D01*
X824155Y816769D01*
Y806291D01*
X822885Y805981D01*
X821002Y807864D01*
X818428Y809351D01*
X815556Y810120D01*
X812584D01*
X809712Y809351D01*
X807138Y807864D01*
X805036Y805762D01*
X803549Y803188D01*
X802780Y800316D01*
Y797344D01*
X803549Y794472D01*
X805036Y791898D01*
X807138Y789796D01*
X809712Y788309D01*
X812584Y787540D01*
X815556D01*
X818428Y788309D01*
X821002Y789796D01*
X822885Y791679D01*
X824155Y791369D01*
Y780891D01*
X822885Y780581D01*
X821002Y782464D01*
X818428Y783951D01*
X815556Y784720D01*
X815340D01*
Y773430D01*
Y762140D01*
X815556D01*
X818428Y762909D01*
X821002Y764396D01*
X822885Y766279D01*
X824155Y765969D01*
Y755491D01*
X822885Y755181D01*
X821002Y757064D01*
X818428Y758551D01*
X815556Y759320D01*
X812584D01*
X809712Y758551D01*
X807138Y757064D01*
X805036Y754962D01*
X803549Y752388D01*
X802780Y749516D01*
Y746544D01*
X803549Y743672D01*
X805036Y741098D01*
X807138Y738996D01*
X809712Y737509D01*
X812584Y736740D01*
X815556D01*
X818428Y737509D01*
X821002Y738996D01*
X823104Y741098D01*
X824340Y743239D01*
X824346Y743243D01*
X825564Y743507D01*
X825848Y743458D01*
X846883Y722423D01*
X848143Y721581D01*
X849630Y721285D01*
X941070D01*
X942557Y721581D01*
X943817Y722423D01*
X951775Y730381D01*
X952617Y731641D01*
X952869Y732910D01*
X961270D01*
Y752990D01*
X941190D01*
Y732910D01*
X941657D01*
X942143Y731737D01*
X939461Y729055D01*
X851239D01*
X831925Y748369D01*
Y835660D01*
X831629Y837147D01*
X830787Y838407D01*
X824346Y844848D01*
X824591Y845272D01*
X825360Y848144D01*
Y851116D01*
X824591Y853988D01*
X823104Y856562D01*
X821002Y858664D01*
X818428Y860151D01*
X815556Y860920D01*
D02*
G37*
G36*
X922072Y834270D02*
X919428D01*
X916875Y833586D01*
X914585Y832264D01*
X912716Y830395D01*
X911394Y828105D01*
X910710Y825552D01*
Y822908D01*
X911394Y820355D01*
X912716Y818065D01*
X914585Y816196D01*
X916875Y814874D01*
X919428Y814190D01*
X922072D01*
X924625Y814874D01*
X926915Y816196D01*
X928784Y818065D01*
X930106Y820355D01*
X930790Y822908D01*
Y825552D01*
X930106Y828105D01*
X928784Y830395D01*
X926915Y832264D01*
X924625Y833586D01*
X922072Y834270D01*
D02*
G37*
G36*
X891592D02*
X888948D01*
X886395Y833586D01*
X884105Y832264D01*
X882236Y830395D01*
X880914Y828105D01*
X880230Y825552D01*
Y822908D01*
X880914Y820355D01*
X882236Y818065D01*
X884105Y816196D01*
X886395Y814874D01*
X888948Y814190D01*
X891592D01*
X894145Y814874D01*
X896435Y816196D01*
X898304Y818065D01*
X899626Y820355D01*
X900310Y822908D01*
Y825552D01*
X899626Y828105D01*
X898304Y830395D01*
X896435Y832264D01*
X894145Y833586D01*
X891592Y834270D01*
D02*
G37*
G36*
X543612D02*
X540968D01*
X538415Y833586D01*
X536125Y832264D01*
X534256Y830395D01*
X532934Y828105D01*
X532250Y825552D01*
Y822908D01*
X532934Y820355D01*
X534256Y818065D01*
X536125Y816196D01*
X538415Y814874D01*
X540968Y814190D01*
X543612D01*
X546165Y814874D01*
X548455Y816196D01*
X550324Y818065D01*
X551646Y820355D01*
X552330Y822908D01*
Y825552D01*
X551646Y828105D01*
X550324Y830395D01*
X548455Y832264D01*
X546165Y833586D01*
X543612Y834270D01*
D02*
G37*
G36*
X586956Y835520D02*
X583984D01*
X581112Y834751D01*
X578538Y833264D01*
X576436Y831162D01*
X574949Y828588D01*
X574180Y825716D01*
Y822744D01*
X574949Y819872D01*
X576436Y817298D01*
X578538Y815196D01*
X581112Y813709D01*
X583984Y812940D01*
X586956D01*
X589828Y813709D01*
X592402Y815196D01*
X594504Y817298D01*
X595991Y819872D01*
X596760Y822744D01*
Y825716D01*
X595991Y828588D01*
X594504Y831162D01*
X592402Y833264D01*
X589828Y834751D01*
X586956Y835520D01*
D02*
G37*
G36*
X930790Y808870D02*
X910710D01*
Y788790D01*
X930790D01*
Y808870D01*
D02*
G37*
G36*
X900310D02*
X880230D01*
Y788790D01*
X900310D01*
Y808870D01*
D02*
G37*
G36*
X543612D02*
X540968D01*
X538415Y808186D01*
X536125Y806864D01*
X534256Y804995D01*
X532934Y802705D01*
X532250Y800152D01*
Y797508D01*
X532934Y794955D01*
X534256Y792665D01*
X536125Y790796D01*
X538415Y789474D01*
X540968Y788790D01*
X543612D01*
X546165Y789474D01*
X548455Y790796D01*
X550324Y792665D01*
X551646Y794955D01*
X552330Y797508D01*
Y800152D01*
X551646Y802705D01*
X550324Y804995D01*
X548455Y806864D01*
X546165Y808186D01*
X543612Y808870D01*
D02*
G37*
G36*
X586956Y810120D02*
X583984D01*
X581112Y809351D01*
X578538Y807864D01*
X576436Y805762D01*
X574949Y803188D01*
X574180Y800316D01*
Y797344D01*
X574949Y794472D01*
X576436Y791898D01*
X578538Y789796D01*
X581112Y788309D01*
X583984Y787540D01*
X586956D01*
X589828Y788309D01*
X592402Y789796D01*
X594504Y791898D01*
X595991Y794472D01*
X596760Y797344D01*
Y800316D01*
X595991Y803188D01*
X594504Y805762D01*
X592402Y807864D01*
X589828Y809351D01*
X586956Y810120D01*
D02*
G37*
G36*
X859842Y834270D02*
X857198D01*
X854645Y833586D01*
X852355Y832264D01*
X850486Y830395D01*
X849164Y828105D01*
X848480Y825552D01*
Y822908D01*
X849164Y820355D01*
X850486Y818065D01*
X852355Y816196D01*
X854645Y814874D01*
X856540Y814366D01*
Y812920D01*
X856836Y811433D01*
X857678Y810173D01*
X857808Y810043D01*
X857322Y808870D01*
X857198D01*
X854645Y808186D01*
X852355Y806864D01*
X850486Y804995D01*
X849164Y802705D01*
X848480Y800152D01*
Y797508D01*
X849164Y794955D01*
X850486Y792665D01*
X852355Y790796D01*
X854645Y789474D01*
X857198Y788790D01*
X858043D01*
X858157Y788619D01*
X862869Y783907D01*
X862813Y783773D01*
X862121Y782859D01*
X859842Y783470D01*
X859790D01*
Y773430D01*
Y763390D01*
X859842D01*
X862395Y764074D01*
X864685Y765396D01*
X864892Y765603D01*
X866065Y765117D01*
Y764540D01*
X866361Y763053D01*
X867203Y761793D01*
X882770Y746226D01*
Y731640D01*
X902850D01*
Y751720D01*
X888264D01*
X873835Y766149D01*
Y778902D01*
X875008Y779388D01*
X883451Y770945D01*
X882770Y768402D01*
Y765758D01*
X883454Y763205D01*
X884776Y760915D01*
X886645Y759046D01*
X888935Y757724D01*
X891488Y757040D01*
X894132D01*
X896685Y757724D01*
X898975Y759046D01*
X900844Y760915D01*
X902166Y763205D01*
X902850Y765758D01*
Y768402D01*
X902166Y770955D01*
X900844Y773245D01*
X898975Y775114D01*
X896685Y776436D01*
X894132Y777120D01*
X891488D01*
X888945Y776439D01*
X876375Y789009D01*
Y800855D01*
X876079Y802341D01*
X875237Y803602D01*
X864309Y814529D01*
Y815979D01*
X864685Y816196D01*
X866554Y818065D01*
X867876Y820355D01*
X868560Y822908D01*
Y825552D01*
X867876Y828105D01*
X866554Y830395D01*
X864685Y832264D01*
X862395Y833586D01*
X859842Y834270D01*
D02*
G37*
G36*
X543612Y783470D02*
X543560D01*
Y774700D01*
X552330D01*
Y774752D01*
X551646Y777305D01*
X550324Y779595D01*
X548455Y781464D01*
X546165Y782786D01*
X543612Y783470D01*
D02*
G37*
G36*
X812800Y784720D02*
X812584D01*
X809712Y783951D01*
X807138Y782464D01*
X805036Y780362D01*
X803549Y777788D01*
X802780Y774916D01*
Y774700D01*
X812800D01*
Y784720D01*
D02*
G37*
G36*
X586956D02*
X586740D01*
Y774700D01*
X596760D01*
Y774916D01*
X595991Y777788D01*
X594504Y780362D01*
X592402Y782464D01*
X589828Y783951D01*
X586956Y784720D01*
D02*
G37*
G36*
X584200D02*
X583984D01*
X581112Y783951D01*
X578538Y782464D01*
X576436Y780362D01*
X574949Y777788D01*
X574180Y774916D01*
Y774700D01*
X584200D01*
Y784720D01*
D02*
G37*
G36*
X541020Y783470D02*
X540968D01*
X538415Y782786D01*
X536125Y781464D01*
X534256Y779595D01*
X532934Y777305D01*
X532250Y774752D01*
Y774700D01*
X541020D01*
Y783470D01*
D02*
G37*
G36*
X857250D02*
X857198D01*
X854645Y782786D01*
X852355Y781464D01*
X850486Y779595D01*
X849164Y777305D01*
X848480Y774752D01*
Y774700D01*
X857250D01*
Y783470D01*
D02*
G37*
G36*
Y772160D02*
X848480D01*
Y772108D01*
X849164Y769555D01*
X850486Y767265D01*
X852355Y765396D01*
X854645Y764074D01*
X857198Y763390D01*
X857250D01*
Y772160D01*
D02*
G37*
G36*
X552330D02*
X543560D01*
Y763390D01*
X543612D01*
X546165Y764074D01*
X548455Y765396D01*
X550324Y767265D01*
X551646Y769555D01*
X552330Y772108D01*
Y772160D01*
D02*
G37*
G36*
X541020D02*
X532250D01*
Y772108D01*
X532934Y769555D01*
X534256Y767265D01*
X536125Y765396D01*
X538415Y764074D01*
X540968Y763390D01*
X541020D01*
Y772160D01*
D02*
G37*
G36*
X812800D02*
X802780D01*
Y771944D01*
X803549Y769072D01*
X805036Y766498D01*
X807138Y764396D01*
X809712Y762909D01*
X812584Y762140D01*
X812800D01*
Y772160D01*
D02*
G37*
G36*
X596760D02*
X586740D01*
Y762140D01*
X586956D01*
X589828Y762909D01*
X592402Y764396D01*
X594504Y766498D01*
X595991Y769072D01*
X596760Y771944D01*
Y772160D01*
D02*
G37*
G36*
X584200D02*
X574180D01*
Y771944D01*
X574949Y769072D01*
X576436Y766498D01*
X578538Y764396D01*
X581112Y762909D01*
X583984Y762140D01*
X584200D01*
Y772160D01*
D02*
G37*
G36*
X458922Y753630D02*
X458870D01*
Y744860D01*
X467640D01*
Y744912D01*
X466956Y747465D01*
X465634Y749755D01*
X463765Y751624D01*
X461475Y752946D01*
X458922Y753630D01*
D02*
G37*
G36*
X456330D02*
X456278D01*
X453725Y752946D01*
X451435Y751624D01*
X449566Y749755D01*
X448244Y747465D01*
X447560Y744912D01*
Y744860D01*
X456330D01*
Y753630D01*
D02*
G37*
G36*
X859842Y758070D02*
X857198D01*
X854645Y757386D01*
X852355Y756064D01*
X850486Y754195D01*
X849164Y751905D01*
X848480Y749352D01*
Y746708D01*
X849164Y744155D01*
X850486Y741865D01*
X852355Y739996D01*
X854645Y738674D01*
X857198Y737990D01*
X859842D01*
X862395Y738674D01*
X864685Y739996D01*
X866554Y741865D01*
X867876Y744155D01*
X868560Y746708D01*
Y749352D01*
X867876Y751905D01*
X866554Y754195D01*
X864685Y756064D01*
X862395Y757386D01*
X859842Y758070D01*
D02*
G37*
G36*
X543612D02*
X540968D01*
X538415Y757386D01*
X536125Y756064D01*
X534256Y754195D01*
X532934Y751905D01*
X532250Y749352D01*
Y746708D01*
X532934Y744155D01*
X534256Y741865D01*
X536125Y739996D01*
X538415Y738674D01*
X540968Y737990D01*
X543612D01*
X546165Y738674D01*
X548455Y739996D01*
X550324Y741865D01*
X551646Y744155D01*
X552330Y746708D01*
Y749352D01*
X551646Y751905D01*
X550324Y754195D01*
X548455Y756064D01*
X546165Y757386D01*
X543612Y758070D01*
D02*
G37*
G36*
X586956Y759320D02*
X583984D01*
X581112Y758551D01*
X578538Y757064D01*
X576436Y754962D01*
X574949Y752388D01*
X574180Y749516D01*
Y746544D01*
X574949Y743672D01*
X576436Y741098D01*
X578538Y738996D01*
X581112Y737509D01*
X583984Y736740D01*
X586956D01*
X589828Y737509D01*
X592402Y738996D01*
X594504Y741098D01*
X595991Y743672D01*
X596760Y746544D01*
Y749516D01*
X595991Y752388D01*
X594504Y754962D01*
X592402Y757064D01*
X589828Y758551D01*
X586956Y759320D01*
D02*
G37*
G36*
X467640Y742320D02*
X458870D01*
Y733550D01*
X458922D01*
X461475Y734234D01*
X463765Y735556D01*
X465634Y737425D01*
X466956Y739715D01*
X467640Y742268D01*
Y742320D01*
D02*
G37*
G36*
X456330D02*
X447560D01*
Y742268D01*
X448244Y739715D01*
X449566Y737425D01*
X451435Y735556D01*
X453725Y734234D01*
X456278Y733550D01*
X456330D01*
Y742320D01*
D02*
G37*
G36*
X304922Y753630D02*
X302278D01*
X299725Y752946D01*
X297435Y751624D01*
X295566Y749755D01*
X294244Y747465D01*
X293560Y744912D01*
Y742268D01*
X294244Y739715D01*
X295566Y737425D01*
X297435Y735556D01*
X299725Y734234D01*
X302278Y733550D01*
X304922D01*
X307475Y734234D01*
X309765Y735556D01*
X311634Y737425D01*
X312956Y739715D01*
X313640Y742268D01*
Y744912D01*
X312956Y747465D01*
X311634Y749755D01*
X309765Y751624D01*
X307475Y752946D01*
X304922Y753630D01*
D02*
G37*
G36*
X948742Y704730D02*
X948690D01*
Y695960D01*
X957460D01*
Y696012D01*
X956776Y698565D01*
X955454Y700855D01*
X953585Y702724D01*
X951295Y704046D01*
X948742Y704730D01*
D02*
G37*
G36*
X946150D02*
X946098D01*
X943545Y704046D01*
X941255Y702724D01*
X939386Y700855D01*
X938064Y698565D01*
X937380Y696012D01*
Y695960D01*
X946150D01*
Y704730D01*
D02*
G37*
G36*
X805158Y724570D02*
X801782D01*
X798470Y723911D01*
X795351Y722619D01*
X792544Y720743D01*
X790156Y718356D01*
X788281Y715549D01*
X786989Y712430D01*
X786330Y709118D01*
Y705742D01*
X786989Y702430D01*
X788281Y699311D01*
X790156Y696504D01*
X792544Y694117D01*
X795351Y692241D01*
X798470Y690949D01*
X801782Y690290D01*
X805158D01*
X808470Y690949D01*
X811589Y692241D01*
X814396Y694117D01*
X816784Y696504D01*
X818659Y699311D01*
X819951Y702430D01*
X820610Y705742D01*
Y709118D01*
X819951Y712430D01*
X818659Y715549D01*
X816784Y718356D01*
X814396Y720743D01*
X811589Y722619D01*
X808470Y723911D01*
X805158Y724570D01*
D02*
G37*
G36*
X597758D02*
X594382D01*
X591070Y723911D01*
X587951Y722619D01*
X585144Y720743D01*
X582757Y718356D01*
X580881Y715549D01*
X579589Y712430D01*
X578930Y709118D01*
Y705742D01*
X579589Y702430D01*
X580881Y699311D01*
X582757Y696504D01*
X585144Y694117D01*
X587951Y692241D01*
X591070Y690949D01*
X594382Y690290D01*
X597758D01*
X601070Y690949D01*
X604189Y692241D01*
X606996Y694117D01*
X609384Y696504D01*
X611259Y699311D01*
X612551Y702430D01*
X613210Y705742D01*
Y709118D01*
X612551Y712430D01*
X611259Y715549D01*
X609384Y718356D01*
X606996Y720743D01*
X604189Y722619D01*
X601070Y723911D01*
X597758Y724570D01*
D02*
G37*
G36*
X957460Y693420D02*
X948690D01*
Y684650D01*
X948742D01*
X951295Y685334D01*
X953585Y686656D01*
X955454Y688525D01*
X956776Y690815D01*
X957460Y693368D01*
Y693420D01*
D02*
G37*
G36*
X946150D02*
X937380D01*
Y693368D01*
X938064Y690815D01*
X939386Y688525D01*
X941255Y686656D01*
X943545Y685334D01*
X946098Y684650D01*
X946150D01*
Y693420D01*
D02*
G37*
G36*
X875082Y679330D02*
X875030D01*
Y670560D01*
X883800D01*
Y670612D01*
X883116Y673165D01*
X881794Y675455D01*
X879925Y677324D01*
X877635Y678646D01*
X875082Y679330D01*
D02*
G37*
G36*
X872490D02*
X872438D01*
X869885Y678646D01*
X867595Y677324D01*
X865726Y675455D01*
X864404Y673165D01*
X863720Y670612D01*
Y670560D01*
X872490D01*
Y679330D01*
D02*
G37*
G36*
X948742D02*
X946098D01*
X943545Y678646D01*
X941255Y677324D01*
X939386Y675455D01*
X938064Y673165D01*
X937380Y670612D01*
Y667968D01*
X938064Y665415D01*
X939386Y663125D01*
X941255Y661256D01*
X943545Y659934D01*
X946098Y659250D01*
X948742D01*
X951295Y659934D01*
X953585Y661256D01*
X955454Y663125D01*
X956776Y665415D01*
X957460Y667968D01*
Y670612D01*
X956776Y673165D01*
X955454Y675455D01*
X953585Y677324D01*
X951295Y678646D01*
X948742Y679330D01*
D02*
G37*
G36*
X883800Y668020D02*
X875030D01*
Y659250D01*
X875082D01*
X877635Y659934D01*
X879925Y661256D01*
X881794Y663125D01*
X883116Y665415D01*
X883800Y667968D01*
Y668020D01*
D02*
G37*
G36*
X872490D02*
X863720D01*
Y667968D01*
X864404Y665415D01*
X865726Y663125D01*
X867595Y661256D01*
X869885Y659934D01*
X872438Y659250D01*
X872490D01*
Y668020D01*
D02*
G37*
G36*
X479411Y667380D02*
X479260D01*
Y657860D01*
X488780D01*
Y658010D01*
X488045Y660755D01*
X486624Y663215D01*
X484615Y665224D01*
X482155Y666645D01*
X479411Y667380D01*
D02*
G37*
G36*
X357020D02*
X356870D01*
Y657860D01*
X366390D01*
Y658010D01*
X365655Y660755D01*
X364234Y663215D01*
X362225Y665224D01*
X359765Y666645D01*
X357020Y667380D01*
D02*
G37*
G36*
X354330D02*
X354179D01*
X351435Y666645D01*
X348975Y665224D01*
X346966Y663215D01*
X345545Y660755D01*
X344810Y658010D01*
Y657860D01*
X354330D01*
Y667380D01*
D02*
G37*
G36*
X476720D02*
X476570D01*
X473825Y666645D01*
X471365Y665224D01*
X469356Y663215D01*
X467935Y660755D01*
X467200Y658010D01*
Y657860D01*
X476720D01*
Y667380D01*
D02*
G37*
G36*
X868560Y1113670D02*
X848480D01*
Y1093590D01*
X863066D01*
X892603Y1064053D01*
X893863Y1063211D01*
X895350Y1062915D01*
X973533D01*
X980365Y1056083D01*
Y682329D01*
X951285Y653249D01*
X948742Y653930D01*
X946098D01*
X943545Y653246D01*
X941255Y651924D01*
X939386Y650055D01*
X938064Y647765D01*
X937380Y645212D01*
Y642568D01*
X938064Y640015D01*
X939386Y637725D01*
X941255Y635856D01*
X943545Y634534D01*
X946098Y633850D01*
X948742D01*
X951295Y634534D01*
X953585Y635856D01*
X955454Y637725D01*
X956776Y640015D01*
X957460Y642568D01*
Y645212D01*
X956779Y647755D01*
X986997Y677973D01*
X987839Y679233D01*
X988135Y680720D01*
Y1057692D01*
X987839Y1059179D01*
X986997Y1060439D01*
X977889Y1069547D01*
X976629Y1070389D01*
X975142Y1070685D01*
X896959D01*
X868560Y1099084D01*
Y1113670D01*
D02*
G37*
G36*
X488780Y655320D02*
X479260D01*
Y645800D01*
X479411D01*
X482155Y646535D01*
X484615Y647956D01*
X486624Y649965D01*
X488045Y652425D01*
X488780Y655170D01*
Y655320D01*
D02*
G37*
G36*
X476720D02*
X467200D01*
Y655170D01*
X467935Y652425D01*
X469356Y649965D01*
X471365Y647956D01*
X473825Y646535D01*
X476570Y645800D01*
X476720D01*
Y655320D01*
D02*
G37*
G36*
X429411Y667380D02*
X426570D01*
X423825Y666645D01*
X421365Y665224D01*
X419356Y663215D01*
X417935Y660755D01*
X417200Y658010D01*
Y655170D01*
X417935Y652425D01*
X419356Y649965D01*
X421365Y647956D01*
X423825Y646535D01*
X426570Y645800D01*
X429411D01*
X432155Y646535D01*
X434615Y647956D01*
X436624Y649965D01*
X438045Y652425D01*
X438780Y655170D01*
Y658010D01*
X438045Y660755D01*
X436624Y663215D01*
X434615Y665224D01*
X432155Y666645D01*
X429411Y667380D01*
D02*
G37*
G36*
X366390Y655320D02*
X356870D01*
Y645800D01*
X357020D01*
X359765Y646535D01*
X362225Y647956D01*
X364234Y649965D01*
X365655Y652425D01*
X366390Y655170D01*
Y655320D01*
D02*
G37*
G36*
X354330D02*
X344810D01*
Y655170D01*
X345545Y652425D01*
X346966Y649965D01*
X348975Y647956D01*
X351435Y646535D01*
X354179Y645800D01*
X354330D01*
Y655320D01*
D02*
G37*
G36*
X307020Y667380D02*
X304179D01*
X301435Y666645D01*
X298975Y665224D01*
X296966Y663215D01*
X295545Y660755D01*
X294810Y658010D01*
Y655170D01*
X295545Y652425D01*
X296966Y649965D01*
X298975Y647956D01*
X301435Y646535D01*
X304179Y645800D01*
X307020D01*
X309765Y646535D01*
X312225Y647956D01*
X314234Y649965D01*
X315655Y652425D01*
X316390Y655170D01*
Y658010D01*
X315655Y660755D01*
X314234Y663215D01*
X312225Y665224D01*
X309765Y666645D01*
X307020Y667380D01*
D02*
G37*
G36*
X824282Y653930D02*
X824230D01*
Y645160D01*
X833000D01*
Y645212D01*
X832316Y647765D01*
X830994Y650055D01*
X829125Y651924D01*
X826835Y653246D01*
X824282Y653930D01*
D02*
G37*
G36*
X793446D02*
X793394D01*
Y645160D01*
X802164D01*
Y645212D01*
X801480Y647765D01*
X800158Y650055D01*
X798289Y651924D01*
X796000Y653246D01*
X793446Y653930D01*
D02*
G37*
G36*
X763322D02*
X763270D01*
Y645160D01*
X772040D01*
Y645212D01*
X771356Y647765D01*
X770034Y650055D01*
X768165Y651924D01*
X765875Y653246D01*
X763322Y653930D01*
D02*
G37*
G36*
X596952D02*
X596900D01*
Y645160D01*
X605670D01*
Y645212D01*
X604986Y647765D01*
X603664Y650055D01*
X601795Y651924D01*
X599505Y653246D01*
X596952Y653930D01*
D02*
G37*
G36*
X566472D02*
X566420D01*
Y645160D01*
X575190D01*
Y645212D01*
X574506Y647765D01*
X573184Y650055D01*
X571315Y651924D01*
X569025Y653246D01*
X566472Y653930D01*
D02*
G37*
G36*
X535992D02*
X535940D01*
Y645160D01*
X544710D01*
Y645212D01*
X544026Y647765D01*
X542704Y650055D01*
X540835Y651924D01*
X538545Y653246D01*
X535992Y653930D01*
D02*
G37*
G36*
X760730D02*
X760678D01*
X758125Y653246D01*
X755835Y651924D01*
X753966Y650055D01*
X752644Y647765D01*
X751960Y645212D01*
Y645160D01*
X760730D01*
Y653930D01*
D02*
G37*
G36*
X821690D02*
X821638D01*
X819085Y653246D01*
X816795Y651924D01*
X814926Y650055D01*
X813604Y647765D01*
X812920Y645212D01*
Y645160D01*
X821690D01*
Y653930D01*
D02*
G37*
G36*
X790854D02*
X790803D01*
X788249Y653246D01*
X785960Y651924D01*
X784090Y650055D01*
X782769Y647765D01*
X782084Y645212D01*
Y645160D01*
X790854D01*
Y653930D01*
D02*
G37*
G36*
X533400D02*
X533348D01*
X530795Y653246D01*
X528505Y651924D01*
X526636Y650055D01*
X525314Y647765D01*
X524630Y645212D01*
Y645160D01*
X533400D01*
Y653930D01*
D02*
G37*
G36*
X594360D02*
X594308D01*
X591755Y653246D01*
X589465Y651924D01*
X587596Y650055D01*
X586274Y647765D01*
X585590Y645212D01*
Y645160D01*
X594360D01*
Y653930D01*
D02*
G37*
G36*
X563880D02*
X563828D01*
X561275Y653246D01*
X558985Y651924D01*
X557116Y650055D01*
X555794Y647765D01*
X555110Y645212D01*
Y645160D01*
X563880D01*
Y653930D01*
D02*
G37*
G36*
X875082D02*
X872438D01*
X869885Y653246D01*
X867595Y651924D01*
X865726Y650055D01*
X864404Y647765D01*
X863720Y645212D01*
Y642568D01*
X864404Y640015D01*
X865726Y637725D01*
X867595Y635856D01*
X869885Y634534D01*
X872438Y633850D01*
X875082D01*
X877635Y634534D01*
X879925Y635856D01*
X881794Y637725D01*
X883116Y640015D01*
X883800Y642568D01*
Y645212D01*
X883116Y647765D01*
X881794Y650055D01*
X879925Y651924D01*
X877635Y653246D01*
X875082Y653930D01*
D02*
G37*
G36*
X833000Y642620D02*
X824230D01*
Y633850D01*
X824282D01*
X826835Y634534D01*
X829125Y635856D01*
X830994Y637725D01*
X832316Y640015D01*
X833000Y642568D01*
Y642620D01*
D02*
G37*
G36*
X821690D02*
X812920D01*
Y642568D01*
X813604Y640015D01*
X814926Y637725D01*
X816795Y635856D01*
X819085Y634534D01*
X821638Y633850D01*
X821690D01*
Y642620D01*
D02*
G37*
G36*
X802164D02*
X793394D01*
Y633850D01*
X793446D01*
X796000Y634534D01*
X798289Y635856D01*
X800158Y637725D01*
X801480Y640015D01*
X802164Y642568D01*
Y642620D01*
D02*
G37*
G36*
X790854D02*
X782084D01*
Y642568D01*
X782769Y640015D01*
X784090Y637725D01*
X785960Y635856D01*
X788249Y634534D01*
X790803Y633850D01*
X790854D01*
Y642620D01*
D02*
G37*
G36*
X772040D02*
X763270D01*
Y633850D01*
X763322D01*
X765875Y634534D01*
X768165Y635856D01*
X770034Y637725D01*
X771356Y640015D01*
X772040Y642568D01*
Y642620D01*
D02*
G37*
G36*
X760730D02*
X751960D01*
Y642568D01*
X752644Y640015D01*
X753966Y637725D01*
X755835Y635856D01*
X758125Y634534D01*
X760678Y633850D01*
X760730D01*
Y642620D01*
D02*
G37*
G36*
X605670D02*
X596900D01*
Y633850D01*
X596952D01*
X599505Y634534D01*
X601795Y635856D01*
X603664Y637725D01*
X604986Y640015D01*
X605670Y642568D01*
Y642620D01*
D02*
G37*
G36*
X594360D02*
X585590D01*
Y642568D01*
X586274Y640015D01*
X587596Y637725D01*
X589465Y635856D01*
X591755Y634534D01*
X594308Y633850D01*
X594360D01*
Y642620D01*
D02*
G37*
G36*
X575190D02*
X566420D01*
Y633850D01*
X566472D01*
X569025Y634534D01*
X571315Y635856D01*
X573184Y637725D01*
X574506Y640015D01*
X575190Y642568D01*
Y642620D01*
D02*
G37*
G36*
X563880D02*
X555110D01*
Y642568D01*
X555794Y640015D01*
X557116Y637725D01*
X558985Y635856D01*
X561275Y634534D01*
X563828Y633850D01*
X563880D01*
Y642620D01*
D02*
G37*
G36*
X544710D02*
X535940D01*
Y633850D01*
X535992D01*
X538545Y634534D01*
X540835Y635856D01*
X542704Y637725D01*
X544026Y640015D01*
X544710Y642568D01*
Y642620D01*
D02*
G37*
G36*
X533400D02*
X524630D01*
Y642568D01*
X525314Y640015D01*
X526636Y637725D01*
X528505Y635856D01*
X530795Y634534D01*
X533348Y633850D01*
X533400D01*
Y642620D01*
D02*
G37*
G36*
X957460Y628530D02*
X937380D01*
Y608450D01*
X957460D01*
Y628530D01*
D02*
G37*
G36*
X883800D02*
X863720D01*
Y608450D01*
X883800D01*
Y628530D01*
D02*
G37*
G36*
X833000D02*
X812920D01*
Y608450D01*
X833000D01*
Y628530D01*
D02*
G37*
G36*
X802164D02*
X782084D01*
Y608450D01*
X802164D01*
Y628530D01*
D02*
G37*
G36*
X772040D02*
X751960D01*
Y608450D01*
X772040D01*
Y628530D01*
D02*
G37*
G36*
X605670D02*
X585590D01*
Y608450D01*
X605670D01*
Y628530D01*
D02*
G37*
G36*
X575190D02*
X555110D01*
Y608450D01*
X575190D01*
Y628530D01*
D02*
G37*
G36*
X544710D02*
X524630D01*
Y608450D01*
X544710D01*
Y628530D01*
D02*
G37*
G36*
X1005520Y644840D02*
X1001080D01*
X996725Y643974D01*
X992623Y642275D01*
X988932Y639808D01*
X985792Y636668D01*
X983325Y632977D01*
X981626Y628875D01*
X980760Y624520D01*
Y620080D01*
X981626Y615725D01*
X983325Y611623D01*
X985792Y607932D01*
X988932Y604792D01*
X992623Y602325D01*
X996725Y600626D01*
X1001080Y599760D01*
X1005520D01*
X1009875Y600626D01*
X1013977Y602325D01*
X1017668Y604792D01*
X1020808Y607932D01*
X1023275Y611623D01*
X1024974Y615725D01*
X1025840Y620080D01*
Y624520D01*
X1024974Y628875D01*
X1023275Y632977D01*
X1020808Y636668D01*
X1017668Y639808D01*
X1013977Y642275D01*
X1009875Y643974D01*
X1005520Y644840D01*
D02*
G37*
%LPD*%
D11*
X585470Y900430D02*
X788670D01*
X814070Y925830D01*
X984250Y680720D02*
Y1057692D01*
X975142Y1066800D02*
X984250Y1057692D01*
X947420Y643890D02*
X984250Y680720D01*
X895350Y1066800D02*
X975142D01*
X858520Y1103630D02*
X895350Y1066800D01*
X949028Y733128D02*
Y740748D01*
X849630Y725170D02*
X941070D01*
X949028Y733128D01*
Y740748D02*
X951230Y742950D01*
X828040Y746760D02*
X849630Y725170D01*
X860904Y791366D02*
X869950Y782320D01*
X858520Y798830D02*
X860904Y796446D01*
X869950Y764540D02*
Y782320D01*
Y764540D02*
X892810Y741680D01*
X860904Y791366D02*
Y796446D01*
X872490Y787400D02*
Y800855D01*
Y787400D02*
X892810Y767080D01*
X860425Y812920D02*
X872490Y800855D01*
X858520Y824230D02*
X860425Y822325D01*
Y812920D02*
Y822325D01*
X828040Y746760D02*
Y835660D01*
X814070Y849630D02*
X828040Y835660D01*
X951230Y875030D02*
X962540Y863720D01*
Y789752D02*
Y863720D01*
X952448Y779660D02*
X962540Y789752D01*
X952448Y769568D02*
Y779660D01*
X951230Y768350D02*
X952448Y769568D01*
D23*
X803470Y707430D02*
D03*
X596070D02*
D03*
X803470Y1144230D02*
D03*
X595670D02*
D03*
D24*
X814070Y1103630D02*
D03*
Y1078230D02*
D03*
Y1052830D02*
D03*
Y1027430D02*
D03*
Y1002030D02*
D03*
Y976630D02*
D03*
Y951230D02*
D03*
Y925830D02*
D03*
Y900430D02*
D03*
Y875030D02*
D03*
Y849630D02*
D03*
Y824230D02*
D03*
Y798830D02*
D03*
Y773430D02*
D03*
Y748030D02*
D03*
X585470D02*
D03*
Y773430D02*
D03*
Y798830D02*
D03*
Y824230D02*
D03*
Y849630D02*
D03*
Y875030D02*
D03*
Y900430D02*
D03*
Y925830D02*
D03*
Y951230D02*
D03*
Y976630D02*
D03*
Y1002030D02*
D03*
Y1027430D02*
D03*
Y1052830D02*
D03*
Y1078230D02*
D03*
D25*
Y1103630D02*
D03*
D26*
X303600Y743590D02*
D03*
X457600D02*
D03*
X355600Y1037590D02*
D03*
X405600D02*
D03*
X943610Y1036320D02*
D03*
X918210D02*
D03*
X892810D02*
D03*
X943610Y1005840D02*
D03*
X918210D02*
D03*
X892810D02*
D03*
X951230Y849630D02*
D03*
Y824230D02*
D03*
Y875030D02*
D03*
Y900430D02*
D03*
Y925830D02*
D03*
Y951230D02*
D03*
X920750Y849630D02*
D03*
Y824230D02*
D03*
Y875030D02*
D03*
Y900430D02*
D03*
Y925830D02*
D03*
Y951230D02*
D03*
X892810Y767080D02*
D03*
X951230Y768350D02*
D03*
X858520Y748030D02*
D03*
Y773430D02*
D03*
Y798830D02*
D03*
Y824230D02*
D03*
Y849630D02*
D03*
Y875030D02*
D03*
Y900430D02*
D03*
Y925830D02*
D03*
Y951230D02*
D03*
Y976630D02*
D03*
Y1002030D02*
D03*
Y1027430D02*
D03*
Y1052830D02*
D03*
Y1078230D02*
D03*
X890270Y849630D02*
D03*
Y824230D02*
D03*
Y875030D02*
D03*
Y900430D02*
D03*
Y925830D02*
D03*
Y951230D02*
D03*
X822960Y643890D02*
D03*
X966470Y1116330D02*
D03*
X941070D02*
D03*
X915670D02*
D03*
X890270D02*
D03*
X542290Y748030D02*
D03*
Y773430D02*
D03*
Y798830D02*
D03*
Y824230D02*
D03*
Y849630D02*
D03*
Y875030D02*
D03*
Y900430D02*
D03*
Y925830D02*
D03*
Y951230D02*
D03*
Y976630D02*
D03*
Y1002030D02*
D03*
Y1027430D02*
D03*
Y1052830D02*
D03*
Y1078230D02*
D03*
X966470Y1147445D02*
D03*
X941070D02*
D03*
X915670D02*
D03*
X890270D02*
D03*
X966470Y1178560D02*
D03*
X941070D02*
D03*
X915670D02*
D03*
X890270D02*
D03*
X762000Y643890D02*
D03*
X792124D02*
D03*
X595630D02*
D03*
X565150D02*
D03*
X534670D02*
D03*
X947420Y694690D02*
D03*
Y669290D02*
D03*
Y643890D02*
D03*
X873760D02*
D03*
Y669290D02*
D03*
D27*
X404330Y1149350D02*
D03*
X354330D02*
D03*
X477990Y656590D02*
D03*
X427990D02*
D03*
X305600D02*
D03*
X355600D02*
D03*
D28*
X969010Y1036320D02*
D03*
Y1005840D02*
D03*
X991870Y1116330D02*
D03*
Y1147445D02*
D03*
Y1178560D02*
D03*
D29*
X951230Y798830D02*
D03*
X920750D02*
D03*
X892810Y741680D02*
D03*
X951230Y742950D02*
D03*
X858520Y1103630D02*
D03*
X890270Y798830D02*
D03*
X822960Y618490D02*
D03*
X542290Y1103630D02*
D03*
X762000Y618490D02*
D03*
X792124D02*
D03*
X595630D02*
D03*
X565150D02*
D03*
X534670D02*
D03*
X947420D02*
D03*
X873760D02*
D03*
D30*
X772160Y1027430D02*
D03*
Y1103630D02*
D03*
D31*
X289560Y1200150D02*
D03*
X1003300Y622300D02*
D03*
M02*
