M48
;Layer_Color=9474304
;FILE_FORMAT=2:4
INCH,LZ
;TYPE=PLATED
T1F00S00C0.0335
T2F00S00C0.0350
T3F00S00C0.0354
T4F00S00C0.0394
T5F00S00C0.0433
T6F00S00C0.1181
;TYPE=NON_PLATED
T7F00S00C0.1150
%
T01
X0304Y04045
Y04345
T02
X03205Y02945
Y03045
X02305
Y02945
Y03145
Y03245
Y03345
Y03445
Y03545
Y03645
Y03745
Y03845
Y03945
Y04045
Y04145
Y04245
Y04345
X03205
Y04245
Y04145
Y04045
Y03945
Y03845
Y03745
Y03645
Y03545
Y03445
Y03345
Y03245
Y03145
T03
X0324Y02435
Y02535
X0344
Y02435
Y02635
X0373
Y02735
Y02535
Y02435
X03745Y02925
Y03025
X03515Y0302
Y0292
X0338Y02945
Y03045
X031186Y02535
Y02435
X03
Y02535
X02345
Y02435
X02225
Y02535
X02105
Y02435
X02135Y02945
Y03045
Y03145
Y03245
Y03345
Y03445
Y03545
Y03645
Y03745
Y03845
Y03945
Y04045
Y04145
Y04245
Y04345
X0338
Y04245
Y04145
Y04045
Y03945
Y03845
Y03745
Y03645
Y03545
Y03445
Y03345
Y03245
Y03145
X03505
Y03245
Y03345
Y03445
Y03545
Y03645
Y03745
X03625
Y03645
Y03545
Y03445
Y03345
Y03245
Y03145
X03745
Y03245
Y03345
Y03445
Y03545
Y03645
Y03745
X03715Y0396
X03815
Y0408
X03715
X03615
X03515
Y0396
X03615
X03605Y04395
X03705
X03805
X03905
Y045175
X03805
X03705
X03605
X03505
Y04395
Y0464
X03605
X03705
X03805
X03905
T04
X018016Y029275
X011953
X014Y04085
X015969
T05
X01685Y02585
X018819
X014
X012032
X01395Y04525
X015919
T06
X0395Y0245
X0114Y04725
T07
X031633Y027852
X023467
X023452Y045048
X031633
M30
