G04*
G04 #@! TF.GenerationSoftware,Altium Limited,Altium Designer,23.1.1 (15)*
G04*
G04 Layer_Color=8388736*
%FSLAX44Y44*%
%MOMM*%
G71*
G04*
G04 #@! TF.SameCoordinates,7520F120-D5D8-497E-858A-6684157EE888*
G04*
G04*
G04 #@! TF.FilePolarity,Negative*
G04*
G01*
G75*
%ADD13C,1.6632*%
%ADD14C,1.9532*%
%ADD15R,1.9532X1.9532*%
%ADD16C,1.7032*%
%ADD17C,1.8532*%
%ADD18R,1.7032X1.7032*%
%ADD19R,1.7032X1.7032*%
%ADD20C,1.6032*%
%ADD21C,4.2032*%
D13*
X803470Y707430D02*
D03*
X596070D02*
D03*
X803470Y1144230D02*
D03*
X595670D02*
D03*
D14*
X814070Y1103630D02*
D03*
Y1078230D02*
D03*
Y1052830D02*
D03*
Y1027430D02*
D03*
Y1002030D02*
D03*
Y976630D02*
D03*
Y951230D02*
D03*
Y925830D02*
D03*
Y900430D02*
D03*
Y875030D02*
D03*
Y849630D02*
D03*
Y824230D02*
D03*
Y798830D02*
D03*
Y773430D02*
D03*
Y748030D02*
D03*
X585470D02*
D03*
Y773430D02*
D03*
Y798830D02*
D03*
Y824230D02*
D03*
Y849630D02*
D03*
Y875030D02*
D03*
Y900430D02*
D03*
Y925830D02*
D03*
Y951230D02*
D03*
Y976630D02*
D03*
Y1002030D02*
D03*
Y1027430D02*
D03*
Y1052830D02*
D03*
Y1078230D02*
D03*
D15*
Y1103630D02*
D03*
D16*
X303600Y743590D02*
D03*
X457600D02*
D03*
X355600Y1037590D02*
D03*
X405600D02*
D03*
X943610Y1036320D02*
D03*
X918210D02*
D03*
X892810D02*
D03*
X943610Y1005840D02*
D03*
X918210D02*
D03*
X892810D02*
D03*
X951230Y849630D02*
D03*
Y824230D02*
D03*
Y875030D02*
D03*
Y900430D02*
D03*
Y925830D02*
D03*
Y951230D02*
D03*
X920750Y849630D02*
D03*
Y824230D02*
D03*
Y875030D02*
D03*
Y900430D02*
D03*
Y925830D02*
D03*
Y951230D02*
D03*
X892810Y767080D02*
D03*
X951230Y768350D02*
D03*
X858520Y748030D02*
D03*
Y773430D02*
D03*
Y798830D02*
D03*
Y824230D02*
D03*
Y849630D02*
D03*
Y875030D02*
D03*
Y900430D02*
D03*
Y925830D02*
D03*
Y951230D02*
D03*
Y976630D02*
D03*
Y1002030D02*
D03*
Y1027430D02*
D03*
Y1052830D02*
D03*
Y1078230D02*
D03*
X890270Y849630D02*
D03*
Y824230D02*
D03*
Y875030D02*
D03*
Y900430D02*
D03*
Y925830D02*
D03*
Y951230D02*
D03*
X822960Y643890D02*
D03*
X966470Y1116330D02*
D03*
X941070D02*
D03*
X915670D02*
D03*
X890270D02*
D03*
X542290Y748030D02*
D03*
Y773430D02*
D03*
Y798830D02*
D03*
Y824230D02*
D03*
Y849630D02*
D03*
Y875030D02*
D03*
Y900430D02*
D03*
Y925830D02*
D03*
Y951230D02*
D03*
Y976630D02*
D03*
Y1002030D02*
D03*
Y1027430D02*
D03*
Y1052830D02*
D03*
Y1078230D02*
D03*
X966470Y1147445D02*
D03*
X941070D02*
D03*
X915670D02*
D03*
X890270D02*
D03*
X966470Y1178560D02*
D03*
X941070D02*
D03*
X915670D02*
D03*
X890270D02*
D03*
X762000Y643890D02*
D03*
X792124D02*
D03*
X595630D02*
D03*
X565150D02*
D03*
X534670D02*
D03*
X947420Y694690D02*
D03*
Y669290D02*
D03*
Y643890D02*
D03*
X873760D02*
D03*
Y669290D02*
D03*
D17*
X404330Y1149350D02*
D03*
X354330D02*
D03*
X477990Y656590D02*
D03*
X427990D02*
D03*
X305600D02*
D03*
X355600D02*
D03*
D18*
X969010Y1036320D02*
D03*
Y1005840D02*
D03*
X991870Y1116330D02*
D03*
Y1147445D02*
D03*
Y1178560D02*
D03*
D19*
X951230Y798830D02*
D03*
X920750D02*
D03*
X892810Y741680D02*
D03*
X951230Y742950D02*
D03*
X858520Y1103630D02*
D03*
X890270Y798830D02*
D03*
X822960Y618490D02*
D03*
X542290Y1103630D02*
D03*
X762000Y618490D02*
D03*
X792124D02*
D03*
X595630D02*
D03*
X565150D02*
D03*
X534670D02*
D03*
X947420D02*
D03*
X873760D02*
D03*
D20*
X772160Y1027430D02*
D03*
Y1103630D02*
D03*
D21*
X289560Y1200150D02*
D03*
X1003300Y622300D02*
D03*
M02*
