G04*
G04 #@! TF.GenerationSoftware,Altium Limited,Altium Designer,23.1.1 (15)*
G04*
G04 Layer_Color=16711935*
%FSLAX44Y44*%
%MOMM*%
G71*
G04*
G04 #@! TF.SameCoordinates,192AC858-DC75-4971-91E7-501E18B89E25*
G04*
G04*
G04 #@! TF.FilePolarity,Positive*
G04*
G01*
G75*
%ADD10C,0.2000*%
%ADD11C,0.1000*%
D10*
X256740Y-103940D02*
Y-53940D01*
X281740D01*
Y-103940D02*
Y-53940D01*
X256740Y-103940D02*
X281740D01*
X497640Y-92110D02*
Y-42110D01*
X472640Y-92110D02*
X497640D01*
X472640D02*
Y-42110D01*
X497640D01*
X103620Y-98820D02*
Y-43420D01*
X38620Y-98820D02*
X103620D01*
X38620D02*
Y-43420D01*
X103620D01*
X528840Y-95010D02*
Y-39610D01*
X593840D01*
Y-95010D02*
Y-39610D01*
X528840Y-95010D02*
X593840D01*
D11*
X223120Y-76040D02*
G03*
X223120Y-76040I-25000J0D01*
G01*
X441560Y-68420D02*
G03*
X441560Y-68420I-25000J0D01*
G01*
X317280Y-132010D02*
Y-28010D01*
X363280D01*
Y-132010D02*
Y-28010D01*
X317280Y-132010D02*
X363280D01*
X317280Y-119260D02*
X330030Y-132010D01*
X130930Y-94460D02*
Y-59460D01*
X145930D01*
Y-94460D02*
Y-59460D01*
X130930Y-94460D02*
X145930D01*
X130930Y-86960D02*
X138430Y-94460D01*
Y-124460D02*
Y-94460D01*
Y-59460D02*
Y-29460D01*
M02*
