G04*
G04 #@! TF.GenerationSoftware,Altium Limited,Altium Designer,23.1.1 (15)*
G04*
G04 Layer_Color=32768*
%FSLAX44Y44*%
%MOMM*%
G71*
G04*
G04 #@! TF.SameCoordinates,192AC858-DC75-4971-91E7-501E18B89E25*
G04*
G04*
G04 #@! TF.FilePolarity,Positive*
G04*
G01*
G75*
%ADD11C,0.1000*%
%ADD31C,0.0500*%
D11*
X246740Y-113940D02*
Y-43940D01*
X291740D01*
Y-113940D02*
Y-43940D01*
X246740Y-113940D02*
X291740D01*
X507640Y-102110D02*
Y-32110D01*
X462640Y-102110D02*
X507640D01*
X462640D02*
Y-32110D01*
X507640D01*
X113620Y-108820D02*
Y-33420D01*
X28620Y-108820D02*
X113620D01*
X28620D02*
Y-33420D01*
X113620D01*
X518840Y-105010D02*
Y-29610D01*
X603840D01*
Y-105010D02*
Y-29610D01*
X518840Y-105010D02*
X603840D01*
D31*
X228120Y-76040D02*
G03*
X228120Y-76040I-30000J0D01*
G01*
X446560Y-68420D02*
G03*
X446560Y-68420I-30000J0D01*
G01*
X314780Y-134510D02*
Y-25510D01*
X365780D01*
Y-134510D02*
Y-25510D01*
X314780Y-134510D02*
X365780D01*
X127430Y-132960D02*
Y-20960D01*
X149430D01*
Y-132960D02*
Y-20960D01*
X127430Y-132960D02*
X149430D01*
M02*
