G04*
G04 #@! TF.GenerationSoftware,Altium Limited,Altium Designer,23.1.1 (15)*
G04*
G04 Layer_Color=128*
%FSLAX44Y44*%
%MOMM*%
G71*
G04*
G04 #@! TF.SameCoordinates,192AC858-DC75-4971-91E7-501E18B89E25*
G04*
G04*
G04 #@! TF.FilePolarity,Positive*
G04*
G01*
G75*
%ADD32C,0.1270*%
D32*
X341380Y-105510D02*
X354580D01*
X347980Y-112110D02*
Y-98910D01*
X341380Y-80010D02*
X354580D01*
X347980Y-86610D02*
Y-73410D01*
X341380Y-54510D02*
X354580D01*
X347980Y-61110D02*
Y-47910D01*
X265490Y-91440D02*
X272990D01*
X269240Y-95190D02*
Y-87690D01*
X265490Y-66440D02*
X272990D01*
X269240Y-70190D02*
Y-62690D01*
X194620Y-86040D02*
X201620D01*
X198120Y-89540D02*
Y-82540D01*
X194620Y-66040D02*
X201620D01*
X198120Y-69540D02*
Y-62540D01*
X481390Y-54610D02*
X488890D01*
X485140Y-58360D02*
Y-50860D01*
X481390Y-79610D02*
X488890D01*
X485140Y-83360D02*
Y-75860D01*
X65120Y-58420D02*
X77120D01*
X71120Y-64420D02*
Y-52420D01*
X65120Y-83820D02*
X77120D01*
X71120Y-89820D02*
Y-77820D01*
X555340Y-80010D02*
X567340D01*
X561340Y-86010D02*
Y-74010D01*
X555340Y-54610D02*
X567340D01*
X561340Y-60610D02*
Y-48610D01*
X412810Y-58420D02*
X420310D01*
X416560Y-62170D02*
Y-54670D01*
X412810Y-78420D02*
X420310D01*
X416560Y-82170D02*
Y-74670D01*
X134430Y-124460D02*
X142430D01*
X138430Y-128460D02*
Y-120460D01*
X134430Y-29460D02*
X142430D01*
X138430Y-33460D02*
Y-25460D01*
M02*
