G04*
G04 #@! TF.GenerationSoftware,Altium Limited,Altium Designer,23.1.1 (15)*
G04*
G04 Layer_Physical_Order=2*
G04 Layer_Color=16711680*
%FSLAX44Y44*%
%MOMM*%
G71*
G04*
G04 #@! TF.SameCoordinates,192AC858-DC75-4971-91E7-501E18B89E25*
G04*
G04*
G04 #@! TF.FilePolarity,Positive*
G04*
G01*
G75*
%ADD21C,0.2540*%
%ADD22R,1.9800X1.9800*%
%ADD23C,1.9800*%
%ADD24C,1.2000*%
%ADD25R,1.1000X1.1000*%
%ADD26C,1.1000*%
%ADD27C,1.8000*%
%ADD28R,1.1500X1.1500*%
%ADD29C,1.1500*%
%ADD30R,1.2000X1.2000*%
D21*
X510140Y-54610D02*
X561340D01*
X485140Y-79610D02*
X510140Y-54610D01*
X282810Y-80010D02*
X347980D01*
X269240Y-66440D02*
X282810Y-80010D01*
X78740Y-66040D02*
X198120D01*
X71120Y-58420D02*
X78740Y-66040D01*
X283310Y-105510D02*
X347980D01*
X269240Y-91440D02*
X283310Y-105510D01*
X198120Y-86040D02*
X263840D01*
X269240Y-91440D01*
X176850Y-86040D02*
X198120D01*
X138430Y-124460D02*
X176850Y-86040D01*
X384148Y-58420D02*
X416560D01*
X380238Y-54510D02*
X384148Y-58420D01*
X347980Y-54510D02*
X380238D01*
X452628Y-54610D02*
X485140D01*
X448818Y-58420D02*
X452628Y-54610D01*
X416560Y-58420D02*
X448818D01*
X382844Y-78420D02*
X416560D01*
X381254Y-80010D02*
X382844Y-78420D01*
X347980Y-80010D02*
X381254D01*
X451278Y-79610D02*
X485140D01*
X450088Y-78420D02*
X451278Y-79610D01*
X416560Y-78420D02*
X450088D01*
X233826Y-66440D02*
X269240D01*
X233426Y-66040D02*
X233826Y-66440D01*
X198120Y-66040D02*
X233426D01*
D22*
X347980Y-105510D02*
D03*
D23*
Y-80010D02*
D03*
Y-54510D02*
D03*
D24*
X269240Y-91440D02*
D03*
Y-66440D02*
D03*
X485140Y-54610D02*
D03*
Y-79610D02*
D03*
X138430Y-29460D02*
D03*
D25*
X198120Y-86040D02*
D03*
D26*
Y-66040D02*
D03*
D27*
X71120Y-58420D02*
D03*
Y-83820D02*
D03*
X561340Y-80010D02*
D03*
Y-54610D02*
D03*
D28*
X416560Y-58420D02*
D03*
D29*
Y-78420D02*
D03*
D30*
X138430Y-124460D02*
D03*
M02*
