G04*
G04 #@! TF.GenerationSoftware,Altium Limited,Altium Designer,23.1.1 (15)*
G04*
G04 Layer_Physical_Order=1*
G04 Layer_Color=255*
%FSLAX44Y44*%
%MOMM*%
G71*
G04*
G04 #@! TF.SameCoordinates,192AC858-DC75-4971-91E7-501E18B89E25*
G04*
G04*
G04 #@! TF.FilePolarity,Positive*
G04*
G01*
G75*
%ADD21C,0.2540*%
%ADD22R,1.9800X1.9800*%
%ADD23C,1.9800*%
%ADD24C,1.2000*%
%ADD25R,1.1000X1.1000*%
%ADD26C,1.1000*%
%ADD27C,1.8000*%
%ADD28R,1.1500X1.1500*%
%ADD29C,1.1500*%
%ADD30R,1.2000X1.2000*%
G36*
X21919Y-40710D02*
X21962D01*
X22032D01*
X22117Y-40724D01*
X22229D01*
X22370Y-40738D01*
X22511Y-40753D01*
X22666Y-40781D01*
X23033Y-40851D01*
X23414Y-40950D01*
X23808Y-41091D01*
X24203Y-41274D01*
X24217D01*
X24245Y-41302D01*
X24302Y-41330D01*
X24372Y-41373D01*
X24457Y-41429D01*
X24541Y-41500D01*
X24767Y-41669D01*
X25021Y-41866D01*
X25274Y-42106D01*
X25528Y-42388D01*
X25754Y-42698D01*
Y-42712D01*
X25768Y-42726D01*
X25796Y-42768D01*
X25824Y-42825D01*
X25909Y-42966D01*
X26007Y-43163D01*
X26106Y-43389D01*
X26205Y-43657D01*
X26289Y-43952D01*
X26346Y-44263D01*
Y-44305D01*
X26360Y-44347D01*
Y-44404D01*
X26374Y-44488D01*
X26388Y-44573D01*
X26402Y-44798D01*
X26430Y-45066D01*
X26458Y-45362D01*
X26473Y-45701D01*
Y-48915D01*
X17296D01*
Y-45715D01*
X17310Y-45475D01*
X17324Y-45207D01*
X17352Y-44897D01*
X17380Y-44587D01*
X17422Y-44263D01*
Y-44220D01*
X17436Y-44178D01*
X17451Y-44122D01*
X17465Y-44037D01*
X17493Y-43952D01*
X17549Y-43741D01*
X17620Y-43501D01*
X17732Y-43234D01*
X17859Y-42952D01*
X18029Y-42670D01*
Y-42656D01*
X18057Y-42627D01*
X18085Y-42585D01*
X18127Y-42515D01*
X18268Y-42360D01*
X18437Y-42148D01*
X18663Y-41923D01*
X18931Y-41683D01*
X19241Y-41457D01*
X19593Y-41246D01*
X19607D01*
X19636Y-41218D01*
X19692Y-41189D01*
X19763Y-41161D01*
X19861Y-41119D01*
X19974Y-41077D01*
X20101Y-41034D01*
X20242Y-40978D01*
X20411Y-40922D01*
X20580Y-40879D01*
X20975Y-40795D01*
X21426Y-40738D01*
X21905Y-40710D01*
X21919D01*
D02*
G37*
G36*
X26473Y-50775D02*
Y-52989D01*
X20087Y-56541D01*
X26473D01*
Y-58642D01*
X17296D01*
Y-55822D01*
X22554Y-52876D01*
X17296D01*
Y-50775D01*
X26473D01*
D02*
G37*
G36*
X25965Y-60375D02*
X25979Y-60404D01*
X26007Y-60488D01*
X26050Y-60615D01*
X26120Y-60799D01*
X26191Y-61024D01*
X26261Y-61292D01*
X26360Y-61602D01*
X26444Y-61954D01*
Y-61968D01*
X26458Y-61997D01*
Y-62053D01*
X26473Y-62124D01*
X26501Y-62208D01*
X26515Y-62307D01*
X26557Y-62547D01*
X26600Y-62842D01*
X26628Y-63167D01*
X26656Y-63505D01*
X26670Y-63857D01*
Y-63956D01*
X26656Y-64069D01*
Y-64210D01*
X26628Y-64393D01*
X26600Y-64605D01*
X26571Y-64844D01*
X26515Y-65098D01*
X26444Y-65366D01*
X26360Y-65648D01*
X26261Y-65930D01*
X26148Y-66212D01*
X26007Y-66508D01*
X25838Y-66776D01*
X25641Y-67043D01*
X25429Y-67297D01*
X25415Y-67311D01*
X25373Y-67354D01*
X25303Y-67410D01*
X25204Y-67495D01*
X25063Y-67593D01*
X24908Y-67706D01*
X24725Y-67819D01*
X24513Y-67931D01*
X24274Y-68058D01*
X24020Y-68171D01*
X23724Y-68284D01*
X23414Y-68383D01*
X23061Y-68467D01*
X22695Y-68524D01*
X22300Y-68566D01*
X21891Y-68580D01*
X21863D01*
X21792D01*
X21680Y-68566D01*
X21539D01*
X21355Y-68538D01*
X21144Y-68509D01*
X20904Y-68467D01*
X20651Y-68425D01*
X20383Y-68354D01*
X20101Y-68270D01*
X19819Y-68157D01*
X19523Y-68044D01*
X19241Y-67889D01*
X18959Y-67720D01*
X18691Y-67523D01*
X18437Y-67297D01*
X18423Y-67283D01*
X18381Y-67241D01*
X18311Y-67170D01*
X18226Y-67057D01*
X18127Y-66931D01*
X18029Y-66776D01*
X17902Y-66592D01*
X17775Y-66381D01*
X17662Y-66141D01*
X17535Y-65873D01*
X17436Y-65591D01*
X17324Y-65281D01*
X17253Y-64943D01*
X17183Y-64577D01*
X17140Y-64196D01*
X17126Y-63787D01*
Y-63491D01*
X17140Y-63378D01*
X17155Y-63124D01*
X17183Y-62814D01*
X17225Y-62504D01*
X17281Y-62194D01*
X17352Y-61912D01*
Y-61898D01*
X17366Y-61884D01*
X17380Y-61842D01*
X17394Y-61785D01*
X17436Y-61644D01*
X17507Y-61461D01*
X17592Y-61235D01*
X17690Y-60982D01*
X17803Y-60700D01*
X17944Y-60418D01*
X20087D01*
Y-60643D01*
X20059Y-60658D01*
X20030Y-60700D01*
X19988Y-60756D01*
X19946Y-60827D01*
X19889Y-60897D01*
X19734Y-61109D01*
X19720Y-61123D01*
X19692Y-61165D01*
X19650Y-61221D01*
X19593Y-61306D01*
X19466Y-61489D01*
X19325Y-61715D01*
X19311Y-61729D01*
X19297Y-61771D01*
X19255Y-61856D01*
X19213Y-61940D01*
X19156Y-62067D01*
X19100Y-62208D01*
X19044Y-62349D01*
X18987Y-62518D01*
Y-62532D01*
X18959Y-62603D01*
X18945Y-62688D01*
X18917Y-62800D01*
X18888Y-62955D01*
X18874Y-63110D01*
X18846Y-63294D01*
Y-63576D01*
X18860Y-63688D01*
X18874Y-63829D01*
X18888Y-63998D01*
X18931Y-64182D01*
X18973Y-64379D01*
X19044Y-64562D01*
X19058Y-64577D01*
X19072Y-64647D01*
X19128Y-64731D01*
X19184Y-64844D01*
X19255Y-64985D01*
X19354Y-65126D01*
X19466Y-65281D01*
X19607Y-65422D01*
X19621Y-65436D01*
X19678Y-65479D01*
X19748Y-65549D01*
X19861Y-65620D01*
X20002Y-65718D01*
X20157Y-65803D01*
X20340Y-65902D01*
X20552Y-65986D01*
X20580Y-66000D01*
X20651Y-66014D01*
X20763Y-66057D01*
X20933Y-66085D01*
X21116Y-66127D01*
X21341Y-66169D01*
X21595Y-66184D01*
X21863Y-66198D01*
X21877D01*
X21933D01*
X22018D01*
X22131Y-66184D01*
X22258Y-66169D01*
X22413Y-66155D01*
X22582Y-66127D01*
X22765Y-66099D01*
X23146Y-66000D01*
X23343Y-65930D01*
X23540Y-65859D01*
X23724Y-65761D01*
X23907Y-65662D01*
X24076Y-65535D01*
X24231Y-65394D01*
X24245Y-65380D01*
X24259Y-65352D01*
X24302Y-65310D01*
X24344Y-65253D01*
X24400Y-65168D01*
X24471Y-65070D01*
X24541Y-64943D01*
X24612Y-64816D01*
X24682Y-64675D01*
X24753Y-64506D01*
X24809Y-64323D01*
X24880Y-64125D01*
X24922Y-63914D01*
X24964Y-63688D01*
X24978Y-63449D01*
X24992Y-63195D01*
Y-62702D01*
X24978Y-62603D01*
X23174D01*
Y-64393D01*
X21440D01*
Y-60375D01*
X25965D01*
D02*
G37*
G36*
X25895Y-80388D02*
X25909Y-80416D01*
X25937Y-80472D01*
X25965Y-80543D01*
X26007Y-80627D01*
X26050Y-80726D01*
X26163Y-80966D01*
Y-80980D01*
X26191Y-81022D01*
X26219Y-81093D01*
X26247Y-81177D01*
X26289Y-81276D01*
X26332Y-81389D01*
X26416Y-81643D01*
Y-81657D01*
X26430Y-81713D01*
X26458Y-81798D01*
X26487Y-81910D01*
X26515Y-82037D01*
X26543Y-82178D01*
X26600Y-82460D01*
Y-82474D01*
X26614Y-82531D01*
X26628Y-82615D01*
Y-82728D01*
X26642Y-82869D01*
X26656Y-83052D01*
X26670Y-83250D01*
Y-83574D01*
X26656Y-83687D01*
Y-83827D01*
X26628Y-83997D01*
X26600Y-84208D01*
X26571Y-84434D01*
X26515Y-84673D01*
X26444Y-84927D01*
X26360Y-85195D01*
X26261Y-85463D01*
X26148Y-85731D01*
X26007Y-86012D01*
X25838Y-86266D01*
X25641Y-86520D01*
X25429Y-86760D01*
X25415Y-86774D01*
X25373Y-86816D01*
X25303Y-86872D01*
X25204Y-86943D01*
X25077Y-87042D01*
X24922Y-87140D01*
X24739Y-87253D01*
X24527Y-87366D01*
X24288Y-87479D01*
X24034Y-87591D01*
X23738Y-87690D01*
X23428Y-87789D01*
X23089Y-87859D01*
X22723Y-87916D01*
X22328Y-87958D01*
X21919Y-87972D01*
X21891D01*
X21821D01*
X21708Y-87958D01*
X21553D01*
X21370Y-87930D01*
X21158Y-87901D01*
X20918Y-87873D01*
X20665Y-87817D01*
X20397Y-87761D01*
X20115Y-87676D01*
X19819Y-87577D01*
X19523Y-87465D01*
X19241Y-87324D01*
X18959Y-87154D01*
X18691Y-86971D01*
X18437Y-86760D01*
X18423Y-86746D01*
X18381Y-86703D01*
X18310Y-86633D01*
X18240Y-86534D01*
X18141Y-86421D01*
X18029Y-86266D01*
X17916Y-86097D01*
X17789Y-85900D01*
X17662Y-85674D01*
X17549Y-85435D01*
X17436Y-85153D01*
X17338Y-84871D01*
X17253Y-84560D01*
X17197Y-84222D01*
X17155Y-83870D01*
X17140Y-83489D01*
Y-83292D01*
X17155Y-83165D01*
Y-83010D01*
X17169Y-82841D01*
X17211Y-82502D01*
Y-82488D01*
X17225Y-82432D01*
X17239Y-82347D01*
X17253Y-82234D01*
X17281Y-82108D01*
X17309Y-81967D01*
X17380Y-81657D01*
Y-81643D01*
X17394Y-81600D01*
X17422Y-81544D01*
X17450Y-81459D01*
X17479Y-81361D01*
X17535Y-81234D01*
X17634Y-80980D01*
Y-80966D01*
X17662Y-80924D01*
X17690Y-80853D01*
X17732Y-80768D01*
X17817Y-80571D01*
X17916Y-80374D01*
X20087D01*
Y-80627D01*
X20059Y-80642D01*
X19988Y-80726D01*
X19889Y-80867D01*
X19748Y-81036D01*
X19734Y-81050D01*
X19706Y-81079D01*
X19678Y-81135D01*
X19621Y-81206D01*
X19565Y-81290D01*
X19495Y-81375D01*
X19354Y-81600D01*
X19339Y-81614D01*
X19325Y-81657D01*
X19283Y-81727D01*
X19241Y-81812D01*
X19184Y-81924D01*
X19128Y-82037D01*
X19015Y-82319D01*
Y-82333D01*
X18987Y-82390D01*
X18973Y-82460D01*
X18945Y-82559D01*
X18917Y-82686D01*
X18902Y-82812D01*
X18874Y-83109D01*
Y-83193D01*
X18888Y-83292D01*
Y-83419D01*
X18917Y-83560D01*
X18945Y-83715D01*
X18987Y-83870D01*
X19044Y-84025D01*
Y-84039D01*
X19072Y-84095D01*
X19114Y-84180D01*
X19170Y-84279D01*
X19241Y-84391D01*
X19339Y-84532D01*
X19452Y-84673D01*
X19579Y-84814D01*
X19593Y-84828D01*
X19650Y-84871D01*
X19720Y-84941D01*
X19833Y-85012D01*
X19960Y-85110D01*
X20129Y-85195D01*
X20312Y-85294D01*
X20524Y-85378D01*
X20552Y-85392D01*
X20622Y-85406D01*
X20749Y-85449D01*
X20918Y-85477D01*
X21130Y-85519D01*
X21370Y-85561D01*
X21637Y-85576D01*
X21933Y-85590D01*
X21948D01*
X21976D01*
X22018D01*
X22074D01*
X22229Y-85576D01*
X22427Y-85561D01*
X22652Y-85533D01*
X22892Y-85491D01*
X23132Y-85435D01*
X23357Y-85364D01*
X23385Y-85350D01*
X23456Y-85322D01*
X23554Y-85280D01*
X23695Y-85209D01*
X23837Y-85124D01*
X23991Y-85012D01*
X24147Y-84899D01*
X24288Y-84772D01*
X24302Y-84758D01*
X24344Y-84716D01*
X24400Y-84631D01*
X24485Y-84546D01*
X24569Y-84420D01*
X24654Y-84293D01*
X24725Y-84138D01*
X24795Y-83983D01*
Y-83968D01*
X24823Y-83898D01*
X24837Y-83813D01*
X24866Y-83701D01*
X24894Y-83574D01*
X24908Y-83419D01*
X24936Y-83094D01*
Y-83024D01*
X24922Y-82925D01*
Y-82812D01*
X24908Y-82686D01*
X24880Y-82545D01*
X24795Y-82234D01*
X24781Y-82220D01*
X24767Y-82164D01*
X24739Y-82094D01*
X24696Y-81995D01*
X24584Y-81769D01*
X24457Y-81544D01*
X24443Y-81530D01*
X24429Y-81487D01*
X24386Y-81431D01*
X24344Y-81361D01*
X24217Y-81191D01*
X24076Y-81008D01*
X24062Y-80994D01*
X24048Y-80966D01*
X24006Y-80924D01*
X23963Y-80867D01*
X23851Y-80726D01*
X23724Y-80585D01*
Y-80374D01*
X25895D01*
Y-80388D01*
D02*
G37*
G36*
Y-88804D02*
X25909Y-88832D01*
X25937Y-88888D01*
X25965Y-88959D01*
X26007Y-89043D01*
X26050Y-89142D01*
X26163Y-89382D01*
Y-89396D01*
X26191Y-89438D01*
X26219Y-89509D01*
X26247Y-89593D01*
X26289Y-89692D01*
X26332Y-89805D01*
X26416Y-90058D01*
Y-90072D01*
X26430Y-90129D01*
X26458Y-90213D01*
X26487Y-90326D01*
X26515Y-90453D01*
X26543Y-90594D01*
X26600Y-90876D01*
Y-90890D01*
X26614Y-90947D01*
X26628Y-91031D01*
Y-91144D01*
X26642Y-91285D01*
X26656Y-91468D01*
X26670Y-91665D01*
Y-91990D01*
X26656Y-92102D01*
Y-92243D01*
X26628Y-92413D01*
X26600Y-92624D01*
X26571Y-92850D01*
X26515Y-93089D01*
X26444Y-93343D01*
X26360Y-93611D01*
X26261Y-93879D01*
X26148Y-94146D01*
X26007Y-94428D01*
X25838Y-94682D01*
X25641Y-94936D01*
X25429Y-95176D01*
X25415Y-95190D01*
X25373Y-95232D01*
X25303Y-95288D01*
X25204Y-95359D01*
X25077Y-95457D01*
X24922Y-95556D01*
X24739Y-95669D01*
X24527Y-95782D01*
X24288Y-95894D01*
X24034Y-96007D01*
X23738Y-96106D01*
X23428Y-96205D01*
X23089Y-96275D01*
X22723Y-96332D01*
X22328Y-96374D01*
X21919Y-96388D01*
X21891D01*
X21821D01*
X21708Y-96374D01*
X21553D01*
X21370Y-96346D01*
X21158Y-96317D01*
X20918Y-96289D01*
X20665Y-96233D01*
X20397Y-96177D01*
X20115Y-96092D01*
X19819Y-95993D01*
X19523Y-95880D01*
X19241Y-95739D01*
X18959Y-95570D01*
X18691Y-95387D01*
X18437Y-95176D01*
X18423Y-95162D01*
X18381Y-95119D01*
X18310Y-95049D01*
X18240Y-94950D01*
X18141Y-94837D01*
X18029Y-94682D01*
X17916Y-94513D01*
X17789Y-94316D01*
X17662Y-94090D01*
X17549Y-93850D01*
X17436Y-93568D01*
X17338Y-93287D01*
X17253Y-92976D01*
X17197Y-92638D01*
X17155Y-92286D01*
X17140Y-91905D01*
Y-91708D01*
X17155Y-91581D01*
Y-91426D01*
X17169Y-91257D01*
X17211Y-90918D01*
Y-90904D01*
X17225Y-90848D01*
X17239Y-90763D01*
X17253Y-90650D01*
X17281Y-90524D01*
X17309Y-90383D01*
X17380Y-90072D01*
Y-90058D01*
X17394Y-90016D01*
X17422Y-89960D01*
X17450Y-89875D01*
X17479Y-89776D01*
X17535Y-89650D01*
X17634Y-89396D01*
Y-89382D01*
X17662Y-89339D01*
X17690Y-89269D01*
X17732Y-89184D01*
X17817Y-88987D01*
X17916Y-88790D01*
X20087D01*
Y-89043D01*
X20059Y-89058D01*
X19988Y-89142D01*
X19889Y-89283D01*
X19748Y-89452D01*
X19734Y-89466D01*
X19706Y-89494D01*
X19678Y-89551D01*
X19621Y-89621D01*
X19565Y-89706D01*
X19495Y-89790D01*
X19354Y-90016D01*
X19339Y-90030D01*
X19325Y-90072D01*
X19283Y-90143D01*
X19241Y-90227D01*
X19184Y-90340D01*
X19128Y-90453D01*
X19015Y-90735D01*
Y-90749D01*
X18987Y-90806D01*
X18973Y-90876D01*
X18945Y-90975D01*
X18917Y-91102D01*
X18902Y-91228D01*
X18874Y-91524D01*
Y-91609D01*
X18888Y-91708D01*
Y-91835D01*
X18917Y-91976D01*
X18945Y-92131D01*
X18987Y-92286D01*
X19044Y-92441D01*
Y-92455D01*
X19072Y-92511D01*
X19114Y-92596D01*
X19170Y-92695D01*
X19241Y-92807D01*
X19339Y-92948D01*
X19452Y-93089D01*
X19579Y-93230D01*
X19593Y-93244D01*
X19650Y-93287D01*
X19720Y-93357D01*
X19833Y-93428D01*
X19960Y-93526D01*
X20129Y-93611D01*
X20312Y-93709D01*
X20524Y-93794D01*
X20552Y-93808D01*
X20622Y-93822D01*
X20749Y-93865D01*
X20918Y-93893D01*
X21130Y-93935D01*
X21370Y-93977D01*
X21637Y-93991D01*
X21933Y-94005D01*
X21948D01*
X21976D01*
X22018D01*
X22074D01*
X22229Y-93991D01*
X22427Y-93977D01*
X22652Y-93949D01*
X22892Y-93907D01*
X23132Y-93850D01*
X23357Y-93780D01*
X23385Y-93766D01*
X23456Y-93738D01*
X23554Y-93695D01*
X23695Y-93625D01*
X23837Y-93540D01*
X23991Y-93428D01*
X24147Y-93315D01*
X24288Y-93188D01*
X24302Y-93174D01*
X24344Y-93132D01*
X24400Y-93047D01*
X24485Y-92962D01*
X24569Y-92836D01*
X24654Y-92709D01*
X24725Y-92554D01*
X24795Y-92399D01*
Y-92384D01*
X24823Y-92314D01*
X24837Y-92229D01*
X24866Y-92116D01*
X24894Y-91990D01*
X24908Y-91835D01*
X24936Y-91510D01*
Y-91440D01*
X24922Y-91341D01*
Y-91228D01*
X24908Y-91102D01*
X24880Y-90961D01*
X24795Y-90650D01*
X24781Y-90636D01*
X24767Y-90580D01*
X24739Y-90510D01*
X24696Y-90411D01*
X24584Y-90185D01*
X24457Y-89960D01*
X24443Y-89946D01*
X24429Y-89903D01*
X24386Y-89847D01*
X24344Y-89776D01*
X24217Y-89607D01*
X24076Y-89424D01*
X24062Y-89410D01*
X24048Y-89382D01*
X24006Y-89339D01*
X23963Y-89283D01*
X23851Y-89142D01*
X23724Y-89001D01*
Y-88790D01*
X25895D01*
Y-88804D01*
D02*
G37*
G36*
X26487Y-99856D02*
Y-102266D01*
X17309Y-105410D01*
Y-103028D01*
X23554Y-101026D01*
X17309Y-99024D01*
Y-96698D01*
X26487Y-99856D01*
D02*
G37*
G36*
X611199Y-41980D02*
X611242D01*
X611312D01*
X611397Y-41994D01*
X611509D01*
X611650Y-42008D01*
X611791Y-42023D01*
X611946Y-42051D01*
X612313Y-42121D01*
X612694Y-42220D01*
X613088Y-42361D01*
X613483Y-42544D01*
X613497D01*
X613525Y-42572D01*
X613582Y-42600D01*
X613652Y-42643D01*
X613737Y-42699D01*
X613821Y-42770D01*
X614047Y-42939D01*
X614301Y-43136D01*
X614554Y-43376D01*
X614808Y-43658D01*
X615034Y-43968D01*
Y-43982D01*
X615048Y-43996D01*
X615076Y-44038D01*
X615104Y-44095D01*
X615189Y-44236D01*
X615287Y-44433D01*
X615386Y-44659D01*
X615485Y-44927D01*
X615569Y-45223D01*
X615626Y-45533D01*
Y-45575D01*
X615640Y-45617D01*
Y-45674D01*
X615654Y-45758D01*
X615668Y-45843D01*
X615682Y-46068D01*
X615710Y-46336D01*
X615738Y-46632D01*
X615753Y-46971D01*
Y-50185D01*
X606576D01*
Y-46985D01*
X606590Y-46745D01*
X606604Y-46477D01*
X606632Y-46167D01*
X606660Y-45857D01*
X606702Y-45533D01*
Y-45490D01*
X606716Y-45448D01*
X606731Y-45392D01*
X606745Y-45307D01*
X606773Y-45223D01*
X606829Y-45011D01*
X606900Y-44771D01*
X607012Y-44504D01*
X607139Y-44222D01*
X607309Y-43940D01*
Y-43926D01*
X607337Y-43897D01*
X607365Y-43855D01*
X607407Y-43785D01*
X607548Y-43630D01*
X607717Y-43418D01*
X607943Y-43193D01*
X608211Y-42953D01*
X608521Y-42727D01*
X608873Y-42516D01*
X608887D01*
X608916Y-42488D01*
X608972Y-42460D01*
X609043Y-42431D01*
X609141Y-42389D01*
X609254Y-42347D01*
X609381Y-42305D01*
X609522Y-42248D01*
X609691Y-42192D01*
X609860Y-42149D01*
X610255Y-42065D01*
X610706Y-42008D01*
X611185Y-41980D01*
X611199D01*
D02*
G37*
G36*
X615753Y-52045D02*
Y-54259D01*
X609367Y-57811D01*
X615753D01*
Y-59912D01*
X606576D01*
Y-57092D01*
X611834Y-54146D01*
X606576D01*
Y-52045D01*
X615753D01*
D02*
G37*
G36*
X615245Y-61645D02*
X615259Y-61674D01*
X615287Y-61758D01*
X615330Y-61885D01*
X615400Y-62069D01*
X615471Y-62294D01*
X615541Y-62562D01*
X615640Y-62872D01*
X615724Y-63224D01*
Y-63239D01*
X615738Y-63267D01*
Y-63323D01*
X615753Y-63394D01*
X615781Y-63478D01*
X615795Y-63577D01*
X615837Y-63816D01*
X615880Y-64113D01*
X615908Y-64437D01*
X615936Y-64775D01*
X615950Y-65128D01*
Y-65226D01*
X615936Y-65339D01*
Y-65480D01*
X615908Y-65663D01*
X615880Y-65875D01*
X615851Y-66114D01*
X615795Y-66368D01*
X615724Y-66636D01*
X615640Y-66918D01*
X615541Y-67200D01*
X615428Y-67482D01*
X615287Y-67778D01*
X615118Y-68046D01*
X614921Y-68313D01*
X614710Y-68567D01*
X614695Y-68581D01*
X614653Y-68624D01*
X614583Y-68680D01*
X614484Y-68765D01*
X614343Y-68863D01*
X614188Y-68976D01*
X614005Y-69089D01*
X613793Y-69201D01*
X613554Y-69328D01*
X613300Y-69441D01*
X613004Y-69554D01*
X612694Y-69653D01*
X612341Y-69737D01*
X611975Y-69794D01*
X611580Y-69836D01*
X611171Y-69850D01*
X611143D01*
X611072D01*
X610960Y-69836D01*
X610819D01*
X610635Y-69808D01*
X610424Y-69780D01*
X610184Y-69737D01*
X609931Y-69695D01*
X609663Y-69624D01*
X609381Y-69540D01*
X609099Y-69427D01*
X608803Y-69314D01*
X608521Y-69159D01*
X608239Y-68990D01*
X607971Y-68793D01*
X607717Y-68567D01*
X607703Y-68553D01*
X607661Y-68511D01*
X607590Y-68440D01*
X607506Y-68327D01*
X607407Y-68201D01*
X607309Y-68046D01*
X607182Y-67862D01*
X607055Y-67651D01*
X606942Y-67411D01*
X606815Y-67143D01*
X606716Y-66861D01*
X606604Y-66551D01*
X606533Y-66213D01*
X606463Y-65847D01*
X606420Y-65466D01*
X606406Y-65057D01*
Y-64761D01*
X606420Y-64648D01*
X606435Y-64394D01*
X606463Y-64084D01*
X606505Y-63774D01*
X606561Y-63464D01*
X606632Y-63182D01*
Y-63168D01*
X606646Y-63154D01*
X606660Y-63112D01*
X606674Y-63055D01*
X606716Y-62914D01*
X606787Y-62731D01*
X606871Y-62505D01*
X606970Y-62252D01*
X607083Y-61970D01*
X607224Y-61688D01*
X609367D01*
Y-61913D01*
X609338Y-61927D01*
X609310Y-61970D01*
X609268Y-62026D01*
X609226Y-62097D01*
X609169Y-62167D01*
X609014Y-62379D01*
X609000Y-62393D01*
X608972Y-62435D01*
X608930Y-62491D01*
X608873Y-62576D01*
X608746Y-62759D01*
X608605Y-62985D01*
X608591Y-62999D01*
X608577Y-63041D01*
X608535Y-63126D01*
X608493Y-63210D01*
X608436Y-63337D01*
X608380Y-63478D01*
X608324Y-63619D01*
X608267Y-63788D01*
Y-63802D01*
X608239Y-63873D01*
X608225Y-63958D01*
X608197Y-64070D01*
X608168Y-64225D01*
X608154Y-64380D01*
X608126Y-64564D01*
Y-64846D01*
X608140Y-64958D01*
X608154Y-65099D01*
X608168Y-65269D01*
X608211Y-65452D01*
X608253Y-65649D01*
X608324Y-65832D01*
X608338Y-65847D01*
X608352Y-65917D01*
X608408Y-66002D01*
X608465Y-66114D01*
X608535Y-66255D01*
X608634Y-66396D01*
X608746Y-66551D01*
X608887Y-66692D01*
X608901Y-66706D01*
X608958Y-66749D01*
X609028Y-66819D01*
X609141Y-66890D01*
X609282Y-66988D01*
X609437Y-67073D01*
X609620Y-67172D01*
X609832Y-67256D01*
X609860Y-67270D01*
X609931Y-67284D01*
X610043Y-67327D01*
X610213Y-67355D01*
X610396Y-67397D01*
X610621Y-67439D01*
X610875Y-67453D01*
X611143Y-67468D01*
X611157D01*
X611213D01*
X611298D01*
X611411Y-67453D01*
X611538Y-67439D01*
X611693Y-67425D01*
X611862Y-67397D01*
X612045Y-67369D01*
X612426Y-67270D01*
X612623Y-67200D01*
X612821Y-67129D01*
X613004Y-67031D01*
X613187Y-66932D01*
X613356Y-66805D01*
X613511Y-66664D01*
X613525Y-66650D01*
X613539Y-66622D01*
X613582Y-66579D01*
X613624Y-66523D01*
X613680Y-66438D01*
X613751Y-66340D01*
X613821Y-66213D01*
X613892Y-66086D01*
X613962Y-65945D01*
X614033Y-65776D01*
X614089Y-65593D01*
X614160Y-65395D01*
X614202Y-65184D01*
X614244Y-64958D01*
X614258Y-64719D01*
X614272Y-64465D01*
Y-63972D01*
X614258Y-63873D01*
X612454D01*
Y-65663D01*
X610720D01*
Y-61645D01*
X615245D01*
D02*
G37*
G36*
X616174Y-82534D02*
X616335Y-84939D01*
X607387Y-88686D01*
X607229Y-86309D01*
X613327Y-83896D01*
X606962Y-82314D01*
X606808Y-79993D01*
X616174Y-82534D01*
D02*
G37*
G36*
X613735Y-88757D02*
X613919Y-88759D01*
X614132Y-88773D01*
X614361Y-88814D01*
X614590Y-88856D01*
X614834Y-88924D01*
X614864Y-88936D01*
X614936Y-88960D01*
X615052Y-89009D01*
X615198Y-89084D01*
X615374Y-89171D01*
X615551Y-89286D01*
X615744Y-89429D01*
X615924Y-89586D01*
X615940Y-89613D01*
X616000Y-89666D01*
X616091Y-89759D01*
X616199Y-89893D01*
X616309Y-90055D01*
X616433Y-90230D01*
X616561Y-90448D01*
X616675Y-90681D01*
X616676Y-90695D01*
X616691Y-90708D01*
X616708Y-90749D01*
X616725Y-90790D01*
X616762Y-90929D01*
X616818Y-91123D01*
X616890Y-91358D01*
X616936Y-91624D01*
X616986Y-91945D01*
X617022Y-92282D01*
X617033Y-92451D01*
X617025Y-92536D01*
X617032Y-92649D01*
X617034Y-92889D01*
X617025Y-93172D01*
X617016Y-93455D01*
X616994Y-93767D01*
X616956Y-94052D01*
X616957Y-94067D01*
X616944Y-94082D01*
X616947Y-94124D01*
X616937Y-94181D01*
X616917Y-94310D01*
X616886Y-94481D01*
X616843Y-94682D01*
X616786Y-94883D01*
X616730Y-95099D01*
X616671Y-95287D01*
X614674Y-95420D01*
X614660Y-95209D01*
X614673Y-95194D01*
X614724Y-95106D01*
X614800Y-94973D01*
X614874Y-94813D01*
X614873Y-94799D01*
X614885Y-94770D01*
X614910Y-94726D01*
X614934Y-94654D01*
X614971Y-94580D01*
X615007Y-94479D01*
X615042Y-94364D01*
X615089Y-94234D01*
X615089Y-94219D01*
X615100Y-94176D01*
X615123Y-94104D01*
X615146Y-94018D01*
X615181Y-93917D01*
X615202Y-93802D01*
X615256Y-93558D01*
X615256Y-93544D01*
X615267Y-93501D01*
X615276Y-93430D01*
X615284Y-93330D01*
X615290Y-93217D01*
X615296Y-93090D01*
X615291Y-92807D01*
X615282Y-92667D01*
X615261Y-92569D01*
X615254Y-92457D01*
X615217Y-92332D01*
X615155Y-92039D01*
X615154Y-92025D01*
X615136Y-91970D01*
X615104Y-91901D01*
X615069Y-91805D01*
X614955Y-91586D01*
X614879Y-91493D01*
X614787Y-91400D01*
X614773Y-91387D01*
X614757Y-91374D01*
X614654Y-91296D01*
X614520Y-91206D01*
X614360Y-91131D01*
X614346Y-91132D01*
X614317Y-91120D01*
X614259Y-91096D01*
X614187Y-91087D01*
X614101Y-91064D01*
X613988Y-91058D01*
X613860Y-91052D01*
X613719Y-91061D01*
X613705Y-91062D01*
X613663Y-91065D01*
X613607Y-91069D01*
X613523Y-91088D01*
X613358Y-91142D01*
X613180Y-91238D01*
X613166Y-91239D01*
X613140Y-91269D01*
X613100Y-91300D01*
X613045Y-91332D01*
X612926Y-91453D01*
X612824Y-91615D01*
X612811Y-91630D01*
X612800Y-91674D01*
X612762Y-91747D01*
X612725Y-91834D01*
X612691Y-91949D01*
X612657Y-92079D01*
X612624Y-92222D01*
X612607Y-92393D01*
X612608Y-92407D01*
X612598Y-92464D01*
X612589Y-92549D01*
X612582Y-92649D01*
X612590Y-92775D01*
X612585Y-92903D01*
X612588Y-93157D01*
X612600Y-93340D01*
X612622Y-93465D01*
X612633Y-93620D01*
X612658Y-93788D01*
X612738Y-94136D01*
X612739Y-94150D01*
X612757Y-94219D01*
X612777Y-94303D01*
X612813Y-94414D01*
X612849Y-94538D01*
X612887Y-94677D01*
X612961Y-94941D01*
X612974Y-95138D01*
X607840Y-95480D01*
X607436Y-89417D01*
X609166Y-89302D01*
X609426Y-93198D01*
X610959Y-93096D01*
X610954Y-93026D01*
X610936Y-92970D01*
X610927Y-92830D01*
X610902Y-92662D01*
X610896Y-92577D01*
X610878Y-92522D01*
X610845Y-92030D01*
X610848Y-91860D01*
X610850Y-91676D01*
X610864Y-91463D01*
X610920Y-91036D01*
X610919Y-91008D01*
X610942Y-90936D01*
X610964Y-90835D01*
X610996Y-90692D01*
X611042Y-90533D01*
X611102Y-90374D01*
X611175Y-90199D01*
X611263Y-90024D01*
X611275Y-89995D01*
X611313Y-89936D01*
X611391Y-89832D01*
X611482Y-89713D01*
X611600Y-89578D01*
X611760Y-89426D01*
X611919Y-89274D01*
X612123Y-89147D01*
X612150Y-89131D01*
X612218Y-89099D01*
X612341Y-89034D01*
X612492Y-88967D01*
X612686Y-88912D01*
X612921Y-88840D01*
X613187Y-88794D01*
X613481Y-88760D01*
X613495Y-88759D01*
X613509Y-88758D01*
X613552Y-88755D01*
X613608Y-88752D01*
X613735Y-88757D01*
D02*
G37*
%LPC*%
G36*
X21722Y-43093D02*
X21651Y-43107D01*
X21553D01*
X21341Y-43135D01*
X21102Y-43177D01*
X20834Y-43234D01*
X20580Y-43304D01*
X20326Y-43417D01*
X20312D01*
X20298Y-43431D01*
X20214Y-43473D01*
X20101Y-43544D01*
X19960Y-43657D01*
X19791Y-43783D01*
X19621Y-43952D01*
X19466Y-44150D01*
X19311Y-44376D01*
X19297Y-44390D01*
X19269Y-44460D01*
X19227Y-44545D01*
X19184Y-44672D01*
X19128Y-44827D01*
X19086Y-44982D01*
X19044Y-45165D01*
X19029Y-45362D01*
Y-45447D01*
X19015Y-45560D01*
Y-45884D01*
X19001Y-46081D01*
Y-46617D01*
X24739D01*
Y-45701D01*
X24725Y-45489D01*
Y-45250D01*
X24711Y-45179D01*
X24696Y-45080D01*
X24668Y-44953D01*
X24626Y-44798D01*
X24569Y-44629D01*
X24485Y-44446D01*
X24386Y-44263D01*
X24372Y-44234D01*
X24316Y-44164D01*
X24245Y-44065D01*
X24132Y-43938D01*
X23992Y-43797D01*
X23822Y-43657D01*
X23639Y-43516D01*
X23414Y-43389D01*
X23400D01*
X23385Y-43375D01*
X23301Y-43346D01*
X23160Y-43290D01*
X22977Y-43234D01*
X22765Y-43191D01*
X22497Y-43135D01*
X22201Y-43107D01*
X21877Y-43093D01*
X21863D01*
X21835D01*
X21792D01*
X21722D01*
D02*
G37*
G36*
X611002Y-44363D02*
X610932Y-44377D01*
X610833D01*
X610621Y-44405D01*
X610382Y-44447D01*
X610114Y-44504D01*
X609860Y-44574D01*
X609606Y-44687D01*
X609592D01*
X609578Y-44701D01*
X609494Y-44743D01*
X609381Y-44814D01*
X609240Y-44927D01*
X609071Y-45053D01*
X608901Y-45223D01*
X608746Y-45420D01*
X608591Y-45645D01*
X608577Y-45659D01*
X608549Y-45730D01*
X608507Y-45815D01*
X608465Y-45942D01*
X608408Y-46097D01*
X608366Y-46252D01*
X608324Y-46435D01*
X608309Y-46632D01*
Y-46717D01*
X608295Y-46830D01*
Y-47154D01*
X608281Y-47351D01*
Y-47887D01*
X614019D01*
Y-46971D01*
X614005Y-46759D01*
Y-46519D01*
X613991Y-46449D01*
X613976Y-46350D01*
X613948Y-46223D01*
X613906Y-46068D01*
X613849Y-45899D01*
X613765Y-45716D01*
X613666Y-45533D01*
X613652Y-45504D01*
X613596Y-45434D01*
X613525Y-45335D01*
X613413Y-45208D01*
X613272Y-45068D01*
X613102Y-44927D01*
X612919Y-44785D01*
X612694Y-44659D01*
X612679D01*
X612665Y-44645D01*
X612581Y-44616D01*
X612440Y-44560D01*
X612257Y-44504D01*
X612045Y-44461D01*
X611777Y-44405D01*
X611481Y-44377D01*
X611157Y-44363D01*
X611143D01*
X611115D01*
X611072D01*
X611002D01*
D02*
G37*
%LPD*%
D21*
X84070Y-83820D02*
X138430Y-29460D01*
X71120Y-83820D02*
X84070D01*
X510540Y-80010D02*
X561340D01*
X485140Y-54610D02*
X510540Y-80010D01*
D22*
X347980Y-105510D02*
D03*
D23*
Y-80010D02*
D03*
Y-54510D02*
D03*
D24*
X269240Y-91440D02*
D03*
Y-66440D02*
D03*
X485140Y-54610D02*
D03*
Y-79610D02*
D03*
X138430Y-29460D02*
D03*
D25*
X198120Y-86040D02*
D03*
D26*
Y-66040D02*
D03*
D27*
X71120Y-58420D02*
D03*
Y-83820D02*
D03*
X561340Y-80010D02*
D03*
Y-54610D02*
D03*
D28*
X416560Y-58420D02*
D03*
D29*
Y-78420D02*
D03*
D30*
X138430Y-124460D02*
D03*
M02*
