G04*
G04 #@! TF.GenerationSoftware,Altium Limited,Altium Designer,23.1.1 (15)*
G04*
G04 Layer_Color=2752767*
%FSLAX44Y44*%
%MOMM*%
G71*
G04*
G04 #@! TF.SameCoordinates,192AC858-DC75-4971-91E7-501E18B89E25*
G04*
G04*
G04 #@! TF.FilePolarity,Positive*
G04*
G01*
G75*
%ADD32C,0.1270*%
%ADD33C,0.1693*%
D32*
X342900Y-110590D02*
Y-100430D01*
X353060D01*
Y-110590D01*
X342900D01*
Y-85090D02*
Y-74930D01*
X353060D01*
Y-85090D01*
X342900D01*
Y-59590D02*
Y-49430D01*
X353060D01*
Y-59590D01*
X342900D01*
X269240Y-96520D02*
X271780Y-93980D01*
X274320D01*
X271780Y-91440D01*
X274320Y-88900D01*
X271780D01*
X269240Y-86360D01*
X266700Y-88900D01*
X264160D01*
X266700Y-91440D01*
X264160Y-93980D01*
X266700D01*
X269240Y-96520D01*
Y-71520D02*
X271780Y-68980D01*
X274320D01*
X271780Y-66440D01*
X274320Y-63900D01*
X271780D01*
X269240Y-61360D01*
X266700Y-63900D01*
X264160D01*
X266700Y-66440D01*
X264160Y-68980D01*
X266700D01*
X269240Y-71520D01*
X193040Y-91120D02*
X195580Y-86040D01*
X193040Y-80960D01*
X198120Y-83500D01*
X203200Y-80960D01*
X200660Y-86040D01*
X203200Y-91120D01*
X198120Y-88580D01*
X193040Y-91120D01*
Y-71120D02*
X195580Y-66040D01*
X193040Y-60960D01*
X198120Y-63500D01*
X203200Y-60960D01*
X200660Y-66040D01*
X203200Y-71120D01*
X198120Y-68580D01*
X193040Y-71120D01*
X485140Y-59690D02*
X487680Y-57150D01*
X490220D01*
X487680Y-54610D01*
X490220Y-52070D01*
X487680D01*
X485140Y-49530D01*
X482600Y-52070D01*
X480060D01*
X482600Y-54610D01*
X480060Y-57150D01*
X482600D01*
X485140Y-59690D01*
Y-84690D02*
X487680Y-82150D01*
X490220D01*
X487680Y-79610D01*
X490220Y-77070D01*
X487680D01*
X485140Y-74530D01*
X482600Y-77070D01*
X480060D01*
X482600Y-79610D01*
X480060Y-82150D01*
X482600D01*
X485140Y-84690D01*
X71120Y-63500D02*
X66040Y-53340D01*
X76200D01*
X71120Y-63500D01*
Y-88900D02*
X66040Y-78740D01*
X76200D01*
X71120Y-88900D01*
X561340Y-85090D02*
X556260Y-74930D01*
X566420D01*
X561340Y-85090D01*
Y-59690D02*
X556260Y-49530D01*
X566420D01*
X561340Y-59690D01*
X416560Y-63500D02*
X419100Y-60960D01*
X421640D01*
X419100Y-58420D01*
X421640Y-55880D01*
X419100D01*
X416560Y-53340D01*
X414020Y-55880D01*
X411480D01*
X414020Y-58420D01*
X411480Y-60960D01*
X414020D01*
X416560Y-63500D01*
Y-83500D02*
X419100Y-80960D01*
X421640D01*
X419100Y-78420D01*
X421640Y-75880D01*
X419100D01*
X416560Y-73340D01*
X414020Y-75880D01*
X411480D01*
X414020Y-78420D01*
X411480Y-80960D01*
X414020D01*
X416560Y-83500D01*
D33*
X143510Y-124460D02*
G03*
X143510Y-124460I-5080J0D01*
G01*
Y-29460D02*
G03*
X143510Y-29460I-5080J0D01*
G01*
M02*
