G04 EAGLE Gerber X2 export*
%TF.Part,Single*%
%TF.FileFunction,Profile,NP*%
%TF.FilePolarity,Positive*%
%TF.GenerationSoftware,Autodesk,EAGLE,9.6.2*%
%TF.CreationDate,2023-05-14T16:05:35Z*%
G75*
%MOIN*%
%FSLAX36Y36*%
%LPD*%
%INBoard Outline*%
%AMOC8*
5,1,8,0,0,1.08239X$1,22.5*%
G01*
%ADD10C,0.010000*%


D10*
X0Y0D02*
X1771654Y0D01*
X1771654Y2362205D01*
X0Y2362205D01*
X0Y0D01*
X218504Y1651364D02*
X218193Y1647016D01*
X217573Y1642701D01*
X216646Y1638442D01*
X215418Y1634260D01*
X213895Y1630176D01*
X212084Y1626211D01*
X209995Y1622385D01*
X207638Y1618718D01*
X205026Y1615228D01*
X202172Y1611934D01*
X199089Y1608852D01*
X195795Y1605998D01*
X192306Y1603385D01*
X188639Y1601029D01*
X184813Y1598940D01*
X180848Y1597129D01*
X176764Y1595606D01*
X172581Y1594378D01*
X168322Y1593451D01*
X164008Y1592831D01*
X159660Y1592520D01*
X155301Y1592520D01*
X150953Y1592831D01*
X146638Y1593451D01*
X142379Y1594378D01*
X138197Y1595606D01*
X134113Y1597129D01*
X130148Y1598940D01*
X126322Y1601029D01*
X122655Y1603385D01*
X119165Y1605998D01*
X115871Y1608852D01*
X112789Y1611934D01*
X109935Y1615228D01*
X107322Y1618718D01*
X104966Y1622385D01*
X102877Y1626211D01*
X101066Y1630176D01*
X99543Y1634260D01*
X98315Y1638442D01*
X97388Y1642701D01*
X96768Y1647016D01*
X96457Y1651364D01*
X96457Y1655723D01*
X96768Y1660071D01*
X97388Y1664385D01*
X98315Y1668644D01*
X99543Y1672827D01*
X101066Y1676911D01*
X102877Y1680876D01*
X104966Y1684702D01*
X107322Y1688369D01*
X109935Y1691858D01*
X112789Y1695152D01*
X115871Y1698235D01*
X119165Y1701089D01*
X122655Y1703701D01*
X126322Y1706058D01*
X130148Y1708147D01*
X134113Y1709958D01*
X138197Y1711481D01*
X142379Y1712709D01*
X146638Y1713636D01*
X150953Y1714256D01*
X155301Y1714567D01*
X159660Y1714567D01*
X164008Y1714256D01*
X168322Y1713636D01*
X172581Y1712709D01*
X176764Y1711481D01*
X180848Y1709958D01*
X184813Y1708147D01*
X188639Y1706058D01*
X192306Y1703701D01*
X195795Y1701089D01*
X199089Y1698235D01*
X202172Y1695152D01*
X205026Y1691858D01*
X207638Y1688369D01*
X209995Y1684702D01*
X212084Y1680876D01*
X213895Y1676911D01*
X215418Y1672827D01*
X216646Y1668644D01*
X217573Y1664385D01*
X218193Y1660071D01*
X218504Y1655723D01*
X218504Y1651364D01*
X1675197Y509632D02*
X1674886Y505284D01*
X1674266Y500969D01*
X1673339Y496710D01*
X1672111Y492528D01*
X1670588Y488443D01*
X1668777Y484478D01*
X1666688Y480653D01*
X1664331Y476986D01*
X1661719Y473496D01*
X1658865Y470202D01*
X1655782Y467120D01*
X1652488Y464265D01*
X1648999Y461653D01*
X1645332Y459296D01*
X1641506Y457207D01*
X1637541Y455397D01*
X1633457Y453873D01*
X1629274Y452645D01*
X1625015Y451719D01*
X1620701Y451098D01*
X1616353Y450787D01*
X1611994Y450787D01*
X1607646Y451098D01*
X1603331Y451719D01*
X1599072Y452645D01*
X1594890Y453873D01*
X1590806Y455397D01*
X1586841Y457207D01*
X1583015Y459296D01*
X1579348Y461653D01*
X1575858Y464265D01*
X1572564Y467120D01*
X1569482Y470202D01*
X1566627Y473496D01*
X1564015Y476986D01*
X1561659Y480653D01*
X1559570Y484478D01*
X1557759Y488443D01*
X1556235Y492528D01*
X1555008Y496710D01*
X1554081Y500969D01*
X1553461Y505284D01*
X1553150Y509632D01*
X1553150Y513991D01*
X1553461Y518338D01*
X1554081Y522653D01*
X1555008Y526912D01*
X1556235Y531094D01*
X1557759Y535179D01*
X1559570Y539144D01*
X1561659Y542969D01*
X1564015Y546636D01*
X1566627Y550126D01*
X1569482Y553420D01*
X1572564Y556502D01*
X1575858Y559357D01*
X1579348Y561969D01*
X1583015Y564326D01*
X1586841Y566415D01*
X1590806Y568225D01*
X1594890Y569749D01*
X1599072Y570977D01*
X1603331Y571903D01*
X1607646Y572524D01*
X1611994Y572835D01*
X1616353Y572835D01*
X1620701Y572524D01*
X1625015Y571903D01*
X1629274Y570977D01*
X1633457Y569749D01*
X1637541Y568225D01*
X1641506Y566415D01*
X1645332Y564326D01*
X1648999Y561969D01*
X1652488Y559357D01*
X1655782Y556502D01*
X1658865Y553420D01*
X1661719Y550126D01*
X1664331Y546636D01*
X1666688Y542969D01*
X1668777Y539144D01*
X1670588Y535179D01*
X1672111Y531094D01*
X1673339Y526912D01*
X1674266Y522653D01*
X1674886Y518338D01*
X1675197Y513991D01*
X1675197Y509632D01*
X1675197Y1808844D02*
X1674886Y1804496D01*
X1674266Y1800182D01*
X1673339Y1795922D01*
X1672111Y1791740D01*
X1670588Y1787656D01*
X1668777Y1783691D01*
X1666688Y1779865D01*
X1664331Y1776198D01*
X1661719Y1772709D01*
X1658865Y1769414D01*
X1655782Y1766332D01*
X1652488Y1763478D01*
X1648999Y1760866D01*
X1645332Y1758509D01*
X1641506Y1756420D01*
X1637541Y1754609D01*
X1633457Y1753086D01*
X1629274Y1751858D01*
X1625015Y1750931D01*
X1620701Y1750311D01*
X1616353Y1750000D01*
X1611994Y1750000D01*
X1607646Y1750311D01*
X1603331Y1750931D01*
X1599072Y1751858D01*
X1594890Y1753086D01*
X1590806Y1754609D01*
X1586841Y1756420D01*
X1583015Y1758509D01*
X1579348Y1760866D01*
X1575858Y1763478D01*
X1572564Y1766332D01*
X1569482Y1769414D01*
X1566627Y1772709D01*
X1564015Y1776198D01*
X1561659Y1779865D01*
X1559570Y1783691D01*
X1557759Y1787656D01*
X1556235Y1791740D01*
X1555008Y1795922D01*
X1554081Y1800182D01*
X1553461Y1804496D01*
X1553150Y1808844D01*
X1553150Y1813203D01*
X1553461Y1817551D01*
X1554081Y1821866D01*
X1555008Y1826125D01*
X1556235Y1830307D01*
X1557759Y1834391D01*
X1559570Y1838356D01*
X1561659Y1842182D01*
X1564015Y1845849D01*
X1566627Y1849338D01*
X1569482Y1852633D01*
X1572564Y1855715D01*
X1575858Y1858569D01*
X1579348Y1861182D01*
X1583015Y1863538D01*
X1586841Y1865627D01*
X1590806Y1867438D01*
X1594890Y1868961D01*
X1599072Y1870189D01*
X1603331Y1871116D01*
X1607646Y1871736D01*
X1611994Y1872047D01*
X1616353Y1872047D01*
X1620701Y1871736D01*
X1625015Y1871116D01*
X1629274Y1870189D01*
X1633457Y1868961D01*
X1637541Y1867438D01*
X1641506Y1865627D01*
X1645332Y1863538D01*
X1648999Y1861182D01*
X1652488Y1858569D01*
X1655782Y1855715D01*
X1658865Y1852633D01*
X1661719Y1849338D01*
X1664331Y1845849D01*
X1666688Y1842182D01*
X1668777Y1838356D01*
X1670588Y1834391D01*
X1672111Y1830307D01*
X1673339Y1826125D01*
X1674266Y1821866D01*
X1674886Y1817551D01*
X1675197Y1813203D01*
X1675197Y1808844D01*
M02*
