G04 EAGLE Gerber X2 export*
%TF.Part,Single*%
%TF.FileFunction,Copper,L2,Bot,Mixed*%
%TF.FilePolarity,Positive*%
%TF.GenerationSoftware,Autodesk,EAGLE,9.6.2*%
%TF.CreationDate,2023-05-14T16:05:35Z*%
G75*
%MOIN*%
%FSLAX36Y36*%
%LPD*%
%INBottom Copper Layer*%
%AMOC8*
5,1,8,0,0,1.08239X$1,22.5*%
G01*
%ADD10P,0.067108X8X292.500000*%
%ADD11C,0.062000*%
%ADD12P,0.067108X8X22.500000*%
%ADD13P,0.056284X8X22.500000*%
%ADD14C,0.060000*%
%ADD15C,0.170000*%
%ADD16P,0.071438X8X22.500000*%
%ADD17P,0.071438X8X112.500000*%
%ADD18P,0.056284X8X202.500000*%
%ADD19P,0.056284X8X112.500000*%
%ADD20C,0.074000*%
%ADD21C,0.064000*%
%ADD22C,0.065000*%
%ADD23R,0.070079X0.124016*%
%ADD24C,0.040000*%
%ADD25C,0.016000*%

G36*
X1723723Y40008D02*
X1723723Y40008D01*
X1723792Y40002D01*
X1724510Y40086D01*
X1725231Y40158D01*
X1725297Y40178D01*
X1725366Y40186D01*
X1726053Y40410D01*
X1726747Y40623D01*
X1726808Y40656D01*
X1726874Y40677D01*
X1727502Y41032D01*
X1728141Y41378D01*
X1728194Y41422D01*
X1728254Y41456D01*
X1728803Y41929D01*
X1729359Y42393D01*
X1729402Y42446D01*
X1729455Y42492D01*
X1729900Y43065D01*
X1730352Y43628D01*
X1730384Y43689D01*
X1730427Y43744D01*
X1730750Y44394D01*
X1731083Y45035D01*
X1731102Y45101D01*
X1731133Y45164D01*
X1731322Y45865D01*
X1731522Y46558D01*
X1731527Y46627D01*
X1731546Y46694D01*
X1731653Y48000D01*
X1731653Y756289D01*
X1731649Y756323D01*
X1731653Y756358D01*
X1731570Y757116D01*
X1731496Y757867D01*
X1731485Y757900D01*
X1731482Y757934D01*
X1731254Y758654D01*
X1731031Y759382D01*
X1731014Y759413D01*
X1731004Y759446D01*
X1730639Y760105D01*
X1730276Y760776D01*
X1730253Y760803D01*
X1730237Y760833D01*
X1729750Y761407D01*
X1729261Y761994D01*
X1729234Y762016D01*
X1729211Y762042D01*
X1728615Y762513D01*
X1728026Y762988D01*
X1727995Y763004D01*
X1727968Y763025D01*
X1727288Y763371D01*
X1726619Y763718D01*
X1726585Y763728D01*
X1726554Y763744D01*
X1725824Y763947D01*
X1725095Y764157D01*
X1725061Y764160D01*
X1725027Y764169D01*
X1724269Y764225D01*
X1723515Y764287D01*
X1723481Y764283D01*
X1723446Y764286D01*
X1722695Y764191D01*
X1721941Y764103D01*
X1721907Y764092D01*
X1721873Y764088D01*
X1721155Y763847D01*
X1720433Y763611D01*
X1720403Y763594D01*
X1720370Y763583D01*
X1719712Y763204D01*
X1719053Y762833D01*
X1719026Y762810D01*
X1718996Y762793D01*
X1717997Y761945D01*
X1682875Y726823D01*
X1682820Y726756D01*
X1682754Y726699D01*
X1682319Y726144D01*
X1681870Y725596D01*
X1681830Y725519D01*
X1681776Y725451D01*
X1681460Y724822D01*
X1681128Y724196D01*
X1681103Y724112D01*
X1681064Y724035D01*
X1680878Y723356D01*
X1680676Y722676D01*
X1680668Y722590D01*
X1680645Y722506D01*
X1680596Y721803D01*
X1680532Y721097D01*
X1680541Y721011D01*
X1680536Y720925D01*
X1680626Y720227D01*
X1680703Y719521D01*
X1680729Y719438D01*
X1680740Y719353D01*
X1681141Y718105D01*
X1683717Y711885D01*
X1683717Y697563D01*
X1678236Y684332D01*
X1668109Y674204D01*
X1654877Y668724D01*
X1604829Y668724D01*
X1604726Y668713D01*
X1604622Y668721D01*
X1603938Y668635D01*
X1603252Y668567D01*
X1603152Y668536D01*
X1603049Y668523D01*
X1602397Y668304D01*
X1601736Y668102D01*
X1601644Y668052D01*
X1601546Y668019D01*
X1600949Y667676D01*
X1600342Y667347D01*
X1600262Y667280D01*
X1600172Y667228D01*
X1599173Y666381D01*
X1515950Y583158D01*
X1515949Y583157D01*
X1505406Y572613D01*
X1337508Y572613D01*
X1096554Y813567D01*
X1096527Y813590D01*
X1096505Y813616D01*
X1095916Y814090D01*
X1095327Y814572D01*
X1095297Y814588D01*
X1095270Y814610D01*
X1094600Y814957D01*
X1093927Y815315D01*
X1093893Y815325D01*
X1093863Y815340D01*
X1093141Y815548D01*
X1092407Y815767D01*
X1092372Y815770D01*
X1092339Y815779D01*
X1091593Y815841D01*
X1090828Y815910D01*
X1090793Y815906D01*
X1090759Y815909D01*
X1090012Y815822D01*
X1089252Y815739D01*
X1089219Y815729D01*
X1089185Y815725D01*
X1088464Y815490D01*
X1087741Y815261D01*
X1087710Y815244D01*
X1087677Y815234D01*
X1087017Y814861D01*
X1086353Y814494D01*
X1086327Y814472D01*
X1086297Y814455D01*
X1085717Y813955D01*
X1085144Y813469D01*
X1085123Y813442D01*
X1085096Y813419D01*
X1084627Y812814D01*
X1084161Y812225D01*
X1084146Y812194D01*
X1084124Y812167D01*
X1083784Y811482D01*
X1083443Y810812D01*
X1083434Y810779D01*
X1083418Y810747D01*
X1083220Y810012D01*
X1083017Y809285D01*
X1083015Y809250D01*
X1083006Y809217D01*
X1082898Y807911D01*
X1082898Y626705D01*
X1082909Y626601D01*
X1082901Y626498D01*
X1082987Y625814D01*
X1083055Y625127D01*
X1083086Y625028D01*
X1083099Y624925D01*
X1083318Y624273D01*
X1083520Y623612D01*
X1083570Y623520D01*
X1083603Y623422D01*
X1083946Y622825D01*
X1084275Y622218D01*
X1084342Y622138D01*
X1084394Y622048D01*
X1085241Y621049D01*
X1122898Y583391D01*
X1122898Y538656D01*
X1112355Y528112D01*
X1112354Y528111D01*
X1090871Y506629D01*
X1090805Y506548D01*
X1090726Y506480D01*
X1090303Y505935D01*
X1089867Y505402D01*
X1089818Y505310D01*
X1089754Y505228D01*
X1089447Y504611D01*
X1089124Y504001D01*
X1089094Y503902D01*
X1089048Y503809D01*
X1088869Y503144D01*
X1088672Y502482D01*
X1088662Y502378D01*
X1088635Y502278D01*
X1088528Y500972D01*
X1088528Y478177D01*
X1080327Y469976D01*
X595197Y469976D01*
X595094Y469965D01*
X594990Y469973D01*
X594307Y469887D01*
X593620Y469819D01*
X593520Y469788D01*
X593417Y469775D01*
X592765Y469556D01*
X592104Y469353D01*
X592012Y469304D01*
X591914Y469271D01*
X591318Y468928D01*
X590710Y468599D01*
X590630Y468532D01*
X590540Y468480D01*
X589541Y467633D01*
X576171Y454262D01*
X576148Y454235D01*
X576122Y454213D01*
X575646Y453621D01*
X575166Y453036D01*
X575150Y453005D01*
X575128Y452978D01*
X574778Y452303D01*
X574423Y451635D01*
X574414Y451602D01*
X574398Y451571D01*
X574188Y450844D01*
X573971Y450116D01*
X573968Y450081D01*
X573959Y450048D01*
X573897Y449297D01*
X573828Y448537D01*
X573832Y448502D01*
X573829Y448468D01*
X573917Y447716D01*
X573999Y446961D01*
X574009Y446928D01*
X574013Y446893D01*
X574251Y446164D01*
X574477Y445449D01*
X574494Y445419D01*
X574505Y445386D01*
X574881Y444719D01*
X575244Y444062D01*
X575266Y444036D01*
X575283Y444005D01*
X575782Y443427D01*
X576269Y442853D01*
X576297Y442831D01*
X576319Y442805D01*
X576920Y442339D01*
X577513Y441870D01*
X577544Y441854D01*
X577572Y441833D01*
X578250Y441495D01*
X578926Y441151D01*
X578960Y441142D01*
X578991Y441126D01*
X579719Y440930D01*
X580453Y440726D01*
X580488Y440723D01*
X580522Y440714D01*
X581827Y440607D01*
X582337Y440607D01*
X606355Y416589D01*
X606355Y407606D01*
X565356Y407606D01*
X565354Y407606D01*
X565353Y407606D01*
X532828Y407606D01*
X532126Y407536D01*
X531421Y407481D01*
X531337Y407458D01*
X531250Y407449D01*
X530574Y407241D01*
X529895Y407049D01*
X529818Y407009D01*
X529735Y406984D01*
X529113Y406647D01*
X528485Y406325D01*
X528409Y406266D01*
X528341Y406229D01*
X528098Y406026D01*
X527447Y405526D01*
X527445Y405524D01*
X527295Y405358D01*
X527123Y405214D01*
X527121Y405213D01*
X526766Y404770D01*
X526384Y404347D01*
X526269Y404153D01*
X526128Y403978D01*
X525866Y403473D01*
X525575Y402984D01*
X525501Y402771D01*
X525397Y402571D01*
X525240Y402024D01*
X525052Y401487D01*
X525020Y401264D01*
X524958Y401047D01*
X524912Y400481D01*
X524833Y399917D01*
X524847Y399692D01*
X524828Y399467D01*
X524894Y398903D01*
X524929Y398335D01*
X524986Y398117D01*
X525013Y397893D01*
X525189Y397352D01*
X525335Y396802D01*
X525434Y396600D01*
X525504Y396385D01*
X525784Y395890D01*
X526035Y395380D01*
X526172Y395201D01*
X526283Y395005D01*
X526654Y394574D01*
X527001Y394123D01*
X527171Y393975D01*
X527319Y393805D01*
X527767Y393456D01*
X528197Y393082D01*
X528393Y392970D01*
X528571Y392832D01*
X529080Y392579D01*
X529574Y392297D01*
X529788Y392227D01*
X529990Y392126D01*
X530540Y391978D01*
X531079Y391799D01*
X531303Y391772D01*
X531521Y391714D01*
X532339Y391646D01*
X532653Y391608D01*
X532731Y391614D01*
X532826Y391606D01*
X557354Y391606D01*
X557354Y358606D01*
X548371Y358606D01*
X524354Y382623D01*
X524354Y383133D01*
X524350Y383168D01*
X524353Y383203D01*
X524272Y383952D01*
X524196Y384711D01*
X524186Y384744D01*
X524183Y384779D01*
X523955Y385498D01*
X523731Y386227D01*
X523715Y386258D01*
X523704Y386290D01*
X523338Y386952D01*
X522977Y387621D01*
X522954Y387647D01*
X522938Y387678D01*
X522445Y388258D01*
X521962Y388838D01*
X521935Y388860D01*
X521912Y388887D01*
X521312Y389361D01*
X520726Y389832D01*
X520696Y389848D01*
X520668Y389870D01*
X519991Y390214D01*
X519320Y390563D01*
X519286Y390573D01*
X519255Y390588D01*
X518528Y390791D01*
X517796Y391002D01*
X517761Y391005D01*
X517728Y391014D01*
X516971Y391070D01*
X516216Y391132D01*
X516182Y391127D01*
X516147Y391130D01*
X515394Y391035D01*
X514641Y390947D01*
X514608Y390936D01*
X514574Y390932D01*
X513852Y390690D01*
X513134Y390456D01*
X513104Y390439D01*
X513071Y390428D01*
X512407Y390046D01*
X511753Y389677D01*
X511727Y389655D01*
X511697Y389637D01*
X510698Y388790D01*
X507514Y385606D01*
X504949Y385606D01*
X504863Y385597D01*
X504776Y385604D01*
X504074Y385518D01*
X503372Y385448D01*
X503289Y385423D01*
X503203Y385413D01*
X502533Y385191D01*
X501856Y384983D01*
X501779Y384942D01*
X501697Y384915D01*
X501085Y384566D01*
X500462Y384228D01*
X500395Y384173D01*
X500320Y384130D01*
X499786Y383665D01*
X499244Y383214D01*
X499190Y383146D01*
X499124Y383089D01*
X498691Y382526D01*
X498250Y381978D01*
X498211Y381902D01*
X498157Y381833D01*
X497559Y380667D01*
X496722Y378647D01*
X486313Y368238D01*
X472714Y362606D01*
X457994Y362606D01*
X455974Y363442D01*
X455891Y363468D01*
X455813Y363507D01*
X455133Y363697D01*
X454457Y363901D01*
X454370Y363909D01*
X454286Y363933D01*
X453582Y363984D01*
X452878Y364051D01*
X452792Y364042D01*
X452705Y364049D01*
X452003Y363960D01*
X451302Y363887D01*
X451219Y363862D01*
X451132Y363851D01*
X450461Y363625D01*
X449788Y363416D01*
X449712Y363374D01*
X449629Y363347D01*
X449017Y362994D01*
X448397Y362655D01*
X448330Y362599D01*
X448255Y362556D01*
X447256Y361708D01*
X445169Y359621D01*
X214575Y359621D01*
X214489Y359613D01*
X214402Y359619D01*
X213700Y359534D01*
X212998Y359464D01*
X212915Y359439D01*
X212829Y359428D01*
X212159Y359207D01*
X211482Y358999D01*
X211406Y358958D01*
X211324Y358930D01*
X210711Y358581D01*
X210088Y358244D01*
X210022Y358189D01*
X209946Y358146D01*
X209413Y357681D01*
X208870Y357229D01*
X208816Y357162D01*
X208750Y357105D01*
X208318Y356542D01*
X207877Y355994D01*
X207837Y355917D01*
X207784Y355848D01*
X207185Y354683D01*
X206583Y353229D01*
X196456Y343102D01*
X183224Y337621D01*
X108902Y337621D01*
X95670Y343102D01*
X85543Y353229D01*
X80062Y366461D01*
X80062Y380783D01*
X85543Y394015D01*
X95670Y404142D01*
X108902Y409623D01*
X183224Y409623D01*
X196456Y404142D01*
X206583Y394015D01*
X207185Y392561D01*
X207226Y392484D01*
X207253Y392402D01*
X207600Y391787D01*
X207934Y391164D01*
X207989Y391096D01*
X208032Y391021D01*
X208493Y390487D01*
X208943Y389941D01*
X209011Y389887D01*
X209068Y389821D01*
X209625Y389388D01*
X210174Y388942D01*
X210251Y388902D01*
X210320Y388849D01*
X210952Y388534D01*
X211578Y388205D01*
X211661Y388181D01*
X211739Y388142D01*
X212422Y387958D01*
X213100Y387760D01*
X213186Y387752D01*
X213270Y387730D01*
X214575Y387623D01*
X420354Y387623D01*
X420424Y387630D01*
X420492Y387624D01*
X421211Y387708D01*
X421932Y387780D01*
X421998Y387800D01*
X422067Y387808D01*
X422754Y388032D01*
X423447Y388245D01*
X423509Y388278D01*
X423574Y388299D01*
X424203Y388654D01*
X424842Y389000D01*
X424895Y389044D01*
X424955Y389078D01*
X425503Y389551D01*
X426059Y390015D01*
X426103Y390069D01*
X426155Y390114D01*
X426601Y390688D01*
X427053Y391250D01*
X427085Y391311D01*
X427128Y391366D01*
X427451Y392016D01*
X427784Y392657D01*
X427803Y392723D01*
X427834Y392786D01*
X428023Y393487D01*
X428223Y394180D01*
X428228Y394249D01*
X428246Y394316D01*
X428354Y395622D01*
X428354Y406966D01*
X433986Y420565D01*
X444395Y430974D01*
X457994Y436607D01*
X472714Y436607D01*
X474734Y435770D01*
X474818Y435745D01*
X474895Y435706D01*
X475573Y435517D01*
X476252Y435311D01*
X476339Y435303D01*
X476422Y435280D01*
X477126Y435228D01*
X477830Y435161D01*
X477916Y435170D01*
X478003Y435164D01*
X478706Y435252D01*
X479407Y435325D01*
X479490Y435351D01*
X479576Y435362D01*
X480248Y435587D01*
X480921Y435797D01*
X480996Y435838D01*
X481079Y435866D01*
X481691Y436218D01*
X482311Y436557D01*
X482378Y436614D01*
X482453Y436657D01*
X483452Y437504D01*
X488381Y442433D01*
X488446Y442513D01*
X488525Y442581D01*
X488948Y443126D01*
X489385Y443659D01*
X489434Y443752D01*
X489498Y443833D01*
X489805Y444450D01*
X490128Y445060D01*
X490157Y445159D01*
X490204Y445253D01*
X490383Y445919D01*
X490580Y446579D01*
X490589Y446683D01*
X490616Y446783D01*
X490724Y448089D01*
X490724Y469695D01*
X490713Y469798D01*
X490721Y469902D01*
X490635Y470585D01*
X490567Y471272D01*
X490536Y471372D01*
X490523Y471475D01*
X490304Y472127D01*
X490102Y472788D01*
X490052Y472879D01*
X490019Y472978D01*
X489676Y473574D01*
X489347Y474182D01*
X489280Y474262D01*
X489228Y474352D01*
X488381Y475351D01*
X431125Y532606D01*
X431125Y583141D01*
X462930Y614946D01*
X462974Y615000D01*
X463026Y615044D01*
X463473Y615610D01*
X463934Y616172D01*
X463966Y616234D01*
X464009Y616288D01*
X464336Y616930D01*
X464677Y617573D01*
X464697Y617640D01*
X464728Y617701D01*
X464921Y618395D01*
X465129Y619092D01*
X465135Y619162D01*
X465154Y619228D01*
X465206Y619946D01*
X465272Y620671D01*
X465265Y620741D01*
X465270Y620809D01*
X465180Y621524D01*
X465101Y622247D01*
X465080Y622314D01*
X465072Y622382D01*
X464842Y623068D01*
X464623Y623759D01*
X464590Y623819D01*
X464568Y623885D01*
X464207Y624511D01*
X463856Y625146D01*
X463812Y625199D01*
X463777Y625259D01*
X462930Y626258D01*
X449125Y640063D01*
X449125Y649874D01*
X492125Y649874D01*
X492194Y649881D01*
X492263Y649875D01*
X492981Y649959D01*
X493702Y650031D01*
X493768Y650051D01*
X493837Y650060D01*
X494524Y650283D01*
X495218Y650496D01*
X495279Y650529D01*
X495345Y650551D01*
X495973Y650905D01*
X496612Y651251D01*
X496665Y651296D01*
X496726Y651330D01*
X497274Y651803D01*
X497830Y652266D01*
X497873Y652320D01*
X497926Y652365D01*
X498371Y652939D01*
X498823Y653501D01*
X498855Y653563D01*
X498898Y653618D01*
X499221Y654267D01*
X499554Y654908D01*
X499573Y654974D01*
X499604Y655037D01*
X499793Y655738D01*
X499993Y656431D01*
X499999Y656501D01*
X500017Y656568D01*
X500124Y657873D01*
X500124Y657875D01*
X500117Y657943D01*
X500123Y658011D01*
X500123Y658013D01*
X500039Y658731D01*
X499967Y659452D01*
X499946Y659518D01*
X499938Y659587D01*
X499715Y660274D01*
X499502Y660968D01*
X499469Y661029D01*
X499447Y661095D01*
X499093Y661723D01*
X498747Y662362D01*
X498702Y662415D01*
X498668Y662475D01*
X498196Y663022D01*
X497732Y663579D01*
X497678Y663623D01*
X497633Y663676D01*
X497059Y664121D01*
X496497Y664573D01*
X496435Y664605D01*
X496380Y664648D01*
X495730Y664971D01*
X495090Y665304D01*
X495023Y665323D01*
X494961Y665354D01*
X494260Y665543D01*
X493566Y665743D01*
X493497Y665748D01*
X493430Y665766D01*
X492125Y665874D01*
X449125Y665874D01*
X449125Y675685D01*
X450658Y677218D01*
X450680Y677244D01*
X450706Y677267D01*
X451180Y677856D01*
X451662Y678444D01*
X451679Y678475D01*
X451700Y678502D01*
X452048Y679171D01*
X452405Y679845D01*
X452415Y679878D01*
X452431Y679909D01*
X452641Y680639D01*
X452857Y681364D01*
X452860Y681399D01*
X452870Y681432D01*
X452931Y682183D01*
X453000Y682943D01*
X452997Y682978D01*
X452999Y683012D01*
X452912Y683761D01*
X452830Y684519D01*
X452819Y684552D01*
X452815Y684587D01*
X452581Y685305D01*
X452352Y686031D01*
X452335Y686062D01*
X452324Y686094D01*
X451954Y686750D01*
X451585Y687418D01*
X451562Y687445D01*
X451545Y687475D01*
X451050Y688048D01*
X450559Y688627D01*
X450532Y688649D01*
X450509Y688675D01*
X449911Y689140D01*
X449315Y689610D01*
X449284Y689626D01*
X449257Y689647D01*
X448578Y689985D01*
X447902Y690329D01*
X447869Y690338D01*
X447838Y690354D01*
X447106Y690551D01*
X446375Y690754D01*
X446340Y690757D01*
X446307Y690766D01*
X445001Y690873D01*
X397201Y690873D01*
X386656Y701418D01*
X304701Y783373D01*
X304621Y783439D01*
X304553Y783518D01*
X304008Y783941D01*
X303475Y784377D01*
X303383Y784426D01*
X303300Y784490D01*
X302683Y784797D01*
X302074Y785120D01*
X301974Y785150D01*
X301881Y785196D01*
X301216Y785375D01*
X300555Y785572D01*
X300451Y785582D01*
X300350Y785609D01*
X299045Y785716D01*
X276902Y785716D01*
X258157Y804461D01*
X258157Y830971D01*
X276902Y849717D01*
X303412Y849717D01*
X322158Y830971D01*
X322158Y808829D01*
X322168Y808726D01*
X322161Y808622D01*
X322247Y807938D01*
X322315Y807252D01*
X322346Y807152D01*
X322359Y807049D01*
X322578Y806397D01*
X322780Y805736D01*
X322830Y805644D01*
X322863Y805546D01*
X323206Y804949D01*
X323535Y804342D01*
X323602Y804262D01*
X323654Y804172D01*
X324501Y803173D01*
X406456Y721218D01*
X406537Y721152D01*
X406605Y721073D01*
X407150Y720650D01*
X407683Y720213D01*
X407775Y720164D01*
X407857Y720101D01*
X408474Y719794D01*
X409083Y719470D01*
X409183Y719441D01*
X409276Y719394D01*
X409941Y719215D01*
X410603Y719018D01*
X410707Y719009D01*
X410807Y718982D01*
X412113Y718875D01*
X517393Y718875D01*
X553127Y683141D01*
X553127Y632606D01*
X542582Y622062D01*
X542582Y622061D01*
X527938Y607418D01*
X527937Y607417D01*
X518494Y597974D01*
X518450Y597920D01*
X518397Y597875D01*
X517949Y597308D01*
X517490Y596747D01*
X517457Y596686D01*
X517414Y596631D01*
X517086Y595987D01*
X516747Y595347D01*
X516727Y595280D01*
X516695Y595218D01*
X516500Y594519D01*
X516295Y593827D01*
X516289Y593758D01*
X516270Y593691D01*
X516217Y592970D01*
X516151Y592248D01*
X516159Y592179D01*
X516154Y592110D01*
X516244Y591395D01*
X516322Y590672D01*
X516343Y590606D01*
X516352Y590537D01*
X516582Y589850D01*
X516800Y589161D01*
X516834Y589100D01*
X516856Y589034D01*
X517219Y588403D01*
X517567Y587773D01*
X517612Y587721D01*
X517647Y587660D01*
X518494Y586661D01*
X531127Y574029D01*
X531127Y541987D01*
X531137Y541883D01*
X531129Y541779D01*
X531215Y541094D01*
X531284Y540409D01*
X531314Y540310D01*
X531327Y540206D01*
X531547Y539553D01*
X531749Y538893D01*
X531798Y538802D01*
X531832Y538703D01*
X532175Y538106D01*
X532504Y537499D01*
X532570Y537419D01*
X532622Y537329D01*
X533470Y536330D01*
X534953Y534847D01*
X535033Y534781D01*
X535101Y534703D01*
X535645Y534280D01*
X536179Y533843D01*
X536271Y533794D01*
X536353Y533731D01*
X536970Y533424D01*
X537580Y533100D01*
X537679Y533071D01*
X537772Y533024D01*
X538439Y532845D01*
X539099Y532648D01*
X539203Y532639D01*
X539303Y532612D01*
X540609Y532505D01*
X1017265Y532505D01*
X1017369Y532515D01*
X1017472Y532507D01*
X1018156Y532593D01*
X1018843Y532662D01*
X1018942Y532692D01*
X1019045Y532705D01*
X1019697Y532924D01*
X1020358Y533127D01*
X1020450Y533176D01*
X1020548Y533209D01*
X1021145Y533553D01*
X1021752Y533882D01*
X1021832Y533948D01*
X1021922Y534000D01*
X1022921Y534847D01*
X1034554Y546480D01*
X1034620Y546560D01*
X1034699Y546628D01*
X1035123Y547174D01*
X1035558Y547706D01*
X1035607Y547798D01*
X1035671Y547881D01*
X1035978Y548498D01*
X1036301Y549107D01*
X1036331Y549207D01*
X1036377Y549300D01*
X1036557Y549967D01*
X1036753Y550626D01*
X1036762Y550730D01*
X1036790Y550831D01*
X1036897Y552136D01*
X1036897Y574279D01*
X1055785Y593167D01*
X1055931Y593181D01*
X1055964Y593191D01*
X1055999Y593195D01*
X1056721Y593424D01*
X1057447Y593646D01*
X1057478Y593663D01*
X1057510Y593673D01*
X1058172Y594039D01*
X1058841Y594401D01*
X1058867Y594423D01*
X1058898Y594440D01*
X1059478Y594933D01*
X1060059Y595416D01*
X1060080Y595443D01*
X1060107Y595466D01*
X1060582Y596066D01*
X1061052Y596651D01*
X1061068Y596682D01*
X1061090Y596710D01*
X1061436Y597389D01*
X1061783Y598058D01*
X1061793Y598092D01*
X1061808Y598123D01*
X1062012Y598852D01*
X1062222Y599582D01*
X1062225Y599616D01*
X1062234Y599650D01*
X1062290Y600407D01*
X1062352Y601162D01*
X1062348Y601196D01*
X1062350Y601231D01*
X1062256Y601983D01*
X1062167Y602736D01*
X1062157Y602770D01*
X1062152Y602804D01*
X1061911Y603524D01*
X1061676Y604244D01*
X1061659Y604273D01*
X1061648Y604307D01*
X1061266Y604971D01*
X1060897Y605624D01*
X1060875Y605650D01*
X1060857Y605681D01*
X1060010Y606680D01*
X1054897Y611793D01*
X1054897Y826455D01*
X1054887Y826559D01*
X1054894Y826662D01*
X1054808Y827346D01*
X1054740Y828033D01*
X1054709Y828132D01*
X1054696Y828235D01*
X1054477Y828887D01*
X1054275Y829548D01*
X1054225Y829640D01*
X1054192Y829738D01*
X1053849Y830335D01*
X1053520Y830942D01*
X1053453Y831022D01*
X1053401Y831112D01*
X1052554Y832111D01*
X1036897Y847769D01*
X1036897Y874279D01*
X1055643Y893024D01*
X1082153Y893024D01*
X1100898Y874279D01*
X1100898Y852136D01*
X1100909Y852033D01*
X1100901Y851929D01*
X1100987Y851244D01*
X1101055Y850559D01*
X1101086Y850459D01*
X1101099Y850356D01*
X1101318Y849704D01*
X1101520Y849043D01*
X1101570Y848951D01*
X1101603Y848853D01*
X1101946Y848257D01*
X1102275Y847649D01*
X1102342Y847569D01*
X1102394Y847479D01*
X1103241Y846480D01*
X1346763Y602958D01*
X1346844Y602892D01*
X1346912Y602813D01*
X1347457Y602390D01*
X1347990Y601953D01*
X1348082Y601905D01*
X1348164Y601841D01*
X1348781Y601534D01*
X1349391Y601211D01*
X1349490Y601181D01*
X1349583Y601134D01*
X1350248Y600955D01*
X1350910Y600758D01*
X1351014Y600749D01*
X1351114Y600722D01*
X1352420Y600615D01*
X1490494Y600615D01*
X1490597Y600625D01*
X1490701Y600617D01*
X1491384Y600703D01*
X1492071Y600772D01*
X1492171Y600803D01*
X1492274Y600815D01*
X1492926Y601034D01*
X1493587Y601237D01*
X1493679Y601287D01*
X1493777Y601320D01*
X1494373Y601663D01*
X1494981Y601992D01*
X1495061Y602059D01*
X1495151Y602110D01*
X1496150Y602958D01*
X1561704Y668512D01*
X1561748Y668566D01*
X1561801Y668610D01*
X1562248Y669176D01*
X1562708Y669738D01*
X1562741Y669800D01*
X1562784Y669854D01*
X1563110Y670496D01*
X1563451Y671139D01*
X1563471Y671206D01*
X1563502Y671267D01*
X1563696Y671961D01*
X1563903Y672658D01*
X1563909Y672728D01*
X1563928Y672794D01*
X1563981Y673512D01*
X1564047Y674237D01*
X1564039Y674306D01*
X1564044Y674375D01*
X1563954Y675088D01*
X1563876Y675813D01*
X1563855Y675880D01*
X1563846Y675948D01*
X1563616Y676634D01*
X1563398Y677325D01*
X1563364Y677385D01*
X1563342Y677451D01*
X1562981Y678079D01*
X1562631Y678712D01*
X1562586Y678765D01*
X1562551Y678825D01*
X1561704Y679824D01*
X1557196Y684332D01*
X1551716Y697563D01*
X1551716Y711885D01*
X1557196Y725117D01*
X1561704Y729624D01*
X1561748Y729679D01*
X1561801Y729723D01*
X1562248Y730288D01*
X1562708Y730851D01*
X1562741Y730912D01*
X1562784Y730967D01*
X1563110Y731609D01*
X1563451Y732251D01*
X1563471Y732318D01*
X1563502Y732380D01*
X1563696Y733074D01*
X1563903Y733771D01*
X1563909Y733840D01*
X1563928Y733907D01*
X1563981Y734625D01*
X1564047Y735350D01*
X1564039Y735419D01*
X1564044Y735488D01*
X1563954Y736203D01*
X1563876Y736926D01*
X1563855Y736992D01*
X1563846Y737061D01*
X1563616Y737747D01*
X1563398Y738438D01*
X1563364Y738498D01*
X1563342Y738564D01*
X1562981Y739192D01*
X1562631Y739825D01*
X1562586Y739878D01*
X1562551Y739938D01*
X1561704Y740937D01*
X1533854Y768787D01*
X1533443Y769124D01*
X1533054Y769487D01*
X1532831Y769625D01*
X1532627Y769791D01*
X1532158Y770040D01*
X1531705Y770320D01*
X1531460Y770411D01*
X1531227Y770534D01*
X1530716Y770686D01*
X1530219Y770870D01*
X1529960Y770911D01*
X1529707Y770986D01*
X1529177Y771034D01*
X1528653Y771117D01*
X1528391Y771106D01*
X1528129Y771130D01*
X1527599Y771072D01*
X1527069Y771050D01*
X1526814Y770987D01*
X1526553Y770959D01*
X1526046Y770798D01*
X1525529Y770672D01*
X1525292Y770560D01*
X1525041Y770481D01*
X1524576Y770223D01*
X1524095Y769997D01*
X1523883Y769841D01*
X1523654Y769714D01*
X1523248Y769370D01*
X1522821Y769053D01*
X1522645Y768858D01*
X1522445Y768688D01*
X1522115Y768271D01*
X1521759Y767877D01*
X1521600Y767620D01*
X1521461Y767445D01*
X1521321Y767167D01*
X1521070Y766762D01*
X1520905Y766437D01*
X1517204Y761343D01*
X1512751Y756891D01*
X1507657Y753190D01*
X1502048Y750331D01*
X1496059Y748386D01*
X1489841Y747401D01*
X1466692Y747401D01*
X1466692Y785401D01*
X1466685Y785470D01*
X1466691Y785539D01*
X1466607Y786257D01*
X1466535Y786978D01*
X1466515Y787045D01*
X1466507Y787114D01*
X1466406Y787422D01*
X1466561Y787961D01*
X1466567Y788030D01*
X1466585Y788097D01*
X1466692Y789402D01*
X1466692Y827402D01*
X1469806Y827402D01*
X1469840Y827406D01*
X1469875Y827402D01*
X1470634Y827485D01*
X1471383Y827559D01*
X1471417Y827569D01*
X1471451Y827573D01*
X1472173Y827802D01*
X1472899Y828024D01*
X1472930Y828041D01*
X1472963Y828051D01*
X1473625Y828417D01*
X1474293Y828779D01*
X1474320Y828801D01*
X1474350Y828818D01*
X1474928Y829308D01*
X1475511Y829794D01*
X1475533Y829821D01*
X1475559Y829844D01*
X1476034Y830444D01*
X1476505Y831029D01*
X1476521Y831060D01*
X1476542Y831087D01*
X1476888Y831767D01*
X1477235Y832436D01*
X1477245Y832469D01*
X1477261Y832501D01*
X1477464Y833230D01*
X1477674Y833960D01*
X1477677Y833994D01*
X1477686Y834028D01*
X1477742Y834785D01*
X1477804Y835540D01*
X1477800Y835574D01*
X1477803Y835609D01*
X1477708Y836361D01*
X1477620Y837114D01*
X1477609Y837148D01*
X1477605Y837182D01*
X1477363Y837902D01*
X1477128Y838622D01*
X1477112Y838651D01*
X1477100Y838685D01*
X1476718Y839349D01*
X1476350Y840002D01*
X1476327Y840028D01*
X1476310Y840059D01*
X1475462Y841058D01*
X1467462Y849058D01*
X1467382Y849124D01*
X1467314Y849203D01*
X1466769Y849625D01*
X1466235Y850062D01*
X1466143Y850111D01*
X1466061Y850175D01*
X1465445Y850482D01*
X1464835Y850805D01*
X1464735Y850835D01*
X1464642Y850881D01*
X1463976Y851061D01*
X1463315Y851257D01*
X1463211Y851267D01*
X1463111Y851294D01*
X1461806Y851401D01*
X1419532Y851401D01*
X1407754Y856280D01*
X1407704Y856295D01*
X1407658Y856319D01*
X1406949Y856523D01*
X1406236Y856738D01*
X1406184Y856743D01*
X1406135Y856757D01*
X1405397Y856818D01*
X1404658Y856888D01*
X1404607Y856883D01*
X1404555Y856887D01*
X1403817Y856801D01*
X1403081Y856724D01*
X1403032Y856709D01*
X1402980Y856703D01*
X1402277Y856474D01*
X1401568Y856253D01*
X1401522Y856228D01*
X1401473Y856212D01*
X1400827Y855848D01*
X1400177Y855492D01*
X1400138Y855459D01*
X1400092Y855433D01*
X1399526Y854945D01*
X1398964Y854472D01*
X1398932Y854431D01*
X1398892Y854397D01*
X1398435Y853809D01*
X1397975Y853232D01*
X1397951Y853186D01*
X1397920Y853145D01*
X1397590Y852482D01*
X1397251Y851822D01*
X1397236Y851772D01*
X1397213Y851726D01*
X1397020Y851010D01*
X1396818Y850297D01*
X1396814Y850245D01*
X1396801Y850195D01*
X1396694Y848889D01*
X1396694Y830063D01*
X1396730Y829699D01*
X1396727Y829332D01*
X1396808Y828912D01*
X1396851Y828486D01*
X1396958Y828136D01*
X1397028Y827776D01*
X1397190Y827380D01*
X1397316Y826970D01*
X1397490Y826648D01*
X1397629Y826309D01*
X1397867Y825953D01*
X1398071Y825576D01*
X1398305Y825295D01*
X1398508Y824990D01*
X1398811Y824688D01*
X1399086Y824359D01*
X1399371Y824129D01*
X1399630Y823870D01*
X1399987Y823633D01*
X1400321Y823365D01*
X1400646Y823196D01*
X1400951Y822993D01*
X1401347Y822832D01*
X1401728Y822634D01*
X1402080Y822533D01*
X1402419Y822394D01*
X1402840Y822314D01*
X1403251Y822195D01*
X1403616Y822165D01*
X1403976Y822096D01*
X1404405Y822100D01*
X1404831Y822065D01*
X1405194Y822108D01*
X1405561Y822111D01*
X1405981Y822200D01*
X1406406Y822250D01*
X1406754Y822363D01*
X1407113Y822439D01*
X1407601Y822640D01*
X1407913Y822741D01*
X1408084Y822837D01*
X1408325Y822936D01*
X1411338Y824472D01*
X1417326Y826417D01*
X1423544Y827402D01*
X1446693Y827402D01*
X1446693Y789402D01*
X1446700Y789333D01*
X1446695Y789264D01*
X1446779Y788546D01*
X1446851Y787825D01*
X1446871Y787758D01*
X1446879Y787689D01*
X1446980Y787381D01*
X1446824Y786843D01*
X1446819Y786773D01*
X1446801Y786706D01*
X1446693Y785401D01*
X1446693Y747401D01*
X1443580Y747401D01*
X1443546Y747397D01*
X1443511Y747401D01*
X1442751Y747318D01*
X1442002Y747244D01*
X1441969Y747234D01*
X1441935Y747230D01*
X1441211Y747001D01*
X1440487Y746779D01*
X1440456Y746762D01*
X1440423Y746752D01*
X1439764Y746387D01*
X1439093Y746024D01*
X1439066Y746001D01*
X1439036Y745985D01*
X1438463Y745499D01*
X1437875Y745009D01*
X1437853Y744982D01*
X1437827Y744959D01*
X1437362Y744371D01*
X1436881Y743774D01*
X1436865Y743742D01*
X1436844Y743716D01*
X1436502Y743044D01*
X1436150Y742367D01*
X1436141Y742333D01*
X1436125Y742302D01*
X1435921Y741572D01*
X1435712Y740843D01*
X1435709Y740809D01*
X1435699Y740775D01*
X1435644Y740017D01*
X1435582Y739263D01*
X1435586Y739229D01*
X1435583Y739194D01*
X1435679Y738438D01*
X1435766Y737689D01*
X1435777Y737656D01*
X1435781Y737621D01*
X1436021Y736906D01*
X1436257Y736182D01*
X1436274Y736151D01*
X1436285Y736118D01*
X1436663Y735462D01*
X1437036Y734801D01*
X1437059Y734774D01*
X1437076Y734744D01*
X1437923Y733745D01*
X1445924Y725745D01*
X1446004Y725679D01*
X1446072Y725600D01*
X1446617Y725177D01*
X1447150Y724741D01*
X1447242Y724692D01*
X1447324Y724628D01*
X1447941Y724321D01*
X1448551Y723998D01*
X1448650Y723968D01*
X1448744Y723922D01*
X1449408Y723743D01*
X1450070Y723546D01*
X1450174Y723536D01*
X1450274Y723509D01*
X1451580Y723402D01*
X1493854Y723402D01*
X1507086Y717922D01*
X1517213Y707794D01*
X1522694Y694563D01*
X1522694Y680241D01*
X1517213Y667009D01*
X1507086Y656882D01*
X1493854Y651401D01*
X1419532Y651401D01*
X1406300Y656882D01*
X1396173Y667009D01*
X1395571Y668463D01*
X1395530Y668539D01*
X1395503Y668622D01*
X1395156Y669236D01*
X1394822Y669860D01*
X1394767Y669927D01*
X1394724Y670002D01*
X1394263Y670537D01*
X1393812Y671082D01*
X1393745Y671137D01*
X1393688Y671203D01*
X1393131Y671635D01*
X1392581Y672081D01*
X1392504Y672122D01*
X1392436Y672175D01*
X1391804Y672489D01*
X1391178Y672818D01*
X1391095Y672842D01*
X1391017Y672881D01*
X1390334Y673065D01*
X1389656Y673264D01*
X1389570Y673271D01*
X1389486Y673294D01*
X1388180Y673401D01*
X1372153Y673401D01*
X1185606Y859949D01*
X1185606Y876849D01*
X1185595Y876952D01*
X1185603Y877056D01*
X1185517Y877739D01*
X1185448Y878426D01*
X1185418Y878526D01*
X1185405Y878629D01*
X1185186Y879281D01*
X1184983Y879942D01*
X1184934Y880034D01*
X1184901Y880132D01*
X1184557Y880728D01*
X1184228Y881336D01*
X1184162Y881416D01*
X1184110Y881506D01*
X1183263Y882505D01*
X1167606Y898162D01*
X1167606Y902016D01*
X1167599Y902085D01*
X1167604Y902154D01*
X1167520Y902872D01*
X1167448Y903593D01*
X1167428Y903660D01*
X1167420Y903729D01*
X1167196Y904415D01*
X1166983Y905109D01*
X1166950Y905170D01*
X1166929Y905236D01*
X1166575Y905864D01*
X1166228Y906503D01*
X1166184Y906556D01*
X1166150Y906617D01*
X1165677Y907165D01*
X1165214Y907721D01*
X1165160Y907764D01*
X1165114Y907817D01*
X1164541Y908262D01*
X1163978Y908714D01*
X1163917Y908746D01*
X1163862Y908789D01*
X1163212Y909112D01*
X1162571Y909445D01*
X1162505Y909464D01*
X1162443Y909495D01*
X1161742Y909684D01*
X1161048Y909884D01*
X1160979Y909890D01*
X1160912Y909908D01*
X1159606Y910015D01*
X1022961Y910015D01*
X1022874Y910006D01*
X1022788Y910013D01*
X1022086Y909928D01*
X1021383Y909858D01*
X1021300Y909832D01*
X1021214Y909822D01*
X1020545Y909601D01*
X1019867Y909393D01*
X1019791Y909351D01*
X1019709Y909324D01*
X1019096Y908975D01*
X1018473Y908638D01*
X1018407Y908582D01*
X1018331Y908539D01*
X1017798Y908075D01*
X1017256Y907623D01*
X1017201Y907556D01*
X1017136Y907498D01*
X1016703Y906936D01*
X1016262Y906388D01*
X1016222Y906311D01*
X1016169Y906242D01*
X1015570Y905077D01*
X1014499Y902490D01*
X1003809Y891800D01*
X1001222Y890729D01*
X1001146Y890688D01*
X1001063Y890661D01*
X1000449Y890314D01*
X999825Y889980D01*
X999758Y889925D01*
X999682Y889882D01*
X999147Y889420D01*
X998603Y888970D01*
X998548Y888903D01*
X998482Y888846D01*
X998048Y888288D01*
X997604Y887740D01*
X997563Y887662D01*
X997510Y887594D01*
X997195Y886961D01*
X996867Y886336D01*
X996843Y886253D01*
X996804Y886175D01*
X996620Y885492D01*
X996421Y884814D01*
X996414Y884728D01*
X996391Y884644D01*
X996284Y883338D01*
X996284Y838385D01*
X996294Y838281D01*
X996287Y838177D01*
X996373Y837494D01*
X996441Y836807D01*
X996472Y836708D01*
X996485Y836604D01*
X996703Y835952D01*
X996906Y835292D01*
X996956Y835200D01*
X996989Y835102D01*
X997332Y834505D01*
X997661Y833898D01*
X997728Y833818D01*
X997780Y833727D01*
X998627Y832728D01*
X999494Y831862D01*
X1006040Y816057D01*
X1006040Y798950D01*
X999494Y783146D01*
X987397Y771050D01*
X971593Y764503D01*
X954486Y764503D01*
X949067Y766748D01*
X948984Y766773D01*
X948906Y766812D01*
X948227Y767002D01*
X947549Y767206D01*
X947463Y767215D01*
X947379Y767238D01*
X946674Y767290D01*
X945971Y767357D01*
X945885Y767348D01*
X945798Y767354D01*
X945097Y767266D01*
X944394Y767193D01*
X944311Y767167D01*
X944225Y767156D01*
X943557Y766932D01*
X942881Y766721D01*
X942804Y766680D01*
X942722Y766652D01*
X942111Y766300D01*
X941490Y765960D01*
X941423Y765904D01*
X941348Y765861D01*
X940349Y765014D01*
X905579Y730243D01*
X584358Y730243D01*
X576157Y738445D01*
X576157Y783148D01*
X576146Y783252D01*
X576154Y783355D01*
X576068Y784039D01*
X576000Y784726D01*
X575969Y784825D01*
X575956Y784928D01*
X575737Y785580D01*
X575535Y786241D01*
X575485Y786333D01*
X575452Y786431D01*
X575109Y787028D01*
X574780Y787635D01*
X574713Y787715D01*
X574661Y787805D01*
X573814Y788804D01*
X558157Y804461D01*
X558157Y830971D01*
X576902Y849717D01*
X603412Y849717D01*
X622158Y830971D01*
X622158Y804461D01*
X606501Y788804D01*
X606435Y788724D01*
X606356Y788656D01*
X605933Y788111D01*
X605497Y787578D01*
X605448Y787486D01*
X605384Y787404D01*
X605077Y786787D01*
X604754Y786177D01*
X604724Y786078D01*
X604678Y785984D01*
X604499Y785320D01*
X604302Y784658D01*
X604292Y784554D01*
X604265Y784454D01*
X604158Y783148D01*
X604158Y766244D01*
X604165Y766175D01*
X604159Y766106D01*
X604243Y765388D01*
X604315Y764666D01*
X604336Y764600D01*
X604344Y764531D01*
X604567Y763845D01*
X604780Y763151D01*
X604813Y763089D01*
X604835Y763024D01*
X605189Y762396D01*
X605535Y761757D01*
X605580Y761703D01*
X605614Y761643D01*
X606087Y761095D01*
X606550Y760539D01*
X606604Y760496D01*
X606649Y760443D01*
X607223Y759998D01*
X607785Y759545D01*
X607847Y759513D01*
X607902Y759471D01*
X608552Y759147D01*
X609192Y758815D01*
X609258Y758796D01*
X609321Y758764D01*
X610022Y758576D01*
X610716Y758376D01*
X610785Y758370D01*
X610852Y758352D01*
X612157Y758245D01*
X676174Y758245D01*
X676209Y758248D01*
X676244Y758245D01*
X677002Y758327D01*
X677752Y758402D01*
X677785Y758412D01*
X677820Y758416D01*
X678541Y758644D01*
X679268Y758867D01*
X679298Y758884D01*
X679331Y758894D01*
X679993Y759260D01*
X680662Y759622D01*
X680688Y759644D01*
X680719Y759661D01*
X681296Y760150D01*
X681879Y760637D01*
X681901Y760664D01*
X681928Y760686D01*
X682399Y761282D01*
X682873Y761872D01*
X682889Y761902D01*
X682911Y761930D01*
X683256Y762610D01*
X683604Y763279D01*
X683613Y763312D01*
X683629Y763343D01*
X683832Y764072D01*
X684043Y764802D01*
X684046Y764837D01*
X684055Y764870D01*
X684110Y765621D01*
X684172Y766382D01*
X684168Y766417D01*
X684171Y766451D01*
X684078Y767193D01*
X683988Y767957D01*
X683977Y767990D01*
X683973Y768024D01*
X683732Y768742D01*
X683497Y769464D01*
X683480Y769494D01*
X683469Y769527D01*
X683088Y770188D01*
X682718Y770845D01*
X682696Y770871D01*
X682678Y770901D01*
X681831Y771900D01*
X670585Y783146D01*
X664039Y798950D01*
X664039Y816057D01*
X670585Y831862D01*
X682681Y843958D01*
X698486Y850505D01*
X715593Y850505D01*
X731397Y843958D01*
X743494Y831862D01*
X750040Y816057D01*
X750040Y798950D01*
X743493Y783146D01*
X732248Y771900D01*
X732226Y771874D01*
X732199Y771851D01*
X731722Y771258D01*
X731243Y770674D01*
X731227Y770643D01*
X731205Y770616D01*
X730858Y769947D01*
X730501Y769273D01*
X730491Y769240D01*
X730475Y769209D01*
X730265Y768481D01*
X730049Y767754D01*
X730046Y767719D01*
X730036Y767686D01*
X729974Y766933D01*
X729905Y766175D01*
X729909Y766140D01*
X729906Y766106D01*
X729994Y765358D01*
X730076Y764599D01*
X730086Y764566D01*
X730090Y764531D01*
X730326Y763808D01*
X730554Y763087D01*
X730571Y763057D01*
X730582Y763024D01*
X730956Y762361D01*
X731321Y761700D01*
X731343Y761673D01*
X731360Y761643D01*
X731857Y761068D01*
X732346Y760491D01*
X732374Y760469D01*
X732396Y760443D01*
X732995Y759978D01*
X733590Y759508D01*
X733621Y759492D01*
X733648Y759471D01*
X734330Y759132D01*
X735003Y758789D01*
X735036Y758780D01*
X735068Y758764D01*
X735804Y758566D01*
X736530Y758364D01*
X736565Y758361D01*
X736599Y758352D01*
X737904Y758245D01*
X890667Y758245D01*
X890770Y758255D01*
X890874Y758247D01*
X891557Y758333D01*
X892244Y758402D01*
X892344Y758432D01*
X892447Y758445D01*
X893099Y758664D01*
X893760Y758867D01*
X893852Y758917D01*
X893950Y758950D01*
X894546Y759293D01*
X895154Y759622D01*
X895234Y759688D01*
X895324Y759740D01*
X896323Y760588D01*
X920549Y784814D01*
X920604Y784881D01*
X920670Y784937D01*
X921105Y785493D01*
X921554Y786040D01*
X921594Y786117D01*
X921648Y786185D01*
X921965Y786816D01*
X922297Y787441D01*
X922321Y787524D01*
X922360Y787602D01*
X922547Y788283D01*
X922749Y788960D01*
X922756Y789047D01*
X922779Y789130D01*
X922828Y789833D01*
X922892Y790539D01*
X922883Y790626D01*
X922889Y790712D01*
X922798Y791410D01*
X922721Y792115D01*
X922695Y792198D01*
X922684Y792284D01*
X922283Y793531D01*
X920039Y798950D01*
X920039Y816057D01*
X926585Y831862D01*
X938681Y843958D01*
X954486Y850505D01*
X960283Y850505D01*
X960353Y850511D01*
X960422Y850506D01*
X961140Y850590D01*
X961861Y850662D01*
X961927Y850682D01*
X961996Y850690D01*
X962683Y850914D01*
X963377Y851127D01*
X963438Y851160D01*
X963504Y851181D01*
X964132Y851536D01*
X964771Y851882D01*
X964824Y851926D01*
X964884Y851960D01*
X965432Y852433D01*
X965988Y852897D01*
X966032Y852950D01*
X966085Y852996D01*
X966530Y853569D01*
X966982Y854132D01*
X967014Y854193D01*
X967057Y854248D01*
X967380Y854898D01*
X967713Y855539D01*
X967732Y855605D01*
X967763Y855667D01*
X967952Y856368D01*
X968152Y857062D01*
X968157Y857131D01*
X968175Y857198D01*
X968283Y858504D01*
X968283Y883338D01*
X968274Y883425D01*
X968281Y883511D01*
X968196Y884214D01*
X968126Y884916D01*
X968100Y884999D01*
X968090Y885085D01*
X967868Y885755D01*
X967661Y886432D01*
X967619Y886508D01*
X967592Y886590D01*
X967243Y887203D01*
X966906Y887826D01*
X966850Y887892D01*
X966807Y887968D01*
X966343Y888501D01*
X965891Y889043D01*
X965823Y889098D01*
X965766Y889163D01*
X965203Y889596D01*
X964656Y890037D01*
X964579Y890077D01*
X964510Y890130D01*
X963344Y890729D01*
X960758Y891800D01*
X950068Y902490D01*
X944283Y916457D01*
X944283Y931575D01*
X950068Y945541D01*
X960758Y956231D01*
X974725Y962016D01*
X989842Y962016D01*
X1003809Y956231D01*
X1014499Y945541D01*
X1015570Y942955D01*
X1015611Y942878D01*
X1015638Y942796D01*
X1015985Y942181D01*
X1016319Y941557D01*
X1016374Y941490D01*
X1016417Y941415D01*
X1016879Y940879D01*
X1017329Y940335D01*
X1017396Y940281D01*
X1017453Y940215D01*
X1018011Y939781D01*
X1018560Y939336D01*
X1018637Y939295D01*
X1018705Y939242D01*
X1019338Y938927D01*
X1019963Y938599D01*
X1020046Y938575D01*
X1020124Y938536D01*
X1020807Y938352D01*
X1021485Y938154D01*
X1021571Y938146D01*
X1021655Y938124D01*
X1022961Y938016D01*
X1177636Y938016D01*
X1177740Y938027D01*
X1177844Y938019D01*
X1178527Y938105D01*
X1179214Y938173D01*
X1179313Y938204D01*
X1179416Y938217D01*
X1180069Y938436D01*
X1180729Y938639D01*
X1180821Y938688D01*
X1180919Y938721D01*
X1181516Y939064D01*
X1182123Y939393D01*
X1182203Y939460D01*
X1182293Y939512D01*
X1183293Y940359D01*
X1186351Y943418D01*
X1212861Y943418D01*
X1231607Y924672D01*
X1231607Y898162D01*
X1215950Y882505D01*
X1215884Y882425D01*
X1215805Y882357D01*
X1215382Y881812D01*
X1214945Y881279D01*
X1214897Y881187D01*
X1214833Y881104D01*
X1214526Y880487D01*
X1214203Y879878D01*
X1214173Y879778D01*
X1214127Y879685D01*
X1213947Y879020D01*
X1213751Y878359D01*
X1213741Y878255D01*
X1213714Y878154D01*
X1213607Y876849D01*
X1213607Y874861D01*
X1213617Y874757D01*
X1213610Y874653D01*
X1213696Y873970D01*
X1213764Y873283D01*
X1213795Y873184D01*
X1213808Y873080D01*
X1214026Y872428D01*
X1214229Y871768D01*
X1214279Y871676D01*
X1214312Y871578D01*
X1214655Y870981D01*
X1214984Y870374D01*
X1215051Y870294D01*
X1215102Y870203D01*
X1215950Y869204D01*
X1381409Y703745D01*
X1381490Y703679D01*
X1381558Y703600D01*
X1382103Y703177D01*
X1382636Y702741D01*
X1382727Y702692D01*
X1382810Y702628D01*
X1383427Y702321D01*
X1384036Y701998D01*
X1384136Y701968D01*
X1384229Y701922D01*
X1384894Y701743D01*
X1385556Y701546D01*
X1385660Y701536D01*
X1385760Y701509D01*
X1387065Y701402D01*
X1388180Y701402D01*
X1388267Y701411D01*
X1388353Y701404D01*
X1389056Y701489D01*
X1389758Y701559D01*
X1389841Y701585D01*
X1389927Y701595D01*
X1390596Y701817D01*
X1391273Y702024D01*
X1391350Y702066D01*
X1391432Y702093D01*
X1392045Y702442D01*
X1392668Y702779D01*
X1392734Y702835D01*
X1392810Y702878D01*
X1393343Y703342D01*
X1393885Y703794D01*
X1393940Y703862D01*
X1394005Y703919D01*
X1394438Y704482D01*
X1394879Y705029D01*
X1394919Y705106D01*
X1394972Y705175D01*
X1395571Y706340D01*
X1396173Y707794D01*
X1404567Y716189D01*
X1404611Y716242D01*
X1404664Y716287D01*
X1405111Y716853D01*
X1405572Y717415D01*
X1405604Y717477D01*
X1405647Y717531D01*
X1405973Y718172D01*
X1406315Y718816D01*
X1406335Y718883D01*
X1406366Y718944D01*
X1406560Y719641D01*
X1406766Y720335D01*
X1406773Y720404D01*
X1406791Y720471D01*
X1406844Y721192D01*
X1406910Y721914D01*
X1406903Y721983D01*
X1406908Y722052D01*
X1406818Y722768D01*
X1406739Y723490D01*
X1406718Y723557D01*
X1406710Y723625D01*
X1406480Y724310D01*
X1406261Y725002D01*
X1406228Y725062D01*
X1406205Y725128D01*
X1405843Y725758D01*
X1405494Y726389D01*
X1405449Y726442D01*
X1405415Y726502D01*
X1404567Y727501D01*
X1368692Y763377D01*
X1368692Y949894D01*
X1376894Y958095D01*
X1566000Y958095D01*
X1566018Y958097D01*
X1566035Y958095D01*
X1566806Y958175D01*
X1567578Y958252D01*
X1567594Y958257D01*
X1567612Y958259D01*
X1568353Y958490D01*
X1569093Y958717D01*
X1569109Y958726D01*
X1569125Y958731D01*
X1569798Y959099D01*
X1570487Y959472D01*
X1570501Y959484D01*
X1570516Y959492D01*
X1571108Y959989D01*
X1571705Y960487D01*
X1571716Y960501D01*
X1571730Y960512D01*
X1572216Y961122D01*
X1572699Y961722D01*
X1572707Y961738D01*
X1572718Y961751D01*
X1573070Y962437D01*
X1573430Y963129D01*
X1573435Y963146D01*
X1573442Y963162D01*
X1573655Y963913D01*
X1573868Y964653D01*
X1573870Y964670D01*
X1573875Y964687D01*
X1573936Y965476D01*
X1573998Y966233D01*
X1573996Y966250D01*
X1573998Y966267D01*
X1573903Y967045D01*
X1573814Y967807D01*
X1573809Y967824D01*
X1573806Y967841D01*
X1573565Y968570D01*
X1573323Y969314D01*
X1573314Y969330D01*
X1573309Y969346D01*
X1572927Y970016D01*
X1572544Y970695D01*
X1572533Y970708D01*
X1572524Y970724D01*
X1572019Y971304D01*
X1571508Y971895D01*
X1571494Y971906D01*
X1571483Y971919D01*
X1570879Y972384D01*
X1570256Y972868D01*
X1570240Y972875D01*
X1570226Y972886D01*
X1569061Y973485D01*
X1567324Y974204D01*
X1557196Y984332D01*
X1556594Y985785D01*
X1556553Y985862D01*
X1556526Y985945D01*
X1556180Y986559D01*
X1555846Y987183D01*
X1555790Y987250D01*
X1555748Y987325D01*
X1555287Y987859D01*
X1554836Y988405D01*
X1554769Y988460D01*
X1554712Y988525D01*
X1554154Y988958D01*
X1553605Y989404D01*
X1553528Y989445D01*
X1553460Y989498D01*
X1552828Y989812D01*
X1552201Y990141D01*
X1552118Y990165D01*
X1552040Y990204D01*
X1551358Y990388D01*
X1550680Y990586D01*
X1550593Y990594D01*
X1550510Y990616D01*
X1549204Y990724D01*
X1002801Y990724D01*
X1002680Y990712D01*
X1002559Y990720D01*
X1001893Y990633D01*
X1001223Y990567D01*
X1001107Y990531D01*
X1000987Y990515D01*
X999740Y990115D01*
X989842Y986015D01*
X974725Y986015D01*
X960758Y991800D01*
X950068Y1002490D01*
X944283Y1016457D01*
X944283Y1031575D01*
X950068Y1045541D01*
X960758Y1056231D01*
X974725Y1062016D01*
X989842Y1062016D01*
X1003809Y1056231D01*
X1014499Y1045541D01*
X1020284Y1031575D01*
X1020284Y1026724D01*
X1020291Y1026655D01*
X1020285Y1026586D01*
X1020369Y1025868D01*
X1020441Y1025147D01*
X1020461Y1025080D01*
X1020470Y1025011D01*
X1020693Y1024325D01*
X1020906Y1023631D01*
X1020939Y1023570D01*
X1020961Y1023504D01*
X1021315Y1022876D01*
X1021661Y1022237D01*
X1021706Y1022184D01*
X1021740Y1022123D01*
X1022213Y1021575D01*
X1022676Y1021019D01*
X1022730Y1020976D01*
X1022775Y1020923D01*
X1023349Y1020478D01*
X1023911Y1020026D01*
X1023973Y1019994D01*
X1024028Y1019951D01*
X1024678Y1019628D01*
X1025318Y1019295D01*
X1025384Y1019276D01*
X1025447Y1019245D01*
X1026148Y1019056D01*
X1026842Y1018856D01*
X1026911Y1018850D01*
X1026978Y1018832D01*
X1028283Y1018725D01*
X1549204Y1018725D01*
X1549290Y1018734D01*
X1549377Y1018727D01*
X1550079Y1018812D01*
X1550781Y1018882D01*
X1550864Y1018908D01*
X1550951Y1018918D01*
X1551620Y1019140D01*
X1552297Y1019347D01*
X1552374Y1019389D01*
X1552456Y1019416D01*
X1553068Y1019765D01*
X1553691Y1020102D01*
X1553758Y1020158D01*
X1553833Y1020201D01*
X1554367Y1020665D01*
X1554909Y1021117D01*
X1554963Y1021184D01*
X1555029Y1021242D01*
X1555462Y1021804D01*
X1555903Y1022352D01*
X1555943Y1022429D01*
X1555996Y1022498D01*
X1556594Y1023663D01*
X1557196Y1025117D01*
X1567324Y1035244D01*
X1580555Y1040725D01*
X1654877Y1040725D01*
X1668109Y1035244D01*
X1678236Y1025117D01*
X1683717Y1011885D01*
X1683717Y997563D01*
X1678236Y984332D01*
X1668109Y974204D01*
X1654877Y968724D01*
X1592829Y968724D01*
X1592795Y968720D01*
X1592760Y968723D01*
X1592001Y968641D01*
X1591251Y968567D01*
X1591218Y968556D01*
X1591184Y968553D01*
X1590462Y968324D01*
X1589736Y968102D01*
X1589705Y968085D01*
X1589672Y968074D01*
X1589010Y967709D01*
X1588342Y967347D01*
X1588315Y967324D01*
X1588285Y967308D01*
X1587708Y966818D01*
X1587124Y966332D01*
X1587102Y966304D01*
X1587076Y966282D01*
X1586605Y965686D01*
X1586130Y965096D01*
X1586114Y965066D01*
X1586093Y965038D01*
X1585747Y964358D01*
X1585400Y963690D01*
X1585390Y963656D01*
X1585374Y963625D01*
X1585171Y962896D01*
X1584961Y962166D01*
X1584958Y962132D01*
X1584949Y962098D01*
X1584893Y961341D01*
X1584831Y960586D01*
X1584835Y960552D01*
X1584832Y960517D01*
X1584927Y959766D01*
X1585015Y959012D01*
X1585026Y958978D01*
X1585030Y958944D01*
X1585271Y958226D01*
X1585507Y957504D01*
X1585523Y957474D01*
X1585535Y957441D01*
X1585915Y956780D01*
X1586285Y956124D01*
X1586308Y956097D01*
X1586325Y956067D01*
X1587173Y955068D01*
X1599173Y943068D01*
X1599253Y943002D01*
X1599321Y942923D01*
X1599866Y942500D01*
X1600399Y942063D01*
X1600492Y942015D01*
X1600574Y941951D01*
X1601190Y941644D01*
X1601800Y941321D01*
X1601899Y941291D01*
X1601993Y941245D01*
X1602658Y941065D01*
X1603320Y940869D01*
X1603423Y940859D01*
X1603524Y940832D01*
X1604829Y940725D01*
X1654877Y940725D01*
X1668109Y935244D01*
X1678236Y925117D01*
X1683717Y911885D01*
X1683717Y897563D01*
X1678236Y884332D01*
X1668109Y874204D01*
X1654877Y868724D01*
X1580555Y868724D01*
X1567324Y874204D01*
X1557196Y884332D01*
X1551716Y897563D01*
X1551716Y911885D01*
X1554677Y919033D01*
X1554692Y919083D01*
X1554716Y919129D01*
X1554920Y919838D01*
X1555135Y920551D01*
X1555140Y920603D01*
X1555155Y920653D01*
X1555215Y921389D01*
X1555285Y922129D01*
X1555280Y922181D01*
X1555284Y922233D01*
X1555198Y922970D01*
X1555122Y923706D01*
X1555106Y923755D01*
X1555100Y923807D01*
X1554871Y924510D01*
X1554650Y925219D01*
X1554625Y925265D01*
X1554609Y925315D01*
X1554245Y925960D01*
X1553889Y926610D01*
X1553856Y926650D01*
X1553830Y926695D01*
X1553342Y927261D01*
X1552869Y927824D01*
X1552828Y927856D01*
X1552794Y927896D01*
X1552206Y928352D01*
X1551629Y928812D01*
X1551583Y928836D01*
X1551542Y928868D01*
X1550879Y929198D01*
X1550219Y929537D01*
X1550169Y929551D01*
X1550123Y929574D01*
X1549407Y929767D01*
X1548694Y929969D01*
X1548642Y929973D01*
X1548592Y929986D01*
X1547286Y930094D01*
X1514225Y930094D01*
X1514191Y930090D01*
X1514156Y930094D01*
X1513397Y930011D01*
X1512648Y929937D01*
X1512615Y929927D01*
X1512580Y929923D01*
X1511858Y929694D01*
X1511132Y929472D01*
X1511101Y929455D01*
X1511068Y929445D01*
X1510406Y929079D01*
X1509738Y928717D01*
X1509711Y928695D01*
X1509681Y928678D01*
X1509100Y928185D01*
X1508520Y927702D01*
X1508499Y927675D01*
X1508472Y927652D01*
X1507997Y927052D01*
X1507526Y926467D01*
X1507511Y926436D01*
X1507489Y926408D01*
X1507139Y925720D01*
X1506796Y925060D01*
X1506786Y925026D01*
X1506770Y924995D01*
X1506567Y924266D01*
X1506357Y923536D01*
X1506354Y923502D01*
X1506345Y923468D01*
X1506289Y922711D01*
X1506227Y921956D01*
X1506231Y921922D01*
X1506229Y921887D01*
X1506323Y921135D01*
X1506411Y920382D01*
X1506422Y920348D01*
X1506427Y920314D01*
X1506668Y919594D01*
X1506903Y918874D01*
X1506920Y918844D01*
X1506931Y918811D01*
X1507313Y918147D01*
X1507681Y917494D01*
X1507704Y917468D01*
X1507721Y917437D01*
X1508569Y916438D01*
X1517213Y907794D01*
X1522694Y894563D01*
X1522694Y880241D01*
X1517213Y867009D01*
X1508818Y858614D01*
X1508774Y858561D01*
X1508721Y858516D01*
X1508275Y857950D01*
X1507814Y857388D01*
X1507781Y857326D01*
X1507738Y857272D01*
X1507413Y856631D01*
X1507071Y855987D01*
X1507051Y855920D01*
X1507020Y855859D01*
X1506826Y855162D01*
X1506619Y854468D01*
X1506613Y854399D01*
X1506594Y854332D01*
X1506541Y853611D01*
X1506476Y852889D01*
X1506483Y852820D01*
X1506478Y852751D01*
X1506568Y852035D01*
X1506646Y851313D01*
X1506667Y851246D01*
X1506676Y851178D01*
X1506906Y850491D01*
X1507125Y849801D01*
X1507158Y849741D01*
X1507180Y849675D01*
X1507542Y849046D01*
X1507891Y848414D01*
X1507936Y848361D01*
X1507971Y848301D01*
X1508818Y847302D01*
X1537931Y818189D01*
X1537973Y818155D01*
X1537997Y818127D01*
X1538187Y817980D01*
X1538343Y817852D01*
X1538731Y817489D01*
X1538954Y817351D01*
X1539158Y817185D01*
X1539627Y816936D01*
X1540080Y816656D01*
X1540326Y816565D01*
X1540558Y816442D01*
X1541069Y816290D01*
X1541566Y816106D01*
X1541825Y816065D01*
X1542078Y815990D01*
X1542608Y815942D01*
X1543132Y815859D01*
X1543395Y815870D01*
X1543657Y815846D01*
X1544185Y815903D01*
X1544716Y815926D01*
X1544972Y815989D01*
X1545233Y816017D01*
X1545740Y816177D01*
X1546256Y816304D01*
X1546493Y816416D01*
X1546744Y816495D01*
X1547209Y816752D01*
X1547690Y816978D01*
X1547902Y817135D01*
X1548132Y817262D01*
X1548537Y817605D01*
X1548964Y817922D01*
X1549141Y818118D01*
X1549341Y818288D01*
X1549670Y818704D01*
X1550027Y819099D01*
X1550186Y819356D01*
X1550324Y819531D01*
X1550465Y819808D01*
X1550715Y820214D01*
X1553505Y825689D01*
X1557206Y830783D01*
X1561658Y835235D01*
X1566752Y838936D01*
X1572361Y841794D01*
X1578350Y843740D01*
X1584568Y844725D01*
X1607717Y844725D01*
X1607717Y806725D01*
X1607724Y806656D01*
X1607718Y806587D01*
X1607802Y805869D01*
X1607874Y805148D01*
X1607894Y805081D01*
X1607903Y805012D01*
X1608003Y804704D01*
X1607848Y804165D01*
X1607842Y804096D01*
X1607824Y804029D01*
X1607717Y802724D01*
X1607717Y764724D01*
X1596829Y764724D01*
X1596795Y764720D01*
X1596760Y764723D01*
X1596001Y764641D01*
X1595251Y764567D01*
X1595219Y764556D01*
X1595184Y764553D01*
X1594460Y764324D01*
X1593736Y764102D01*
X1593705Y764085D01*
X1593672Y764074D01*
X1593010Y763708D01*
X1592342Y763347D01*
X1592315Y763324D01*
X1592285Y763308D01*
X1591705Y762816D01*
X1591124Y762332D01*
X1591102Y762305D01*
X1591076Y762282D01*
X1590601Y761682D01*
X1590130Y761096D01*
X1590114Y761066D01*
X1590093Y761038D01*
X1589747Y760359D01*
X1589400Y759690D01*
X1589390Y759656D01*
X1589374Y759625D01*
X1589170Y758894D01*
X1588961Y758166D01*
X1588958Y758132D01*
X1588949Y758098D01*
X1588893Y757341D01*
X1588831Y756586D01*
X1588835Y756552D01*
X1588832Y756517D01*
X1588927Y755764D01*
X1589015Y755012D01*
X1589026Y754978D01*
X1589030Y754944D01*
X1589274Y754218D01*
X1589506Y753504D01*
X1589524Y753474D01*
X1589535Y753441D01*
X1589914Y752782D01*
X1590285Y752124D01*
X1590308Y752097D01*
X1590325Y752067D01*
X1591173Y751068D01*
X1599173Y743068D01*
X1599253Y743002D01*
X1599321Y742923D01*
X1599866Y742500D01*
X1600399Y742063D01*
X1600492Y742015D01*
X1600574Y741951D01*
X1601190Y741644D01*
X1601800Y741321D01*
X1601899Y741291D01*
X1601993Y741245D01*
X1602659Y741065D01*
X1603320Y740869D01*
X1603423Y740859D01*
X1603524Y740832D01*
X1604829Y740725D01*
X1653864Y740725D01*
X1653967Y740735D01*
X1654071Y740728D01*
X1654754Y740814D01*
X1655441Y740882D01*
X1655541Y740913D01*
X1655644Y740926D01*
X1656296Y741144D01*
X1656957Y741347D01*
X1657048Y741397D01*
X1657147Y741430D01*
X1657743Y741773D01*
X1658351Y742102D01*
X1658431Y742169D01*
X1658521Y742221D01*
X1659520Y743068D01*
X1670670Y754218D01*
X1670985Y754603D01*
X1671328Y754963D01*
X1671486Y755215D01*
X1671674Y755445D01*
X1671907Y755884D01*
X1672172Y756305D01*
X1672278Y756582D01*
X1672417Y756845D01*
X1672559Y757323D01*
X1672736Y757787D01*
X1672784Y758079D01*
X1672869Y758365D01*
X1672914Y758861D01*
X1672996Y759350D01*
X1672986Y759647D01*
X1673013Y759944D01*
X1672959Y760439D01*
X1672942Y760935D01*
X1672874Y761224D01*
X1672842Y761520D01*
X1672692Y761994D01*
X1672578Y762477D01*
X1672453Y762748D01*
X1672364Y763031D01*
X1672124Y763466D01*
X1671916Y763918D01*
X1671741Y764159D01*
X1671597Y764419D01*
X1671276Y764797D01*
X1670983Y765200D01*
X1670764Y765401D01*
X1670571Y765628D01*
X1670182Y765935D01*
X1669815Y766272D01*
X1669560Y766427D01*
X1669328Y766611D01*
X1668885Y766836D01*
X1668459Y767094D01*
X1668180Y767195D01*
X1667915Y767329D01*
X1667436Y767463D01*
X1666968Y767631D01*
X1666674Y767675D01*
X1666388Y767755D01*
X1665892Y767791D01*
X1665400Y767864D01*
X1665103Y767849D01*
X1664806Y767871D01*
X1664314Y767809D01*
X1663817Y767784D01*
X1663480Y767704D01*
X1663234Y767673D01*
X1662958Y767581D01*
X1662542Y767482D01*
X1657083Y765709D01*
X1650865Y764724D01*
X1627716Y764724D01*
X1627716Y794725D01*
X1686527Y794725D01*
X1684959Y789899D01*
X1684853Y789414D01*
X1684711Y788937D01*
X1684684Y788641D01*
X1684620Y788350D01*
X1684612Y787853D01*
X1684567Y787358D01*
X1684599Y787062D01*
X1684594Y786765D01*
X1684684Y786276D01*
X1684738Y785782D01*
X1684828Y785498D01*
X1684882Y785206D01*
X1685066Y784745D01*
X1685216Y784270D01*
X1685360Y784010D01*
X1685471Y783734D01*
X1685743Y783318D01*
X1685983Y782883D01*
X1686175Y782656D01*
X1686338Y782407D01*
X1686687Y782053D01*
X1687009Y781674D01*
X1687241Y781490D01*
X1687450Y781278D01*
X1687863Y780998D01*
X1688252Y780691D01*
X1688517Y780556D01*
X1688764Y780389D01*
X1689223Y780197D01*
X1689665Y779972D01*
X1689952Y779893D01*
X1690226Y779778D01*
X1690714Y779680D01*
X1691193Y779547D01*
X1691489Y779525D01*
X1691781Y779466D01*
X1692278Y779467D01*
X1692774Y779430D01*
X1693069Y779468D01*
X1693366Y779468D01*
X1693853Y779566D01*
X1694347Y779628D01*
X1694628Y779723D01*
X1694920Y779782D01*
X1695378Y779975D01*
X1695850Y780133D01*
X1696107Y780281D01*
X1696381Y780396D01*
X1696793Y780676D01*
X1697224Y780923D01*
X1697486Y781146D01*
X1697693Y781287D01*
X1697897Y781495D01*
X1698223Y781771D01*
X1707310Y790858D01*
X1707376Y790938D01*
X1707455Y791006D01*
X1707878Y791552D01*
X1708314Y792085D01*
X1708363Y792176D01*
X1708427Y792259D01*
X1708734Y792876D01*
X1709057Y793485D01*
X1709087Y793585D01*
X1709133Y793678D01*
X1709312Y794343D01*
X1709509Y795005D01*
X1709519Y795109D01*
X1709546Y795209D01*
X1709653Y796514D01*
X1709653Y1482724D01*
X1709646Y1482794D01*
X1709652Y1482863D01*
X1709568Y1483577D01*
X1709496Y1484302D01*
X1709475Y1484368D01*
X1709467Y1484437D01*
X1709243Y1485124D01*
X1709031Y1485818D01*
X1708997Y1485879D01*
X1708976Y1485945D01*
X1708622Y1486573D01*
X1708276Y1487212D01*
X1708231Y1487265D01*
X1708197Y1487325D01*
X1707724Y1487873D01*
X1707261Y1488429D01*
X1707207Y1488473D01*
X1707161Y1488525D01*
X1706588Y1488971D01*
X1706026Y1489423D01*
X1705964Y1489455D01*
X1705909Y1489498D01*
X1705259Y1489821D01*
X1704619Y1490154D01*
X1704552Y1490173D01*
X1704490Y1490204D01*
X1703789Y1490393D01*
X1703095Y1490593D01*
X1703026Y1490598D01*
X1702959Y1490616D01*
X1701654Y1490724D01*
X1686229Y1490724D01*
X1686143Y1490715D01*
X1686056Y1490722D01*
X1685353Y1490636D01*
X1684651Y1490567D01*
X1684569Y1490541D01*
X1684482Y1490531D01*
X1683813Y1490309D01*
X1683136Y1490102D01*
X1683059Y1490060D01*
X1682977Y1490033D01*
X1682365Y1489684D01*
X1681742Y1489347D01*
X1681675Y1489291D01*
X1681600Y1489248D01*
X1681066Y1488783D01*
X1680524Y1488332D01*
X1680470Y1488264D01*
X1680404Y1488207D01*
X1679971Y1487644D01*
X1679530Y1487096D01*
X1679490Y1487020D01*
X1679437Y1486951D01*
X1678839Y1485785D01*
X1678236Y1484332D01*
X1668109Y1474204D01*
X1654877Y1468724D01*
X1592829Y1468724D01*
X1592795Y1468720D01*
X1592760Y1468723D01*
X1592002Y1468641D01*
X1591251Y1468567D01*
X1591218Y1468556D01*
X1591184Y1468553D01*
X1590464Y1468325D01*
X1589736Y1468102D01*
X1589705Y1468085D01*
X1589672Y1468074D01*
X1589013Y1467710D01*
X1588342Y1467347D01*
X1588315Y1467324D01*
X1588285Y1467308D01*
X1587711Y1466821D01*
X1587124Y1466332D01*
X1587102Y1466304D01*
X1587076Y1466282D01*
X1586608Y1465690D01*
X1586130Y1465096D01*
X1586114Y1465066D01*
X1586093Y1465038D01*
X1585750Y1464364D01*
X1585400Y1463690D01*
X1585390Y1463656D01*
X1585374Y1463625D01*
X1585171Y1462895D01*
X1584961Y1462166D01*
X1584958Y1462132D01*
X1584949Y1462098D01*
X1584892Y1461334D01*
X1584831Y1460586D01*
X1584835Y1460552D01*
X1584832Y1460517D01*
X1584927Y1459766D01*
X1585015Y1459012D01*
X1585026Y1458978D01*
X1585030Y1458944D01*
X1585271Y1458226D01*
X1585507Y1457504D01*
X1585523Y1457474D01*
X1585535Y1457441D01*
X1585914Y1456783D01*
X1586285Y1456124D01*
X1586308Y1456097D01*
X1586325Y1456067D01*
X1587173Y1455068D01*
X1599173Y1443068D01*
X1599253Y1443002D01*
X1599321Y1442923D01*
X1599866Y1442500D01*
X1600399Y1442064D01*
X1600491Y1442015D01*
X1600573Y1441951D01*
X1601191Y1441644D01*
X1601800Y1441321D01*
X1601900Y1441291D01*
X1601993Y1441245D01*
X1602657Y1441066D01*
X1603319Y1440869D01*
X1603423Y1440859D01*
X1603523Y1440832D01*
X1604829Y1440725D01*
X1654877Y1440725D01*
X1668109Y1435244D01*
X1678236Y1425117D01*
X1683717Y1411885D01*
X1683717Y1397563D01*
X1678236Y1384332D01*
X1668109Y1374204D01*
X1654877Y1368724D01*
X1580555Y1368724D01*
X1567324Y1374204D01*
X1557196Y1384332D01*
X1551716Y1397563D01*
X1551716Y1411885D01*
X1557197Y1425117D01*
X1561116Y1429037D01*
X1561138Y1429063D01*
X1561165Y1429086D01*
X1561638Y1429674D01*
X1562120Y1430263D01*
X1562137Y1430294D01*
X1562158Y1430321D01*
X1562508Y1430993D01*
X1562863Y1431664D01*
X1562873Y1431697D01*
X1562889Y1431728D01*
X1563100Y1432460D01*
X1563315Y1433183D01*
X1563318Y1433218D01*
X1563328Y1433251D01*
X1563390Y1434003D01*
X1563459Y1434762D01*
X1563455Y1434797D01*
X1563458Y1434831D01*
X1563370Y1435579D01*
X1563288Y1436338D01*
X1563278Y1436371D01*
X1563273Y1436406D01*
X1563040Y1437122D01*
X1562810Y1437850D01*
X1562793Y1437880D01*
X1562782Y1437913D01*
X1562414Y1438565D01*
X1562043Y1439237D01*
X1562020Y1439264D01*
X1562003Y1439294D01*
X1561511Y1439864D01*
X1561018Y1440446D01*
X1560990Y1440468D01*
X1560968Y1440494D01*
X1560369Y1440959D01*
X1559774Y1441429D01*
X1559743Y1441445D01*
X1559715Y1441466D01*
X1559037Y1441804D01*
X1558361Y1442148D01*
X1558327Y1442157D01*
X1558296Y1442172D01*
X1557564Y1442370D01*
X1556834Y1442573D01*
X1556799Y1442576D01*
X1556765Y1442585D01*
X1555460Y1442692D01*
X1072105Y1442692D01*
X1072001Y1442682D01*
X1071898Y1442689D01*
X1071214Y1442603D01*
X1070527Y1442535D01*
X1070428Y1442504D01*
X1070325Y1442492D01*
X1069672Y1442273D01*
X1069012Y1442070D01*
X1068920Y1442020D01*
X1068822Y1441987D01*
X1068224Y1441644D01*
X1067618Y1441315D01*
X1067538Y1441248D01*
X1067448Y1441197D01*
X1066448Y1440349D01*
X1036114Y1410015D01*
X1022961Y1410015D01*
X1022874Y1410006D01*
X1022788Y1410013D01*
X1022086Y1409928D01*
X1021383Y1409858D01*
X1021300Y1409832D01*
X1021214Y1409822D01*
X1020545Y1409601D01*
X1019867Y1409393D01*
X1019791Y1409351D01*
X1019709Y1409324D01*
X1019096Y1408975D01*
X1018473Y1408638D01*
X1018407Y1408582D01*
X1018331Y1408539D01*
X1017798Y1408075D01*
X1017256Y1407623D01*
X1017201Y1407556D01*
X1017136Y1407498D01*
X1016703Y1406936D01*
X1016262Y1406388D01*
X1016222Y1406311D01*
X1016169Y1406242D01*
X1015570Y1405077D01*
X1014499Y1402490D01*
X1003809Y1391800D01*
X989842Y1386015D01*
X974725Y1386015D01*
X960758Y1391800D01*
X950068Y1402490D01*
X944283Y1416457D01*
X944283Y1431575D01*
X950068Y1445541D01*
X960758Y1456231D01*
X974725Y1462016D01*
X989842Y1462016D01*
X1003809Y1456231D01*
X1014499Y1445541D01*
X1015055Y1444198D01*
X1015080Y1444152D01*
X1015096Y1444102D01*
X1015455Y1443453D01*
X1015804Y1442801D01*
X1015837Y1442761D01*
X1015862Y1442715D01*
X1016340Y1442152D01*
X1016814Y1441578D01*
X1016854Y1441545D01*
X1016888Y1441506D01*
X1017466Y1441048D01*
X1018045Y1440579D01*
X1018091Y1440555D01*
X1018132Y1440523D01*
X1018791Y1440187D01*
X1019448Y1439843D01*
X1019499Y1439828D01*
X1019545Y1439804D01*
X1020256Y1439606D01*
X1020970Y1439397D01*
X1021022Y1439392D01*
X1021072Y1439379D01*
X1021807Y1439325D01*
X1022549Y1439260D01*
X1022601Y1439266D01*
X1022653Y1439262D01*
X1023383Y1439354D01*
X1024125Y1439438D01*
X1024174Y1439454D01*
X1024226Y1439460D01*
X1024924Y1439695D01*
X1025634Y1439922D01*
X1025680Y1439948D01*
X1025729Y1439965D01*
X1026370Y1440334D01*
X1027018Y1440695D01*
X1027058Y1440729D01*
X1027103Y1440755D01*
X1028102Y1441603D01*
X1046648Y1460149D01*
X1057193Y1470694D01*
X1551523Y1470694D01*
X1551557Y1470697D01*
X1551592Y1470694D01*
X1552349Y1470776D01*
X1553100Y1470851D01*
X1553134Y1470861D01*
X1553168Y1470865D01*
X1553889Y1471093D01*
X1554616Y1471316D01*
X1554647Y1471332D01*
X1554680Y1471343D01*
X1555341Y1471708D01*
X1556010Y1472071D01*
X1556037Y1472093D01*
X1556067Y1472110D01*
X1556645Y1472600D01*
X1557228Y1473086D01*
X1557250Y1473113D01*
X1557276Y1473135D01*
X1557748Y1473732D01*
X1558221Y1474321D01*
X1558238Y1474352D01*
X1558259Y1474379D01*
X1558601Y1475051D01*
X1558952Y1475728D01*
X1558962Y1475761D01*
X1558978Y1475792D01*
X1559180Y1476517D01*
X1559391Y1477251D01*
X1559394Y1477286D01*
X1559403Y1477320D01*
X1559459Y1478079D01*
X1559521Y1478831D01*
X1559517Y1478866D01*
X1559519Y1478901D01*
X1559424Y1479657D01*
X1559336Y1480406D01*
X1559326Y1480439D01*
X1559321Y1480473D01*
X1559078Y1481198D01*
X1558845Y1481913D01*
X1558828Y1481943D01*
X1558817Y1481976D01*
X1558437Y1482637D01*
X1558066Y1483294D01*
X1558044Y1483320D01*
X1558026Y1483350D01*
X1557199Y1484325D01*
X1551716Y1497563D01*
X1551716Y1502016D01*
X1551709Y1502085D01*
X1551715Y1502154D01*
X1551631Y1502872D01*
X1551559Y1503593D01*
X1551538Y1503660D01*
X1551530Y1503729D01*
X1551306Y1504415D01*
X1551094Y1505109D01*
X1551060Y1505170D01*
X1551039Y1505236D01*
X1550685Y1505864D01*
X1550339Y1506503D01*
X1550294Y1506556D01*
X1550260Y1506617D01*
X1549787Y1507165D01*
X1549324Y1507721D01*
X1549270Y1507764D01*
X1549224Y1507817D01*
X1548651Y1508262D01*
X1548089Y1508714D01*
X1548027Y1508746D01*
X1547972Y1508789D01*
X1547322Y1509112D01*
X1546682Y1509445D01*
X1546615Y1509464D01*
X1546553Y1509495D01*
X1545852Y1509684D01*
X1545158Y1509884D01*
X1545089Y1509890D01*
X1545022Y1509908D01*
X1543717Y1510015D01*
X1022961Y1510015D01*
X1022874Y1510006D01*
X1022788Y1510013D01*
X1022086Y1509928D01*
X1021383Y1509858D01*
X1021300Y1509832D01*
X1021214Y1509822D01*
X1020545Y1509601D01*
X1019867Y1509393D01*
X1019791Y1509351D01*
X1019709Y1509324D01*
X1019096Y1508975D01*
X1018473Y1508638D01*
X1018407Y1508582D01*
X1018331Y1508539D01*
X1017798Y1508075D01*
X1017256Y1507623D01*
X1017201Y1507556D01*
X1017136Y1507498D01*
X1016703Y1506936D01*
X1016262Y1506388D01*
X1016222Y1506311D01*
X1016169Y1506242D01*
X1015570Y1505077D01*
X1014499Y1502490D01*
X1003809Y1491800D01*
X989842Y1486015D01*
X974725Y1486015D01*
X960758Y1491800D01*
X950068Y1502490D01*
X946224Y1511770D01*
X946183Y1511846D01*
X946156Y1511929D01*
X945810Y1512544D01*
X945475Y1513167D01*
X945420Y1513234D01*
X945377Y1513310D01*
X944916Y1513844D01*
X944466Y1514389D01*
X944398Y1514444D01*
X944342Y1514510D01*
X943783Y1514944D01*
X943235Y1515388D01*
X943158Y1515429D01*
X943089Y1515482D01*
X942456Y1515797D01*
X941831Y1516125D01*
X941748Y1516150D01*
X941670Y1516188D01*
X940988Y1516372D01*
X940310Y1516571D01*
X940223Y1516578D01*
X940139Y1516601D01*
X938834Y1516708D01*
X904437Y1516708D01*
X813473Y1607672D01*
X813392Y1607738D01*
X813324Y1607817D01*
X812779Y1608240D01*
X812246Y1608676D01*
X812154Y1608725D01*
X812072Y1608789D01*
X811455Y1609096D01*
X810846Y1609419D01*
X810746Y1609449D01*
X810653Y1609495D01*
X809988Y1609674D01*
X809326Y1609871D01*
X809222Y1609881D01*
X809122Y1609908D01*
X807816Y1610015D01*
X722961Y1610015D01*
X722874Y1610006D01*
X722788Y1610013D01*
X722086Y1609928D01*
X721383Y1609858D01*
X721300Y1609832D01*
X721214Y1609822D01*
X720545Y1609601D01*
X719867Y1609393D01*
X719791Y1609351D01*
X719709Y1609324D01*
X719096Y1608975D01*
X718473Y1608638D01*
X718407Y1608582D01*
X718331Y1608539D01*
X717798Y1608075D01*
X717256Y1607623D01*
X717201Y1607556D01*
X717136Y1607498D01*
X716703Y1606936D01*
X716262Y1606388D01*
X716222Y1606311D01*
X716169Y1606242D01*
X715570Y1605077D01*
X714499Y1602490D01*
X703809Y1591800D01*
X689842Y1586015D01*
X674725Y1586015D01*
X660758Y1591800D01*
X650068Y1602490D01*
X644283Y1616457D01*
X644283Y1631575D01*
X650068Y1645541D01*
X660758Y1656231D01*
X663344Y1657303D01*
X663421Y1657344D01*
X663504Y1657370D01*
X664118Y1657717D01*
X664742Y1658051D01*
X664809Y1658107D01*
X664884Y1658149D01*
X665420Y1658612D01*
X665964Y1659061D01*
X666018Y1659128D01*
X666085Y1659185D01*
X666518Y1659744D01*
X666963Y1660292D01*
X667004Y1660369D01*
X667057Y1660437D01*
X667372Y1661070D01*
X667700Y1661696D01*
X667724Y1661778D01*
X667763Y1661857D01*
X667947Y1662540D01*
X668145Y1663217D01*
X668153Y1663304D01*
X668175Y1663387D01*
X668283Y1664693D01*
X668283Y1683338D01*
X668274Y1683425D01*
X668281Y1683511D01*
X668196Y1684214D01*
X668126Y1684916D01*
X668100Y1684999D01*
X668090Y1685085D01*
X667868Y1685755D01*
X667661Y1686432D01*
X667619Y1686508D01*
X667592Y1686590D01*
X667243Y1687203D01*
X666906Y1687826D01*
X666850Y1687892D01*
X666807Y1687968D01*
X666343Y1688501D01*
X665891Y1689043D01*
X665823Y1689098D01*
X665766Y1689163D01*
X665203Y1689596D01*
X664656Y1690037D01*
X664579Y1690077D01*
X664510Y1690130D01*
X663344Y1690729D01*
X660758Y1691800D01*
X650068Y1702490D01*
X644283Y1716457D01*
X644283Y1731575D01*
X650068Y1745541D01*
X660758Y1756231D01*
X674725Y1762016D01*
X689842Y1762016D01*
X703809Y1756231D01*
X714499Y1745541D01*
X720284Y1731575D01*
X720284Y1716457D01*
X714499Y1702490D01*
X703809Y1691800D01*
X701222Y1690729D01*
X701146Y1690688D01*
X701063Y1690661D01*
X700449Y1690314D01*
X699825Y1689980D01*
X699758Y1689925D01*
X699682Y1689882D01*
X699147Y1689420D01*
X698603Y1688970D01*
X698548Y1688903D01*
X698482Y1688846D01*
X698048Y1688288D01*
X697604Y1687740D01*
X697563Y1687662D01*
X697510Y1687594D01*
X697195Y1686961D01*
X696867Y1686336D01*
X696843Y1686253D01*
X696804Y1686175D01*
X696620Y1685492D01*
X696421Y1684814D01*
X696414Y1684728D01*
X696391Y1684644D01*
X696284Y1683338D01*
X696284Y1664693D01*
X696293Y1664607D01*
X696286Y1664520D01*
X696371Y1663818D01*
X696441Y1663115D01*
X696467Y1663032D01*
X696477Y1662946D01*
X696699Y1662277D01*
X696906Y1661600D01*
X696948Y1661523D01*
X696975Y1661441D01*
X697324Y1660828D01*
X697661Y1660206D01*
X697717Y1660139D01*
X697760Y1660064D01*
X698224Y1659530D01*
X698676Y1658988D01*
X698743Y1658934D01*
X698801Y1658868D01*
X699363Y1658435D01*
X699911Y1657994D01*
X699988Y1657954D01*
X700057Y1657901D01*
X701222Y1657303D01*
X703809Y1656231D01*
X714499Y1645541D01*
X715570Y1642955D01*
X715611Y1642878D01*
X715638Y1642796D01*
X715985Y1642181D01*
X716319Y1641557D01*
X716374Y1641490D01*
X716417Y1641415D01*
X716879Y1640879D01*
X717329Y1640335D01*
X717396Y1640281D01*
X717453Y1640215D01*
X718011Y1639781D01*
X718560Y1639336D01*
X718637Y1639295D01*
X718705Y1639242D01*
X719338Y1638927D01*
X719963Y1638599D01*
X720046Y1638575D01*
X720124Y1638536D01*
X720807Y1638352D01*
X721485Y1638154D01*
X721571Y1638146D01*
X721655Y1638124D01*
X722961Y1638016D01*
X822728Y1638016D01*
X913693Y1547052D01*
X913773Y1546986D01*
X913841Y1546907D01*
X914386Y1546484D01*
X914919Y1546048D01*
X915011Y1545999D01*
X915093Y1545935D01*
X915710Y1545628D01*
X916320Y1545305D01*
X916419Y1545275D01*
X916513Y1545229D01*
X917177Y1545050D01*
X917839Y1544853D01*
X917943Y1544844D01*
X918043Y1544817D01*
X919349Y1544709D01*
X945923Y1544709D01*
X946026Y1544720D01*
X946130Y1544712D01*
X946813Y1544798D01*
X947500Y1544866D01*
X947600Y1544897D01*
X947703Y1544910D01*
X948356Y1545129D01*
X949016Y1545331D01*
X949107Y1545381D01*
X949206Y1545414D01*
X949804Y1545758D01*
X950410Y1546086D01*
X950490Y1546153D01*
X950580Y1546205D01*
X951579Y1547052D01*
X960758Y1556231D01*
X974725Y1562016D01*
X989842Y1562016D01*
X1003809Y1556231D01*
X1014499Y1545541D01*
X1015570Y1542955D01*
X1015611Y1542878D01*
X1015638Y1542796D01*
X1015985Y1542181D01*
X1016319Y1541557D01*
X1016374Y1541490D01*
X1016417Y1541415D01*
X1016879Y1540879D01*
X1017329Y1540335D01*
X1017396Y1540281D01*
X1017453Y1540215D01*
X1018011Y1539781D01*
X1018560Y1539336D01*
X1018637Y1539295D01*
X1018705Y1539242D01*
X1019338Y1538927D01*
X1019963Y1538599D01*
X1020046Y1538575D01*
X1020124Y1538536D01*
X1020807Y1538352D01*
X1021485Y1538154D01*
X1021571Y1538146D01*
X1021655Y1538124D01*
X1022961Y1538016D01*
X1572425Y1538016D01*
X1572546Y1538028D01*
X1572667Y1538020D01*
X1573333Y1538107D01*
X1574003Y1538173D01*
X1574119Y1538209D01*
X1574239Y1538225D01*
X1575486Y1538625D01*
X1580555Y1540725D01*
X1654877Y1540725D01*
X1668109Y1535244D01*
X1678236Y1525117D01*
X1678839Y1523663D01*
X1678880Y1523587D01*
X1678906Y1523504D01*
X1679253Y1522890D01*
X1679587Y1522266D01*
X1679643Y1522199D01*
X1679685Y1522123D01*
X1680146Y1521589D01*
X1680597Y1521044D01*
X1680664Y1520989D01*
X1680721Y1520923D01*
X1681279Y1520490D01*
X1681828Y1520045D01*
X1681905Y1520004D01*
X1681973Y1519951D01*
X1682605Y1519637D01*
X1683232Y1519308D01*
X1683315Y1519283D01*
X1683393Y1519245D01*
X1684075Y1519061D01*
X1684753Y1518862D01*
X1684840Y1518855D01*
X1684923Y1518832D01*
X1686229Y1518725D01*
X1723654Y1518725D01*
X1723723Y1518732D01*
X1723792Y1518726D01*
X1724510Y1518810D01*
X1725231Y1518882D01*
X1725297Y1518902D01*
X1725366Y1518911D01*
X1726053Y1519134D01*
X1726747Y1519347D01*
X1726808Y1519380D01*
X1726874Y1519402D01*
X1727502Y1519756D01*
X1728141Y1520102D01*
X1728194Y1520147D01*
X1728254Y1520181D01*
X1728803Y1520654D01*
X1729359Y1521117D01*
X1729402Y1521171D01*
X1729455Y1521216D01*
X1729900Y1521790D01*
X1730352Y1522352D01*
X1730384Y1522414D01*
X1730427Y1522469D01*
X1730750Y1523118D01*
X1731083Y1523759D01*
X1731102Y1523825D01*
X1731133Y1523888D01*
X1731322Y1524589D01*
X1731522Y1525282D01*
X1731527Y1525352D01*
X1731546Y1525419D01*
X1731653Y1526724D01*
X1731653Y2314205D01*
X1731646Y2314274D01*
X1731652Y2314343D01*
X1731568Y2315061D01*
X1731496Y2315782D01*
X1731475Y2315849D01*
X1731467Y2315918D01*
X1731243Y2316604D01*
X1731031Y2317298D01*
X1730997Y2317359D01*
X1730976Y2317425D01*
X1730622Y2318053D01*
X1730276Y2318692D01*
X1730231Y2318745D01*
X1730197Y2318806D01*
X1729724Y2319354D01*
X1729261Y2319910D01*
X1729207Y2319953D01*
X1729161Y2320006D01*
X1728588Y2320451D01*
X1728026Y2320903D01*
X1727964Y2320935D01*
X1727909Y2320978D01*
X1727259Y2321301D01*
X1726619Y2321634D01*
X1726552Y2321653D01*
X1726490Y2321684D01*
X1725789Y2321873D01*
X1725095Y2322073D01*
X1725026Y2322079D01*
X1724959Y2322097D01*
X1723654Y2322204D01*
X48000Y2322204D01*
X47931Y2322197D01*
X47862Y2322203D01*
X47143Y2322119D01*
X46422Y2322047D01*
X46356Y2322027D01*
X46287Y2322018D01*
X45601Y2321795D01*
X44907Y2321582D01*
X44845Y2321549D01*
X44780Y2321527D01*
X44152Y2321173D01*
X43513Y2320827D01*
X43459Y2320782D01*
X43399Y2320748D01*
X42851Y2320275D01*
X42295Y2319812D01*
X42251Y2319758D01*
X42199Y2319713D01*
X41754Y2319139D01*
X41301Y2318577D01*
X41269Y2318515D01*
X41227Y2318460D01*
X40903Y2317811D01*
X40570Y2317170D01*
X40551Y2317104D01*
X40520Y2317041D01*
X40331Y2316340D01*
X40132Y2315647D01*
X40126Y2315577D01*
X40108Y2315510D01*
X40001Y2314205D01*
X40001Y48000D01*
X40008Y47931D01*
X40002Y47862D01*
X40086Y47143D01*
X40158Y46422D01*
X40178Y46356D01*
X40186Y46287D01*
X40410Y45601D01*
X40623Y44907D01*
X40656Y44845D01*
X40677Y44780D01*
X41032Y44151D01*
X41378Y43513D01*
X41422Y43459D01*
X41456Y43399D01*
X41929Y42851D01*
X42393Y42295D01*
X42446Y42251D01*
X42492Y42199D01*
X43065Y41754D01*
X43628Y41301D01*
X43689Y41269D01*
X43744Y41227D01*
X44394Y40903D01*
X45035Y40570D01*
X45101Y40551D01*
X45164Y40520D01*
X45865Y40331D01*
X46558Y40132D01*
X46627Y40126D01*
X46694Y40108D01*
X48000Y40001D01*
X1723654Y40001D01*
X1723723Y40008D01*
G37*
%LPC*%
G36*
X1600873Y1709999D02*
X1600873Y1709999D01*
X1575179Y1716884D01*
X1552143Y1730184D01*
X1533333Y1748993D01*
X1520034Y1772029D01*
X1513149Y1797724D01*
X1513149Y1824323D01*
X1520034Y1850018D01*
X1533333Y1873054D01*
X1552143Y1891863D01*
X1573495Y1904191D01*
X1573729Y1904359D01*
X1573982Y1904496D01*
X1574371Y1904820D01*
X1574782Y1905115D01*
X1574979Y1905327D01*
X1575200Y1905511D01*
X1575517Y1905904D01*
X1575862Y1906276D01*
X1576014Y1906522D01*
X1576194Y1906746D01*
X1576427Y1907194D01*
X1576692Y1907627D01*
X1576792Y1907898D01*
X1576924Y1908153D01*
X1577064Y1908639D01*
X1577239Y1909115D01*
X1577284Y1909400D01*
X1577363Y1909676D01*
X1577405Y1910180D01*
X1577482Y1910681D01*
X1577469Y1910969D01*
X1577493Y1911256D01*
X1577434Y1911759D01*
X1577412Y1912265D01*
X1577342Y1912544D01*
X1577309Y1912831D01*
X1577152Y1913312D01*
X1577030Y1913804D01*
X1576907Y1914064D01*
X1576818Y1914338D01*
X1576569Y1914779D01*
X1576352Y1915237D01*
X1576180Y1915468D01*
X1576039Y1915719D01*
X1575708Y1916102D01*
X1575406Y1916508D01*
X1575191Y1916701D01*
X1575003Y1916919D01*
X1574603Y1917230D01*
X1574227Y1917568D01*
X1573978Y1917715D01*
X1573751Y1917891D01*
X1573297Y1918117D01*
X1572862Y1918374D01*
X1572590Y1918469D01*
X1572331Y1918598D01*
X1571843Y1918729D01*
X1571365Y1918896D01*
X1571078Y1918935D01*
X1570801Y1919010D01*
X1570138Y1919065D01*
X1569794Y1919112D01*
X1569662Y1919104D01*
X1569495Y1919117D01*
X1556146Y1919117D01*
X1542914Y1924598D01*
X1532787Y1934725D01*
X1532185Y1936179D01*
X1532144Y1936256D01*
X1532117Y1936338D01*
X1531770Y1936953D01*
X1531436Y1937577D01*
X1531381Y1937644D01*
X1531338Y1937719D01*
X1530877Y1938253D01*
X1530427Y1938799D01*
X1530359Y1938853D01*
X1530302Y1938919D01*
X1529745Y1939352D01*
X1529196Y1939798D01*
X1529118Y1939838D01*
X1529050Y1939891D01*
X1528418Y1940206D01*
X1527792Y1940535D01*
X1527709Y1940559D01*
X1527631Y1940598D01*
X1526948Y1940782D01*
X1526270Y1940980D01*
X1526184Y1940988D01*
X1526100Y1941010D01*
X1524795Y1941117D01*
X1306799Y1941117D01*
X1295756Y1952160D01*
X1295676Y1952226D01*
X1295608Y1952305D01*
X1295063Y1952728D01*
X1294530Y1953165D01*
X1294438Y1953213D01*
X1294355Y1953277D01*
X1293738Y1953584D01*
X1293129Y1953907D01*
X1293029Y1953937D01*
X1292936Y1953984D01*
X1292271Y1954163D01*
X1291609Y1954359D01*
X1291506Y1954369D01*
X1291405Y1954396D01*
X1290100Y1954503D01*
X1179887Y1954503D01*
X1179852Y1954500D01*
X1179817Y1954503D01*
X1179059Y1954421D01*
X1178309Y1954346D01*
X1178276Y1954336D01*
X1178241Y1954332D01*
X1177520Y1954104D01*
X1176793Y1953881D01*
X1176763Y1953864D01*
X1176730Y1953854D01*
X1176068Y1953488D01*
X1175399Y1953126D01*
X1175373Y1953104D01*
X1175342Y1953087D01*
X1174762Y1952595D01*
X1174182Y1952111D01*
X1174160Y1952084D01*
X1174133Y1952062D01*
X1173659Y1951461D01*
X1173188Y1950876D01*
X1173172Y1950846D01*
X1173150Y1950818D01*
X1172805Y1950138D01*
X1172457Y1949469D01*
X1172448Y1949436D01*
X1172432Y1949405D01*
X1172229Y1948676D01*
X1172018Y1947946D01*
X1172016Y1947911D01*
X1172006Y1947878D01*
X1171951Y1947121D01*
X1171889Y1946366D01*
X1171893Y1946331D01*
X1171890Y1946297D01*
X1171985Y1945538D01*
X1172073Y1944791D01*
X1172084Y1944758D01*
X1172088Y1944724D01*
X1172329Y1944004D01*
X1172564Y1943284D01*
X1172581Y1943254D01*
X1172592Y1943221D01*
X1172975Y1942556D01*
X1173343Y1941903D01*
X1173365Y1941877D01*
X1173383Y1941847D01*
X1174230Y1940848D01*
X1180277Y1934801D01*
X1181466Y1931931D01*
X1181507Y1931854D01*
X1181534Y1931772D01*
X1181880Y1931158D01*
X1182215Y1930534D01*
X1182270Y1930467D01*
X1182313Y1930391D01*
X1182774Y1929857D01*
X1183224Y1929311D01*
X1183292Y1929257D01*
X1183348Y1929191D01*
X1183907Y1928757D01*
X1184455Y1928312D01*
X1184532Y1928272D01*
X1184601Y1928219D01*
X1185235Y1927903D01*
X1185859Y1927576D01*
X1185942Y1927551D01*
X1186020Y1927512D01*
X1186704Y1927328D01*
X1187380Y1927130D01*
X1187467Y1927123D01*
X1187551Y1927100D01*
X1188856Y1926993D01*
X1292020Y1926993D01*
X1343330Y1875682D01*
X1343411Y1875616D01*
X1343479Y1875537D01*
X1344024Y1875114D01*
X1344557Y1874678D01*
X1344649Y1874629D01*
X1344731Y1874565D01*
X1345348Y1874258D01*
X1345957Y1873935D01*
X1346057Y1873905D01*
X1346150Y1873859D01*
X1346815Y1873680D01*
X1347477Y1873483D01*
X1347581Y1873473D01*
X1347681Y1873446D01*
X1348987Y1873339D01*
X1371129Y1873339D01*
X1389875Y1854594D01*
X1389875Y1828084D01*
X1371129Y1809338D01*
X1344619Y1809338D01*
X1325873Y1828084D01*
X1325873Y1850226D01*
X1325863Y1850329D01*
X1325871Y1850433D01*
X1325785Y1851116D01*
X1325716Y1851803D01*
X1325686Y1851903D01*
X1325673Y1852006D01*
X1325454Y1852658D01*
X1325251Y1853319D01*
X1325201Y1853411D01*
X1325168Y1853509D01*
X1324825Y1854105D01*
X1324496Y1854713D01*
X1324430Y1854793D01*
X1324378Y1854883D01*
X1323530Y1855882D01*
X1282764Y1896648D01*
X1282683Y1896714D01*
X1282616Y1896793D01*
X1282070Y1897216D01*
X1281537Y1897653D01*
X1281446Y1897702D01*
X1281363Y1897765D01*
X1280746Y1898072D01*
X1280137Y1898396D01*
X1280037Y1898425D01*
X1279944Y1898472D01*
X1279279Y1898651D01*
X1278617Y1898848D01*
X1278513Y1898857D01*
X1278413Y1898884D01*
X1277108Y1898991D01*
X1188856Y1898991D01*
X1188770Y1898983D01*
X1188683Y1898990D01*
X1187981Y1898904D01*
X1187279Y1898834D01*
X1187196Y1898809D01*
X1187110Y1898798D01*
X1186439Y1898577D01*
X1185763Y1898369D01*
X1185687Y1898328D01*
X1185604Y1898301D01*
X1184990Y1897951D01*
X1184369Y1897614D01*
X1184302Y1897559D01*
X1184227Y1897516D01*
X1183694Y1897052D01*
X1183151Y1896599D01*
X1183097Y1896532D01*
X1183031Y1896475D01*
X1182600Y1895914D01*
X1182157Y1895364D01*
X1182118Y1895287D01*
X1182065Y1895219D01*
X1181466Y1894053D01*
X1180277Y1891183D01*
X1169446Y1880353D01*
X1166577Y1879164D01*
X1166500Y1879123D01*
X1166418Y1879096D01*
X1165804Y1878750D01*
X1165179Y1878415D01*
X1165112Y1878360D01*
X1165037Y1878317D01*
X1164502Y1877856D01*
X1163957Y1877406D01*
X1163902Y1877338D01*
X1163837Y1877281D01*
X1163403Y1876723D01*
X1162958Y1876175D01*
X1162918Y1876098D01*
X1162864Y1876029D01*
X1162549Y1875395D01*
X1162221Y1874771D01*
X1162197Y1874688D01*
X1162158Y1874610D01*
X1162025Y1874114D01*
X1097925Y1810015D01*
X1022961Y1810015D01*
X1022874Y1810006D01*
X1022788Y1810013D01*
X1022086Y1809928D01*
X1021383Y1809858D01*
X1021300Y1809832D01*
X1021214Y1809822D01*
X1020545Y1809601D01*
X1019867Y1809393D01*
X1019791Y1809351D01*
X1019709Y1809324D01*
X1019096Y1808975D01*
X1018473Y1808638D01*
X1018407Y1808582D01*
X1018331Y1808539D01*
X1017798Y1808075D01*
X1017256Y1807623D01*
X1017201Y1807556D01*
X1017136Y1807498D01*
X1016703Y1806936D01*
X1016262Y1806388D01*
X1016222Y1806311D01*
X1016169Y1806242D01*
X1015570Y1805077D01*
X1014499Y1802490D01*
X1003809Y1791800D01*
X989842Y1786015D01*
X974725Y1786015D01*
X960758Y1791800D01*
X950068Y1802490D01*
X944283Y1816457D01*
X944283Y1831575D01*
X950068Y1845541D01*
X960758Y1856231D01*
X974725Y1862016D01*
X989842Y1862016D01*
X1003809Y1856231D01*
X1014499Y1845541D01*
X1015570Y1842955D01*
X1015611Y1842878D01*
X1015638Y1842796D01*
X1015985Y1842181D01*
X1016319Y1841557D01*
X1016374Y1841490D01*
X1016417Y1841415D01*
X1016879Y1840879D01*
X1017329Y1840335D01*
X1017396Y1840281D01*
X1017453Y1840215D01*
X1018011Y1839781D01*
X1018560Y1839336D01*
X1018637Y1839295D01*
X1018705Y1839242D01*
X1019338Y1838927D01*
X1019963Y1838599D01*
X1020046Y1838575D01*
X1020124Y1838536D01*
X1020807Y1838352D01*
X1021485Y1838154D01*
X1021571Y1838146D01*
X1021655Y1838124D01*
X1022961Y1838016D01*
X1083013Y1838016D01*
X1083117Y1838027D01*
X1083220Y1838019D01*
X1083904Y1838105D01*
X1084591Y1838173D01*
X1084690Y1838204D01*
X1084793Y1838217D01*
X1085445Y1838436D01*
X1086106Y1838639D01*
X1086198Y1838688D01*
X1086296Y1838721D01*
X1086893Y1839064D01*
X1087500Y1839393D01*
X1087580Y1839460D01*
X1087670Y1839512D01*
X1088670Y1840359D01*
X1121590Y1873279D01*
X1121634Y1873333D01*
X1121687Y1873378D01*
X1122137Y1873948D01*
X1122594Y1874506D01*
X1122626Y1874567D01*
X1122670Y1874622D01*
X1122998Y1875267D01*
X1123337Y1875906D01*
X1123357Y1875973D01*
X1123388Y1876035D01*
X1123581Y1876728D01*
X1123789Y1877426D01*
X1123795Y1877496D01*
X1123814Y1877562D01*
X1123866Y1878280D01*
X1123932Y1879005D01*
X1123925Y1879074D01*
X1123930Y1879143D01*
X1123840Y1879859D01*
X1123762Y1880581D01*
X1123741Y1880647D01*
X1123732Y1880716D01*
X1123502Y1881403D01*
X1123283Y1882093D01*
X1123250Y1882153D01*
X1123228Y1882219D01*
X1122865Y1882850D01*
X1122516Y1883480D01*
X1122472Y1883532D01*
X1122437Y1883593D01*
X1121590Y1884592D01*
X1114999Y1891183D01*
X1109137Y1905334D01*
X1109137Y1920650D01*
X1114999Y1934801D01*
X1121045Y1940848D01*
X1121067Y1940874D01*
X1121094Y1940897D01*
X1121568Y1941486D01*
X1122050Y1942074D01*
X1122066Y1942105D01*
X1122088Y1942132D01*
X1122432Y1942796D01*
X1122792Y1943475D01*
X1122802Y1943508D01*
X1122818Y1943539D01*
X1123028Y1944267D01*
X1123244Y1944994D01*
X1123247Y1945029D01*
X1123257Y1945062D01*
X1123319Y1945815D01*
X1123388Y1946573D01*
X1123384Y1946608D01*
X1123387Y1946642D01*
X1123299Y1947390D01*
X1123217Y1948149D01*
X1123207Y1948182D01*
X1123203Y1948217D01*
X1122969Y1948933D01*
X1122739Y1949661D01*
X1122722Y1949691D01*
X1122711Y1949724D01*
X1122340Y1950382D01*
X1121972Y1951048D01*
X1121950Y1951075D01*
X1121933Y1951105D01*
X1121436Y1951680D01*
X1120947Y1952257D01*
X1120920Y1952279D01*
X1120897Y1952305D01*
X1120298Y1952770D01*
X1119703Y1953240D01*
X1119672Y1953256D01*
X1119645Y1953277D01*
X1118966Y1953615D01*
X1118290Y1953959D01*
X1118257Y1953968D01*
X1118225Y1953984D01*
X1117491Y1954181D01*
X1116763Y1954384D01*
X1116728Y1954387D01*
X1116695Y1954396D01*
X1115389Y1954503D01*
X1035884Y1954503D01*
X1035781Y1954493D01*
X1035677Y1954500D01*
X1034992Y1954414D01*
X1034307Y1954346D01*
X1034208Y1954316D01*
X1034104Y1954303D01*
X1033450Y1954083D01*
X1032791Y1953881D01*
X1032699Y1953831D01*
X1032601Y1953798D01*
X1032005Y1953455D01*
X1031397Y1953126D01*
X1031317Y1953059D01*
X1031227Y1953008D01*
X1030228Y1952160D01*
X1020947Y1942879D01*
X1020892Y1942812D01*
X1020826Y1942755D01*
X1020390Y1942199D01*
X1019942Y1941652D01*
X1019901Y1941575D01*
X1019848Y1941507D01*
X1019531Y1940878D01*
X1019199Y1940252D01*
X1019174Y1940168D01*
X1019136Y1940091D01*
X1018948Y1939408D01*
X1018747Y1938732D01*
X1018740Y1938646D01*
X1018717Y1938562D01*
X1018668Y1937858D01*
X1018604Y1937154D01*
X1018613Y1937067D01*
X1018607Y1936981D01*
X1018698Y1936281D01*
X1018775Y1935577D01*
X1018801Y1935495D01*
X1018812Y1935408D01*
X1019213Y1934161D01*
X1020284Y1931575D01*
X1020284Y1916457D01*
X1014499Y1902490D01*
X1003809Y1891800D01*
X989842Y1886015D01*
X974725Y1886015D01*
X960758Y1891800D01*
X950068Y1902490D01*
X944283Y1916457D01*
X944283Y1931575D01*
X950068Y1945541D01*
X960758Y1956231D01*
X974725Y1962016D01*
X989842Y1962016D01*
X992429Y1960945D01*
X992512Y1960920D01*
X992589Y1960880D01*
X993269Y1960691D01*
X993946Y1960486D01*
X994033Y1960478D01*
X994117Y1960455D01*
X994821Y1960403D01*
X995525Y1960336D01*
X995611Y1960345D01*
X995698Y1960339D01*
X996400Y1960427D01*
X997102Y1960500D01*
X997184Y1960526D01*
X997271Y1960537D01*
X997941Y1960762D01*
X998615Y1960971D01*
X998691Y1961013D01*
X998774Y1961041D01*
X999388Y1961394D01*
X1000006Y1961732D01*
X1000072Y1961788D01*
X1000148Y1961831D01*
X1001147Y1962679D01*
X1010427Y1971960D01*
X1010428Y1971960D01*
X1020972Y1982505D01*
X1305012Y1982505D01*
X1316055Y1971462D01*
X1316135Y1971396D01*
X1316203Y1971317D01*
X1316748Y1970894D01*
X1317281Y1970457D01*
X1317373Y1970409D01*
X1317455Y1970345D01*
X1318073Y1970038D01*
X1318682Y1969714D01*
X1318782Y1969685D01*
X1318875Y1969638D01*
X1319539Y1969459D01*
X1320201Y1969262D01*
X1320305Y1969253D01*
X1320406Y1969226D01*
X1321711Y1969119D01*
X1524795Y1969119D01*
X1524881Y1969127D01*
X1524968Y1969121D01*
X1525670Y1969206D01*
X1526372Y1969276D01*
X1526455Y1969301D01*
X1526541Y1969312D01*
X1527211Y1969533D01*
X1527888Y1969741D01*
X1527964Y1969782D01*
X1528046Y1969810D01*
X1528659Y1970159D01*
X1529282Y1970496D01*
X1529348Y1970551D01*
X1529424Y1970594D01*
X1529957Y1971059D01*
X1530500Y1971511D01*
X1530554Y1971578D01*
X1530619Y1971635D01*
X1531051Y1972196D01*
X1531493Y1972746D01*
X1531533Y1972823D01*
X1531586Y1972892D01*
X1532185Y1974057D01*
X1532787Y1975511D01*
X1542914Y1985638D01*
X1556146Y1991119D01*
X1630468Y1991119D01*
X1643700Y1985638D01*
X1653827Y1975511D01*
X1659308Y1962279D01*
X1659308Y1947957D01*
X1653827Y1934725D01*
X1643700Y1924598D01*
X1640700Y1923355D01*
X1640208Y1923092D01*
X1639701Y1922858D01*
X1639511Y1922718D01*
X1639302Y1922607D01*
X1638872Y1922251D01*
X1638422Y1921922D01*
X1638262Y1921747D01*
X1638080Y1921597D01*
X1637728Y1921164D01*
X1637352Y1920752D01*
X1637230Y1920550D01*
X1637081Y1920366D01*
X1636821Y1919871D01*
X1636534Y1919394D01*
X1636454Y1919172D01*
X1636344Y1918962D01*
X1636187Y1918427D01*
X1635999Y1917902D01*
X1635965Y1917668D01*
X1635899Y1917441D01*
X1635851Y1916884D01*
X1635770Y1916333D01*
X1635782Y1916097D01*
X1635762Y1915861D01*
X1635825Y1915306D01*
X1635854Y1914750D01*
X1635913Y1914522D01*
X1635940Y1914286D01*
X1636111Y1913754D01*
X1636249Y1913215D01*
X1636352Y1913002D01*
X1636424Y1912777D01*
X1636696Y1912290D01*
X1636939Y1911787D01*
X1637082Y1911598D01*
X1637197Y1911392D01*
X1637559Y1910969D01*
X1637897Y1910524D01*
X1638074Y1910367D01*
X1638228Y1910188D01*
X1638666Y1909844D01*
X1639085Y1909474D01*
X1639290Y1909356D01*
X1639476Y1909210D01*
X1639974Y1908960D01*
X1640457Y1908680D01*
X1640711Y1908589D01*
X1640892Y1908498D01*
X1641205Y1908412D01*
X1641690Y1908238D01*
X1653167Y1905163D01*
X1676203Y1891863D01*
X1695013Y1873054D01*
X1708313Y1850018D01*
X1715197Y1824323D01*
X1715197Y1797724D01*
X1708313Y1772029D01*
X1695013Y1748993D01*
X1676203Y1730184D01*
X1653167Y1716884D01*
X1627473Y1709999D01*
X1600873Y1709999D01*
G37*
%LPD*%
%LPC*%
G36*
X108902Y137621D02*
X108902Y137621D01*
X95670Y143102D01*
X85543Y153229D01*
X80062Y166461D01*
X80062Y180783D01*
X85543Y194015D01*
X95670Y204142D01*
X108902Y209623D01*
X141980Y209623D01*
X142083Y209633D01*
X142187Y209625D01*
X142870Y209711D01*
X143557Y209780D01*
X143657Y209810D01*
X143760Y209823D01*
X144412Y210042D01*
X145073Y210245D01*
X145165Y210295D01*
X145263Y210328D01*
X145859Y210671D01*
X146467Y211000D01*
X146547Y211066D01*
X146637Y211118D01*
X147636Y211966D01*
X155636Y219966D01*
X155658Y219993D01*
X155685Y220015D01*
X156159Y220604D01*
X156641Y221192D01*
X156657Y221223D01*
X156679Y221250D01*
X157026Y221919D01*
X157383Y222593D01*
X157393Y222626D01*
X157409Y222657D01*
X157617Y223378D01*
X157836Y224112D01*
X157839Y224147D01*
X157848Y224180D01*
X157910Y224927D01*
X157979Y225691D01*
X157975Y225726D01*
X157978Y225760D01*
X157891Y226508D01*
X157808Y227267D01*
X157798Y227300D01*
X157794Y227335D01*
X157559Y228056D01*
X157330Y228779D01*
X157313Y228809D01*
X157302Y228842D01*
X156930Y229502D01*
X156563Y230166D01*
X156541Y230193D01*
X156524Y230223D01*
X156062Y230758D01*
X156062Y263623D01*
X214873Y263623D01*
X213133Y258267D01*
X210275Y252658D01*
X206574Y247563D01*
X202122Y243111D01*
X197027Y239410D01*
X195761Y238765D01*
X195343Y238497D01*
X194906Y238260D01*
X194677Y238070D01*
X194427Y237909D01*
X194070Y237563D01*
X193688Y237245D01*
X193502Y237013D01*
X193288Y236807D01*
X193006Y236397D01*
X192694Y236010D01*
X192557Y235746D01*
X192388Y235501D01*
X192192Y235044D01*
X191963Y234603D01*
X191881Y234318D01*
X191764Y234044D01*
X191662Y233557D01*
X191525Y233079D01*
X191500Y232783D01*
X191439Y232492D01*
X191436Y231995D01*
X191395Y231500D01*
X191429Y231204D01*
X191427Y230907D01*
X191521Y230419D01*
X191579Y229925D01*
X191671Y229642D01*
X191728Y229350D01*
X191916Y228890D01*
X192070Y228418D01*
X192216Y228159D01*
X192329Y227884D01*
X192605Y227469D01*
X192849Y227037D01*
X193043Y226812D01*
X193208Y226564D01*
X193560Y226213D01*
X193885Y225837D01*
X194120Y225654D01*
X194330Y225444D01*
X194744Y225170D01*
X195137Y224864D01*
X195403Y224732D01*
X195651Y224568D01*
X196111Y224380D01*
X196556Y224158D01*
X196844Y224081D01*
X197119Y223969D01*
X197607Y223875D01*
X198087Y223746D01*
X198431Y223717D01*
X198676Y223671D01*
X198967Y223673D01*
X199393Y223638D01*
X488077Y223638D01*
X488180Y223649D01*
X488284Y223641D01*
X488967Y223727D01*
X489654Y223796D01*
X489754Y223826D01*
X489857Y223839D01*
X490509Y224058D01*
X491170Y224261D01*
X491262Y224310D01*
X491360Y224343D01*
X491956Y224687D01*
X492564Y225016D01*
X492644Y225082D01*
X492734Y225134D01*
X493733Y225981D01*
X496757Y229006D01*
X510357Y234638D01*
X525076Y234638D01*
X538676Y229006D01*
X541700Y225981D01*
X541780Y225915D01*
X541848Y225837D01*
X542394Y225413D01*
X542926Y224977D01*
X543018Y224928D01*
X543101Y224864D01*
X543718Y224557D01*
X544327Y224234D01*
X544427Y224204D01*
X544520Y224158D01*
X545185Y223979D01*
X545846Y223782D01*
X545950Y223773D01*
X546051Y223746D01*
X547356Y223638D01*
X710523Y223638D01*
X710627Y223649D01*
X710730Y223641D01*
X711414Y223727D01*
X712101Y223796D01*
X712200Y223826D01*
X712303Y223839D01*
X712955Y224058D01*
X713616Y224261D01*
X713708Y224310D01*
X713806Y224343D01*
X714403Y224687D01*
X715010Y225016D01*
X715090Y225082D01*
X715180Y225134D01*
X716179Y225981D01*
X719806Y229608D01*
X719872Y229688D01*
X719951Y229756D01*
X720374Y230302D01*
X720810Y230835D01*
X720859Y230926D01*
X720923Y231009D01*
X721230Y231626D01*
X721553Y232235D01*
X721583Y232335D01*
X721629Y232428D01*
X721808Y233093D01*
X722005Y233755D01*
X722015Y233859D01*
X722042Y233959D01*
X722149Y235264D01*
X722149Y300714D01*
X725664Y304229D01*
X800714Y304229D01*
X804229Y300714D01*
X804229Y171727D01*
X800714Y168212D01*
X725664Y168212D01*
X724582Y169294D01*
X724502Y169360D01*
X724433Y169439D01*
X723888Y169862D01*
X723355Y170298D01*
X723263Y170347D01*
X723181Y170411D01*
X722564Y170718D01*
X721955Y171041D01*
X721855Y171071D01*
X721762Y171117D01*
X721094Y171297D01*
X720435Y171493D01*
X720332Y171503D01*
X720231Y171530D01*
X718925Y171637D01*
X547356Y171637D01*
X547253Y171627D01*
X547149Y171634D01*
X546466Y171548D01*
X545779Y171480D01*
X545679Y171449D01*
X545576Y171436D01*
X544924Y171218D01*
X544263Y171015D01*
X544171Y170965D01*
X544073Y170932D01*
X543477Y170589D01*
X542869Y170260D01*
X542789Y170193D01*
X542699Y170141D01*
X541700Y169294D01*
X538676Y166270D01*
X525076Y160637D01*
X510357Y160637D01*
X496757Y166270D01*
X493733Y169294D01*
X493653Y169360D01*
X493585Y169439D01*
X493039Y169862D01*
X492507Y170298D01*
X492415Y170347D01*
X492332Y170411D01*
X491715Y170718D01*
X491106Y171041D01*
X491006Y171071D01*
X490913Y171117D01*
X490248Y171297D01*
X489586Y171493D01*
X489483Y171503D01*
X489382Y171530D01*
X488077Y171637D01*
X219553Y171637D01*
X219466Y171628D01*
X219380Y171635D01*
X218678Y171550D01*
X217975Y171480D01*
X217892Y171454D01*
X217806Y171444D01*
X217136Y171222D01*
X216459Y171015D01*
X216383Y170974D01*
X216301Y170946D01*
X215686Y170596D01*
X215065Y170260D01*
X214999Y170205D01*
X214923Y170162D01*
X214391Y169698D01*
X213848Y169245D01*
X213793Y169177D01*
X213728Y169120D01*
X213297Y168560D01*
X212854Y168010D01*
X212814Y167933D01*
X212761Y167864D01*
X212162Y166699D01*
X206583Y153229D01*
X196456Y143102D01*
X183224Y137621D01*
X108902Y137621D01*
G37*
%LPD*%
%LPC*%
G36*
X1124812Y132621D02*
X1124812Y132621D01*
X1091366Y146475D01*
X1065767Y172074D01*
X1057230Y192683D01*
X1057189Y192760D01*
X1057162Y192842D01*
X1056816Y193457D01*
X1056481Y194081D01*
X1056426Y194148D01*
X1056383Y194223D01*
X1055922Y194758D01*
X1055472Y195303D01*
X1055404Y195357D01*
X1055348Y195423D01*
X1054789Y195857D01*
X1054241Y196302D01*
X1054164Y196342D01*
X1054095Y196395D01*
X1053460Y196712D01*
X1052837Y197039D01*
X1052754Y197063D01*
X1052676Y197102D01*
X1051991Y197286D01*
X1051316Y197484D01*
X1051229Y197492D01*
X1051145Y197514D01*
X1049840Y197621D01*
X1018134Y197621D01*
X1018064Y197614D01*
X1017996Y197620D01*
X1017277Y197536D01*
X1016556Y197464D01*
X1016490Y197444D01*
X1016421Y197436D01*
X1015734Y197212D01*
X1015041Y196999D01*
X1014979Y196966D01*
X1014914Y196945D01*
X1014286Y196590D01*
X1013647Y196244D01*
X1013593Y196200D01*
X1013533Y196166D01*
X1012985Y195693D01*
X1012429Y195229D01*
X1012385Y195175D01*
X1012333Y195130D01*
X1011887Y194556D01*
X1011435Y193994D01*
X1011403Y193933D01*
X1011360Y193878D01*
X1011037Y193228D01*
X1010704Y192587D01*
X1010685Y192521D01*
X1010654Y192458D01*
X1010465Y191757D01*
X1010266Y191064D01*
X1010260Y190995D01*
X1010242Y190928D01*
X1010134Y189622D01*
X1010134Y171727D01*
X1006619Y168212D01*
X931570Y168212D01*
X928054Y171727D01*
X928054Y300714D01*
X931570Y304229D01*
X1006619Y304229D01*
X1010134Y300714D01*
X1010134Y257622D01*
X1010141Y257553D01*
X1010136Y257484D01*
X1010220Y256766D01*
X1010292Y256044D01*
X1010312Y255978D01*
X1010320Y255909D01*
X1010544Y255223D01*
X1010757Y254529D01*
X1010790Y254467D01*
X1010811Y254402D01*
X1011165Y253774D01*
X1011512Y253135D01*
X1011556Y253081D01*
X1011590Y253021D01*
X1012063Y252473D01*
X1012526Y251917D01*
X1012580Y251874D01*
X1012626Y251821D01*
X1013199Y251376D01*
X1013762Y250923D01*
X1013823Y250891D01*
X1013878Y250849D01*
X1014528Y250525D01*
X1015169Y250193D01*
X1015235Y250173D01*
X1015297Y250142D01*
X1015998Y249953D01*
X1016692Y249754D01*
X1016761Y249748D01*
X1016828Y249730D01*
X1018134Y249623D01*
X1049840Y249623D01*
X1049926Y249631D01*
X1050013Y249625D01*
X1050714Y249710D01*
X1051417Y249780D01*
X1051500Y249805D01*
X1051586Y249816D01*
X1052257Y250037D01*
X1052933Y250245D01*
X1053009Y250286D01*
X1053092Y250313D01*
X1053706Y250664D01*
X1054327Y251000D01*
X1054394Y251055D01*
X1054469Y251098D01*
X1055002Y251562D01*
X1055545Y252015D01*
X1055599Y252082D01*
X1055665Y252139D01*
X1056096Y252700D01*
X1056539Y253250D01*
X1056578Y253327D01*
X1056631Y253396D01*
X1057230Y254561D01*
X1065767Y275170D01*
X1091366Y300769D01*
X1124812Y314623D01*
X1161015Y314623D01*
X1194461Y300769D01*
X1220060Y275170D01*
X1233914Y241723D01*
X1233914Y205521D01*
X1220060Y172074D01*
X1194461Y146475D01*
X1161015Y132621D01*
X1124812Y132621D01*
G37*
%LPD*%
%LPC*%
G36*
X278477Y1497527D02*
X278477Y1497527D01*
X259732Y1516273D01*
X259732Y1542782D01*
X278477Y1561528D01*
X300620Y1561528D01*
X300723Y1561539D01*
X300827Y1561531D01*
X301510Y1561617D01*
X302197Y1561685D01*
X302297Y1561716D01*
X302400Y1561729D01*
X303052Y1561948D01*
X303713Y1562150D01*
X303805Y1562200D01*
X303903Y1562233D01*
X304499Y1562576D01*
X305107Y1562905D01*
X305187Y1562972D01*
X305277Y1563024D01*
X306276Y1563871D01*
X354129Y1611724D01*
X354195Y1611805D01*
X354273Y1611873D01*
X354697Y1612418D01*
X355133Y1612951D01*
X355182Y1613042D01*
X355246Y1613125D01*
X355553Y1613742D01*
X355876Y1614351D01*
X355906Y1614451D01*
X355952Y1614544D01*
X356131Y1615209D01*
X356328Y1615871D01*
X356337Y1615975D01*
X356364Y1616075D01*
X356472Y1617380D01*
X356472Y1718053D01*
X356461Y1718156D01*
X356469Y1718260D01*
X356383Y1718941D01*
X356315Y1719630D01*
X356284Y1719730D01*
X356271Y1719833D01*
X356052Y1720485D01*
X355850Y1721146D01*
X355800Y1721237D01*
X355767Y1721336D01*
X355424Y1721932D01*
X355095Y1722540D01*
X355028Y1722620D01*
X354976Y1722710D01*
X354129Y1723709D01*
X271675Y1806163D01*
X271607Y1806218D01*
X271551Y1806284D01*
X270996Y1806719D01*
X270448Y1807167D01*
X270371Y1807208D01*
X270303Y1807262D01*
X269673Y1807579D01*
X269047Y1807910D01*
X268964Y1807935D01*
X268887Y1807974D01*
X268205Y1808161D01*
X267528Y1808362D01*
X267441Y1808370D01*
X267358Y1808393D01*
X266655Y1808442D01*
X265949Y1808506D01*
X265862Y1808496D01*
X265776Y1808502D01*
X265078Y1808411D01*
X264373Y1808335D01*
X264290Y1808309D01*
X264204Y1808298D01*
X262957Y1807897D01*
X254877Y1804550D01*
X180555Y1804550D01*
X167324Y1810031D01*
X157196Y1820158D01*
X151716Y1833390D01*
X151716Y1847712D01*
X157196Y1860944D01*
X167324Y1871071D01*
X180555Y1876552D01*
X254877Y1876552D01*
X268109Y1871071D01*
X278236Y1860944D01*
X283717Y1847712D01*
X283717Y1846016D01*
X283724Y1845946D01*
X283718Y1845877D01*
X283802Y1845159D01*
X283874Y1844438D01*
X283895Y1844372D01*
X283903Y1844303D01*
X284126Y1843616D01*
X284339Y1842922D01*
X284373Y1842861D01*
X284394Y1842796D01*
X284748Y1842167D01*
X285094Y1841528D01*
X285139Y1841475D01*
X285173Y1841415D01*
X285646Y1840867D01*
X286109Y1840311D01*
X286163Y1840267D01*
X286209Y1840215D01*
X286782Y1839769D01*
X287344Y1839317D01*
X287406Y1839285D01*
X287461Y1839242D01*
X288111Y1838919D01*
X288751Y1838586D01*
X288818Y1838567D01*
X288880Y1838536D01*
X289581Y1838347D01*
X290275Y1838147D01*
X290344Y1838142D01*
X290411Y1838124D01*
X291716Y1838016D01*
X641606Y1838016D01*
X641692Y1838025D01*
X641779Y1838018D01*
X642480Y1838103D01*
X643184Y1838173D01*
X643267Y1838199D01*
X643352Y1838209D01*
X644021Y1838430D01*
X644699Y1838639D01*
X644776Y1838680D01*
X644858Y1838707D01*
X645470Y1839056D01*
X646093Y1839393D01*
X646160Y1839449D01*
X646235Y1839492D01*
X646767Y1839955D01*
X647311Y1840408D01*
X647366Y1840476D01*
X647431Y1840533D01*
X647862Y1841093D01*
X648305Y1841644D01*
X648345Y1841720D01*
X648398Y1841789D01*
X648996Y1842954D01*
X650068Y1845541D01*
X660758Y1856231D01*
X674725Y1862016D01*
X689842Y1862016D01*
X703809Y1856231D01*
X714499Y1845541D01*
X720284Y1831575D01*
X720284Y1816457D01*
X714499Y1802490D01*
X703809Y1791800D01*
X689842Y1786015D01*
X674725Y1786015D01*
X660758Y1791800D01*
X650068Y1802490D01*
X648996Y1805077D01*
X648955Y1805154D01*
X648929Y1805236D01*
X648582Y1805850D01*
X648248Y1806474D01*
X648192Y1806541D01*
X648150Y1806617D01*
X647687Y1807153D01*
X647238Y1807696D01*
X647171Y1807751D01*
X647114Y1807817D01*
X646556Y1808250D01*
X646007Y1808696D01*
X645930Y1808736D01*
X645862Y1808789D01*
X645231Y1809103D01*
X644603Y1809432D01*
X644520Y1809457D01*
X644442Y1809495D01*
X643759Y1809679D01*
X643082Y1809878D01*
X642995Y1809885D01*
X642912Y1809908D01*
X641606Y1810015D01*
X326734Y1810015D01*
X326700Y1810012D01*
X326665Y1810015D01*
X325907Y1809933D01*
X325157Y1809858D01*
X325124Y1809848D01*
X325089Y1809844D01*
X324370Y1809616D01*
X323641Y1809393D01*
X323610Y1809376D01*
X323578Y1809366D01*
X322919Y1809001D01*
X322247Y1808638D01*
X322220Y1808616D01*
X322190Y1808599D01*
X321616Y1808112D01*
X321030Y1807623D01*
X321008Y1807596D01*
X320981Y1807573D01*
X320514Y1806982D01*
X320036Y1806388D01*
X320020Y1806357D01*
X319998Y1806330D01*
X319656Y1805656D01*
X319305Y1804981D01*
X319296Y1804947D01*
X319280Y1804917D01*
X319075Y1804182D01*
X318866Y1803458D01*
X318863Y1803423D01*
X318854Y1803390D01*
X318798Y1802632D01*
X318736Y1801878D01*
X318741Y1801843D01*
X318738Y1801808D01*
X318832Y1801057D01*
X318921Y1800303D01*
X318932Y1800270D01*
X318936Y1800235D01*
X319177Y1799516D01*
X319412Y1798796D01*
X319429Y1798766D01*
X319440Y1798733D01*
X319819Y1798074D01*
X320191Y1797415D01*
X320213Y1797389D01*
X320231Y1797359D01*
X321078Y1796359D01*
X373929Y1743509D01*
X384473Y1732965D01*
X384473Y1602468D01*
X326076Y1544071D01*
X326010Y1543991D01*
X325931Y1543923D01*
X325508Y1543378D01*
X325071Y1542845D01*
X325023Y1542753D01*
X324959Y1542671D01*
X324652Y1542053D01*
X324329Y1541444D01*
X324299Y1541344D01*
X324253Y1541251D01*
X324073Y1540586D01*
X323877Y1539925D01*
X323867Y1539821D01*
X323840Y1539720D01*
X323733Y1538415D01*
X323733Y1516273D01*
X304987Y1497527D01*
X278477Y1497527D01*
G37*
%LPD*%
%LPC*%
G36*
X144180Y1552519D02*
X144180Y1552519D01*
X118486Y1559404D01*
X95450Y1572703D01*
X76641Y1591513D01*
X63341Y1614549D01*
X56456Y1640243D01*
X56456Y1666843D01*
X63341Y1692537D01*
X76641Y1715573D01*
X95450Y1734383D01*
X118486Y1747683D01*
X144180Y1754568D01*
X170780Y1754568D01*
X196474Y1747683D01*
X219510Y1734383D01*
X238320Y1715573D01*
X251620Y1692537D01*
X258505Y1666843D01*
X258505Y1640243D01*
X251620Y1614549D01*
X238320Y1591513D01*
X219510Y1572703D01*
X196474Y1559404D01*
X170780Y1552519D01*
X144180Y1552519D01*
G37*
%LPD*%
%LPC*%
G36*
X1600873Y410787D02*
X1600873Y410787D01*
X1575179Y417671D01*
X1552143Y430971D01*
X1533333Y449781D01*
X1520034Y472817D01*
X1513149Y498511D01*
X1513149Y525111D01*
X1520034Y550805D01*
X1533333Y573841D01*
X1552143Y592651D01*
X1575179Y605951D01*
X1600873Y612835D01*
X1627473Y612835D01*
X1653167Y605951D01*
X1676203Y592651D01*
X1695013Y573841D01*
X1708313Y550805D01*
X1715197Y525111D01*
X1715197Y498511D01*
X1708313Y472817D01*
X1695013Y449781D01*
X1676203Y430971D01*
X1653167Y417671D01*
X1627473Y410787D01*
X1600873Y410787D01*
G37*
%LPD*%
%LPC*%
G36*
X1580555Y1268724D02*
X1580555Y1268724D01*
X1567324Y1274204D01*
X1557196Y1284332D01*
X1556594Y1285785D01*
X1556553Y1285862D01*
X1556526Y1285945D01*
X1556180Y1286559D01*
X1555846Y1287183D01*
X1555790Y1287250D01*
X1555748Y1287325D01*
X1555287Y1287859D01*
X1554836Y1288405D01*
X1554769Y1288460D01*
X1554712Y1288525D01*
X1554154Y1288958D01*
X1553605Y1289404D01*
X1553528Y1289445D01*
X1553460Y1289498D01*
X1552828Y1289812D01*
X1552201Y1290141D01*
X1552118Y1290165D01*
X1552040Y1290204D01*
X1551358Y1290388D01*
X1550680Y1290586D01*
X1550593Y1290594D01*
X1550510Y1290616D01*
X1549204Y1290724D01*
X1002801Y1290724D01*
X1002680Y1290712D01*
X1002559Y1290720D01*
X1001893Y1290633D01*
X1001224Y1290567D01*
X1001107Y1290531D01*
X1000987Y1290515D01*
X999740Y1290115D01*
X989842Y1286015D01*
X974725Y1286015D01*
X960758Y1291800D01*
X950068Y1302490D01*
X944283Y1316457D01*
X944283Y1331575D01*
X950068Y1345541D01*
X960758Y1356231D01*
X974725Y1362016D01*
X989842Y1362016D01*
X1003809Y1356231D01*
X1014499Y1345541D01*
X1020284Y1331575D01*
X1020284Y1326724D01*
X1020291Y1326655D01*
X1020285Y1326586D01*
X1020369Y1325868D01*
X1020441Y1325147D01*
X1020461Y1325080D01*
X1020470Y1325011D01*
X1020693Y1324325D01*
X1020906Y1323631D01*
X1020939Y1323570D01*
X1020961Y1323504D01*
X1021315Y1322876D01*
X1021661Y1322237D01*
X1021706Y1322184D01*
X1021740Y1322123D01*
X1022213Y1321575D01*
X1022676Y1321019D01*
X1022730Y1320976D01*
X1022775Y1320923D01*
X1023349Y1320478D01*
X1023911Y1320026D01*
X1023973Y1319994D01*
X1024028Y1319951D01*
X1024678Y1319628D01*
X1025318Y1319295D01*
X1025384Y1319276D01*
X1025447Y1319245D01*
X1026148Y1319056D01*
X1026842Y1318856D01*
X1026911Y1318850D01*
X1026978Y1318832D01*
X1028283Y1318725D01*
X1549204Y1318725D01*
X1549290Y1318734D01*
X1549377Y1318727D01*
X1550079Y1318812D01*
X1550781Y1318882D01*
X1550864Y1318908D01*
X1550951Y1318918D01*
X1551620Y1319140D01*
X1552297Y1319347D01*
X1552374Y1319389D01*
X1552456Y1319416D01*
X1553068Y1319765D01*
X1553691Y1320102D01*
X1553758Y1320158D01*
X1553833Y1320201D01*
X1554367Y1320665D01*
X1554909Y1321117D01*
X1554963Y1321184D01*
X1555029Y1321242D01*
X1555462Y1321804D01*
X1555903Y1322352D01*
X1555943Y1322429D01*
X1555996Y1322498D01*
X1556594Y1323663D01*
X1557196Y1325117D01*
X1567324Y1335244D01*
X1580555Y1340725D01*
X1654877Y1340725D01*
X1668109Y1335244D01*
X1678236Y1325117D01*
X1683717Y1311885D01*
X1683717Y1297563D01*
X1678236Y1284332D01*
X1668109Y1274204D01*
X1654877Y1268724D01*
X1580555Y1268724D01*
G37*
%LPD*%
%LPC*%
G36*
X1580555Y1168724D02*
X1580555Y1168724D01*
X1567324Y1174204D01*
X1557196Y1184332D01*
X1556594Y1185785D01*
X1556553Y1185862D01*
X1556526Y1185945D01*
X1556180Y1186559D01*
X1555846Y1187183D01*
X1555790Y1187250D01*
X1555748Y1187325D01*
X1555287Y1187859D01*
X1554836Y1188405D01*
X1554769Y1188460D01*
X1554712Y1188525D01*
X1554154Y1188958D01*
X1553605Y1189404D01*
X1553528Y1189445D01*
X1553460Y1189498D01*
X1552828Y1189812D01*
X1552201Y1190141D01*
X1552118Y1190165D01*
X1552040Y1190204D01*
X1551358Y1190388D01*
X1550680Y1190586D01*
X1550593Y1190594D01*
X1550510Y1190616D01*
X1549204Y1190724D01*
X1002801Y1190724D01*
X1002680Y1190712D01*
X1002559Y1190720D01*
X1001893Y1190633D01*
X1001224Y1190567D01*
X1001107Y1190531D01*
X1000987Y1190515D01*
X999740Y1190115D01*
X989842Y1186015D01*
X974725Y1186015D01*
X960758Y1191800D01*
X950068Y1202490D01*
X944283Y1216457D01*
X944283Y1231575D01*
X950068Y1245541D01*
X960758Y1256231D01*
X974725Y1262016D01*
X989842Y1262016D01*
X1003809Y1256231D01*
X1014499Y1245541D01*
X1020284Y1231575D01*
X1020284Y1226724D01*
X1020291Y1226655D01*
X1020285Y1226586D01*
X1020369Y1225868D01*
X1020441Y1225147D01*
X1020461Y1225080D01*
X1020470Y1225011D01*
X1020693Y1224325D01*
X1020906Y1223631D01*
X1020939Y1223570D01*
X1020961Y1223504D01*
X1021315Y1222876D01*
X1021661Y1222237D01*
X1021706Y1222184D01*
X1021740Y1222123D01*
X1022213Y1221575D01*
X1022676Y1221019D01*
X1022730Y1220976D01*
X1022775Y1220923D01*
X1023349Y1220478D01*
X1023911Y1220026D01*
X1023973Y1219994D01*
X1024028Y1219951D01*
X1024678Y1219628D01*
X1025318Y1219295D01*
X1025384Y1219276D01*
X1025447Y1219245D01*
X1026148Y1219056D01*
X1026842Y1218856D01*
X1026911Y1218850D01*
X1026978Y1218832D01*
X1028283Y1218725D01*
X1549204Y1218725D01*
X1549290Y1218734D01*
X1549377Y1218727D01*
X1550079Y1218812D01*
X1550781Y1218882D01*
X1550864Y1218908D01*
X1550951Y1218918D01*
X1551620Y1219140D01*
X1552297Y1219347D01*
X1552374Y1219389D01*
X1552456Y1219416D01*
X1553068Y1219765D01*
X1553691Y1220102D01*
X1553758Y1220158D01*
X1553833Y1220201D01*
X1554367Y1220665D01*
X1554909Y1221117D01*
X1554963Y1221184D01*
X1555029Y1221242D01*
X1555462Y1221804D01*
X1555903Y1222352D01*
X1555943Y1222429D01*
X1555996Y1222498D01*
X1556594Y1223663D01*
X1557196Y1225117D01*
X1567324Y1235244D01*
X1580555Y1240725D01*
X1654877Y1240725D01*
X1668109Y1235244D01*
X1678236Y1225117D01*
X1683717Y1211885D01*
X1683717Y1197563D01*
X1678236Y1184332D01*
X1668109Y1174204D01*
X1654877Y1168724D01*
X1580555Y1168724D01*
G37*
%LPD*%
%LPC*%
G36*
X1580555Y1068724D02*
X1580555Y1068724D01*
X1567324Y1074204D01*
X1557196Y1084332D01*
X1556594Y1085785D01*
X1556553Y1085862D01*
X1556526Y1085945D01*
X1556180Y1086559D01*
X1555846Y1087183D01*
X1555790Y1087250D01*
X1555748Y1087325D01*
X1555287Y1087859D01*
X1554836Y1088405D01*
X1554769Y1088460D01*
X1554712Y1088525D01*
X1554154Y1088958D01*
X1553605Y1089404D01*
X1553528Y1089445D01*
X1553460Y1089498D01*
X1552828Y1089812D01*
X1552201Y1090141D01*
X1552118Y1090165D01*
X1552040Y1090204D01*
X1551358Y1090388D01*
X1550680Y1090586D01*
X1550593Y1090594D01*
X1550510Y1090616D01*
X1549204Y1090724D01*
X1002801Y1090724D01*
X1002680Y1090712D01*
X1002559Y1090720D01*
X1001893Y1090633D01*
X1001223Y1090567D01*
X1001107Y1090531D01*
X1000987Y1090515D01*
X999740Y1090115D01*
X989842Y1086015D01*
X974725Y1086015D01*
X960758Y1091800D01*
X950068Y1102490D01*
X944283Y1116457D01*
X944283Y1131575D01*
X950068Y1145541D01*
X960758Y1156231D01*
X974725Y1162016D01*
X989842Y1162016D01*
X1003809Y1156231D01*
X1014499Y1145541D01*
X1020284Y1131575D01*
X1020284Y1126724D01*
X1020291Y1126655D01*
X1020285Y1126586D01*
X1020369Y1125868D01*
X1020441Y1125147D01*
X1020461Y1125080D01*
X1020470Y1125011D01*
X1020693Y1124325D01*
X1020906Y1123631D01*
X1020939Y1123570D01*
X1020961Y1123504D01*
X1021315Y1122876D01*
X1021661Y1122237D01*
X1021706Y1122184D01*
X1021740Y1122123D01*
X1022213Y1121575D01*
X1022676Y1121019D01*
X1022730Y1120976D01*
X1022775Y1120923D01*
X1023349Y1120478D01*
X1023911Y1120026D01*
X1023973Y1119994D01*
X1024028Y1119951D01*
X1024678Y1119628D01*
X1025318Y1119295D01*
X1025384Y1119276D01*
X1025447Y1119245D01*
X1026148Y1119056D01*
X1026842Y1118856D01*
X1026911Y1118850D01*
X1026978Y1118832D01*
X1028283Y1118725D01*
X1549204Y1118725D01*
X1549290Y1118734D01*
X1549377Y1118727D01*
X1550079Y1118812D01*
X1550781Y1118882D01*
X1550864Y1118908D01*
X1550951Y1118918D01*
X1551620Y1119140D01*
X1552297Y1119347D01*
X1552374Y1119389D01*
X1552456Y1119416D01*
X1553068Y1119765D01*
X1553691Y1120102D01*
X1553758Y1120158D01*
X1553833Y1120201D01*
X1554367Y1120665D01*
X1554909Y1121117D01*
X1554963Y1121184D01*
X1555029Y1121242D01*
X1555462Y1121804D01*
X1555903Y1122352D01*
X1555943Y1122429D01*
X1555996Y1122498D01*
X1556594Y1123663D01*
X1557196Y1125117D01*
X1567324Y1135244D01*
X1580555Y1140725D01*
X1654877Y1140725D01*
X1668109Y1135244D01*
X1678236Y1125117D01*
X1683717Y1111885D01*
X1683717Y1097563D01*
X1678236Y1084332D01*
X1668109Y1074204D01*
X1654877Y1068724D01*
X1580555Y1068724D01*
G37*
%LPD*%
%LPC*%
G36*
X974725Y2086015D02*
X974725Y2086015D01*
X960758Y2091800D01*
X950068Y2102490D01*
X944283Y2116457D01*
X944283Y2131575D01*
X950068Y2145541D01*
X960758Y2156231D01*
X974725Y2162016D01*
X989842Y2162016D01*
X1003809Y2156231D01*
X1014499Y2145541D01*
X1015570Y2142955D01*
X1015611Y2142878D01*
X1015638Y2142796D01*
X1015985Y2142181D01*
X1016319Y2141557D01*
X1016374Y2141490D01*
X1016417Y2141415D01*
X1016879Y2140879D01*
X1017329Y2140335D01*
X1017396Y2140281D01*
X1017453Y2140215D01*
X1018011Y2139781D01*
X1018560Y2139336D01*
X1018637Y2139295D01*
X1018705Y2139242D01*
X1019338Y2138927D01*
X1019963Y2138599D01*
X1020046Y2138575D01*
X1020124Y2138536D01*
X1020807Y2138352D01*
X1021485Y2138154D01*
X1021571Y2138146D01*
X1021655Y2138124D01*
X1022961Y2138016D01*
X1519452Y2138016D01*
X1519505Y2138022D01*
X1519558Y2138017D01*
X1520294Y2138100D01*
X1521030Y2138173D01*
X1521080Y2138189D01*
X1521133Y2138195D01*
X1521838Y2138422D01*
X1522545Y2138639D01*
X1522592Y2138664D01*
X1522642Y2138680D01*
X1523288Y2139040D01*
X1523939Y2139393D01*
X1523980Y2139427D01*
X1524026Y2139453D01*
X1524590Y2139936D01*
X1525157Y2140408D01*
X1525190Y2140449D01*
X1525231Y2140484D01*
X1525688Y2141069D01*
X1526151Y2141644D01*
X1526175Y2141690D01*
X1526208Y2141732D01*
X1526542Y2142396D01*
X1526882Y2143050D01*
X1526896Y2143101D01*
X1526920Y2143149D01*
X1527117Y2143866D01*
X1527320Y2144574D01*
X1527325Y2144626D01*
X1527339Y2144678D01*
X1527390Y2145419D01*
X1527450Y2146154D01*
X1527444Y2146206D01*
X1527448Y2146259D01*
X1527352Y2146995D01*
X1527306Y2147384D01*
X1527306Y2162279D01*
X1532787Y2175511D01*
X1542914Y2185638D01*
X1556146Y2191119D01*
X1630468Y2191119D01*
X1643700Y2185638D01*
X1653827Y2175511D01*
X1659308Y2162279D01*
X1659308Y2147957D01*
X1653827Y2134725D01*
X1643700Y2124598D01*
X1630468Y2119117D01*
X1580420Y2119117D01*
X1580316Y2119107D01*
X1580212Y2119115D01*
X1579529Y2119029D01*
X1578842Y2118960D01*
X1578743Y2118930D01*
X1578640Y2118917D01*
X1577987Y2118698D01*
X1577327Y2118495D01*
X1577235Y2118445D01*
X1577137Y2118413D01*
X1576540Y2118069D01*
X1575933Y2117740D01*
X1575853Y2117674D01*
X1575763Y2117622D01*
X1574763Y2116774D01*
X1568004Y2110015D01*
X1022961Y2110015D01*
X1022874Y2110006D01*
X1022788Y2110013D01*
X1022086Y2109928D01*
X1021383Y2109858D01*
X1021300Y2109832D01*
X1021214Y2109822D01*
X1020545Y2109601D01*
X1019867Y2109393D01*
X1019791Y2109351D01*
X1019709Y2109324D01*
X1019096Y2108975D01*
X1018473Y2108638D01*
X1018407Y2108582D01*
X1018331Y2108539D01*
X1017798Y2108075D01*
X1017256Y2107623D01*
X1017201Y2107556D01*
X1017136Y2107498D01*
X1016703Y2106936D01*
X1016262Y2106388D01*
X1016222Y2106311D01*
X1016169Y2106242D01*
X1015570Y2105077D01*
X1014499Y2102490D01*
X1003809Y2091800D01*
X989842Y2086015D01*
X974725Y2086015D01*
G37*
%LPD*%
%LPC*%
G36*
X974725Y2186015D02*
X974725Y2186015D01*
X960758Y2191800D01*
X950068Y2202490D01*
X944283Y2216457D01*
X944283Y2231575D01*
X950068Y2245541D01*
X960758Y2256231D01*
X974725Y2262016D01*
X989842Y2262016D01*
X992429Y2260945D01*
X992512Y2260920D01*
X992589Y2260880D01*
X993269Y2260691D01*
X993946Y2260486D01*
X994033Y2260478D01*
X994117Y2260455D01*
X994821Y2260403D01*
X995525Y2260336D01*
X995611Y2260345D01*
X995698Y2260339D01*
X996400Y2260427D01*
X997102Y2260500D01*
X997184Y2260526D01*
X997271Y2260537D01*
X997941Y2260762D01*
X998615Y2260971D01*
X998691Y2261013D01*
X998774Y2261041D01*
X999388Y2261394D01*
X1000006Y2261732D01*
X1000072Y2261788D01*
X1000148Y2261831D01*
X1001147Y2262679D01*
X1007586Y2269119D01*
X1524795Y2269119D01*
X1524881Y2269127D01*
X1524968Y2269121D01*
X1525670Y2269206D01*
X1526372Y2269276D01*
X1526455Y2269301D01*
X1526541Y2269312D01*
X1527211Y2269533D01*
X1527888Y2269741D01*
X1527964Y2269782D01*
X1528046Y2269810D01*
X1528659Y2270159D01*
X1529282Y2270496D01*
X1529348Y2270551D01*
X1529424Y2270594D01*
X1529957Y2271059D01*
X1530500Y2271511D01*
X1530554Y2271578D01*
X1530619Y2271635D01*
X1531051Y2272196D01*
X1531493Y2272746D01*
X1531533Y2272823D01*
X1531586Y2272892D01*
X1532185Y2274057D01*
X1532787Y2275511D01*
X1542914Y2285638D01*
X1556146Y2291119D01*
X1630468Y2291119D01*
X1643700Y2285638D01*
X1653827Y2275511D01*
X1659308Y2262279D01*
X1659308Y2247957D01*
X1653827Y2234725D01*
X1643700Y2224598D01*
X1630468Y2219117D01*
X1556146Y2219117D01*
X1542914Y2224598D01*
X1532787Y2234725D01*
X1532185Y2236179D01*
X1532144Y2236256D01*
X1532117Y2236338D01*
X1531770Y2236953D01*
X1531436Y2237577D01*
X1531381Y2237644D01*
X1531338Y2237719D01*
X1530877Y2238253D01*
X1530427Y2238799D01*
X1530359Y2238853D01*
X1530302Y2238919D01*
X1529745Y2239352D01*
X1529196Y2239798D01*
X1529118Y2239838D01*
X1529050Y2239891D01*
X1528418Y2240206D01*
X1527792Y2240535D01*
X1527709Y2240559D01*
X1527631Y2240598D01*
X1526948Y2240782D01*
X1526270Y2240980D01*
X1526184Y2240988D01*
X1526100Y2241010D01*
X1524795Y2241117D01*
X1028283Y2241117D01*
X1028214Y2241110D01*
X1028145Y2241116D01*
X1027427Y2241032D01*
X1026706Y2240960D01*
X1026640Y2240940D01*
X1026570Y2240932D01*
X1025884Y2240708D01*
X1025190Y2240495D01*
X1025129Y2240462D01*
X1025063Y2240441D01*
X1024435Y2240086D01*
X1023796Y2239740D01*
X1023743Y2239696D01*
X1023682Y2239662D01*
X1023134Y2239189D01*
X1022578Y2238725D01*
X1022535Y2238672D01*
X1022482Y2238626D01*
X1022037Y2238053D01*
X1021585Y2237490D01*
X1021553Y2237429D01*
X1021510Y2237374D01*
X1021187Y2236724D01*
X1020854Y2236083D01*
X1020835Y2236017D01*
X1020804Y2235954D01*
X1020615Y2235253D01*
X1020415Y2234560D01*
X1020409Y2234491D01*
X1020391Y2234424D01*
X1020284Y2233118D01*
X1020284Y2216457D01*
X1014499Y2202490D01*
X1003809Y2191800D01*
X989842Y2186015D01*
X974725Y2186015D01*
G37*
%LPD*%
%LPC*%
G36*
X974725Y1986015D02*
X974725Y1986015D01*
X960758Y1991800D01*
X950068Y2002490D01*
X944283Y2016457D01*
X944283Y2031575D01*
X950068Y2045541D01*
X960758Y2056231D01*
X974725Y2062016D01*
X989842Y2062016D01*
X1005235Y2055640D01*
X1005318Y2055615D01*
X1005395Y2055576D01*
X1006073Y2055387D01*
X1006752Y2055182D01*
X1006839Y2055174D01*
X1006922Y2055150D01*
X1007627Y2055099D01*
X1008331Y2055032D01*
X1008417Y2055041D01*
X1008504Y2055034D01*
X1009205Y2055123D01*
X1009907Y2055195D01*
X1009990Y2055221D01*
X1010076Y2055232D01*
X1010746Y2055457D01*
X1011421Y2055667D01*
X1011497Y2055709D01*
X1011579Y2055736D01*
X1012194Y2056090D01*
X1012812Y2056428D01*
X1012878Y2056484D01*
X1012953Y2056527D01*
X1013953Y2057375D01*
X1017823Y2061245D01*
X1521533Y2061245D01*
X1521619Y2061253D01*
X1521706Y2061247D01*
X1522407Y2061332D01*
X1523110Y2061402D01*
X1523194Y2061427D01*
X1523280Y2061438D01*
X1523950Y2061659D01*
X1524626Y2061867D01*
X1524702Y2061908D01*
X1524785Y2061935D01*
X1525399Y2062286D01*
X1526020Y2062622D01*
X1526087Y2062677D01*
X1526162Y2062720D01*
X1526695Y2063184D01*
X1527238Y2063637D01*
X1527292Y2063704D01*
X1527358Y2063761D01*
X1527789Y2064322D01*
X1528232Y2064872D01*
X1528272Y2064949D01*
X1528325Y2065018D01*
X1528923Y2066183D01*
X1532787Y2075511D01*
X1542914Y2085638D01*
X1556146Y2091119D01*
X1630468Y2091119D01*
X1643700Y2085638D01*
X1653827Y2075511D01*
X1659308Y2062279D01*
X1659308Y2047957D01*
X1653827Y2034725D01*
X1643700Y2024598D01*
X1630468Y2019117D01*
X1556146Y2019117D01*
X1542914Y2024598D01*
X1536612Y2030900D01*
X1536532Y2030966D01*
X1536464Y2031045D01*
X1535919Y2031468D01*
X1535386Y2031905D01*
X1535293Y2031954D01*
X1535211Y2032017D01*
X1534595Y2032324D01*
X1533985Y2032648D01*
X1533885Y2032677D01*
X1533792Y2032724D01*
X1533125Y2032903D01*
X1532465Y2033100D01*
X1532362Y2033109D01*
X1532261Y2033136D01*
X1530956Y2033243D01*
X1032735Y2033243D01*
X1032631Y2033233D01*
X1032527Y2033241D01*
X1031844Y2033155D01*
X1031157Y2033086D01*
X1031058Y2033056D01*
X1030954Y2033043D01*
X1030302Y2032824D01*
X1029642Y2032621D01*
X1029550Y2032571D01*
X1029452Y2032539D01*
X1028855Y2032195D01*
X1028248Y2031866D01*
X1028168Y2031800D01*
X1028078Y2031748D01*
X1027078Y2030900D01*
X1022627Y2026449D01*
X1022561Y2026368D01*
X1022482Y2026301D01*
X1022059Y2025755D01*
X1021623Y2025222D01*
X1021574Y2025131D01*
X1021510Y2025048D01*
X1021203Y2024431D01*
X1020880Y2023822D01*
X1020850Y2023722D01*
X1020804Y2023629D01*
X1020625Y2022964D01*
X1020428Y2022302D01*
X1020418Y2022198D01*
X1020391Y2022098D01*
X1020284Y2020793D01*
X1020284Y2016457D01*
X1014499Y2002490D01*
X1003809Y1991800D01*
X989842Y1986015D01*
X974725Y1986015D01*
G37*
%LPD*%
%LPC*%
G36*
X141185Y1178960D02*
X141185Y1178960D01*
X127954Y1184441D01*
X117826Y1194568D01*
X112346Y1207800D01*
X112346Y1222122D01*
X117826Y1235353D01*
X127954Y1245481D01*
X141185Y1250961D01*
X215507Y1250961D01*
X228739Y1245481D01*
X233860Y1240359D01*
X233941Y1240293D01*
X234009Y1240215D01*
X234554Y1239791D01*
X235087Y1239355D01*
X235179Y1239306D01*
X235261Y1239242D01*
X235878Y1238935D01*
X236487Y1238612D01*
X236587Y1238582D01*
X236680Y1238536D01*
X237345Y1238357D01*
X238007Y1238160D01*
X238111Y1238151D01*
X238211Y1238124D01*
X239517Y1238016D01*
X641606Y1238016D01*
X641692Y1238025D01*
X641779Y1238018D01*
X642480Y1238103D01*
X643184Y1238173D01*
X643267Y1238199D01*
X643352Y1238209D01*
X644021Y1238430D01*
X644699Y1238639D01*
X644776Y1238680D01*
X644858Y1238707D01*
X645470Y1239056D01*
X646093Y1239393D01*
X646160Y1239449D01*
X646235Y1239492D01*
X646767Y1239955D01*
X647311Y1240408D01*
X647366Y1240476D01*
X647431Y1240533D01*
X647862Y1241093D01*
X648305Y1241644D01*
X648345Y1241720D01*
X648398Y1241789D01*
X648996Y1242954D01*
X650068Y1245541D01*
X660758Y1256231D01*
X674725Y1262016D01*
X689842Y1262016D01*
X703809Y1256231D01*
X714499Y1245541D01*
X720284Y1231575D01*
X720284Y1216457D01*
X714499Y1202490D01*
X703809Y1191800D01*
X689842Y1186015D01*
X674725Y1186015D01*
X660758Y1191800D01*
X650068Y1202490D01*
X648996Y1205077D01*
X648955Y1205154D01*
X648929Y1205236D01*
X648582Y1205850D01*
X648248Y1206474D01*
X648192Y1206541D01*
X648150Y1206617D01*
X647687Y1207153D01*
X647238Y1207696D01*
X647171Y1207751D01*
X647114Y1207817D01*
X646556Y1208250D01*
X646007Y1208696D01*
X645930Y1208736D01*
X645862Y1208789D01*
X645231Y1209103D01*
X644603Y1209432D01*
X644520Y1209457D01*
X644442Y1209495D01*
X643759Y1209679D01*
X643082Y1209878D01*
X642995Y1209885D01*
X642912Y1209908D01*
X641606Y1210015D01*
X250610Y1210015D01*
X250523Y1210006D01*
X250437Y1210013D01*
X249735Y1209928D01*
X249032Y1209858D01*
X248949Y1209832D01*
X248863Y1209822D01*
X248193Y1209600D01*
X247516Y1209393D01*
X247440Y1209352D01*
X247358Y1209324D01*
X246743Y1208974D01*
X246122Y1208638D01*
X246056Y1208583D01*
X245980Y1208539D01*
X245448Y1208076D01*
X244905Y1207623D01*
X244850Y1207555D01*
X244785Y1207498D01*
X244353Y1206938D01*
X243911Y1206388D01*
X243871Y1206311D01*
X243818Y1206242D01*
X243219Y1205077D01*
X238866Y1194568D01*
X228739Y1184441D01*
X215507Y1178960D01*
X141185Y1178960D01*
G37*
%LPD*%
%LPC*%
G36*
X141185Y1378960D02*
X141185Y1378960D01*
X127954Y1384441D01*
X117826Y1394568D01*
X112346Y1407800D01*
X112346Y1422122D01*
X117826Y1435353D01*
X127954Y1445481D01*
X141185Y1450961D01*
X215507Y1450961D01*
X228739Y1445480D01*
X233860Y1440359D01*
X233940Y1440294D01*
X234009Y1440215D01*
X234554Y1439791D01*
X235087Y1439355D01*
X235179Y1439306D01*
X235261Y1439242D01*
X235879Y1438935D01*
X236487Y1438612D01*
X236586Y1438583D01*
X236680Y1438536D01*
X237349Y1438356D01*
X238007Y1438160D01*
X238110Y1438151D01*
X238211Y1438124D01*
X239517Y1438016D01*
X641606Y1438016D01*
X641692Y1438025D01*
X641779Y1438018D01*
X642481Y1438103D01*
X643184Y1438173D01*
X643267Y1438199D01*
X643353Y1438209D01*
X644022Y1438431D01*
X644699Y1438639D01*
X644776Y1438680D01*
X644858Y1438707D01*
X645471Y1439056D01*
X646093Y1439393D01*
X646160Y1439449D01*
X646235Y1439492D01*
X646769Y1439957D01*
X647311Y1440408D01*
X647365Y1440476D01*
X647431Y1440533D01*
X647864Y1441096D01*
X648305Y1441644D01*
X648345Y1441720D01*
X648398Y1441789D01*
X648997Y1442955D01*
X650068Y1445541D01*
X660758Y1456231D01*
X674725Y1462016D01*
X689842Y1462016D01*
X703809Y1456231D01*
X714499Y1445541D01*
X720284Y1431575D01*
X720284Y1416457D01*
X714499Y1402490D01*
X703809Y1391800D01*
X689842Y1386015D01*
X674725Y1386015D01*
X660758Y1391800D01*
X650068Y1402490D01*
X648997Y1405077D01*
X648956Y1405153D01*
X648929Y1405236D01*
X648582Y1405851D01*
X648248Y1406474D01*
X648192Y1406541D01*
X648150Y1406617D01*
X647687Y1407153D01*
X647238Y1407696D01*
X647171Y1407751D01*
X647114Y1407817D01*
X646555Y1408251D01*
X646007Y1408695D01*
X645930Y1408736D01*
X645862Y1408789D01*
X645229Y1409104D01*
X644603Y1409432D01*
X644521Y1409456D01*
X644443Y1409495D01*
X643759Y1409679D01*
X643082Y1409878D01*
X642995Y1409885D01*
X642912Y1409908D01*
X641606Y1410015D01*
X250610Y1410015D01*
X250523Y1410006D01*
X250437Y1410013D01*
X249735Y1409928D01*
X249032Y1409858D01*
X248949Y1409832D01*
X248863Y1409822D01*
X248193Y1409600D01*
X247516Y1409393D01*
X247440Y1409352D01*
X247358Y1409324D01*
X246743Y1408974D01*
X246122Y1408638D01*
X246056Y1408583D01*
X245980Y1408539D01*
X245448Y1408076D01*
X244905Y1407623D01*
X244850Y1407555D01*
X244785Y1407498D01*
X244353Y1406938D01*
X243911Y1406388D01*
X243871Y1406311D01*
X243818Y1406242D01*
X243219Y1405077D01*
X238866Y1394568D01*
X228739Y1384441D01*
X215507Y1378960D01*
X141185Y1378960D01*
G37*
%LPD*%
%LPC*%
G36*
X141185Y1278960D02*
X141185Y1278960D01*
X127954Y1284441D01*
X117826Y1294568D01*
X112346Y1307800D01*
X112346Y1322122D01*
X117826Y1335353D01*
X127954Y1345481D01*
X141185Y1350961D01*
X215507Y1350961D01*
X228739Y1345481D01*
X238866Y1335353D01*
X239469Y1333899D01*
X239509Y1333823D01*
X239536Y1333740D01*
X239883Y1333126D01*
X240217Y1332502D01*
X240273Y1332435D01*
X240315Y1332360D01*
X240776Y1331826D01*
X241227Y1331280D01*
X241294Y1331225D01*
X241351Y1331159D01*
X241908Y1330727D01*
X242458Y1330281D01*
X242535Y1330240D01*
X242603Y1330187D01*
X243235Y1329873D01*
X243861Y1329544D01*
X243945Y1329520D01*
X244023Y1329481D01*
X244705Y1329297D01*
X245383Y1329099D01*
X245470Y1329091D01*
X245553Y1329069D01*
X246859Y1328961D01*
X637855Y1328961D01*
X637941Y1328970D01*
X638028Y1328963D01*
X638730Y1329048D01*
X639433Y1329118D01*
X639516Y1329144D01*
X639602Y1329154D01*
X640272Y1329376D01*
X640948Y1329583D01*
X641025Y1329625D01*
X641107Y1329652D01*
X641722Y1330002D01*
X642343Y1330338D01*
X642409Y1330394D01*
X642484Y1330437D01*
X643019Y1330902D01*
X643560Y1331353D01*
X643614Y1331421D01*
X643680Y1331478D01*
X644113Y1332040D01*
X644554Y1332588D01*
X644594Y1332665D01*
X644647Y1332734D01*
X645246Y1333899D01*
X650068Y1345541D01*
X660758Y1356231D01*
X674725Y1362016D01*
X689842Y1362016D01*
X703809Y1356231D01*
X714499Y1345541D01*
X720284Y1331575D01*
X720284Y1316457D01*
X714499Y1302490D01*
X703809Y1291800D01*
X689842Y1286015D01*
X674725Y1286015D01*
X660758Y1291800D01*
X653941Y1298617D01*
X653860Y1298683D01*
X653793Y1298762D01*
X653247Y1299185D01*
X652714Y1299621D01*
X652623Y1299670D01*
X652540Y1299734D01*
X651923Y1300041D01*
X651314Y1300364D01*
X651214Y1300394D01*
X651121Y1300440D01*
X650456Y1300619D01*
X649794Y1300816D01*
X649690Y1300826D01*
X649590Y1300853D01*
X648285Y1300960D01*
X246859Y1300960D01*
X246773Y1300951D01*
X246686Y1300958D01*
X245983Y1300873D01*
X245281Y1300803D01*
X245198Y1300777D01*
X245112Y1300767D01*
X244443Y1300545D01*
X243766Y1300338D01*
X243689Y1300296D01*
X243607Y1300269D01*
X242994Y1299920D01*
X242372Y1299583D01*
X242305Y1299527D01*
X242230Y1299484D01*
X241696Y1299020D01*
X241154Y1298568D01*
X241100Y1298500D01*
X241034Y1298443D01*
X240601Y1297881D01*
X240160Y1297333D01*
X240120Y1297256D01*
X240067Y1297187D01*
X239469Y1296022D01*
X238866Y1294568D01*
X228739Y1284441D01*
X215507Y1278960D01*
X141185Y1278960D01*
G37*
%LPD*%
%LPC*%
G36*
X141185Y978960D02*
X141185Y978960D01*
X127954Y984441D01*
X117826Y994568D01*
X112346Y1007800D01*
X112346Y1022122D01*
X117826Y1035353D01*
X127954Y1045481D01*
X141185Y1050961D01*
X215507Y1050961D01*
X228739Y1045481D01*
X238866Y1035353D01*
X239469Y1033899D01*
X239509Y1033823D01*
X239536Y1033740D01*
X239883Y1033126D01*
X240217Y1032502D01*
X240273Y1032435D01*
X240315Y1032360D01*
X240776Y1031826D01*
X241227Y1031280D01*
X241294Y1031225D01*
X241351Y1031159D01*
X241908Y1030727D01*
X242458Y1030281D01*
X242535Y1030240D01*
X242603Y1030187D01*
X243235Y1029873D01*
X243861Y1029544D01*
X243945Y1029520D01*
X244023Y1029481D01*
X244705Y1029297D01*
X245383Y1029099D01*
X245470Y1029091D01*
X245553Y1029069D01*
X246859Y1028961D01*
X637855Y1028961D01*
X637941Y1028970D01*
X638028Y1028963D01*
X638730Y1029048D01*
X639433Y1029118D01*
X639516Y1029144D01*
X639602Y1029154D01*
X640272Y1029376D01*
X640948Y1029583D01*
X641025Y1029625D01*
X641107Y1029652D01*
X641722Y1030002D01*
X642343Y1030338D01*
X642409Y1030394D01*
X642484Y1030437D01*
X643019Y1030902D01*
X643560Y1031353D01*
X643614Y1031421D01*
X643680Y1031478D01*
X644113Y1032040D01*
X644554Y1032588D01*
X644594Y1032665D01*
X644647Y1032734D01*
X645246Y1033899D01*
X650068Y1045541D01*
X660758Y1056231D01*
X674725Y1062016D01*
X689842Y1062016D01*
X703809Y1056231D01*
X714499Y1045541D01*
X720284Y1031575D01*
X720284Y1016457D01*
X714499Y1002490D01*
X703809Y991800D01*
X689842Y986015D01*
X674725Y986015D01*
X660758Y991800D01*
X653941Y998617D01*
X653860Y998683D01*
X653793Y998762D01*
X653247Y999185D01*
X652714Y999621D01*
X652623Y999670D01*
X652540Y999734D01*
X651923Y1000041D01*
X651314Y1000364D01*
X651214Y1000394D01*
X651121Y1000440D01*
X650456Y1000619D01*
X649794Y1000816D01*
X649690Y1000826D01*
X649590Y1000853D01*
X648285Y1000960D01*
X246859Y1000960D01*
X246773Y1000951D01*
X246686Y1000958D01*
X245983Y1000873D01*
X245281Y1000803D01*
X245198Y1000777D01*
X245112Y1000767D01*
X244443Y1000545D01*
X243766Y1000338D01*
X243689Y1000296D01*
X243607Y1000269D01*
X242994Y999920D01*
X242372Y999583D01*
X242305Y999527D01*
X242230Y999484D01*
X241696Y999020D01*
X241154Y998568D01*
X241100Y998500D01*
X241034Y998443D01*
X240601Y997881D01*
X240160Y997333D01*
X240120Y997256D01*
X240067Y997187D01*
X239469Y996022D01*
X238866Y994568D01*
X228739Y984441D01*
X215507Y978960D01*
X141185Y978960D01*
G37*
%LPD*%
%LPC*%
G36*
X141185Y1078960D02*
X141185Y1078960D01*
X127954Y1084441D01*
X117826Y1094568D01*
X112346Y1107800D01*
X112346Y1122122D01*
X117826Y1135353D01*
X127954Y1145481D01*
X141185Y1150961D01*
X215507Y1150961D01*
X228739Y1145481D01*
X238866Y1135353D01*
X239469Y1133899D01*
X239509Y1133823D01*
X239536Y1133740D01*
X239883Y1133126D01*
X240217Y1132502D01*
X240273Y1132435D01*
X240315Y1132360D01*
X240776Y1131826D01*
X241227Y1131280D01*
X241294Y1131225D01*
X241351Y1131159D01*
X241908Y1130727D01*
X242458Y1130281D01*
X242535Y1130240D01*
X242603Y1130187D01*
X243235Y1129873D01*
X243861Y1129544D01*
X243945Y1129520D01*
X244023Y1129481D01*
X244705Y1129297D01*
X245383Y1129099D01*
X245470Y1129091D01*
X245553Y1129069D01*
X246859Y1128961D01*
X637855Y1128961D01*
X637941Y1128970D01*
X638028Y1128963D01*
X638730Y1129048D01*
X639433Y1129118D01*
X639516Y1129144D01*
X639602Y1129154D01*
X640272Y1129376D01*
X640948Y1129583D01*
X641025Y1129625D01*
X641107Y1129652D01*
X641722Y1130002D01*
X642343Y1130338D01*
X642409Y1130394D01*
X642484Y1130437D01*
X643019Y1130902D01*
X643560Y1131353D01*
X643614Y1131421D01*
X643680Y1131478D01*
X644113Y1132040D01*
X644554Y1132588D01*
X644594Y1132665D01*
X644647Y1132734D01*
X645246Y1133899D01*
X650068Y1145541D01*
X660758Y1156231D01*
X674725Y1162016D01*
X689842Y1162016D01*
X703809Y1156231D01*
X714499Y1145541D01*
X720284Y1131575D01*
X720284Y1116457D01*
X714499Y1102490D01*
X703809Y1091800D01*
X689842Y1086015D01*
X674725Y1086015D01*
X660758Y1091800D01*
X653941Y1098617D01*
X653860Y1098683D01*
X653793Y1098762D01*
X653247Y1099185D01*
X652714Y1099621D01*
X652623Y1099670D01*
X652540Y1099734D01*
X651923Y1100041D01*
X651314Y1100364D01*
X651214Y1100394D01*
X651121Y1100440D01*
X650456Y1100619D01*
X649794Y1100816D01*
X649690Y1100826D01*
X649590Y1100853D01*
X648285Y1100960D01*
X246859Y1100960D01*
X246773Y1100951D01*
X246686Y1100958D01*
X245983Y1100873D01*
X245281Y1100803D01*
X245198Y1100777D01*
X245112Y1100767D01*
X244443Y1100545D01*
X243766Y1100338D01*
X243689Y1100296D01*
X243607Y1100269D01*
X242994Y1099920D01*
X242372Y1099583D01*
X242305Y1099527D01*
X242230Y1099484D01*
X241696Y1099020D01*
X241154Y1098568D01*
X241100Y1098500D01*
X241034Y1098443D01*
X240601Y1097881D01*
X240160Y1097333D01*
X240120Y1097256D01*
X240067Y1097187D01*
X239469Y1096022D01*
X238866Y1094568D01*
X228739Y1084441D01*
X215507Y1078960D01*
X141185Y1078960D01*
G37*
%LPD*%
%LPC*%
G36*
X141185Y878960D02*
X141185Y878960D01*
X127954Y884441D01*
X117826Y894568D01*
X112346Y907800D01*
X112346Y922122D01*
X117826Y935353D01*
X127954Y945481D01*
X141185Y950961D01*
X215507Y950961D01*
X228739Y945481D01*
X238866Y935353D01*
X239469Y933899D01*
X239509Y933823D01*
X239536Y933740D01*
X239883Y933126D01*
X240217Y932502D01*
X240273Y932435D01*
X240315Y932360D01*
X240776Y931826D01*
X241227Y931280D01*
X241294Y931225D01*
X241351Y931159D01*
X241908Y930727D01*
X242458Y930281D01*
X242535Y930240D01*
X242603Y930187D01*
X243235Y929873D01*
X243861Y929544D01*
X243945Y929520D01*
X244023Y929481D01*
X244705Y929297D01*
X245383Y929099D01*
X245470Y929091D01*
X245553Y929069D01*
X246859Y928961D01*
X637855Y928961D01*
X637942Y928970D01*
X638028Y928963D01*
X638730Y929048D01*
X639433Y929118D01*
X639516Y929144D01*
X639602Y929154D01*
X640272Y929376D01*
X640949Y929583D01*
X641025Y929625D01*
X641107Y929652D01*
X641722Y930002D01*
X642343Y930338D01*
X642409Y930394D01*
X642485Y930437D01*
X643017Y930901D01*
X643560Y931353D01*
X643615Y931421D01*
X643680Y931478D01*
X644112Y932039D01*
X644554Y932588D01*
X644594Y932665D01*
X644647Y932734D01*
X645246Y933899D01*
X650068Y945541D01*
X660758Y956231D01*
X674725Y962016D01*
X689842Y962016D01*
X703809Y956231D01*
X714499Y945541D01*
X720284Y931575D01*
X720284Y916457D01*
X714499Y902490D01*
X703809Y891800D01*
X689842Y886015D01*
X674725Y886015D01*
X660758Y891800D01*
X653941Y898617D01*
X653861Y898683D01*
X653793Y898762D01*
X653248Y899185D01*
X652715Y899621D01*
X652623Y899670D01*
X652540Y899734D01*
X651924Y900041D01*
X651314Y900364D01*
X651214Y900394D01*
X651121Y900440D01*
X650454Y900620D01*
X649795Y900816D01*
X649691Y900825D01*
X649590Y900853D01*
X648285Y900960D01*
X246859Y900960D01*
X246773Y900951D01*
X246686Y900958D01*
X245983Y900873D01*
X245281Y900803D01*
X245198Y900777D01*
X245112Y900767D01*
X244443Y900545D01*
X243766Y900338D01*
X243689Y900296D01*
X243607Y900269D01*
X242994Y899920D01*
X242372Y899583D01*
X242305Y899527D01*
X242230Y899484D01*
X241696Y899020D01*
X241154Y898568D01*
X241100Y898500D01*
X241034Y898443D01*
X240601Y897881D01*
X240160Y897333D01*
X240120Y897256D01*
X240067Y897187D01*
X239469Y896022D01*
X238866Y894568D01*
X228739Y884441D01*
X215507Y878960D01*
X141185Y878960D01*
G37*
%LPD*%
%LPC*%
G36*
X674725Y1886015D02*
X674725Y1886015D01*
X660758Y1891800D01*
X650068Y1902490D01*
X648996Y1905077D01*
X648955Y1905154D01*
X648929Y1905236D01*
X648582Y1905850D01*
X648248Y1906474D01*
X648192Y1906541D01*
X648150Y1906617D01*
X647687Y1907153D01*
X647238Y1907696D01*
X647171Y1907751D01*
X647114Y1907817D01*
X646556Y1908250D01*
X646007Y1908696D01*
X645930Y1908736D01*
X645862Y1908789D01*
X645231Y1909103D01*
X644603Y1909432D01*
X644520Y1909457D01*
X644442Y1909495D01*
X643759Y1909679D01*
X643082Y1909878D01*
X642995Y1909885D01*
X642912Y1909908D01*
X641606Y1910015D01*
X269661Y1910015D01*
X269540Y1910003D01*
X269419Y1910011D01*
X268754Y1909925D01*
X268084Y1909858D01*
X267968Y1909822D01*
X267847Y1909807D01*
X266600Y1909406D01*
X254877Y1904550D01*
X180555Y1904550D01*
X167324Y1910031D01*
X157196Y1920158D01*
X151716Y1933390D01*
X151716Y1947712D01*
X157196Y1960944D01*
X167324Y1971071D01*
X180555Y1976552D01*
X254877Y1976552D01*
X268109Y1971071D01*
X278236Y1960944D01*
X283717Y1947712D01*
X283717Y1946016D01*
X283724Y1945946D01*
X283718Y1945877D01*
X283802Y1945159D01*
X283874Y1944438D01*
X283895Y1944372D01*
X283903Y1944303D01*
X284126Y1943616D01*
X284339Y1942922D01*
X284373Y1942861D01*
X284394Y1942796D01*
X284748Y1942167D01*
X285094Y1941528D01*
X285139Y1941475D01*
X285173Y1941415D01*
X285646Y1940867D01*
X286109Y1940311D01*
X286163Y1940267D01*
X286209Y1940215D01*
X286782Y1939769D01*
X287344Y1939317D01*
X287406Y1939285D01*
X287461Y1939242D01*
X288111Y1938919D01*
X288751Y1938586D01*
X288818Y1938567D01*
X288880Y1938536D01*
X289581Y1938347D01*
X290275Y1938147D01*
X290344Y1938142D01*
X290411Y1938124D01*
X291716Y1938016D01*
X641606Y1938016D01*
X641692Y1938025D01*
X641779Y1938018D01*
X642480Y1938103D01*
X643184Y1938173D01*
X643267Y1938199D01*
X643352Y1938209D01*
X644021Y1938430D01*
X644699Y1938639D01*
X644776Y1938680D01*
X644858Y1938707D01*
X645470Y1939056D01*
X646093Y1939393D01*
X646160Y1939449D01*
X646235Y1939492D01*
X646767Y1939955D01*
X647311Y1940408D01*
X647366Y1940476D01*
X647431Y1940533D01*
X647862Y1941093D01*
X648305Y1941644D01*
X648345Y1941720D01*
X648398Y1941789D01*
X648996Y1942954D01*
X650068Y1945541D01*
X660758Y1956231D01*
X674725Y1962016D01*
X689842Y1962016D01*
X703809Y1956231D01*
X714499Y1945541D01*
X720284Y1931575D01*
X720284Y1916457D01*
X714499Y1902490D01*
X703809Y1891800D01*
X689842Y1886015D01*
X674725Y1886015D01*
G37*
%LPD*%
%LPC*%
G36*
X674725Y2186015D02*
X674725Y2186015D01*
X660758Y2191800D01*
X650068Y2202490D01*
X644283Y2216457D01*
X644283Y2218551D01*
X644276Y2218620D01*
X644281Y2218689D01*
X644197Y2219408D01*
X644126Y2220129D01*
X644105Y2220195D01*
X644097Y2220264D01*
X643873Y2220951D01*
X643661Y2221644D01*
X643627Y2221706D01*
X643606Y2221771D01*
X643252Y2222399D01*
X642906Y2223038D01*
X642861Y2223092D01*
X642827Y2223152D01*
X642354Y2223700D01*
X641891Y2224256D01*
X641837Y2224300D01*
X641791Y2224352D01*
X641218Y2224797D01*
X640656Y2225250D01*
X640594Y2225282D01*
X640539Y2225324D01*
X639889Y2225648D01*
X639249Y2225981D01*
X639182Y2226000D01*
X639120Y2226031D01*
X638419Y2226220D01*
X637725Y2226419D01*
X637656Y2226425D01*
X637589Y2226443D01*
X636283Y2226550D01*
X286229Y2226550D01*
X286143Y2226542D01*
X286056Y2226549D01*
X285353Y2226463D01*
X284651Y2226393D01*
X284569Y2226368D01*
X284482Y2226357D01*
X283813Y2226136D01*
X283136Y2225928D01*
X283059Y2225887D01*
X282977Y2225860D01*
X282365Y2225511D01*
X281742Y2225173D01*
X281675Y2225118D01*
X281600Y2225075D01*
X281066Y2224610D01*
X280524Y2224158D01*
X280470Y2224091D01*
X280404Y2224034D01*
X279971Y2223471D01*
X279530Y2222923D01*
X279490Y2222847D01*
X279437Y2222777D01*
X278839Y2221612D01*
X278236Y2220158D01*
X268109Y2210031D01*
X254877Y2204550D01*
X180555Y2204550D01*
X167324Y2210031D01*
X157196Y2220158D01*
X151716Y2233390D01*
X151716Y2247712D01*
X157196Y2260944D01*
X167324Y2271071D01*
X180555Y2276552D01*
X254877Y2276552D01*
X268109Y2271071D01*
X278236Y2260944D01*
X278839Y2259490D01*
X278880Y2259414D01*
X278906Y2259331D01*
X279253Y2258716D01*
X279587Y2258093D01*
X279643Y2258026D01*
X279685Y2257950D01*
X280146Y2257416D01*
X280597Y2256870D01*
X280664Y2256816D01*
X280721Y2256750D01*
X281280Y2256316D01*
X281828Y2255871D01*
X281905Y2255831D01*
X281973Y2255778D01*
X282605Y2255463D01*
X283232Y2255135D01*
X283315Y2255110D01*
X283393Y2255071D01*
X284075Y2254888D01*
X284753Y2254689D01*
X284840Y2254682D01*
X284923Y2254659D01*
X286229Y2254552D01*
X655765Y2254552D01*
X655869Y2254562D01*
X655974Y2254555D01*
X656657Y2254641D01*
X657343Y2254709D01*
X657443Y2254740D01*
X657546Y2254753D01*
X658197Y2254971D01*
X658858Y2255174D01*
X658951Y2255224D01*
X659049Y2255257D01*
X659645Y2255600D01*
X660252Y2255929D01*
X660333Y2255996D01*
X660423Y2256048D01*
X660526Y2256135D01*
X674725Y2262016D01*
X689842Y2262016D01*
X703809Y2256231D01*
X714499Y2245541D01*
X720284Y2231575D01*
X720284Y2216457D01*
X714499Y2202490D01*
X703809Y2191800D01*
X689842Y2186015D01*
X674725Y2186015D01*
G37*
%LPD*%
%LPC*%
G36*
X674725Y2086015D02*
X674725Y2086015D01*
X660758Y2091800D01*
X650068Y2102490D01*
X644283Y2116457D01*
X644283Y2118551D01*
X644276Y2118620D01*
X644281Y2118689D01*
X644197Y2119408D01*
X644126Y2120129D01*
X644105Y2120195D01*
X644097Y2120264D01*
X643873Y2120951D01*
X643661Y2121644D01*
X643627Y2121706D01*
X643606Y2121771D01*
X643252Y2122399D01*
X642906Y2123038D01*
X642861Y2123092D01*
X642827Y2123152D01*
X642354Y2123700D01*
X641891Y2124256D01*
X641837Y2124300D01*
X641791Y2124352D01*
X641218Y2124797D01*
X640656Y2125250D01*
X640594Y2125282D01*
X640539Y2125324D01*
X639889Y2125648D01*
X639249Y2125981D01*
X639182Y2126000D01*
X639120Y2126031D01*
X638419Y2126220D01*
X637725Y2126419D01*
X637656Y2126425D01*
X637589Y2126443D01*
X636283Y2126550D01*
X286229Y2126550D01*
X286143Y2126542D01*
X286056Y2126549D01*
X285353Y2126463D01*
X284651Y2126393D01*
X284569Y2126368D01*
X284482Y2126357D01*
X283813Y2126136D01*
X283136Y2125928D01*
X283059Y2125887D01*
X282977Y2125860D01*
X282365Y2125511D01*
X281742Y2125173D01*
X281675Y2125118D01*
X281600Y2125075D01*
X281066Y2124610D01*
X280524Y2124158D01*
X280470Y2124091D01*
X280404Y2124034D01*
X279971Y2123471D01*
X279530Y2122923D01*
X279490Y2122847D01*
X279437Y2122777D01*
X278839Y2121612D01*
X278236Y2120158D01*
X268109Y2110031D01*
X254877Y2104550D01*
X180555Y2104550D01*
X167324Y2110031D01*
X157196Y2120158D01*
X151716Y2133390D01*
X151716Y2147712D01*
X157196Y2160944D01*
X167324Y2171071D01*
X180555Y2176552D01*
X254877Y2176552D01*
X268109Y2171071D01*
X278236Y2160944D01*
X278839Y2159490D01*
X278880Y2159414D01*
X278906Y2159331D01*
X279253Y2158716D01*
X279587Y2158093D01*
X279643Y2158026D01*
X279685Y2157950D01*
X280146Y2157416D01*
X280597Y2156870D01*
X280664Y2156816D01*
X280721Y2156750D01*
X281279Y2156317D01*
X281828Y2155871D01*
X281905Y2155831D01*
X281973Y2155778D01*
X282605Y2155463D01*
X283232Y2155135D01*
X283315Y2155110D01*
X283393Y2155071D01*
X284075Y2154888D01*
X284753Y2154689D01*
X284840Y2154682D01*
X284923Y2154659D01*
X286229Y2154552D01*
X655765Y2154552D01*
X655869Y2154562D01*
X655974Y2154555D01*
X656657Y2154641D01*
X657343Y2154709D01*
X657443Y2154740D01*
X657546Y2154753D01*
X658197Y2154971D01*
X658858Y2155174D01*
X658951Y2155224D01*
X659049Y2155257D01*
X659645Y2155600D01*
X660252Y2155929D01*
X660333Y2155996D01*
X660423Y2156048D01*
X660526Y2156135D01*
X674725Y2162016D01*
X689842Y2162016D01*
X703809Y2156231D01*
X714499Y2145541D01*
X720284Y2131575D01*
X720284Y2116457D01*
X714499Y2102490D01*
X703809Y2091800D01*
X689842Y2086015D01*
X674725Y2086015D01*
G37*
%LPD*%
%LPC*%
G36*
X674725Y1986015D02*
X674725Y1986015D01*
X660758Y1991800D01*
X650068Y2002490D01*
X644283Y2016457D01*
X644283Y2018551D01*
X644276Y2018620D01*
X644281Y2018689D01*
X644197Y2019408D01*
X644126Y2020129D01*
X644105Y2020195D01*
X644097Y2020264D01*
X643873Y2020951D01*
X643661Y2021644D01*
X643627Y2021706D01*
X643606Y2021771D01*
X643252Y2022399D01*
X642906Y2023038D01*
X642861Y2023092D01*
X642827Y2023152D01*
X642354Y2023700D01*
X641891Y2024256D01*
X641837Y2024300D01*
X641791Y2024352D01*
X641218Y2024797D01*
X640656Y2025250D01*
X640594Y2025282D01*
X640539Y2025324D01*
X639889Y2025648D01*
X639249Y2025981D01*
X639182Y2026000D01*
X639120Y2026031D01*
X638419Y2026220D01*
X637725Y2026419D01*
X637656Y2026425D01*
X637589Y2026443D01*
X636283Y2026550D01*
X286229Y2026550D01*
X286143Y2026542D01*
X286056Y2026549D01*
X285353Y2026463D01*
X284651Y2026393D01*
X284569Y2026368D01*
X284482Y2026357D01*
X283813Y2026136D01*
X283136Y2025928D01*
X283059Y2025887D01*
X282977Y2025860D01*
X282365Y2025511D01*
X281742Y2025173D01*
X281675Y2025118D01*
X281600Y2025075D01*
X281066Y2024610D01*
X280524Y2024158D01*
X280470Y2024091D01*
X280404Y2024034D01*
X279971Y2023471D01*
X279530Y2022923D01*
X279490Y2022847D01*
X279437Y2022777D01*
X278839Y2021612D01*
X278236Y2020158D01*
X268109Y2010031D01*
X254877Y2004550D01*
X180555Y2004550D01*
X167324Y2010031D01*
X157196Y2020158D01*
X151716Y2033390D01*
X151716Y2047712D01*
X157196Y2060944D01*
X167324Y2071071D01*
X180555Y2076552D01*
X254877Y2076552D01*
X268109Y2071071D01*
X278236Y2060944D01*
X278839Y2059490D01*
X278880Y2059414D01*
X278906Y2059331D01*
X279253Y2058716D01*
X279587Y2058093D01*
X279643Y2058026D01*
X279685Y2057950D01*
X280146Y2057416D01*
X280597Y2056870D01*
X280664Y2056816D01*
X280721Y2056750D01*
X281279Y2056317D01*
X281828Y2055871D01*
X281905Y2055831D01*
X281973Y2055778D01*
X282605Y2055463D01*
X283232Y2055135D01*
X283315Y2055110D01*
X283393Y2055071D01*
X284075Y2054888D01*
X284753Y2054689D01*
X284840Y2054682D01*
X284923Y2054659D01*
X286229Y2054552D01*
X655765Y2054552D01*
X655869Y2054562D01*
X655974Y2054555D01*
X656657Y2054641D01*
X657343Y2054709D01*
X657443Y2054740D01*
X657546Y2054753D01*
X658197Y2054971D01*
X658858Y2055174D01*
X658951Y2055224D01*
X659049Y2055257D01*
X659645Y2055600D01*
X660252Y2055929D01*
X660333Y2055996D01*
X660423Y2056048D01*
X660526Y2056135D01*
X674725Y2062016D01*
X689842Y2062016D01*
X703809Y2056231D01*
X714499Y2045541D01*
X720284Y2031575D01*
X720284Y2016457D01*
X714499Y2002490D01*
X703809Y1991800D01*
X689842Y1986015D01*
X674725Y1986015D01*
G37*
%LPD*%
%LPC*%
G36*
X1340682Y1666818D02*
X1340682Y1666818D01*
X1321936Y1685564D01*
X1321936Y1690992D01*
X1321929Y1691061D01*
X1321935Y1691130D01*
X1321851Y1691849D01*
X1321779Y1692570D01*
X1321759Y1692636D01*
X1321751Y1692705D01*
X1321528Y1693388D01*
X1321314Y1694085D01*
X1321281Y1694147D01*
X1321259Y1694212D01*
X1320905Y1694840D01*
X1320559Y1695479D01*
X1320515Y1695533D01*
X1320481Y1695593D01*
X1320008Y1696141D01*
X1319544Y1696697D01*
X1319490Y1696741D01*
X1319445Y1696793D01*
X1318871Y1697238D01*
X1318309Y1697691D01*
X1318248Y1697723D01*
X1318193Y1697765D01*
X1317543Y1698089D01*
X1316902Y1698422D01*
X1316836Y1698441D01*
X1316773Y1698472D01*
X1316072Y1698661D01*
X1315379Y1698860D01*
X1315310Y1698866D01*
X1315243Y1698884D01*
X1313937Y1698991D01*
X1188856Y1698991D01*
X1188770Y1698983D01*
X1188683Y1698990D01*
X1187981Y1698904D01*
X1187279Y1698834D01*
X1187196Y1698809D01*
X1187110Y1698798D01*
X1186439Y1698577D01*
X1185763Y1698369D01*
X1185687Y1698328D01*
X1185604Y1698301D01*
X1184990Y1697951D01*
X1184369Y1697614D01*
X1184302Y1697559D01*
X1184227Y1697516D01*
X1183694Y1697052D01*
X1183151Y1696599D01*
X1183097Y1696532D01*
X1183031Y1696475D01*
X1182600Y1695914D01*
X1182157Y1695364D01*
X1182118Y1695287D01*
X1182065Y1695219D01*
X1181466Y1694053D01*
X1180277Y1691183D01*
X1169446Y1680353D01*
X1155296Y1674491D01*
X1139979Y1674491D01*
X1125829Y1680353D01*
X1114998Y1691183D01*
X1113810Y1694053D01*
X1113769Y1694130D01*
X1113742Y1694212D01*
X1113396Y1694826D01*
X1113061Y1695451D01*
X1113006Y1695518D01*
X1112963Y1695593D01*
X1112502Y1696127D01*
X1112051Y1696673D01*
X1111984Y1696727D01*
X1111927Y1696793D01*
X1111369Y1697227D01*
X1110820Y1697672D01*
X1110743Y1697712D01*
X1110675Y1697765D01*
X1110041Y1698081D01*
X1109417Y1698409D01*
X1109334Y1698433D01*
X1109256Y1698472D01*
X1108572Y1698656D01*
X1107895Y1698854D01*
X1107809Y1698862D01*
X1107725Y1698884D01*
X1106419Y1698991D01*
X1014313Y1698991D01*
X1014210Y1698981D01*
X1014106Y1698989D01*
X1013423Y1698903D01*
X1012736Y1698834D01*
X1012636Y1698804D01*
X1012533Y1698791D01*
X1011881Y1698572D01*
X1011220Y1698369D01*
X1011129Y1698320D01*
X1011030Y1698287D01*
X1010432Y1697942D01*
X1009826Y1697614D01*
X1009747Y1697548D01*
X1009656Y1697496D01*
X1008657Y1696648D01*
X1003809Y1691800D01*
X989842Y1686015D01*
X974725Y1686015D01*
X960758Y1691800D01*
X950068Y1702490D01*
X944283Y1716457D01*
X944283Y1731575D01*
X950068Y1745541D01*
X960758Y1756231D01*
X974725Y1762016D01*
X989842Y1762016D01*
X1003809Y1756231D01*
X1014499Y1745541D01*
X1020136Y1731931D01*
X1020178Y1731854D01*
X1020204Y1731772D01*
X1020551Y1731157D01*
X1020885Y1730533D01*
X1020941Y1730467D01*
X1020983Y1730391D01*
X1021445Y1729857D01*
X1021895Y1729311D01*
X1021962Y1729257D01*
X1022019Y1729191D01*
X1022578Y1728757D01*
X1023126Y1728312D01*
X1023203Y1728272D01*
X1023271Y1728219D01*
X1023908Y1727902D01*
X1024530Y1727576D01*
X1024612Y1727551D01*
X1024690Y1727512D01*
X1025375Y1727328D01*
X1026051Y1727130D01*
X1026138Y1727123D01*
X1026221Y1727100D01*
X1027527Y1726993D01*
X1106419Y1726993D01*
X1106506Y1727001D01*
X1106592Y1726995D01*
X1107294Y1727080D01*
X1107997Y1727150D01*
X1108080Y1727175D01*
X1108166Y1727186D01*
X1108836Y1727407D01*
X1109512Y1727615D01*
X1109589Y1727656D01*
X1109671Y1727683D01*
X1110286Y1728034D01*
X1110906Y1728370D01*
X1110973Y1728425D01*
X1111048Y1728468D01*
X1111581Y1728932D01*
X1112124Y1729385D01*
X1112179Y1729453D01*
X1112244Y1729509D01*
X1112675Y1730070D01*
X1113118Y1730620D01*
X1113158Y1730697D01*
X1113211Y1730766D01*
X1113810Y1731931D01*
X1114998Y1734801D01*
X1125829Y1745631D01*
X1139979Y1751493D01*
X1155296Y1751493D01*
X1169446Y1745631D01*
X1180277Y1734801D01*
X1181466Y1731931D01*
X1181507Y1731854D01*
X1181534Y1731772D01*
X1181880Y1731158D01*
X1182215Y1730534D01*
X1182270Y1730467D01*
X1182313Y1730391D01*
X1182774Y1729857D01*
X1183224Y1729311D01*
X1183292Y1729257D01*
X1183348Y1729191D01*
X1183907Y1728757D01*
X1184455Y1728312D01*
X1184532Y1728272D01*
X1184601Y1728219D01*
X1185235Y1727903D01*
X1185859Y1727576D01*
X1185942Y1727551D01*
X1186020Y1727512D01*
X1186704Y1727328D01*
X1187380Y1727130D01*
X1187467Y1727123D01*
X1187551Y1727100D01*
X1188856Y1726993D01*
X1333542Y1726993D01*
X1333645Y1727003D01*
X1333749Y1726995D01*
X1334432Y1727081D01*
X1335119Y1727150D01*
X1335219Y1727180D01*
X1335322Y1727193D01*
X1335974Y1727412D01*
X1336635Y1727615D01*
X1336727Y1727665D01*
X1336825Y1727698D01*
X1337421Y1728041D01*
X1338029Y1728370D01*
X1338109Y1728437D01*
X1338199Y1728488D01*
X1339198Y1729336D01*
X1340682Y1730820D01*
X1367192Y1730820D01*
X1385938Y1712074D01*
X1385938Y1685564D01*
X1367192Y1666818D01*
X1340682Y1666818D01*
G37*
%LPD*%
%LPC*%
G36*
X578477Y1497527D02*
X578477Y1497527D01*
X559732Y1516273D01*
X559732Y1538415D01*
X559721Y1538518D01*
X559729Y1538622D01*
X559643Y1539305D01*
X559574Y1539992D01*
X559544Y1540092D01*
X559531Y1540195D01*
X559312Y1540847D01*
X559109Y1541508D01*
X559060Y1541600D01*
X559027Y1541698D01*
X558683Y1542294D01*
X558354Y1542902D01*
X558288Y1542982D01*
X558236Y1543072D01*
X557389Y1544071D01*
X431922Y1669538D01*
X431905Y1669708D01*
X431875Y1669808D01*
X431862Y1669911D01*
X431643Y1670563D01*
X431440Y1671224D01*
X431390Y1671315D01*
X431357Y1671414D01*
X431014Y1672011D01*
X430685Y1672618D01*
X430619Y1672697D01*
X430567Y1672788D01*
X429719Y1673787D01*
X407062Y1696444D01*
X407062Y1728753D01*
X429908Y1751599D01*
X462217Y1751599D01*
X485064Y1728753D01*
X485064Y1696444D01*
X470496Y1681876D01*
X470452Y1681822D01*
X470399Y1681778D01*
X469952Y1681212D01*
X469492Y1680650D01*
X469459Y1680588D01*
X469416Y1680534D01*
X469089Y1679891D01*
X468749Y1679249D01*
X468729Y1679182D01*
X468698Y1679121D01*
X468504Y1678427D01*
X468297Y1677730D01*
X468290Y1677660D01*
X468272Y1677594D01*
X468219Y1676875D01*
X468153Y1676151D01*
X468161Y1676081D01*
X468156Y1676013D01*
X468246Y1675298D01*
X468324Y1674575D01*
X468345Y1674508D01*
X468354Y1674440D01*
X468584Y1673753D01*
X468802Y1673063D01*
X468836Y1673003D01*
X468858Y1672937D01*
X469223Y1672303D01*
X469569Y1671676D01*
X469614Y1671623D01*
X469649Y1671563D01*
X470496Y1670564D01*
X577189Y1563871D01*
X577269Y1563805D01*
X577337Y1563726D01*
X577882Y1563303D01*
X578415Y1562867D01*
X578507Y1562818D01*
X578589Y1562754D01*
X579206Y1562447D01*
X579816Y1562124D01*
X579915Y1562094D01*
X580009Y1562048D01*
X580673Y1561869D01*
X581335Y1561672D01*
X581439Y1561662D01*
X581539Y1561635D01*
X582845Y1561528D01*
X604987Y1561528D01*
X623733Y1542782D01*
X623733Y1516273D01*
X604987Y1497527D01*
X578477Y1497527D01*
G37*
%LPD*%
%LPC*%
G36*
X698486Y586503D02*
X698486Y586503D01*
X682681Y593050D01*
X670585Y605146D01*
X664039Y620950D01*
X664039Y638057D01*
X670585Y653862D01*
X682681Y665958D01*
X698486Y672505D01*
X715593Y672505D01*
X731397Y665958D01*
X743494Y653862D01*
X750040Y638057D01*
X750040Y620950D01*
X743494Y605146D01*
X731397Y593050D01*
X715593Y586503D01*
X698486Y586503D01*
G37*
%LPD*%
%LPC*%
G36*
X1395133Y239621D02*
X1395133Y239621D01*
X1395133Y317414D01*
X1405475Y315053D01*
X1415546Y311530D01*
X1425160Y306900D01*
X1434195Y301223D01*
X1442536Y294571D01*
X1450082Y287025D01*
X1456735Y278683D01*
X1462412Y269648D01*
X1467041Y260034D01*
X1470565Y249964D01*
X1472926Y239621D01*
X1395133Y239621D01*
G37*
%LPD*%
%LPC*%
G36*
X1277023Y424660D02*
X1277023Y424660D01*
X1277023Y502453D01*
X1287365Y500093D01*
X1297436Y496569D01*
X1307049Y491939D01*
X1316084Y486262D01*
X1324426Y479610D01*
X1331972Y472064D01*
X1338625Y463722D01*
X1344302Y454687D01*
X1348931Y445074D01*
X1352455Y435003D01*
X1354816Y424660D01*
X1277023Y424660D01*
G37*
%LPD*%
%LPC*%
G36*
X1285342Y239621D02*
X1285342Y239621D01*
X1287702Y249964D01*
X1291226Y260034D01*
X1295856Y269648D01*
X1301533Y278683D01*
X1308185Y287025D01*
X1315731Y294571D01*
X1324073Y301223D01*
X1333108Y306900D01*
X1342721Y311530D01*
X1352792Y315053D01*
X1363135Y317414D01*
X1363135Y239621D01*
X1285342Y239621D01*
G37*
%LPD*%
%LPC*%
G36*
X1277023Y392662D02*
X1277023Y392662D01*
X1354816Y392662D01*
X1352455Y382320D01*
X1348931Y372249D01*
X1344302Y362635D01*
X1338625Y353601D01*
X1331972Y345259D01*
X1324426Y337713D01*
X1316084Y331060D01*
X1307049Y325383D01*
X1297436Y320754D01*
X1287365Y317230D01*
X1277023Y314869D01*
X1277023Y392662D01*
G37*
%LPD*%
%LPC*%
G36*
X1167231Y424660D02*
X1167231Y424660D01*
X1169592Y435003D01*
X1173116Y445074D01*
X1177746Y454687D01*
X1183423Y463722D01*
X1190075Y472064D01*
X1197621Y479610D01*
X1205963Y486262D01*
X1214998Y491939D01*
X1224611Y496569D01*
X1234682Y500093D01*
X1245024Y502453D01*
X1245024Y424660D01*
X1167231Y424660D01*
G37*
%LPD*%
%LPC*%
G36*
X1395133Y207623D02*
X1395133Y207623D01*
X1472926Y207623D01*
X1470565Y197280D01*
X1467041Y187210D01*
X1462412Y177596D01*
X1456735Y168561D01*
X1450082Y160219D01*
X1442536Y152673D01*
X1434195Y146021D01*
X1425160Y140344D01*
X1415546Y135714D01*
X1405475Y132191D01*
X1395133Y129830D01*
X1395133Y207623D01*
G37*
%LPD*%
%LPC*%
G36*
X1352792Y132191D02*
X1352792Y132191D01*
X1342721Y135714D01*
X1333108Y140344D01*
X1324073Y146021D01*
X1315731Y152673D01*
X1308185Y160219D01*
X1301533Y168561D01*
X1295856Y177596D01*
X1291226Y187210D01*
X1287702Y197280D01*
X1285342Y207623D01*
X1363135Y207623D01*
X1363135Y129830D01*
X1352792Y132191D01*
G37*
%LPD*%
%LPC*%
G36*
X1234682Y317230D02*
X1234682Y317230D01*
X1224611Y320754D01*
X1214998Y325383D01*
X1205963Y331060D01*
X1197621Y337713D01*
X1190075Y345259D01*
X1183423Y353601D01*
X1177746Y362635D01*
X1173116Y372249D01*
X1169592Y382320D01*
X1167232Y392662D01*
X1245024Y392662D01*
X1245024Y314869D01*
X1234682Y317230D01*
G37*
%LPD*%
%LPC*%
G36*
X1286351Y879417D02*
X1286351Y879417D01*
X1267606Y898162D01*
X1267606Y924672D01*
X1286351Y943418D01*
X1312861Y943418D01*
X1331607Y924672D01*
X1331607Y898162D01*
X1312861Y879417D01*
X1286351Y879417D01*
G37*
%LPD*%
%LPC*%
G36*
X1627716Y814724D02*
X1627716Y814724D01*
X1627716Y844725D01*
X1650865Y844725D01*
X1657083Y843740D01*
X1663072Y841794D01*
X1668681Y838936D01*
X1673775Y835235D01*
X1678227Y830783D01*
X1681928Y825689D01*
X1684787Y820079D01*
X1686527Y814724D01*
X1627716Y814724D01*
G37*
%LPD*%
%LPC*%
G36*
X1627716Y1614724D02*
X1627716Y1614724D01*
X1627716Y1644725D01*
X1650865Y1644725D01*
X1657083Y1643740D01*
X1663072Y1641794D01*
X1668681Y1638936D01*
X1673775Y1635235D01*
X1678227Y1630783D01*
X1681928Y1625689D01*
X1684787Y1620079D01*
X1686527Y1614724D01*
X1627716Y1614724D01*
G37*
%LPD*%
%LPC*%
G36*
X156062Y283621D02*
X156062Y283621D01*
X156062Y313623D01*
X179211Y313623D01*
X185430Y312638D01*
X191418Y310692D01*
X197027Y307834D01*
X202122Y304133D01*
X206574Y299681D01*
X210275Y294586D01*
X213133Y288977D01*
X214873Y283621D01*
X156062Y283621D01*
G37*
%LPD*%
%LPC*%
G36*
X77253Y283621D02*
X77253Y283621D01*
X78993Y288977D01*
X81851Y294586D01*
X85552Y299681D01*
X90004Y304133D01*
X95099Y307834D01*
X100708Y310692D01*
X106696Y312638D01*
X112914Y313623D01*
X136063Y313623D01*
X136063Y283621D01*
X77253Y283621D01*
G37*
%LPD*%
%LPC*%
G36*
X1548906Y1614724D02*
X1548906Y1614724D01*
X1550646Y1620079D01*
X1553505Y1625689D01*
X1557206Y1630783D01*
X1561658Y1635235D01*
X1566752Y1638936D01*
X1572361Y1641794D01*
X1578350Y1643740D01*
X1584568Y1644725D01*
X1607717Y1644725D01*
X1607717Y1614724D01*
X1548906Y1614724D01*
G37*
%LPD*%
%LPC*%
G36*
X1627716Y1564724D02*
X1627716Y1564724D01*
X1627716Y1594725D01*
X1686527Y1594725D01*
X1684787Y1589369D01*
X1681928Y1583760D01*
X1678227Y1578666D01*
X1673775Y1574214D01*
X1668681Y1570512D01*
X1663072Y1567654D01*
X1657083Y1565709D01*
X1650865Y1564724D01*
X1627716Y1564724D01*
G37*
%LPD*%
%LPC*%
G36*
X1584568Y1564724D02*
X1584568Y1564724D01*
X1578350Y1565709D01*
X1572361Y1567654D01*
X1566752Y1570512D01*
X1561658Y1574214D01*
X1557206Y1578666D01*
X1553505Y1583760D01*
X1550646Y1589369D01*
X1548906Y1594725D01*
X1607717Y1594725D01*
X1607717Y1564724D01*
X1584568Y1564724D01*
G37*
%LPD*%
%LPC*%
G36*
X112914Y233621D02*
X112914Y233621D01*
X106696Y234606D01*
X100708Y236552D01*
X95099Y239410D01*
X90004Y243111D01*
X85552Y247563D01*
X81851Y252658D01*
X78993Y258267D01*
X77253Y263623D01*
X136063Y263623D01*
X136063Y233621D01*
X112914Y233621D01*
G37*
%LPD*%
%LPC*%
G36*
X554063Y1720598D02*
X554063Y1720598D01*
X554063Y1755599D01*
X563874Y1755599D01*
X589064Y1730410D01*
X589064Y1720598D01*
X554063Y1720598D01*
G37*
%LPD*%
%LPC*%
G36*
X554063Y1669598D02*
X554063Y1669598D01*
X554063Y1704598D01*
X589064Y1704598D01*
X589064Y1694787D01*
X563874Y1669598D01*
X554063Y1669598D01*
G37*
%LPD*%
%LPC*%
G36*
X503062Y1720598D02*
X503062Y1720598D01*
X503062Y1730410D01*
X528252Y1755599D01*
X538063Y1755599D01*
X538063Y1720598D01*
X503062Y1720598D01*
G37*
%LPD*%
%LPC*%
G36*
X528252Y1669598D02*
X528252Y1669598D01*
X503062Y1694787D01*
X503062Y1704598D01*
X538063Y1704598D01*
X538063Y1669598D01*
X528252Y1669598D01*
G37*
%LPD*%
%LPC*%
G36*
X973039Y639503D02*
X973039Y639503D01*
X973039Y675507D01*
X974045Y675347D01*
X981081Y673061D01*
X987673Y669702D01*
X993658Y665354D01*
X998890Y660122D01*
X1003238Y654138D01*
X1006596Y647546D01*
X1008883Y640509D01*
X1009042Y639503D01*
X973039Y639503D01*
G37*
%LPD*%
%LPC*%
G36*
X973039Y619504D02*
X973039Y619504D01*
X1009042Y619504D01*
X1008883Y618498D01*
X1006596Y611462D01*
X1003238Y604870D01*
X998890Y598885D01*
X993658Y593653D01*
X987673Y589305D01*
X981081Y585947D01*
X974045Y583660D01*
X973039Y583501D01*
X973039Y619504D01*
G37*
%LPD*%
%LPC*%
G36*
X917036Y639503D02*
X917036Y639503D01*
X917196Y640509D01*
X919482Y647546D01*
X922841Y654138D01*
X927189Y660122D01*
X932421Y665354D01*
X938405Y669702D01*
X944997Y673061D01*
X952034Y675347D01*
X953040Y675507D01*
X953040Y639503D01*
X917036Y639503D01*
G37*
%LPD*%
%LPC*%
G36*
X952034Y583660D02*
X952034Y583660D01*
X944997Y585947D01*
X938405Y589305D01*
X932421Y593653D01*
X927189Y598885D01*
X922841Y604870D01*
X919482Y611462D01*
X917196Y618498D01*
X917037Y619504D01*
X953040Y619504D01*
X953040Y583501D01*
X952034Y583660D01*
G37*
%LPD*%
%LPC*%
G36*
X525716Y105638D02*
X525716Y105638D01*
X525716Y138638D01*
X534699Y138638D01*
X558717Y114621D01*
X558717Y105638D01*
X525716Y105638D01*
G37*
%LPD*%
%LPC*%
G36*
X476716Y105638D02*
X476716Y105638D01*
X476716Y114621D01*
X500734Y138638D01*
X509717Y138638D01*
X509717Y105638D01*
X476716Y105638D01*
G37*
%LPD*%
%LPC*%
G36*
X573354Y358606D02*
X573354Y358606D01*
X573354Y391606D01*
X606355Y391606D01*
X606355Y382623D01*
X582337Y358606D01*
X573354Y358606D01*
G37*
%LPD*%
%LPC*%
G36*
X525716Y56637D02*
X525716Y56637D01*
X525716Y89638D01*
X558717Y89638D01*
X558717Y80655D01*
X534699Y56637D01*
X525716Y56637D01*
G37*
%LPD*%
%LPC*%
G36*
X500734Y56637D02*
X500734Y56637D01*
X476716Y80655D01*
X476716Y89638D01*
X509717Y89638D01*
X509717Y56637D01*
X500734Y56637D01*
G37*
%LPD*%
%LPC*%
G36*
X690283Y1532016D02*
X690283Y1532016D01*
X690283Y1565273D01*
X692119Y1564982D01*
X698406Y1562939D01*
X704297Y1559938D01*
X709645Y1556052D01*
X714320Y1551377D01*
X718205Y1546029D01*
X721207Y1540138D01*
X723250Y1533851D01*
X723540Y1532016D01*
X690283Y1532016D01*
G37*
%LPD*%
%LPC*%
G36*
X990283Y1632016D02*
X990283Y1632016D01*
X990283Y1665273D01*
X992119Y1664982D01*
X998406Y1662939D01*
X1004297Y1659938D01*
X1009645Y1656052D01*
X1014320Y1651377D01*
X1018205Y1646029D01*
X1021207Y1640138D01*
X1023250Y1633851D01*
X1023540Y1632016D01*
X990283Y1632016D01*
G37*
%LPD*%
%LPC*%
G36*
X941026Y1632016D02*
X941026Y1632016D01*
X941317Y1633851D01*
X943360Y1640138D01*
X946361Y1646029D01*
X950247Y1651377D01*
X954922Y1656052D01*
X960270Y1659938D01*
X966161Y1662939D01*
X972448Y1664982D01*
X974283Y1665273D01*
X974283Y1632016D01*
X941026Y1632016D01*
G37*
%LPD*%
%LPC*%
G36*
X690283Y1516016D02*
X690283Y1516016D01*
X723540Y1516016D01*
X723250Y1514180D01*
X721207Y1507893D01*
X718205Y1502002D01*
X714320Y1496655D01*
X709645Y1491979D01*
X704297Y1488094D01*
X698406Y1485092D01*
X692119Y1483049D01*
X690283Y1482759D01*
X690283Y1516016D01*
G37*
%LPD*%
%LPC*%
G36*
X641026Y1532016D02*
X641026Y1532016D01*
X641317Y1533851D01*
X643360Y1540138D01*
X646361Y1546029D01*
X650247Y1551377D01*
X654922Y1556052D01*
X660270Y1559938D01*
X666161Y1562939D01*
X672448Y1564982D01*
X674283Y1565273D01*
X674283Y1532016D01*
X641026Y1532016D01*
G37*
%LPD*%
%LPC*%
G36*
X990283Y1616016D02*
X990283Y1616016D01*
X1023540Y1616016D01*
X1023250Y1614180D01*
X1021207Y1607893D01*
X1018205Y1602002D01*
X1014320Y1596655D01*
X1009645Y1591979D01*
X1004297Y1588094D01*
X998406Y1585092D01*
X992119Y1583049D01*
X990283Y1582759D01*
X990283Y1616016D01*
G37*
%LPD*%
%LPC*%
G36*
X972448Y1583049D02*
X972448Y1583049D01*
X966161Y1585092D01*
X960270Y1588094D01*
X954922Y1591979D01*
X950247Y1596655D01*
X946361Y1602002D01*
X943360Y1607893D01*
X941317Y1614180D01*
X941026Y1616016D01*
X974283Y1616016D01*
X974283Y1582759D01*
X972448Y1583049D01*
G37*
%LPD*%
%LPC*%
G36*
X672448Y1483049D02*
X672448Y1483049D01*
X666161Y1485092D01*
X660270Y1488094D01*
X654922Y1491979D01*
X650247Y1496655D01*
X646361Y1502002D01*
X643360Y1507893D01*
X641317Y1514180D01*
X641026Y1516016D01*
X674283Y1516016D01*
X674283Y1482759D01*
X672448Y1483049D01*
G37*
%LPD*%
%LPC*%
G36*
X1461937Y1706819D02*
X1461937Y1706819D01*
X1461937Y1734820D01*
X1468849Y1734820D01*
X1489938Y1713731D01*
X1489938Y1706819D01*
X1461937Y1706819D01*
G37*
%LPD*%
%LPC*%
G36*
X1465874Y1849338D02*
X1465874Y1849338D01*
X1465874Y1877339D01*
X1472786Y1877339D01*
X1493875Y1856250D01*
X1493875Y1849338D01*
X1465874Y1849338D01*
G37*
%LPD*%
%LPC*%
G36*
X1417936Y1706819D02*
X1417936Y1706819D01*
X1417936Y1713731D01*
X1439025Y1734820D01*
X1445937Y1734820D01*
X1445937Y1706819D01*
X1417936Y1706819D01*
G37*
%LPD*%
%LPC*%
G36*
X1421873Y1849338D02*
X1421873Y1849338D01*
X1421873Y1856250D01*
X1442962Y1877339D01*
X1449874Y1877339D01*
X1449874Y1849338D01*
X1421873Y1849338D01*
G37*
%LPD*%
%LPC*%
G36*
X1461937Y1662818D02*
X1461937Y1662818D01*
X1461937Y1690819D01*
X1489938Y1690819D01*
X1489938Y1683907D01*
X1468849Y1662818D01*
X1461937Y1662818D01*
G37*
%LPD*%
%LPC*%
G36*
X1465874Y1805338D02*
X1465874Y1805338D01*
X1465874Y1833339D01*
X1493875Y1833339D01*
X1493875Y1826427D01*
X1472786Y1805338D01*
X1465874Y1805338D01*
G37*
%LPD*%
%LPC*%
G36*
X1442962Y1805338D02*
X1442962Y1805338D01*
X1421873Y1826427D01*
X1421873Y1833339D01*
X1449874Y1833339D01*
X1449874Y1805338D01*
X1442962Y1805338D01*
G37*
%LPD*%
%LPC*%
G36*
X1439025Y1662818D02*
X1439025Y1662818D01*
X1417936Y1683907D01*
X1417936Y1690819D01*
X1445937Y1690819D01*
X1445937Y1662818D01*
X1439025Y1662818D01*
G37*
%LPD*%
%LPC*%
G36*
X1261022Y408660D02*
X1261022Y408660D01*
X1261022Y408663D01*
X1261025Y408663D01*
X1261025Y408660D01*
X1261022Y408660D01*
G37*
%LPD*%
%LPC*%
G36*
X1379133Y223621D02*
X1379133Y223621D01*
X1379133Y223623D01*
X1379135Y223623D01*
X1379135Y223621D01*
X1379133Y223621D01*
G37*
%LPD*%
D10*
X517717Y97638D03*
D11*
X517717Y197638D03*
D12*
X565354Y399606D03*
D11*
X465354Y399606D03*
D13*
X1353937Y1698819D03*
X1453937Y1698819D03*
X1357874Y1841339D03*
X1457874Y1841339D03*
X1199606Y911417D03*
X1299606Y911417D03*
D14*
X176063Y173622D02*
X116063Y173622D01*
X116063Y273622D02*
X176063Y273622D01*
X176063Y373622D02*
X116063Y373622D01*
D15*
X1142913Y223622D03*
X1379134Y223622D03*
X1261024Y408661D03*
D14*
X208346Y1414961D02*
X148346Y1414961D01*
X148346Y1314961D02*
X208346Y1314961D01*
X208346Y1214961D02*
X148346Y1214961D01*
X148346Y1114961D02*
X208346Y1114961D01*
X208346Y1014961D02*
X148346Y1014961D01*
X148346Y914961D02*
X208346Y914961D01*
X1587717Y704724D02*
X1647717Y704724D01*
X1647717Y804724D02*
X1587717Y804724D01*
X1587717Y904724D02*
X1647717Y904724D01*
X1647717Y1004724D02*
X1587717Y1004724D01*
X1587717Y1104724D02*
X1647717Y1104724D01*
X1647717Y1204724D02*
X1587717Y1204724D01*
X1587717Y1304724D02*
X1647717Y1304724D01*
X1647717Y1404724D02*
X1587717Y1404724D01*
X1587717Y1504724D02*
X1647717Y1504724D01*
X1647717Y1604724D02*
X1587717Y1604724D01*
X247717Y2240551D02*
X187717Y2240551D01*
X187717Y2140551D02*
X247717Y2140551D01*
X247717Y2040551D02*
X187717Y2040551D01*
X187717Y1940551D02*
X247717Y1940551D01*
X247717Y1840551D02*
X187717Y1840551D01*
X1563307Y1955118D02*
X1623307Y1955118D01*
X1623307Y2055118D02*
X1563307Y2055118D01*
X1563307Y2155118D02*
X1623307Y2155118D01*
X1623307Y2255118D02*
X1563307Y2255118D01*
D16*
X446063Y1712598D03*
X546063Y1712598D03*
D17*
X492126Y557874D03*
X492126Y657874D03*
D18*
X590157Y817717D03*
X290157Y817717D03*
D13*
X291732Y1529528D03*
X591732Y1529528D03*
D19*
X1068898Y561024D03*
X1068898Y861024D03*
D20*
X963039Y629504D03*
X707039Y629504D03*
X963039Y807504D03*
X707039Y807504D03*
D21*
X982283Y924016D03*
X982283Y1024016D03*
X982283Y1124016D03*
X982283Y1224016D03*
X982283Y1324016D03*
X982283Y1424016D03*
X982283Y1524016D03*
X982283Y1624016D03*
X982283Y1724016D03*
X982283Y1824016D03*
X982283Y1924016D03*
X982283Y2024016D03*
X982283Y2124016D03*
X982283Y2224016D03*
X682283Y2224016D03*
X682283Y2124016D03*
X682283Y2024016D03*
X682283Y1924016D03*
X682283Y1824016D03*
X682283Y1724016D03*
X682283Y1624016D03*
X682283Y1524016D03*
X682283Y1424016D03*
X682283Y1324016D03*
X682283Y1224016D03*
X682283Y1124016D03*
X682283Y1024016D03*
X682283Y924016D03*
D22*
X1147638Y1912992D03*
X1147638Y1712992D03*
D23*
X969094Y236220D03*
X763189Y236220D03*
D14*
X1426693Y887402D02*
X1486693Y887402D01*
X1486693Y787402D02*
X1426693Y787402D01*
X1426693Y687402D02*
X1486693Y687402D01*
D24*
X170079Y197638D02*
X146063Y173622D01*
X170079Y197638D02*
X517717Y197638D01*
X724606Y197638D01*
X763189Y236220D01*
D25*
X501715Y399606D02*
X465354Y399606D01*
X501715Y399606D02*
X586085Y483976D01*
X682283Y1624016D02*
X682283Y1724016D01*
X465354Y399606D02*
X439370Y373622D01*
X146063Y373622D01*
X982283Y1524016D02*
X988976Y1530709D01*
X1074528Y483976D02*
X586085Y483976D01*
X1343307Y586614D02*
X1499606Y586614D01*
X1343307Y586614D02*
X1068898Y861024D01*
X816929Y1624016D02*
X682283Y1624016D01*
X910236Y1530709D02*
X988976Y1530709D01*
X910236Y1530709D02*
X816929Y1624016D01*
X1598425Y1524016D02*
X1617717Y1504724D01*
X1598425Y1524016D02*
X982283Y1524016D01*
X1617717Y1504724D02*
X1723654Y1504724D01*
X1723654Y787402D01*
X1640976Y704724D01*
X1108898Y577592D02*
X1108898Y544455D01*
X1068898Y617592D02*
X1068898Y861024D01*
X1068898Y617592D02*
X1108898Y577592D01*
X1108898Y544455D02*
X1074528Y510085D01*
X1074528Y483976D01*
X504724Y438976D02*
X465354Y399606D01*
X504724Y438976D02*
X504724Y478807D01*
X445126Y538406D01*
X445126Y577342D01*
X511594Y610874D02*
X539126Y638406D01*
X539126Y677342D01*
X511594Y704874D01*
X403000Y704874D02*
X290157Y817717D01*
X403000Y704874D02*
X511594Y704874D01*
X511594Y610874D02*
X478658Y610874D01*
X445126Y577342D01*
X1499606Y586614D02*
X1617717Y704724D01*
X1640976Y704724D01*
X1617717Y704724D02*
X1530693Y791748D01*
X1530693Y805627D01*
X1456693Y879627D02*
X1456693Y887402D01*
X1456693Y879627D02*
X1530693Y805627D01*
D24*
X1545276Y1624016D02*
X982283Y1624016D01*
X1545276Y1624016D02*
X1580709Y1659449D01*
X1493307Y1659449D01*
D25*
X76738Y739606D02*
X53307Y716175D01*
X76738Y739606D02*
X109876Y739606D01*
X212047Y637435D02*
X212047Y620236D01*
X532828Y399606D02*
X565354Y399606D01*
X97837Y329622D02*
X53307Y374152D01*
X53307Y716175D01*
X454488Y620236D02*
X492126Y657874D01*
X454488Y620236D02*
X212047Y620236D01*
X462843Y329622D02*
X532828Y399606D01*
X462843Y329622D02*
X97837Y329622D01*
X1453937Y1698819D02*
X1457874Y1702756D01*
X1453937Y1698819D02*
X1462598Y1698819D01*
X1457874Y1703543D02*
X1457874Y1841339D01*
X1457874Y1703543D02*
X1462598Y1698819D01*
X1453937Y1698819D02*
X1523622Y1698819D01*
X1617717Y1604724D01*
X1353937Y1698819D02*
X1339764Y1712992D01*
X1147638Y1712992D01*
X993307Y1712992D01*
X982283Y1724016D01*
X1147638Y1879528D02*
X1147638Y1912992D01*
X1092126Y1824016D02*
X982283Y1824016D01*
X1092126Y1824016D02*
X1147638Y1879528D01*
X1286220Y1912992D02*
X1357874Y1841339D01*
X1286220Y1912992D02*
X1147638Y1912992D01*
X446063Y1712598D02*
X446063Y1675197D01*
X591732Y1529528D01*
X1001575Y1004724D02*
X1617717Y1004724D01*
X1001575Y1004724D02*
X982283Y1024016D01*
X1001575Y1104724D02*
X1617717Y1104724D01*
X1001575Y1104724D02*
X982283Y1124016D01*
X187402Y1424016D02*
X178346Y1414961D01*
X187402Y1424016D02*
X682283Y1424016D01*
X673228Y1314961D02*
X178346Y1314961D01*
X673228Y1314961D02*
X682283Y1324016D01*
X187402Y1224016D02*
X178346Y1214961D01*
X187402Y1224016D02*
X682283Y1224016D01*
X673228Y1114961D02*
X178346Y1114961D01*
X673228Y1114961D02*
X682283Y1124016D01*
X673228Y1014961D02*
X178346Y1014961D01*
X673228Y1014961D02*
X682283Y1024016D01*
X673228Y914961D02*
X178346Y914961D01*
X673228Y914961D02*
X682283Y924016D01*
X1001575Y1204724D02*
X1617717Y1204724D01*
X1001575Y1204724D02*
X982283Y1224016D01*
X1001575Y1304724D02*
X1617717Y1304724D01*
X1001575Y1304724D02*
X982283Y1324016D01*
X982283Y1424016D02*
X1030315Y1424016D01*
X1062992Y1456693D01*
X1565748Y1456693D02*
X1617717Y1404724D01*
X1565748Y1456693D02*
X1062992Y1456693D01*
X982283Y1924016D02*
X1026772Y1968504D01*
X1312598Y1955118D02*
X1593307Y1955118D01*
X1312598Y1955118D02*
X1299213Y1968504D01*
X1026772Y1968504D01*
X1000394Y2024016D02*
X982283Y2024016D01*
X1000394Y2024016D02*
X1023622Y2047244D01*
X1585433Y2047244D02*
X1593307Y2055118D01*
X1585433Y2047244D02*
X1023622Y2047244D01*
X982283Y2124016D02*
X1562205Y2124016D01*
X1593307Y2155118D01*
X1593307Y2255118D02*
X1013386Y2255118D01*
X982283Y2224016D01*
X665748Y2240551D02*
X217717Y2240551D01*
X665748Y2240551D02*
X682283Y2224016D01*
X665748Y2140551D02*
X217717Y2140551D01*
X665748Y2140551D02*
X682283Y2124016D01*
X665748Y2040551D02*
X217717Y2040551D01*
X665748Y2040551D02*
X682283Y2024016D01*
X682283Y1924016D02*
X234252Y1924016D01*
X217717Y1940551D01*
X234252Y1824016D02*
X682283Y1824016D01*
X234252Y1824016D02*
X217717Y1840551D01*
X257087Y1840551D02*
X370472Y1727165D01*
X257087Y1840551D02*
X217717Y1840551D01*
X370472Y1727165D02*
X370472Y1608268D01*
X291732Y1529528D01*
X531496Y518504D02*
X1026378Y518504D01*
X531496Y518504D02*
X492126Y557874D01*
X1026378Y518504D02*
X1068898Y561024D01*
D24*
X1142913Y223622D02*
X981693Y223622D01*
X969094Y236220D01*
D25*
X590157Y744244D02*
X590157Y817717D01*
X590157Y744244D02*
X899780Y744244D01*
X1377953Y687402D02*
X1456693Y687402D01*
X1187008Y924016D02*
X982283Y924016D01*
X1187008Y924016D02*
X1199606Y911417D01*
X1199606Y865748D01*
X1377953Y687402D01*
X1456693Y687402D02*
X1456693Y695176D01*
X1382693Y944094D02*
X1578346Y944094D01*
X1382693Y769176D02*
X1456693Y695176D01*
X1382693Y769176D02*
X1382693Y944094D01*
X1578346Y944094D02*
X1617717Y904724D01*
X963039Y807504D02*
X899780Y744244D01*
X982283Y826748D02*
X982283Y924016D01*
X982283Y826748D02*
X963039Y807504D01*
M02*
