M48
;Layer_Color=9474304
;FILE_FORMAT=4:4
METRIC,LZ
;TYPE=PLATED
T1F00S00C0.4000
T2F00S00C0.7112
T3F00S00C0.7300
T4F00S00C0.7500
T5F00S00C0.7800
T6F00S00C0.8000
T7F00S00C1.0000
T8F00S00C1.1500
%
T01
X00357378Y0034798
T02
X0073279Y00013208
X00017018
X00019812Y00698754
X00734568
T03
X00378638Y0035687
Y0038227
X00458038
Y0035687
Y0040767
Y0043307
Y0045847
Y0048387
Y0050927
Y0053467
X00378638
Y0050927
Y0048387
Y0045847
Y0043307
Y0040767
T04
X00679958Y0014605
X00712978Y003556
X00343408Y0029591
Y0024591
X00319278Y001651
X00369278
X00272288Y0028067
X00246888Y0025527
X00221488Y0028067
X00273558Y0002159
X00531368Y0004318
X00088138Y0013081
X00047498Y0033655
X00067818Y0056134
X00240538Y0067564
X00467868Y0069469
X00653288Y0059817
T05
X00226238Y0039751
Y0042291
Y0044831
Y0047371
X00305638
Y0044831
Y0042291
Y0039751
T06
X00427408Y0022098
X00427228Y0026797
X00597228
X00597408Y0022098
X00554228Y0033909
Y0050909
T07
X00705358Y0014605
X00738378Y003556
X00556768Y0004318
X00298958Y0002159
X00062738Y0013081
X00022098Y0033655
X00042418Y0056134
X00215138Y0067564
X00493268Y0069469
X00678688Y0059817
T08
X00254508Y0054737
X00279908
M30
