G04*
G04 #@! TF.GenerationSoftware,Altium Limited,Altium Designer,23.1.1 (15)*
G04*
G04 Layer_Color=8388736*
%FSLAX44Y44*%
%MOMM*%
G71*
G04*
G04 #@! TF.SameCoordinates,17E3469B-790B-4AC7-9BA7-D2CD019F83CE*
G04*
G04*
G04 #@! TF.FilePolarity,Negative*
G04*
G01*
G75*
%ADD15C,1.4032*%
%ADD16C,1.7032*%
%ADD17R,1.4032X1.4032*%
%ADD18R,1.3332X1.3332*%
%ADD19C,1.3332*%
%ADD20R,1.9282X1.9282*%
%ADD21C,1.9282*%
%ADD22C,1.4532*%
%ADD23C,2.7032*%
%ADD24C,0.7032*%
D15*
X597408Y220980D02*
D03*
X427408D02*
D03*
X597228Y267970D02*
D03*
X427228D02*
D03*
X319278Y165100D02*
D03*
X369278D02*
D03*
X343408Y245910D02*
D03*
Y295910D02*
D03*
X554228Y339090D02*
D03*
Y509090D02*
D03*
D16*
X705358Y146050D02*
D03*
X556768Y43180D02*
D03*
X298958Y21590D02*
D03*
X62738Y130810D02*
D03*
X22098Y336550D02*
D03*
X42418Y561340D02*
D03*
X215138Y675640D02*
D03*
X493268Y694690D02*
D03*
X678688Y598170D02*
D03*
X738378Y355600D02*
D03*
D17*
X679958Y146050D02*
D03*
X531368Y43180D02*
D03*
X273558Y21590D02*
D03*
X88138Y130810D02*
D03*
X47498Y336550D02*
D03*
X67818Y561340D02*
D03*
X240538Y675640D02*
D03*
X467868Y694690D02*
D03*
X653288Y598170D02*
D03*
X712978Y355600D02*
D03*
D18*
X378638Y534670D02*
D03*
X226238Y473710D02*
D03*
D19*
X378638Y509270D02*
D03*
Y483870D02*
D03*
Y458470D02*
D03*
Y433070D02*
D03*
Y407670D02*
D03*
Y382270D02*
D03*
Y356870D02*
D03*
X458038D02*
D03*
Y382270D02*
D03*
Y407670D02*
D03*
Y433070D02*
D03*
Y458470D02*
D03*
Y483870D02*
D03*
Y509270D02*
D03*
Y534670D02*
D03*
X305638Y473710D02*
D03*
Y448310D02*
D03*
Y422910D02*
D03*
Y397510D02*
D03*
X226238D02*
D03*
Y422910D02*
D03*
Y448310D02*
D03*
D20*
X279908Y547370D02*
D03*
D21*
X254508D02*
D03*
D22*
X272288Y280670D02*
D03*
X246888Y255270D02*
D03*
X221488Y280670D02*
D03*
D23*
X17018Y13208D02*
D03*
X732790D02*
D03*
X734568Y698754D02*
D03*
X19812D02*
D03*
D24*
X357378Y347980D02*
D03*
M02*
