G04*
G04 #@! TF.GenerationSoftware,Altium Limited,Altium Designer,23.1.1 (15)*
G04*
G04 Layer_Physical_Order=1*
G04 Layer_Color=255*
%FSLAX44Y44*%
%MOMM*%
G71*
G04*
G04 #@! TF.SameCoordinates,17E3469B-790B-4AC7-9BA7-D2CD019F83CE*
G04*
G04*
G04 #@! TF.FilePolarity,Positive*
G04*
G01*
G75*
%ADD11C,0.2000*%
%ADD25C,0.3000*%
%ADD26C,1.2000*%
%ADD27C,1.5000*%
%ADD28R,1.2000X1.2000*%
%ADD29R,1.1300X1.1300*%
%ADD30C,1.1300*%
%ADD31R,1.7250X1.7250*%
%ADD32C,1.7250*%
%ADD33C,1.2500*%
%ADD34C,2.5000*%
%ADD35C,0.5000*%
G36*
X109220Y712978D02*
X213806Y712978D01*
X214191Y711708D01*
X213786Y711437D01*
X212615Y710266D01*
X211841Y709108D01*
X211569Y707742D01*
Y685037D01*
X211278Y684958D01*
X208998Y683642D01*
X207136Y681780D01*
X205819Y679500D01*
X205741Y679209D01*
X48768D01*
X47402Y678937D01*
X46245Y678163D01*
X42144Y674063D01*
X41371Y672905D01*
X41099Y671540D01*
Y571339D01*
X38558Y570658D01*
X36278Y569342D01*
X34416Y567480D01*
X33100Y565200D01*
X32418Y562657D01*
Y560023D01*
X33100Y557480D01*
X34416Y555200D01*
X36278Y553338D01*
X38558Y552021D01*
X38849Y551943D01*
Y358348D01*
X26219Y345718D01*
X25958Y345868D01*
X23414Y346550D01*
X20782D01*
X18238Y345868D01*
X15958Y344552D01*
X14096Y342690D01*
X12780Y340410D01*
X12098Y337867D01*
Y335233D01*
X12780Y332690D01*
X14096Y330410D01*
X15958Y328548D01*
X18238Y327231D01*
X18529Y327153D01*
Y132080D01*
X18801Y130714D01*
X19575Y129557D01*
X20845Y128287D01*
X22002Y127513D01*
X23368Y127241D01*
X53341D01*
X53419Y126950D01*
X54736Y124670D01*
X56598Y122808D01*
X58878Y121491D01*
X61421Y120810D01*
X64054D01*
X66598Y121491D01*
X68878Y122808D01*
X70740Y124670D01*
X72056Y126950D01*
X72738Y129494D01*
Y132127D01*
X72056Y134670D01*
X70740Y136950D01*
X68878Y138812D01*
X66598Y140128D01*
X64054Y140810D01*
X61421D01*
X58878Y140128D01*
X56598Y138812D01*
X54736Y136950D01*
X53419Y134670D01*
X53341Y134379D01*
X25667D01*
Y327153D01*
X25958Y327231D01*
X28238Y328548D01*
X30100Y330410D01*
X31416Y332690D01*
X32098Y335233D01*
Y337867D01*
X31416Y340410D01*
X31266Y340671D01*
X44941Y354347D01*
X45715Y355504D01*
X45987Y356870D01*
Y551943D01*
X46278Y552021D01*
X48558Y553338D01*
X50420Y555200D01*
X51736Y557480D01*
X52418Y560023D01*
Y562657D01*
X51736Y565200D01*
X50420Y567480D01*
X48558Y569342D01*
X48236Y569528D01*
Y670061D01*
X50246Y672071D01*
X205741D01*
X205819Y671780D01*
X207136Y669500D01*
X208998Y667638D01*
X211278Y666321D01*
X213822Y665640D01*
X216455D01*
X218998Y666321D01*
X221278Y667638D01*
X223140Y669500D01*
X224457Y671780D01*
X225138Y674324D01*
Y676956D01*
X224457Y679500D01*
X223140Y681780D01*
X221278Y683642D01*
X218998Y684958D01*
X218707Y685037D01*
Y705345D01*
X489699D01*
Y704087D01*
X489408Y704008D01*
X487128Y702692D01*
X485266Y700830D01*
X483950Y698550D01*
X483268Y696006D01*
Y693373D01*
X483950Y690830D01*
X485266Y688550D01*
X487128Y686688D01*
X489408Y685371D01*
X491951Y684690D01*
X494585D01*
X497128Y685371D01*
X499408Y686688D01*
X501270Y688550D01*
X502587Y690830D01*
X503268Y693373D01*
Y696006D01*
X502587Y698550D01*
X501270Y700830D01*
X499408Y702692D01*
X497128Y704008D01*
X496837Y704087D01*
Y707742D01*
X496565Y709108D01*
X495791Y710266D01*
X494620Y711437D01*
X494215Y711708D01*
X494600Y712978D01*
X639318Y712978D01*
X639318Y712978D01*
X639318Y712978D01*
X643559Y712978D01*
X652016Y712312D01*
X660394Y710985D01*
X668643Y709005D01*
X676710Y706384D01*
X684547Y703138D01*
X692105Y699287D01*
X699338Y694855D01*
X706201Y689869D01*
X712651Y684360D01*
X718649Y678361D01*
X724158Y671911D01*
X729145Y665048D01*
X733577Y657815D01*
X737428Y650257D01*
X740674Y642420D01*
X743295Y634353D01*
X745275Y626104D01*
X746602Y617726D01*
X747268Y609269D01*
X747268Y605028D01*
X747268Y362648D01*
X745998Y362122D01*
X744518Y363602D01*
X742238Y364919D01*
X741947Y364997D01*
Y596900D01*
X741675Y598266D01*
X740901Y599423D01*
X739631Y600693D01*
X738474Y601467D01*
X737108Y601739D01*
X688085D01*
X688007Y602030D01*
X686690Y604310D01*
X684828Y606172D01*
X682548Y607489D01*
X680005Y608170D01*
X677372D01*
X674828Y607489D01*
X672548Y606172D01*
X670686Y604310D01*
X669370Y602030D01*
X668688Y599487D01*
Y596853D01*
X669370Y594310D01*
X670686Y592030D01*
X672548Y590168D01*
X674828Y588852D01*
X675119Y588773D01*
Y512659D01*
X561983D01*
X561030Y514309D01*
X559447Y515892D01*
X557509Y517011D01*
X555347Y517590D01*
X553109D01*
X550947Y517011D01*
X549009Y515892D01*
X547426Y514309D01*
X546307Y512371D01*
X545728Y510209D01*
Y507971D01*
X546307Y505809D01*
X547426Y503871D01*
X549009Y502288D01*
X550947Y501169D01*
X553109Y500590D01*
X555347D01*
X557509Y501169D01*
X559447Y502288D01*
X561030Y503871D01*
X561983Y505521D01*
X677516D01*
X678882Y505793D01*
X680040Y506567D01*
X681211Y507738D01*
X681985Y508896D01*
X682257Y510262D01*
Y588773D01*
X682548Y588852D01*
X684828Y590168D01*
X686690Y592030D01*
X688007Y594310D01*
X688085Y594601D01*
X734809D01*
Y364997D01*
X734518Y364919D01*
X732238Y363602D01*
X730376Y361740D01*
X729060Y359460D01*
X728378Y356917D01*
Y354283D01*
X729060Y351740D01*
X730376Y349460D01*
X732238Y347598D01*
X734518Y346282D01*
X734809Y346203D01*
Y149619D01*
X714755D01*
X714677Y149910D01*
X713360Y152190D01*
X711498Y154052D01*
X709218Y155368D01*
X706674Y156050D01*
X704042D01*
X701498Y155368D01*
X699218Y154052D01*
X697356Y152190D01*
X696040Y149910D01*
X695358Y147367D01*
Y144733D01*
X696040Y142190D01*
X697356Y139910D01*
X699218Y138048D01*
X701498Y136732D01*
X701789Y136653D01*
Y42965D01*
X566768D01*
Y44496D01*
X566087Y47040D01*
X564770Y49320D01*
X562908Y51182D01*
X560628Y52498D01*
X558084Y53180D01*
X555452D01*
X552908Y52498D01*
X550628Y51182D01*
X548766Y49320D01*
X547449Y47040D01*
X546768Y44496D01*
Y41863D01*
X547449Y39320D01*
X548766Y37040D01*
X550628Y35178D01*
X552908Y33861D01*
X555452Y33180D01*
X555836D01*
Y25159D01*
X308355D01*
X308277Y25450D01*
X306960Y27730D01*
X305098Y29592D01*
X302818Y30909D01*
X300275Y31590D01*
X297642D01*
X295098Y30909D01*
X292818Y29592D01*
X290956Y27730D01*
X289639Y25450D01*
X288958Y22906D01*
Y20273D01*
X289639Y17730D01*
X290956Y15450D01*
X292818Y13588D01*
X295098Y12271D01*
X297642Y11590D01*
X300275D01*
X302818Y12271D01*
X305098Y13588D01*
X306960Y15450D01*
X308277Y17730D01*
X308355Y18021D01*
X558233D01*
X559598Y18293D01*
X560756Y19067D01*
X561927Y20238D01*
X562701Y21396D01*
X562973Y22762D01*
Y34949D01*
X563994Y35843D01*
X564070Y35828D01*
X704186D01*
X705552Y36099D01*
X706710Y36873D01*
X707881Y38045D01*
X708655Y39202D01*
X708927Y40568D01*
Y136653D01*
X709218Y136732D01*
X711498Y138048D01*
X713360Y139910D01*
X714677Y142190D01*
X714755Y142481D01*
X737206D01*
X738572Y142753D01*
X739730Y143527D01*
X740901Y144698D01*
X741675Y145856D01*
X741947Y147222D01*
Y346203D01*
X742238Y346282D01*
X744518Y347598D01*
X745998Y349078D01*
X747268Y348552D01*
X747268Y97028D01*
X747268Y97028D01*
Y92037D01*
X746289Y82102D01*
X744342Y72311D01*
X741444Y62759D01*
X737624Y53536D01*
X732918Y44732D01*
X727372Y36432D01*
X721039Y28715D01*
X713981Y21656D01*
X706264Y15324D01*
X697964Y9778D01*
X689160Y5072D01*
X679937Y1252D01*
X670385Y-1646D01*
X660594Y-3593D01*
X650659Y-4572D01*
X112268D01*
X107276Y-4572D01*
X97342Y-3593D01*
X87551Y-1646D01*
X77998Y1252D01*
X68776Y5072D01*
X59972Y9778D01*
X51672Y15324D01*
X43955Y21657D01*
X36896Y28715D01*
X30563Y36432D01*
X25017Y44732D01*
X20312Y53536D01*
X16492Y62759D01*
X13594Y72312D01*
X11646Y82102D01*
X10668Y92037D01*
X10668Y97028D01*
X10668Y613229D01*
X10668Y614426D01*
X10668Y614426D01*
X10668Y614426D01*
X10668Y619267D01*
X11617Y628904D01*
X13506Y638401D01*
X16316Y647667D01*
X20022Y656613D01*
X24587Y665153D01*
X29966Y673204D01*
X36109Y680690D01*
X42956Y687537D01*
X50441Y693680D01*
X58492Y699059D01*
X67032Y703624D01*
X75978Y707329D01*
X85245Y710140D01*
X94742Y712029D01*
X104378Y712978D01*
X109220Y712978D01*
D02*
G37*
%LPC*%
G36*
X476368Y703190D02*
X459368D01*
Y686190D01*
X476368D01*
Y703190D01*
D02*
G37*
G36*
X249038Y684140D02*
X232038D01*
Y667140D01*
X249038D01*
Y684140D01*
D02*
G37*
G36*
X661788Y606670D02*
X644788D01*
Y601739D01*
X597408D01*
X596042Y601467D01*
X594885Y600693D01*
X497880Y503689D01*
X465693D01*
X464960Y504959D01*
X465633Y506124D01*
X466188Y508197D01*
Y510343D01*
X465911Y511376D01*
X478372Y523836D01*
X479256Y525159D01*
X479566Y526720D01*
X479566Y526720D01*
Y549910D01*
X479256Y551471D01*
X478372Y552794D01*
X478372Y552794D01*
X459322Y571844D01*
X457999Y572728D01*
X456438Y573038D01*
X456438Y573038D01*
X256266D01*
X256265Y573038D01*
X254705Y572728D01*
X253382Y571844D01*
X253382Y571844D01*
X251624Y570087D01*
X250740Y568763D01*
X250430Y567203D01*
X250430Y567202D01*
Y557795D01*
X250214Y557737D01*
X247677Y556272D01*
X245606Y554201D01*
X244141Y551664D01*
X243383Y548835D01*
Y545905D01*
X244141Y543076D01*
X245606Y540539D01*
X247677Y538468D01*
X250214Y537003D01*
X250430Y536945D01*
Y530009D01*
X223354Y502934D01*
X222470Y501611D01*
X222160Y500050D01*
X222160Y500050D01*
Y481860D01*
X218088D01*
Y465560D01*
X234388D01*
Y481860D01*
X230316D01*
Y498361D01*
X257392Y525436D01*
X257392Y525436D01*
X258276Y526759D01*
X258586Y528320D01*
Y536945D01*
X258802Y537003D01*
X261339Y538468D01*
X263410Y540539D01*
X264875Y543076D01*
X265633Y545905D01*
Y548835D01*
X264875Y551664D01*
X263410Y554201D01*
X261339Y556272D01*
X258802Y557737D01*
X258586Y557795D01*
Y564882D01*
X454749D01*
X471410Y548221D01*
Y528409D01*
X460144Y517143D01*
X459111Y517420D01*
X456965D01*
X454892Y516865D01*
X453034Y515792D01*
X451516Y514274D01*
X450443Y512416D01*
X449888Y510343D01*
Y508197D01*
X450443Y506124D01*
X451116Y504959D01*
X450383Y503689D01*
X394888D01*
X393522Y503417D01*
X392365Y502643D01*
X381312Y491591D01*
X379711Y492020D01*
X377565D01*
X375492Y491465D01*
X373634Y490392D01*
X372116Y488874D01*
X371043Y487016D01*
X370488Y484943D01*
Y482797D01*
X371043Y480724D01*
X372116Y478866D01*
X373634Y477348D01*
X375492Y476275D01*
X377565Y475720D01*
X379711D01*
X381784Y476275D01*
X383642Y477348D01*
X385160Y478866D01*
X386233Y480724D01*
X386788Y482797D01*
Y484943D01*
X386359Y486544D01*
X396366Y496551D01*
X499358D01*
X500724Y496823D01*
X501881Y497597D01*
X598886Y594601D01*
X644788D01*
Y589670D01*
X661788D01*
Y606670D01*
D02*
G37*
G36*
X445338Y551448D02*
X445338Y551448D01*
X358882D01*
X358882Y551448D01*
X357321Y551138D01*
X355998Y550254D01*
X355998Y550254D01*
X354241Y548497D01*
X353357Y547173D01*
X353046Y545613D01*
X353046Y545612D01*
Y478234D01*
X351078Y476265D01*
X313432D01*
X313270Y476871D01*
X312192Y478739D01*
X310667Y480264D01*
X309716Y480812D01*
Y509805D01*
X309716Y509805D01*
X309406Y511366D01*
X308522Y512689D01*
X308522Y512689D01*
X306765Y514446D01*
X305441Y515330D01*
X303881Y515641D01*
X303881Y515641D01*
X283986D01*
Y536205D01*
X291073D01*
Y546100D01*
X279908D01*
X268743D01*
Y536205D01*
X275830D01*
Y513320D01*
X275830Y513320D01*
X276140Y511759D01*
X277024Y510436D01*
X278782Y508679D01*
X278782Y508679D01*
X280105Y507795D01*
X281665Y507484D01*
X281665Y507484D01*
X301560D01*
Y480812D01*
X300609Y480264D01*
X299084Y478739D01*
X298006Y476871D01*
X297499Y474980D01*
X305638D01*
Y473710D01*
X306908D01*
Y465571D01*
X308799Y466078D01*
X310667Y467156D01*
X311619Y468108D01*
X352767D01*
X352767Y468108D01*
X354328Y468419D01*
X355651Y469303D01*
X360008Y473660D01*
X360892Y474983D01*
X361203Y476544D01*
X361203Y476544D01*
Y543292D01*
X369413D01*
X370488Y542820D01*
X370488Y542022D01*
Y526520D01*
X386788D01*
Y542022D01*
X386788Y542820D01*
X387863Y543292D01*
X443649D01*
X450132Y536808D01*
X449899Y535940D01*
X456768D01*
Y542809D01*
X455900Y542576D01*
X448222Y550254D01*
X446899Y551138D01*
X445338Y551448D01*
D02*
G37*
G36*
X291073Y558535D02*
X281178D01*
Y548640D01*
X291073D01*
Y558535D01*
D02*
G37*
G36*
X278638D02*
X268743D01*
Y548640D01*
X278638D01*
Y558535D01*
D02*
G37*
G36*
X459308Y542809D02*
Y535940D01*
X466177D01*
X465670Y537831D01*
X464592Y539699D01*
X463067Y541224D01*
X461199Y542302D01*
X459308Y542809D01*
D02*
G37*
G36*
X466177Y533400D02*
X459308D01*
Y526531D01*
X461199Y527038D01*
X463067Y528116D01*
X464592Y529641D01*
X465670Y531509D01*
X466177Y533400D01*
D02*
G37*
G36*
X456768D02*
X449899D01*
X450406Y531509D01*
X451484Y529641D01*
X453009Y528116D01*
X454877Y527038D01*
X456768Y526531D01*
Y533400D01*
D02*
G37*
G36*
X379711Y517420D02*
X377565D01*
X375492Y516865D01*
X373634Y515792D01*
X372116Y514274D01*
X371043Y512416D01*
X370488Y510343D01*
Y508197D01*
X371043Y506124D01*
X372116Y504266D01*
X373634Y502748D01*
X375492Y501675D01*
X377565Y501120D01*
X379711D01*
X381784Y501675D01*
X383642Y502748D01*
X385160Y504266D01*
X386233Y506124D01*
X386788Y508197D01*
Y510343D01*
X386233Y512416D01*
X385160Y514274D01*
X383642Y515792D01*
X381784Y516865D01*
X379711Y517420D01*
D02*
G37*
G36*
X304368Y472440D02*
X297499D01*
X298006Y470549D01*
X299084Y468681D01*
X300609Y467156D01*
X302477Y466078D01*
X304368Y465571D01*
Y472440D01*
D02*
G37*
G36*
X379711Y441220D02*
X377565D01*
X375492Y440665D01*
X373634Y439592D01*
X372116Y438074D01*
X371043Y436216D01*
X370488Y434143D01*
Y431997D01*
X371043Y429924D01*
X372116Y428066D01*
X373634Y426548D01*
X375492Y425475D01*
X377565Y424920D01*
X379711D01*
X381784Y425475D01*
X383642Y426548D01*
X385160Y428066D01*
X386233Y429924D01*
X386788Y431997D01*
Y434143D01*
X386233Y436216D01*
X385160Y438074D01*
X383642Y439592D01*
X381784Y440665D01*
X379711Y441220D01*
D02*
G37*
G36*
Y415820D02*
X377565D01*
X375492Y415265D01*
X373634Y414192D01*
X372116Y412674D01*
X371043Y410816D01*
X370488Y408743D01*
Y406597D01*
X371043Y404524D01*
X372116Y402666D01*
X373634Y401148D01*
X375492Y400075D01*
X377565Y399520D01*
X379711D01*
X381784Y400075D01*
X383642Y401148D01*
X385160Y402666D01*
X386233Y404524D01*
X386788Y406597D01*
Y408743D01*
X386233Y410816D01*
X385160Y412674D01*
X383642Y414192D01*
X381784Y415265D01*
X379711Y415820D01*
D02*
G37*
G36*
X227508Y405649D02*
Y398780D01*
X234377D01*
X233870Y400671D01*
X232792Y402539D01*
X231267Y404064D01*
X229399Y405142D01*
X227508Y405649D01*
D02*
G37*
G36*
X224968D02*
X223077Y405142D01*
X221209Y404064D01*
X219684Y402539D01*
X218606Y400671D01*
X218099Y398780D01*
X224968D01*
Y405649D01*
D02*
G37*
G36*
X234377Y396240D02*
X227508D01*
Y389371D01*
X229399Y389878D01*
X231267Y390956D01*
X232792Y392481D01*
X233870Y394349D01*
X234377Y396240D01*
D02*
G37*
G36*
X224968D02*
X218099D01*
X218606Y394349D01*
X219684Y392481D01*
X221209Y390956D01*
X223077Y389878D01*
X224968Y389371D01*
Y396240D01*
D02*
G37*
G36*
X306711Y405660D02*
X304565D01*
X302492Y405105D01*
X300634Y404032D01*
X299116Y402514D01*
X298043Y400656D01*
X297488Y398583D01*
Y396437D01*
X298043Y394364D01*
X299116Y392506D01*
X300634Y390988D01*
X302492Y389915D01*
X304565Y389360D01*
X306711D01*
X308784Y389915D01*
X310642Y390988D01*
X312160Y392506D01*
X313233Y394364D01*
X313788Y396437D01*
Y398583D01*
X313233Y400656D01*
X312160Y402514D01*
X310642Y404032D01*
X308784Y405105D01*
X306711Y405660D01*
D02*
G37*
G36*
X76318Y569840D02*
X59318D01*
Y552840D01*
X64249D01*
Y401320D01*
X64521Y399954D01*
X65295Y398797D01*
X89425Y374667D01*
X90582Y373893D01*
X91948Y373621D01*
X371485D01*
X372851Y373893D01*
X374008Y374667D01*
X374557Y375215D01*
X375492Y374675D01*
X376792Y374327D01*
X377172Y372910D01*
X373850Y369589D01*
X260620D01*
X259254Y369317D01*
X258096Y368543D01*
X229672Y340119D01*
X55998D01*
Y345050D01*
X38998D01*
Y328050D01*
X55998D01*
Y332981D01*
X231150D01*
X232515Y333253D01*
X233673Y334027D01*
X262098Y362451D01*
X370983D01*
X371716Y361181D01*
X371043Y360016D01*
X370488Y357943D01*
Y355797D01*
X370765Y354764D01*
X368059Y352058D01*
X360371D01*
X360210Y352219D01*
X358373Y352980D01*
X356383D01*
X354546Y352219D01*
X353139Y350812D01*
X352378Y348975D01*
Y346985D01*
X353139Y345148D01*
X354546Y343741D01*
X356383Y342980D01*
X358373D01*
X360210Y343741D01*
X360371Y343902D01*
X369748D01*
X369748Y343902D01*
X371309Y344212D01*
X372632Y345096D01*
X373386Y345851D01*
X374560Y345365D01*
Y340848D01*
X374560Y340847D01*
X374870Y339287D01*
X375754Y337963D01*
X377511Y336206D01*
X377511Y336206D01*
X378835Y335322D01*
X380395Y335012D01*
X380396Y335012D01*
X546768D01*
X547426Y333871D01*
X549009Y332288D01*
X550947Y331169D01*
X553109Y330590D01*
X555347D01*
X557509Y331169D01*
X559447Y332288D01*
X561030Y333871D01*
X562149Y335809D01*
X562728Y337971D01*
Y340209D01*
X562149Y342371D01*
X561030Y344309D01*
X559447Y345892D01*
X557509Y347011D01*
X555347Y347590D01*
X553109D01*
X550947Y347011D01*
X549009Y345892D01*
X547426Y344309D01*
X546768Y343168D01*
X382716D01*
Y349814D01*
X383642Y350348D01*
X385160Y351866D01*
X386233Y353724D01*
X386788Y355797D01*
Y357943D01*
X386511Y358976D01*
X391823Y364287D01*
X452133D01*
X452659Y363017D01*
X451516Y361874D01*
X450443Y360016D01*
X449888Y357943D01*
Y355797D01*
X450443Y353724D01*
X451516Y351866D01*
X453034Y350348D01*
X454892Y349275D01*
X456965Y348720D01*
X459111D01*
X461184Y349275D01*
X463042Y350348D01*
X464560Y351866D01*
X465633Y353724D01*
X466188Y355797D01*
Y357943D01*
X465633Y360016D01*
X464560Y361874D01*
X463417Y363017D01*
X463943Y364287D01*
X468651D01*
X468651Y364287D01*
X470211Y364598D01*
X471535Y365482D01*
X473292Y367239D01*
X473292Y367239D01*
X474176Y368562D01*
X474486Y370123D01*
X474486Y370123D01*
Y456712D01*
X474486Y456713D01*
X474176Y458273D01*
X473292Y459596D01*
X473292Y459596D01*
X471535Y461354D01*
X470211Y462238D01*
X468651Y462548D01*
X468651Y462548D01*
X465094D01*
X464560Y463474D01*
X463042Y464992D01*
X461184Y466065D01*
X459111Y466620D01*
X456965D01*
X454892Y466065D01*
X453034Y464992D01*
X451516Y463474D01*
X450443Y461616D01*
X449888Y459543D01*
Y457397D01*
X450443Y455324D01*
X451516Y453466D01*
X453034Y451948D01*
X454892Y450875D01*
X456965Y450320D01*
X459111D01*
X461184Y450875D01*
X463042Y451948D01*
X464560Y453466D01*
X465094Y454392D01*
X466330D01*
Y437548D01*
X465060Y437208D01*
X464560Y438074D01*
X463042Y439592D01*
X461184Y440665D01*
X459111Y441220D01*
X456965D01*
X454892Y440665D01*
X453034Y439592D01*
X451516Y438074D01*
X450443Y436216D01*
X449888Y434143D01*
Y431997D01*
X450443Y429924D01*
X451516Y428066D01*
X453034Y426548D01*
X454892Y425475D01*
X456965Y424920D01*
X459111D01*
X461184Y425475D01*
X463042Y426548D01*
X464560Y428066D01*
X465060Y428932D01*
X466330Y428591D01*
Y412149D01*
X465060Y411808D01*
X464560Y412674D01*
X463042Y414192D01*
X461184Y415265D01*
X459111Y415820D01*
X456965D01*
X454892Y415265D01*
X453034Y414192D01*
X451516Y412674D01*
X450443Y410816D01*
X449888Y408743D01*
Y406597D01*
X450443Y404524D01*
X451516Y402666D01*
X453034Y401148D01*
X454892Y400075D01*
X456965Y399520D01*
X459111D01*
X461184Y400075D01*
X463042Y401148D01*
X464560Y402666D01*
X465060Y403532D01*
X466330Y403191D01*
Y386749D01*
X465060Y386408D01*
X464560Y387274D01*
X463042Y388792D01*
X461184Y389865D01*
X459111Y390420D01*
X456965D01*
X454892Y389865D01*
X453034Y388792D01*
X451516Y387274D01*
X450687Y385839D01*
X391578D01*
X390212Y385567D01*
X389055Y384793D01*
X387998Y383736D01*
X386581Y384116D01*
X386233Y385416D01*
X385160Y387274D01*
X383642Y388792D01*
X381784Y389865D01*
X379711Y390420D01*
X377565D01*
X375492Y389865D01*
X373634Y388792D01*
X372116Y387274D01*
X371043Y385416D01*
X370488Y383343D01*
Y381240D01*
X370007Y380759D01*
X93426D01*
X71387Y402798D01*
Y552840D01*
X76318D01*
Y569840D01*
D02*
G37*
G36*
X721478Y364100D02*
X704478D01*
Y347100D01*
X721478D01*
Y364100D01*
D02*
G37*
G36*
X344527Y304410D02*
X342289D01*
X340127Y303831D01*
X338189Y302712D01*
X336606Y301129D01*
X335487Y299191D01*
X334908Y297029D01*
Y294791D01*
X335401Y292950D01*
X326690Y284239D01*
X280331D01*
X279290Y286043D01*
X277661Y287672D01*
X275665Y288824D01*
X273440Y289420D01*
X271136D01*
X268911Y288824D01*
X266915Y287672D01*
X265286Y286043D01*
X264134Y284047D01*
X263538Y281822D01*
Y279518D01*
X264134Y277293D01*
X265286Y275297D01*
X266915Y273668D01*
X268911Y272516D01*
X271136Y271920D01*
X273440D01*
X275665Y272516D01*
X277661Y273668D01*
X279290Y275297D01*
X280331Y277101D01*
X328168D01*
X329534Y277373D01*
X330691Y278147D01*
X340448Y287903D01*
X342289Y287410D01*
X344527D01*
X346689Y287989D01*
X348627Y289108D01*
X350210Y290691D01*
X351329Y292629D01*
X351908Y294791D01*
Y297029D01*
X351329Y299191D01*
X350210Y301129D01*
X348627Y302712D01*
X346689Y303831D01*
X344527Y304410D01*
D02*
G37*
G36*
X428498Y276471D02*
Y269240D01*
X435729D01*
X435186Y271266D01*
X434062Y273214D01*
X432472Y274804D01*
X430524Y275928D01*
X428498Y276471D01*
D02*
G37*
G36*
X425958D02*
X423932Y275928D01*
X421984Y274804D01*
X420394Y273214D01*
X419270Y271266D01*
X418727Y269240D01*
X425958D01*
Y276471D01*
D02*
G37*
G36*
X435729Y266700D02*
X428498D01*
Y259469D01*
X430524Y260012D01*
X432472Y261136D01*
X434062Y262726D01*
X435186Y264674D01*
X435729Y266700D01*
D02*
G37*
G36*
X425958D02*
X418727D01*
X419270Y264674D01*
X420394Y262726D01*
X421984Y261136D01*
X423932Y260012D01*
X425958Y259469D01*
Y266700D01*
D02*
G37*
G36*
X344527Y254410D02*
X342289D01*
X340127Y253831D01*
X338189Y252712D01*
X336606Y251129D01*
X335948Y249988D01*
X299445D01*
X299445Y249988D01*
X297885Y249678D01*
X296562Y248794D01*
X296562Y248794D01*
X294804Y247036D01*
X293920Y245713D01*
X293610Y244153D01*
X293610Y244153D01*
Y175260D01*
X293610Y175260D01*
X293920Y173699D01*
X294804Y172376D01*
X304964Y162216D01*
X304964Y162216D01*
X306287Y161332D01*
X307848Y161022D01*
X311818D01*
X312476Y159881D01*
X314059Y158298D01*
X315997Y157179D01*
X318159Y156600D01*
X320397D01*
X322559Y157179D01*
X324497Y158298D01*
X326080Y159881D01*
X327199Y161819D01*
X327778Y163981D01*
Y166219D01*
X327199Y168381D01*
X326080Y170319D01*
X324497Y171902D01*
X322559Y173021D01*
X320397Y173600D01*
X318159D01*
X315997Y173021D01*
X314059Y171902D01*
X312476Y170319D01*
X311818Y169178D01*
X309537D01*
X301766Y176949D01*
Y241832D01*
X335948D01*
X336606Y240691D01*
X338189Y239108D01*
X339330Y238450D01*
Y222738D01*
X339330Y222737D01*
X339640Y221177D01*
X340524Y219853D01*
X342281Y218096D01*
X342281Y218096D01*
X343605Y217212D01*
X345165Y216902D01*
X345165Y216902D01*
X419948D01*
X420606Y215761D01*
X422189Y214178D01*
X424127Y213059D01*
X426289Y212480D01*
X428527D01*
X430689Y213059D01*
X432627Y214178D01*
X434210Y215761D01*
X435329Y217699D01*
X435908Y219861D01*
Y222099D01*
X435329Y224261D01*
X434210Y226199D01*
X432627Y227782D01*
X430689Y228901D01*
X428527Y229480D01*
X426289D01*
X424127Y228901D01*
X422189Y227782D01*
X420606Y226199D01*
X419948Y225058D01*
X347486D01*
Y238450D01*
X348627Y239108D01*
X350210Y240691D01*
X351329Y242629D01*
X351908Y244791D01*
Y247029D01*
X351329Y249191D01*
X350210Y251129D01*
X348627Y252712D01*
X346689Y253831D01*
X344527Y254410D01*
D02*
G37*
G36*
X222640Y289420D02*
X220336D01*
X218111Y288824D01*
X216115Y287672D01*
X214486Y286043D01*
X213334Y284047D01*
X212738Y281822D01*
Y279518D01*
X213334Y277293D01*
X214486Y275297D01*
X216115Y273668D01*
X218111Y272516D01*
X220336Y271920D01*
X222640D01*
X224652Y272459D01*
X238677Y258434D01*
X238138Y256422D01*
Y254118D01*
X238734Y251893D01*
X239886Y249897D01*
X241515Y248268D01*
X243511Y247116D01*
X245736Y246520D01*
X248040D01*
X250265Y247116D01*
X252261Y248268D01*
X253890Y249897D01*
X254931Y251701D01*
X267208D01*
X268574Y251973D01*
X269731Y252747D01*
X281386Y264401D01*
X390639D01*
Y247552D01*
X390911Y246186D01*
X391685Y245028D01*
X392856Y243857D01*
X394014Y243083D01*
X395380Y242811D01*
X596056D01*
X597422Y243083D01*
X598580Y243857D01*
X599751Y245028D01*
X600525Y246186D01*
X600797Y247552D01*
Y260215D01*
X602447Y261168D01*
X604030Y262751D01*
X605149Y264689D01*
X605728Y266851D01*
Y269089D01*
X605149Y271251D01*
X604030Y273189D01*
X602447Y274772D01*
X600509Y275891D01*
X598347Y276470D01*
X596109D01*
X593947Y275891D01*
X592009Y274772D01*
X590426Y273189D01*
X589307Y271251D01*
X588728Y269089D01*
Y266851D01*
X589307Y264689D01*
X590426Y262751D01*
X592009Y261168D01*
X593659Y260215D01*
Y249949D01*
X397777D01*
Y266798D01*
X397505Y268164D01*
X396731Y269322D01*
X395560Y270493D01*
X394402Y271267D01*
X393036Y271539D01*
X279908D01*
X278542Y271267D01*
X277385Y270493D01*
X265730Y258839D01*
X254931D01*
X253890Y260643D01*
X252261Y262272D01*
X250265Y263424D01*
X248040Y264020D01*
X245736D01*
X243724Y263481D01*
X229699Y277506D01*
X230238Y279518D01*
Y281822D01*
X229642Y284047D01*
X228490Y286043D01*
X226861Y287672D01*
X224865Y288824D01*
X222640Y289420D01*
D02*
G37*
G36*
X459111Y492020D02*
X456965D01*
X454892Y491465D01*
X453034Y490392D01*
X451516Y488874D01*
X450443Y487016D01*
X449888Y484943D01*
Y482797D01*
X450317Y481196D01*
X440310Y471189D01*
X374848D01*
X373482Y470917D01*
X372325Y470143D01*
X344910Y442729D01*
X313293D01*
X312560Y443999D01*
X313233Y445164D01*
X313788Y447237D01*
Y449383D01*
X313233Y451456D01*
X312160Y453314D01*
X310642Y454832D01*
X308784Y455905D01*
X306711Y456460D01*
X304565D01*
X302492Y455905D01*
X300634Y454832D01*
X299116Y453314D01*
X298043Y451456D01*
X297488Y449383D01*
Y447237D01*
X298043Y445164D01*
X299116Y443306D01*
X300634Y441788D01*
X302492Y440715D01*
X303414Y440468D01*
X303793Y439052D01*
X291220Y426479D01*
X233589D01*
X232760Y427914D01*
X231242Y429432D01*
X229384Y430505D01*
X227311Y431060D01*
X225165D01*
X223092Y430505D01*
X221234Y429432D01*
X219716Y427914D01*
X219287Y427171D01*
X217597Y426728D01*
X217437Y426823D01*
Y444741D01*
X218888D01*
X219716Y443306D01*
X221234Y441788D01*
X223092Y440715D01*
X225165Y440160D01*
X227311D01*
X229384Y440715D01*
X231242Y441788D01*
X232760Y443306D01*
X233833Y445164D01*
X234388Y447237D01*
Y449383D01*
X233833Y451456D01*
X232760Y453314D01*
X231242Y454832D01*
X229384Y455905D01*
X227311Y456460D01*
X225165D01*
X223092Y455905D01*
X221234Y454832D01*
X219716Y453314D01*
X218888Y451879D01*
X215040D01*
X213674Y451607D01*
X212516Y450833D01*
X211345Y449662D01*
X210571Y448504D01*
X210299Y447138D01*
Y422340D01*
X210571Y420974D01*
X211345Y419817D01*
X219925Y411237D01*
X221082Y410463D01*
X222448Y410191D01*
X296488D01*
X297854Y410463D01*
X299011Y411237D01*
X302964Y415189D01*
X304565Y414760D01*
X306711D01*
X308784Y415315D01*
X310642Y416388D01*
X312160Y417906D01*
X313233Y419764D01*
X313788Y421837D01*
Y423983D01*
X313233Y426056D01*
X312160Y427914D01*
X310642Y429432D01*
X308784Y430505D01*
X307484Y430853D01*
X307104Y432270D01*
X310426Y435591D01*
X346388D01*
X347754Y435863D01*
X348911Y436637D01*
X369278Y457004D01*
X370695Y456624D01*
X371043Y455324D01*
X372116Y453466D01*
X373634Y451948D01*
X375492Y450875D01*
X377565Y450320D01*
X379711D01*
X381784Y450875D01*
X383642Y451948D01*
X385160Y453466D01*
X386233Y455324D01*
X386788Y457397D01*
Y459543D01*
X386233Y461616D01*
X385560Y462781D01*
X386293Y464051D01*
X441788D01*
X443154Y464323D01*
X444311Y465097D01*
X455364Y476149D01*
X456965Y475720D01*
X459111D01*
X461184Y476275D01*
X463042Y477348D01*
X464560Y478866D01*
X465388Y480301D01*
X612889D01*
Y224998D01*
X612440Y224549D01*
X605163D01*
X604210Y226199D01*
X602627Y227782D01*
X600689Y228901D01*
X598527Y229480D01*
X596289D01*
X594127Y228901D01*
X592189Y227782D01*
X590606Y226199D01*
X589487Y224261D01*
X588908Y222099D01*
Y219861D01*
X589487Y217699D01*
X590606Y215761D01*
X592189Y214178D01*
X594127Y213059D01*
X596289Y212480D01*
X598527D01*
X600689Y213059D01*
X602627Y214178D01*
X604210Y215761D01*
X605163Y217411D01*
X613918D01*
X615284Y217683D01*
X616441Y218457D01*
X618981Y220997D01*
X619755Y222154D01*
X620027Y223520D01*
Y482698D01*
X619755Y484064D01*
X618981Y485222D01*
X617810Y486393D01*
X616652Y487167D01*
X615286Y487439D01*
X465388D01*
X464560Y488874D01*
X463042Y490392D01*
X461184Y491465D01*
X459111Y492020D01*
D02*
G37*
G36*
X370397Y173600D02*
X368159D01*
X365997Y173021D01*
X364059Y171902D01*
X362476Y170319D01*
X361357Y168381D01*
X360778Y166219D01*
Y163981D01*
X361357Y161819D01*
X362476Y159881D01*
X364059Y158298D01*
X365997Y157179D01*
X368159Y156600D01*
X370397D01*
X372559Y157179D01*
X374497Y158298D01*
X376080Y159881D01*
X377199Y161819D01*
X377778Y163981D01*
Y166219D01*
X377199Y168381D01*
X376080Y170319D01*
X374497Y171902D01*
X372559Y173021D01*
X370397Y173600D01*
D02*
G37*
G36*
X688458Y154550D02*
X671458D01*
Y137550D01*
X688458D01*
Y154550D01*
D02*
G37*
G36*
X96638Y139310D02*
X79638D01*
Y122310D01*
X96638D01*
Y139310D01*
D02*
G37*
G36*
X539868Y51680D02*
X522868D01*
Y34680D01*
X539868D01*
Y51680D01*
D02*
G37*
G36*
X282058Y30090D02*
X265058D01*
Y13090D01*
X282058D01*
Y30090D01*
D02*
G37*
%LPD*%
D11*
X298958Y21590D02*
X558233D01*
X559404Y22762D02*
Y35508D01*
X558233Y21590D02*
X559404Y22762D01*
X678688Y598170D02*
X737108D01*
X738378Y147222D02*
Y596900D01*
X737108Y598170D02*
X738378Y596900D01*
X678688Y510262D02*
Y598170D01*
X216310Y708914D02*
X492096D01*
X493268Y707742D01*
X215138Y675640D02*
Y707742D01*
X493268Y694690D02*
Y707742D01*
X215138D02*
X216310Y708914D01*
X48768Y675640D02*
X215138D01*
X44668Y563590D02*
Y671540D01*
X48768Y675640D01*
X42418Y561340D02*
X44668Y563590D01*
X22098Y132080D02*
X23368Y130810D01*
X22098Y132080D02*
Y336550D01*
X23368Y130810D02*
X62738D01*
X677516Y509090D02*
X678688Y510262D01*
X597408Y598170D02*
X653288D01*
X499358Y500120D02*
X597408Y598170D01*
X554228Y509090D02*
X677516D01*
X215040Y448310D02*
X226238D01*
X213868Y422340D02*
Y447138D01*
X215040Y448310D01*
X213868Y422340D02*
X222448Y413760D01*
X226238Y422910D02*
X292698D01*
X308948Y439160D01*
X705358Y146050D02*
X737206D01*
X738378Y147222D01*
X705358Y40568D02*
Y146050D01*
X564070Y39396D02*
X704186D01*
X705358Y40568D01*
X562773Y40693D02*
X564070Y39396D01*
X559255Y40693D02*
X562773D01*
X556768Y43180D02*
X559255Y40693D01*
Y35657D02*
Y40693D01*
Y35657D02*
X559404Y35508D01*
X394208Y247552D02*
X395380Y246380D01*
X596056D01*
X279908Y267970D02*
X393036D01*
X394208Y266798D01*
Y247552D02*
Y266798D01*
X246888Y255270D02*
X267208D01*
X279908Y267970D01*
X597228Y247552D02*
Y267970D01*
X596056Y246380D02*
X597228Y247552D01*
X221488Y280670D02*
X246888Y255270D01*
X597408Y220980D02*
X613918D01*
X616458Y223520D01*
Y482698D01*
X458038Y483870D02*
X615286D01*
X616458Y482698D01*
X394888Y500120D02*
X499358D01*
X42418Y356870D02*
Y561340D01*
X22098Y336550D02*
X42418Y356870D01*
X91948Y377190D02*
X371485D01*
X67818Y401320D02*
Y561340D01*
Y401320D02*
X91948Y377190D01*
X375328Y366020D02*
X391578Y382270D01*
X260620Y366020D02*
X375328D01*
X231150Y336550D02*
X260620Y366020D01*
X376565Y382270D02*
X378638D01*
X371485Y377190D02*
X376565Y382270D01*
X378638Y483870D02*
X394888Y500120D01*
X391578Y382270D02*
X458038D01*
X47498Y336550D02*
X231150D01*
X222448Y413760D02*
X296488D01*
X305638Y422910D01*
X374848Y467620D02*
X441788D01*
X346388Y439160D02*
X374848Y467620D01*
X308948Y439160D02*
X346388D01*
X441788Y467620D02*
X458038Y483870D01*
X328168Y280670D02*
X343408Y295910D01*
X272288Y280670D02*
X328168D01*
D25*
X468651Y458470D02*
X470408Y456713D01*
X458038Y458470D02*
X468651D01*
X390134Y368366D02*
X468651D01*
X470408Y370123D01*
Y456713D01*
X378638Y356870D02*
X390134Y368366D01*
X357378Y347980D02*
X369748D01*
X378638Y356870D01*
Y340847D02*
Y356870D01*
Y340847D02*
X380395Y339090D01*
X554228D01*
X305638Y473710D02*
Y509805D01*
X303881Y511562D02*
X305638Y509805D01*
X281665Y511562D02*
X303881D01*
X297688Y244153D02*
X299445Y245910D01*
X297688Y175260D02*
Y244153D01*
Y175260D02*
X307848Y165100D01*
X299445Y245910D02*
X343408D01*
Y222737D02*
X345165Y220980D01*
X427408D01*
X343408Y222737D02*
Y245910D01*
X279908Y513320D02*
Y547370D01*
Y513320D02*
X281665Y511562D01*
X226238Y500050D02*
X254508Y528320D01*
Y547370D01*
X226238Y473710D02*
Y500050D01*
X254508Y547370D02*
Y567203D01*
X456438Y568960D02*
X475488Y549910D01*
X254508Y567203D02*
X256265Y568960D01*
X456438D01*
X475488Y526720D02*
Y549910D01*
X458038Y509270D02*
X475488Y526720D01*
X307161Y472187D02*
X352767D01*
X357125Y476544D01*
Y545613D01*
X307848Y165100D02*
X319278D01*
X358882Y547370D02*
X445338D01*
X357125Y545613D02*
X358882Y547370D01*
X305638Y473710D02*
X307161Y472187D01*
X445338Y547370D02*
X458038Y534670D01*
X226238Y397510D02*
X227838D01*
D26*
X597408Y220980D02*
D03*
X427408D02*
D03*
X597228Y267970D02*
D03*
X427228D02*
D03*
X319278Y165100D02*
D03*
X369278D02*
D03*
X343408Y245910D02*
D03*
Y295910D02*
D03*
X554228Y339090D02*
D03*
Y509090D02*
D03*
D27*
X705358Y146050D02*
D03*
X556768Y43180D02*
D03*
X298958Y21590D02*
D03*
X62738Y130810D02*
D03*
X22098Y336550D02*
D03*
X42418Y561340D02*
D03*
X215138Y675640D02*
D03*
X493268Y694690D02*
D03*
X678688Y598170D02*
D03*
X738378Y355600D02*
D03*
D28*
X679958Y146050D02*
D03*
X531368Y43180D02*
D03*
X273558Y21590D02*
D03*
X88138Y130810D02*
D03*
X47498Y336550D02*
D03*
X67818Y561340D02*
D03*
X240538Y675640D02*
D03*
X467868Y694690D02*
D03*
X653288Y598170D02*
D03*
X712978Y355600D02*
D03*
D29*
X378638Y534670D02*
D03*
X226238Y473710D02*
D03*
D30*
X378638Y509270D02*
D03*
Y483870D02*
D03*
Y458470D02*
D03*
Y433070D02*
D03*
Y407670D02*
D03*
Y382270D02*
D03*
Y356870D02*
D03*
X458038D02*
D03*
Y382270D02*
D03*
Y407670D02*
D03*
Y433070D02*
D03*
Y458470D02*
D03*
Y483870D02*
D03*
Y509270D02*
D03*
Y534670D02*
D03*
X305638Y473710D02*
D03*
Y448310D02*
D03*
Y422910D02*
D03*
Y397510D02*
D03*
X226238D02*
D03*
Y422910D02*
D03*
Y448310D02*
D03*
D31*
X279908Y547370D02*
D03*
D32*
X254508D02*
D03*
D33*
X272288Y280670D02*
D03*
X246888Y255270D02*
D03*
X221488Y280670D02*
D03*
D34*
X17018Y13208D02*
D03*
X732790D02*
D03*
X734568Y698754D02*
D03*
X19812D02*
D03*
D35*
X357378Y347980D02*
D03*
M02*
