M48
METRIC,LZ,000.000
;FILE_FORMAT=3:3
;TYPE=PLATED
;Layer: PTH_Through
;EasyEDA v6.5.34, 2023-08-22 14:58:17
;f83e431953fc400cbb41a7eecddf86f7,363aeda0569944ed908a43946366a132,10
;Gerber Generator version 0.2
;Holesize 1 = 0.301 mm
T01C0.301
;Holesize 2 = 0.311 mm
T02C0.311
;Holesize 3 = 0.600 mm
T03C0.600
;Holesize 4 = 0.800 mm
T04C0.800
;Holesize 5 = 0.813 mm
T05C0.813
;Holesize 6 = 0.901 mm
T06C0.901
;Holesize 7 = 0.915 mm
T07C0.915
;Holesize 8 = 1.200 mm
T08C1.200
;Holesize 9 = 1.301 mm
T09C1.301
%
G05
G90
T01
X036576Y021593
X039116Y021593
X041656Y021593
X044196Y021593
X046736Y021593
X049276Y021593
X051816Y021593
X054356Y021593
X036576Y028953
X039116Y028953
X041656Y028953
X044196Y028953
X046736Y028953
X049276Y028953
X051816Y028953
X054356Y028953
T02
X062508Y028387
X041977Y019218
X028236Y037293
X057410Y025247
X051706Y024023
T03
X012192Y023876
X014732Y023876
T04
X025424Y013081
X028424Y013081
T05
X026670Y028953G85X026670Y028959
X026670Y018793G85X026670Y018799
T06
X064516Y035941
X079756Y033401
X079756Y028320
X079756Y023240
X079756Y018160
X079756Y013080
X079756Y008000
X079756Y002920
X064516Y000381
X064516Y005462
X064516Y010542
X064516Y015622
X064516Y020702
X064516Y025782
X064516Y030861
X064516Y033401
X064516Y028321
X064516Y023241
X064516Y018161
X064516Y013081
X064516Y008001
X064516Y002921
X079756Y000381
X079756Y005461
X079756Y010541
X079756Y015621
X079756Y020701
X079756Y025781
X079756Y030861
X079756Y035941
X014730Y035531G85X014730Y033431
X017080Y029781G85X019180Y029781
X020830Y033181G85X020830Y035781
X015494Y000762
X018034Y000762
X020574Y000762
X023114Y000762
X025654Y000762
X028194Y000762
T07
X054229Y002921
X051689Y002921
X049149Y002921
X046609Y002921
X044069Y002921
X041529Y002921
X038989Y002921
X036449Y002921
X036449Y015621
X038989Y015621
X041529Y015621
X044069Y015621
X046609Y015621
X049149Y015621
X051689Y015621
X054229Y015621
X019431Y-006604
X016891Y-006604
X021971Y-006604
X024511Y-006604
T08
X013462Y011557
X013462Y009017
X013462Y014097
T09
X038392Y036322
X043396Y036322
X051092Y036322
X056096Y036322
X055207Y-007112
X050203Y-007112
X037757Y-008001
X042761Y-008001
M30
