G04 Layer: TopLayer*
G04 EasyEDA v6.5.34, 2023-08-22 14:58:17*
G04 f83e431953fc400cbb41a7eecddf86f7,363aeda0569944ed908a43946366a132,10*
G04 Gerber Generator version 0.2*
G04 Scale: 100 percent, Rotated: No, Reflected: No *
G04 Dimensions in millimeters *
G04 leading zeros omitted , absolute positions ,4 integer and 5 decimal *
%FSLAX45Y45*%
%MOMM*%

%AMMACRO1*4,1,8,-0.3693,0.8918,-0.8918,0.3693,-0.8918,-0.3693,-0.3693,-0.8918,0.3693,-0.8918,0.8918,-0.3693,0.8918,0.3693,0.3693,0.8918,-0.3693,0.8918,0*%
%ADD10C,0.2600*%
%ADD11R,1.4699X1.7699*%
%ADD12C,1.5240*%
%ADD13R,1.5240X1.5240*%
%ADD14R,1.6000X1.6000*%
%ADD15C,1.6000*%
%ADD16C,1.3000*%
%ADD17O,1.499997X3.5999928*%
%ADD18O,3.5999928X1.499997*%
%ADD19O,1.499997X4.0999918*%
%ADD20R,2.0320X2.0320*%
%ADD21C,2.0320*%
%ADD22C,1.8000*%
%ADD23O,1.9999959999999999X1.9999959999999999*%
%ADD24R,2.0000X2.0000*%
%ADD25C,2.0000*%
%ADD26O,3.4999930000000004X1.7999964*%
%ADD27R,3.5000X1.8000*%
%ADD28MACRO1*%
%ADD29C,0.6100*%
%ADD30C,0.0125*%

%LPD*%
G36*
X8345728Y-1523288D02*
G01*
X736041Y-1475435D01*
X732129Y-1474673D01*
X728878Y-1472438D01*
X726694Y-1469186D01*
X725932Y-1465275D01*
X724408Y4510735D01*
X725170Y4514646D01*
X727354Y4517898D01*
X730656Y4520133D01*
X734517Y4520895D01*
X8320633Y4571238D01*
X8324494Y4570526D01*
X8327847Y4568291D01*
X8330031Y4565040D01*
X8330844Y4561128D01*
X8355939Y-1513078D01*
X8355177Y-1516989D01*
X8352942Y-1520291D01*
X8349640Y-1522526D01*
G37*

%LPC*%
G36*
X8031276Y-1420063D02*
G01*
X8050631Y-1418640D01*
X8069732Y-1415389D01*
X8088477Y-1410258D01*
X8106613Y-1403400D01*
X8124037Y-1394764D01*
X8140547Y-1384554D01*
X8155940Y-1372768D01*
X8170164Y-1359509D01*
X8183016Y-1344980D01*
X8194446Y-1329283D01*
X8204301Y-1312570D01*
X8212480Y-1294942D01*
X8218931Y-1276654D01*
X8223554Y-1257808D01*
X8226348Y-1238605D01*
X8227314Y-1219200D01*
X8226348Y-1199794D01*
X8223554Y-1180592D01*
X8218931Y-1161745D01*
X8212480Y-1143457D01*
X8204301Y-1125829D01*
X8194446Y-1109116D01*
X8183016Y-1093419D01*
X8170164Y-1078890D01*
X8155940Y-1065631D01*
X8140547Y-1053846D01*
X8124037Y-1043635D01*
X8106613Y-1034999D01*
X8088477Y-1028141D01*
X8069732Y-1023061D01*
X8050631Y-1019759D01*
X8031276Y-1018336D01*
X8011871Y-1018844D01*
X7992567Y-1021181D01*
X7973618Y-1025347D01*
X7955178Y-1031341D01*
X7937347Y-1039114D01*
X7920380Y-1048562D01*
X7904429Y-1059586D01*
X7889595Y-1072083D01*
X7876031Y-1086002D01*
X7863890Y-1101140D01*
X7853222Y-1117346D01*
X7844231Y-1134567D01*
X7836916Y-1152499D01*
X7831328Y-1171143D01*
X7827619Y-1190193D01*
X7825740Y-1209497D01*
X7825740Y-1228902D01*
X7827619Y-1248206D01*
X7831328Y-1267256D01*
X7836916Y-1285900D01*
X7844231Y-1303883D01*
X7853222Y-1321054D01*
X7863890Y-1337259D01*
X7876031Y-1352397D01*
X7889595Y-1366316D01*
X7904429Y-1378813D01*
X7920380Y-1389837D01*
X7937347Y-1399286D01*
X7955178Y-1407058D01*
X7973618Y-1413052D01*
X7992567Y-1417218D01*
X8011871Y-1419555D01*
G37*
G36*
X1033576Y-1394663D02*
G01*
X1052931Y-1393240D01*
X1072032Y-1389989D01*
X1090777Y-1384858D01*
X1108913Y-1378000D01*
X1126337Y-1369364D01*
X1142847Y-1359154D01*
X1158240Y-1347368D01*
X1172464Y-1334109D01*
X1185316Y-1319580D01*
X1196746Y-1303883D01*
X1206601Y-1287170D01*
X1214780Y-1269542D01*
X1221232Y-1251254D01*
X1225854Y-1232408D01*
X1228648Y-1213205D01*
X1229614Y-1193800D01*
X1228648Y-1174394D01*
X1225854Y-1155192D01*
X1221232Y-1136345D01*
X1214780Y-1118057D01*
X1206601Y-1100429D01*
X1196746Y-1083716D01*
X1185316Y-1068019D01*
X1172464Y-1053490D01*
X1158240Y-1040231D01*
X1142847Y-1028446D01*
X1126337Y-1018235D01*
X1108913Y-1009599D01*
X1090777Y-1002741D01*
X1072032Y-997661D01*
X1052931Y-994359D01*
X1033576Y-992936D01*
X1014171Y-993444D01*
X994867Y-995781D01*
X975918Y-999947D01*
X957478Y-1005941D01*
X939647Y-1013714D01*
X922680Y-1023162D01*
X906729Y-1034186D01*
X891895Y-1046683D01*
X878332Y-1060602D01*
X866190Y-1075740D01*
X855522Y-1091946D01*
X846531Y-1109167D01*
X839216Y-1127099D01*
X833628Y-1145743D01*
X829919Y-1164793D01*
X828040Y-1184097D01*
X828040Y-1203502D01*
X829919Y-1222806D01*
X833628Y-1241856D01*
X839216Y-1260500D01*
X846531Y-1278483D01*
X855522Y-1295654D01*
X866190Y-1311859D01*
X878332Y-1326997D01*
X891895Y-1340916D01*
X906729Y-1353413D01*
X922680Y-1364437D01*
X939647Y-1373886D01*
X957478Y-1381658D01*
X975918Y-1387652D01*
X994867Y-1391818D01*
X1014171Y-1394155D01*
G37*
G36*
X2520696Y-969822D02*
G01*
X6479387Y-969822D01*
X6487464Y-969010D01*
X6494729Y-966825D01*
X6501434Y-963218D01*
X6507734Y-958087D01*
X7843012Y377240D01*
X7846314Y379425D01*
X7850225Y380187D01*
X7890002Y380187D01*
X7893761Y379476D01*
X7897012Y377393D01*
X7899247Y374243D01*
X7900162Y370484D01*
X7899552Y366674D01*
X7897622Y363321D01*
X7891627Y356514D01*
X7883956Y344982D01*
X7877809Y332587D01*
X7873390Y319430D01*
X7870647Y305866D01*
X7869783Y292049D01*
X7870647Y278231D01*
X7873390Y264617D01*
X7877809Y251510D01*
X7883956Y239115D01*
X7891627Y227584D01*
X7900771Y217170D01*
X7911185Y208025D01*
X7922717Y200355D01*
X7935112Y194208D01*
X7948218Y189788D01*
X7961833Y187045D01*
X7975650Y186182D01*
X7989468Y187045D01*
X8003031Y189788D01*
X8016189Y194208D01*
X8028584Y200355D01*
X8040116Y208025D01*
X8050530Y217170D01*
X8059674Y227584D01*
X8067344Y239115D01*
X8073491Y251510D01*
X8077911Y264617D01*
X8080603Y278231D01*
X8081518Y292049D01*
X8080603Y305866D01*
X8077911Y319430D01*
X8073491Y332587D01*
X8067344Y344982D01*
X8059674Y356514D01*
X8050530Y366928D01*
X8044027Y372618D01*
X8041436Y376123D01*
X8040573Y380441D01*
X8041589Y384657D01*
X8044281Y388112D01*
X8048955Y391922D01*
X8122716Y465683D01*
X8127898Y471982D01*
X8131454Y478688D01*
X8133689Y486003D01*
X8134451Y494080D01*
X8134451Y1949653D01*
X8133689Y1957730D01*
X8131454Y1964994D01*
X8127898Y1971700D01*
X8122716Y1977999D01*
X8077301Y2023414D01*
X8075218Y2026513D01*
X8074355Y2030171D01*
X8074863Y2033879D01*
X8077860Y2042668D01*
X8080552Y2056282D01*
X8081467Y2070100D01*
X8080552Y2083917D01*
X8077860Y2097481D01*
X8073440Y2110638D01*
X8067294Y2123033D01*
X8059623Y2134565D01*
X8050479Y2144979D01*
X8040065Y2154123D01*
X8028533Y2161794D01*
X8016138Y2167940D01*
X8002981Y2172360D01*
X7989417Y2175052D01*
X7975600Y2175967D01*
X7961782Y2175052D01*
X7948168Y2172360D01*
X7935061Y2167940D01*
X7922666Y2161794D01*
X7911134Y2154123D01*
X7900720Y2144979D01*
X7891576Y2134565D01*
X7883906Y2123033D01*
X7877759Y2110638D01*
X7873339Y2097481D01*
X7870596Y2083917D01*
X7869732Y2070100D01*
X7870596Y2056282D01*
X7873339Y2042668D01*
X7877759Y2029561D01*
X7883906Y2017166D01*
X7891576Y2005634D01*
X7900720Y1995220D01*
X7911134Y1986076D01*
X7922666Y1978406D01*
X7935061Y1972259D01*
X7948168Y1967839D01*
X7961782Y1965096D01*
X7975600Y1964232D01*
X7989417Y1965096D01*
X8002981Y1967839D01*
X8011820Y1970836D01*
X8015528Y1971344D01*
X8019186Y1970481D01*
X8022285Y1968398D01*
X8053679Y1937004D01*
X8055864Y1933702D01*
X8056676Y1929790D01*
X8056676Y1907946D01*
X8055711Y1903679D01*
X8053070Y1900224D01*
X8049259Y1898192D01*
X8044891Y1897938D01*
X8040827Y1899513D01*
X8028584Y1907743D01*
X8016189Y1913889D01*
X8003031Y1918309D01*
X7989468Y1921002D01*
X7975650Y1921916D01*
X7961833Y1921002D01*
X7948218Y1918309D01*
X7935112Y1913889D01*
X7922717Y1907743D01*
X7911185Y1900072D01*
X7900771Y1890928D01*
X7891627Y1880514D01*
X7883956Y1868982D01*
X7877809Y1856587D01*
X7873390Y1843430D01*
X7870647Y1829866D01*
X7869783Y1816049D01*
X7870647Y1802231D01*
X7873390Y1788617D01*
X7876336Y1779879D01*
X7876895Y1776171D01*
X7876031Y1772513D01*
X7873898Y1769414D01*
X6825742Y721258D01*
X6822440Y719074D01*
X6818579Y718312D01*
X6542836Y718312D01*
X6539026Y719023D01*
X6535775Y721106D01*
X6533591Y724255D01*
X6532676Y728014D01*
X6533235Y731824D01*
X6543294Y747166D01*
X6549440Y759561D01*
X6553860Y772718D01*
X6556552Y786282D01*
X6557467Y800100D01*
X6556552Y813917D01*
X6553860Y827532D01*
X6549440Y840638D01*
X6543294Y853033D01*
X6535623Y864565D01*
X6526479Y874979D01*
X6516065Y884123D01*
X6504533Y891794D01*
X6492138Y897940D01*
X6478981Y902360D01*
X6465417Y905103D01*
X6451600Y905967D01*
X6437782Y905103D01*
X6424168Y902360D01*
X6411061Y897940D01*
X6398666Y891794D01*
X6387134Y884123D01*
X6376720Y874979D01*
X6367576Y864565D01*
X6359906Y853033D01*
X6355791Y844651D01*
X6353505Y841654D01*
X6350355Y839673D01*
X6346647Y839012D01*
X4681220Y839012D01*
X4677359Y839774D01*
X4674057Y841959D01*
X3997655Y1518361D01*
X3995572Y1521358D01*
X3994708Y1524914D01*
X3995115Y1528572D01*
X3998214Y1538427D01*
X4000449Y1551889D01*
X4000906Y1565503D01*
X3999585Y1579067D01*
X3996385Y1592326D01*
X3991508Y1605076D01*
X3986072Y1614982D01*
X3984853Y1618996D01*
X3985361Y1623161D01*
X3987495Y1626768D01*
X3990898Y1629206D01*
X3994962Y1630070D01*
X4056837Y1630070D01*
X4060901Y1629206D01*
X4064304Y1626768D01*
X4066438Y1623161D01*
X4066946Y1618996D01*
X4065727Y1614982D01*
X4060291Y1605076D01*
X4055414Y1592326D01*
X4052214Y1579067D01*
X4050893Y1565503D01*
X4051350Y1551889D01*
X4053586Y1538427D01*
X4057650Y1525422D01*
X4063390Y1513027D01*
X4070705Y1501546D01*
X4079494Y1491132D01*
X4089654Y1481988D01*
X4100880Y1474266D01*
X4113022Y1468120D01*
X4125925Y1463649D01*
X4139285Y1460906D01*
X4152900Y1459992D01*
X4166514Y1460906D01*
X4179874Y1463649D01*
X4192778Y1468120D01*
X4204919Y1474266D01*
X4216146Y1481988D01*
X4226306Y1491132D01*
X4235094Y1501546D01*
X4242409Y1513027D01*
X4244390Y1517294D01*
X4246626Y1520393D01*
X4249877Y1522476D01*
X4253636Y1523187D01*
X4306163Y1523187D01*
X4309922Y1522476D01*
X4313174Y1520393D01*
X4315409Y1517294D01*
X4317390Y1513027D01*
X4324705Y1501546D01*
X4333494Y1491132D01*
X4343654Y1481988D01*
X4354880Y1474266D01*
X4367022Y1468120D01*
X4379925Y1463649D01*
X4393285Y1460906D01*
X4406900Y1459992D01*
X4420514Y1460906D01*
X4433874Y1463649D01*
X4446778Y1468120D01*
X4458919Y1474266D01*
X4470146Y1481988D01*
X4480306Y1491132D01*
X4489094Y1501546D01*
X4496409Y1513027D01*
X4502150Y1525422D01*
X4506214Y1538427D01*
X4508449Y1551889D01*
X4508906Y1565503D01*
X4507585Y1579067D01*
X4504385Y1592326D01*
X4499508Y1605076D01*
X4494072Y1614982D01*
X4492853Y1618996D01*
X4493361Y1623161D01*
X4495495Y1626768D01*
X4498898Y1629206D01*
X4502962Y1630070D01*
X4564837Y1630070D01*
X4568901Y1629206D01*
X4572304Y1626768D01*
X4574438Y1623161D01*
X4574946Y1618996D01*
X4573727Y1614982D01*
X4568291Y1605076D01*
X4563414Y1592326D01*
X4560214Y1579067D01*
X4558893Y1565503D01*
X4559350Y1551889D01*
X4561586Y1538427D01*
X4565650Y1525422D01*
X4571390Y1513027D01*
X4578705Y1501546D01*
X4587494Y1491132D01*
X4597654Y1481988D01*
X4608880Y1474266D01*
X4621022Y1468120D01*
X4633925Y1463649D01*
X4647285Y1460906D01*
X4660900Y1459992D01*
X4674514Y1460906D01*
X4687874Y1463649D01*
X4700778Y1468120D01*
X4712919Y1474266D01*
X4724146Y1481988D01*
X4734306Y1491132D01*
X4743094Y1501546D01*
X4750409Y1513027D01*
X4752390Y1517294D01*
X4754626Y1520393D01*
X4757877Y1522476D01*
X4761636Y1523187D01*
X4814163Y1523187D01*
X4817922Y1522476D01*
X4821174Y1520393D01*
X4823409Y1517294D01*
X4825390Y1513027D01*
X4832705Y1501546D01*
X4841494Y1491132D01*
X4851654Y1481988D01*
X4862880Y1474266D01*
X4875022Y1468120D01*
X4887925Y1463649D01*
X4901285Y1460906D01*
X4914900Y1459992D01*
X4928514Y1460906D01*
X4941874Y1463649D01*
X4954778Y1468120D01*
X4966919Y1474266D01*
X4978146Y1481988D01*
X4988306Y1491132D01*
X4997094Y1501546D01*
X5004409Y1513027D01*
X5006390Y1517294D01*
X5008626Y1520393D01*
X5011877Y1522476D01*
X5015636Y1523187D01*
X5068163Y1523187D01*
X5071922Y1522476D01*
X5075174Y1520393D01*
X5077409Y1517294D01*
X5079390Y1513027D01*
X5086705Y1501546D01*
X5095494Y1491132D01*
X5105654Y1481988D01*
X5116880Y1474266D01*
X5129022Y1468120D01*
X5141925Y1463649D01*
X5155285Y1460906D01*
X5168900Y1459992D01*
X5182514Y1460906D01*
X5195874Y1463649D01*
X5208778Y1468120D01*
X5220919Y1474266D01*
X5232146Y1481988D01*
X5242306Y1491132D01*
X5251094Y1501546D01*
X5258409Y1513027D01*
X5264150Y1525422D01*
X5268214Y1538427D01*
X5270449Y1551889D01*
X5270906Y1565503D01*
X5269585Y1579067D01*
X5266385Y1592326D01*
X5261508Y1605076D01*
X5256072Y1614982D01*
X5254853Y1618996D01*
X5255361Y1623161D01*
X5257495Y1626768D01*
X5260898Y1629206D01*
X5264962Y1630070D01*
X5310632Y1630070D01*
X5314543Y1629257D01*
X5317794Y1627073D01*
X5320030Y1623771D01*
X5320792Y1619910D01*
X5320792Y1486458D01*
X5321503Y1480159D01*
X5323433Y1474673D01*
X5326481Y1469796D01*
X5330596Y1465681D01*
X5335473Y1462633D01*
X5340959Y1460703D01*
X5347258Y1459992D01*
X5498541Y1459992D01*
X5504840Y1460703D01*
X5510326Y1462633D01*
X5515203Y1465681D01*
X5519318Y1469796D01*
X5522366Y1474673D01*
X5524296Y1480159D01*
X5525008Y1486458D01*
X5525008Y1619910D01*
X5525770Y1623771D01*
X5528005Y1627073D01*
X5531256Y1629257D01*
X5535168Y1630070D01*
X5816396Y1630070D01*
X5820308Y1629257D01*
X5823610Y1627073D01*
X6349898Y1100785D01*
X6352032Y1097686D01*
X6352895Y1094028D01*
X6352336Y1090320D01*
X6349390Y1081532D01*
X6346647Y1067968D01*
X6345783Y1054150D01*
X6346647Y1040333D01*
X6349390Y1026769D01*
X6353810Y1013612D01*
X6359956Y1001217D01*
X6367627Y989685D01*
X6376771Y979271D01*
X6387185Y970127D01*
X6398717Y962456D01*
X6411112Y956310D01*
X6424218Y951890D01*
X6437833Y949147D01*
X6451650Y948283D01*
X6465468Y949147D01*
X6479032Y951890D01*
X6492189Y956310D01*
X6504584Y962456D01*
X6516116Y970127D01*
X6526530Y979271D01*
X6535674Y989685D01*
X6543344Y1001217D01*
X6549491Y1013612D01*
X6553911Y1026769D01*
X6556603Y1040333D01*
X6557518Y1054150D01*
X6556603Y1067968D01*
X6553911Y1081532D01*
X6549491Y1094689D01*
X6543344Y1107084D01*
X6535674Y1118616D01*
X6526530Y1129030D01*
X6516116Y1138174D01*
X6504584Y1145844D01*
X6492189Y1151991D01*
X6479032Y1156411D01*
X6465468Y1159154D01*
X6451650Y1160018D01*
X6437833Y1159154D01*
X6424218Y1156411D01*
X6415328Y1153414D01*
X6411620Y1152855D01*
X6407962Y1153718D01*
X6404864Y1155852D01*
X5864606Y1696110D01*
X5858306Y1701292D01*
X5851601Y1704848D01*
X5844336Y1707083D01*
X5836259Y1707845D01*
X3752240Y1707845D01*
X3744163Y1707083D01*
X3736898Y1704848D01*
X3730193Y1701292D01*
X3723894Y1696110D01*
X3688791Y1661007D01*
X3685895Y1658975D01*
X3682441Y1658061D01*
X3678936Y1658416D01*
X3665220Y1662125D01*
X3651707Y1663954D01*
X3638092Y1663954D01*
X3624579Y1662125D01*
X3611422Y1658518D01*
X3598875Y1653235D01*
X3587140Y1646275D01*
X3576421Y1637792D01*
X3566922Y1627987D01*
X3558844Y1617014D01*
X3552291Y1605076D01*
X3547414Y1592326D01*
X3544214Y1579067D01*
X3542893Y1565503D01*
X3543350Y1551889D01*
X3545586Y1538427D01*
X3549650Y1525422D01*
X3555390Y1513027D01*
X3562705Y1501546D01*
X3571494Y1491132D01*
X3581654Y1481988D01*
X3592880Y1474266D01*
X3605022Y1468120D01*
X3617925Y1463649D01*
X3631285Y1460906D01*
X3644900Y1459992D01*
X3658514Y1460906D01*
X3671874Y1463649D01*
X3684778Y1468120D01*
X3696919Y1474266D01*
X3708146Y1481988D01*
X3718306Y1491132D01*
X3727094Y1501546D01*
X3734409Y1513027D01*
X3740150Y1525422D01*
X3744214Y1538427D01*
X3746449Y1551889D01*
X3746906Y1565503D01*
X3745585Y1579067D01*
X3742385Y1592326D01*
X3741369Y1595018D01*
X3740708Y1598828D01*
X3741521Y1602638D01*
X3743655Y1605838D01*
X3764889Y1627073D01*
X3768191Y1629257D01*
X3772103Y1630070D01*
X3802837Y1630070D01*
X3806901Y1629206D01*
X3810304Y1626768D01*
X3812438Y1623161D01*
X3812946Y1618996D01*
X3811727Y1614982D01*
X3806291Y1605076D01*
X3801414Y1592326D01*
X3798214Y1579067D01*
X3796893Y1565503D01*
X3797350Y1551889D01*
X3799586Y1538427D01*
X3803650Y1525422D01*
X3809390Y1513027D01*
X3816705Y1501546D01*
X3825494Y1491132D01*
X3835654Y1481988D01*
X3846880Y1474266D01*
X3859022Y1468120D01*
X3871925Y1463649D01*
X3885285Y1460906D01*
X3898900Y1459992D01*
X3912514Y1460906D01*
X3925874Y1463649D01*
X3932072Y1465783D01*
X3935780Y1466342D01*
X3939489Y1465529D01*
X3942587Y1463395D01*
X4633010Y772922D01*
X4639310Y767791D01*
X4646015Y764184D01*
X4653330Y762000D01*
X4661408Y761187D01*
X6346647Y761187D01*
X6350355Y760476D01*
X6353505Y758545D01*
X6355791Y755548D01*
X6359906Y747166D01*
X6368034Y735177D01*
X6369964Y731824D01*
X6370523Y728014D01*
X6369608Y724255D01*
X6367373Y721106D01*
X6364173Y719023D01*
X6360363Y718312D01*
X6139789Y718312D01*
X6131712Y717499D01*
X6124448Y715314D01*
X6117742Y711708D01*
X6111443Y706577D01*
X4786376Y-618540D01*
X4783074Y-620725D01*
X4779162Y-621487D01*
X2563368Y-621487D01*
X2559456Y-620725D01*
X2556205Y-618540D01*
X2553970Y-615238D01*
X2553208Y-611327D01*
X2553208Y-584758D01*
X2552496Y-578459D01*
X2550566Y-572973D01*
X2547518Y-568096D01*
X2543403Y-563981D01*
X2538526Y-560933D01*
X2533040Y-559003D01*
X2526741Y-558292D01*
X2375458Y-558292D01*
X2369159Y-559003D01*
X2363673Y-560933D01*
X2358796Y-563981D01*
X2354681Y-568096D01*
X2351633Y-572973D01*
X2349703Y-578459D01*
X2348992Y-584758D01*
X2348992Y-627888D01*
X2348179Y-631952D01*
X2345791Y-635304D01*
X2342235Y-637489D01*
X2338171Y-638048D01*
X2334209Y-636930D01*
X2330958Y-634339D01*
X2329789Y-632917D01*
X2323896Y-628091D01*
X2317191Y-624484D01*
X2309926Y-622300D01*
X2304796Y-621080D01*
X2301849Y-618845D01*
X2299868Y-615696D01*
X2299208Y-612038D01*
X2299208Y-584758D01*
X2298496Y-578459D01*
X2296566Y-572973D01*
X2293518Y-568096D01*
X2289403Y-563981D01*
X2284526Y-560933D01*
X2279040Y-559003D01*
X2272741Y-558292D01*
X2121458Y-558292D01*
X2115159Y-559003D01*
X2109673Y-560933D01*
X2104796Y-563981D01*
X2100681Y-568096D01*
X2097633Y-572973D01*
X2095703Y-578459D01*
X2094992Y-584758D01*
X2094992Y-736041D01*
X2095703Y-742340D01*
X2097633Y-747826D01*
X2100681Y-752703D01*
X2104796Y-756818D01*
X2109673Y-759866D01*
X2115159Y-761796D01*
X2121458Y-762508D01*
X2272741Y-762508D01*
X2279040Y-761796D01*
X2285593Y-759510D01*
X2289352Y-758901D01*
X2293061Y-759764D01*
X2296160Y-761898D01*
X2492349Y-958087D01*
X2498648Y-963218D01*
X2505354Y-966825D01*
X2512618Y-969010D01*
G37*
G36*
X1867458Y-762508D02*
G01*
X1898650Y-762508D01*
X1898650Y-704850D01*
X1840992Y-704850D01*
X1840992Y-736041D01*
X1841703Y-742340D01*
X1843633Y-747826D01*
X1846681Y-752703D01*
X1850796Y-756818D01*
X1855673Y-759866D01*
X1861159Y-761796D01*
G37*
G36*
X1987550Y-762508D02*
G01*
X2018741Y-762508D01*
X2025040Y-761796D01*
X2030526Y-759866D01*
X2035403Y-756818D01*
X2039518Y-752703D01*
X2042566Y-747826D01*
X2044496Y-742340D01*
X2045207Y-736041D01*
X2045207Y-704850D01*
X1987550Y-704850D01*
G37*
G36*
X1613458Y-762508D02*
G01*
X1764741Y-762508D01*
X1771040Y-761796D01*
X1776526Y-759866D01*
X1781403Y-756818D01*
X1785518Y-752703D01*
X1788566Y-747826D01*
X1790496Y-742340D01*
X1791207Y-736041D01*
X1791207Y-584758D01*
X1790496Y-578459D01*
X1788566Y-572973D01*
X1785518Y-568096D01*
X1781403Y-563981D01*
X1776526Y-560933D01*
X1771040Y-559003D01*
X1764741Y-558292D01*
X1613458Y-558292D01*
X1607159Y-559003D01*
X1601673Y-560933D01*
X1596796Y-563981D01*
X1592681Y-568096D01*
X1589633Y-572973D01*
X1587703Y-578459D01*
X1586992Y-584758D01*
X1586992Y-736041D01*
X1587703Y-742340D01*
X1589633Y-747826D01*
X1592681Y-752703D01*
X1596796Y-756818D01*
X1601673Y-759866D01*
X1607159Y-761796D01*
G37*
G36*
X1840992Y-615950D02*
G01*
X1898650Y-615950D01*
X1898650Y-558292D01*
X1867458Y-558292D01*
X1861159Y-559003D01*
X1855673Y-560933D01*
X1850796Y-563981D01*
X1846681Y-568096D01*
X1843633Y-572973D01*
X1841703Y-578459D01*
X1840992Y-584758D01*
G37*
G36*
X1987550Y-615950D02*
G01*
X2045207Y-615950D01*
X2045207Y-584758D01*
X2044496Y-578459D01*
X2042566Y-572973D01*
X2039518Y-568096D01*
X2035403Y-563981D01*
X2030526Y-560933D01*
X2025040Y-559003D01*
X2018741Y-558292D01*
X1987550Y-558292D01*
G37*
G36*
X1926386Y-85191D02*
G01*
X3560013Y-85191D01*
X3568090Y-84429D01*
X3575354Y-82194D01*
X3582060Y-78638D01*
X3588359Y-73456D01*
X3855212Y193395D01*
X3858310Y195529D01*
X3862019Y196342D01*
X3865727Y195783D01*
X3871925Y193649D01*
X3885285Y190906D01*
X3898900Y189992D01*
X3912514Y190906D01*
X3925874Y193649D01*
X3938778Y198120D01*
X3950919Y204266D01*
X3962146Y211988D01*
X3972306Y221132D01*
X3981094Y231546D01*
X3988409Y243027D01*
X3994150Y255422D01*
X3998214Y268427D01*
X4000449Y281889D01*
X4000906Y295503D01*
X3999585Y309067D01*
X3996385Y322326D01*
X3991508Y335076D01*
X3984955Y347014D01*
X3976878Y357987D01*
X3967378Y367792D01*
X3956659Y376275D01*
X3944924Y383235D01*
X3932377Y388518D01*
X3919220Y392125D01*
X3905707Y393954D01*
X3892092Y393954D01*
X3878579Y392125D01*
X3865422Y388518D01*
X3852875Y383235D01*
X3841140Y376275D01*
X3830421Y367792D01*
X3820922Y357987D01*
X3812844Y347014D01*
X3806291Y335076D01*
X3801414Y322326D01*
X3798214Y309067D01*
X3796893Y295503D01*
X3797350Y281889D01*
X3799586Y268427D01*
X3802684Y258571D01*
X3803091Y254914D01*
X3802227Y251358D01*
X3800144Y248361D01*
X3547364Y-4419D01*
X3544062Y-6604D01*
X3540150Y-7416D01*
X2921812Y-7416D01*
X2917596Y-6502D01*
X2914142Y-3911D01*
X2912059Y-152D01*
X2911754Y4165D01*
X2913227Y8229D01*
X2920949Y20370D01*
X2927146Y33528D01*
X2931668Y47396D01*
X2934360Y61671D01*
X2935274Y76200D01*
X2934360Y90728D01*
X2931668Y105003D01*
X2927146Y118872D01*
X2920949Y132029D01*
X2913176Y144322D01*
X2903880Y155549D01*
X2893263Y165506D01*
X2881477Y174040D01*
X2868726Y181051D01*
X2855214Y186436D01*
X2841091Y190042D01*
X2826664Y191871D01*
X2812135Y191871D01*
X2797708Y190042D01*
X2783586Y186436D01*
X2770073Y181051D01*
X2757322Y174040D01*
X2745536Y165506D01*
X2734919Y155549D01*
X2725623Y144322D01*
X2717850Y132029D01*
X2711653Y118872D01*
X2707132Y105003D01*
X2704439Y90728D01*
X2703525Y76200D01*
X2704439Y61671D01*
X2707132Y47396D01*
X2711653Y33528D01*
X2717850Y20370D01*
X2725572Y8229D01*
X2727045Y4165D01*
X2726740Y-152D01*
X2724658Y-3911D01*
X2721203Y-6502D01*
X2716987Y-7416D01*
X2667812Y-7416D01*
X2663596Y-6502D01*
X2660142Y-3911D01*
X2658059Y-152D01*
X2657754Y4165D01*
X2659227Y8229D01*
X2666949Y20370D01*
X2673146Y33528D01*
X2677668Y47396D01*
X2680360Y61671D01*
X2681274Y76200D01*
X2680360Y90728D01*
X2677668Y105003D01*
X2673146Y118872D01*
X2666949Y132029D01*
X2659176Y144322D01*
X2649880Y155549D01*
X2639263Y165506D01*
X2627477Y174040D01*
X2614726Y181051D01*
X2601214Y186436D01*
X2587091Y190042D01*
X2572664Y191871D01*
X2558135Y191871D01*
X2543708Y190042D01*
X2529586Y186436D01*
X2516073Y181051D01*
X2503322Y174040D01*
X2491536Y165506D01*
X2480919Y155549D01*
X2471623Y144322D01*
X2463850Y132029D01*
X2457653Y118872D01*
X2453132Y105003D01*
X2450439Y90728D01*
X2449525Y76200D01*
X2450439Y61671D01*
X2453132Y47396D01*
X2457653Y33528D01*
X2463850Y20370D01*
X2471572Y8229D01*
X2473045Y4165D01*
X2472740Y-152D01*
X2470658Y-3911D01*
X2467203Y-6502D01*
X2462987Y-7416D01*
X2413812Y-7416D01*
X2409596Y-6502D01*
X2406142Y-3911D01*
X2404059Y-152D01*
X2403754Y4165D01*
X2405227Y8229D01*
X2412949Y20370D01*
X2419146Y33528D01*
X2423668Y47396D01*
X2426360Y61671D01*
X2427274Y76200D01*
X2426360Y90728D01*
X2423668Y105003D01*
X2419146Y118872D01*
X2412949Y132029D01*
X2405176Y144322D01*
X2395880Y155549D01*
X2385263Y165506D01*
X2373477Y174040D01*
X2360726Y181051D01*
X2347214Y186436D01*
X2333091Y190042D01*
X2318664Y191871D01*
X2304135Y191871D01*
X2289708Y190042D01*
X2275586Y186436D01*
X2262073Y181051D01*
X2249322Y174040D01*
X2237536Y165506D01*
X2226919Y155549D01*
X2217623Y144322D01*
X2209850Y132029D01*
X2203653Y118872D01*
X2199132Y105003D01*
X2196439Y90728D01*
X2195525Y76200D01*
X2196439Y61671D01*
X2199132Y47396D01*
X2203653Y33528D01*
X2209850Y20370D01*
X2217572Y8229D01*
X2219045Y4165D01*
X2218740Y-152D01*
X2216658Y-3911D01*
X2213203Y-6502D01*
X2208987Y-7416D01*
X2159812Y-7416D01*
X2155596Y-6502D01*
X2152142Y-3911D01*
X2150059Y-152D01*
X2149754Y4165D01*
X2151227Y8229D01*
X2158949Y20370D01*
X2161082Y24841D01*
X2108758Y24841D01*
X2108758Y2743D01*
X2107996Y-1117D01*
X2105761Y-4419D01*
X2102459Y-6604D01*
X2098598Y-7416D01*
X2016201Y-7416D01*
X2012340Y-6604D01*
X2009038Y-4419D01*
X2006803Y-1117D01*
X2006041Y2743D01*
X2006041Y24841D01*
X1953717Y24841D01*
X1955850Y20370D01*
X1963572Y8229D01*
X1965045Y4165D01*
X1964740Y-152D01*
X1962657Y-3911D01*
X1959203Y-6502D01*
X1954987Y-7416D01*
X1946249Y-7416D01*
X1942338Y-6604D01*
X1939036Y-4419D01*
X1912975Y21640D01*
X1910740Y25095D01*
X1910029Y29159D01*
X1911146Y33528D01*
X1915668Y47396D01*
X1918360Y61671D01*
X1919274Y76200D01*
X1918360Y90728D01*
X1915668Y105003D01*
X1911146Y118872D01*
X1904949Y132029D01*
X1897176Y144322D01*
X1887880Y155549D01*
X1877263Y165506D01*
X1865477Y174040D01*
X1852726Y181051D01*
X1839214Y186436D01*
X1825091Y190042D01*
X1810664Y191871D01*
X1796135Y191871D01*
X1781708Y190042D01*
X1767586Y186436D01*
X1754073Y181051D01*
X1741322Y174040D01*
X1729536Y165506D01*
X1718919Y155549D01*
X1709623Y144322D01*
X1701850Y132029D01*
X1695653Y118872D01*
X1691132Y105003D01*
X1688439Y90728D01*
X1687525Y76200D01*
X1688439Y61671D01*
X1691132Y47396D01*
X1695653Y33528D01*
X1701850Y20370D01*
X1709623Y8077D01*
X1718919Y-3149D01*
X1729536Y-13106D01*
X1741322Y-21640D01*
X1754073Y-28651D01*
X1767586Y-34036D01*
X1781708Y-37642D01*
X1796135Y-39471D01*
X1810664Y-39471D01*
X1825091Y-37642D01*
X1839214Y-34036D01*
X1846884Y-30988D01*
X1850745Y-30276D01*
X1854555Y-31038D01*
X1857806Y-33223D01*
X1898040Y-73456D01*
X1904339Y-78638D01*
X1911045Y-82194D01*
X1918309Y-84429D01*
G37*
G36*
X7975600Y-67767D02*
G01*
X7989417Y-66903D01*
X8002981Y-64160D01*
X8016138Y-59740D01*
X8028533Y-53593D01*
X8040065Y-45923D01*
X8050479Y-36779D01*
X8059623Y-26365D01*
X8067294Y-14833D01*
X8073440Y-2438D01*
X8077860Y10668D01*
X8080552Y24282D01*
X8081467Y38100D01*
X8080552Y51917D01*
X8077860Y65481D01*
X8073440Y78638D01*
X8067294Y91033D01*
X8059623Y102565D01*
X8050479Y112979D01*
X8040065Y122123D01*
X8028533Y129794D01*
X8016138Y135940D01*
X8002981Y140360D01*
X7989417Y143052D01*
X7975600Y143967D01*
X7961782Y143052D01*
X7948168Y140360D01*
X7935061Y135940D01*
X7922666Y129794D01*
X7911134Y122123D01*
X7900720Y112979D01*
X7891576Y102565D01*
X7883906Y91033D01*
X7877759Y78638D01*
X7873339Y65481D01*
X7870596Y51917D01*
X7869732Y38100D01*
X7870596Y24282D01*
X7873339Y10668D01*
X7877759Y-2438D01*
X7883906Y-14833D01*
X7891576Y-26365D01*
X7900720Y-36779D01*
X7911134Y-45923D01*
X7922666Y-53593D01*
X7935061Y-59740D01*
X7948168Y-64160D01*
X7961782Y-66903D01*
G37*
G36*
X1542135Y-39471D02*
G01*
X1556664Y-39471D01*
X1571091Y-37642D01*
X1585214Y-34036D01*
X1598726Y-28651D01*
X1611477Y-21640D01*
X1623263Y-13106D01*
X1633880Y-3149D01*
X1643176Y8077D01*
X1650949Y20370D01*
X1657146Y33528D01*
X1661668Y47396D01*
X1664360Y61671D01*
X1665274Y76200D01*
X1664360Y90728D01*
X1661668Y105003D01*
X1657146Y118872D01*
X1650949Y132029D01*
X1643176Y144322D01*
X1633880Y155549D01*
X1623263Y165506D01*
X1611477Y174040D01*
X1598726Y181051D01*
X1585214Y186436D01*
X1571091Y190042D01*
X1556664Y191871D01*
X1542135Y191871D01*
X1527708Y190042D01*
X1513586Y186436D01*
X1500073Y181051D01*
X1487322Y174040D01*
X1475536Y165506D01*
X1464919Y155549D01*
X1455623Y144322D01*
X1447850Y132029D01*
X1441653Y118872D01*
X1437132Y105003D01*
X1434439Y90728D01*
X1433525Y76200D01*
X1434439Y61671D01*
X1437132Y47396D01*
X1441653Y33528D01*
X1447850Y20370D01*
X1455623Y8077D01*
X1464919Y-3149D01*
X1475536Y-13106D01*
X1487322Y-21640D01*
X1500073Y-28651D01*
X1513586Y-34036D01*
X1527708Y-37642D01*
G37*
G36*
X2108758Y127558D02*
G01*
X2161082Y127558D01*
X2158949Y132029D01*
X2151176Y144322D01*
X2141880Y155549D01*
X2131263Y165506D01*
X2119477Y174040D01*
X2108758Y179933D01*
G37*
G36*
X1953717Y127558D02*
G01*
X2006041Y127558D01*
X2006041Y179933D01*
X1995322Y174040D01*
X1983536Y165506D01*
X1972919Y155549D01*
X1963623Y144322D01*
X1955850Y132029D01*
G37*
G36*
X4406900Y189992D02*
G01*
X4420514Y190906D01*
X4433874Y193649D01*
X4446778Y198120D01*
X4458919Y204266D01*
X4470146Y211988D01*
X4480306Y221132D01*
X4489094Y231546D01*
X4496409Y243027D01*
X4502150Y255422D01*
X4506214Y268427D01*
X4508449Y281889D01*
X4508906Y295503D01*
X4507585Y309067D01*
X4504385Y322326D01*
X4499508Y335076D01*
X4492955Y347014D01*
X4484878Y357987D01*
X4475378Y367792D01*
X4464659Y376275D01*
X4452924Y383235D01*
X4440377Y388518D01*
X4427220Y392125D01*
X4413707Y393954D01*
X4400092Y393954D01*
X4386580Y392125D01*
X4373422Y388518D01*
X4360875Y383235D01*
X4349140Y376275D01*
X4338421Y367792D01*
X4328922Y357987D01*
X4320844Y347014D01*
X4314291Y335076D01*
X4309414Y322326D01*
X4306214Y309067D01*
X4304893Y295503D01*
X4305350Y281889D01*
X4307586Y268427D01*
X4311650Y255422D01*
X4317390Y243027D01*
X4324705Y231546D01*
X4333494Y221132D01*
X4343654Y211988D01*
X4354880Y204266D01*
X4367022Y198120D01*
X4379925Y193649D01*
X4393285Y190906D01*
G37*
G36*
X4152900Y189992D02*
G01*
X4166514Y190906D01*
X4179874Y193649D01*
X4192778Y198120D01*
X4204919Y204266D01*
X4216146Y211988D01*
X4226306Y221132D01*
X4235094Y231546D01*
X4242409Y243027D01*
X4248150Y255422D01*
X4252214Y268427D01*
X4254449Y281889D01*
X4254906Y295503D01*
X4253585Y309067D01*
X4250385Y322326D01*
X4245508Y335076D01*
X4238955Y347014D01*
X4230878Y357987D01*
X4221378Y367792D01*
X4210659Y376275D01*
X4198924Y383235D01*
X4186377Y388518D01*
X4173220Y392125D01*
X4159707Y393954D01*
X4146092Y393954D01*
X4132579Y392125D01*
X4119422Y388518D01*
X4106875Y383235D01*
X4095140Y376275D01*
X4084421Y367792D01*
X4074922Y357987D01*
X4066844Y347014D01*
X4060291Y335076D01*
X4055414Y322326D01*
X4052214Y309067D01*
X4050893Y295503D01*
X4051350Y281889D01*
X4053586Y268427D01*
X4057650Y255422D01*
X4063390Y243027D01*
X4070705Y231546D01*
X4079494Y221132D01*
X4089654Y211988D01*
X4100880Y204266D01*
X4113022Y198120D01*
X4125925Y193649D01*
X4139285Y190906D01*
G37*
G36*
X4660900Y189992D02*
G01*
X4674514Y190906D01*
X4687874Y193649D01*
X4700778Y198120D01*
X4712919Y204266D01*
X4724146Y211988D01*
X4734306Y221132D01*
X4743094Y231546D01*
X4750409Y243027D01*
X4756150Y255422D01*
X4760214Y268427D01*
X4762449Y281889D01*
X4762906Y295503D01*
X4761585Y309067D01*
X4758385Y322326D01*
X4753508Y335076D01*
X4746955Y347014D01*
X4738878Y357987D01*
X4729378Y367792D01*
X4718659Y376275D01*
X4706924Y383235D01*
X4694377Y388518D01*
X4681220Y392125D01*
X4667707Y393954D01*
X4654092Y393954D01*
X4640580Y392125D01*
X4627422Y388518D01*
X4614875Y383235D01*
X4603140Y376275D01*
X4592421Y367792D01*
X4582922Y357987D01*
X4574844Y347014D01*
X4568291Y335076D01*
X4563414Y322326D01*
X4560214Y309067D01*
X4558893Y295503D01*
X4559350Y281889D01*
X4561586Y268427D01*
X4565650Y255422D01*
X4571390Y243027D01*
X4578705Y231546D01*
X4587494Y221132D01*
X4597654Y211988D01*
X4608880Y204266D01*
X4621022Y198120D01*
X4633925Y193649D01*
X4647285Y190906D01*
G37*
G36*
X4914900Y189992D02*
G01*
X4928514Y190906D01*
X4941874Y193649D01*
X4954778Y198120D01*
X4966919Y204266D01*
X4978146Y211988D01*
X4988306Y221132D01*
X4997094Y231546D01*
X5004409Y243027D01*
X5010150Y255422D01*
X5014214Y268427D01*
X5016449Y281889D01*
X5016906Y295503D01*
X5015585Y309067D01*
X5012385Y322326D01*
X5007508Y335076D01*
X5000955Y347014D01*
X4992878Y357987D01*
X4983378Y367792D01*
X4972659Y376275D01*
X4960924Y383235D01*
X4948377Y388518D01*
X4935220Y392125D01*
X4921707Y393954D01*
X4908092Y393954D01*
X4894580Y392125D01*
X4881422Y388518D01*
X4868875Y383235D01*
X4857140Y376275D01*
X4846421Y367792D01*
X4836922Y357987D01*
X4828844Y347014D01*
X4822291Y335076D01*
X4817414Y322326D01*
X4814214Y309067D01*
X4812893Y295503D01*
X4813350Y281889D01*
X4815586Y268427D01*
X4819650Y255422D01*
X4825390Y243027D01*
X4832705Y231546D01*
X4841494Y221132D01*
X4851654Y211988D01*
X4862880Y204266D01*
X4875022Y198120D01*
X4887925Y193649D01*
X4901285Y190906D01*
G37*
G36*
X5422900Y189992D02*
G01*
X5436514Y190906D01*
X5449874Y193649D01*
X5462778Y198120D01*
X5474919Y204266D01*
X5486146Y211988D01*
X5496306Y221132D01*
X5505094Y231546D01*
X5512409Y243027D01*
X5518150Y255422D01*
X5522214Y268427D01*
X5524449Y281889D01*
X5524906Y295503D01*
X5523585Y309067D01*
X5520385Y322326D01*
X5515508Y335076D01*
X5508955Y347014D01*
X5500878Y357987D01*
X5491378Y367792D01*
X5480659Y376275D01*
X5468924Y383235D01*
X5456377Y388518D01*
X5443220Y392125D01*
X5429707Y393954D01*
X5416092Y393954D01*
X5402580Y392125D01*
X5389422Y388518D01*
X5376875Y383235D01*
X5365140Y376275D01*
X5354421Y367792D01*
X5344922Y357987D01*
X5336844Y347014D01*
X5330291Y335076D01*
X5325414Y322326D01*
X5322214Y309067D01*
X5320893Y295503D01*
X5321350Y281889D01*
X5323586Y268427D01*
X5327650Y255422D01*
X5333390Y243027D01*
X5340705Y231546D01*
X5349494Y221132D01*
X5359654Y211988D01*
X5370880Y204266D01*
X5383022Y198120D01*
X5395925Y193649D01*
X5409285Y190906D01*
G37*
G36*
X3689350Y200456D02*
G01*
X3696919Y204266D01*
X3708146Y211988D01*
X3718306Y221132D01*
X3727094Y231546D01*
X3734409Y243027D01*
X3736543Y247650D01*
X3689350Y247650D01*
G37*
G36*
X5124450Y200456D02*
G01*
X5124450Y247650D01*
X5077256Y247650D01*
X5079390Y243027D01*
X5086705Y231546D01*
X5095494Y221132D01*
X5105654Y211988D01*
X5116880Y204266D01*
G37*
G36*
X5213350Y200456D02*
G01*
X5220919Y204266D01*
X5232146Y211988D01*
X5242306Y221132D01*
X5251094Y231546D01*
X5258409Y243027D01*
X5260543Y247650D01*
X5213350Y247650D01*
G37*
G36*
X3600450Y200456D02*
G01*
X3600450Y247650D01*
X3553256Y247650D01*
X3555390Y243027D01*
X3562705Y231546D01*
X3571494Y221132D01*
X3581654Y211988D01*
X3592880Y204266D01*
G37*
G36*
X5213350Y336550D02*
G01*
X5260695Y336550D01*
X5254955Y347014D01*
X5246878Y357987D01*
X5237378Y367792D01*
X5226659Y376275D01*
X5214924Y383235D01*
X5213350Y383895D01*
G37*
G36*
X5077104Y336550D02*
G01*
X5124450Y336550D01*
X5124450Y383895D01*
X5122875Y383235D01*
X5111140Y376275D01*
X5100421Y367792D01*
X5090922Y357987D01*
X5082844Y347014D01*
G37*
G36*
X3689350Y336550D02*
G01*
X3736695Y336550D01*
X3730955Y347014D01*
X3722878Y357987D01*
X3713378Y367792D01*
X3702659Y376275D01*
X3690924Y383235D01*
X3689350Y383895D01*
G37*
G36*
X3553104Y336550D02*
G01*
X3600450Y336550D01*
X3600450Y383895D01*
X3598875Y383235D01*
X3587140Y376275D01*
X3576421Y367792D01*
X3566922Y357987D01*
X3558844Y347014D01*
G37*
G36*
X1261516Y785774D02*
G01*
X1430883Y785774D01*
X1445717Y786739D01*
X1460042Y789432D01*
X1473860Y793953D01*
X1487017Y800150D01*
X1499311Y807923D01*
X1510538Y817219D01*
X1520494Y827836D01*
X1529029Y839622D01*
X1536039Y852373D01*
X1541424Y865886D01*
X1545031Y880008D01*
X1546860Y894435D01*
X1546860Y908964D01*
X1545031Y923391D01*
X1541424Y937514D01*
X1536039Y951026D01*
X1529029Y963777D01*
X1520494Y975563D01*
X1510538Y986180D01*
X1499311Y995476D01*
X1487017Y1003249D01*
X1473860Y1009446D01*
X1460042Y1013968D01*
X1445717Y1016660D01*
X1430883Y1017625D01*
X1261516Y1017625D01*
X1246682Y1016660D01*
X1232357Y1013968D01*
X1218539Y1009446D01*
X1205382Y1003249D01*
X1193088Y995476D01*
X1181862Y986180D01*
X1171905Y975563D01*
X1163370Y963777D01*
X1156360Y951026D01*
X1150975Y937514D01*
X1147368Y923391D01*
X1145540Y908964D01*
X1145540Y894435D01*
X1147368Y880008D01*
X1150975Y865886D01*
X1156360Y852373D01*
X1163370Y839622D01*
X1171905Y827836D01*
X1181862Y817219D01*
X1193088Y807923D01*
X1205382Y800150D01*
X1218539Y793953D01*
X1232357Y789432D01*
X1246682Y786739D01*
G37*
G36*
X1252372Y1040384D02*
G01*
X1252372Y1104341D01*
X1157427Y1104341D01*
X1163370Y1093622D01*
X1171905Y1081836D01*
X1181862Y1071219D01*
X1193088Y1061923D01*
X1205382Y1054150D01*
X1218539Y1047953D01*
X1232357Y1043432D01*
X1246682Y1040739D01*
G37*
G36*
X1440027Y1040384D02*
G01*
X1445717Y1040739D01*
X1460042Y1043432D01*
X1473860Y1047953D01*
X1487017Y1054150D01*
X1499311Y1061923D01*
X1510538Y1071219D01*
X1520494Y1081836D01*
X1529029Y1093622D01*
X1534972Y1104341D01*
X1440027Y1104341D01*
G37*
G36*
X6451600Y1202232D02*
G01*
X6465417Y1203147D01*
X6478981Y1205839D01*
X6492138Y1210259D01*
X6504533Y1216406D01*
X6516065Y1224076D01*
X6526479Y1233220D01*
X6535623Y1243634D01*
X6543294Y1255166D01*
X6549440Y1267561D01*
X6553860Y1280718D01*
X6556552Y1294282D01*
X6557467Y1308100D01*
X6556552Y1321917D01*
X6553860Y1335532D01*
X6549440Y1348638D01*
X6543294Y1361033D01*
X6535623Y1372565D01*
X6526479Y1382979D01*
X6516065Y1392123D01*
X6504533Y1399794D01*
X6492138Y1405940D01*
X6478981Y1410360D01*
X6465417Y1413103D01*
X6451600Y1413967D01*
X6437782Y1413103D01*
X6424168Y1410360D01*
X6415379Y1407363D01*
X6411671Y1406855D01*
X6408013Y1407718D01*
X6404914Y1409801D01*
X5960211Y1854504D01*
X5953963Y1859635D01*
X5946292Y1863750D01*
X5942939Y1866646D01*
X5941110Y1870710D01*
X5941212Y1875180D01*
X5943244Y1879142D01*
X5946749Y1881886D01*
X5951067Y1882851D01*
X6071616Y1882851D01*
X6075476Y1882089D01*
X6078778Y1879904D01*
X6349898Y1608785D01*
X6352032Y1605686D01*
X6352895Y1602028D01*
X6352336Y1598320D01*
X6349390Y1589532D01*
X6346647Y1575968D01*
X6345783Y1562150D01*
X6346647Y1548333D01*
X6349390Y1534769D01*
X6353810Y1521612D01*
X6359956Y1509217D01*
X6367627Y1497685D01*
X6376771Y1487271D01*
X6387185Y1478127D01*
X6398717Y1470456D01*
X6411112Y1464310D01*
X6424218Y1459890D01*
X6437833Y1457147D01*
X6451650Y1456283D01*
X6465468Y1457147D01*
X6479032Y1459890D01*
X6492189Y1464310D01*
X6504584Y1470456D01*
X6516116Y1478127D01*
X6526530Y1487271D01*
X6535674Y1497685D01*
X6543344Y1509217D01*
X6549491Y1521612D01*
X6553911Y1534769D01*
X6556603Y1548333D01*
X6557518Y1562150D01*
X6556603Y1575968D01*
X6553911Y1589532D01*
X6549491Y1602689D01*
X6543344Y1615084D01*
X6535674Y1626616D01*
X6526530Y1637030D01*
X6516116Y1646174D01*
X6504584Y1653844D01*
X6492189Y1659991D01*
X6479032Y1664411D01*
X6465468Y1667154D01*
X6451650Y1668018D01*
X6437833Y1667154D01*
X6424218Y1664411D01*
X6415328Y1661414D01*
X6411620Y1660855D01*
X6407962Y1661718D01*
X6404864Y1663852D01*
X6119825Y1948942D01*
X6113526Y1954072D01*
X6106820Y1957679D01*
X6099505Y1959864D01*
X6091428Y1960676D01*
X4242409Y1960676D01*
X4238548Y1961438D01*
X4235246Y1963623D01*
X4233926Y1964943D01*
X4225899Y1970582D01*
X4217009Y1974748D01*
X4207510Y1977288D01*
X4197705Y1978152D01*
X4187901Y1977288D01*
X4178401Y1974748D01*
X4169511Y1970582D01*
X4161485Y1964943D01*
X4154525Y1957984D01*
X4152239Y1954733D01*
X4148988Y1951736D01*
X4144772Y1950415D01*
X4140454Y1951024D01*
X4136745Y1953361D01*
X4015892Y2074164D01*
X4013809Y2077212D01*
X4012946Y2080768D01*
X4013403Y2084374D01*
X4015181Y2087778D01*
X4023055Y2100783D01*
X4029354Y2114702D01*
X4031538Y2117852D01*
X4034790Y2119985D01*
X4038600Y2120696D01*
X4042410Y2119985D01*
X4045661Y2117852D01*
X4047845Y2114702D01*
X4054144Y2100783D01*
X4062018Y2087778D01*
X4071365Y2075789D01*
X4082135Y2065070D01*
X4094073Y2055672D01*
X4107078Y2047798D01*
X4120946Y2041601D01*
X4135475Y2037080D01*
X4150410Y2034336D01*
X4165600Y2033422D01*
X4180789Y2034336D01*
X4195724Y2037080D01*
X4210253Y2041601D01*
X4224121Y2047798D01*
X4237126Y2055672D01*
X4249064Y2065070D01*
X4259834Y2075789D01*
X4269181Y2087778D01*
X4277055Y2100783D01*
X4283354Y2114702D01*
X4287824Y2129180D01*
X4290568Y2144115D01*
X4291482Y2159304D01*
X4290568Y2174443D01*
X4287824Y2189429D01*
X4283354Y2203856D01*
X4277055Y2217775D01*
X4269181Y2230780D01*
X4259834Y2242769D01*
X4255922Y2246680D01*
X4253687Y2249982D01*
X4252925Y2253894D01*
X4253687Y2257755D01*
X4255922Y2261057D01*
X4259224Y2263241D01*
X4263085Y2264054D01*
X4322114Y2264054D01*
X4325975Y2263241D01*
X4329277Y2261057D01*
X4331512Y2257755D01*
X4332274Y2253894D01*
X4331512Y2249982D01*
X4329277Y2246680D01*
X4325366Y2242769D01*
X4316018Y2230780D01*
X4308144Y2217775D01*
X4307179Y2215642D01*
X4363262Y2215642D01*
X4363262Y2253894D01*
X4364024Y2257755D01*
X4366209Y2261057D01*
X4369511Y2263241D01*
X4373422Y2264054D01*
X4465777Y2264054D01*
X4469688Y2263241D01*
X4472990Y2261057D01*
X4475175Y2257755D01*
X4475937Y2253894D01*
X4475937Y2215642D01*
X4532020Y2215642D01*
X4531055Y2217775D01*
X4523181Y2230780D01*
X4513834Y2242769D01*
X4509922Y2246680D01*
X4507687Y2249982D01*
X4506925Y2253894D01*
X4507687Y2257755D01*
X4509922Y2261057D01*
X4513224Y2263241D01*
X4517085Y2264054D01*
X4576114Y2264054D01*
X4579975Y2263241D01*
X4583277Y2261057D01*
X4585512Y2257755D01*
X4586274Y2253894D01*
X4585512Y2249982D01*
X4583277Y2246680D01*
X4579366Y2242769D01*
X4570018Y2230780D01*
X4562144Y2217775D01*
X4561179Y2215642D01*
X4617262Y2215642D01*
X4617262Y2253894D01*
X4618024Y2257755D01*
X4620209Y2261057D01*
X4623511Y2263241D01*
X4627422Y2264054D01*
X4719777Y2264054D01*
X4723688Y2263241D01*
X4726990Y2261057D01*
X4729175Y2257755D01*
X4729937Y2253894D01*
X4729937Y2215642D01*
X4786020Y2215642D01*
X4785055Y2217775D01*
X4777181Y2230780D01*
X4767834Y2242769D01*
X4763922Y2246680D01*
X4761687Y2249982D01*
X4760925Y2253894D01*
X4761687Y2257755D01*
X4763922Y2261057D01*
X4767224Y2263241D01*
X4771085Y2264054D01*
X4830114Y2264054D01*
X4833975Y2263241D01*
X4837277Y2261057D01*
X4839512Y2257755D01*
X4840274Y2253894D01*
X4839512Y2249982D01*
X4837277Y2246680D01*
X4833366Y2242769D01*
X4824018Y2230780D01*
X4816144Y2217775D01*
X4809845Y2203856D01*
X4805375Y2189429D01*
X4802632Y2174443D01*
X4801717Y2159304D01*
X4802632Y2144115D01*
X4805375Y2129180D01*
X4809845Y2114702D01*
X4816144Y2100783D01*
X4824018Y2087778D01*
X4833366Y2075789D01*
X4844135Y2065070D01*
X4856073Y2055672D01*
X4869078Y2047798D01*
X4882946Y2041601D01*
X4897475Y2037080D01*
X4912410Y2034336D01*
X4927600Y2033422D01*
X4942789Y2034336D01*
X4957724Y2037080D01*
X4972253Y2041601D01*
X4986121Y2047798D01*
X4999126Y2055672D01*
X5011064Y2065070D01*
X5021834Y2075789D01*
X5031181Y2087778D01*
X5039055Y2100783D01*
X5045354Y2114702D01*
X5047538Y2117852D01*
X5050790Y2119985D01*
X5054600Y2120696D01*
X5058410Y2119985D01*
X5061661Y2117852D01*
X5063845Y2114702D01*
X5070144Y2100783D01*
X5078018Y2087778D01*
X5087366Y2075789D01*
X5098135Y2065070D01*
X5110073Y2055672D01*
X5123078Y2047798D01*
X5136946Y2041601D01*
X5151475Y2037080D01*
X5166410Y2034336D01*
X5181600Y2033422D01*
X5196789Y2034336D01*
X5211724Y2037080D01*
X5226253Y2041601D01*
X5232298Y2044293D01*
X5236260Y2045207D01*
X5240274Y2044446D01*
X5243626Y2042210D01*
X5283657Y2002231D01*
X5289956Y1997049D01*
X5296662Y1993493D01*
X5303926Y1991258D01*
X5312003Y1990496D01*
X6378448Y1990496D01*
X6382004Y1989836D01*
X6385102Y1987956D01*
X6387185Y1986127D01*
X6398717Y1978456D01*
X6411112Y1972310D01*
X6424218Y1967890D01*
X6437833Y1965198D01*
X6451650Y1964283D01*
X6465468Y1965198D01*
X6479032Y1967890D01*
X6492189Y1972310D01*
X6504584Y1978456D01*
X6514490Y1985060D01*
X6518554Y1986686D01*
X6522923Y1986432D01*
X6526733Y1984349D01*
X6529374Y1980895D01*
X6530340Y1976628D01*
X6530340Y1954072D01*
X6529527Y1950161D01*
X6527342Y1946859D01*
X6498285Y1917801D01*
X6495186Y1915718D01*
X6491528Y1914855D01*
X6487820Y1915363D01*
X6478981Y1918360D01*
X6465417Y1921103D01*
X6451600Y1921967D01*
X6437782Y1921103D01*
X6424168Y1918360D01*
X6411061Y1913940D01*
X6398666Y1907793D01*
X6387134Y1900123D01*
X6376720Y1890979D01*
X6367576Y1880565D01*
X6359906Y1869033D01*
X6353759Y1856638D01*
X6349339Y1843532D01*
X6346596Y1829917D01*
X6345732Y1816100D01*
X6346596Y1802282D01*
X6349339Y1788718D01*
X6353759Y1775561D01*
X6359906Y1763166D01*
X6367576Y1751634D01*
X6376720Y1741220D01*
X6387134Y1732076D01*
X6398666Y1724406D01*
X6411061Y1718259D01*
X6424168Y1713839D01*
X6437782Y1711147D01*
X6451600Y1710232D01*
X6465417Y1711147D01*
X6478981Y1713839D01*
X6492138Y1718259D01*
X6504533Y1724406D01*
X6516065Y1732076D01*
X6526479Y1741220D01*
X6535623Y1751634D01*
X6543294Y1763166D01*
X6549440Y1775561D01*
X6553860Y1788718D01*
X6556552Y1802282D01*
X6557467Y1816100D01*
X6556552Y1829917D01*
X6553860Y1843532D01*
X6550863Y1852320D01*
X6550355Y1856028D01*
X6551218Y1859686D01*
X6553301Y1862785D01*
X6596380Y1905863D01*
X6601561Y1912162D01*
X6605117Y1918868D01*
X6607352Y1926132D01*
X6608114Y1934210D01*
X6608114Y2365705D01*
X6607352Y2373782D01*
X6605117Y2381046D01*
X6601561Y2387752D01*
X6596380Y2394051D01*
X6528511Y2461971D01*
X6522212Y2467102D01*
X6515506Y2470708D01*
X6512306Y2471674D01*
X6508953Y2473401D01*
X6506464Y2476296D01*
X6505244Y2479903D01*
X6505397Y2483662D01*
X6506921Y2487168D01*
X6509613Y2489809D01*
X6516116Y2494127D01*
X6526530Y2503271D01*
X6535674Y2513685D01*
X6543344Y2525217D01*
X6549491Y2537612D01*
X6553911Y2550769D01*
X6556603Y2564333D01*
X6557518Y2578150D01*
X6556603Y2591968D01*
X6553911Y2605532D01*
X6549491Y2618689D01*
X6543344Y2631084D01*
X6535674Y2642616D01*
X6526530Y2653030D01*
X6516116Y2662174D01*
X6504584Y2669844D01*
X6492189Y2675991D01*
X6479032Y2680411D01*
X6465468Y2683154D01*
X6451650Y2684018D01*
X6437833Y2683154D01*
X6424218Y2680411D01*
X6411112Y2675991D01*
X6399530Y2670251D01*
X6395516Y2669235D01*
X6391351Y2669895D01*
X6387846Y2672181D01*
X6008420Y3051657D01*
X6002121Y3056839D01*
X5995416Y3060395D01*
X5988100Y3062630D01*
X5980023Y3063392D01*
X5311292Y3063392D01*
X5303215Y3062630D01*
X5295950Y3060395D01*
X5289245Y3056839D01*
X5282946Y3051657D01*
X5243626Y3012338D01*
X5240274Y3010103D01*
X5236260Y3009392D01*
X5232298Y3010255D01*
X5226253Y3012998D01*
X5211724Y3017520D01*
X5196789Y3020263D01*
X5181600Y3021177D01*
X5166410Y3020263D01*
X5151475Y3017520D01*
X5136946Y3012998D01*
X5123078Y3006750D01*
X5110073Y2998876D01*
X5098135Y2989529D01*
X5087366Y2978759D01*
X5078018Y2966821D01*
X5070144Y2953816D01*
X5063845Y2939897D01*
X5061661Y2936697D01*
X5058410Y2934614D01*
X5054600Y2933903D01*
X5050790Y2934614D01*
X5047538Y2936697D01*
X5045354Y2939897D01*
X5039055Y2953816D01*
X5031181Y2966821D01*
X5021834Y2978759D01*
X5011064Y2989529D01*
X4999126Y2998876D01*
X4986121Y3006750D01*
X4972253Y3012998D01*
X4957724Y3017520D01*
X4942789Y3020263D01*
X4927600Y3021177D01*
X4912410Y3020263D01*
X4897475Y3017520D01*
X4882946Y3012998D01*
X4869078Y3006750D01*
X4856073Y2998876D01*
X4844135Y2989529D01*
X4833366Y2978759D01*
X4824018Y2966821D01*
X4816144Y2953816D01*
X4809845Y2939897D01*
X4807661Y2936697D01*
X4804410Y2934614D01*
X4800600Y2933903D01*
X4796790Y2934614D01*
X4793538Y2936697D01*
X4791354Y2939897D01*
X4785055Y2953816D01*
X4777181Y2966821D01*
X4767834Y2978759D01*
X4757064Y2989529D01*
X4745126Y2998876D01*
X4732121Y3006750D01*
X4718253Y3012998D01*
X4703724Y3017520D01*
X4688789Y3020263D01*
X4673600Y3021177D01*
X4658410Y3020263D01*
X4643475Y3017520D01*
X4628946Y3012998D01*
X4615078Y3006750D01*
X4602073Y2998876D01*
X4590135Y2989529D01*
X4579366Y2978759D01*
X4570018Y2966821D01*
X4562144Y2953816D01*
X4555845Y2939897D01*
X4553661Y2936697D01*
X4550410Y2934614D01*
X4546600Y2933903D01*
X4542790Y2934614D01*
X4539538Y2936697D01*
X4537354Y2939897D01*
X4531055Y2953816D01*
X4523181Y2966821D01*
X4513834Y2978759D01*
X4503064Y2989529D01*
X4491126Y2998876D01*
X4478121Y3006750D01*
X4464253Y3012998D01*
X4449724Y3017520D01*
X4434789Y3020263D01*
X4419600Y3021177D01*
X4404410Y3020263D01*
X4389475Y3017520D01*
X4374946Y3012998D01*
X4361078Y3006750D01*
X4348073Y2998876D01*
X4336135Y2989529D01*
X4325366Y2978759D01*
X4316018Y2966821D01*
X4308144Y2953816D01*
X4301845Y2939897D01*
X4299661Y2936697D01*
X4296410Y2934614D01*
X4292600Y2933903D01*
X4288790Y2934614D01*
X4285538Y2936697D01*
X4283354Y2939897D01*
X4277055Y2953816D01*
X4269181Y2966821D01*
X4259834Y2978759D01*
X4249064Y2989529D01*
X4237126Y2998876D01*
X4224121Y3006750D01*
X4210253Y3012998D01*
X4195724Y3017520D01*
X4180789Y3020263D01*
X4165600Y3021177D01*
X4150410Y3020263D01*
X4135475Y3017520D01*
X4120946Y3012998D01*
X4107078Y3006750D01*
X4094073Y2998876D01*
X4082135Y2989529D01*
X4071365Y2978759D01*
X4062018Y2966821D01*
X4054144Y2953816D01*
X4047845Y2939897D01*
X4045661Y2936697D01*
X4042410Y2934614D01*
X4038600Y2933903D01*
X4034790Y2934614D01*
X4031538Y2936697D01*
X4029354Y2939897D01*
X4023055Y2953816D01*
X4015181Y2966821D01*
X4005834Y2978759D01*
X3995064Y2989529D01*
X3983126Y2998876D01*
X3970121Y3006750D01*
X3956253Y3012998D01*
X3941724Y3017520D01*
X3926789Y3020263D01*
X3911600Y3021177D01*
X3896410Y3020263D01*
X3881475Y3017520D01*
X3866946Y3012998D01*
X3853078Y3006750D01*
X3840073Y2998876D01*
X3828135Y2989529D01*
X3817365Y2978759D01*
X3808018Y2966821D01*
X3800144Y2953816D01*
X3793845Y2939897D01*
X3791661Y2936697D01*
X3788410Y2934614D01*
X3784600Y2933903D01*
X3780790Y2934614D01*
X3777538Y2936697D01*
X3775354Y2939897D01*
X3769055Y2953816D01*
X3761181Y2966821D01*
X3751834Y2978759D01*
X3741064Y2989529D01*
X3729126Y2998876D01*
X3716121Y3006750D01*
X3702253Y3012998D01*
X3687724Y3017520D01*
X3672789Y3020263D01*
X3657600Y3021177D01*
X3642410Y3020263D01*
X3627475Y3017520D01*
X3612946Y3012998D01*
X3599078Y3006750D01*
X3586073Y2998876D01*
X3574135Y2989529D01*
X3563365Y2978759D01*
X3554018Y2966821D01*
X3546144Y2953816D01*
X3539896Y2939948D01*
X3535375Y2925419D01*
X3532632Y2910484D01*
X3531717Y2895295D01*
X3532632Y2880106D01*
X3535375Y2865170D01*
X3539896Y2850642D01*
X3546144Y2836773D01*
X3554018Y2823768D01*
X3563365Y2811830D01*
X3574135Y2801061D01*
X3586073Y2791663D01*
X3599078Y2783840D01*
X3612946Y2777591D01*
X3627475Y2773070D01*
X3642410Y2770327D01*
X3657600Y2769412D01*
X3672789Y2770327D01*
X3687724Y2773070D01*
X3702253Y2777591D01*
X3708298Y2780284D01*
X3712260Y2781198D01*
X3716274Y2780487D01*
X3719626Y2778201D01*
X4197908Y2299970D01*
X4200245Y2296363D01*
X4200855Y2292146D01*
X4199737Y2288032D01*
X4196994Y2284780D01*
X4193184Y2282901D01*
X4188917Y2282748D01*
X4180789Y2284272D01*
X4165600Y2285187D01*
X4150410Y2284272D01*
X4135475Y2281529D01*
X4120946Y2277008D01*
X4107078Y2270760D01*
X4094073Y2262886D01*
X4082135Y2253538D01*
X4071365Y2242769D01*
X4062018Y2230780D01*
X4054144Y2217775D01*
X4047845Y2203856D01*
X4045661Y2200706D01*
X4042410Y2198624D01*
X4038600Y2197862D01*
X4034790Y2198624D01*
X4031538Y2200706D01*
X4029354Y2203856D01*
X4023055Y2217775D01*
X4015181Y2230780D01*
X4005834Y2242769D01*
X3995064Y2253538D01*
X3983126Y2262886D01*
X3970121Y2270760D01*
X3956253Y2277008D01*
X3941724Y2281529D01*
X3926789Y2284272D01*
X3911600Y2285187D01*
X3896410Y2284272D01*
X3881475Y2281529D01*
X3866946Y2277008D01*
X3853078Y2270760D01*
X3840073Y2262886D01*
X3828135Y2253538D01*
X3817365Y2242769D01*
X3808018Y2230780D01*
X3800144Y2217775D01*
X3793845Y2203856D01*
X3791661Y2200706D01*
X3788410Y2198624D01*
X3784600Y2197862D01*
X3780790Y2198624D01*
X3777538Y2200706D01*
X3775354Y2203856D01*
X3769055Y2217775D01*
X3761181Y2230780D01*
X3751834Y2242769D01*
X3741064Y2253538D01*
X3729126Y2262886D01*
X3716121Y2270760D01*
X3702253Y2277008D01*
X3687724Y2281529D01*
X3672789Y2284272D01*
X3657600Y2285187D01*
X3642410Y2284272D01*
X3627475Y2281529D01*
X3612946Y2277008D01*
X3599078Y2270760D01*
X3586073Y2262886D01*
X3574135Y2253538D01*
X3563365Y2242769D01*
X3554018Y2230780D01*
X3546144Y2217775D01*
X3539896Y2203958D01*
X3535375Y2189429D01*
X3532632Y2174443D01*
X3531717Y2159304D01*
X3532632Y2144115D01*
X3535375Y2129180D01*
X3539896Y2114651D01*
X3546144Y2100783D01*
X3554018Y2087778D01*
X3563365Y2075789D01*
X3574135Y2065070D01*
X3586073Y2055672D01*
X3599078Y2047798D01*
X3612946Y2041601D01*
X3627475Y2037080D01*
X3642410Y2034336D01*
X3657600Y2033422D01*
X3672789Y2034336D01*
X3687724Y2037080D01*
X3702253Y2041601D01*
X3716121Y2047798D01*
X3729126Y2055672D01*
X3741064Y2065070D01*
X3751834Y2075789D01*
X3761181Y2087778D01*
X3769055Y2100783D01*
X3775354Y2114702D01*
X3777538Y2117852D01*
X3780790Y2119985D01*
X3784600Y2120696D01*
X3788410Y2119985D01*
X3791661Y2117852D01*
X3793845Y2114702D01*
X3800144Y2100783D01*
X3808018Y2087778D01*
X3817365Y2075789D01*
X3828135Y2065070D01*
X3840073Y2055672D01*
X3853078Y2047798D01*
X3866946Y2041601D01*
X3881475Y2037080D01*
X3896410Y2034336D01*
X3911600Y2033422D01*
X3926789Y2034336D01*
X3937558Y2036318D01*
X3940810Y2036368D01*
X3943908Y2035403D01*
X3946550Y2033473D01*
X4179824Y1800199D01*
X4186123Y1795018D01*
X4192828Y1791462D01*
X4200144Y1789226D01*
X4208221Y1788464D01*
X5912002Y1788464D01*
X5915914Y1787652D01*
X5919216Y1785467D01*
X6349898Y1354785D01*
X6351981Y1351686D01*
X6352844Y1348028D01*
X6352336Y1344320D01*
X6349339Y1335532D01*
X6346596Y1321917D01*
X6345732Y1308100D01*
X6346596Y1294282D01*
X6349339Y1280718D01*
X6353759Y1267561D01*
X6359906Y1255166D01*
X6367576Y1243634D01*
X6376720Y1233220D01*
X6387134Y1224076D01*
X6398666Y1216406D01*
X6411061Y1210259D01*
X6424168Y1205839D01*
X6437782Y1203147D01*
G37*
G36*
X1440027Y1207058D02*
G01*
X1534972Y1207058D01*
X1529029Y1217777D01*
X1520494Y1229563D01*
X1510538Y1240180D01*
X1499311Y1249476D01*
X1487017Y1257249D01*
X1473860Y1263446D01*
X1460042Y1267968D01*
X1445717Y1270660D01*
X1440027Y1271016D01*
G37*
G36*
X1157427Y1207058D02*
G01*
X1252372Y1207058D01*
X1252372Y1271016D01*
X1246682Y1270660D01*
X1232357Y1267968D01*
X1218539Y1263446D01*
X1205382Y1257249D01*
X1193088Y1249476D01*
X1181862Y1240180D01*
X1171905Y1229563D01*
X1163370Y1217777D01*
G37*
G36*
X2545588Y1217269D02*
G01*
X2558186Y1218590D01*
X2570480Y1221689D01*
X2582265Y1226413D01*
X2593238Y1232763D01*
X2603195Y1240536D01*
X2612034Y1249680D01*
X2619451Y1259941D01*
X2625445Y1271117D01*
X2629763Y1283055D01*
X2632405Y1295450D01*
X2633268Y1308100D01*
X2632405Y1320749D01*
X2629763Y1333144D01*
X2625445Y1345082D01*
X2619451Y1356258D01*
X2612034Y1366520D01*
X2603195Y1375664D01*
X2593238Y1383436D01*
X2582265Y1389786D01*
X2570480Y1394510D01*
X2558186Y1397609D01*
X2545588Y1398930D01*
X2532888Y1398473D01*
X2520391Y1396288D01*
X2517902Y1395476D01*
X2514244Y1394968D01*
X2510637Y1395831D01*
X2507589Y1397965D01*
X2468676Y1436878D01*
X2462377Y1442008D01*
X2455672Y1445615D01*
X2448407Y1447800D01*
X2440330Y1448612D01*
X1557274Y1448612D01*
X1553362Y1449374D01*
X1550060Y1451559D01*
X1547876Y1454861D01*
X1547114Y1458772D01*
X1547114Y1499108D01*
X1546402Y1505458D01*
X1544472Y1510893D01*
X1541424Y1515821D01*
X1537309Y1519885D01*
X1532432Y1522984D01*
X1526946Y1524914D01*
X1520647Y1525625D01*
X1171752Y1525625D01*
X1165453Y1524914D01*
X1159967Y1522984D01*
X1155090Y1519885D01*
X1150975Y1515821D01*
X1147927Y1510893D01*
X1145997Y1505458D01*
X1145286Y1499108D01*
X1145286Y1320292D01*
X1145997Y1313942D01*
X1147927Y1308506D01*
X1150975Y1303578D01*
X1155090Y1299514D01*
X1159967Y1296416D01*
X1165453Y1294485D01*
X1171752Y1293774D01*
X1520647Y1293774D01*
X1526946Y1294485D01*
X1532432Y1296416D01*
X1537309Y1299514D01*
X1541424Y1303578D01*
X1544472Y1308506D01*
X1546402Y1313942D01*
X1547114Y1320292D01*
X1547114Y1360627D01*
X1547876Y1364538D01*
X1550060Y1367840D01*
X1553362Y1370025D01*
X1557274Y1370787D01*
X2420467Y1370787D01*
X2424379Y1370025D01*
X2427681Y1367840D01*
X2452624Y1342898D01*
X2454656Y1339951D01*
X2455570Y1336446D01*
X2455214Y1332890D01*
X2453487Y1326997D01*
X2451760Y1314450D01*
X2451760Y1301750D01*
X2453487Y1289202D01*
X2456992Y1277010D01*
X2462174Y1265428D01*
X2468880Y1254658D01*
X2477008Y1244955D01*
X2486456Y1236472D01*
X2496972Y1229410D01*
X2508351Y1223822D01*
X2520391Y1219911D01*
X2532888Y1217726D01*
G37*
G36*
X2881274Y1226007D02*
G01*
X2893212Y1232763D01*
X2903220Y1240536D01*
X2912008Y1249680D01*
X2919476Y1259941D01*
X2924403Y1269238D01*
X2881274Y1269238D01*
G37*
G36*
X2803550Y1226159D02*
G01*
X2803550Y1269238D01*
X2760472Y1269238D01*
X2762148Y1265428D01*
X2768854Y1254658D01*
X2777032Y1244955D01*
X2786430Y1236472D01*
X2796946Y1229410D01*
G37*
G36*
X2760472Y1346962D02*
G01*
X2803550Y1346962D01*
X2803550Y1390040D01*
X2796946Y1386789D01*
X2786430Y1379728D01*
X2777032Y1371244D01*
X2768854Y1361541D01*
X2762148Y1350772D01*
G37*
G36*
X2881274Y1346962D02*
G01*
X2924403Y1346962D01*
X2919476Y1356258D01*
X2912008Y1366520D01*
X2903220Y1375664D01*
X2893212Y1383436D01*
X2881274Y1390192D01*
G37*
G36*
X2630576Y1764487D02*
G01*
X2703423Y1764487D01*
X2708960Y1765046D01*
X2713837Y1766519D01*
X2718308Y1768906D01*
X2722626Y1772462D01*
X2774137Y1823974D01*
X2777693Y1828292D01*
X2780080Y1832762D01*
X2781554Y1837639D01*
X2782112Y1843176D01*
X2782112Y1916023D01*
X2781554Y1921560D01*
X2780080Y1926437D01*
X2777693Y1930907D01*
X2774137Y1935225D01*
X2722626Y1986737D01*
X2718308Y1990293D01*
X2713837Y1992680D01*
X2708960Y1994154D01*
X2703423Y1994662D01*
X2630576Y1994662D01*
X2625039Y1994154D01*
X2620162Y1992680D01*
X2615692Y1990293D01*
X2611374Y1986737D01*
X2559862Y1935225D01*
X2556306Y1930907D01*
X2551633Y1921967D01*
X2548178Y1919427D01*
X2544013Y1918512D01*
X1747520Y1918512D01*
X1743659Y1919274D01*
X1740357Y1921459D01*
X1400505Y2261311D01*
X1398219Y2264816D01*
X1397558Y2268931D01*
X1398574Y2272944D01*
X1401165Y2276246D01*
X1404874Y2278227D01*
X1409039Y2278532D01*
X1412951Y2277160D01*
X1416862Y2275179D01*
X1416862Y2331262D01*
X1360779Y2331262D01*
X1362760Y2327351D01*
X1364132Y2323439D01*
X1363827Y2319274D01*
X1361846Y2315565D01*
X1358544Y2312974D01*
X1354531Y2311958D01*
X1350416Y2312619D01*
X1346911Y2314905D01*
X1336243Y2325573D01*
X1334008Y2328926D01*
X1333296Y2332939D01*
X1334211Y2336901D01*
X1337259Y2343454D01*
X1337360Y2344420D01*
X1341424Y2357475D01*
X1344168Y2372410D01*
X1345082Y2387600D01*
X1344168Y2402789D01*
X1341424Y2417724D01*
X1336954Y2432202D01*
X1330655Y2446121D01*
X1322781Y2459126D01*
X1313434Y2471064D01*
X1302664Y2481834D01*
X1290726Y2491181D01*
X1277721Y2499055D01*
X1263853Y2505303D01*
X1249324Y2509824D01*
X1234389Y2512568D01*
X1219200Y2513482D01*
X1204010Y2512568D01*
X1189075Y2509824D01*
X1174546Y2505303D01*
X1160678Y2499055D01*
X1147673Y2491181D01*
X1135735Y2481834D01*
X1124966Y2471064D01*
X1115618Y2459126D01*
X1107744Y2446121D01*
X1101496Y2432253D01*
X1096975Y2417724D01*
X1094232Y2402789D01*
X1093317Y2387600D01*
X1094232Y2372410D01*
X1096975Y2357475D01*
X1101496Y2342946D01*
X1107744Y2329078D01*
X1115618Y2316073D01*
X1124966Y2304135D01*
X1135735Y2293366D01*
X1147673Y2284018D01*
X1160678Y2276144D01*
X1174546Y2269896D01*
X1189075Y2265375D01*
X1204010Y2262632D01*
X1219200Y2261717D01*
X1234389Y2262632D01*
X1249324Y2265375D01*
X1263853Y2269896D01*
X1269898Y2272588D01*
X1273860Y2273503D01*
X1277874Y2272792D01*
X1281226Y2270556D01*
X1699310Y1852422D01*
X1705610Y1847291D01*
X1712315Y1843684D01*
X1719630Y1841500D01*
X1727707Y1840687D01*
X2544013Y1840687D01*
X2548178Y1839772D01*
X2551633Y1837232D01*
X2556306Y1828292D01*
X2559862Y1823974D01*
X2611374Y1772462D01*
X2615692Y1768906D01*
X2620162Y1766519D01*
X2625039Y1765046D01*
G37*
G36*
X4729937Y2046833D02*
G01*
X4732121Y2047798D01*
X4745126Y2055672D01*
X4757064Y2065070D01*
X4767834Y2075789D01*
X4777181Y2087778D01*
X4785055Y2100783D01*
X4786020Y2102916D01*
X4729937Y2102916D01*
G37*
G36*
X4475937Y2046833D02*
G01*
X4478121Y2047798D01*
X4491126Y2055672D01*
X4503064Y2065070D01*
X4513834Y2075789D01*
X4523181Y2087778D01*
X4531055Y2100783D01*
X4532020Y2102916D01*
X4475937Y2102916D01*
G37*
G36*
X4617262Y2046833D02*
G01*
X4617262Y2102916D01*
X4561179Y2102916D01*
X4562144Y2100783D01*
X4570018Y2087778D01*
X4579366Y2075789D01*
X4590135Y2065070D01*
X4602073Y2055672D01*
X4615078Y2047798D01*
G37*
G36*
X4363262Y2046833D02*
G01*
X4363262Y2102916D01*
X4307179Y2102916D01*
X4308144Y2100783D01*
X4316018Y2087778D01*
X4325366Y2075789D01*
X4336135Y2065070D01*
X4348073Y2055672D01*
X4361078Y2047798D01*
G37*
G36*
X7975650Y2218182D02*
G01*
X7989468Y2219045D01*
X8003031Y2221788D01*
X8016189Y2226208D01*
X8028584Y2232355D01*
X8040116Y2240026D01*
X8050530Y2249170D01*
X8059674Y2259584D01*
X8067344Y2271115D01*
X8073491Y2283510D01*
X8077911Y2296617D01*
X8080603Y2310231D01*
X8081518Y2324049D01*
X8080603Y2337866D01*
X8077911Y2351430D01*
X8073491Y2364587D01*
X8067344Y2376982D01*
X8059674Y2388514D01*
X8050530Y2398928D01*
X8040116Y2408072D01*
X8028584Y2415743D01*
X8016189Y2421890D01*
X8003031Y2426309D01*
X7989468Y2429002D01*
X7975650Y2429916D01*
X7961833Y2429002D01*
X7948218Y2426309D01*
X7935112Y2421890D01*
X7922717Y2415743D01*
X7911185Y2408072D01*
X7900771Y2398928D01*
X7891627Y2388514D01*
X7883956Y2376982D01*
X7877809Y2364587D01*
X7873390Y2351430D01*
X7870647Y2337866D01*
X7869783Y2324049D01*
X7870647Y2310231D01*
X7873390Y2296617D01*
X7877809Y2283510D01*
X7883956Y2271115D01*
X7891627Y2259584D01*
X7900771Y2249170D01*
X7911185Y2240026D01*
X7922717Y2232355D01*
X7935112Y2226208D01*
X7948218Y2221788D01*
X7961833Y2219045D01*
G37*
G36*
X1529537Y2275179D02*
G01*
X1531721Y2276144D01*
X1544726Y2284018D01*
X1556664Y2293366D01*
X1567434Y2304135D01*
X1576781Y2316073D01*
X1584655Y2329078D01*
X1585620Y2331262D01*
X1529537Y2331262D01*
G37*
G36*
X1360779Y2443937D02*
G01*
X1416862Y2443937D01*
X1416862Y2500020D01*
X1414678Y2499055D01*
X1401673Y2491181D01*
X1389735Y2481834D01*
X1378966Y2471064D01*
X1369618Y2459126D01*
X1361744Y2446121D01*
G37*
G36*
X1529537Y2443937D02*
G01*
X1585620Y2443937D01*
X1584655Y2446121D01*
X1576781Y2459126D01*
X1567434Y2471064D01*
X1556664Y2481834D01*
X1544726Y2491181D01*
X1531721Y2499055D01*
X1529537Y2500020D01*
G37*
G36*
X7975600Y2472232D02*
G01*
X7989417Y2473096D01*
X8002981Y2475839D01*
X8016138Y2480259D01*
X8028533Y2486406D01*
X8040065Y2494076D01*
X8050479Y2503220D01*
X8059623Y2513634D01*
X8067294Y2525166D01*
X8073440Y2537561D01*
X8077860Y2550668D01*
X8080552Y2564282D01*
X8081467Y2578100D01*
X8080552Y2591917D01*
X8077860Y2605481D01*
X8073440Y2618638D01*
X8067294Y2631033D01*
X8059623Y2642565D01*
X8050479Y2652979D01*
X8040065Y2662123D01*
X8028533Y2669794D01*
X8016138Y2675940D01*
X8002981Y2680360D01*
X7989417Y2683052D01*
X7975600Y2683967D01*
X7961782Y2683052D01*
X7948168Y2680360D01*
X7935061Y2675940D01*
X7922666Y2669794D01*
X7911134Y2662123D01*
X7900720Y2652979D01*
X7891576Y2642565D01*
X7883906Y2631033D01*
X7877759Y2618638D01*
X7873339Y2605481D01*
X7870596Y2591917D01*
X7869732Y2578100D01*
X7870596Y2564282D01*
X7873339Y2550668D01*
X7877759Y2537561D01*
X7883906Y2525166D01*
X7891576Y2513634D01*
X7900720Y2503220D01*
X7911134Y2494076D01*
X7922666Y2486406D01*
X7935061Y2480259D01*
X7948168Y2475839D01*
X7961782Y2473096D01*
G37*
G36*
X7975650Y2726182D02*
G01*
X7989468Y2727045D01*
X8003031Y2729788D01*
X8016189Y2734208D01*
X8028584Y2740355D01*
X8040116Y2748026D01*
X8050530Y2757170D01*
X8059674Y2767584D01*
X8067344Y2779115D01*
X8073491Y2791510D01*
X8077911Y2804617D01*
X8080603Y2818231D01*
X8081518Y2832049D01*
X8080603Y2845866D01*
X8077911Y2859430D01*
X8073491Y2872587D01*
X8067344Y2884982D01*
X8059674Y2896514D01*
X8050530Y2906928D01*
X8040116Y2916072D01*
X8028584Y2923743D01*
X8016189Y2929890D01*
X8003031Y2934309D01*
X7989468Y2937002D01*
X7975650Y2937916D01*
X7961833Y2937002D01*
X7948218Y2934309D01*
X7935112Y2929890D01*
X7922717Y2923743D01*
X7911185Y2916072D01*
X7900771Y2906928D01*
X7891627Y2896514D01*
X7883956Y2884982D01*
X7877809Y2872587D01*
X7873390Y2859430D01*
X7870647Y2845866D01*
X7869783Y2832049D01*
X7870647Y2818231D01*
X7873390Y2804617D01*
X7877809Y2791510D01*
X7883956Y2779115D01*
X7891627Y2767584D01*
X7900771Y2757170D01*
X7911185Y2748026D01*
X7922717Y2740355D01*
X7935112Y2734208D01*
X7948218Y2729788D01*
X7961833Y2727045D01*
G37*
G36*
X6405270Y2737154D02*
G01*
X6405270Y2785770D01*
X6356654Y2785770D01*
X6359906Y2779166D01*
X6367576Y2767634D01*
X6376720Y2757220D01*
X6387134Y2748076D01*
X6398666Y2740406D01*
G37*
G36*
X6497929Y2737154D02*
G01*
X6504533Y2740406D01*
X6516065Y2748076D01*
X6526479Y2757220D01*
X6535623Y2767634D01*
X6543294Y2779166D01*
X6546545Y2785770D01*
X6497929Y2785770D01*
G37*
G36*
X2630576Y2780487D02*
G01*
X2703423Y2780487D01*
X2708960Y2781046D01*
X2713837Y2782519D01*
X2718308Y2784906D01*
X2722626Y2788462D01*
X2774137Y2839974D01*
X2777693Y2844292D01*
X2782316Y2853486D01*
X2785364Y2855976D01*
X2789174Y2857144D01*
X2792780Y2857500D01*
X2800096Y2859684D01*
X2806801Y2863291D01*
X2813100Y2868422D01*
X3665778Y3721150D01*
X3669080Y3723335D01*
X3672941Y3724097D01*
X3701542Y3724097D01*
X3705453Y3723335D01*
X3708704Y3721150D01*
X3710940Y3717848D01*
X3711701Y3713937D01*
X3711701Y3531158D01*
X3712413Y3524859D01*
X3714343Y3519373D01*
X3717391Y3514496D01*
X3721506Y3510381D01*
X3726383Y3507333D01*
X3731869Y3505403D01*
X3738168Y3504692D01*
X3940251Y3504692D01*
X3946550Y3505403D01*
X3952036Y3507333D01*
X3956913Y3510381D01*
X3961028Y3514496D01*
X3964076Y3519373D01*
X3966006Y3524859D01*
X3966718Y3531158D01*
X3966718Y3713937D01*
X3967479Y3717848D01*
X3969715Y3721150D01*
X3972966Y3723335D01*
X3976878Y3724097D01*
X4229049Y3724097D01*
X4233468Y3723081D01*
X4236974Y3720287D01*
X4238955Y3716274D01*
X4239006Y3711752D01*
X4237075Y3707688D01*
X4234688Y3704640D01*
X4226712Y3691432D01*
X4220362Y3677412D01*
X4215790Y3662730D01*
X4213047Y3647592D01*
X4212082Y3632200D01*
X4213047Y3616807D01*
X4215790Y3601669D01*
X4220362Y3586987D01*
X4226712Y3572967D01*
X4234688Y3559759D01*
X4244187Y3547668D01*
X4255058Y3536797D01*
X4267149Y3527298D01*
X4280357Y3519322D01*
X4294378Y3512972D01*
X4309059Y3508400D01*
X4324197Y3505657D01*
X4339590Y3504692D01*
X4354982Y3505657D01*
X4370120Y3508400D01*
X4384802Y3512972D01*
X4398822Y3519322D01*
X4412030Y3527298D01*
X4424121Y3536797D01*
X4434992Y3547668D01*
X4444492Y3559759D01*
X4452467Y3572967D01*
X4458817Y3586987D01*
X4463389Y3601669D01*
X4466132Y3616807D01*
X4467098Y3632200D01*
X4466132Y3647592D01*
X4463389Y3662730D01*
X4458817Y3677412D01*
X4452467Y3691432D01*
X4444492Y3704640D01*
X4442104Y3707688D01*
X4440174Y3711752D01*
X4440224Y3716274D01*
X4442206Y3720287D01*
X4445711Y3723081D01*
X4450130Y3724097D01*
X4971542Y3724097D01*
X4975453Y3723335D01*
X4978704Y3721150D01*
X4980940Y3717848D01*
X4981702Y3713937D01*
X4981702Y3531158D01*
X4982413Y3524859D01*
X4984343Y3519373D01*
X4987391Y3514496D01*
X4991506Y3510381D01*
X4996383Y3507333D01*
X5001869Y3505403D01*
X5008168Y3504692D01*
X5210251Y3504692D01*
X5216550Y3505403D01*
X5222036Y3507333D01*
X5226913Y3510381D01*
X5231028Y3514496D01*
X5234076Y3519373D01*
X5236006Y3524859D01*
X5236718Y3531158D01*
X5236718Y3713937D01*
X5237480Y3717848D01*
X5239715Y3721150D01*
X5242966Y3723335D01*
X5246878Y3724097D01*
X5499049Y3724097D01*
X5503468Y3723081D01*
X5506974Y3720287D01*
X5508955Y3716274D01*
X5509006Y3711752D01*
X5507075Y3707688D01*
X5504688Y3704640D01*
X5496712Y3691432D01*
X5490362Y3677412D01*
X5485790Y3662730D01*
X5483047Y3647592D01*
X5482082Y3632200D01*
X5483047Y3616807D01*
X5485790Y3601669D01*
X5490362Y3586987D01*
X5496712Y3572967D01*
X5504688Y3559759D01*
X5514187Y3547668D01*
X5525058Y3536797D01*
X5537149Y3527298D01*
X5550357Y3519322D01*
X5564378Y3512972D01*
X5579059Y3508400D01*
X5594197Y3505657D01*
X5609590Y3504692D01*
X5624982Y3505657D01*
X5640120Y3508400D01*
X5654802Y3512972D01*
X5668822Y3519322D01*
X5682030Y3527298D01*
X5694121Y3536797D01*
X5704992Y3547668D01*
X5714492Y3559759D01*
X5722467Y3572967D01*
X5728817Y3586987D01*
X5733389Y3601669D01*
X5736132Y3616807D01*
X5737098Y3632200D01*
X5736132Y3647592D01*
X5733389Y3662730D01*
X5728817Y3677412D01*
X5722467Y3691432D01*
X5714492Y3704640D01*
X5712104Y3707688D01*
X5710174Y3711752D01*
X5710224Y3716274D01*
X5712206Y3720287D01*
X5715711Y3723081D01*
X5720130Y3724097D01*
X7677302Y3724097D01*
X7681214Y3723335D01*
X7684516Y3721150D01*
X7838694Y3566922D01*
X7844993Y3561791D01*
X7851698Y3558184D01*
X7858963Y3556000D01*
X7864094Y3554780D01*
X7867040Y3552545D01*
X7869021Y3549396D01*
X7869681Y3545738D01*
X7869681Y3514648D01*
X7870393Y3508349D01*
X7872323Y3502863D01*
X7875371Y3497986D01*
X7879486Y3493871D01*
X7884363Y3490823D01*
X7889849Y3488893D01*
X7896148Y3488182D01*
X8055051Y3488182D01*
X8061350Y3488893D01*
X8066836Y3490823D01*
X8071713Y3493871D01*
X8075828Y3497986D01*
X8078876Y3502863D01*
X8080806Y3508349D01*
X8081518Y3514648D01*
X8081518Y3673551D01*
X8080806Y3679850D01*
X8078876Y3685336D01*
X8075828Y3690213D01*
X8071713Y3694328D01*
X8066836Y3697376D01*
X8061350Y3699306D01*
X8055051Y3700018D01*
X7896148Y3700018D01*
X7889849Y3699306D01*
X7884363Y3697376D01*
X7879486Y3694328D01*
X7875371Y3690213D01*
X7872323Y3685336D01*
X7870393Y3679850D01*
X7869681Y3673551D01*
X7869681Y3670503D01*
X7868920Y3666642D01*
X7866735Y3663340D01*
X7863433Y3661156D01*
X7859522Y3660343D01*
X7855661Y3661156D01*
X7852359Y3663340D01*
X7725511Y3790187D01*
X7719212Y3795318D01*
X7712506Y3798925D01*
X7705242Y3801110D01*
X7697165Y3801922D01*
X3653129Y3801922D01*
X3645052Y3801110D01*
X3637737Y3798925D01*
X3631031Y3795318D01*
X3624732Y3790187D01*
X2787142Y2952546D01*
X2783840Y2950362D01*
X2779979Y2949600D01*
X2776067Y2950362D01*
X2772765Y2952546D01*
X2722626Y3002737D01*
X2718308Y3006293D01*
X2713837Y3008680D01*
X2708960Y3010154D01*
X2703423Y3010662D01*
X2630576Y3010662D01*
X2625039Y3010154D01*
X2620162Y3008680D01*
X2615692Y3006293D01*
X2611374Y3002737D01*
X2559862Y2951226D01*
X2556306Y2946908D01*
X2553919Y2942437D01*
X2552446Y2937560D01*
X2551938Y2932023D01*
X2551938Y2859176D01*
X2552446Y2853639D01*
X2553919Y2848762D01*
X2556306Y2844292D01*
X2559862Y2839974D01*
X2611374Y2788462D01*
X2615692Y2784906D01*
X2620162Y2782519D01*
X2625039Y2781046D01*
G37*
G36*
X1909368Y2877159D02*
G01*
X1917649Y2877159D01*
X1931162Y2878074D01*
X1944116Y2880664D01*
X1956612Y2884881D01*
X1968449Y2890723D01*
X1979422Y2898038D01*
X1989328Y2906776D01*
X1998014Y2916682D01*
X2005380Y2927654D01*
X2008632Y2934258D01*
X1909368Y2934258D01*
G37*
G36*
X1708353Y2877159D02*
G01*
X1716633Y2877159D01*
X1716633Y2934258D01*
X1617370Y2934258D01*
X1620621Y2927654D01*
X1627936Y2916682D01*
X1636674Y2906776D01*
X1646580Y2898038D01*
X1657553Y2890723D01*
X1669389Y2884881D01*
X1681886Y2880664D01*
X1694840Y2878074D01*
G37*
G36*
X6356654Y2878429D02*
G01*
X6405270Y2878429D01*
X6405270Y2927045D01*
X6398666Y2923794D01*
X6387134Y2916123D01*
X6376720Y2906979D01*
X6367576Y2896565D01*
X6359906Y2885033D01*
G37*
G36*
X6497929Y2878429D02*
G01*
X6546545Y2878429D01*
X6543294Y2885033D01*
X6535623Y2896565D01*
X6526479Y2906979D01*
X6516065Y2916123D01*
X6504533Y2923794D01*
X6497929Y2927045D01*
G37*
G36*
X7975600Y2980182D02*
G01*
X7989417Y2981096D01*
X8002981Y2983788D01*
X8016138Y2988259D01*
X8028533Y2994406D01*
X8040065Y3002076D01*
X8050479Y3011220D01*
X8059623Y3021634D01*
X8067294Y3033166D01*
X8073440Y3045561D01*
X8077860Y3058668D01*
X8080552Y3072282D01*
X8081467Y3086100D01*
X8080552Y3099917D01*
X8077860Y3113481D01*
X8073440Y3126638D01*
X8067294Y3139033D01*
X8059623Y3150565D01*
X8050479Y3160979D01*
X8040065Y3170072D01*
X8028533Y3177794D01*
X8016138Y3183940D01*
X8002981Y3188360D01*
X7989417Y3191052D01*
X7975600Y3191967D01*
X7961782Y3191052D01*
X7948168Y3188360D01*
X7935061Y3183940D01*
X7922666Y3177794D01*
X7911134Y3170072D01*
X7900720Y3160979D01*
X7891576Y3150565D01*
X7883906Y3139033D01*
X7877759Y3126638D01*
X7873339Y3113481D01*
X7870596Y3099917D01*
X7869732Y3086100D01*
X7870596Y3072282D01*
X7873339Y3058668D01*
X7877759Y3045561D01*
X7883906Y3033166D01*
X7891576Y3021634D01*
X7900720Y3011220D01*
X7911134Y3002076D01*
X7922666Y2994406D01*
X7935061Y2988259D01*
X7948168Y2983788D01*
X7961782Y2981096D01*
G37*
G36*
X6451650Y2980283D02*
G01*
X6465468Y2981147D01*
X6479032Y2983890D01*
X6492189Y2988310D01*
X6504584Y2994456D01*
X6516116Y3002127D01*
X6526530Y3011271D01*
X6535674Y3021685D01*
X6543344Y3033217D01*
X6549491Y3045612D01*
X6553911Y3058718D01*
X6556603Y3072333D01*
X6557518Y3086150D01*
X6556603Y3099968D01*
X6553911Y3113532D01*
X6549491Y3126689D01*
X6543344Y3139084D01*
X6535674Y3150616D01*
X6526530Y3161030D01*
X6516116Y3170174D01*
X6504584Y3177844D01*
X6492189Y3183991D01*
X6479032Y3188411D01*
X6465468Y3191103D01*
X6451650Y3192018D01*
X6437833Y3191103D01*
X6424218Y3188411D01*
X6411112Y3183991D01*
X6398717Y3177844D01*
X6387185Y3170174D01*
X6376771Y3161030D01*
X6367627Y3150616D01*
X6359956Y3139084D01*
X6353810Y3126689D01*
X6349390Y3113532D01*
X6346647Y3099968D01*
X6345783Y3086150D01*
X6346647Y3072333D01*
X6349390Y3058718D01*
X6353810Y3045612D01*
X6359956Y3033217D01*
X6367627Y3021685D01*
X6376771Y3011271D01*
X6387185Y3002127D01*
X6398717Y2994456D01*
X6411112Y2988310D01*
X6424218Y2983890D01*
X6437833Y2981147D01*
G37*
G36*
X1909368Y3021939D02*
G01*
X2008632Y3021939D01*
X2005380Y3028543D01*
X1998014Y3039516D01*
X1989328Y3049422D01*
X1979422Y3058109D01*
X1968449Y3065475D01*
X1956612Y3071317D01*
X1944116Y3075533D01*
X1931162Y3078124D01*
X1917649Y3078988D01*
X1909368Y3078988D01*
G37*
G36*
X1617370Y3021939D02*
G01*
X1716633Y3021939D01*
X1716633Y3078988D01*
X1708353Y3078988D01*
X1694840Y3078124D01*
X1681886Y3075533D01*
X1669389Y3071317D01*
X1657553Y3065475D01*
X1646580Y3058109D01*
X1636674Y3049422D01*
X1627936Y3039516D01*
X1620621Y3028543D01*
G37*
G36*
X2083003Y3217164D02*
G01*
X2096160Y3218027D01*
X2109114Y3220618D01*
X2121611Y3224885D01*
X2133447Y3230676D01*
X2144420Y3238042D01*
X2154377Y3246729D01*
X2163064Y3256635D01*
X2170379Y3267608D01*
X2176221Y3279444D01*
X2180488Y3291941D01*
X2183028Y3304895D01*
X2183942Y3318408D01*
X2183942Y3398977D01*
X2184704Y3402888D01*
X2186889Y3406190D01*
X2190191Y3408375D01*
X2194102Y3409137D01*
X2462885Y3409137D01*
X2466797Y3408375D01*
X2470099Y3406190D01*
X2536596Y3339642D01*
X2542895Y3334461D01*
X2549601Y3330905D01*
X2556916Y3328670D01*
X2561996Y3327501D01*
X2564942Y3325266D01*
X2566924Y3322065D01*
X2567584Y3318408D01*
X2567584Y3278886D01*
X2568295Y3272536D01*
X2570226Y3267100D01*
X2573324Y3262172D01*
X2577388Y3258108D01*
X2582316Y3255010D01*
X2587752Y3253130D01*
X2594051Y3252368D01*
X2739948Y3252368D01*
X2746248Y3253130D01*
X2751683Y3255010D01*
X2756611Y3258108D01*
X2760675Y3262172D01*
X2763774Y3267100D01*
X2765704Y3272536D01*
X2766415Y3278886D01*
X2766415Y3454704D01*
X2765704Y3461054D01*
X2763774Y3466490D01*
X2760675Y3471418D01*
X2756611Y3475482D01*
X2751683Y3478580D01*
X2746248Y3480460D01*
X2739948Y3481171D01*
X2594051Y3481171D01*
X2587752Y3480460D01*
X2582316Y3478580D01*
X2577388Y3475482D01*
X2573324Y3471418D01*
X2570226Y3466490D01*
X2568295Y3461054D01*
X2567584Y3454704D01*
X2567584Y3443224D01*
X2566822Y3439363D01*
X2564638Y3436061D01*
X2561336Y3433826D01*
X2557424Y3433064D01*
X2553563Y3433826D01*
X2550261Y3436061D01*
X2511094Y3475228D01*
X2504795Y3480358D01*
X2498090Y3483965D01*
X2490825Y3486150D01*
X2482748Y3486962D01*
X2194102Y3486962D01*
X2190191Y3487724D01*
X2186889Y3489909D01*
X2184704Y3493211D01*
X2183942Y3497122D01*
X2183942Y3577742D01*
X2183028Y3591255D01*
X2180488Y3604158D01*
X2176221Y3616655D01*
X2170379Y3628491D01*
X2163064Y3639464D01*
X2154377Y3649421D01*
X2144420Y3658108D01*
X2133447Y3665423D01*
X2121611Y3671265D01*
X2109114Y3675532D01*
X2096160Y3678072D01*
X2083003Y3678936D01*
X2069846Y3678072D01*
X2056892Y3675532D01*
X2044395Y3671265D01*
X2032558Y3665423D01*
X2021586Y3658108D01*
X2011680Y3649421D01*
X2002993Y3639464D01*
X1995627Y3628491D01*
X1989785Y3616655D01*
X1985568Y3604158D01*
X1982978Y3591255D01*
X1982114Y3577742D01*
X1982114Y3318408D01*
X1982978Y3304895D01*
X1985568Y3291941D01*
X1989785Y3279444D01*
X1995627Y3267608D01*
X2002993Y3256635D01*
X2011680Y3246729D01*
X2021586Y3238042D01*
X2032558Y3230676D01*
X2044395Y3224885D01*
X2056892Y3220618D01*
X2069846Y3218027D01*
G37*
G36*
X6451600Y3234232D02*
G01*
X6465417Y3235096D01*
X6478981Y3237839D01*
X6492138Y3242259D01*
X6504533Y3248406D01*
X6516065Y3256076D01*
X6526479Y3265220D01*
X6535623Y3275634D01*
X6543294Y3287166D01*
X6549440Y3299561D01*
X6553860Y3312718D01*
X6556552Y3326282D01*
X6557467Y3340100D01*
X6556552Y3353917D01*
X6553860Y3367481D01*
X6549440Y3380638D01*
X6543294Y3393033D01*
X6535623Y3404565D01*
X6526479Y3414979D01*
X6516065Y3424123D01*
X6504533Y3431794D01*
X6492138Y3437940D01*
X6478981Y3442360D01*
X6465417Y3445103D01*
X6451600Y3445967D01*
X6437782Y3445103D01*
X6424168Y3442360D01*
X6411061Y3437940D01*
X6398666Y3431794D01*
X6387134Y3424123D01*
X6376720Y3414979D01*
X6367576Y3404565D01*
X6359906Y3393033D01*
X6353759Y3380638D01*
X6349339Y3367481D01*
X6346596Y3353917D01*
X6345732Y3340100D01*
X6346596Y3326282D01*
X6349339Y3312718D01*
X6353759Y3299561D01*
X6359906Y3287166D01*
X6367576Y3275634D01*
X6376720Y3265220D01*
X6387134Y3256076D01*
X6398666Y3248406D01*
X6411061Y3242259D01*
X6424168Y3237839D01*
X6437782Y3235096D01*
G37*
G36*
X7929270Y3245154D02*
G01*
X7929270Y3293770D01*
X7880654Y3293770D01*
X7883906Y3287166D01*
X7891576Y3275634D01*
X7900720Y3265220D01*
X7911134Y3256076D01*
X7922666Y3248406D01*
G37*
G36*
X8021929Y3245154D02*
G01*
X8028533Y3248406D01*
X8040065Y3256076D01*
X8050479Y3265220D01*
X8059623Y3275634D01*
X8067294Y3287166D01*
X8070545Y3293770D01*
X8021929Y3293770D01*
G37*
G36*
X1429156Y3252470D02*
G01*
X1429156Y3351733D01*
X1372057Y3351733D01*
X1372057Y3343401D01*
X1372971Y3329940D01*
X1375562Y3316986D01*
X1379778Y3304489D01*
X1385620Y3292652D01*
X1392936Y3281679D01*
X1401673Y3271774D01*
X1411579Y3263036D01*
X1422552Y3255721D01*
G37*
G36*
X1516837Y3252470D02*
G01*
X1523441Y3255721D01*
X1534414Y3263036D01*
X1544320Y3271774D01*
X1553006Y3281679D01*
X1560372Y3292652D01*
X1566214Y3304489D01*
X1570431Y3316986D01*
X1573022Y3329940D01*
X1573885Y3343401D01*
X1573885Y3351733D01*
X1516837Y3351733D01*
G37*
G36*
X7880654Y3386429D02*
G01*
X7929270Y3386429D01*
X7929270Y3435045D01*
X7922666Y3431794D01*
X7911134Y3424123D01*
X7900720Y3414979D01*
X7891576Y3404565D01*
X7883906Y3393033D01*
G37*
G36*
X8021929Y3386429D02*
G01*
X8070545Y3386429D01*
X8067294Y3393033D01*
X8059623Y3404565D01*
X8050479Y3414979D01*
X8040065Y3424123D01*
X8028533Y3431794D01*
X8021929Y3435045D01*
G37*
G36*
X6372148Y3488182D02*
G01*
X6531051Y3488182D01*
X6537350Y3488893D01*
X6542836Y3490823D01*
X6547713Y3493871D01*
X6551828Y3497986D01*
X6554876Y3502863D01*
X6556806Y3508349D01*
X6557518Y3514648D01*
X6557518Y3673551D01*
X6556806Y3679850D01*
X6554876Y3685336D01*
X6551828Y3690213D01*
X6547713Y3694328D01*
X6542836Y3697376D01*
X6537350Y3699306D01*
X6531051Y3700018D01*
X6372148Y3700018D01*
X6365849Y3699306D01*
X6360363Y3697376D01*
X6355486Y3694328D01*
X6351371Y3690213D01*
X6348323Y3685336D01*
X6346393Y3679850D01*
X6345682Y3673551D01*
X6345682Y3514648D01*
X6346393Y3508349D01*
X6348323Y3502863D01*
X6351371Y3497986D01*
X6355486Y3493871D01*
X6360363Y3490823D01*
X6365849Y3488893D01*
G37*
G36*
X1516837Y3544417D02*
G01*
X1573885Y3544417D01*
X1573885Y3552748D01*
X1573022Y3566261D01*
X1570431Y3579215D01*
X1566214Y3591712D01*
X1560372Y3603548D01*
X1553006Y3614521D01*
X1544320Y3624427D01*
X1534414Y3633114D01*
X1523441Y3640480D01*
X1516837Y3643731D01*
G37*
G36*
X1372057Y3544417D02*
G01*
X1429156Y3544417D01*
X1429156Y3643731D01*
X1422552Y3640480D01*
X1411579Y3633114D01*
X1401673Y3624427D01*
X1392936Y3614521D01*
X1385620Y3603548D01*
X1379778Y3591712D01*
X1375562Y3579215D01*
X1372971Y3566261D01*
X1372057Y3552748D01*
G37*
G36*
X2823616Y3672890D02*
G01*
X2833420Y3673754D01*
X2842920Y3676294D01*
X2851810Y3680460D01*
X2859836Y3686098D01*
X2866796Y3693058D01*
X2872435Y3701084D01*
X2876600Y3709974D01*
X2879140Y3719474D01*
X2880004Y3729278D01*
X2879140Y3739083D01*
X2876600Y3748582D01*
X2872435Y3757472D01*
X2866796Y3765499D01*
X2859836Y3772458D01*
X2851810Y3778097D01*
X2842920Y3782263D01*
X2833420Y3784803D01*
X2823616Y3785666D01*
X2813812Y3784803D01*
X2804312Y3782263D01*
X2795422Y3778097D01*
X2787396Y3772458D01*
X2786075Y3771137D01*
X2782773Y3768953D01*
X2778912Y3768191D01*
X2776575Y3768191D01*
X2772664Y3768953D01*
X2769362Y3771137D01*
X2767177Y3774440D01*
X2766415Y3778351D01*
X2766415Y3934714D01*
X2765704Y3941064D01*
X2763774Y3946499D01*
X2760675Y3951427D01*
X2756611Y3955491D01*
X2751683Y3958590D01*
X2746248Y3960469D01*
X2739948Y3961180D01*
X2594051Y3961180D01*
X2587752Y3960469D01*
X2582316Y3958590D01*
X2577388Y3955491D01*
X2573324Y3951427D01*
X2570226Y3946499D01*
X2568295Y3941064D01*
X2567584Y3934714D01*
X2567584Y3758895D01*
X2568295Y3752545D01*
X2570226Y3747109D01*
X2573324Y3742182D01*
X2577388Y3738118D01*
X2582316Y3735019D01*
X2587752Y3733139D01*
X2594051Y3732377D01*
X2618638Y3732377D01*
X2622296Y3731717D01*
X2625445Y3729786D01*
X2627680Y3726789D01*
X2628900Y3721709D01*
X2631084Y3714394D01*
X2634691Y3707688D01*
X2639517Y3701796D01*
X2645410Y3696970D01*
X2652115Y3693363D01*
X2659430Y3691178D01*
X2667508Y3690365D01*
X2778912Y3690365D01*
X2782773Y3689604D01*
X2786075Y3687419D01*
X2787396Y3686098D01*
X2795422Y3680460D01*
X2804312Y3676294D01*
X2813812Y3673754D01*
G37*
G36*
X982776Y4066336D02*
G01*
X1002131Y4067759D01*
X1021232Y4071010D01*
X1039977Y4076141D01*
X1058113Y4082999D01*
X1075537Y4091635D01*
X1092047Y4101846D01*
X1107440Y4113631D01*
X1121664Y4126890D01*
X1134516Y4141419D01*
X1145946Y4157116D01*
X1155801Y4173829D01*
X1163980Y4191457D01*
X1170432Y4209745D01*
X1175054Y4228592D01*
X1177848Y4247794D01*
X1178814Y4267200D01*
X1177848Y4286605D01*
X1175054Y4305808D01*
X1170432Y4324654D01*
X1163980Y4342942D01*
X1155801Y4360570D01*
X1145946Y4377283D01*
X1134516Y4392980D01*
X1121664Y4407509D01*
X1107440Y4420768D01*
X1092047Y4432554D01*
X1075537Y4442764D01*
X1058113Y4451400D01*
X1039977Y4458258D01*
X1021232Y4463338D01*
X1002131Y4466640D01*
X982776Y4468063D01*
X963371Y4467555D01*
X944067Y4465218D01*
X925118Y4461052D01*
X906678Y4455058D01*
X888847Y4447286D01*
X871880Y4437837D01*
X855929Y4426813D01*
X841095Y4414316D01*
X827532Y4400397D01*
X815390Y4385259D01*
X804722Y4369054D01*
X795731Y4351832D01*
X788416Y4333900D01*
X782828Y4315256D01*
X779119Y4296206D01*
X777240Y4276902D01*
X777240Y4257497D01*
X779119Y4238193D01*
X782828Y4219143D01*
X788416Y4200499D01*
X795731Y4182516D01*
X804722Y4165346D01*
X815390Y4149140D01*
X827532Y4134002D01*
X841095Y4120083D01*
X855929Y4107586D01*
X871880Y4096562D01*
X888847Y4087114D01*
X906678Y4079341D01*
X925118Y4073347D01*
X944067Y4069181D01*
X963371Y4066844D01*
G37*
G36*
X8031276Y4091736D02*
G01*
X8050631Y4093159D01*
X8069732Y4096410D01*
X8088477Y4101541D01*
X8106613Y4108399D01*
X8124037Y4117035D01*
X8140547Y4127246D01*
X8155940Y4139031D01*
X8170164Y4152290D01*
X8183016Y4166819D01*
X8194446Y4182516D01*
X8204301Y4199229D01*
X8212480Y4216857D01*
X8218931Y4235145D01*
X8223554Y4253992D01*
X8226348Y4273194D01*
X8227314Y4292600D01*
X8226348Y4312005D01*
X8223554Y4331208D01*
X8218931Y4350054D01*
X8212480Y4368342D01*
X8204301Y4385970D01*
X8194446Y4402683D01*
X8183016Y4418380D01*
X8170164Y4432909D01*
X8155940Y4446168D01*
X8140547Y4457954D01*
X8124037Y4468164D01*
X8106613Y4476800D01*
X8088477Y4483658D01*
X8069732Y4488738D01*
X8050631Y4492040D01*
X8031276Y4493463D01*
X8011871Y4492955D01*
X7992567Y4490618D01*
X7973618Y4486452D01*
X7955178Y4480458D01*
X7937347Y4472686D01*
X7920380Y4463237D01*
X7904429Y4452213D01*
X7889595Y4439716D01*
X7876031Y4425797D01*
X7863890Y4410659D01*
X7853222Y4394454D01*
X7844231Y4377232D01*
X7836916Y4359300D01*
X7831328Y4340656D01*
X7827619Y4321606D01*
X7825740Y4302302D01*
X7825740Y4282897D01*
X7827619Y4263593D01*
X7831328Y4244543D01*
X7836916Y4225899D01*
X7844231Y4207916D01*
X7853222Y4190746D01*
X7863890Y4174540D01*
X7876031Y4159402D01*
X7889595Y4145483D01*
X7904429Y4132986D01*
X7920380Y4121962D01*
X7937347Y4112514D01*
X7955178Y4104741D01*
X7973618Y4098747D01*
X7992567Y4094581D01*
X8011871Y4092244D01*
G37*

%LPD*%
D10*
X2667000Y1879600D02*
G01*
X1727200Y1879600D01*
X1219200Y2387600D01*
X5741009Y2524709D02*
G01*
X5293004Y2524709D01*
X5170576Y2402281D01*
X2083003Y3448050D02*
G01*
X2483231Y3448050D01*
X2564485Y3366795D01*
X2667000Y3366795D02*
G01*
X2564485Y3366795D01*
X1346200Y1409700D02*
G01*
X2440813Y1409700D01*
X2542413Y1308100D01*
X2667000Y3846804D02*
G01*
X2667000Y3729278D01*
X2667000Y3729278D02*
G01*
X2823616Y3729278D01*
X3657600Y2895295D02*
G01*
X4249953Y2302941D01*
X5291963Y2302941D01*
X5435600Y2159304D01*
X7866557Y3594100D02*
G01*
X7697647Y3763010D01*
X3652621Y3763010D01*
X2785211Y2895600D01*
X7975600Y3594100D02*
G01*
X7866557Y3594100D01*
X2667000Y2895600D02*
G01*
X2785211Y2895600D01*
X2302332Y-660400D02*
G01*
X2302332Y-713028D01*
X2520213Y-930910D01*
X6479870Y-930910D01*
X7829880Y419100D01*
X8021091Y419100D01*
X8095564Y493572D01*
X8095564Y1950135D01*
X7975600Y2070100D01*
X2197100Y-660400D02*
G01*
X2302332Y-660400D01*
X3911600Y2159304D02*
G01*
X3911600Y2123465D01*
X4207713Y1827352D01*
X5932347Y1827352D01*
X6451600Y1308100D01*
X5435600Y2895295D02*
G01*
X5979972Y2895295D01*
X6440474Y2434793D01*
X6500622Y2434793D01*
X6569227Y2366187D01*
X6569227Y1933727D01*
X6451600Y1816100D01*
X6451600Y2324100D02*
G01*
X6087846Y2687853D01*
X4119041Y2687853D01*
X3911600Y2895295D01*
X5181600Y2895295D02*
G01*
X5310809Y3024504D01*
X5980531Y3024504D01*
X6426936Y2578100D01*
X6451600Y2578100D01*
X5181600Y2159304D02*
G01*
X5311520Y2029383D01*
X6410883Y2029383D01*
X6451600Y2070100D01*
X4197705Y1921763D02*
G01*
X6091936Y1921763D01*
X6451600Y1562100D01*
X7975600Y1816100D02*
G01*
X6838899Y679399D01*
X6139306Y679399D01*
X4799507Y-660400D01*
X2451100Y-660400D01*
X4406900Y1562100D02*
G01*
X4152900Y1562100D01*
X6451600Y800100D02*
G01*
X4660900Y800100D01*
X3898900Y1562100D01*
X6451600Y1054100D02*
G01*
X5836742Y1668957D01*
X3751757Y1668957D01*
X3644900Y1562100D01*
X1803400Y76200D02*
G01*
X1925904Y-46304D01*
X3560495Y-46304D01*
X3898900Y292100D01*
X5168900Y1562100D02*
G01*
X4914900Y1562100D01*
X4914900Y1562100D02*
G01*
X4660900Y1562100D01*
X4673600Y2159304D02*
G01*
X4419600Y2159304D01*
X2295779Y1155700D02*
G01*
X2295779Y292100D01*
X1346200Y1155700D02*
G01*
X2295779Y1155700D01*
X2295779Y1155700D02*
G01*
X2690012Y1155700D01*
X2842412Y1308100D01*
X2057400Y76200D02*
G01*
X2273300Y292100D01*
X2295779Y292100D01*
X6451600Y2832100D02*
G01*
X7467600Y2832100D01*
X7975600Y3340100D01*
X2295779Y292100D02*
G01*
X3644900Y292100D01*
X3644900Y292100D02*
G01*
X3763213Y410413D01*
X5050586Y410413D01*
X5168900Y292100D01*
X6250787Y2838653D02*
G01*
X6257340Y2832100D01*
X6451600Y2832100D01*
D11*
G01*
X2667000Y3366795D03*
G01*
X2667000Y3846804D03*
D12*
G01*
X5422900Y292100D03*
G01*
X5168900Y292100D03*
G01*
X4914900Y292100D03*
G01*
X4660900Y292100D03*
G01*
X4406900Y292100D03*
G01*
X4152900Y292100D03*
G01*
X3898900Y292100D03*
G01*
X3644900Y292100D03*
G01*
X3644900Y1562100D03*
G01*
X3898900Y1562100D03*
G01*
X4152900Y1562100D03*
G01*
X4406900Y1562100D03*
G01*
X4660900Y1562100D03*
G01*
X4914900Y1562100D03*
G01*
X5168900Y1562100D03*
D13*
G01*
X5422900Y1562100D03*
D14*
G01*
X6451600Y3594100D03*
D15*
G01*
X7975600Y3340100D03*
G01*
X7975600Y2832100D03*
G01*
X7975600Y2324100D03*
G01*
X7975600Y1816100D03*
G01*
X7975600Y1308100D03*
G01*
X7975600Y800100D03*
G01*
X7975600Y292100D03*
G01*
X6451600Y38100D03*
G01*
X6451600Y546100D03*
G01*
X6451600Y1054100D03*
G01*
X6451600Y1562100D03*
G01*
X6451600Y2070100D03*
G01*
X6451600Y2578100D03*
G01*
X6451600Y3086100D03*
G01*
X6451600Y3340100D03*
G01*
X6451600Y2832100D03*
G01*
X6451600Y2324100D03*
G01*
X6451600Y1816100D03*
G01*
X6451600Y1308100D03*
G01*
X6451600Y800100D03*
G01*
X6451600Y292100D03*
G01*
X7975600Y38100D03*
G01*
X7975600Y546100D03*
G01*
X7975600Y1054100D03*
G01*
X7975600Y1562100D03*
G01*
X7975600Y2070100D03*
G01*
X7975600Y2578100D03*
G01*
X7975600Y3086100D03*
D14*
G01*
X7975600Y3594100D03*
D16*
G01*
X2542413Y1308100D03*
G01*
X2842412Y1308100D03*
D17*
G01*
X1472994Y3448105D03*
D18*
G01*
X1812998Y2978104D03*
D19*
G01*
X2083000Y3448055D03*
D20*
G01*
X3839209Y3632200D03*
D21*
G01*
X4339590Y3632200D03*
D20*
G01*
X5109209Y3632200D03*
D21*
G01*
X5609590Y3632200D03*
D20*
G01*
X5520690Y-711200D03*
D21*
G01*
X5020309Y-711200D03*
D20*
G01*
X3775709Y-800100D03*
D21*
G01*
X4276090Y-800100D03*
D22*
G01*
X1549400Y76200D03*
G01*
X1803400Y76200D03*
G01*
X2057400Y76200D03*
G01*
X2311400Y76200D03*
G01*
X2565400Y76200D03*
G01*
X2819400Y76200D03*
D13*
G01*
X1943100Y-660400D03*
G01*
X1689100Y-660400D03*
G01*
X2197100Y-660400D03*
G01*
X2451100Y-660400D03*
D23*
G01*
X3657600Y2159304D03*
G01*
X3911600Y2159304D03*
G01*
X4165600Y2159304D03*
G01*
X4419600Y2159304D03*
G01*
X4673600Y2159304D03*
G01*
X4927600Y2159304D03*
G01*
X5181600Y2159304D03*
G01*
X5435600Y2159304D03*
G01*
X3657600Y2895295D03*
G01*
X3911600Y2895295D03*
G01*
X4165600Y2895295D03*
G01*
X4419600Y2895295D03*
G01*
X4673600Y2895295D03*
G01*
X4927600Y2895295D03*
G01*
X5181600Y2895295D03*
D24*
G01*
X5435600Y2895295D03*
D25*
G01*
X1219200Y2387600D03*
G01*
X1473200Y2387600D03*
D26*
G01*
X1346200Y1155700D03*
G01*
X1346200Y901700D03*
D27*
G01*
X1346200Y1409700D03*
D28*
G01*
X2667000Y2895600D03*
G01*
X2667000Y1879600D03*
D29*
G01*
X6250787Y2838653D03*
G01*
X4197705Y1921763D03*
G01*
X2823616Y3729278D03*
G01*
X5741009Y2524709D03*
G01*
X5170576Y2402281D03*
M02*
