G04 Layer: TopSolderMaskLayer*
G04 EasyEDA v6.5.34, 2023-08-22 14:58:17*
G04 f83e431953fc400cbb41a7eecddf86f7,363aeda0569944ed908a43946366a132,10*
G04 Gerber Generator version 0.2*
G04 Scale: 100 percent, Rotated: No, Reflected: No *
G04 Dimensions in millimeters *
G04 leading zeros omitted , absolute positions ,4 integer and 5 decimal *
%FSLAX45Y45*%
%MOMM*%

%AMMACRO1*1,1,$1,$2,$3*1,1,$1,$4,$5*1,1,$1,0-$2,0-$3*1,1,$1,0-$4,0-$5*20,1,$1,$2,$3,$4,$5,0*20,1,$1,$4,$5,0-$2,0-$3,0*20,1,$1,0-$2,0-$3,0-$4,0-$5,0*20,1,$1,0-$4,0-$5,$2,$3,0*4,1,4,$2,$3,$4,$5,0-$2,0-$3,0-$4,0-$5,$2,$3,0*%
%AMMACRO2*4,1,8,-0.4115,-0.9931,-0.9931,-0.4115,-0.9931,0.4115,-0.4115,0.9931,0.4115,0.9931,0.9931,0.4115,0.9931,-0.4115,0.4115,-0.9931,-0.4115,-0.9931,0*%
%ADD10C,1.7272*%
%ADD11MACRO1,0.2032X0.762X0.762X0.762X-0.762*%
%ADD12R,1.7016X1.7016*%
%ADD13C,1.7016*%
%ADD14C,1.5032*%
%ADD15MACRO1,0.1016X0.7349X0.8849X0.7349X-0.8849*%
%ADD16MACRO1,0.1016X-0.7349X-0.8849X-0.7349X0.8849*%
%ADD17O,1.6015970000000002X3.7015928000000002*%
%ADD18O,3.7015928000000002X1.6015970000000002*%
%ADD19O,1.6015970000000002X4.2015918*%
%ADD20MACRO1,0.1016X-1.016X1.016X1.016X1.016*%
%ADD21C,2.1336*%
%ADD22MACRO1,0.1016X1.016X-1.016X-1.016X-1.016*%
%ADD23C,1.9016*%
%ADD24MACRO1,0.2032X-0.762X0.762X0.762X0.762*%
%ADD25O,2.2031959999999997X2.2031959999999997*%
%ADD26MACRO1,0.2032X1X-1X-1X-1*%
%ADD27C,2.0000*%
%ADD28O,3.6015930000000003X1.9015964*%
%ADD29MACRO1,0.1016X1.75X0.9X1.75X-0.9*%
%ADD30MACRO2*%

%LPD*%
D10*
G01*
X5422900Y292100D03*
G01*
X5168900Y292100D03*
G01*
X4914900Y292100D03*
G01*
X4660900Y292100D03*
G01*
X4406900Y292100D03*
G01*
X4152900Y292100D03*
G01*
X3898900Y292100D03*
G01*
X3644900Y292100D03*
G01*
X3644900Y1562100D03*
G01*
X3898900Y1562100D03*
G01*
X4152900Y1562100D03*
G01*
X4406900Y1562100D03*
G01*
X4660900Y1562100D03*
G01*
X4914900Y1562100D03*
G01*
X5168900Y1562100D03*
D11*
G01*
X5422900Y1562100D03*
D12*
G01*
X6451600Y3594100D03*
D13*
G01*
X7975600Y3340100D03*
G01*
X7975600Y2832100D03*
G01*
X7975600Y2324100D03*
G01*
X7975600Y1816100D03*
G01*
X7975600Y1308100D03*
G01*
X7975600Y800100D03*
G01*
X7975600Y292100D03*
G01*
X6451600Y38100D03*
G01*
X6451600Y546100D03*
G01*
X6451600Y1054100D03*
G01*
X6451600Y1562100D03*
G01*
X6451600Y2070100D03*
G01*
X6451600Y2578100D03*
G01*
X6451600Y3086100D03*
G01*
X6451600Y3340100D03*
G01*
X6451600Y2832100D03*
G01*
X6451600Y2324100D03*
G01*
X6451600Y1816100D03*
G01*
X6451600Y1308100D03*
G01*
X6451600Y800100D03*
G01*
X6451600Y292100D03*
G01*
X7975600Y38100D03*
G01*
X7975600Y546100D03*
G01*
X7975600Y1054100D03*
G01*
X7975600Y1562100D03*
G01*
X7975600Y2070100D03*
G01*
X7975600Y2578100D03*
G01*
X7975600Y3086100D03*
D12*
G01*
X7975600Y3594100D03*
D14*
G01*
X2542413Y1308100D03*
G01*
X2842412Y1308100D03*
D15*
G01*
X2667000Y3366795D03*
D16*
G01*
X2667000Y3846804D03*
D17*
G01*
X1472994Y3448105D03*
D18*
G01*
X1812998Y2978104D03*
D19*
G01*
X2083000Y3448055D03*
D20*
G01*
X3839209Y3632200D03*
D21*
G01*
X4339590Y3632200D03*
D20*
G01*
X5109209Y3632200D03*
D21*
G01*
X5609590Y3632200D03*
D22*
G01*
X5520690Y-711200D03*
D21*
G01*
X5020309Y-711200D03*
D20*
G01*
X3775709Y-800100D03*
D21*
G01*
X4276090Y-800100D03*
D23*
G01*
X1549400Y76200D03*
G01*
X1803400Y76200D03*
G01*
X2057400Y76200D03*
G01*
X2311400Y76200D03*
G01*
X2565400Y76200D03*
G01*
X2819400Y76200D03*
D24*
G01*
X1943100Y-660400D03*
G01*
X1689100Y-660400D03*
G01*
X2197100Y-660400D03*
G01*
X2451100Y-660400D03*
D25*
G01*
X3657600Y2159304D03*
G01*
X3911600Y2159304D03*
G01*
X4165600Y2159304D03*
G01*
X4419600Y2159304D03*
G01*
X4673600Y2159304D03*
G01*
X4927600Y2159304D03*
G01*
X5181600Y2159304D03*
G01*
X5435600Y2159304D03*
G01*
X3657600Y2895295D03*
G01*
X3911600Y2895295D03*
G01*
X4165600Y2895295D03*
G01*
X4419600Y2895295D03*
G01*
X4673600Y2895295D03*
G01*
X4927600Y2895295D03*
G01*
X5181600Y2895295D03*
D26*
G01*
X5435600Y2895295D03*
D27*
G01*
X1219200Y2387600D03*
G01*
X1473200Y2387600D03*
D28*
G01*
X1346200Y1155700D03*
G01*
X1346200Y901700D03*
D29*
G01*
X1346200Y1409700D03*
D30*
G01*
X2667000Y2895600D03*
G01*
X2667000Y1879600D03*
M02*
