G04 Layer: TopSilkscreenLayer*
G04 EasyEDA v6.5.34, 2023-08-22 14:58:17*
G04 f83e431953fc400cbb41a7eecddf86f7,363aeda0569944ed908a43946366a132,10*
G04 Gerber Generator version 0.2*
G04 Scale: 100 percent, Rotated: No, Reflected: No *
G04 Dimensions in millimeters *
G04 leading zeros omitted , absolute positions ,4 integer and 5 decimal *
%FSLAX45Y45*%
%MOMM*%

%ADD10C,0.1524*%
%ADD11C,0.2032*%
%ADD12C,0.1500*%
%ADD13C,0.2540*%
%ADD14C,0.1520*%
%ADD15C,0.2000*%
%ADD16C,0.2500*%
%ADD17C,0.6000*%
%ADD18C,0.3000*%
%ADD19C,0.0166*%

%LPD*%
G36*
X1448409Y2132685D02*
G01*
X1448409Y2088235D01*
X1407007Y2088235D01*
X1407007Y2075789D01*
X1448409Y2075789D01*
X1448409Y2031085D01*
X1461871Y2031085D01*
X1461871Y2075789D01*
X1503273Y2075789D01*
X1503273Y2088235D01*
X1461871Y2088235D01*
X1461871Y2132685D01*
G37*
D10*
X4677156Y966215D02*
G01*
X4635500Y857250D01*
X4677156Y966215D02*
G01*
X4718558Y857250D01*
X4650993Y893571D02*
G01*
X4703063Y893571D01*
X4804918Y966215D02*
G01*
X4752847Y893571D01*
X4830825Y893571D01*
X4804918Y966215D02*
G01*
X4804918Y857250D01*
X4932679Y929894D02*
G01*
X4927600Y914400D01*
X4917186Y903986D01*
X4901438Y898652D01*
X4896358Y898652D01*
X4880609Y903986D01*
X4870450Y914400D01*
X4865115Y929894D01*
X4865115Y934973D01*
X4870450Y950721D01*
X4880609Y961136D01*
X4896358Y966215D01*
X4901438Y966215D01*
X4917186Y961136D01*
X4927600Y950721D01*
X4932679Y929894D01*
X4932679Y903986D01*
X4927600Y877823D01*
X4917186Y862329D01*
X4901438Y857250D01*
X4891024Y857250D01*
X4875529Y862329D01*
X4870450Y872744D01*
X4992877Y966215D02*
G01*
X4977384Y961136D01*
X4972050Y950721D01*
X4972050Y940307D01*
X4977384Y929894D01*
X4987797Y924560D01*
X5008625Y919479D01*
X5024120Y914400D01*
X5034534Y903986D01*
X5039613Y893571D01*
X5039613Y877823D01*
X5034534Y867410D01*
X5029200Y862329D01*
X5013706Y857250D01*
X4992877Y857250D01*
X4977384Y862329D01*
X4972050Y867410D01*
X4966970Y877823D01*
X4966970Y893571D01*
X4972050Y903986D01*
X4982463Y914400D01*
X4998211Y919479D01*
X5019040Y924560D01*
X5029200Y929894D01*
X5034534Y940307D01*
X5034534Y950721D01*
X5029200Y961136D01*
X5013706Y966215D01*
X4992877Y966215D01*
X5100065Y966215D02*
G01*
X5084318Y961136D01*
X5079238Y950721D01*
X5079238Y940307D01*
X5084318Y929894D01*
X5094731Y924560D01*
X5115559Y919479D01*
X5131054Y914400D01*
X5141468Y903986D01*
X5146802Y893571D01*
X5146802Y877823D01*
X5141468Y867410D01*
X5136388Y862329D01*
X5120640Y857250D01*
X5100065Y857250D01*
X5084318Y862329D01*
X5079238Y867410D01*
X5073904Y877823D01*
X5073904Y893571D01*
X5079238Y903986D01*
X5089652Y914400D01*
X5105145Y919479D01*
X5125974Y924560D01*
X5136388Y929894D01*
X5141468Y940307D01*
X5141468Y950721D01*
X5136388Y961136D01*
X5120640Y966215D01*
X5100065Y966215D01*
D11*
X5741670Y1252728D02*
G01*
X5596381Y1308100D01*
X5741670Y1252728D02*
G01*
X5596381Y1197355D01*
X5644895Y1287271D02*
G01*
X5644895Y1217929D01*
X5741670Y1082294D02*
G01*
X5644895Y1151636D01*
X5644895Y1047750D01*
X5741670Y1082294D02*
G01*
X5596381Y1082294D01*
X5693409Y911860D02*
G01*
X5672581Y918718D01*
X5658611Y932687D01*
X5651754Y953515D01*
X5651754Y960373D01*
X5658611Y981202D01*
X5672581Y994918D01*
X5693409Y1002029D01*
X5700268Y1002029D01*
X5721095Y994918D01*
X5734811Y981202D01*
X5741670Y960373D01*
X5741670Y953515D01*
X5734811Y932687D01*
X5721095Y918718D01*
X5693409Y911860D01*
X5658611Y911860D01*
X5624068Y918718D01*
X5603240Y932687D01*
X5596381Y953515D01*
X5596381Y967231D01*
X5603240Y988060D01*
X5617209Y994918D01*
X5741670Y831595D02*
G01*
X5734811Y852170D01*
X5721095Y859281D01*
X5707125Y859281D01*
X5693409Y852170D01*
X5686297Y838454D01*
X5679440Y810768D01*
X5672581Y789939D01*
X5658611Y775970D01*
X5644895Y769112D01*
X5624068Y769112D01*
X5610097Y775970D01*
X5603240Y783081D01*
X5596381Y803910D01*
X5596381Y831595D01*
X5603240Y852170D01*
X5610097Y859281D01*
X5624068Y866139D01*
X5644895Y866139D01*
X5658611Y859281D01*
X5672581Y845312D01*
X5679440Y824484D01*
X5686297Y796797D01*
X5693409Y783081D01*
X5707125Y775970D01*
X5721095Y775970D01*
X5734811Y783081D01*
X5741670Y803910D01*
X5741670Y831595D01*
X5741670Y688847D02*
G01*
X5734811Y709676D01*
X5721095Y716534D01*
X5707125Y716534D01*
X5693409Y709676D01*
X5686297Y695705D01*
X5679440Y668020D01*
X5672581Y647192D01*
X5658611Y633476D01*
X5644895Y626363D01*
X5624068Y626363D01*
X5610097Y633476D01*
X5603240Y640334D01*
X5596381Y661162D01*
X5596381Y688847D01*
X5603240Y709676D01*
X5610097Y716534D01*
X5624068Y723392D01*
X5644895Y723392D01*
X5658611Y716534D01*
X5672581Y702563D01*
X5679440Y681989D01*
X5686297Y654050D01*
X5693409Y640334D01*
X5707125Y633476D01*
X5721095Y633476D01*
X5734811Y640334D01*
X5741670Y661162D01*
X5741670Y688847D01*
X5547868Y580644D02*
G01*
X5547868Y455929D01*
X5713984Y410210D02*
G01*
X5721095Y396494D01*
X5741670Y375665D01*
X5596381Y375665D01*
X5560059Y1352042D02*
G01*
X5412486Y1435100D01*
X5541772Y1321562D02*
G01*
X5444743Y1321562D01*
X5541772Y1321562D02*
G01*
X5541772Y1261363D01*
X5495543Y1321562D02*
G01*
X5495543Y1284478D01*
X5444743Y1321562D02*
G01*
X5444743Y1261363D01*
X5541772Y1230884D02*
G01*
X5444743Y1230884D01*
X5541772Y1230884D02*
G01*
X5444743Y1166368D01*
X5541772Y1166368D02*
G01*
X5444743Y1166368D01*
X5232400Y1308100D02*
G01*
X5135372Y1308100D01*
X5232400Y1308100D02*
G01*
X5135372Y1271270D01*
X5232400Y1234186D02*
G01*
X5135372Y1271270D01*
X5232400Y1234186D02*
G01*
X5135372Y1234186D01*
X5218684Y1139189D02*
G01*
X5227827Y1148334D01*
X5232400Y1162050D01*
X5232400Y1180592D01*
X5227827Y1194562D01*
X5218684Y1203705D01*
X5209286Y1203705D01*
X5200141Y1199134D01*
X5195570Y1194562D01*
X5190997Y1185163D01*
X5181600Y1157478D01*
X5177027Y1148334D01*
X5172456Y1143762D01*
X5163058Y1139189D01*
X5149341Y1139189D01*
X5140197Y1148334D01*
X5135372Y1162050D01*
X5135372Y1180592D01*
X5140197Y1194562D01*
X5149341Y1203705D01*
X5213858Y1108710D02*
G01*
X5218684Y1099312D01*
X5232400Y1085595D01*
X5135372Y1085595D01*
X4986530Y1308100D02*
G01*
X4889502Y1308100D01*
X4986530Y1308100D02*
G01*
X4889502Y1271270D01*
X4986530Y1234186D02*
G01*
X4889502Y1271270D01*
X4986530Y1234186D02*
G01*
X4889502Y1234186D01*
X4972814Y1139189D02*
G01*
X4981958Y1148334D01*
X4986530Y1162050D01*
X4986530Y1180592D01*
X4981958Y1194562D01*
X4972814Y1203705D01*
X4963416Y1203705D01*
X4954272Y1199134D01*
X4949700Y1194562D01*
X4945128Y1185163D01*
X4935730Y1157478D01*
X4931158Y1148334D01*
X4926586Y1143762D01*
X4917188Y1139189D01*
X4903472Y1139189D01*
X4894328Y1148334D01*
X4889502Y1162050D01*
X4889502Y1180592D01*
X4894328Y1194562D01*
X4903472Y1203705D01*
X4963416Y1103884D02*
G01*
X4967988Y1103884D01*
X4977386Y1099312D01*
X4981958Y1094739D01*
X4986530Y1085595D01*
X4986530Y1067054D01*
X4981958Y1057910D01*
X4977386Y1053084D01*
X4967988Y1048512D01*
X4958844Y1048512D01*
X4949700Y1053084D01*
X4935730Y1062481D01*
X4889502Y1108710D01*
X4889502Y1043939D01*
X4732530Y1308100D02*
G01*
X4635502Y1308100D01*
X4732530Y1308100D02*
G01*
X4635502Y1271270D01*
X4732530Y1234186D02*
G01*
X4635502Y1271270D01*
X4732530Y1234186D02*
G01*
X4635502Y1234186D01*
X4718814Y1139189D02*
G01*
X4727958Y1148334D01*
X4732530Y1162050D01*
X4732530Y1180592D01*
X4727958Y1194562D01*
X4718814Y1203705D01*
X4709416Y1203705D01*
X4700272Y1199134D01*
X4695700Y1194562D01*
X4691128Y1185163D01*
X4681730Y1157478D01*
X4677158Y1148334D01*
X4672586Y1143762D01*
X4663188Y1139189D01*
X4649472Y1139189D01*
X4640328Y1148334D01*
X4635502Y1162050D01*
X4635502Y1180592D01*
X4640328Y1194562D01*
X4649472Y1203705D01*
X4732530Y1099312D02*
G01*
X4732530Y1048512D01*
X4695700Y1076197D01*
X4695700Y1062481D01*
X4691128Y1053084D01*
X4686302Y1048512D01*
X4672586Y1043939D01*
X4663188Y1043939D01*
X4649472Y1048512D01*
X4640328Y1057910D01*
X4635502Y1071626D01*
X4635502Y1085595D01*
X4640328Y1099312D01*
X4644900Y1103884D01*
X4654044Y1108710D01*
X4544059Y1352042D02*
G01*
X4396486Y1435100D01*
X4525772Y1321562D02*
G01*
X4428743Y1321562D01*
X4525772Y1321562D02*
G01*
X4525772Y1279905D01*
X4520945Y1266189D01*
X4516374Y1261363D01*
X4507229Y1256792D01*
X4498086Y1256792D01*
X4488688Y1261363D01*
X4484115Y1266189D01*
X4479543Y1279905D01*
X4479543Y1321562D01*
X4479543Y1289050D02*
G01*
X4428743Y1256792D01*
X4511802Y1161795D02*
G01*
X4520945Y1170939D01*
X4525772Y1184910D01*
X4525772Y1203197D01*
X4520945Y1217168D01*
X4511802Y1226312D01*
X4502658Y1226312D01*
X4493259Y1221739D01*
X4488688Y1217168D01*
X4484115Y1207770D01*
X4474972Y1180084D01*
X4470145Y1170939D01*
X4465574Y1166368D01*
X4456429Y1161795D01*
X4442459Y1161795D01*
X4433315Y1170939D01*
X4428743Y1184910D01*
X4428743Y1203197D01*
X4433315Y1217168D01*
X4442459Y1226312D01*
X4525772Y1098804D02*
G01*
X4428743Y1098804D01*
X4525772Y1131315D02*
G01*
X4525772Y1066545D01*
X4290059Y1352042D02*
G01*
X4142486Y1435100D01*
X4257802Y1256792D02*
G01*
X4266945Y1266189D01*
X4271772Y1279905D01*
X4271772Y1298447D01*
X4266945Y1312163D01*
X4257802Y1321562D01*
X4248658Y1321562D01*
X4239259Y1316989D01*
X4234688Y1312163D01*
X4230115Y1303020D01*
X4220972Y1275334D01*
X4216145Y1266189D01*
X4211574Y1261363D01*
X4202429Y1256792D01*
X4188459Y1256792D01*
X4179315Y1266189D01*
X4174743Y1279905D01*
X4174743Y1298447D01*
X4179315Y1312163D01*
X4188459Y1321562D01*
X4271772Y1226312D02*
G01*
X4174743Y1226312D01*
X4174743Y1226312D02*
G01*
X4174743Y1170939D01*
X4271772Y1140460D02*
G01*
X4174743Y1140460D01*
X4271772Y1140460D02*
G01*
X4271772Y1098804D01*
X4266945Y1085087D01*
X4262374Y1080515D01*
X4253229Y1075689D01*
X4239259Y1075689D01*
X4230115Y1080515D01*
X4225543Y1085087D01*
X4220972Y1098804D01*
X4220972Y1140460D01*
X3956814Y1243329D02*
G01*
X3965958Y1252728D01*
X3970530Y1266444D01*
X3970530Y1284986D01*
X3965958Y1298955D01*
X3956814Y1308100D01*
X3947416Y1308100D01*
X3938272Y1303528D01*
X3933700Y1298955D01*
X3929128Y1289557D01*
X3919730Y1261871D01*
X3915158Y1252728D01*
X3910586Y1248155D01*
X3901188Y1243329D01*
X3887472Y1243329D01*
X3878328Y1252728D01*
X3873502Y1266444D01*
X3873502Y1284986D01*
X3878328Y1298955D01*
X3887472Y1308100D01*
X3970530Y1180592D02*
G01*
X3873502Y1180592D01*
X3970530Y1212850D02*
G01*
X3970530Y1148334D01*
X3970530Y1117854D02*
G01*
X3873502Y1117854D01*
X3970530Y1117854D02*
G01*
X3970530Y1057910D01*
X3924302Y1117854D02*
G01*
X3924302Y1080770D01*
X3873502Y1117854D02*
G01*
X3873502Y1057910D01*
X3970530Y1027429D02*
G01*
X3873502Y1027429D01*
X3970530Y1027429D02*
G01*
X3970530Y985773D01*
X3965958Y971804D01*
X3961386Y967231D01*
X3951988Y962660D01*
X3938272Y962660D01*
X3929128Y967231D01*
X3924302Y971804D01*
X3919730Y985773D01*
X3919730Y1027429D01*
X3716530Y1308100D02*
G01*
X3619502Y1308100D01*
X3716530Y1308100D02*
G01*
X3716530Y1275842D01*
X3711958Y1261871D01*
X3702814Y1252728D01*
X3693416Y1248155D01*
X3679700Y1243329D01*
X3656586Y1243329D01*
X3642616Y1248155D01*
X3633472Y1252728D01*
X3624328Y1261871D01*
X3619502Y1275842D01*
X3619502Y1308100D01*
X3716530Y1212850D02*
G01*
X3619502Y1212850D01*
X3716530Y1182370D02*
G01*
X3619502Y1182370D01*
X3716530Y1182370D02*
G01*
X3716530Y1140968D01*
X3711958Y1126997D01*
X3707386Y1122426D01*
X3697988Y1117854D01*
X3688844Y1117854D01*
X3679700Y1122426D01*
X3675128Y1126997D01*
X3670302Y1140968D01*
X3670302Y1182370D01*
X3670302Y1150112D02*
G01*
X3619502Y1117854D01*
X5494530Y863600D02*
G01*
X5397502Y826770D01*
X5494530Y789686D02*
G01*
X5397502Y826770D01*
X5462272Y759205D02*
G01*
X5397502Y759205D01*
X5443730Y759205D02*
G01*
X5457700Y745489D01*
X5462272Y736092D01*
X5462272Y722376D01*
X5457700Y712978D01*
X5443730Y708405D01*
X5397502Y708405D01*
X5443730Y708405D02*
G01*
X5457700Y694689D01*
X5462272Y685292D01*
X5462272Y671576D01*
X5457700Y662178D01*
X5443730Y657605D01*
X5397502Y657605D01*
X5462272Y604012D02*
G01*
X5457700Y613410D01*
X5448302Y622554D01*
X5434586Y627126D01*
X5425188Y627126D01*
X5411472Y622554D01*
X5402328Y613410D01*
X5397502Y604012D01*
X5397502Y590295D01*
X5402328Y580897D01*
X5411472Y571754D01*
X5425188Y567181D01*
X5434586Y567181D01*
X5448302Y571754D01*
X5457700Y580897D01*
X5462272Y590295D01*
X5462272Y604012D01*
X5494530Y522731D02*
G01*
X5416044Y522731D01*
X5402328Y518160D01*
X5397502Y509015D01*
X5397502Y499618D01*
X5462272Y536702D02*
G01*
X5462272Y504189D01*
X5217413Y730757D02*
G01*
X5226811Y735329D01*
X5235956Y744728D01*
X5240527Y753871D01*
X5240527Y772413D01*
X5235956Y781557D01*
X5226811Y790955D01*
X5217413Y795528D01*
X5203697Y800100D01*
X5180584Y800100D01*
X5166613Y795528D01*
X5157470Y790955D01*
X5148325Y781557D01*
X5143500Y772413D01*
X5143500Y753871D01*
X5148325Y744728D01*
X5157470Y735329D01*
X5166613Y730757D01*
X5180584Y730757D01*
X5180584Y753871D02*
G01*
X5180584Y730757D01*
X5240527Y700278D02*
G01*
X5143500Y700278D01*
X5240527Y700278D02*
G01*
X5143500Y635762D01*
X5240527Y635762D02*
G01*
X5143500Y635762D01*
X5240527Y605281D02*
G01*
X5143500Y605281D01*
X5240527Y605281D02*
G01*
X5240527Y572770D01*
X5235956Y559054D01*
X5226811Y549910D01*
X5217413Y545084D01*
X5203697Y540512D01*
X5180584Y540512D01*
X5166613Y545084D01*
X5157470Y549910D01*
X5148325Y559054D01*
X5143500Y572770D01*
X5143500Y605281D01*
X4963416Y732028D02*
G01*
X4967988Y732028D01*
X4977386Y727455D01*
X4981958Y722629D01*
X4986530Y713486D01*
X4986530Y694944D01*
X4981958Y685800D01*
X4977386Y681228D01*
X4967988Y676655D01*
X4958844Y676655D01*
X4949700Y681228D01*
X4935730Y690371D01*
X4889502Y736600D01*
X4889502Y671829D01*
X4986530Y641350D02*
G01*
X4889502Y641350D01*
X4986530Y641350D02*
G01*
X4986530Y599947D01*
X4981958Y585978D01*
X4977386Y581405D01*
X4967988Y576834D01*
X4958844Y576834D01*
X4949700Y581405D01*
X4945128Y585978D01*
X4940302Y599947D01*
X4940302Y641350D02*
G01*
X4940302Y599947D01*
X4935730Y585978D01*
X4931158Y581405D01*
X4922014Y576834D01*
X4908044Y576834D01*
X4898900Y581405D01*
X4894328Y585978D01*
X4889502Y599947D01*
X4889502Y641350D01*
X4709416Y732028D02*
G01*
X4713988Y732028D01*
X4723386Y727455D01*
X4727958Y722629D01*
X4732530Y713486D01*
X4732530Y694944D01*
X4727958Y685800D01*
X4723386Y681228D01*
X4713988Y676655D01*
X4704844Y676655D01*
X4695700Y681228D01*
X4681730Y690371D01*
X4635502Y736600D01*
X4635502Y671829D01*
X4732530Y604520D02*
G01*
X4635502Y641350D01*
X4732530Y604520D02*
G01*
X4635502Y567689D01*
X4668014Y627634D02*
G01*
X4668014Y581405D01*
X4459988Y673100D02*
G01*
X4464814Y663955D01*
X4478530Y649986D01*
X4381502Y649986D01*
X4478530Y582676D02*
G01*
X4381502Y619505D01*
X4478530Y582676D02*
G01*
X4381502Y545592D01*
X4414014Y605789D02*
G01*
X4414014Y559562D01*
X4205988Y673100D02*
G01*
X4210814Y663955D01*
X4224530Y649986D01*
X4127502Y649986D01*
X4224530Y619505D02*
G01*
X4127502Y619505D01*
X4224530Y619505D02*
G01*
X4224530Y577850D01*
X4219958Y564134D01*
X4215386Y559562D01*
X4205988Y554989D01*
X4196844Y554989D01*
X4187700Y559562D01*
X4183128Y564134D01*
X4178302Y577850D01*
X4178302Y619505D02*
G01*
X4178302Y577850D01*
X4173730Y564134D01*
X4169158Y559562D01*
X4160014Y554989D01*
X4146044Y554989D01*
X4136900Y559562D01*
X4132328Y564134D01*
X4127502Y577850D01*
X4127502Y619505D01*
X4017772Y800100D02*
G01*
X3920743Y763270D01*
X4017772Y726186D02*
G01*
X3920743Y763270D01*
X3971543Y640334D02*
G01*
X3980688Y649478D01*
X3985259Y658876D01*
X3985259Y672592D01*
X3980688Y681989D01*
X3971543Y691134D01*
X3957574Y695705D01*
X3948429Y695705D01*
X3934459Y691134D01*
X3925315Y681989D01*
X3920743Y672592D01*
X3920743Y658876D01*
X3925315Y649478D01*
X3934459Y640334D01*
X3971543Y554481D02*
G01*
X3980688Y563626D01*
X3985259Y572770D01*
X3985259Y586739D01*
X3980688Y595884D01*
X3971543Y605281D01*
X3957574Y609854D01*
X3948429Y609854D01*
X3934459Y605281D01*
X3925315Y595884D01*
X3920743Y586739D01*
X3920743Y572770D01*
X3925315Y563626D01*
X3934459Y554481D01*
X3693416Y730757D02*
G01*
X3702814Y735329D01*
X3711958Y744728D01*
X3716530Y753871D01*
X3716530Y772413D01*
X3711958Y781557D01*
X3702814Y790955D01*
X3693416Y795528D01*
X3679700Y800100D01*
X3656586Y800100D01*
X3642616Y795528D01*
X3633472Y790955D01*
X3624328Y781557D01*
X3619502Y772413D01*
X3619502Y753871D01*
X3624328Y744728D01*
X3633472Y735329D01*
X3642616Y730757D01*
X3656586Y730757D01*
X3656586Y753871D02*
G01*
X3656586Y730757D01*
X3716530Y700278D02*
G01*
X3619502Y700278D01*
X3716530Y700278D02*
G01*
X3619502Y635762D01*
X3716530Y635762D02*
G01*
X3619502Y635762D01*
X3716530Y605281D02*
G01*
X3619502Y605281D01*
X3716530Y605281D02*
G01*
X3716530Y572770D01*
X3711958Y559054D01*
X3702814Y549910D01*
X3693416Y545084D01*
X3679700Y540512D01*
X3656586Y540512D01*
X3642616Y545084D01*
X3633472Y549910D01*
X3624328Y559054D01*
X3619502Y572770D01*
X3619502Y605281D01*
D10*
X6158484Y1781555D02*
G01*
X6267450Y1739900D01*
X6158484Y1781555D02*
G01*
X6267450Y1822957D01*
X6231127Y1755394D02*
G01*
X6231127Y1807463D01*
X6158484Y1857247D02*
G01*
X6267450Y1857247D01*
X6158484Y1857247D02*
G01*
X6158484Y1903984D01*
X6163563Y1919731D01*
X6168897Y1924812D01*
X6179311Y1930145D01*
X6189725Y1930145D01*
X6200140Y1924812D01*
X6205220Y1919731D01*
X6210300Y1903984D01*
X6210300Y1857247D01*
X6210300Y1893570D02*
G01*
X6267450Y1930145D01*
X6158484Y1964436D02*
G01*
X6267450Y1964436D01*
X6158484Y1964436D02*
G01*
X6158484Y2000757D01*
X6163563Y2016252D01*
X6173977Y2026665D01*
X6184391Y2032000D01*
X6200140Y2037079D01*
X6226047Y2037079D01*
X6241541Y2032000D01*
X6251956Y2026665D01*
X6262370Y2016252D01*
X6267450Y2000757D01*
X6267450Y1964436D01*
X6158484Y2071370D02*
G01*
X6236461Y2071370D01*
X6251956Y2076450D01*
X6262370Y2086863D01*
X6267450Y2102612D01*
X6267450Y2113026D01*
X6262370Y2128520D01*
X6251956Y2138934D01*
X6236461Y2144013D01*
X6158484Y2144013D01*
X6158484Y2178304D02*
G01*
X6267450Y2178304D01*
X6158484Y2212594D02*
G01*
X6267450Y2212594D01*
X6158484Y2212594D02*
G01*
X6267450Y2285492D01*
X6158484Y2285492D02*
G01*
X6267450Y2285492D01*
X6158484Y2350770D02*
G01*
X6163563Y2340610D01*
X6173977Y2330195D01*
X6184391Y2324862D01*
X6200140Y2319781D01*
X6226047Y2319781D01*
X6241541Y2324862D01*
X6251956Y2330195D01*
X6262370Y2340610D01*
X6267450Y2350770D01*
X6267450Y2371597D01*
X6262370Y2382012D01*
X6251956Y2392426D01*
X6241541Y2397760D01*
X6226047Y2402839D01*
X6200140Y2402839D01*
X6184391Y2397760D01*
X6173977Y2392426D01*
X6163563Y2382012D01*
X6158484Y2371597D01*
X6158484Y2350770D01*
X6304025Y2437129D02*
G01*
X6304025Y2530602D01*
X6158484Y2564892D02*
G01*
X6267450Y2564892D01*
X6158484Y2564892D02*
G01*
X6267450Y2637789D01*
X6158484Y2637789D02*
G01*
X6267450Y2637789D01*
X6158484Y2713481D02*
G01*
X6267450Y2672079D01*
X6158484Y2713481D02*
G01*
X6267450Y2755137D01*
X6231127Y2687573D02*
G01*
X6231127Y2739389D01*
X6158484Y2789428D02*
G01*
X6267450Y2789428D01*
X6158484Y2789428D02*
G01*
X6267450Y2862071D01*
X6158484Y2862071D02*
G01*
X6267450Y2862071D01*
X6158484Y2927604D02*
G01*
X6163563Y2917189D01*
X6173977Y2906776D01*
X6184391Y2901695D01*
X6200140Y2896362D01*
X6226047Y2896362D01*
X6241541Y2901695D01*
X6251956Y2906776D01*
X6262370Y2917189D01*
X6267450Y2927604D01*
X6267450Y2948431D01*
X6262370Y2958845D01*
X6251956Y2969260D01*
X6241541Y2974339D01*
X6226047Y2979420D01*
X6200140Y2979420D01*
X6184391Y2974339D01*
X6173977Y2969260D01*
X6163563Y2958845D01*
X6158484Y2948431D01*
X6158484Y2927604D01*
D12*
X7812605Y-7937D02*
G01*
X7812605Y87566D01*
X7812605Y-7937D02*
G01*
X7780855Y-7937D01*
X7767139Y-3365D01*
X7757995Y5524D01*
X7753423Y14668D01*
X7748851Y28384D01*
X7748851Y50990D01*
X7753423Y64706D01*
X7757995Y73850D01*
X7767139Y82994D01*
X7780855Y87566D01*
X7812605Y87566D01*
X7718879Y10096D02*
G01*
X7709989Y5524D01*
X7696273Y-7937D01*
X7696273Y87566D01*
X7657157Y-7937D02*
G01*
X7607119Y-7937D01*
X7634297Y28384D01*
X7620835Y28384D01*
X7611691Y32956D01*
X7607119Y37528D01*
X7602547Y50990D01*
X7602547Y60134D01*
X7607119Y73850D01*
X7616263Y82994D01*
X7629979Y87566D01*
X7643441Y87566D01*
X7657157Y82994D01*
X7661729Y78422D01*
X7666301Y69278D01*
X7803466Y246057D02*
G01*
X7753428Y246057D01*
X7780860Y282379D01*
X7767144Y282379D01*
X7758000Y286951D01*
X7753428Y291523D01*
X7748856Y304985D01*
X7748856Y314129D01*
X7753428Y327845D01*
X7762572Y336989D01*
X7776288Y341561D01*
X7790004Y341561D01*
X7803466Y336989D01*
X7808038Y332417D01*
X7812610Y323273D01*
X7718884Y246057D02*
G01*
X7682562Y341561D01*
X7646240Y246057D02*
G01*
X7682562Y341561D01*
X7607124Y246057D02*
G01*
X7557086Y246057D01*
X7584518Y282379D01*
X7570802Y282379D01*
X7561658Y286951D01*
X7557086Y291523D01*
X7552514Y304985D01*
X7552514Y314129D01*
X7557086Y327845D01*
X7566230Y336989D01*
X7579946Y341561D01*
X7593408Y341561D01*
X7607124Y336989D01*
X7611696Y332417D01*
X7616268Y323273D01*
X7812610Y500057D02*
G01*
X7812610Y595561D01*
X7812610Y500057D02*
G01*
X7771716Y500057D01*
X7758000Y504629D01*
X7753428Y509201D01*
X7748856Y518091D01*
X7748856Y527235D01*
X7753428Y536379D01*
X7758000Y540951D01*
X7771716Y545523D01*
X7812610Y545523D01*
X7780860Y545523D02*
G01*
X7748856Y595561D01*
X7718884Y500057D02*
G01*
X7718884Y595561D01*
X7718884Y500057D02*
G01*
X7659956Y500057D01*
X7718884Y545523D02*
G01*
X7682562Y545523D01*
X7718884Y595561D02*
G01*
X7659956Y595561D01*
X7629984Y500057D02*
G01*
X7629984Y595561D01*
X7629984Y500057D02*
G01*
X7570802Y500057D01*
X7629984Y545523D02*
G01*
X7593408Y545523D01*
X7776286Y754059D02*
G01*
X7812608Y849563D01*
X7776286Y754059D02*
G01*
X7739964Y849563D01*
X7798892Y817559D02*
G01*
X7753426Y817559D01*
X7682560Y754059D02*
G01*
X7696276Y758631D01*
X7705420Y772093D01*
X7709992Y794953D01*
X7709992Y808415D01*
X7705420Y831275D01*
X7696276Y844991D01*
X7682560Y849563D01*
X7673416Y849563D01*
X7659954Y844991D01*
X7650810Y831275D01*
X7646238Y808415D01*
X7646238Y794953D01*
X7650810Y772093D01*
X7659954Y758631D01*
X7673416Y754059D01*
X7682560Y754059D01*
X7776288Y1008057D02*
G01*
X7812610Y1103561D01*
X7776288Y1008057D02*
G01*
X7739966Y1103561D01*
X7798894Y1071557D02*
G01*
X7753428Y1071557D01*
X7709994Y1026091D02*
G01*
X7700850Y1021519D01*
X7687134Y1008057D01*
X7687134Y1103561D01*
X7776286Y1262059D02*
G01*
X7812608Y1357563D01*
X7776286Y1262059D02*
G01*
X7739964Y1357563D01*
X7798892Y1325559D02*
G01*
X7753426Y1325559D01*
X7705420Y1284665D02*
G01*
X7705420Y1280093D01*
X7700848Y1271203D01*
X7696276Y1266631D01*
X7687132Y1262059D01*
X7669098Y1262059D01*
X7659954Y1266631D01*
X7655382Y1271203D01*
X7650810Y1280093D01*
X7650810Y1289237D01*
X7655382Y1298381D01*
X7664526Y1312097D01*
X7709992Y1357563D01*
X7646238Y1357563D01*
X7776286Y1516059D02*
G01*
X7812608Y1611563D01*
X7776286Y1516059D02*
G01*
X7739964Y1611563D01*
X7798892Y1579559D02*
G01*
X7753426Y1579559D01*
X7700848Y1516059D02*
G01*
X7650810Y1516059D01*
X7677988Y1552381D01*
X7664526Y1552381D01*
X7655382Y1556953D01*
X7650810Y1561525D01*
X7646238Y1574987D01*
X7646238Y1584131D01*
X7650810Y1597847D01*
X7659954Y1606991D01*
X7673416Y1611563D01*
X7687132Y1611563D01*
X7700848Y1606991D01*
X7705420Y1602419D01*
X7709992Y1593275D01*
X7776283Y1770062D02*
G01*
X7812605Y1865566D01*
X7776283Y1770062D02*
G01*
X7739961Y1865566D01*
X7798889Y1833562D02*
G01*
X7753423Y1833562D01*
X7664523Y1770062D02*
G01*
X7709989Y1833562D01*
X7641663Y1833562D01*
X7664523Y1770062D02*
G01*
X7664523Y1865566D01*
X7776286Y2024059D02*
G01*
X7812608Y2119563D01*
X7776286Y2024059D02*
G01*
X7739964Y2119563D01*
X7798892Y2087559D02*
G01*
X7753426Y2087559D01*
X7655382Y2024059D02*
G01*
X7700848Y2024059D01*
X7705420Y2064953D01*
X7700848Y2060381D01*
X7687132Y2055809D01*
X7673416Y2055809D01*
X7659954Y2060381D01*
X7650810Y2069525D01*
X7646238Y2082987D01*
X7646238Y2092131D01*
X7650810Y2105847D01*
X7659954Y2114991D01*
X7673416Y2119563D01*
X7687132Y2119563D01*
X7700848Y2114991D01*
X7705420Y2110419D01*
X7709992Y2101275D01*
X7776283Y2278062D02*
G01*
X7812605Y2373566D01*
X7776283Y2278062D02*
G01*
X7739961Y2373566D01*
X7798889Y2341562D02*
G01*
X7753423Y2341562D01*
X7655379Y2291524D02*
G01*
X7659951Y2282634D01*
X7673413Y2278062D01*
X7682557Y2278062D01*
X7696273Y2282634D01*
X7705417Y2296096D01*
X7709989Y2318956D01*
X7709989Y2341562D01*
X7705417Y2359850D01*
X7696273Y2368994D01*
X7682557Y2373566D01*
X7677985Y2373566D01*
X7664523Y2368994D01*
X7655379Y2359850D01*
X7650807Y2346134D01*
X7650807Y2341562D01*
X7655379Y2328100D01*
X7664523Y2318956D01*
X7677985Y2314384D01*
X7682557Y2314384D01*
X7696273Y2318956D01*
X7705417Y2328100D01*
X7709989Y2341562D01*
X7776286Y2532059D02*
G01*
X7812608Y2627563D01*
X7776286Y2532059D02*
G01*
X7739964Y2627563D01*
X7798892Y2595559D02*
G01*
X7753426Y2595559D01*
X7646238Y2532059D02*
G01*
X7691704Y2627563D01*
X7709992Y2532059D02*
G01*
X7646238Y2532059D01*
X7757998Y2786059D02*
G01*
X7803464Y2786059D01*
X7808036Y2826953D01*
X7803464Y2822381D01*
X7790002Y2817809D01*
X7776286Y2817809D01*
X7762570Y2822381D01*
X7753426Y2831525D01*
X7748854Y2844987D01*
X7748854Y2854131D01*
X7753426Y2867847D01*
X7762570Y2876991D01*
X7776286Y2881563D01*
X7790002Y2881563D01*
X7803464Y2876991D01*
X7808036Y2872419D01*
X7812608Y2863275D01*
X7718882Y2786059D02*
G01*
X7682560Y2881563D01*
X7646238Y2786059D02*
G01*
X7682560Y2881563D01*
X7812610Y3040057D02*
G01*
X7812610Y3135561D01*
X7812610Y3040057D02*
G01*
X7771716Y3040057D01*
X7758000Y3044629D01*
X7753428Y3049201D01*
X7748856Y3058091D01*
X7748856Y3067235D01*
X7753428Y3076379D01*
X7758000Y3080951D01*
X7771716Y3085523D01*
X7812610Y3085523D01*
X7780860Y3085523D02*
G01*
X7748856Y3135561D01*
X7655384Y3053519D02*
G01*
X7664528Y3044629D01*
X7677990Y3040057D01*
X7696278Y3040057D01*
X7709994Y3044629D01*
X7718884Y3053519D01*
X7718884Y3062663D01*
X7714312Y3071807D01*
X7709994Y3076379D01*
X7700850Y3080951D01*
X7673418Y3090095D01*
X7664528Y3094413D01*
X7659956Y3098985D01*
X7655384Y3108129D01*
X7655384Y3121845D01*
X7664528Y3130989D01*
X7677990Y3135561D01*
X7696278Y3135561D01*
X7709994Y3130989D01*
X7718884Y3121845D01*
X7593408Y3040057D02*
G01*
X7593408Y3135561D01*
X7625412Y3040057D02*
G01*
X7561658Y3040057D01*
X7744536Y3316665D02*
G01*
X7748854Y3307521D01*
X7757998Y3298631D01*
X7767142Y3294059D01*
X7785430Y3294059D01*
X7794320Y3298631D01*
X7803464Y3307521D01*
X7808036Y3316665D01*
X7812608Y3330381D01*
X7812608Y3352987D01*
X7808036Y3366703D01*
X7803464Y3375847D01*
X7794320Y3384991D01*
X7785430Y3389563D01*
X7767142Y3389563D01*
X7757998Y3384991D01*
X7748854Y3375847D01*
X7744536Y3366703D01*
X7744536Y3352987D01*
X7767142Y3352987D02*
G01*
X7744536Y3352987D01*
X7714310Y3294059D02*
G01*
X7714310Y3389563D01*
X7714310Y3294059D02*
G01*
X7650810Y3389563D01*
X7650810Y3294059D02*
G01*
X7650810Y3389563D01*
X7620838Y3294059D02*
G01*
X7620838Y3389563D01*
X7620838Y3294059D02*
G01*
X7589088Y3294059D01*
X7575372Y3298631D01*
X7566228Y3307521D01*
X7561656Y3316665D01*
X7557084Y3330381D01*
X7557084Y3352987D01*
X7561656Y3366703D01*
X7566228Y3375847D01*
X7575372Y3384991D01*
X7589088Y3389563D01*
X7620838Y3389563D01*
X7812605Y3548062D02*
G01*
X7776283Y3643566D01*
X7739961Y3548062D02*
G01*
X7776283Y3643566D01*
X7709989Y3548062D02*
G01*
X7709989Y3643566D01*
X7679763Y3548062D02*
G01*
X7679763Y3643566D01*
X7679763Y3548062D02*
G01*
X7616263Y3643566D01*
X7616263Y3548062D02*
G01*
X7616263Y3643566D01*
X6823707Y-9941D02*
G01*
X6823707Y85562D01*
X6823707Y-9941D02*
G01*
X6791957Y-9941D01*
X6778241Y-5369D01*
X6769097Y3520D01*
X6764525Y12664D01*
X6759953Y26380D01*
X6759953Y48986D01*
X6764525Y62702D01*
X6769097Y71846D01*
X6778241Y80990D01*
X6791957Y85562D01*
X6823707Y85562D01*
X6729981Y8092D02*
G01*
X6721091Y3520D01*
X6707375Y-9941D01*
X6707375Y85562D01*
X6672831Y12664D02*
G01*
X6672831Y8092D01*
X6668259Y-797D01*
X6663687Y-5369D01*
X6654543Y-9941D01*
X6636509Y-9941D01*
X6627365Y-5369D01*
X6622793Y-797D01*
X6618221Y8092D01*
X6618221Y17236D01*
X6622793Y26380D01*
X6631937Y40096D01*
X6677403Y85562D01*
X6613649Y85562D01*
X6782813Y244055D02*
G01*
X6782813Y339559D01*
X6782813Y244055D02*
G01*
X6751063Y244055D01*
X6737347Y248627D01*
X6728203Y257517D01*
X6723631Y266661D01*
X6719059Y280377D01*
X6719059Y302983D01*
X6723631Y316699D01*
X6728203Y325843D01*
X6737347Y334987D01*
X6751063Y339559D01*
X6782813Y339559D01*
X6689087Y262089D02*
G01*
X6680197Y257517D01*
X6666481Y244055D01*
X6666481Y339559D01*
X6636509Y262089D02*
G01*
X6627365Y257517D01*
X6613649Y244055D01*
X6613649Y339559D01*
X6823707Y498058D02*
G01*
X6823707Y593562D01*
X6823707Y498058D02*
G01*
X6791957Y498058D01*
X6778241Y502630D01*
X6769097Y511520D01*
X6764525Y520664D01*
X6759953Y534380D01*
X6759953Y556986D01*
X6764525Y570702D01*
X6769097Y579846D01*
X6778241Y588990D01*
X6791957Y593562D01*
X6823707Y593562D01*
X6729981Y516092D02*
G01*
X6721091Y511520D01*
X6707375Y498058D01*
X6707375Y593562D01*
X6649971Y498058D02*
G01*
X6663687Y502630D01*
X6672831Y516092D01*
X6677403Y538952D01*
X6677403Y552414D01*
X6672831Y575274D01*
X6663687Y588990D01*
X6649971Y593562D01*
X6641081Y593562D01*
X6627365Y588990D01*
X6618221Y575274D01*
X6613649Y552414D01*
X6613649Y538952D01*
X6618221Y516092D01*
X6627365Y502630D01*
X6641081Y498058D01*
X6649971Y498058D01*
X6766303Y752058D02*
G01*
X6766303Y847562D01*
X6766303Y752058D02*
G01*
X6734553Y752058D01*
X6720837Y756630D01*
X6711693Y765520D01*
X6707121Y774664D01*
X6702549Y788380D01*
X6702549Y810986D01*
X6707121Y824702D01*
X6711693Y833846D01*
X6720837Y842990D01*
X6734553Y847562D01*
X6766303Y847562D01*
X6613649Y783808D02*
G01*
X6618221Y797524D01*
X6627111Y806414D01*
X6640827Y810986D01*
X6645399Y810986D01*
X6659115Y806414D01*
X6668005Y797524D01*
X6672577Y783808D01*
X6672577Y779236D01*
X6668005Y765520D01*
X6659115Y756630D01*
X6645399Y752058D01*
X6640827Y752058D01*
X6627111Y756630D01*
X6618221Y765520D01*
X6613649Y783808D01*
X6613649Y806414D01*
X6618221Y829274D01*
X6627111Y842990D01*
X6640827Y847562D01*
X6649971Y847562D01*
X6663687Y842990D01*
X6668005Y833846D01*
X6770875Y1006055D02*
G01*
X6770875Y1101559D01*
X6770875Y1006055D02*
G01*
X6739125Y1006055D01*
X6725409Y1010627D01*
X6716265Y1019517D01*
X6711693Y1028661D01*
X6707121Y1042377D01*
X6707121Y1064983D01*
X6711693Y1078699D01*
X6716265Y1087843D01*
X6725409Y1096987D01*
X6739125Y1101559D01*
X6770875Y1101559D01*
X6654543Y1006055D02*
G01*
X6668259Y1010627D01*
X6672577Y1019517D01*
X6672577Y1028661D01*
X6668259Y1037805D01*
X6659115Y1042377D01*
X6640827Y1046949D01*
X6627365Y1051521D01*
X6618221Y1060411D01*
X6613649Y1069555D01*
X6613649Y1083271D01*
X6618221Y1092415D01*
X6622793Y1096987D01*
X6636255Y1101559D01*
X6654543Y1101559D01*
X6668259Y1096987D01*
X6672577Y1092415D01*
X6677149Y1083271D01*
X6677149Y1069555D01*
X6672577Y1060411D01*
X6663687Y1051521D01*
X6649971Y1046949D01*
X6631683Y1042377D01*
X6622793Y1037805D01*
X6618221Y1028661D01*
X6618221Y1019517D01*
X6622793Y1010627D01*
X6636255Y1006055D01*
X6654543Y1006055D01*
X6770875Y1260058D02*
G01*
X6770875Y1355562D01*
X6770875Y1260058D02*
G01*
X6739125Y1260058D01*
X6725409Y1264630D01*
X6716265Y1273520D01*
X6711693Y1282664D01*
X6707121Y1296380D01*
X6707121Y1318986D01*
X6711693Y1332702D01*
X6716265Y1341846D01*
X6725409Y1350990D01*
X6739125Y1355562D01*
X6770875Y1355562D01*
X6613649Y1260058D02*
G01*
X6659115Y1355562D01*
X6677149Y1260058D02*
G01*
X6613649Y1260058D01*
X6766303Y1514058D02*
G01*
X6766303Y1609562D01*
X6766303Y1514058D02*
G01*
X6734553Y1514058D01*
X6720837Y1518630D01*
X6711693Y1527520D01*
X6707121Y1536664D01*
X6702549Y1550380D01*
X6702549Y1572986D01*
X6707121Y1586702D01*
X6711693Y1595846D01*
X6720837Y1604990D01*
X6734553Y1609562D01*
X6766303Y1609562D01*
X6618221Y1527520D02*
G01*
X6622793Y1518630D01*
X6636255Y1514058D01*
X6645399Y1514058D01*
X6659115Y1518630D01*
X6668005Y1532092D01*
X6672577Y1554952D01*
X6672577Y1577558D01*
X6668005Y1595846D01*
X6659115Y1604990D01*
X6645399Y1609562D01*
X6640827Y1609562D01*
X6627111Y1604990D01*
X6618221Y1595846D01*
X6613649Y1582130D01*
X6613649Y1577558D01*
X6618221Y1564096D01*
X6627111Y1554952D01*
X6640827Y1550380D01*
X6645399Y1550380D01*
X6659115Y1554952D01*
X6668005Y1564096D01*
X6672577Y1577558D01*
X6770875Y1768055D02*
G01*
X6770875Y1863559D01*
X6770875Y1768055D02*
G01*
X6739125Y1768055D01*
X6725409Y1772627D01*
X6716265Y1781517D01*
X6711693Y1790661D01*
X6707121Y1804377D01*
X6707121Y1826983D01*
X6711693Y1840699D01*
X6716265Y1849843D01*
X6725409Y1858987D01*
X6739125Y1863559D01*
X6770875Y1863559D01*
X6622793Y1768055D02*
G01*
X6668259Y1768055D01*
X6672577Y1808949D01*
X6668259Y1804377D01*
X6654543Y1799805D01*
X6640827Y1799805D01*
X6627365Y1804377D01*
X6618221Y1813521D01*
X6613649Y1826983D01*
X6613649Y1836127D01*
X6618221Y1849843D01*
X6627365Y1858987D01*
X6640827Y1863559D01*
X6654543Y1863559D01*
X6668259Y1858987D01*
X6672577Y1854415D01*
X6677149Y1845271D01*
X6775447Y2022058D02*
G01*
X6775447Y2117562D01*
X6775447Y2022058D02*
G01*
X6743697Y2022058D01*
X6729981Y2026630D01*
X6720837Y2035520D01*
X6716265Y2044664D01*
X6711693Y2058380D01*
X6711693Y2080986D01*
X6716265Y2094702D01*
X6720837Y2103846D01*
X6729981Y2112990D01*
X6743697Y2117562D01*
X6775447Y2117562D01*
X6636255Y2022058D02*
G01*
X6681721Y2085558D01*
X6613649Y2085558D01*
X6636255Y2022058D02*
G01*
X6636255Y2117562D01*
X6770875Y2276058D02*
G01*
X6770875Y2371562D01*
X6770875Y2276058D02*
G01*
X6739125Y2276058D01*
X6725409Y2280630D01*
X6716265Y2289520D01*
X6711693Y2298664D01*
X6707121Y2312380D01*
X6707121Y2334986D01*
X6711693Y2348702D01*
X6716265Y2357846D01*
X6725409Y2366990D01*
X6739125Y2371562D01*
X6770875Y2371562D01*
X6668259Y2276058D02*
G01*
X6618221Y2276058D01*
X6645399Y2312380D01*
X6631683Y2312380D01*
X6622793Y2316952D01*
X6618221Y2321524D01*
X6613649Y2334986D01*
X6613649Y2344130D01*
X6618221Y2357846D01*
X6627365Y2366990D01*
X6640827Y2371562D01*
X6654543Y2371562D01*
X6668259Y2366990D01*
X6672577Y2362418D01*
X6677149Y2353274D01*
X6770875Y2530055D02*
G01*
X6770875Y2625559D01*
X6770875Y2530055D02*
G01*
X6739125Y2530055D01*
X6725409Y2534627D01*
X6716265Y2543517D01*
X6711693Y2552661D01*
X6707121Y2566377D01*
X6707121Y2588983D01*
X6711693Y2602699D01*
X6716265Y2611843D01*
X6725409Y2620987D01*
X6739125Y2625559D01*
X6770875Y2625559D01*
X6672577Y2552661D02*
G01*
X6672577Y2548089D01*
X6668259Y2539199D01*
X6663687Y2534627D01*
X6654543Y2530055D01*
X6636255Y2530055D01*
X6627365Y2534627D01*
X6622793Y2539199D01*
X6618221Y2548089D01*
X6618221Y2557233D01*
X6622793Y2566377D01*
X6631683Y2580093D01*
X6677149Y2625559D01*
X6613649Y2625559D01*
X6801101Y2806664D02*
G01*
X6805419Y2797520D01*
X6814563Y2788630D01*
X6823707Y2784058D01*
X6841995Y2784058D01*
X6850885Y2788630D01*
X6860029Y2797520D01*
X6864601Y2806664D01*
X6869173Y2820380D01*
X6869173Y2842986D01*
X6864601Y2856702D01*
X6860029Y2865846D01*
X6850885Y2874990D01*
X6841995Y2879562D01*
X6823707Y2879562D01*
X6814563Y2874990D01*
X6805419Y2865846D01*
X6801101Y2856702D01*
X6801101Y2842986D01*
X6823707Y2842986D02*
G01*
X6801101Y2842986D01*
X6770875Y2784058D02*
G01*
X6770875Y2879562D01*
X6770875Y2784058D02*
G01*
X6707375Y2879562D01*
X6707375Y2784058D02*
G01*
X6707375Y2879562D01*
X6677403Y2784058D02*
G01*
X6677403Y2879562D01*
X6677403Y2784058D02*
G01*
X6645653Y2784058D01*
X6631937Y2788630D01*
X6622793Y2797520D01*
X6618221Y2806664D01*
X6613649Y2820380D01*
X6613649Y2842986D01*
X6618221Y2856702D01*
X6622793Y2865846D01*
X6631937Y2874990D01*
X6645653Y2879562D01*
X6677403Y2879562D01*
X6864601Y3038058D02*
G01*
X6864601Y3133562D01*
X6864601Y3038058D02*
G01*
X6823707Y3038058D01*
X6809991Y3042630D01*
X6805419Y3047202D01*
X6800847Y3056092D01*
X6800847Y3065236D01*
X6805419Y3074380D01*
X6809991Y3078952D01*
X6823707Y3083524D01*
X6864601Y3083524D01*
X6832851Y3083524D02*
G01*
X6800847Y3133562D01*
X6707375Y3051520D02*
G01*
X6716519Y3042630D01*
X6729981Y3038058D01*
X6748269Y3038058D01*
X6761985Y3042630D01*
X6770875Y3051520D01*
X6770875Y3060664D01*
X6766303Y3069808D01*
X6761985Y3074380D01*
X6752841Y3078952D01*
X6725409Y3088096D01*
X6716519Y3092414D01*
X6711947Y3096986D01*
X6707375Y3106130D01*
X6707375Y3119846D01*
X6716519Y3128990D01*
X6729981Y3133562D01*
X6748269Y3133562D01*
X6761985Y3128990D01*
X6770875Y3119846D01*
X6645399Y3038058D02*
G01*
X6645399Y3133562D01*
X6677403Y3038058D02*
G01*
X6613649Y3038058D01*
X6864601Y3292055D02*
G01*
X6864601Y3387559D01*
X6864601Y3292055D02*
G01*
X6823707Y3292055D01*
X6809991Y3296627D01*
X6805419Y3301199D01*
X6800847Y3310089D01*
X6800847Y3319233D01*
X6805419Y3328377D01*
X6809991Y3332949D01*
X6823707Y3337521D01*
X6864601Y3337521D01*
X6832851Y3337521D02*
G01*
X6800847Y3387559D01*
X6770875Y3292055D02*
G01*
X6707375Y3387559D01*
X6707375Y3292055D02*
G01*
X6770875Y3387559D01*
X6677403Y3292055D02*
G01*
X6677403Y3387559D01*
X6677403Y3292055D02*
G01*
X6645399Y3292055D01*
X6631937Y3296627D01*
X6622793Y3305517D01*
X6618221Y3314661D01*
X6613649Y3328377D01*
X6613649Y3350983D01*
X6618221Y3364699D01*
X6622793Y3373843D01*
X6631937Y3382987D01*
X6645399Y3387559D01*
X6677403Y3387559D01*
X6832851Y3546058D02*
G01*
X6832851Y3641562D01*
X6864601Y3546058D02*
G01*
X6800847Y3546058D01*
X6770875Y3546058D02*
G01*
X6707375Y3641562D01*
X6707375Y3546058D02*
G01*
X6770875Y3641562D01*
X6677403Y3546058D02*
G01*
X6677403Y3641562D01*
X6677403Y3546058D02*
G01*
X6645399Y3546058D01*
X6631937Y3550630D01*
X6622793Y3559520D01*
X6618221Y3568664D01*
X6613649Y3582380D01*
X6613649Y3604986D01*
X6618221Y3618702D01*
X6622793Y3627846D01*
X6631937Y3636990D01*
X6645399Y3641562D01*
X6677403Y3641562D01*
D10*
X2748178Y1676907D02*
G01*
X2742844Y1687321D01*
X2732430Y1697736D01*
X2722270Y1702815D01*
X2701442Y1702815D01*
X2691028Y1697736D01*
X2680614Y1687321D01*
X2675280Y1676907D01*
X2670200Y1661160D01*
X2670200Y1635252D01*
X2675280Y1619757D01*
X2680614Y1609344D01*
X2691028Y1598929D01*
X2701442Y1593850D01*
X2722270Y1593850D01*
X2732430Y1598929D01*
X2742844Y1609344D01*
X2748178Y1619757D01*
X2782468Y1681987D02*
G01*
X2792882Y1687321D01*
X2808376Y1702815D01*
X2808376Y1593850D01*
X2373884Y3606800D02*
G01*
X2482850Y3606800D01*
X2373884Y3606800D02*
G01*
X2373884Y3643121D01*
X2378963Y3658870D01*
X2389377Y3669029D01*
X2399791Y3674363D01*
X2415540Y3679444D01*
X2441447Y3679444D01*
X2456941Y3674363D01*
X2467356Y3669029D01*
X2477770Y3658870D01*
X2482850Y3643121D01*
X2482850Y3606800D01*
X2394711Y3713734D02*
G01*
X2389377Y3724147D01*
X2373884Y3739895D01*
X2482850Y3739895D01*
X1412161Y4071421D02*
G01*
X1412161Y3962455D01*
X1412161Y4071421D02*
G01*
X1448483Y4071421D01*
X1464231Y4066341D01*
X1474391Y4055927D01*
X1479725Y4045513D01*
X1484805Y4029765D01*
X1484805Y4003857D01*
X1479725Y3988363D01*
X1474391Y3977949D01*
X1464231Y3967535D01*
X1448483Y3962455D01*
X1412161Y3962455D01*
X1597073Y4045513D02*
G01*
X1591993Y4055927D01*
X1581579Y4066341D01*
X1571165Y4071421D01*
X1550337Y4071421D01*
X1539923Y4066341D01*
X1529509Y4055927D01*
X1524429Y4045513D01*
X1519095Y4029765D01*
X1519095Y4003857D01*
X1524429Y3988363D01*
X1529509Y3977949D01*
X1539923Y3967535D01*
X1550337Y3962455D01*
X1571165Y3962455D01*
X1581579Y3967535D01*
X1591993Y3977949D01*
X1597073Y3988363D01*
X1631363Y4050593D02*
G01*
X1641777Y4055927D01*
X1657271Y4071421D01*
X1657271Y3962455D01*
X3644900Y4242815D02*
G01*
X3644900Y4133850D01*
X3644900Y4242815D02*
G01*
X3681222Y4242815D01*
X3696970Y4237736D01*
X3707129Y4227321D01*
X3712463Y4216907D01*
X3717543Y4201160D01*
X3717543Y4175252D01*
X3712463Y4159757D01*
X3707129Y4149344D01*
X3696970Y4138929D01*
X3681222Y4133850D01*
X3644900Y4133850D01*
X3829811Y4216907D02*
G01*
X3824731Y4227321D01*
X3814318Y4237736D01*
X3803904Y4242815D01*
X3783075Y4242815D01*
X3772661Y4237736D01*
X3762247Y4227321D01*
X3757168Y4216907D01*
X3751834Y4201160D01*
X3751834Y4175252D01*
X3757168Y4159757D01*
X3762247Y4149344D01*
X3772661Y4138929D01*
X3783075Y4133850D01*
X3803904Y4133850D01*
X3814318Y4138929D01*
X3824731Y4149344D01*
X3829811Y4159757D01*
X3864102Y4097273D02*
G01*
X3957574Y4097273D01*
X3991863Y4242815D02*
G01*
X3991863Y4133850D01*
X3991863Y4242815D02*
G01*
X4033520Y4133850D01*
X4075175Y4242815D02*
G01*
X4033520Y4133850D01*
X4075175Y4242815D02*
G01*
X4075175Y4133850D01*
X4140454Y4242815D02*
G01*
X4130040Y4237736D01*
X4119879Y4227321D01*
X4114545Y4216907D01*
X4109465Y4201160D01*
X4109465Y4175252D01*
X4114545Y4159757D01*
X4119879Y4149344D01*
X4130040Y4138929D01*
X4140454Y4133850D01*
X4161281Y4133850D01*
X4171695Y4138929D01*
X4182109Y4149344D01*
X4187190Y4159757D01*
X4192524Y4175252D01*
X4192524Y4201160D01*
X4187190Y4216907D01*
X4182109Y4227321D01*
X4171695Y4237736D01*
X4161281Y4242815D01*
X4140454Y4242815D01*
X4263136Y4242815D02*
G01*
X4263136Y4133850D01*
X4226813Y4242815D02*
G01*
X4299458Y4242815D01*
X4364990Y4242815D02*
G01*
X4354575Y4237736D01*
X4344161Y4227321D01*
X4339081Y4216907D01*
X4333747Y4201160D01*
X4333747Y4175252D01*
X4339081Y4159757D01*
X4344161Y4149344D01*
X4354575Y4138929D01*
X4364990Y4133850D01*
X4385818Y4133850D01*
X4396231Y4138929D01*
X4406645Y4149344D01*
X4411725Y4159757D01*
X4417059Y4175252D01*
X4417059Y4201160D01*
X4411725Y4216907D01*
X4406645Y4227321D01*
X4396231Y4237736D01*
X4385818Y4242815D01*
X4364990Y4242815D01*
X4451350Y4242815D02*
G01*
X4451350Y4133850D01*
X4451350Y4242815D02*
G01*
X4498086Y4242815D01*
X4513579Y4237736D01*
X4518659Y4232402D01*
X4523993Y4221987D01*
X4523993Y4211573D01*
X4518659Y4201160D01*
X4513579Y4196079D01*
X4498086Y4191000D01*
X4451350Y4191000D01*
X4487672Y4191000D02*
G01*
X4523993Y4133850D01*
X4558284Y4221987D02*
G01*
X4568697Y4227321D01*
X4584191Y4242815D01*
X4584191Y4133850D01*
X4851400Y4242815D02*
G01*
X4851400Y4133850D01*
X4851400Y4242815D02*
G01*
X4887722Y4242815D01*
X4903470Y4237736D01*
X4913629Y4227321D01*
X4918963Y4216907D01*
X4924043Y4201160D01*
X4924043Y4175252D01*
X4918963Y4159757D01*
X4913629Y4149344D01*
X4903470Y4138929D01*
X4887722Y4133850D01*
X4851400Y4133850D01*
X5036311Y4216907D02*
G01*
X5031231Y4227321D01*
X5020818Y4237736D01*
X5010404Y4242815D01*
X4989575Y4242815D01*
X4979161Y4237736D01*
X4968747Y4227321D01*
X4963668Y4216907D01*
X4958334Y4201160D01*
X4958334Y4175252D01*
X4963668Y4159757D01*
X4968747Y4149344D01*
X4979161Y4138929D01*
X4989575Y4133850D01*
X5010404Y4133850D01*
X5020818Y4138929D01*
X5031231Y4149344D01*
X5036311Y4159757D01*
X5070602Y4097273D02*
G01*
X5164074Y4097273D01*
X5198363Y4242815D02*
G01*
X5198363Y4133850D01*
X5198363Y4242815D02*
G01*
X5240020Y4133850D01*
X5281675Y4242815D02*
G01*
X5240020Y4133850D01*
X5281675Y4242815D02*
G01*
X5281675Y4133850D01*
X5346954Y4242815D02*
G01*
X5336540Y4237736D01*
X5326379Y4227321D01*
X5321045Y4216907D01*
X5315965Y4201160D01*
X5315965Y4175252D01*
X5321045Y4159757D01*
X5326379Y4149344D01*
X5336540Y4138929D01*
X5346954Y4133850D01*
X5367781Y4133850D01*
X5378195Y4138929D01*
X5388609Y4149344D01*
X5393690Y4159757D01*
X5399024Y4175252D01*
X5399024Y4201160D01*
X5393690Y4216907D01*
X5388609Y4227321D01*
X5378195Y4237736D01*
X5367781Y4242815D01*
X5346954Y4242815D01*
X5469636Y4242815D02*
G01*
X5469636Y4133850D01*
X5433313Y4242815D02*
G01*
X5505958Y4242815D01*
X5571490Y4242815D02*
G01*
X5561075Y4237736D01*
X5550661Y4227321D01*
X5545581Y4216907D01*
X5540247Y4201160D01*
X5540247Y4175252D01*
X5545581Y4159757D01*
X5550661Y4149344D01*
X5561075Y4138929D01*
X5571490Y4133850D01*
X5592318Y4133850D01*
X5602731Y4138929D01*
X5613145Y4149344D01*
X5618225Y4159757D01*
X5623559Y4175252D01*
X5623559Y4201160D01*
X5618225Y4216907D01*
X5613145Y4227321D01*
X5602731Y4237736D01*
X5592318Y4242815D01*
X5571490Y4242815D01*
X5657850Y4242815D02*
G01*
X5657850Y4133850D01*
X5657850Y4242815D02*
G01*
X5704586Y4242815D01*
X5720079Y4237736D01*
X5725159Y4232402D01*
X5730493Y4221987D01*
X5730493Y4211573D01*
X5725159Y4201160D01*
X5720079Y4196079D01*
X5704586Y4191000D01*
X5657850Y4191000D01*
X5694172Y4191000D02*
G01*
X5730493Y4133850D01*
X5769863Y4216907D02*
G01*
X5769863Y4221987D01*
X5775197Y4232402D01*
X5780277Y4237736D01*
X5790691Y4242815D01*
X5811520Y4242815D01*
X5821934Y4237736D01*
X5827013Y4232402D01*
X5832347Y4221987D01*
X5832347Y4211573D01*
X5827013Y4201160D01*
X5816600Y4185665D01*
X5764784Y4133850D01*
X5837427Y4133850D01*
X3958843Y-1259078D02*
G01*
X3948429Y-1248663D01*
X3932936Y-1243584D01*
X3912108Y-1243584D01*
X3896613Y-1248663D01*
X3886200Y-1259078D01*
X3886200Y-1269492D01*
X3891279Y-1279905D01*
X3896613Y-1285239D01*
X3907027Y-1290320D01*
X3938270Y-1300734D01*
X3948429Y-1305813D01*
X3953763Y-1311147D01*
X3958843Y-1321562D01*
X3958843Y-1337055D01*
X3948429Y-1347470D01*
X3932936Y-1352550D01*
X3912108Y-1352550D01*
X3896613Y-1347470D01*
X3886200Y-1337055D01*
X4029709Y-1243584D02*
G01*
X4029709Y-1352550D01*
X3993134Y-1243584D02*
G01*
X4066031Y-1243584D01*
X4100322Y-1243584D02*
G01*
X4100322Y-1352550D01*
X4100322Y-1243584D02*
G01*
X4167886Y-1243584D01*
X4100322Y-1295400D02*
G01*
X4141724Y-1295400D01*
X4100322Y-1352550D02*
G01*
X4167886Y-1352550D01*
X4202175Y-1243584D02*
G01*
X4202175Y-1352550D01*
X4202175Y-1243584D02*
G01*
X4248911Y-1243584D01*
X4264406Y-1248663D01*
X4269740Y-1253997D01*
X4274820Y-1264412D01*
X4274820Y-1279905D01*
X4269740Y-1290320D01*
X4264406Y-1295400D01*
X4248911Y-1300734D01*
X4202175Y-1300734D01*
X4309109Y-1243584D02*
G01*
X4309109Y-1352550D01*
X4309109Y-1243584D02*
G01*
X4355845Y-1243584D01*
X4371340Y-1248663D01*
X4376674Y-1253997D01*
X4381754Y-1264412D01*
X4381754Y-1279905D01*
X4376674Y-1290320D01*
X4371340Y-1295400D01*
X4355845Y-1300734D01*
X4309109Y-1300734D01*
X4416043Y-1243584D02*
G01*
X4416043Y-1352550D01*
X4416043Y-1243584D02*
G01*
X4483608Y-1243584D01*
X4416043Y-1295400D02*
G01*
X4457700Y-1295400D01*
X4416043Y-1352550D02*
G01*
X4483608Y-1352550D01*
X4517897Y-1243584D02*
G01*
X4517897Y-1352550D01*
X4517897Y-1243584D02*
G01*
X4564634Y-1243584D01*
X4580381Y-1248663D01*
X4585461Y-1253997D01*
X4590795Y-1264412D01*
X4590795Y-1274826D01*
X4585461Y-1285239D01*
X4580381Y-1290320D01*
X4564634Y-1295400D01*
X4517897Y-1295400D01*
X4554220Y-1295400D02*
G01*
X4590795Y-1352550D01*
X4625086Y-1389126D02*
G01*
X4718558Y-1389126D01*
X4752847Y-1243584D02*
G01*
X4752847Y-1352550D01*
X4752847Y-1243584D02*
G01*
X4794250Y-1352550D01*
X4835906Y-1243584D02*
G01*
X4794250Y-1352550D01*
X4835906Y-1243584D02*
G01*
X4835906Y-1352550D01*
X4901438Y-1243584D02*
G01*
X4891024Y-1248663D01*
X4880609Y-1259078D01*
X4875529Y-1269492D01*
X4870195Y-1285239D01*
X4870195Y-1311147D01*
X4875529Y-1326642D01*
X4880609Y-1337055D01*
X4891024Y-1347470D01*
X4901438Y-1352550D01*
X4922265Y-1352550D01*
X4932679Y-1347470D01*
X4942840Y-1337055D01*
X4948174Y-1326642D01*
X4953254Y-1311147D01*
X4953254Y-1285239D01*
X4948174Y-1269492D01*
X4942840Y-1259078D01*
X4932679Y-1248663D01*
X4922265Y-1243584D01*
X4901438Y-1243584D01*
X5024120Y-1243584D02*
G01*
X5024120Y-1352550D01*
X4987543Y-1243584D02*
G01*
X5060441Y-1243584D01*
X5125720Y-1243584D02*
G01*
X5115559Y-1248663D01*
X5105145Y-1259078D01*
X5099811Y-1269492D01*
X5094731Y-1285239D01*
X5094731Y-1311147D01*
X5099811Y-1326642D01*
X5105145Y-1337055D01*
X5115559Y-1347470D01*
X5125720Y-1352550D01*
X5146547Y-1352550D01*
X5156961Y-1347470D01*
X5167375Y-1337055D01*
X5172709Y-1326642D01*
X5177790Y-1311147D01*
X5177790Y-1285239D01*
X5172709Y-1269492D01*
X5167375Y-1259078D01*
X5156961Y-1248663D01*
X5146547Y-1243584D01*
X5125720Y-1243584D01*
X5212079Y-1243584D02*
G01*
X5212079Y-1352550D01*
X5212079Y-1243584D02*
G01*
X5258815Y-1243584D01*
X5274309Y-1248663D01*
X5279643Y-1253997D01*
X5284724Y-1264412D01*
X5284724Y-1274826D01*
X5279643Y-1285239D01*
X5274309Y-1290320D01*
X5258815Y-1295400D01*
X5212079Y-1295400D01*
X5248402Y-1295400D02*
G01*
X5284724Y-1352550D01*
X2260600Y369315D02*
G01*
X2260600Y260350D01*
X2333243Y369315D02*
G01*
X2333243Y260350D01*
X2260600Y317500D02*
G01*
X2333243Y317500D01*
X2445511Y343407D02*
G01*
X2440431Y353821D01*
X2430018Y364236D01*
X2419604Y369315D01*
X2398775Y369315D01*
X2388361Y364236D01*
X2377947Y353821D01*
X2372868Y343407D01*
X2367534Y327660D01*
X2367534Y301752D01*
X2372868Y286257D01*
X2377947Y275844D01*
X2388361Y265429D01*
X2398775Y260350D01*
X2419604Y260350D01*
X2430018Y265429D01*
X2440431Y275844D01*
X2445511Y286257D01*
X2479802Y307086D02*
G01*
X2573274Y307086D01*
X2638806Y369315D02*
G01*
X2623311Y364236D01*
X2612897Y348487D01*
X2607563Y322579D01*
X2607563Y307086D01*
X2612897Y280923D01*
X2623311Y265429D01*
X2638806Y260350D01*
X2649220Y260350D01*
X2664713Y265429D01*
X2675127Y280923D01*
X2680461Y307086D01*
X2680461Y322579D01*
X2675127Y348487D01*
X2664713Y364236D01*
X2649220Y369315D01*
X2638806Y369315D01*
X2776981Y369315D02*
G01*
X2725165Y369315D01*
X2719831Y322579D01*
X2725165Y327660D01*
X2740659Y332994D01*
X2756154Y332994D01*
X2771902Y327660D01*
X2782315Y317500D01*
X2787395Y301752D01*
X2787395Y291337D01*
X2782315Y275844D01*
X2771902Y265429D01*
X2756154Y260350D01*
X2740659Y260350D01*
X2725165Y265429D01*
X2719831Y270510D01*
X2714752Y280923D01*
X2070100Y-316484D02*
G01*
X2070100Y-425450D01*
X2109470Y-342392D02*
G01*
X2109470Y-337312D01*
X2114804Y-326897D01*
X2119884Y-321563D01*
X2130297Y-316484D01*
X2151125Y-316484D01*
X2161540Y-321563D01*
X2166620Y-326897D01*
X2171954Y-337312D01*
X2171954Y-347726D01*
X2166620Y-358139D01*
X2156459Y-373634D01*
X2104390Y-425450D01*
X2177034Y-425450D01*
X2289302Y-342392D02*
G01*
X2284222Y-331978D01*
X2273808Y-321563D01*
X2263393Y-316484D01*
X2242565Y-316484D01*
X2232152Y-321563D01*
X2221738Y-331978D01*
X2216658Y-342392D01*
X2211324Y-358139D01*
X2211324Y-384047D01*
X2216658Y-399542D01*
X2221738Y-409955D01*
X2232152Y-420370D01*
X2242565Y-425450D01*
X2263393Y-425450D01*
X2273808Y-420370D01*
X2284222Y-409955D01*
X2289302Y-399542D01*
X4470400Y2579115D02*
G01*
X4470400Y2470150D01*
X4470400Y2470150D02*
G01*
X4532629Y2470150D01*
X4572254Y2553207D02*
G01*
X4572254Y2558287D01*
X4577334Y2568702D01*
X4582668Y2574036D01*
X4593081Y2579115D01*
X4613909Y2579115D01*
X4624070Y2574036D01*
X4629404Y2568702D01*
X4634484Y2558287D01*
X4634484Y2547873D01*
X4629404Y2537460D01*
X4618990Y2521965D01*
X4566920Y2470150D01*
X4639818Y2470150D01*
X4741672Y2542794D02*
G01*
X4736338Y2527300D01*
X4725924Y2516886D01*
X4710429Y2511552D01*
X4705350Y2511552D01*
X4689602Y2516886D01*
X4679188Y2527300D01*
X4674108Y2542794D01*
X4674108Y2547873D01*
X4679188Y2563621D01*
X4689602Y2574036D01*
X4705350Y2579115D01*
X4710429Y2579115D01*
X4725924Y2574036D01*
X4736338Y2563621D01*
X4741672Y2542794D01*
X4741672Y2516886D01*
X4736338Y2490723D01*
X4725924Y2475229D01*
X4710429Y2470150D01*
X4700015Y2470150D01*
X4684522Y2475229D01*
X4679188Y2485644D01*
X4786375Y2579115D02*
G01*
X4843525Y2579115D01*
X4812284Y2537460D01*
X4827777Y2537460D01*
X4838191Y2532379D01*
X4843525Y2527300D01*
X4848606Y2511552D01*
X4848606Y2501137D01*
X4843525Y2485644D01*
X4833111Y2475229D01*
X4817363Y2470150D01*
X4801870Y2470150D01*
X4786375Y2475229D01*
X4781041Y2480310D01*
X4775961Y2490723D01*
X4882895Y2579115D02*
G01*
X4882895Y2470150D01*
X4882895Y2579115D02*
G01*
X4919218Y2579115D01*
X4934965Y2574036D01*
X4945379Y2563621D01*
X4950459Y2553207D01*
X4955540Y2537460D01*
X4955540Y2511552D01*
X4950459Y2496057D01*
X4945379Y2485644D01*
X4934965Y2475229D01*
X4919218Y2470150D01*
X4882895Y2470150D01*
X1320800Y2782315D02*
G01*
X1320800Y2673350D01*
X1320800Y2673350D02*
G01*
X1383029Y2673350D01*
X1417320Y2782315D02*
G01*
X1417320Y2673350D01*
X1417320Y2782315D02*
G01*
X1484884Y2782315D01*
X1417320Y2730500D02*
G01*
X1458976Y2730500D01*
X1417320Y2673350D02*
G01*
X1484884Y2673350D01*
X1519173Y2782315D02*
G01*
X1519173Y2673350D01*
X1519173Y2782315D02*
G01*
X1555750Y2782315D01*
X1571244Y2777236D01*
X1581657Y2766821D01*
X1586737Y2756407D01*
X1592071Y2740660D01*
X1592071Y2714752D01*
X1586737Y2699257D01*
X1581657Y2688844D01*
X1571244Y2678429D01*
X1555750Y2673350D01*
X1519173Y2673350D01*
X1817115Y1168400D02*
G01*
X1708150Y1168400D01*
X1708150Y1168400D02*
G01*
X1708150Y1106170D01*
X1817115Y1071879D02*
G01*
X1708150Y1071879D01*
X1817115Y1071879D02*
G01*
X1708150Y1030223D01*
X1817115Y988568D02*
G01*
X1708150Y1030223D01*
X1817115Y988568D02*
G01*
X1708150Y988568D01*
X1817115Y881634D02*
G01*
X1708150Y933450D01*
X1817115Y954278D02*
G01*
X1817115Y881634D01*
X1817115Y821436D02*
G01*
X1812036Y836929D01*
X1801621Y842010D01*
X1791207Y842010D01*
X1780794Y836929D01*
X1775460Y826515D01*
X1770379Y805687D01*
X1765300Y790194D01*
X1754886Y779779D01*
X1744471Y774700D01*
X1728723Y774700D01*
X1718310Y779779D01*
X1713229Y784860D01*
X1708150Y800607D01*
X1708150Y821436D01*
X1713229Y836929D01*
X1718310Y842010D01*
X1728723Y847344D01*
X1744471Y847344D01*
X1754886Y842010D01*
X1765300Y831850D01*
X1770379Y816102D01*
X1775460Y795273D01*
X1780794Y784860D01*
X1791207Y779779D01*
X1801621Y779779D01*
X1812036Y784860D01*
X1817115Y800607D01*
X1817115Y821436D01*
X1817115Y709168D02*
G01*
X1812036Y724662D01*
X1796287Y735076D01*
X1770379Y740410D01*
X1754886Y740410D01*
X1728723Y735076D01*
X1713229Y724662D01*
X1708150Y709168D01*
X1708150Y698754D01*
X1713229Y683260D01*
X1728723Y672845D01*
X1754886Y667512D01*
X1770379Y667512D01*
X1796287Y672845D01*
X1812036Y683260D01*
X1817115Y698754D01*
X1817115Y709168D01*
X1780794Y565657D02*
G01*
X1765300Y570992D01*
X1754886Y581405D01*
X1749552Y596900D01*
X1749552Y601979D01*
X1754886Y617728D01*
X1765300Y628142D01*
X1780794Y633221D01*
X1785873Y633221D01*
X1801621Y628142D01*
X1812036Y617728D01*
X1817115Y601979D01*
X1817115Y596900D01*
X1812036Y581405D01*
X1801621Y570992D01*
X1780794Y565657D01*
X1754886Y565657D01*
X1728723Y570992D01*
X1713229Y581405D01*
X1708150Y596900D01*
X1708150Y607313D01*
X1713229Y622807D01*
X1723644Y628142D01*
X2667000Y3150615D02*
G01*
X2667000Y3041650D01*
X2667000Y3150615D02*
G01*
X2713736Y3150615D01*
X2729229Y3145536D01*
X2734563Y3140202D01*
X2739643Y3129787D01*
X2739643Y3119373D01*
X2734563Y3108960D01*
X2729229Y3103879D01*
X2713736Y3098800D01*
X2667000Y3098800D01*
X2703322Y3098800D02*
G01*
X2739643Y3041650D01*
X2773934Y3129787D02*
G01*
X2784347Y3135121D01*
X2800095Y3150615D01*
X2800095Y3041650D01*
G36*
X2871825Y1473200D02*
G01*
X2871825Y1143000D01*
X2881376Y1152753D01*
X2890367Y1163015D01*
X2898749Y1173835D01*
X2906471Y1185113D01*
X2913481Y1196848D01*
X2919780Y1208989D01*
X2925318Y1221486D01*
X2930144Y1234287D01*
X2934157Y1247343D01*
X2937408Y1260602D01*
X2939846Y1274064D01*
X2941472Y1287627D01*
X2942285Y1301242D01*
X2942285Y1314958D01*
X2941472Y1328572D01*
X2939846Y1342136D01*
X2937408Y1355598D01*
X2934157Y1368856D01*
X2930144Y1381912D01*
X2925318Y1394714D01*
X2919780Y1407210D01*
X2913481Y1419352D01*
X2906471Y1431086D01*
X2898749Y1442364D01*
X2890367Y1453184D01*
X2881376Y1463446D01*
G37*
G36*
X2636520Y2070100D02*
G01*
X2636520Y1983739D01*
X2697480Y1983739D01*
X2697480Y2070100D01*
G37*
G36*
X2636520Y2791460D02*
G01*
X2636520Y2705100D01*
X2697480Y2705100D01*
X2697480Y2791460D01*
G37*
D13*
X5812027Y1816100D02*
G01*
X5812027Y38100D01*
X3399027Y38100D01*
X3399027Y1816100D01*
X5812027Y1816100D01*
D14*
X8102539Y2133559D02*
G01*
X8039039Y2197059D01*
X8102539Y2260559D01*
X7848551Y-25425D02*
G01*
X7912051Y-88925D01*
X8039051Y-88925D01*
X8102551Y-25425D01*
X7848551Y228574D02*
G01*
X7912051Y165074D01*
X7848551Y101574D01*
X7848551Y482574D02*
G01*
X7912051Y419074D01*
X7848551Y355574D01*
X7848551Y736528D02*
G01*
X7912051Y673051D01*
X7848551Y609551D01*
X7848551Y990523D02*
G01*
X7912051Y927023D01*
X7848551Y863523D01*
X7848551Y1244523D02*
G01*
X7912051Y1181023D01*
X7848551Y1117523D01*
X7848551Y1498523D02*
G01*
X7912051Y1435023D01*
X7848551Y1371523D01*
X7848551Y1752523D02*
G01*
X7912051Y1689023D01*
X7848551Y1625523D01*
X7848551Y2006523D02*
G01*
X7912051Y1943023D01*
X7848551Y1879523D01*
X7848551Y2260523D02*
G01*
X7912051Y2197023D01*
X7848551Y2133523D01*
X7848551Y2514523D02*
G01*
X7912051Y2451023D01*
X7848551Y2387523D01*
X7848551Y2768523D02*
G01*
X7912051Y2705023D01*
X7848551Y2641523D01*
X7848551Y3022551D02*
G01*
X7912051Y2959028D01*
X7848551Y2895523D01*
X7848551Y3276559D02*
G01*
X7912051Y3213059D01*
X7848551Y3149559D01*
X7848551Y3530559D02*
G01*
X7912051Y3467059D01*
X7848551Y3403559D01*
X8102551Y3657559D02*
G01*
X8039051Y3721059D01*
X7912051Y3721059D01*
X7848551Y3657559D01*
X8102551Y3403559D02*
G01*
X8039051Y3467059D01*
X8102551Y3530559D01*
X8102551Y3149559D02*
G01*
X8039051Y3213059D01*
X8102551Y3276559D01*
X8102551Y2895523D02*
G01*
X8039051Y2959028D01*
X8102551Y3022551D01*
X8102551Y609551D02*
G01*
X8039051Y673051D01*
X8102551Y736528D01*
X8102551Y101574D02*
G01*
X8039051Y165074D01*
X8102551Y228574D01*
X8102551Y355574D02*
G01*
X8039051Y419074D01*
X8102551Y482574D01*
X8102551Y863523D02*
G01*
X8039051Y927023D01*
X8102551Y990523D01*
X8102551Y1117523D02*
G01*
X8039051Y1181023D01*
X8102551Y1244523D01*
X8102551Y1371523D02*
G01*
X8039051Y1435023D01*
X8102551Y1498523D01*
X8102551Y1625523D02*
G01*
X8039051Y1689023D01*
X8102551Y1752523D01*
X8102551Y1879523D02*
G01*
X8039051Y1943023D01*
X8102551Y2006523D01*
X8102551Y2387523D02*
G01*
X8039051Y2451023D01*
X8102551Y2514523D01*
X8102551Y2641523D02*
G01*
X8039051Y2705023D01*
X8102551Y2768523D01*
X8102551Y2895523D02*
G01*
X8039051Y2959028D01*
X8102551Y3022551D01*
X8102551Y3149559D01*
X8039051Y3213059D01*
X8102551Y3276559D01*
X8102551Y3403559D01*
X8039051Y3467059D01*
X8102551Y3530559D01*
X8102551Y3657559D01*
X8039051Y3721059D01*
X7912051Y3721059D01*
X7848551Y3657559D01*
X7848551Y3530559D01*
X7912051Y3467059D01*
X7848551Y3403559D01*
X7848551Y3276559D01*
X7912051Y3213059D01*
X7848551Y3149559D01*
X7848551Y3022551D01*
X7912051Y2959028D01*
X7848551Y2895523D01*
X7848551Y2768523D01*
X7912051Y2705023D01*
X7848551Y2641523D01*
X7848551Y2514523D01*
X7912051Y2451023D01*
X7848551Y2387523D01*
X7848551Y2260523D01*
X7912051Y2197023D01*
X7848551Y2133523D01*
X7848551Y2006523D01*
X7912051Y1943023D01*
X7848551Y1879523D01*
X7848551Y1752523D01*
X7912051Y1689023D01*
X7848551Y1625523D01*
X7848551Y1498523D01*
X7912051Y1435023D01*
X7848551Y1371523D01*
X7848551Y1244523D01*
X7912051Y1181023D01*
X7848551Y1117523D01*
X7848551Y990523D01*
X7912051Y927023D01*
X7848551Y863523D01*
X7848551Y736528D01*
X7912051Y673051D01*
X7848551Y609551D01*
X7848551Y482574D01*
X7912051Y419074D01*
X7848551Y355574D01*
X7848551Y228574D01*
X7912051Y165074D01*
X7848551Y101574D01*
X7848551Y-25425D01*
X7912051Y-88925D01*
X8039051Y-88925D01*
X8102551Y-25425D01*
X6324643Y1498625D02*
G01*
X6388143Y1435125D01*
X6324643Y1371625D01*
X6324633Y736666D02*
G01*
X6388133Y673163D01*
X6324633Y609638D01*
X6324633Y482625D01*
X6388133Y419125D01*
X6324633Y355625D01*
X6324633Y228625D01*
X6388133Y165125D01*
X6324633Y101625D01*
X6324633Y-25374D01*
X6388133Y-88874D01*
X6515133Y-88874D01*
X6578633Y-25374D01*
X6578633Y101625D01*
X6515133Y165125D01*
X6578633Y228625D01*
X6578633Y355625D01*
X6515133Y419125D01*
X6578633Y482625D01*
X6578633Y609638D01*
X6515133Y673163D01*
X6578633Y736666D01*
X6578633Y863666D01*
X6515133Y927166D01*
X6578633Y990666D01*
X6578633Y1117666D01*
X6515133Y1181166D01*
X6578633Y1244666D01*
X6578633Y1371666D01*
X6515133Y1435166D01*
X6578633Y1498666D01*
X6578633Y1625666D01*
X6515133Y1689166D01*
X6578633Y1752666D01*
X6578633Y1879666D01*
X6515133Y1943166D01*
X6578633Y2006666D01*
X6578633Y2133666D01*
X6515133Y2197166D01*
X6578633Y2260666D01*
X6578633Y2387666D01*
X6515133Y2451166D01*
X6578633Y2514666D01*
X6578633Y2641666D01*
X6515133Y2705166D01*
X6578633Y2768666D01*
X6578633Y2895660D01*
X6515133Y2959138D01*
X6578633Y3022638D01*
X6578633Y3149615D01*
X6515133Y3213115D01*
X6578633Y3276615D01*
X6578633Y3403615D01*
X6515133Y3467115D01*
X6578633Y3530615D01*
X6578633Y3657615D01*
X6515133Y3721115D01*
X6388133Y3721115D01*
X6324633Y3657615D01*
X6324633Y3022638D02*
G01*
X6388133Y2959138D01*
X6324633Y2895660D01*
X6324633Y3530615D02*
G01*
X6388133Y3467115D01*
X6324633Y3403615D01*
X6324633Y3276615D02*
G01*
X6388133Y3213115D01*
X6324633Y3149615D01*
X6324633Y2768666D02*
G01*
X6388133Y2705166D01*
X6324633Y2641666D01*
X6324633Y2514666D02*
G01*
X6388133Y2451166D01*
X6324633Y2387666D01*
X6324633Y2260666D02*
G01*
X6388133Y2197166D01*
X6324633Y2133666D01*
X6324633Y2006666D02*
G01*
X6388133Y1943166D01*
X6324633Y1879666D01*
X6324633Y1752666D02*
G01*
X6388133Y1689166D01*
X6324633Y1625666D01*
X6324633Y1244666D02*
G01*
X6388133Y1181166D01*
X6324633Y1117666D01*
X6324633Y990666D02*
G01*
X6388133Y927166D01*
X6324633Y863666D01*
X6934200Y45720D02*
G01*
X6959589Y45720D01*
X6934200Y-342900D02*
G01*
X6934200Y-495300D01*
X7493000Y-495300D01*
X7493000Y45720D01*
X7472095Y45720D01*
X6934200Y-342900D02*
G01*
X6934200Y45720D01*
X6959589Y45720D02*
G01*
X7467600Y45720D01*
D10*
X6316982Y-350520D02*
G01*
X6316982Y3982712D01*
X8110220Y3982712D01*
X8110220Y-350520D01*
X6316982Y-350520D01*
D13*
X2592400Y1508099D02*
G01*
X2592400Y1406499D01*
X2540787Y1458087D02*
G01*
X2642387Y1458087D01*
D11*
X2567000Y3376803D02*
G01*
X2521991Y3376803D01*
X2521991Y3836796D01*
X2567000Y3836796D01*
X2766999Y3836796D02*
G01*
X2812008Y3836796D01*
X2812008Y3376803D01*
X2766999Y3376803D01*
X2567000Y3706799D02*
G01*
X2766999Y3706799D01*
D13*
X2132952Y3233643D02*
G01*
X2132952Y2998106D01*
X2132952Y3898104D02*
G01*
X2132952Y3662466D01*
X2014044Y2998106D02*
G01*
X2132952Y2998106D01*
X712957Y2998106D02*
G01*
X1611955Y2998106D01*
X712955Y3898104D02*
G01*
X2132952Y3898104D01*
X712957Y2998106D02*
G01*
X712957Y3898104D01*
X3529329Y4051300D02*
G01*
X4649470Y4051300D01*
X4649470Y4051300D02*
G01*
X4649470Y3401060D01*
X4649470Y3401060D02*
G01*
X4649470Y3302000D01*
X4649470Y3302000D02*
G01*
X3529329Y3302000D01*
X3529329Y3302000D02*
G01*
X3529329Y3401060D01*
X3529329Y3401060D02*
G01*
X3529329Y4051300D01*
X4649470Y3401060D02*
G01*
X3529329Y3401060D01*
X4799329Y4051300D02*
G01*
X5919470Y4051300D01*
X5919470Y4051300D02*
G01*
X5919470Y3401060D01*
X5919470Y3401060D02*
G01*
X5919470Y3302000D01*
X5919470Y3302000D02*
G01*
X4799329Y3302000D01*
X4799329Y3302000D02*
G01*
X4799329Y3401060D01*
X4799329Y3401060D02*
G01*
X4799329Y4051300D01*
X5919470Y3401060D02*
G01*
X4799329Y3401060D01*
X5830570Y-1130300D02*
G01*
X4710429Y-1130300D01*
X4710429Y-1130300D02*
G01*
X4710429Y-480060D01*
X4710429Y-480060D02*
G01*
X4710429Y-381000D01*
X4710429Y-381000D02*
G01*
X5830570Y-381000D01*
X5830570Y-381000D02*
G01*
X5830570Y-480060D01*
X5830570Y-480060D02*
G01*
X5830570Y-1130300D01*
X4710429Y-480060D02*
G01*
X5830570Y-480060D01*
X3465829Y-381000D02*
G01*
X4585970Y-381000D01*
X4585970Y-381000D02*
G01*
X4585970Y-1031239D01*
X4585970Y-1031239D02*
G01*
X4585970Y-1130300D01*
X4585970Y-1130300D02*
G01*
X3465829Y-1130300D01*
X3465829Y-1130300D02*
G01*
X3465829Y-1031239D01*
X3465829Y-1031239D02*
G01*
X3465829Y-381000D01*
X4585970Y-1031239D02*
G01*
X3465829Y-1031239D01*
X1422400Y228600D02*
G01*
X1422400Y-50800D01*
X2971800Y-50800D01*
X2971800Y228600D01*
X1422400Y228600D01*
X1498600Y-469900D02*
G01*
X2647797Y-469900D01*
X2647797Y-852500D01*
X1498600Y-852500D01*
X1498600Y-469900D01*
D15*
X3530600Y2840304D02*
G01*
X3573630Y2840304D01*
X3530600Y2250287D02*
G01*
X3530600Y2840304D01*
X3827630Y2840304D02*
G01*
X3741569Y2840304D01*
X4081630Y2840304D02*
G01*
X3995569Y2840304D01*
X4335630Y2840304D02*
G01*
X4249569Y2840304D01*
X4589630Y2840304D02*
G01*
X4503569Y2840304D01*
X4843630Y2840304D02*
G01*
X4757569Y2840304D01*
X5097630Y2840304D02*
G01*
X5011569Y2840304D01*
X5335813Y2840304D02*
G01*
X5265569Y2840304D01*
X5576595Y2840304D02*
G01*
X5535386Y2840304D01*
X3615491Y2250287D02*
G01*
X3530600Y2250287D01*
X3869491Y2250287D02*
G01*
X3699708Y2250287D01*
X4123491Y2250287D02*
G01*
X3953708Y2250287D01*
X4377491Y2250287D02*
G01*
X4207708Y2250287D01*
X4631491Y2250287D02*
G01*
X4461708Y2250287D01*
X4885491Y2250287D02*
G01*
X4715708Y2250287D01*
X5139491Y2250287D02*
G01*
X4969708Y2250287D01*
X5393491Y2250287D02*
G01*
X5223708Y2250287D01*
X5576595Y2250287D02*
G01*
X5477708Y2250287D01*
X5576595Y2840304D02*
G01*
X5576595Y2607792D01*
X5576595Y2250287D02*
G01*
X5576595Y2480792D01*
D13*
X1576196Y625703D02*
G01*
X1576196Y1685696D01*
X1626107Y1685797D02*
G01*
X1626107Y625602D01*
X1146302Y625602D01*
X1146302Y1685797D01*
X1625600Y1685797D01*
X1626107Y1685797D01*
D10*
X2755900Y2705100D02*
G01*
X2578100Y2705100D01*
X2781300Y2095500D02*
G01*
X2781300Y2133600D01*
X2768600Y2146300D01*
X2768600Y2628900D01*
X2781300Y2641600D01*
X2781300Y2679700D01*
X2552700Y2095500D02*
G01*
X2552700Y2133600D01*
X2565400Y2146300D01*
X2565400Y2628900D01*
X2552700Y2641600D01*
X2552700Y2679700D01*
X2755900Y2070100D02*
G01*
X2578100Y2070100D01*
D15*
G75*
G01*
X5576570Y2607793D02*
G03*
X5576570Y2480793I0J-63500D01*
D16*
G75*
G01*
X5578094Y2925293D02*
G03*
X5578094Y2925039I-12499J-127D01*
D17*
G75*
G01*
X5506720Y2709393D02*
G03*
X5506720Y2708885I-29999J-254D01*
D10*
G75*
G01*
X2552700Y2679700D02*
G02*
X2578100Y2705100I25400J0D01*
G75*
G01*
X2781300Y2679700D02*
G03*
X2755900Y2705100I-25400J0D01*
G75*
G01*
X2755900Y2070100D02*
G03*
X2781300Y2095500I0J25400D01*
G75*
G01*
X2578100Y2070100D02*
G02*
X2552700Y2095500I0J25400D01*
D18*
G75*
G01
X2942412Y1308100D02*
G03X2942412Y1308100I-250012J0D01*
D13*
G75*
G01
X3098800Y152400D02*
G03X3098800Y152400I-25400J0D01*
G75*
G01
X1597711Y2385111D02*
G03X1597711Y2385111I-254000J0D01*
M02*
