G04*
G04 #@! TF.GenerationSoftware,Altium Limited,Altium Designer,23.1.1 (15)*
G04*
G04 Layer_Color=32768*
%FSLAX44Y44*%
%MOMM*%
G71*
G04*
G04 #@! TF.SameCoordinates,C741470B-7C4C-4177-9209-F2D843503FCF*
G04*
G04*
G04 #@! TF.FilePolarity,Positive*
G04*
G01*
G75*
%ADD11C,0.1000*%
%ADD38C,0.0500*%
D11*
X11850Y171380D02*
Y224020D01*
Y171380D02*
X58150D01*
Y224020D01*
X11850D02*
X58150D01*
X131850D02*
X178150D01*
Y171380D02*
Y224020D01*
X131850Y171380D02*
X178150D01*
X131850D02*
Y224020D01*
X541850D02*
X588150D01*
Y171380D02*
Y224020D01*
X541850Y171380D02*
X588150D01*
X541850D02*
Y224020D01*
X71850D02*
X118150D01*
Y171380D02*
Y224020D01*
X71850Y171380D02*
X118150D01*
X71850D02*
Y224020D01*
X486850D02*
X533150D01*
Y171380D02*
Y224020D01*
X486850Y171380D02*
X533150D01*
X486850D02*
Y224020D01*
X426850D02*
X473150D01*
Y171380D02*
Y224020D01*
X426850Y171380D02*
X473150D01*
X426850D02*
Y224020D01*
X366850D02*
X413150D01*
Y171380D02*
Y224020D01*
X366850Y171380D02*
X413150D01*
X366850D02*
Y224020D01*
X306850D02*
X353150D01*
Y171380D02*
Y224020D01*
X306850Y171380D02*
X353150D01*
X306850D02*
Y224020D01*
X246850D02*
X293150D01*
Y171380D02*
Y224020D01*
X246850Y171380D02*
X293150D01*
X246850D02*
Y224020D01*
X191850D02*
X238150D01*
Y171380D02*
Y224020D01*
X191850Y171380D02*
X238150D01*
X191850D02*
Y224020D01*
D38*
X362150Y9550D02*
Y110450D01*
X457850Y9550D02*
Y110450D01*
X362150Y9550D02*
X457850D01*
X362150Y110450D02*
X457850D01*
X495350Y76100D02*
Y93900D01*
Y76100D02*
X524650D01*
Y93900D01*
X495350D02*
X524650D01*
X580700Y36900D02*
Y97700D01*
X549300D02*
X580700D01*
X549300Y36900D02*
Y97700D01*
Y36900D02*
X580700D01*
X288250Y80500D02*
Y99500D01*
Y80500D02*
X321750D01*
Y99500D01*
X288250D02*
X321750D01*
X148000Y27900D02*
X252000D01*
X148000Y102100D02*
X252000D01*
X148000Y27900D02*
Y102100D01*
X252000Y27900D02*
Y102100D01*
X288750Y35500D02*
X322250D01*
X288750D02*
Y54500D01*
X322250D01*
Y35500D02*
Y54500D01*
X25500Y127750D02*
Y161250D01*
X44500D01*
Y127750D02*
Y161250D01*
X25500Y127750D02*
X44500D01*
X205500D02*
Y161250D01*
X224500D01*
Y127750D02*
Y161250D01*
X205500Y127750D02*
X224500D01*
X85500D02*
Y161250D01*
X104500D01*
Y127750D02*
Y161250D01*
X85500Y127750D02*
X104500D01*
X145500D02*
Y161250D01*
X164500D01*
Y127750D02*
Y161250D01*
X145500Y127750D02*
X164500D01*
X555500D02*
Y161250D01*
X574500D01*
Y127750D02*
Y161250D01*
X555500Y127750D02*
X574500D01*
X260500D02*
Y161250D01*
X279500D01*
Y127750D02*
Y161250D01*
X260500Y127750D02*
X279500D01*
X320500D02*
Y161250D01*
X339500D01*
Y127750D02*
Y161250D01*
X320500Y127750D02*
X339500D01*
X500500D02*
Y161250D01*
X519500D01*
Y127750D02*
Y161250D01*
X500500Y127750D02*
X519500D01*
X380500D02*
Y161250D01*
X399500D01*
Y127750D02*
Y161250D01*
X380500Y127750D02*
X399500D01*
X440500D02*
Y161250D01*
X459500D01*
Y127750D02*
Y161250D01*
X440500Y127750D02*
X459500D01*
X497050Y63900D02*
X526350D01*
Y46100D02*
Y63900D01*
X497050Y46100D02*
X526350D01*
X497050D02*
Y63900D01*
M02*
