G04*
G04 #@! TF.GenerationSoftware,Altium Limited,Altium Designer,23.1.1 (15)*
G04*
G04 Layer_Color=16711935*
%FSLAX44Y44*%
%MOMM*%
G71*
G04*
G04 #@! TF.SameCoordinates,C741470B-7C4C-4177-9209-F2D843503FCF*
G04*
G04*
G04 #@! TF.FilePolarity,Negative*
G04*
G01*
G75*
%ADD23C,1.3332*%
%ADD24R,1.3332X1.3332*%
%ADD25C,1.9282*%
%ADD26R,1.9282X1.9282*%
%ADD27C,1.7272*%
%ADD28C,1.4532*%
%ADD29C,0.8032*%
D23*
X449700Y98100D02*
D03*
Y72700D02*
D03*
Y47300D02*
D03*
Y21900D02*
D03*
X370300D02*
D03*
Y47300D02*
D03*
Y72700D02*
D03*
D24*
Y98100D02*
D03*
D25*
X565000Y80000D02*
D03*
D26*
Y54600D02*
D03*
D27*
X35000Y185000D02*
D03*
Y210400D02*
D03*
X155000D02*
D03*
Y185000D02*
D03*
X565000Y210400D02*
D03*
Y185000D02*
D03*
X95000Y210400D02*
D03*
Y185000D02*
D03*
X510000Y210400D02*
D03*
Y185000D02*
D03*
X450000Y210400D02*
D03*
Y185000D02*
D03*
X390000Y210400D02*
D03*
Y185000D02*
D03*
X330000Y210400D02*
D03*
Y185000D02*
D03*
X270000Y210400D02*
D03*
Y185000D02*
D03*
X215000Y210400D02*
D03*
Y185000D02*
D03*
D28*
X35000Y65000D02*
D03*
X60400Y90400D02*
D03*
X85800Y65000D02*
D03*
D29*
X130000Y32095D02*
D03*
X122095Y65000D02*
D03*
X295000Y70000D02*
D03*
X130000Y20000D02*
D03*
X345000Y10000D02*
D03*
X350000Y65000D02*
D03*
X515000Y70000D02*
D03*
X475000Y60000D02*
D03*
X465000Y5000D02*
D03*
X435000Y136525D02*
D03*
X310000Y145000D02*
D03*
X370000Y140000D02*
D03*
X210000Y110000D02*
D03*
X170000D02*
D03*
M02*
