G04*
G04 #@! TF.GenerationSoftware,Altium Limited,Altium Designer,23.1.1 (15)*
G04*
G04 Layer_Color=8421504*
%FSLAX44Y44*%
%MOMM*%
G71*
G04*
G04 #@! TF.SameCoordinates,C741470B-7C4C-4177-9209-F2D843503FCF*
G04*
G04*
G04 #@! TF.FilePolarity,Positive*
G04*
G01*
G75*
%ADD15R,0.9700X1.4700*%
%ADD16R,0.9500X1.4000*%
G04:AMPARAMS|DCode=17|XSize=1.97mm|YSize=0.6mm|CornerRadius=0.075mm|HoleSize=0mm|Usage=FLASHONLY|Rotation=270.000|XOffset=0mm|YOffset=0mm|HoleType=Round|Shape=RoundedRectangle|*
%AMROUNDEDRECTD17*
21,1,1.9700,0.4500,0,0,270.0*
21,1,1.8200,0.6000,0,0,270.0*
1,1,0.1500,-0.2250,-0.9100*
1,1,0.1500,-0.2250,0.9100*
1,1,0.1500,0.2250,0.9100*
1,1,0.1500,0.2250,-0.9100*
%
%ADD17ROUNDEDRECTD17*%
%ADD18R,1.4000X0.9500*%
D15*
X518300Y85000D02*
D03*
X501700D02*
D03*
X503400Y55000D02*
D03*
X520000D02*
D03*
D16*
X314500Y90000D02*
D03*
X295500D02*
D03*
X315000Y45000D02*
D03*
X296000D02*
D03*
D17*
X244450Y40250D02*
D03*
X231750D02*
D03*
X219050D02*
D03*
X206350D02*
D03*
X193650D02*
D03*
X180950D02*
D03*
X168250D02*
D03*
X155550D02*
D03*
Y89750D02*
D03*
X168250D02*
D03*
X180950D02*
D03*
X193650D02*
D03*
X206350D02*
D03*
X219050D02*
D03*
X231750D02*
D03*
X244450D02*
D03*
D18*
X35000Y135000D02*
D03*
Y154000D02*
D03*
X215000Y135000D02*
D03*
Y154000D02*
D03*
X95000Y135000D02*
D03*
Y154000D02*
D03*
X155000Y135000D02*
D03*
Y154000D02*
D03*
X565000Y135000D02*
D03*
Y154000D02*
D03*
X270000Y135000D02*
D03*
Y154000D02*
D03*
X330000Y135000D02*
D03*
Y154000D02*
D03*
X510000Y135000D02*
D03*
Y154000D02*
D03*
X390000Y135000D02*
D03*
Y154000D02*
D03*
X450000Y135000D02*
D03*
Y154000D02*
D03*
M02*
