G04*
G04 #@! TF.GenerationSoftware,Altium Limited,Altium Designer,23.1.1 (15)*
G04*
G04 Layer_Color=65535*
%FSLAX44Y44*%
%MOMM*%
G71*
G04*
G04 #@! TF.SameCoordinates,C741470B-7C4C-4177-9209-F2D843503FCF*
G04*
G04*
G04 #@! TF.FilePolarity,Positive*
G04*
G01*
G75*
%ADD10C,0.2000*%
%ADD11C,0.1000*%
%ADD12C,0.4000*%
%ADD13C,0.1270*%
%ADD14C,0.2540*%
G36*
X362581Y118173D02*
Y118163D01*
Y118126D01*
Y118071D01*
X362572Y117988D01*
X362562Y117895D01*
X362544Y117794D01*
X362525Y117674D01*
X362498Y117544D01*
X362470Y117405D01*
X362424Y117267D01*
X362378Y117128D01*
X362313Y116980D01*
X362239Y116841D01*
X362156Y116712D01*
X362054Y116582D01*
X361943Y116462D01*
X361934Y116453D01*
X361915Y116434D01*
X361878Y116407D01*
X361823Y116370D01*
X361758Y116324D01*
X361675Y116277D01*
X361582Y116222D01*
X361471Y116166D01*
X361342Y116111D01*
X361203Y116055D01*
X361046Y116009D01*
X360880Y115963D01*
X360695Y115926D01*
X360501Y115898D01*
X360288Y115880D01*
X360057Y115871D01*
X359937D01*
X359853Y115880D01*
X359752Y115889D01*
X359641Y115898D01*
X359511Y115917D01*
X359373Y115944D01*
X359067Y116009D01*
X358910Y116065D01*
X358762Y116120D01*
X358605Y116185D01*
X358457Y116259D01*
X358319Y116351D01*
X358189Y116453D01*
X358180Y116462D01*
X358162Y116481D01*
X358134Y116518D01*
X358088Y116564D01*
X358041Y116620D01*
X357986Y116693D01*
X357930Y116786D01*
X357866Y116888D01*
X357810Y116999D01*
X357745Y117128D01*
X357690Y117267D01*
X357644Y117424D01*
X357598Y117590D01*
X357570Y117766D01*
X357551Y117960D01*
X357542Y118163D01*
Y122019D01*
X359049D01*
Y118256D01*
Y118247D01*
Y118228D01*
Y118200D01*
Y118154D01*
X359058Y118043D01*
X359077Y117905D01*
X359104Y117747D01*
X359151Y117599D01*
X359206Y117452D01*
X359280Y117322D01*
X359289Y117313D01*
X359326Y117276D01*
X359382Y117230D01*
X359465Y117174D01*
X359576Y117109D01*
X359706Y117063D01*
X359872Y117026D01*
X360057Y117017D01*
X360103D01*
X360140Y117026D01*
X360233Y117036D01*
X360343Y117054D01*
X360473Y117091D01*
X360602Y117137D01*
X360723Y117211D01*
X360824Y117304D01*
X360833Y117322D01*
X360861Y117359D01*
X360907Y117433D01*
X360954Y117535D01*
X360991Y117664D01*
X361037Y117831D01*
X361065Y118025D01*
X361074Y118256D01*
Y122019D01*
X362581D01*
Y118173D01*
D02*
G37*
G36*
X365882Y122121D02*
X365974Y122111D01*
X366076Y122102D01*
X366187Y122093D01*
X366316Y122074D01*
X366575Y122010D01*
X366843Y121926D01*
X366982Y121871D01*
X367102Y121806D01*
X367222Y121732D01*
X367333Y121649D01*
X367342Y121640D01*
X367361Y121631D01*
X367389Y121603D01*
X367416Y121557D01*
X367463Y121510D01*
X367509Y121455D01*
X367555Y121381D01*
X367611Y121298D01*
X367666Y121215D01*
X367712Y121113D01*
X367758Y121002D01*
X367805Y120882D01*
X367832Y120752D01*
X367860Y120614D01*
X367879Y120466D01*
X367888Y120308D01*
Y120299D01*
Y120281D01*
Y120253D01*
Y120216D01*
X367879Y120170D01*
Y120114D01*
X367860Y119976D01*
X367823Y119818D01*
X367777Y119643D01*
X367712Y119458D01*
X367629Y119264D01*
Y119254D01*
X367620Y119245D01*
X367601Y119218D01*
X367583Y119171D01*
X367555Y119125D01*
X367518Y119069D01*
X367435Y118940D01*
X367315Y118774D01*
X367176Y118589D01*
X367000Y118385D01*
X366797Y118173D01*
X366778Y118154D01*
X366732Y118108D01*
X366667Y118043D01*
X366575Y117960D01*
X366464Y117858D01*
X366353Y117747D01*
X366094Y117526D01*
X366076Y117516D01*
X366039Y117479D01*
X365974Y117433D01*
X365900Y117378D01*
X365743Y117248D01*
X365660Y117183D01*
X365595Y117137D01*
X368147D01*
Y116000D01*
X363727D01*
Y116980D01*
X363737Y116989D01*
X363755Y116999D01*
X363783Y117026D01*
X363820Y117054D01*
X363931Y117137D01*
X364060Y117248D01*
X364217Y117378D01*
X364384Y117516D01*
X364559Y117664D01*
X364726Y117812D01*
X364735Y117821D01*
X364744Y117831D01*
X364800Y117877D01*
X364883Y117960D01*
X364994Y118053D01*
X365123Y118173D01*
X365253Y118302D01*
X365392Y118432D01*
X365521Y118570D01*
X365530Y118580D01*
X365540Y118589D01*
X365595Y118644D01*
X365669Y118737D01*
X365771Y118848D01*
X365872Y118968D01*
X365974Y119107D01*
X366076Y119245D01*
X366159Y119384D01*
X366168Y119402D01*
X366187Y119449D01*
X366224Y119513D01*
X366261Y119606D01*
X366298Y119717D01*
X366335Y119837D01*
X366353Y119966D01*
X366362Y120105D01*
Y120114D01*
Y120124D01*
Y120170D01*
X366353Y120253D01*
X366335Y120345D01*
X366298Y120447D01*
X366251Y120549D01*
X366187Y120651D01*
X366103Y120743D01*
X366094Y120752D01*
X366057Y120780D01*
X366002Y120817D01*
X365928Y120863D01*
X365826Y120900D01*
X365706Y120937D01*
X365567Y120965D01*
X365410Y120974D01*
X365327D01*
X365271Y120965D01*
X365207Y120956D01*
X365133Y120946D01*
X364976Y120909D01*
X364966D01*
X364939Y120900D01*
X364902Y120891D01*
X364846Y120872D01*
X364781Y120854D01*
X364717Y120826D01*
X364559Y120771D01*
X364550D01*
X364522Y120752D01*
X364486Y120734D01*
X364439Y120715D01*
X364328Y120651D01*
X364208Y120577D01*
X364199D01*
X364180Y120558D01*
X364125Y120521D01*
X364051Y120475D01*
X363986Y120438D01*
X363875D01*
Y121751D01*
X363885Y121760D01*
X363922Y121769D01*
X363986Y121797D01*
X364069Y121825D01*
X364180Y121862D01*
X364310Y121908D01*
X364476Y121954D01*
X364661Y122000D01*
X364670D01*
X364689Y122010D01*
X364717D01*
X364754Y122019D01*
X364800Y122028D01*
X364865Y122037D01*
X364994Y122065D01*
X365160Y122093D01*
X365336Y122111D01*
X365521Y122121D01*
X365706Y122130D01*
X365808D01*
X365882Y122121D01*
D02*
G37*
G36*
X142949Y81197D02*
X141895D01*
Y82464D01*
X138724D01*
Y81197D01*
X137744D01*
Y81373D01*
X137735Y81456D01*
Y81549D01*
X137716Y81743D01*
Y81752D01*
X137707Y81789D01*
X137698Y81835D01*
X137689Y81900D01*
X137652Y82048D01*
X137624Y82122D01*
X137596Y82187D01*
X137587Y82196D01*
X137578Y82214D01*
X137559Y82251D01*
X137522Y82297D01*
X137448Y82390D01*
X137337Y82483D01*
X137328Y82492D01*
X137310Y82501D01*
X137273Y82519D01*
X137226Y82538D01*
X137162Y82566D01*
X137088Y82584D01*
X137014Y82603D01*
X136921Y82612D01*
Y83934D01*
X141895D01*
Y85173D01*
X142949D01*
Y81197D01*
D02*
G37*
G36*
X140962Y79857D02*
X141054Y79847D01*
X141156Y79829D01*
X141276Y79811D01*
X141405Y79783D01*
X141544Y79755D01*
X141683Y79709D01*
X141821Y79663D01*
X141969Y79598D01*
X142108Y79524D01*
X142237Y79441D01*
X142367Y79339D01*
X142487Y79228D01*
X142496Y79219D01*
X142515Y79200D01*
X142542Y79163D01*
X142579Y79108D01*
X142626Y79043D01*
X142672Y78960D01*
X142727Y78867D01*
X142783Y78756D01*
X142838Y78627D01*
X142894Y78488D01*
X142940Y78331D01*
X142986Y78165D01*
X143023Y77980D01*
X143051Y77786D01*
X143069Y77573D01*
X143079Y77342D01*
Y77222D01*
X143069Y77139D01*
X143060Y77037D01*
X143051Y76926D01*
X143033Y76796D01*
X143005Y76658D01*
X142940Y76353D01*
X142885Y76196D01*
X142829Y76048D01*
X142764Y75890D01*
X142690Y75742D01*
X142598Y75604D01*
X142496Y75474D01*
X142487Y75465D01*
X142469Y75447D01*
X142432Y75419D01*
X142385Y75373D01*
X142330Y75326D01*
X142256Y75271D01*
X142163Y75215D01*
X142062Y75151D01*
X141951Y75095D01*
X141821Y75030D01*
X141683Y74975D01*
X141525Y74929D01*
X141359Y74883D01*
X141183Y74855D01*
X140989Y74836D01*
X140786Y74827D01*
X136930D01*
Y76334D01*
X140693D01*
X140703D01*
X140721D01*
X140749D01*
X140795D01*
X140906Y76343D01*
X141045Y76362D01*
X141202Y76390D01*
X141350Y76436D01*
X141498Y76491D01*
X141627Y76565D01*
X141636Y76575D01*
X141673Y76611D01*
X141720Y76667D01*
X141775Y76750D01*
X141840Y76861D01*
X141886Y76991D01*
X141923Y77157D01*
X141932Y77342D01*
Y77388D01*
X141923Y77425D01*
X141914Y77518D01*
X141895Y77628D01*
X141858Y77758D01*
X141812Y77887D01*
X141738Y78008D01*
X141646Y78109D01*
X141627Y78119D01*
X141590Y78146D01*
X141516Y78193D01*
X141415Y78239D01*
X141285Y78276D01*
X141119Y78322D01*
X140925Y78350D01*
X140693Y78359D01*
X136930D01*
Y79866D01*
X140777D01*
X140786D01*
X140823D01*
X140878D01*
X140962Y79857D01*
D02*
G37*
G36*
X40589Y28130D02*
X40709D01*
X40857Y28111D01*
X41014Y28093D01*
X41171Y28074D01*
X41319Y28037D01*
X41338D01*
X41384Y28019D01*
X41458Y28000D01*
X41550Y27973D01*
X41662Y27936D01*
X41772Y27889D01*
X41883Y27834D01*
X41994Y27769D01*
X42003Y27760D01*
X42041Y27732D01*
X42096Y27695D01*
X42170Y27640D01*
X42244Y27575D01*
X42318Y27492D01*
X42392Y27390D01*
X42457Y27288D01*
X42466Y27279D01*
X42484Y27233D01*
X42503Y27177D01*
X42540Y27094D01*
X42568Y26992D01*
X42586Y26881D01*
X42604Y26761D01*
X42614Y26623D01*
Y26613D01*
Y26604D01*
Y26576D01*
Y26539D01*
X42595Y26438D01*
X42577Y26318D01*
X42540Y26179D01*
X42484Y26031D01*
X42410Y25874D01*
X42309Y25726D01*
X42299Y25707D01*
X42253Y25661D01*
X42189Y25596D01*
X42105Y25522D01*
X41985Y25430D01*
X41856Y25356D01*
X41708Y25282D01*
X41532Y25227D01*
Y25171D01*
X41541D01*
X41569Y25162D01*
X41606Y25153D01*
X41662Y25143D01*
X41726Y25125D01*
X41800Y25106D01*
X41948Y25060D01*
X41957D01*
X41985Y25042D01*
X42022Y25023D01*
X42077Y25005D01*
X42198Y24921D01*
X42272Y24875D01*
X42346Y24811D01*
X42355Y24801D01*
X42373Y24783D01*
X42410Y24746D01*
X42457Y24699D01*
X42503Y24644D01*
X42549Y24570D01*
X42604Y24496D01*
X42651Y24404D01*
X42660Y24394D01*
X42669Y24357D01*
X42688Y24311D01*
X42716Y24237D01*
X42734Y24154D01*
X42752Y24052D01*
X42762Y23932D01*
X42771Y23812D01*
Y23803D01*
Y23793D01*
Y23738D01*
X42762Y23655D01*
X42752Y23544D01*
X42734Y23414D01*
X42697Y23285D01*
X42660Y23137D01*
X42604Y22998D01*
X42595Y22980D01*
X42577Y22943D01*
X42540Y22869D01*
X42484Y22786D01*
X42410Y22693D01*
X42336Y22582D01*
X42235Y22481D01*
X42124Y22379D01*
X42105Y22370D01*
X42068Y22342D01*
X41994Y22296D01*
X41911Y22240D01*
X41800Y22176D01*
X41671Y22111D01*
X41523Y22046D01*
X41366Y21991D01*
X41356D01*
X41347Y21981D01*
X41319D01*
X41292Y21972D01*
X41199Y21954D01*
X41079Y21926D01*
X40922Y21898D01*
X40746Y21880D01*
X40543Y21870D01*
X40321Y21861D01*
X40145D01*
X40071Y21870D01*
X39905Y21880D01*
X39720Y21889D01*
X39516Y21917D01*
X39313Y21944D01*
X39119Y21981D01*
X39110D01*
X39100Y21991D01*
X39073D01*
X39036Y22000D01*
X38943Y22027D01*
X38832Y22055D01*
X38703Y22092D01*
X38564Y22139D01*
X38435Y22185D01*
X38305Y22240D01*
Y23544D01*
X38444D01*
X38463Y23535D01*
X38500Y23507D01*
X38573Y23470D01*
X38666Y23414D01*
X38777Y23350D01*
X38916Y23294D01*
X39063Y23229D01*
X39221Y23165D01*
X39230D01*
X39239Y23156D01*
X39295Y23146D01*
X39387Y23119D01*
X39498Y23091D01*
X39618Y23063D01*
X39757Y23045D01*
X39905Y23026D01*
X40044Y23017D01*
X40127D01*
X40182Y23026D01*
X40256D01*
X40330Y23035D01*
X40515Y23054D01*
X40524D01*
X40561Y23063D01*
X40608Y23072D01*
X40663Y23091D01*
X40811Y23137D01*
X40950Y23220D01*
X40959Y23229D01*
X40977Y23239D01*
X41033Y23294D01*
X41097Y23368D01*
X41171Y23470D01*
Y23479D01*
X41181Y23498D01*
X41199Y23535D01*
X41218Y23581D01*
X41227Y23646D01*
X41245Y23719D01*
X41255Y23803D01*
Y23895D01*
Y23904D01*
Y23941D01*
X41245Y23988D01*
X41236Y24052D01*
X41208Y24191D01*
X41171Y24256D01*
X41135Y24311D01*
X41125Y24320D01*
X41116Y24339D01*
X41088Y24357D01*
X41051Y24394D01*
X40950Y24459D01*
X40820Y24524D01*
X40811D01*
X40783Y24533D01*
X40746Y24552D01*
X40691Y24561D01*
X40626Y24579D01*
X40543Y24589D01*
X40459Y24598D01*
X40358Y24607D01*
X40265D01*
X40201Y24616D01*
X39627D01*
Y25670D01*
X40025D01*
X40099Y25680D01*
X40182D01*
X40358Y25689D01*
X40367D01*
X40395Y25698D01*
X40441D01*
X40497Y25717D01*
X40626Y25744D01*
X40755Y25791D01*
X40765D01*
X40783Y25809D01*
X40811Y25818D01*
X40848Y25846D01*
X40931Y25911D01*
X41005Y26003D01*
Y26012D01*
X41024Y26031D01*
X41033Y26059D01*
X41051Y26105D01*
X41070Y26151D01*
X41079Y26216D01*
X41097Y26290D01*
Y26373D01*
Y26382D01*
Y26401D01*
Y26438D01*
X41088Y26484D01*
X41061Y26576D01*
X41005Y26669D01*
Y26678D01*
X40986Y26687D01*
X40950Y26734D01*
X40885Y26798D01*
X40802Y26854D01*
X40792D01*
X40774Y26863D01*
X40746Y26881D01*
X40700Y26891D01*
X40598Y26928D01*
X40459Y26955D01*
X40450D01*
X40432Y26965D01*
X40395D01*
X40349Y26974D01*
X40238Y26983D01*
X40044D01*
X39988Y26974D01*
X39923D01*
X39840Y26965D01*
X39674Y26928D01*
X39664D01*
X39637Y26918D01*
X39590Y26909D01*
X39535Y26891D01*
X39470Y26872D01*
X39396Y26844D01*
X39230Y26789D01*
X39221D01*
X39202Y26780D01*
X39165Y26761D01*
X39128Y26743D01*
X39008Y26687D01*
X38879Y26623D01*
X38869D01*
X38851Y26604D01*
X38814Y26586D01*
X38777Y26567D01*
X38684Y26521D01*
X38601Y26475D01*
X38481D01*
Y27760D01*
X38500Y27769D01*
X38536Y27778D01*
X38601Y27806D01*
X38703Y27843D01*
X38823Y27880D01*
X38962Y27917D01*
X39128Y27963D01*
X39313Y28009D01*
X39322D01*
X39341Y28019D01*
X39369D01*
X39406Y28028D01*
X39452Y28037D01*
X39507Y28046D01*
X39646Y28074D01*
X39812Y28102D01*
X39988Y28120D01*
X40191Y28130D01*
X40395Y28139D01*
X40487D01*
X40589Y28130D01*
D02*
G37*
G36*
X36151Y23045D02*
X37390D01*
Y21991D01*
X33414D01*
Y23045D01*
X34681D01*
Y26216D01*
X33414D01*
Y27196D01*
X33590D01*
X33673Y27205D01*
X33766D01*
X33960Y27224D01*
X33969D01*
X34006Y27233D01*
X34052Y27242D01*
X34117Y27251D01*
X34265Y27288D01*
X34339Y27316D01*
X34404Y27344D01*
X34413Y27353D01*
X34431Y27362D01*
X34468Y27381D01*
X34515Y27418D01*
X34607Y27492D01*
X34699Y27603D01*
X34709Y27612D01*
X34718Y27630D01*
X34736Y27667D01*
X34755Y27714D01*
X34783Y27778D01*
X34801Y27852D01*
X34820Y27926D01*
X34829Y28019D01*
X36151D01*
Y23045D01*
D02*
G37*
G36*
X29947Y28000D02*
X30086Y27991D01*
X30225Y27982D01*
X30382Y27963D01*
X30521Y27945D01*
X30539D01*
X30585Y27936D01*
X30650Y27917D01*
X30742Y27889D01*
X30853Y27852D01*
X30964Y27806D01*
X31084Y27751D01*
X31205Y27686D01*
X31223Y27677D01*
X31260Y27649D01*
X31316Y27603D01*
X31390Y27538D01*
X31473Y27464D01*
X31556Y27371D01*
X31648Y27270D01*
X31722Y27159D01*
X31732Y27140D01*
X31750Y27103D01*
X31787Y27029D01*
X31824Y26937D01*
X31852Y26826D01*
X31889Y26687D01*
X31907Y26530D01*
X31917Y26354D01*
Y26345D01*
Y26327D01*
Y26290D01*
Y26244D01*
X31907Y26179D01*
X31898Y26114D01*
X31880Y25957D01*
X31843Y25772D01*
X31787Y25587D01*
X31704Y25402D01*
X31602Y25227D01*
X31584Y25208D01*
X31547Y25153D01*
X31473Y25079D01*
X31380Y24986D01*
X31260Y24875D01*
X31112Y24755D01*
X30946Y24644D01*
X30761Y24542D01*
X32795Y21991D01*
X30955D01*
X29272Y24200D01*
X28736D01*
Y21991D01*
X27229D01*
Y28009D01*
X29827D01*
X29947Y28000D01*
D02*
G37*
G36*
X301371Y110945D02*
X301463Y110935D01*
X301565Y110926D01*
X301676Y110917D01*
X301805Y110898D01*
X302064Y110834D01*
X302332Y110750D01*
X302471Y110695D01*
X302591Y110630D01*
X302711Y110556D01*
X302822Y110473D01*
X302831Y110464D01*
X302850Y110455D01*
X302878Y110427D01*
X302905Y110381D01*
X302952Y110334D01*
X302998Y110279D01*
X303044Y110205D01*
X303099Y110122D01*
X303155Y110038D01*
X303201Y109937D01*
X303248Y109826D01*
X303294Y109706D01*
X303321Y109576D01*
X303349Y109438D01*
X303368Y109290D01*
X303377Y109132D01*
Y109123D01*
Y109105D01*
Y109077D01*
Y109040D01*
X303368Y108994D01*
Y108938D01*
X303349Y108800D01*
X303312Y108642D01*
X303266Y108467D01*
X303201Y108282D01*
X303118Y108088D01*
Y108078D01*
X303109Y108069D01*
X303090Y108041D01*
X303072Y107995D01*
X303044Y107949D01*
X303007Y107893D01*
X302924Y107764D01*
X302804Y107598D01*
X302665Y107413D01*
X302489Y107209D01*
X302286Y106997D01*
X302267Y106978D01*
X302221Y106932D01*
X302157Y106867D01*
X302064Y106784D01*
X301953Y106682D01*
X301842Y106571D01*
X301583Y106349D01*
X301565Y106340D01*
X301528Y106303D01*
X301463Y106257D01*
X301389Y106202D01*
X301232Y106072D01*
X301149Y106007D01*
X301084Y105961D01*
X303636D01*
Y104824D01*
X299216D01*
Y105804D01*
X299226Y105813D01*
X299244Y105822D01*
X299272Y105850D01*
X299309Y105878D01*
X299420Y105961D01*
X299549Y106072D01*
X299706Y106202D01*
X299873Y106340D01*
X300049Y106488D01*
X300215Y106636D01*
X300224Y106645D01*
X300233Y106655D01*
X300289Y106701D01*
X300372Y106784D01*
X300483Y106876D01*
X300613Y106997D01*
X300742Y107126D01*
X300881Y107256D01*
X301010Y107394D01*
X301019Y107403D01*
X301028Y107413D01*
X301084Y107468D01*
X301158Y107561D01*
X301260Y107672D01*
X301361Y107792D01*
X301463Y107930D01*
X301565Y108069D01*
X301648Y108208D01*
X301657Y108226D01*
X301676Y108273D01*
X301713Y108337D01*
X301750Y108430D01*
X301787Y108541D01*
X301824Y108661D01*
X301842Y108790D01*
X301851Y108929D01*
Y108938D01*
Y108947D01*
Y108994D01*
X301842Y109077D01*
X301824Y109169D01*
X301787Y109271D01*
X301740Y109373D01*
X301676Y109474D01*
X301593Y109567D01*
X301583Y109576D01*
X301546Y109604D01*
X301491Y109641D01*
X301417Y109687D01*
X301315Y109724D01*
X301195Y109761D01*
X301056Y109789D01*
X300899Y109798D01*
X300816D01*
X300760Y109789D01*
X300696Y109780D01*
X300622Y109770D01*
X300465Y109733D01*
X300455D01*
X300428Y109724D01*
X300391Y109715D01*
X300335Y109696D01*
X300270Y109678D01*
X300206Y109650D01*
X300049Y109595D01*
X300039D01*
X300012Y109576D01*
X299974Y109558D01*
X299928Y109539D01*
X299817Y109474D01*
X299697Y109401D01*
X299688D01*
X299669Y109382D01*
X299614Y109345D01*
X299540Y109299D01*
X299475Y109262D01*
X299364D01*
Y110575D01*
X299374Y110584D01*
X299411Y110593D01*
X299475Y110621D01*
X299559Y110649D01*
X299669Y110686D01*
X299799Y110732D01*
X299965Y110778D01*
X300150Y110824D01*
X300159D01*
X300178Y110834D01*
X300206D01*
X300243Y110843D01*
X300289Y110852D01*
X300354Y110861D01*
X300483Y110889D01*
X300650Y110917D01*
X300825Y110935D01*
X301010Y110945D01*
X301195Y110954D01*
X301297D01*
X301371Y110945D01*
D02*
G37*
G36*
X296868Y105878D02*
X298107D01*
Y104824D01*
X294131D01*
Y105878D01*
X295398D01*
Y109049D01*
X294131D01*
Y110029D01*
X294307D01*
X294390Y110038D01*
X294483D01*
X294677Y110057D01*
X294686D01*
X294723Y110066D01*
X294769Y110076D01*
X294834Y110085D01*
X294982Y110122D01*
X295056Y110149D01*
X295121Y110177D01*
X295130Y110186D01*
X295148Y110196D01*
X295185Y110214D01*
X295231Y110251D01*
X295324Y110325D01*
X295417Y110436D01*
X295426Y110445D01*
X295435Y110464D01*
X295453Y110501D01*
X295472Y110547D01*
X295500Y110612D01*
X295518Y110686D01*
X295537Y110760D01*
X295546Y110852D01*
X296868D01*
Y105878D01*
D02*
G37*
G36*
X290664Y110834D02*
X290803Y110824D01*
X290942Y110815D01*
X291099Y110797D01*
X291237Y110778D01*
X291256D01*
X291302Y110769D01*
X291367Y110750D01*
X291459Y110723D01*
X291570Y110686D01*
X291681Y110639D01*
X291801Y110584D01*
X291922Y110519D01*
X291940Y110510D01*
X291977Y110482D01*
X292033Y110436D01*
X292106Y110371D01*
X292190Y110297D01*
X292273Y110205D01*
X292365Y110103D01*
X292439Y109992D01*
X292449Y109974D01*
X292467Y109937D01*
X292504Y109863D01*
X292541Y109770D01*
X292569Y109659D01*
X292606Y109521D01*
X292624Y109364D01*
X292633Y109188D01*
Y109179D01*
Y109160D01*
Y109123D01*
Y109077D01*
X292624Y109012D01*
X292615Y108947D01*
X292596Y108790D01*
X292560Y108605D01*
X292504Y108420D01*
X292421Y108236D01*
X292319Y108060D01*
X292301Y108041D01*
X292264Y107986D01*
X292190Y107912D01*
X292097Y107820D01*
X291977Y107709D01*
X291829Y107588D01*
X291663Y107478D01*
X291478Y107376D01*
X293512Y104824D01*
X291672D01*
X289989Y107034D01*
X289453D01*
Y104824D01*
X287946D01*
Y110843D01*
X290544D01*
X290664Y110834D01*
D02*
G37*
G36*
X302646Y60920D02*
X303885D01*
Y59866D01*
X299909D01*
Y60920D01*
X301176D01*
Y64091D01*
X299909D01*
Y65071D01*
X300085D01*
X300168Y65080D01*
X300261D01*
X300455Y65099D01*
X300464D01*
X300501Y65108D01*
X300547Y65118D01*
X300612Y65127D01*
X300760Y65164D01*
X300834Y65191D01*
X300899Y65219D01*
X300908Y65228D01*
X300926Y65238D01*
X300963Y65256D01*
X301010Y65293D01*
X301102Y65367D01*
X301194Y65478D01*
X301204Y65487D01*
X301213Y65506D01*
X301231Y65543D01*
X301250Y65589D01*
X301278Y65654D01*
X301296Y65728D01*
X301315Y65802D01*
X301324Y65894D01*
X302646D01*
Y60920D01*
D02*
G37*
G36*
X297376D02*
X298615D01*
Y59866D01*
X294639D01*
Y60920D01*
X295906D01*
Y64091D01*
X294639D01*
Y65071D01*
X294815D01*
X294898Y65080D01*
X294991D01*
X295185Y65099D01*
X295194D01*
X295231Y65108D01*
X295277Y65118D01*
X295342Y65127D01*
X295490Y65164D01*
X295564Y65191D01*
X295629Y65219D01*
X295638Y65228D01*
X295656Y65238D01*
X295693Y65256D01*
X295739Y65293D01*
X295832Y65367D01*
X295924Y65478D01*
X295934Y65487D01*
X295943Y65506D01*
X295961Y65543D01*
X295980Y65589D01*
X296008Y65654D01*
X296026Y65728D01*
X296045Y65802D01*
X296054Y65894D01*
X297376D01*
Y60920D01*
D02*
G37*
G36*
X291172Y65876D02*
X291311Y65866D01*
X291450Y65857D01*
X291607Y65839D01*
X291745Y65820D01*
X291764D01*
X291810Y65811D01*
X291875Y65792D01*
X291967Y65765D01*
X292078Y65728D01*
X292189Y65682D01*
X292309Y65626D01*
X292430Y65561D01*
X292448Y65552D01*
X292485Y65524D01*
X292541Y65478D01*
X292614Y65413D01*
X292698Y65339D01*
X292781Y65247D01*
X292873Y65145D01*
X292947Y65034D01*
X292957Y65016D01*
X292975Y64979D01*
X293012Y64905D01*
X293049Y64812D01*
X293077Y64701D01*
X293114Y64563D01*
X293132Y64406D01*
X293141Y64230D01*
Y64221D01*
Y64202D01*
Y64165D01*
Y64119D01*
X293132Y64054D01*
X293123Y63990D01*
X293104Y63832D01*
X293068Y63647D01*
X293012Y63463D01*
X292929Y63278D01*
X292827Y63102D01*
X292809Y63084D01*
X292772Y63028D01*
X292698Y62954D01*
X292605Y62862D01*
X292485Y62751D01*
X292337Y62630D01*
X292171Y62519D01*
X291986Y62418D01*
X294020Y59866D01*
X292180D01*
X290497Y62076D01*
X289961D01*
Y59866D01*
X288454D01*
Y65885D01*
X291052D01*
X291172Y65876D01*
D02*
G37*
G36*
X34232Y167854D02*
X35471D01*
Y166800D01*
X31495D01*
Y167854D01*
X32762D01*
Y171025D01*
X31495D01*
Y172005D01*
X31671D01*
X31754Y172015D01*
X31847D01*
X32041Y172033D01*
X32050D01*
X32087Y172042D01*
X32133Y172052D01*
X32198Y172061D01*
X32346Y172098D01*
X32420Y172125D01*
X32485Y172153D01*
X32494Y172162D01*
X32512Y172172D01*
X32549Y172190D01*
X32596Y172227D01*
X32688Y172301D01*
X32780Y172412D01*
X32790Y172421D01*
X32799Y172440D01*
X32817Y172477D01*
X32836Y172523D01*
X32864Y172588D01*
X32882Y172662D01*
X32901Y172736D01*
X32910Y172828D01*
X34232D01*
Y167854D01*
D02*
G37*
G36*
X28028Y172810D02*
X28167Y172800D01*
X28306Y172791D01*
X28463Y172773D01*
X28601Y172754D01*
X28620D01*
X28666Y172745D01*
X28731Y172726D01*
X28823Y172699D01*
X28934Y172662D01*
X29045Y172616D01*
X29165Y172560D01*
X29286Y172495D01*
X29304Y172486D01*
X29341Y172458D01*
X29397Y172412D01*
X29471Y172347D01*
X29554Y172273D01*
X29637Y172181D01*
X29729Y172079D01*
X29803Y171968D01*
X29813Y171950D01*
X29831Y171913D01*
X29868Y171839D01*
X29905Y171746D01*
X29933Y171635D01*
X29970Y171497D01*
X29988Y171340D01*
X29997Y171164D01*
Y171155D01*
Y171136D01*
Y171099D01*
Y171053D01*
X29988Y170988D01*
X29979Y170924D01*
X29960Y170766D01*
X29924Y170581D01*
X29868Y170396D01*
X29785Y170212D01*
X29683Y170036D01*
X29665Y170018D01*
X29628Y169962D01*
X29554Y169888D01*
X29461Y169796D01*
X29341Y169685D01*
X29193Y169564D01*
X29027Y169454D01*
X28842Y169352D01*
X30876Y166800D01*
X29036D01*
X27353Y169010D01*
X26817D01*
Y166800D01*
X25310D01*
Y172819D01*
X27908D01*
X28028Y172810D01*
D02*
G37*
G36*
X38772Y172939D02*
X38836D01*
X38984Y172921D01*
X39151Y172893D01*
X39336Y172856D01*
X39520Y172810D01*
X39687Y172736D01*
X39696D01*
X39705Y172726D01*
X39761Y172699D01*
X39835Y172652D01*
X39936Y172588D01*
X40047Y172495D01*
X40168Y172394D01*
X40288Y172273D01*
X40399Y172125D01*
X40408Y172107D01*
X40445Y172052D01*
X40491Y171968D01*
X40556Y171857D01*
X40621Y171719D01*
X40685Y171552D01*
X40741Y171358D01*
X40796Y171145D01*
Y171136D01*
X40806Y171118D01*
Y171090D01*
X40815Y171044D01*
X40824Y170988D01*
X40833Y170924D01*
X40852Y170850D01*
X40861Y170757D01*
X40889Y170563D01*
X40907Y170332D01*
X40917Y170082D01*
X40926Y169805D01*
Y169796D01*
Y169768D01*
Y169731D01*
Y169675D01*
Y169611D01*
X40917Y169527D01*
Y169444D01*
X40907Y169342D01*
X40898Y169130D01*
X40870Y168899D01*
X40843Y168668D01*
X40796Y168437D01*
Y168427D01*
X40787Y168409D01*
Y168381D01*
X40769Y168344D01*
X40741Y168233D01*
X40695Y168094D01*
X40639Y167937D01*
X40574Y167780D01*
X40491Y167614D01*
X40399Y167456D01*
X40390Y167438D01*
X40353Y167392D01*
X40288Y167327D01*
X40205Y167234D01*
X40103Y167142D01*
X39973Y167040D01*
X39835Y166948D01*
X39678Y166865D01*
X39668D01*
X39659Y166856D01*
X39631Y166846D01*
X39604Y166837D01*
X39511Y166800D01*
X39382Y166772D01*
X39225Y166735D01*
X39040Y166698D01*
X38836Y166680D01*
X38605Y166671D01*
X38503D01*
X38448Y166680D01*
X38383D01*
X38235Y166698D01*
X38060Y166717D01*
X37884Y166754D01*
X37699Y166800D01*
X37523Y166865D01*
X37514D01*
X37505Y166874D01*
X37450Y166902D01*
X37376Y166948D01*
X37274Y167013D01*
X37154Y167105D01*
X37033Y167207D01*
X36913Y167327D01*
X36802Y167466D01*
Y167475D01*
X36793Y167484D01*
X36756Y167540D01*
X36710Y167623D01*
X36654Y167734D01*
X36590Y167882D01*
X36525Y168048D01*
X36460Y168233D01*
X36405Y168446D01*
Y168455D01*
X36395Y168473D01*
Y168501D01*
X36386Y168547D01*
X36377Y168603D01*
X36368Y168668D01*
X36358Y168751D01*
X36349Y168834D01*
X36321Y169037D01*
X36303Y169269D01*
X36294Y169527D01*
X36284Y169805D01*
Y169814D01*
Y169842D01*
Y169879D01*
Y169944D01*
Y170008D01*
X36294Y170091D01*
Y170184D01*
X36303Y170276D01*
X36312Y170489D01*
X36340Y170720D01*
X36368Y170951D01*
X36405Y171173D01*
Y171182D01*
X36414Y171201D01*
Y171229D01*
X36432Y171266D01*
X36460Y171377D01*
X36497Y171506D01*
X36553Y171663D01*
X36627Y171820D01*
X36710Y171996D01*
X36811Y172153D01*
Y172162D01*
X36821Y172172D01*
X36867Y172218D01*
X36923Y172292D01*
X37015Y172375D01*
X37117Y172477D01*
X37237Y172569D01*
X37385Y172662D01*
X37542Y172745D01*
X37551D01*
X37560Y172754D01*
X37588Y172763D01*
X37625Y172773D01*
X37718Y172810D01*
X37838Y172847D01*
X37995Y172884D01*
X38180Y172921D01*
X38383Y172939D01*
X38605Y172948D01*
X38716D01*
X38772Y172939D01*
D02*
G37*
G36*
X93372D02*
X93501Y172930D01*
X93649Y172911D01*
X93806Y172884D01*
X93963Y172847D01*
X94121Y172800D01*
X94130D01*
X94139Y172791D01*
X94185Y172773D01*
X94269Y172736D01*
X94361Y172689D01*
X94472Y172625D01*
X94592Y172551D01*
X94712Y172458D01*
X94823Y172347D01*
X94842Y172329D01*
X94879Y172283D01*
X94943Y172209D01*
X95017Y172107D01*
X95101Y171978D01*
X95184Y171820D01*
X95267Y171645D01*
X95341Y171451D01*
Y171441D01*
X95350Y171423D01*
X95359Y171395D01*
X95369Y171358D01*
X95378Y171303D01*
X95396Y171238D01*
X95415Y171164D01*
X95433Y171090D01*
X95461Y170896D01*
X95489Y170674D01*
X95507Y170424D01*
X95517Y170147D01*
Y170138D01*
Y170110D01*
Y170073D01*
Y170018D01*
X95507Y169953D01*
Y169869D01*
X95498Y169777D01*
Y169685D01*
X95470Y169463D01*
X95443Y169222D01*
X95396Y168982D01*
X95332Y168732D01*
Y168723D01*
X95323Y168705D01*
X95313Y168668D01*
X95295Y168621D01*
X95276Y168575D01*
X95258Y168510D01*
X95193Y168353D01*
X95119Y168187D01*
X95027Y168002D01*
X94906Y167817D01*
X94777Y167641D01*
Y167632D01*
X94759Y167623D01*
X94712Y167567D01*
X94620Y167475D01*
X94509Y167373D01*
X94370Y167262D01*
X94204Y167142D01*
X94019Y167022D01*
X93815Y166920D01*
X93806D01*
X93788Y166911D01*
X93760Y166902D01*
X93714Y166883D01*
X93658Y166865D01*
X93594Y166846D01*
X93510Y166819D01*
X93427Y166800D01*
X93325Y166782D01*
X93215Y166754D01*
X92974Y166717D01*
X92706Y166689D01*
X92401Y166680D01*
X92299D01*
X92225Y166689D01*
X92133D01*
X92031Y166698D01*
X91809Y166717D01*
X91800D01*
X91763Y166726D01*
X91707D01*
X91643Y166735D01*
X91513Y166763D01*
X91458Y166772D01*
X91412Y166782D01*
Y167965D01*
X91532D01*
X91541Y167956D01*
X91569Y167937D01*
X91606Y167928D01*
X91652Y167910D01*
X91698Y167882D01*
X91837Y167836D01*
X91846D01*
X91874Y167826D01*
X91920Y167817D01*
X91994Y167808D01*
X92077Y167799D01*
X92170Y167789D01*
X92290Y167780D01*
X92530D01*
X92604Y167789D01*
X92688Y167799D01*
X92780Y167808D01*
X92983Y167854D01*
X92993D01*
X93030Y167873D01*
X93085Y167891D01*
X93150Y167919D01*
X93224Y167956D01*
X93307Y167993D01*
X93464Y168104D01*
X93473Y168113D01*
X93501Y168131D01*
X93538Y168178D01*
X93584Y168224D01*
X93640Y168288D01*
X93695Y168363D01*
X93751Y168455D01*
X93806Y168547D01*
X93815Y168557D01*
X93825Y168594D01*
X93852Y168658D01*
X93880Y168732D01*
X93917Y168834D01*
X93945Y168945D01*
X93973Y169074D01*
X93991Y169222D01*
X93973Y169213D01*
X93936Y169185D01*
X93871Y169148D01*
X93797Y169111D01*
X93705Y169056D01*
X93603Y169000D01*
X93390Y168908D01*
X93381D01*
X93344Y168890D01*
X93279Y168880D01*
X93205Y168862D01*
X93104Y168843D01*
X92983Y168825D01*
X92854Y168815D01*
X92706Y168806D01*
X92595D01*
X92512Y168815D01*
X92419Y168825D01*
X92318Y168834D01*
X92105Y168880D01*
X92096D01*
X92059Y168899D01*
X92003Y168917D01*
X91939Y168945D01*
X91855Y168982D01*
X91772Y169028D01*
X91587Y169139D01*
X91578Y169148D01*
X91541Y169185D01*
X91486Y169241D01*
X91412Y169315D01*
X91338Y169398D01*
X91254Y169509D01*
X91171Y169629D01*
X91097Y169768D01*
X91088Y169786D01*
X91069Y169833D01*
X91042Y169916D01*
X91014Y170036D01*
X90977Y170175D01*
X90949Y170341D01*
X90931Y170535D01*
X90922Y170757D01*
Y170766D01*
Y170776D01*
Y170803D01*
Y170840D01*
X90931Y170924D01*
X90940Y171044D01*
X90958Y171173D01*
X90986Y171321D01*
X91023Y171478D01*
X91079Y171626D01*
Y171635D01*
X91088Y171645D01*
X91107Y171691D01*
X91144Y171765D01*
X91199Y171867D01*
X91254Y171968D01*
X91338Y172089D01*
X91430Y172209D01*
X91532Y172320D01*
X91541Y172329D01*
X91587Y172366D01*
X91643Y172421D01*
X91726Y172486D01*
X91828Y172560D01*
X91957Y172643D01*
X92096Y172717D01*
X92244Y172782D01*
X92253D01*
X92262Y172791D01*
X92318Y172810D01*
X92410Y172837D01*
X92521Y172865D01*
X92660Y172893D01*
X92817Y172921D01*
X93002Y172939D01*
X93187Y172948D01*
X93279D01*
X93372Y172939D01*
D02*
G37*
G36*
X87972Y172810D02*
X88111Y172800D01*
X88250Y172791D01*
X88407Y172773D01*
X88545Y172754D01*
X88564D01*
X88610Y172745D01*
X88675Y172726D01*
X88767Y172699D01*
X88878Y172662D01*
X88989Y172616D01*
X89109Y172560D01*
X89230Y172495D01*
X89248Y172486D01*
X89285Y172458D01*
X89341Y172412D01*
X89415Y172347D01*
X89498Y172273D01*
X89581Y172181D01*
X89673Y172079D01*
X89747Y171968D01*
X89757Y171950D01*
X89775Y171913D01*
X89812Y171839D01*
X89849Y171746D01*
X89877Y171635D01*
X89914Y171497D01*
X89932Y171340D01*
X89942Y171164D01*
Y171155D01*
Y171136D01*
Y171099D01*
Y171053D01*
X89932Y170988D01*
X89923Y170924D01*
X89904Y170766D01*
X89868Y170581D01*
X89812Y170396D01*
X89729Y170212D01*
X89627Y170036D01*
X89609Y170018D01*
X89572Y169962D01*
X89498Y169888D01*
X89405Y169796D01*
X89285Y169685D01*
X89137Y169564D01*
X88971Y169454D01*
X88786Y169352D01*
X90820Y166800D01*
X88980D01*
X87297Y169010D01*
X86761D01*
Y166800D01*
X85254D01*
Y172819D01*
X87852D01*
X87972Y172810D01*
D02*
G37*
G36*
X147916D02*
X148055Y172800D01*
X148194Y172791D01*
X148351Y172773D01*
X148489Y172754D01*
X148508D01*
X148554Y172745D01*
X148619Y172726D01*
X148711Y172699D01*
X148822Y172662D01*
X148933Y172616D01*
X149053Y172560D01*
X149174Y172495D01*
X149192Y172486D01*
X149229Y172458D01*
X149285Y172412D01*
X149359Y172347D01*
X149442Y172273D01*
X149525Y172181D01*
X149617Y172079D01*
X149691Y171968D01*
X149701Y171950D01*
X149719Y171913D01*
X149756Y171839D01*
X149793Y171746D01*
X149821Y171635D01*
X149858Y171497D01*
X149876Y171340D01*
X149886Y171164D01*
Y171155D01*
Y171136D01*
Y171099D01*
Y171053D01*
X149876Y170988D01*
X149867Y170924D01*
X149848Y170766D01*
X149812Y170581D01*
X149756Y170396D01*
X149673Y170212D01*
X149571Y170036D01*
X149553Y170018D01*
X149516Y169962D01*
X149442Y169888D01*
X149349Y169796D01*
X149229Y169685D01*
X149081Y169564D01*
X148915Y169454D01*
X148730Y169352D01*
X150764Y166800D01*
X148924D01*
X147241Y169010D01*
X146705D01*
Y166800D01*
X145198D01*
Y172819D01*
X147796D01*
X147916Y172810D01*
D02*
G37*
G36*
X153417Y172939D02*
X153556Y172930D01*
X153704Y172921D01*
X153870Y172902D01*
X154037Y172865D01*
X154194Y172828D01*
X154203D01*
X154213Y172819D01*
X154268Y172810D01*
X154342Y172782D01*
X154434Y172745D01*
X154545Y172699D01*
X154656Y172643D01*
X154767Y172588D01*
X154869Y172514D01*
X154878Y172505D01*
X154915Y172477D01*
X154961Y172431D01*
X155026Y172375D01*
X155091Y172310D01*
X155165Y172227D01*
X155230Y172135D01*
X155294Y172033D01*
X155303Y172024D01*
X155322Y171987D01*
X155340Y171931D01*
X155368Y171857D01*
X155396Y171765D01*
X155424Y171663D01*
X155433Y171543D01*
X155442Y171423D01*
Y171404D01*
Y171349D01*
X155433Y171266D01*
X155414Y171164D01*
X155377Y171044D01*
X155340Y170914D01*
X155276Y170785D01*
X155192Y170646D01*
X155183Y170628D01*
X155146Y170591D01*
X155091Y170526D01*
X155008Y170443D01*
X154897Y170360D01*
X154767Y170258D01*
X154610Y170165D01*
X154434Y170073D01*
Y170045D01*
X154444D01*
X154462Y170036D01*
X154490Y170018D01*
X154536Y169999D01*
X154638Y169953D01*
X154767Y169879D01*
X154906Y169786D01*
X155054Y169675D01*
X155192Y169546D01*
X155313Y169407D01*
X155322Y169389D01*
X155359Y169342D01*
X155405Y169259D01*
X155461Y169148D01*
X155507Y169010D01*
X155553Y168853D01*
X155590Y168668D01*
X155599Y168473D01*
Y168455D01*
Y168409D01*
X155590Y168335D01*
X155581Y168242D01*
X155562Y168131D01*
X155525Y168002D01*
X155488Y167882D01*
X155433Y167752D01*
X155424Y167734D01*
X155405Y167697D01*
X155368Y167632D01*
X155313Y167558D01*
X155248Y167466D01*
X155174Y167364D01*
X155082Y167262D01*
X154971Y167170D01*
X154961Y167161D01*
X154915Y167133D01*
X154850Y167087D01*
X154767Y167031D01*
X154656Y166976D01*
X154527Y166911D01*
X154379Y166856D01*
X154222Y166800D01*
X154213D01*
X154203Y166791D01*
X154176D01*
X154148Y166782D01*
X154055Y166754D01*
X153926Y166735D01*
X153778Y166707D01*
X153611Y166680D01*
X153417Y166671D01*
X153214Y166661D01*
X153057D01*
X153001Y166671D01*
X152853Y166680D01*
X152687Y166698D01*
X152511Y166717D01*
X152326Y166754D01*
X152151Y166800D01*
X152142D01*
X152132Y166809D01*
X152077Y166828D01*
X151994Y166856D01*
X151892Y166902D01*
X151772Y166948D01*
X151642Y167013D01*
X151522Y167087D01*
X151402Y167170D01*
X151393Y167179D01*
X151356Y167216D01*
X151300Y167262D01*
X151245Y167327D01*
X151171Y167410D01*
X151106Y167512D01*
X151032Y167614D01*
X150976Y167734D01*
X150967Y167752D01*
X150958Y167789D01*
X150940Y167854D01*
X150912Y167937D01*
X150884Y168039D01*
X150866Y168159D01*
X150856Y168288D01*
X150847Y168418D01*
Y168427D01*
Y168446D01*
Y168464D01*
X150856Y168501D01*
X150866Y168603D01*
X150884Y168723D01*
X150912Y168853D01*
X150967Y169000D01*
X151032Y169139D01*
X151124Y169278D01*
X151134Y169296D01*
X151180Y169333D01*
X151245Y169398D01*
X151337Y169481D01*
X151448Y169564D01*
X151596Y169666D01*
X151762Y169759D01*
X151947Y169851D01*
Y169879D01*
X151938D01*
X151929Y169888D01*
X151901Y169907D01*
X151864Y169925D01*
X151772Y169981D01*
X151661Y170054D01*
X151531Y170147D01*
X151411Y170249D01*
X151300Y170369D01*
X151208Y170498D01*
X151198Y170517D01*
X151180Y170563D01*
X151143Y170637D01*
X151106Y170739D01*
X151069Y170859D01*
X151032Y170998D01*
X151013Y171155D01*
X151004Y171321D01*
Y171340D01*
Y171377D01*
X151013Y171441D01*
X151023Y171525D01*
X151041Y171617D01*
X151060Y171719D01*
X151097Y171830D01*
X151143Y171941D01*
X151152Y171950D01*
X151171Y171987D01*
X151208Y172042D01*
X151254Y172116D01*
X151319Y172199D01*
X151393Y172292D01*
X151476Y172375D01*
X151578Y172467D01*
X151587Y172477D01*
X151624Y172505D01*
X151688Y172542D01*
X151772Y172588D01*
X151873Y172643D01*
X151984Y172699D01*
X152123Y172754D01*
X152271Y172810D01*
X152280D01*
X152289Y172819D01*
X152345Y172828D01*
X152437Y172856D01*
X152548Y172884D01*
X152687Y172902D01*
X152853Y172930D01*
X153029Y172939D01*
X153223Y172948D01*
X153316D01*
X153417Y172939D01*
D02*
G37*
G36*
X215432Y171363D02*
X212862Y166546D01*
X211189D01*
X213861Y171428D01*
X211004D01*
Y172565D01*
X215432D01*
Y171363D01*
D02*
G37*
G36*
X207860Y172556D02*
X207999Y172546D01*
X208138Y172537D01*
X208295Y172519D01*
X208433Y172500D01*
X208452D01*
X208498Y172491D01*
X208563Y172472D01*
X208655Y172445D01*
X208766Y172408D01*
X208877Y172362D01*
X208997Y172306D01*
X209118Y172241D01*
X209136Y172232D01*
X209173Y172204D01*
X209229Y172158D01*
X209303Y172093D01*
X209386Y172019D01*
X209469Y171927D01*
X209561Y171825D01*
X209635Y171714D01*
X209645Y171696D01*
X209663Y171659D01*
X209700Y171585D01*
X209737Y171492D01*
X209765Y171381D01*
X209802Y171243D01*
X209820Y171086D01*
X209830Y170910D01*
Y170901D01*
Y170882D01*
Y170845D01*
Y170799D01*
X209820Y170734D01*
X209811Y170669D01*
X209792Y170512D01*
X209756Y170327D01*
X209700Y170142D01*
X209617Y169958D01*
X209515Y169782D01*
X209497Y169764D01*
X209460Y169708D01*
X209386Y169634D01*
X209293Y169542D01*
X209173Y169431D01*
X209025Y169310D01*
X208859Y169200D01*
X208674Y169098D01*
X210708Y166546D01*
X208868D01*
X207185Y168756D01*
X206649D01*
Y166546D01*
X205142D01*
Y172565D01*
X207740D01*
X207860Y172556D01*
D02*
G37*
G36*
X269321Y172921D02*
X269413D01*
X269515Y172911D01*
X269727Y172884D01*
X269737D01*
X269774Y172874D01*
X269829D01*
X269894Y172865D01*
X270023Y172847D01*
X270088Y172837D01*
X270134Y172828D01*
Y171645D01*
X270014D01*
X270005Y171654D01*
X269977Y171663D01*
X269940Y171672D01*
X269885Y171691D01*
X269829Y171709D01*
X269755Y171737D01*
X269672Y171756D01*
X269663D01*
X269626Y171765D01*
X269580Y171783D01*
X269515Y171793D01*
X269432Y171811D01*
X269339Y171820D01*
X269228Y171830D01*
X269053D01*
X269006Y171820D01*
X268942D01*
X268877Y171811D01*
X268720Y171783D01*
X268544Y171737D01*
X268359Y171672D01*
X268183Y171580D01*
X268026Y171451D01*
X268008Y171432D01*
X267962Y171386D01*
X267906Y171293D01*
X267823Y171182D01*
X267749Y171025D01*
X267666Y170850D01*
X267601Y170637D01*
X267555Y170387D01*
X267564Y170396D01*
X267610Y170415D01*
X267666Y170452D01*
X267740Y170498D01*
X267832Y170544D01*
X267934Y170591D01*
X268156Y170683D01*
X268174Y170692D01*
X268211Y170702D01*
X268276Y170720D01*
X268359Y170748D01*
X268461Y170766D01*
X268581Y170785D01*
X268710Y170794D01*
X268849Y170803D01*
X268969D01*
X269043Y170794D01*
X269136Y170785D01*
X269237Y170766D01*
X269450Y170711D01*
X269459D01*
X269496Y170692D01*
X269552Y170674D01*
X269626Y170646D01*
X269700Y170609D01*
X269783Y170572D01*
X269959Y170461D01*
X269977Y170452D01*
X270014Y170415D01*
X270070Y170369D01*
X270144Y170295D01*
X270217Y170202D01*
X270301Y170091D01*
X270384Y169971D01*
X270458Y169833D01*
X270467Y169814D01*
X270486Y169759D01*
X270513Y169675D01*
X270550Y169564D01*
X270587Y169417D01*
X270615Y169250D01*
X270634Y169056D01*
X270643Y168843D01*
Y168834D01*
Y168797D01*
Y168751D01*
X270634Y168686D01*
X270624Y168603D01*
X270615Y168510D01*
X270597Y168409D01*
X270569Y168288D01*
X270495Y168048D01*
X270449Y167910D01*
X270384Y167780D01*
X270319Y167651D01*
X270236Y167521D01*
X270144Y167401D01*
X270033Y167281D01*
X270023Y167271D01*
X270005Y167253D01*
X269968Y167225D01*
X269922Y167188D01*
X269866Y167142D01*
X269792Y167087D01*
X269700Y167031D01*
X269598Y166976D01*
X269487Y166920D01*
X269367Y166865D01*
X269228Y166809D01*
X269090Y166763D01*
X268923Y166726D01*
X268757Y166698D01*
X268581Y166680D01*
X268387Y166671D01*
X268294D01*
X268202Y166680D01*
X268072Y166689D01*
X267925Y166707D01*
X267767Y166735D01*
X267601Y166772D01*
X267444Y166819D01*
X267425Y166828D01*
X267379Y166846D01*
X267296Y166883D01*
X267204Y166929D01*
X267092Y166994D01*
X266982Y167068D01*
X266861Y167161D01*
X266750Y167262D01*
X266732Y167281D01*
X266695Y167327D01*
X266630Y167401D01*
X266556Y167503D01*
X266473Y167632D01*
X266381Y167789D01*
X266297Y167965D01*
X266223Y168159D01*
Y168168D01*
X266214Y168187D01*
X266205Y168215D01*
X266196Y168261D01*
X266186Y168307D01*
X266168Y168372D01*
X266150Y168446D01*
X266140Y168529D01*
X266103Y168723D01*
X266075Y168945D01*
X266057Y169195D01*
X266048Y169472D01*
Y169481D01*
Y169509D01*
Y169546D01*
Y169611D01*
X266057Y169675D01*
Y169759D01*
X266066Y169851D01*
Y169944D01*
X266085Y170165D01*
X266122Y170396D01*
X266159Y170646D01*
X266214Y170877D01*
Y170887D01*
X266223Y170905D01*
X266233Y170942D01*
X266251Y170979D01*
X266260Y171035D01*
X266288Y171099D01*
X266344Y171247D01*
X266427Y171414D01*
X266519Y171598D01*
X266630Y171783D01*
X266769Y171968D01*
Y171978D01*
X266787Y171987D01*
X266834Y172042D01*
X266917Y172125D01*
X267028Y172227D01*
X267157Y172338D01*
X267324Y172458D01*
X267509Y172569D01*
X267721Y172671D01*
X267731D01*
X267749Y172680D01*
X267786Y172699D01*
X267832Y172708D01*
X267888Y172736D01*
X267952Y172754D01*
X268036Y172773D01*
X268128Y172800D01*
X268221Y172828D01*
X268331Y172847D01*
X268572Y172893D01*
X268840Y172921D01*
X269136Y172930D01*
X269247D01*
X269321Y172921D01*
D02*
G37*
G36*
X262978Y172810D02*
X263117Y172800D01*
X263256Y172791D01*
X263413Y172773D01*
X263551Y172754D01*
X263570D01*
X263616Y172745D01*
X263681Y172726D01*
X263773Y172699D01*
X263884Y172662D01*
X263995Y172616D01*
X264115Y172560D01*
X264236Y172495D01*
X264254Y172486D01*
X264291Y172458D01*
X264347Y172412D01*
X264421Y172347D01*
X264504Y172273D01*
X264587Y172181D01*
X264679Y172079D01*
X264753Y171968D01*
X264763Y171950D01*
X264781Y171913D01*
X264818Y171839D01*
X264855Y171746D01*
X264883Y171635D01*
X264920Y171497D01*
X264938Y171340D01*
X264947Y171164D01*
Y171155D01*
Y171136D01*
Y171099D01*
Y171053D01*
X264938Y170988D01*
X264929Y170924D01*
X264911Y170766D01*
X264874Y170581D01*
X264818Y170396D01*
X264735Y170212D01*
X264633Y170036D01*
X264615Y170018D01*
X264578Y169962D01*
X264504Y169888D01*
X264411Y169796D01*
X264291Y169685D01*
X264143Y169564D01*
X263977Y169454D01*
X263792Y169352D01*
X265826Y166800D01*
X263986D01*
X262303Y169010D01*
X261767D01*
Y166800D01*
X260260D01*
Y172819D01*
X262858D01*
X262978Y172810D01*
D02*
G37*
G36*
X330319Y171682D02*
X327758D01*
Y170674D01*
X327804D01*
X327841Y170683D01*
X327933D01*
X328044Y170692D01*
X328100D01*
X328137Y170702D01*
X328460D01*
X328571Y170692D01*
X328691Y170683D01*
X328830Y170665D01*
X329108Y170609D01*
X329126D01*
X329172Y170591D01*
X329237Y170572D01*
X329329Y170544D01*
X329431Y170508D01*
X329533Y170461D01*
X329644Y170406D01*
X329755Y170341D01*
X329773Y170332D01*
X329810Y170304D01*
X329875Y170249D01*
X329949Y170184D01*
X330032Y170101D01*
X330125Y169990D01*
X330217Y169879D01*
X330291Y169740D01*
X330300Y169722D01*
X330319Y169675D01*
X330356Y169592D01*
X330393Y169491D01*
X330420Y169361D01*
X330457Y169204D01*
X330476Y169028D01*
X330485Y168834D01*
Y168825D01*
Y168815D01*
Y168788D01*
Y168751D01*
X330476Y168668D01*
X330467Y168547D01*
X330448Y168409D01*
X330411Y168261D01*
X330374Y168113D01*
X330319Y167956D01*
X330309Y167937D01*
X330291Y167891D01*
X330254Y167817D01*
X330199Y167725D01*
X330134Y167614D01*
X330051Y167503D01*
X329949Y167383D01*
X329838Y167271D01*
X329819Y167262D01*
X329782Y167225D01*
X329718Y167170D01*
X329625Y167105D01*
X329514Y167040D01*
X329394Y166966D01*
X329246Y166893D01*
X329089Y166828D01*
X329080D01*
X329071Y166819D01*
X329043Y166809D01*
X329015Y166800D01*
X328923Y166782D01*
X328793Y166754D01*
X328636Y166717D01*
X328460Y166698D01*
X328248Y166680D01*
X328026Y166671D01*
X327915D01*
X327859Y166680D01*
X327785D01*
X327628Y166689D01*
X327443Y166707D01*
X327258Y166726D01*
X327055Y166754D01*
X326870Y166791D01*
X326861D01*
X326852Y166800D01*
X326824D01*
X326787Y166809D01*
X326704Y166828D01*
X326593Y166856D01*
X326463Y166893D01*
X326334Y166939D01*
X326195Y166985D01*
X326075Y167031D01*
Y168344D01*
X326214D01*
X326223Y168335D01*
X326278Y168298D01*
X326362Y168242D01*
X326463Y168187D01*
X326473D01*
X326491Y168178D01*
X326519Y168159D01*
X326565Y168141D01*
X326611Y168113D01*
X326676Y168085D01*
X326750Y168057D01*
X326833Y168020D01*
X326842D01*
X326870Y168011D01*
X326916Y167993D01*
X326972Y167974D01*
X327037Y167946D01*
X327110Y167928D01*
X327268Y167882D01*
X327277D01*
X327305Y167873D01*
X327351Y167863D01*
X327416Y167854D01*
X327490Y167845D01*
X327573Y167836D01*
X327758Y167826D01*
X327850D01*
X327915Y167836D01*
X327989D01*
X328072Y167854D01*
X328266Y167882D01*
X328275D01*
X328312Y167891D01*
X328359Y167910D01*
X328423Y167928D01*
X328571Y167993D01*
X328636Y168039D01*
X328701Y168094D01*
X328710Y168104D01*
X328719Y168113D01*
X328775Y168178D01*
X328839Y168261D01*
X328895Y168363D01*
Y168372D01*
X328904Y168390D01*
X328923Y168427D01*
X328932Y168473D01*
X328950Y168529D01*
X328960Y168603D01*
X328969Y168686D01*
Y168779D01*
Y168788D01*
Y168815D01*
Y168853D01*
X328960Y168908D01*
X328932Y169019D01*
X328876Y169139D01*
Y169148D01*
X328858Y169167D01*
X328839Y169195D01*
X328821Y169232D01*
X328747Y169315D01*
X328645Y169389D01*
X328636Y169398D01*
X328608Y169407D01*
X328562Y169435D01*
X328507Y169463D01*
X328433Y169491D01*
X328349Y169518D01*
X328257Y169546D01*
X328146Y169564D01*
X328137D01*
X328100Y169574D01*
X328044Y169583D01*
X327980Y169592D01*
X327896D01*
X327813Y169601D01*
X327647Y169611D01*
X327527D01*
X327443Y169601D01*
X327342D01*
X327231Y169592D01*
X327000Y169555D01*
X326990D01*
X326944Y169546D01*
X326889Y169537D01*
X326815Y169518D01*
X326731Y169500D01*
X326639Y169481D01*
X326463Y169444D01*
X326334D01*
Y172819D01*
X330319D01*
Y171682D01*
D02*
G37*
G36*
X322922Y172810D02*
X323061Y172800D01*
X323200Y172791D01*
X323357Y172773D01*
X323495Y172754D01*
X323514D01*
X323560Y172745D01*
X323625Y172726D01*
X323717Y172699D01*
X323828Y172662D01*
X323939Y172616D01*
X324059Y172560D01*
X324180Y172495D01*
X324198Y172486D01*
X324235Y172458D01*
X324291Y172412D01*
X324365Y172347D01*
X324448Y172273D01*
X324531Y172181D01*
X324623Y172079D01*
X324697Y171968D01*
X324707Y171950D01*
X324725Y171913D01*
X324762Y171839D01*
X324799Y171746D01*
X324827Y171635D01*
X324864Y171497D01*
X324882Y171340D01*
X324892Y171164D01*
Y171155D01*
Y171136D01*
Y171099D01*
Y171053D01*
X324882Y170988D01*
X324873Y170924D01*
X324855Y170766D01*
X324818Y170581D01*
X324762Y170396D01*
X324679Y170212D01*
X324577Y170036D01*
X324559Y170018D01*
X324522Y169962D01*
X324448Y169888D01*
X324355Y169796D01*
X324235Y169685D01*
X324087Y169564D01*
X323921Y169454D01*
X323736Y169352D01*
X325770Y166800D01*
X323930D01*
X322247Y169010D01*
X321711D01*
Y166800D01*
X320204D01*
Y172819D01*
X322802D01*
X322922Y172810D01*
D02*
G37*
G36*
X382866Y172556D02*
X383005Y172546D01*
X383144Y172537D01*
X383301Y172519D01*
X383439Y172500D01*
X383458D01*
X383504Y172491D01*
X383569Y172472D01*
X383661Y172445D01*
X383772Y172408D01*
X383883Y172362D01*
X384003Y172306D01*
X384124Y172241D01*
X384142Y172232D01*
X384179Y172204D01*
X384235Y172158D01*
X384309Y172093D01*
X384392Y172019D01*
X384475Y171927D01*
X384567Y171825D01*
X384641Y171714D01*
X384651Y171696D01*
X384669Y171659D01*
X384706Y171585D01*
X384743Y171492D01*
X384771Y171381D01*
X384808Y171243D01*
X384826Y171086D01*
X384836Y170910D01*
Y170901D01*
Y170882D01*
Y170845D01*
Y170799D01*
X384826Y170734D01*
X384817Y170669D01*
X384799Y170512D01*
X384762Y170327D01*
X384706Y170142D01*
X384623Y169958D01*
X384521Y169782D01*
X384503Y169764D01*
X384466Y169708D01*
X384392Y169634D01*
X384299Y169542D01*
X384179Y169431D01*
X384031Y169310D01*
X383865Y169200D01*
X383680Y169098D01*
X385714Y166546D01*
X383874D01*
X382191Y168756D01*
X381655D01*
Y166546D01*
X380148D01*
Y172565D01*
X382746D01*
X382866Y172556D01*
D02*
G37*
G36*
X389828Y169033D02*
X390642D01*
Y167951D01*
X389828D01*
Y166528D01*
X388358D01*
Y167951D01*
X385723D01*
Y169070D01*
X388303Y172565D01*
X389828D01*
Y169033D01*
D02*
G37*
G36*
X448436Y172939D02*
X448556D01*
X448704Y172921D01*
X448861Y172902D01*
X449018Y172884D01*
X449166Y172847D01*
X449185D01*
X449231Y172828D01*
X449305Y172810D01*
X449398Y172782D01*
X449508Y172745D01*
X449619Y172699D01*
X449730Y172643D01*
X449841Y172579D01*
X449851Y172569D01*
X449888Y172542D01*
X449943Y172505D01*
X450017Y172449D01*
X450091Y172384D01*
X450165Y172301D01*
X450239Y172199D01*
X450303Y172098D01*
X450313Y172089D01*
X450331Y172042D01*
X450350Y171987D01*
X450387Y171904D01*
X450415Y171802D01*
X450433Y171691D01*
X450451Y171571D01*
X450461Y171432D01*
Y171423D01*
Y171414D01*
Y171386D01*
Y171349D01*
X450442Y171247D01*
X450424Y171127D01*
X450387Y170988D01*
X450331Y170840D01*
X450257Y170683D01*
X450156Y170535D01*
X450146Y170517D01*
X450100Y170471D01*
X450035Y170406D01*
X449952Y170332D01*
X449832Y170239D01*
X449703Y170165D01*
X449555Y170091D01*
X449379Y170036D01*
Y169981D01*
X449388D01*
X449416Y169971D01*
X449453Y169962D01*
X449508Y169953D01*
X449573Y169934D01*
X449647Y169916D01*
X449795Y169869D01*
X449804D01*
X449832Y169851D01*
X449869Y169833D01*
X449924Y169814D01*
X450045Y169731D01*
X450119Y169685D01*
X450193Y169620D01*
X450202Y169611D01*
X450220Y169592D01*
X450257Y169555D01*
X450303Y169509D01*
X450350Y169454D01*
X450396Y169380D01*
X450451Y169306D01*
X450498Y169213D01*
X450507Y169204D01*
X450516Y169167D01*
X450535Y169121D01*
X450562Y169047D01*
X450581Y168964D01*
X450599Y168862D01*
X450609Y168742D01*
X450618Y168621D01*
Y168612D01*
Y168603D01*
Y168547D01*
X450609Y168464D01*
X450599Y168353D01*
X450581Y168224D01*
X450544Y168094D01*
X450507Y167946D01*
X450451Y167808D01*
X450442Y167789D01*
X450424Y167752D01*
X450387Y167678D01*
X450331Y167595D01*
X450257Y167503D01*
X450183Y167392D01*
X450082Y167290D01*
X449971Y167188D01*
X449952Y167179D01*
X449915Y167151D01*
X449841Y167105D01*
X449758Y167050D01*
X449647Y166985D01*
X449518Y166920D01*
X449370Y166856D01*
X449212Y166800D01*
X449203D01*
X449194Y166791D01*
X449166D01*
X449139Y166782D01*
X449046Y166763D01*
X448926Y166735D01*
X448769Y166707D01*
X448593Y166689D01*
X448390Y166680D01*
X448168Y166671D01*
X447992D01*
X447918Y166680D01*
X447752Y166689D01*
X447567Y166698D01*
X447363Y166726D01*
X447160Y166754D01*
X446966Y166791D01*
X446957D01*
X446947Y166800D01*
X446920D01*
X446883Y166809D01*
X446790Y166837D01*
X446679Y166865D01*
X446550Y166902D01*
X446411Y166948D01*
X446282Y166994D01*
X446152Y167050D01*
Y168353D01*
X446291D01*
X446309Y168344D01*
X446346Y168316D01*
X446420Y168279D01*
X446513Y168224D01*
X446624Y168159D01*
X446763Y168104D01*
X446910Y168039D01*
X447068Y167974D01*
X447077D01*
X447086Y167965D01*
X447141Y167956D01*
X447234Y167928D01*
X447345Y167900D01*
X447465Y167873D01*
X447604Y167854D01*
X447752Y167836D01*
X447890Y167826D01*
X447974D01*
X448029Y167836D01*
X448103D01*
X448177Y167845D01*
X448362Y167863D01*
X448371D01*
X448408Y167873D01*
X448454Y167882D01*
X448510Y167900D01*
X448658Y167946D01*
X448797Y168030D01*
X448806Y168039D01*
X448824Y168048D01*
X448880Y168104D01*
X448944Y168178D01*
X449018Y168279D01*
Y168288D01*
X449028Y168307D01*
X449046Y168344D01*
X449065Y168390D01*
X449074Y168455D01*
X449092Y168529D01*
X449102Y168612D01*
Y168705D01*
Y168714D01*
Y168751D01*
X449092Y168797D01*
X449083Y168862D01*
X449055Y169000D01*
X449018Y169065D01*
X448981Y169121D01*
X448972Y169130D01*
X448963Y169148D01*
X448935Y169167D01*
X448898Y169204D01*
X448797Y169269D01*
X448667Y169333D01*
X448658D01*
X448630Y169342D01*
X448593Y169361D01*
X448538Y169370D01*
X448473Y169389D01*
X448390Y169398D01*
X448307Y169407D01*
X448205Y169417D01*
X448112D01*
X448048Y169426D01*
X447474D01*
Y170480D01*
X447872D01*
X447946Y170489D01*
X448029D01*
X448205Y170498D01*
X448214D01*
X448242Y170508D01*
X448288D01*
X448344Y170526D01*
X448473Y170554D01*
X448602Y170600D01*
X448612D01*
X448630Y170618D01*
X448658Y170628D01*
X448695Y170655D01*
X448778Y170720D01*
X448852Y170813D01*
Y170822D01*
X448871Y170840D01*
X448880Y170868D01*
X448898Y170914D01*
X448917Y170961D01*
X448926Y171025D01*
X448944Y171099D01*
Y171182D01*
Y171192D01*
Y171210D01*
Y171247D01*
X448935Y171293D01*
X448907Y171386D01*
X448852Y171478D01*
Y171488D01*
X448834Y171497D01*
X448797Y171543D01*
X448732Y171608D01*
X448649Y171663D01*
X448639D01*
X448621Y171672D01*
X448593Y171691D01*
X448547Y171700D01*
X448445Y171737D01*
X448307Y171765D01*
X448297D01*
X448279Y171774D01*
X448242D01*
X448195Y171783D01*
X448085Y171793D01*
X447890D01*
X447835Y171783D01*
X447770D01*
X447687Y171774D01*
X447521Y171737D01*
X447511D01*
X447484Y171728D01*
X447437Y171719D01*
X447382Y171700D01*
X447317Y171682D01*
X447243Y171654D01*
X447077Y171598D01*
X447068D01*
X447049Y171589D01*
X447012Y171571D01*
X446975Y171552D01*
X446855Y171497D01*
X446726Y171432D01*
X446716D01*
X446698Y171414D01*
X446661Y171395D01*
X446624Y171377D01*
X446531Y171330D01*
X446448Y171284D01*
X446328D01*
Y172569D01*
X446346Y172579D01*
X446383Y172588D01*
X446448Y172616D01*
X446550Y172652D01*
X446670Y172689D01*
X446809Y172726D01*
X446975Y172773D01*
X447160Y172819D01*
X447169D01*
X447188Y172828D01*
X447215D01*
X447253Y172837D01*
X447299Y172847D01*
X447354Y172856D01*
X447493Y172884D01*
X447659Y172911D01*
X447835Y172930D01*
X448038Y172939D01*
X448242Y172948D01*
X448334D01*
X448436Y172939D01*
D02*
G37*
G36*
X443064Y172810D02*
X443203Y172800D01*
X443342Y172791D01*
X443499Y172773D01*
X443637Y172754D01*
X443656D01*
X443702Y172745D01*
X443767Y172726D01*
X443859Y172699D01*
X443970Y172662D01*
X444081Y172616D01*
X444201Y172560D01*
X444322Y172495D01*
X444340Y172486D01*
X444377Y172458D01*
X444433Y172412D01*
X444506Y172347D01*
X444590Y172273D01*
X444673Y172181D01*
X444765Y172079D01*
X444839Y171968D01*
X444849Y171950D01*
X444867Y171913D01*
X444904Y171839D01*
X444941Y171746D01*
X444969Y171635D01*
X445006Y171497D01*
X445024Y171340D01*
X445033Y171164D01*
Y171155D01*
Y171136D01*
Y171099D01*
Y171053D01*
X445024Y170988D01*
X445015Y170924D01*
X444996Y170766D01*
X444960Y170581D01*
X444904Y170396D01*
X444821Y170212D01*
X444719Y170036D01*
X444701Y170018D01*
X444664Y169962D01*
X444590Y169888D01*
X444497Y169796D01*
X444377Y169685D01*
X444229Y169564D01*
X444063Y169454D01*
X443878Y169352D01*
X445912Y166800D01*
X444072D01*
X442389Y169010D01*
X441853D01*
Y166800D01*
X440346D01*
Y172819D01*
X442944D01*
X443064Y172810D01*
D02*
G37*
G36*
X508445Y172667D02*
X508537Y172657D01*
X508639Y172648D01*
X508750Y172639D01*
X508879Y172620D01*
X509138Y172556D01*
X509406Y172472D01*
X509545Y172417D01*
X509665Y172352D01*
X509785Y172278D01*
X509896Y172195D01*
X509905Y172186D01*
X509924Y172177D01*
X509952Y172149D01*
X509979Y172103D01*
X510026Y172056D01*
X510072Y172001D01*
X510118Y171927D01*
X510174Y171844D01*
X510229Y171761D01*
X510275Y171659D01*
X510322Y171548D01*
X510368Y171428D01*
X510395Y171298D01*
X510423Y171160D01*
X510442Y171012D01*
X510451Y170854D01*
Y170845D01*
Y170827D01*
Y170799D01*
Y170762D01*
X510442Y170716D01*
Y170660D01*
X510423Y170522D01*
X510386Y170364D01*
X510340Y170189D01*
X510275Y170004D01*
X510192Y169810D01*
Y169800D01*
X510183Y169791D01*
X510164Y169764D01*
X510146Y169717D01*
X510118Y169671D01*
X510081Y169615D01*
X509998Y169486D01*
X509878Y169320D01*
X509739Y169135D01*
X509563Y168931D01*
X509360Y168719D01*
X509342Y168700D01*
X509295Y168654D01*
X509230Y168589D01*
X509138Y168506D01*
X509027Y168404D01*
X508916Y168293D01*
X508657Y168071D01*
X508639Y168062D01*
X508602Y168025D01*
X508537Y167979D01*
X508463Y167924D01*
X508306Y167794D01*
X508223Y167729D01*
X508158Y167683D01*
X510710D01*
Y166546D01*
X506290D01*
Y167526D01*
X506300Y167535D01*
X506318Y167544D01*
X506346Y167572D01*
X506383Y167600D01*
X506494Y167683D01*
X506623Y167794D01*
X506780Y167924D01*
X506947Y168062D01*
X507122Y168210D01*
X507289Y168358D01*
X507298Y168367D01*
X507307Y168377D01*
X507363Y168423D01*
X507446Y168506D01*
X507557Y168598D01*
X507687Y168719D01*
X507816Y168848D01*
X507955Y168978D01*
X508084Y169116D01*
X508093Y169125D01*
X508102Y169135D01*
X508158Y169190D01*
X508232Y169283D01*
X508334Y169394D01*
X508435Y169514D01*
X508537Y169653D01*
X508639Y169791D01*
X508722Y169930D01*
X508731Y169948D01*
X508750Y169995D01*
X508787Y170059D01*
X508824Y170152D01*
X508861Y170263D01*
X508898Y170383D01*
X508916Y170512D01*
X508925Y170651D01*
Y170660D01*
Y170669D01*
Y170716D01*
X508916Y170799D01*
X508898Y170891D01*
X508861Y170993D01*
X508815Y171095D01*
X508750Y171196D01*
X508666Y171289D01*
X508657Y171298D01*
X508620Y171326D01*
X508565Y171363D01*
X508491Y171409D01*
X508389Y171446D01*
X508269Y171483D01*
X508130Y171511D01*
X507973Y171520D01*
X507890D01*
X507834Y171511D01*
X507770Y171502D01*
X507696Y171492D01*
X507539Y171455D01*
X507529D01*
X507502Y171446D01*
X507465Y171437D01*
X507409Y171418D01*
X507344Y171400D01*
X507280Y171372D01*
X507122Y171317D01*
X507113D01*
X507085Y171298D01*
X507048Y171280D01*
X507002Y171261D01*
X506891Y171196D01*
X506771Y171123D01*
X506762D01*
X506743Y171104D01*
X506688Y171067D01*
X506614Y171021D01*
X506549Y170984D01*
X506438D01*
Y172297D01*
X506448Y172306D01*
X506485Y172315D01*
X506549Y172343D01*
X506632Y172371D01*
X506743Y172408D01*
X506873Y172454D01*
X507039Y172500D01*
X507224Y172546D01*
X507234D01*
X507252Y172556D01*
X507280D01*
X507317Y172565D01*
X507363Y172574D01*
X507428Y172583D01*
X507557Y172611D01*
X507724Y172639D01*
X507899Y172657D01*
X508084Y172667D01*
X508269Y172676D01*
X508371D01*
X508445Y172667D01*
D02*
G37*
G36*
X503008Y172556D02*
X503147Y172546D01*
X503286Y172537D01*
X503443Y172519D01*
X503581Y172500D01*
X503600D01*
X503646Y172491D01*
X503711Y172472D01*
X503803Y172445D01*
X503914Y172408D01*
X504025Y172362D01*
X504145Y172306D01*
X504266Y172241D01*
X504284Y172232D01*
X504321Y172204D01*
X504377Y172158D01*
X504450Y172093D01*
X504534Y172019D01*
X504617Y171927D01*
X504709Y171825D01*
X504783Y171714D01*
X504793Y171696D01*
X504811Y171659D01*
X504848Y171585D01*
X504885Y171492D01*
X504913Y171381D01*
X504950Y171243D01*
X504968Y171086D01*
X504977Y170910D01*
Y170901D01*
Y170882D01*
Y170845D01*
Y170799D01*
X504968Y170734D01*
X504959Y170669D01*
X504940Y170512D01*
X504904Y170327D01*
X504848Y170142D01*
X504765Y169958D01*
X504663Y169782D01*
X504645Y169764D01*
X504608Y169708D01*
X504534Y169634D01*
X504441Y169542D01*
X504321Y169431D01*
X504173Y169310D01*
X504007Y169200D01*
X503822Y169098D01*
X505856Y166546D01*
X504016D01*
X502333Y168756D01*
X501797D01*
Y166546D01*
X500290D01*
Y172565D01*
X502888D01*
X503008Y172556D01*
D02*
G37*
G36*
X564076Y167600D02*
X565315D01*
Y166546D01*
X561339D01*
Y167600D01*
X562606D01*
Y170771D01*
X561339D01*
Y171751D01*
X561515D01*
X561598Y171761D01*
X561691D01*
X561885Y171779D01*
X561894D01*
X561931Y171788D01*
X561977Y171798D01*
X562042Y171807D01*
X562190Y171844D01*
X562264Y171871D01*
X562329Y171899D01*
X562338Y171908D01*
X562356Y171918D01*
X562393Y171936D01*
X562439Y171973D01*
X562532Y172047D01*
X562625Y172158D01*
X562634Y172167D01*
X562643Y172186D01*
X562661Y172223D01*
X562680Y172269D01*
X562708Y172334D01*
X562726Y172408D01*
X562745Y172482D01*
X562754Y172574D01*
X564076D01*
Y167600D01*
D02*
G37*
G36*
X557872Y172556D02*
X558011Y172546D01*
X558150Y172537D01*
X558307Y172519D01*
X558445Y172500D01*
X558464D01*
X558510Y172491D01*
X558575Y172472D01*
X558667Y172445D01*
X558778Y172408D01*
X558889Y172362D01*
X559009Y172306D01*
X559130Y172241D01*
X559148Y172232D01*
X559185Y172204D01*
X559241Y172158D01*
X559314Y172093D01*
X559398Y172019D01*
X559481Y171927D01*
X559573Y171825D01*
X559647Y171714D01*
X559657Y171696D01*
X559675Y171659D01*
X559712Y171585D01*
X559749Y171492D01*
X559777Y171381D01*
X559814Y171243D01*
X559832Y171086D01*
X559841Y170910D01*
Y170901D01*
Y170882D01*
Y170845D01*
Y170799D01*
X559832Y170734D01*
X559823Y170669D01*
X559804Y170512D01*
X559768Y170327D01*
X559712Y170142D01*
X559629Y169958D01*
X559527Y169782D01*
X559509Y169764D01*
X559472Y169708D01*
X559398Y169634D01*
X559305Y169542D01*
X559185Y169431D01*
X559037Y169310D01*
X558871Y169200D01*
X558686Y169098D01*
X560720Y166546D01*
X558880D01*
X557197Y168756D01*
X556661D01*
Y166546D01*
X555154D01*
Y172565D01*
X557752D01*
X557872Y172556D01*
D02*
G37*
G36*
X65282Y212842D02*
X65365D01*
X65467Y212833D01*
X65679Y212824D01*
X65911Y212796D01*
X66142Y212768D01*
X66373Y212722D01*
X66382D01*
X66401Y212713D01*
X66428D01*
X66465Y212694D01*
X66576Y212666D01*
X66715Y212620D01*
X66872Y212565D01*
X67029Y212500D01*
X67196Y212417D01*
X67353Y212324D01*
X67372Y212315D01*
X67418Y212278D01*
X67482Y212213D01*
X67575Y212130D01*
X67667Y212029D01*
X67769Y211899D01*
X67861Y211760D01*
X67945Y211603D01*
Y211594D01*
X67954Y211585D01*
X67963Y211557D01*
X67972Y211529D01*
X68009Y211437D01*
X68037Y211307D01*
X68074Y211150D01*
X68111Y210965D01*
X68130Y210762D01*
X68139Y210531D01*
Y210429D01*
X68130Y210374D01*
Y210309D01*
X68111Y210161D01*
X68093Y209985D01*
X68056Y209810D01*
X68009Y209625D01*
X67945Y209449D01*
Y209440D01*
X67935Y209431D01*
X67908Y209375D01*
X67861Y209301D01*
X67797Y209199D01*
X67704Y209079D01*
X67603Y208959D01*
X67482Y208839D01*
X67344Y208728D01*
X67334D01*
X67325Y208719D01*
X67270Y208682D01*
X67187Y208635D01*
X67076Y208580D01*
X66928Y208515D01*
X66761Y208451D01*
X66576Y208386D01*
X66364Y208330D01*
X66354D01*
X66336Y208321D01*
X66308D01*
X66262Y208312D01*
X66206Y208303D01*
X66142Y208293D01*
X66059Y208284D01*
X65975Y208275D01*
X65772Y208247D01*
X65541Y208229D01*
X65282Y208219D01*
X65005Y208210D01*
X64995D01*
X64968D01*
X64931D01*
X64866D01*
X64801D01*
X64718Y208219D01*
X64626D01*
X64533Y208229D01*
X64320Y208238D01*
X64089Y208266D01*
X63858Y208293D01*
X63636Y208330D01*
X63627D01*
X63608Y208340D01*
X63581D01*
X63544Y208358D01*
X63433Y208386D01*
X63303Y208423D01*
X63146Y208478D01*
X62989Y208552D01*
X62813Y208635D01*
X62656Y208737D01*
X62647D01*
X62638Y208746D01*
X62592Y208793D01*
X62517Y208848D01*
X62434Y208941D01*
X62333Y209042D01*
X62240Y209162D01*
X62148Y209310D01*
X62064Y209468D01*
Y209477D01*
X62055Y209486D01*
X62046Y209514D01*
X62037Y209551D01*
X62000Y209643D01*
X61963Y209763D01*
X61926Y209921D01*
X61889Y210105D01*
X61870Y210309D01*
X61861Y210531D01*
Y210642D01*
X61870Y210697D01*
Y210762D01*
X61889Y210910D01*
X61917Y211076D01*
X61954Y211261D01*
X62000Y211446D01*
X62074Y211612D01*
Y211622D01*
X62083Y211631D01*
X62111Y211686D01*
X62157Y211760D01*
X62222Y211862D01*
X62314Y211973D01*
X62416Y212093D01*
X62536Y212213D01*
X62684Y212324D01*
X62702Y212334D01*
X62758Y212371D01*
X62841Y212417D01*
X62952Y212482D01*
X63091Y212546D01*
X63257Y212611D01*
X63451Y212666D01*
X63664Y212722D01*
X63673D01*
X63692Y212731D01*
X63720D01*
X63766Y212740D01*
X63821Y212750D01*
X63886Y212759D01*
X63960Y212777D01*
X64052Y212787D01*
X64247Y212814D01*
X64478Y212833D01*
X64727Y212842D01*
X65005Y212851D01*
X65014D01*
X65042D01*
X65079D01*
X65134D01*
X65199D01*
X65282Y212842D01*
D02*
G37*
G36*
X68009Y203421D02*
X66955D01*
Y204688D01*
X63784D01*
Y203421D01*
X62804D01*
Y203596D01*
X62795Y203680D01*
Y203772D01*
X62776Y203966D01*
Y203976D01*
X62767Y204013D01*
X62758Y204059D01*
X62749Y204123D01*
X62712Y204272D01*
X62684Y204345D01*
X62656Y204410D01*
X62647Y204419D01*
X62638Y204438D01*
X62619Y204475D01*
X62582Y204521D01*
X62508Y204614D01*
X62397Y204706D01*
X62388Y204715D01*
X62370Y204725D01*
X62333Y204743D01*
X62286Y204762D01*
X62222Y204789D01*
X62148Y204808D01*
X62074Y204826D01*
X61981Y204835D01*
Y206158D01*
X66955D01*
Y207397D01*
X68009D01*
Y203421D01*
D02*
G37*
G36*
X65153Y202348D02*
X65226D01*
X65319Y202339D01*
X65411Y202330D01*
X65513Y202311D01*
X65753Y202265D01*
X66003Y202201D01*
X66262Y202108D01*
X66521Y201988D01*
X66530D01*
X66549Y201969D01*
X66586Y201951D01*
X66632Y201923D01*
X66687Y201886D01*
X66743Y201840D01*
X66891Y201729D01*
X67057Y201600D01*
X67224Y201442D01*
X67390Y201257D01*
X67538Y201054D01*
Y201045D01*
X67547Y201035D01*
X67566Y201008D01*
X67584Y200971D01*
X67640Y200878D01*
X67704Y200749D01*
X67769Y200601D01*
X67834Y200425D01*
X67889Y200231D01*
X67926Y200028D01*
Y200000D01*
X67935Y199972D01*
Y199935D01*
X67945Y199880D01*
X67954Y199824D01*
X67963Y199676D01*
X67982Y199501D01*
X68000Y199307D01*
X68009Y199085D01*
Y196977D01*
X61990D01*
Y199075D01*
X62000Y199233D01*
X62009Y199408D01*
X62028Y199612D01*
X62046Y199815D01*
X62074Y200028D01*
Y200056D01*
X62083Y200083D01*
X62092Y200120D01*
X62101Y200176D01*
X62120Y200231D01*
X62157Y200370D01*
X62203Y200527D01*
X62277Y200703D01*
X62360Y200888D01*
X62471Y201073D01*
Y201082D01*
X62490Y201100D01*
X62508Y201128D01*
X62536Y201174D01*
X62628Y201276D01*
X62739Y201415D01*
X62887Y201562D01*
X63063Y201720D01*
X63266Y201868D01*
X63498Y202006D01*
X63507D01*
X63525Y202025D01*
X63562Y202043D01*
X63608Y202062D01*
X63673Y202090D01*
X63747Y202117D01*
X63830Y202145D01*
X63923Y202182D01*
X64034Y202219D01*
X64145Y202247D01*
X64404Y202302D01*
X64700Y202339D01*
X65014Y202358D01*
X65023D01*
X65051D01*
X65097D01*
X65153Y202348D01*
D02*
G37*
G36*
X68009Y191882D02*
X61990D01*
Y195960D01*
X63137D01*
Y193389D01*
X64191D01*
Y195756D01*
X65337D01*
Y193389D01*
X66863D01*
Y195960D01*
X68009D01*
Y191882D01*
D02*
G37*
G36*
Y187149D02*
X61990D01*
Y188656D01*
X66863D01*
Y191171D01*
X68009D01*
Y187149D01*
D02*
G37*
G36*
X124861Y210566D02*
X124944D01*
X125037Y210556D01*
X125129D01*
X125351Y210529D01*
X125592Y210501D01*
X125832Y210455D01*
X126082Y210390D01*
X126091D01*
X126110Y210381D01*
X126146Y210371D01*
X126193Y210353D01*
X126239Y210334D01*
X126304Y210316D01*
X126461Y210251D01*
X126627Y210177D01*
X126812Y210085D01*
X126997Y209965D01*
X127173Y209835D01*
X127182D01*
X127191Y209817D01*
X127247Y209770D01*
X127339Y209678D01*
X127441Y209567D01*
X127552Y209428D01*
X127672Y209262D01*
X127792Y209077D01*
X127894Y208874D01*
Y208864D01*
X127903Y208846D01*
X127912Y208818D01*
X127931Y208772D01*
X127949Y208716D01*
X127968Y208652D01*
X127996Y208568D01*
X128014Y208485D01*
X128033Y208384D01*
X128060Y208273D01*
X128097Y208032D01*
X128125Y207764D01*
X128134Y207459D01*
Y207357D01*
X128125Y207283D01*
Y207191D01*
X128116Y207089D01*
X128097Y206867D01*
Y206858D01*
X128088Y206821D01*
Y206766D01*
X128079Y206701D01*
X128051Y206572D01*
X128042Y206516D01*
X128033Y206470D01*
X126849D01*
Y206590D01*
X126858Y206599D01*
X126877Y206627D01*
X126886Y206664D01*
X126905Y206710D01*
X126932Y206756D01*
X126979Y206895D01*
Y206904D01*
X126988Y206932D01*
X126997Y206978D01*
X127006Y207052D01*
X127015Y207136D01*
X127025Y207228D01*
X127034Y207348D01*
Y207589D01*
X127025Y207662D01*
X127015Y207746D01*
X127006Y207838D01*
X126960Y208041D01*
Y208051D01*
X126942Y208088D01*
X126923Y208143D01*
X126895Y208208D01*
X126858Y208282D01*
X126821Y208365D01*
X126710Y208522D01*
X126701Y208531D01*
X126683Y208559D01*
X126636Y208596D01*
X126590Y208643D01*
X126525Y208698D01*
X126452Y208753D01*
X126359Y208809D01*
X126267Y208864D01*
X126257Y208874D01*
X126220Y208883D01*
X126156Y208911D01*
X126082Y208938D01*
X125980Y208975D01*
X125869Y209003D01*
X125740Y209031D01*
X125592Y209049D01*
X125601Y209031D01*
X125629Y208994D01*
X125666Y208929D01*
X125703Y208855D01*
X125758Y208763D01*
X125814Y208661D01*
X125906Y208448D01*
Y208439D01*
X125925Y208402D01*
X125934Y208337D01*
X125952Y208263D01*
X125971Y208162D01*
X125989Y208041D01*
X125998Y207912D01*
X126008Y207764D01*
Y207653D01*
X125998Y207570D01*
X125989Y207477D01*
X125980Y207376D01*
X125934Y207163D01*
Y207154D01*
X125915Y207117D01*
X125897Y207062D01*
X125869Y206997D01*
X125832Y206914D01*
X125786Y206830D01*
X125675Y206645D01*
X125666Y206636D01*
X125629Y206599D01*
X125573Y206544D01*
X125499Y206470D01*
X125416Y206396D01*
X125305Y206313D01*
X125185Y206229D01*
X125046Y206155D01*
X125028Y206146D01*
X124981Y206128D01*
X124898Y206100D01*
X124778Y206072D01*
X124639Y206035D01*
X124473Y206007D01*
X124279Y205989D01*
X124057Y205980D01*
X124048D01*
X124038D01*
X124011D01*
X123974D01*
X123890Y205989D01*
X123770Y205998D01*
X123641Y206017D01*
X123493Y206045D01*
X123336Y206082D01*
X123188Y206137D01*
X123179D01*
X123169Y206146D01*
X123123Y206165D01*
X123049Y206202D01*
X122948Y206257D01*
X122846Y206313D01*
X122726Y206396D01*
X122605Y206488D01*
X122494Y206590D01*
X122485Y206599D01*
X122448Y206645D01*
X122393Y206701D01*
X122328Y206784D01*
X122254Y206886D01*
X122171Y207015D01*
X122097Y207154D01*
X122032Y207302D01*
Y207311D01*
X122023Y207320D01*
X122004Y207376D01*
X121977Y207468D01*
X121949Y207579D01*
X121921Y207718D01*
X121894Y207875D01*
X121875Y208060D01*
X121866Y208245D01*
Y208337D01*
X121875Y208430D01*
X121884Y208559D01*
X121903Y208707D01*
X121931Y208864D01*
X121967Y209022D01*
X122014Y209179D01*
Y209188D01*
X122023Y209197D01*
X122041Y209243D01*
X122078Y209327D01*
X122125Y209419D01*
X122189Y209530D01*
X122263Y209650D01*
X122356Y209770D01*
X122467Y209881D01*
X122485Y209900D01*
X122531Y209937D01*
X122605Y210002D01*
X122707Y210076D01*
X122837Y210159D01*
X122994Y210242D01*
X123169Y210325D01*
X123364Y210399D01*
X123373D01*
X123391Y210408D01*
X123419Y210418D01*
X123456Y210427D01*
X123511Y210436D01*
X123576Y210455D01*
X123650Y210473D01*
X123724Y210492D01*
X123918Y210519D01*
X124140Y210547D01*
X124390Y210566D01*
X124667Y210575D01*
X124676D01*
X124704D01*
X124741D01*
X124797D01*
X124861Y210566D01*
D02*
G37*
G36*
X125157Y205425D02*
X125231D01*
X125324Y205416D01*
X125416Y205406D01*
X125518Y205388D01*
X125758Y205342D01*
X126008Y205277D01*
X126267Y205185D01*
X126525Y205064D01*
X126535D01*
X126553Y205046D01*
X126590Y205028D01*
X126636Y205000D01*
X126692Y204963D01*
X126747Y204916D01*
X126895Y204806D01*
X127062Y204676D01*
X127228Y204519D01*
X127395Y204334D01*
X127542Y204131D01*
Y204121D01*
X127552Y204112D01*
X127570Y204084D01*
X127589Y204047D01*
X127644Y203955D01*
X127709Y203825D01*
X127774Y203678D01*
X127838Y203502D01*
X127894Y203308D01*
X127931Y203104D01*
Y203077D01*
X127940Y203049D01*
Y203012D01*
X127949Y202956D01*
X127959Y202901D01*
X127968Y202753D01*
X127986Y202577D01*
X128005Y202383D01*
X128014Y202161D01*
Y200053D01*
X121995D01*
Y202152D01*
X122004Y202309D01*
X122014Y202485D01*
X122032Y202688D01*
X122051Y202892D01*
X122078Y203104D01*
Y203132D01*
X122088Y203160D01*
X122097Y203197D01*
X122106Y203252D01*
X122125Y203308D01*
X122162Y203447D01*
X122208Y203604D01*
X122282Y203779D01*
X122365Y203964D01*
X122476Y204149D01*
Y204158D01*
X122494Y204177D01*
X122513Y204205D01*
X122541Y204251D01*
X122633Y204352D01*
X122744Y204491D01*
X122892Y204639D01*
X123068Y204796D01*
X123271Y204944D01*
X123502Y205083D01*
X123511D01*
X123530Y205101D01*
X123567Y205120D01*
X123613Y205138D01*
X123678Y205166D01*
X123752Y205194D01*
X123835Y205222D01*
X123927Y205259D01*
X124038Y205296D01*
X124149Y205323D01*
X124408Y205379D01*
X124704Y205416D01*
X125019Y205434D01*
X125028D01*
X125056D01*
X125102D01*
X125157Y205425D01*
D02*
G37*
G36*
X128014Y194959D02*
X121995D01*
Y199036D01*
X123142D01*
Y196466D01*
X124196D01*
Y198833D01*
X125342D01*
Y196466D01*
X126868D01*
Y199036D01*
X128014D01*
Y194959D01*
D02*
G37*
G36*
Y190225D02*
X121995D01*
Y191732D01*
X126868D01*
Y194247D01*
X128014D01*
Y190225D01*
D02*
G37*
G36*
X186470Y210635D02*
X186562Y210626D01*
X186673Y210607D01*
X186803Y210570D01*
X186923Y210533D01*
X187052Y210478D01*
X187071Y210469D01*
X187108Y210450D01*
X187173Y210413D01*
X187247Y210357D01*
X187339Y210293D01*
X187441Y210219D01*
X187542Y210126D01*
X187635Y210016D01*
X187644Y210006D01*
X187672Y209960D01*
X187718Y209895D01*
X187774Y209812D01*
X187829Y209701D01*
X187894Y209572D01*
X187949Y209424D01*
X188005Y209267D01*
Y209257D01*
X188014Y209248D01*
Y209220D01*
X188023Y209193D01*
X188051Y209100D01*
X188069Y208971D01*
X188097Y208823D01*
X188125Y208656D01*
X188134Y208462D01*
X188144Y208259D01*
Y208102D01*
X188134Y208046D01*
X188125Y207898D01*
X188106Y207732D01*
X188088Y207556D01*
X188051Y207371D01*
X188005Y207195D01*
Y207186D01*
X187996Y207177D01*
X187977Y207122D01*
X187949Y207038D01*
X187903Y206937D01*
X187857Y206817D01*
X187792Y206687D01*
X187718Y206567D01*
X187635Y206447D01*
X187626Y206437D01*
X187589Y206400D01*
X187542Y206345D01*
X187478Y206290D01*
X187395Y206215D01*
X187293Y206151D01*
X187191Y206077D01*
X187071Y206021D01*
X187052Y206012D01*
X187015Y206003D01*
X186951Y205984D01*
X186868Y205957D01*
X186766Y205929D01*
X186646Y205910D01*
X186516Y205901D01*
X186387Y205892D01*
X186378D01*
X186359D01*
X186341D01*
X186304Y205901D01*
X186202Y205910D01*
X186082Y205929D01*
X185952Y205957D01*
X185804Y206012D01*
X185666Y206077D01*
X185527Y206169D01*
X185508Y206178D01*
X185471Y206225D01*
X185407Y206290D01*
X185324Y206382D01*
X185240Y206493D01*
X185139Y206641D01*
X185046Y206807D01*
X184954Y206992D01*
X184926D01*
Y206983D01*
X184917Y206974D01*
X184898Y206946D01*
X184880Y206909D01*
X184824Y206817D01*
X184750Y206705D01*
X184658Y206576D01*
X184556Y206456D01*
X184436Y206345D01*
X184307Y206252D01*
X184288Y206243D01*
X184242Y206225D01*
X184168Y206188D01*
X184066Y206151D01*
X183946Y206114D01*
X183807Y206077D01*
X183650Y206058D01*
X183484Y206049D01*
X183465D01*
X183428D01*
X183363Y206058D01*
X183280Y206068D01*
X183188Y206086D01*
X183086Y206105D01*
X182975Y206141D01*
X182864Y206188D01*
X182855Y206197D01*
X182818Y206215D01*
X182763Y206252D01*
X182689Y206299D01*
X182605Y206363D01*
X182513Y206437D01*
X182430Y206521D01*
X182337Y206622D01*
X182328Y206632D01*
X182300Y206668D01*
X182263Y206733D01*
X182217Y206817D01*
X182162Y206918D01*
X182106Y207029D01*
X182051Y207168D01*
X181995Y207316D01*
Y207325D01*
X181986Y207334D01*
X181977Y207390D01*
X181949Y207482D01*
X181921Y207593D01*
X181903Y207732D01*
X181875Y207898D01*
X181866Y208074D01*
X181856Y208268D01*
Y208361D01*
X181866Y208462D01*
X181875Y208601D01*
X181884Y208749D01*
X181903Y208915D01*
X181940Y209082D01*
X181977Y209239D01*
Y209248D01*
X181986Y209257D01*
X181995Y209313D01*
X182023Y209387D01*
X182060Y209479D01*
X182106Y209590D01*
X182162Y209701D01*
X182217Y209812D01*
X182291Y209914D01*
X182300Y209923D01*
X182328Y209960D01*
X182374Y210006D01*
X182430Y210071D01*
X182494Y210136D01*
X182578Y210210D01*
X182670Y210274D01*
X182772Y210339D01*
X182781Y210348D01*
X182818Y210367D01*
X182873Y210385D01*
X182948Y210413D01*
X183040Y210441D01*
X183142Y210469D01*
X183262Y210478D01*
X183382Y210487D01*
X183400D01*
X183456D01*
X183539Y210478D01*
X183641Y210459D01*
X183761Y210422D01*
X183890Y210385D01*
X184020Y210321D01*
X184159Y210237D01*
X184177Y210228D01*
X184214Y210191D01*
X184279Y210136D01*
X184362Y210052D01*
X184445Y209942D01*
X184547Y209812D01*
X184639Y209655D01*
X184732Y209479D01*
X184760D01*
Y209489D01*
X184769Y209507D01*
X184787Y209535D01*
X184806Y209581D01*
X184852Y209683D01*
X184926Y209812D01*
X185019Y209951D01*
X185129Y210099D01*
X185259Y210237D01*
X185397Y210357D01*
X185416Y210367D01*
X185462Y210404D01*
X185546Y210450D01*
X185656Y210506D01*
X185795Y210552D01*
X185952Y210598D01*
X186137Y210635D01*
X186331Y210644D01*
X186350D01*
X186396D01*
X186470Y210635D01*
D02*
G37*
G36*
X185148Y205356D02*
X185222D01*
X185314Y205346D01*
X185407Y205337D01*
X185508Y205319D01*
X185749Y205273D01*
X185998Y205208D01*
X186257Y205115D01*
X186516Y204995D01*
X186525D01*
X186544Y204977D01*
X186581Y204958D01*
X186627Y204930D01*
X186683Y204893D01*
X186738Y204847D01*
X186886Y204736D01*
X187052Y204607D01*
X187219Y204450D01*
X187385Y204265D01*
X187533Y204061D01*
Y204052D01*
X187542Y204043D01*
X187561Y204015D01*
X187579Y203978D01*
X187635Y203886D01*
X187700Y203756D01*
X187764Y203608D01*
X187829Y203433D01*
X187885Y203238D01*
X187922Y203035D01*
Y203007D01*
X187931Y202980D01*
Y202943D01*
X187940Y202887D01*
X187949Y202832D01*
X187959Y202684D01*
X187977Y202508D01*
X187996Y202314D01*
X188005Y202092D01*
Y199984D01*
X181986D01*
Y202083D01*
X181995Y202240D01*
X182004Y202416D01*
X182023Y202619D01*
X182041Y202822D01*
X182069Y203035D01*
Y203063D01*
X182078Y203090D01*
X182088Y203127D01*
X182097Y203183D01*
X182115Y203238D01*
X182152Y203377D01*
X182199Y203534D01*
X182272Y203710D01*
X182356Y203895D01*
X182467Y204080D01*
Y204089D01*
X182485Y204107D01*
X182504Y204135D01*
X182531Y204181D01*
X182624Y204283D01*
X182735Y204422D01*
X182883Y204570D01*
X183058Y204727D01*
X183262Y204875D01*
X183493Y205014D01*
X183502D01*
X183521Y205032D01*
X183558Y205051D01*
X183604Y205069D01*
X183669Y205097D01*
X183743Y205124D01*
X183826Y205152D01*
X183918Y205189D01*
X184029Y205226D01*
X184140Y205254D01*
X184399Y205309D01*
X184695Y205346D01*
X185009Y205365D01*
X185019D01*
X185046D01*
X185092D01*
X185148Y205356D01*
D02*
G37*
G36*
X188005Y194890D02*
X181986D01*
Y198967D01*
X183132D01*
Y196397D01*
X184186D01*
Y198764D01*
X185333D01*
Y196397D01*
X186858D01*
Y198967D01*
X188005D01*
Y194890D01*
D02*
G37*
G36*
Y190156D02*
X181986D01*
Y191663D01*
X186858D01*
Y194178D01*
X188005D01*
Y190156D01*
D02*
G37*
G36*
X248009Y208018D02*
Y206345D01*
X243128Y209017D01*
Y206160D01*
X241991D01*
Y210589D01*
X243193D01*
X248009Y208018D01*
D02*
G37*
G36*
X245152Y205411D02*
X245226D01*
X245319Y205402D01*
X245411Y205393D01*
X245513Y205374D01*
X245753Y205328D01*
X246003Y205263D01*
X246262Y205171D01*
X246521Y205051D01*
X246530D01*
X246549Y205032D01*
X246586Y205014D01*
X246632Y204986D01*
X246687Y204949D01*
X246743Y204903D01*
X246891Y204792D01*
X247057Y204662D01*
X247223Y204505D01*
X247390Y204320D01*
X247538Y204117D01*
Y204107D01*
X247547Y204098D01*
X247566Y204070D01*
X247584Y204034D01*
X247640Y203941D01*
X247704Y203812D01*
X247769Y203664D01*
X247834Y203488D01*
X247889Y203294D01*
X247926Y203090D01*
Y203063D01*
X247935Y203035D01*
Y202998D01*
X247945Y202943D01*
X247954Y202887D01*
X247963Y202739D01*
X247982Y202563D01*
X248000Y202369D01*
X248009Y202147D01*
Y200039D01*
X241991D01*
Y202138D01*
X242000Y202295D01*
X242009Y202471D01*
X242027Y202674D01*
X242046Y202878D01*
X242074Y203090D01*
Y203118D01*
X242083Y203146D01*
X242092Y203183D01*
X242101Y203238D01*
X242120Y203294D01*
X242157Y203433D01*
X242203Y203590D01*
X242277Y203765D01*
X242360Y203950D01*
X242471Y204135D01*
Y204144D01*
X242490Y204163D01*
X242508Y204191D01*
X242536Y204237D01*
X242628Y204339D01*
X242739Y204477D01*
X242887Y204625D01*
X243063Y204782D01*
X243266Y204930D01*
X243498Y205069D01*
X243507D01*
X243525Y205088D01*
X243562Y205106D01*
X243608Y205124D01*
X243673Y205152D01*
X243747Y205180D01*
X243830Y205208D01*
X243923Y205245D01*
X244034Y205282D01*
X244145Y205309D01*
X244404Y205365D01*
X244699Y205402D01*
X245014Y205420D01*
X245023D01*
X245051D01*
X245097D01*
X245152Y205411D01*
D02*
G37*
G36*
X248009Y194945D02*
X241991D01*
Y199022D01*
X243137D01*
Y196452D01*
X244191D01*
Y198819D01*
X245337D01*
Y196452D01*
X246863D01*
Y199022D01*
X248009D01*
Y194945D01*
D02*
G37*
G36*
Y190211D02*
X241991D01*
Y191718D01*
X246863D01*
Y194233D01*
X248009D01*
Y190211D01*
D02*
G37*
G36*
X301114Y210626D02*
X301197Y210616D01*
X301290Y210607D01*
X301391Y210589D01*
X301512Y210561D01*
X301752Y210487D01*
X301891Y210441D01*
X302020Y210376D01*
X302150Y210311D01*
X302279Y210228D01*
X302399Y210136D01*
X302519Y210025D01*
X302529Y210015D01*
X302547Y209997D01*
X302575Y209960D01*
X302612Y209914D01*
X302658Y209858D01*
X302714Y209784D01*
X302769Y209692D01*
X302824Y209590D01*
X302880Y209479D01*
X302935Y209359D01*
X302991Y209220D01*
X303037Y209082D01*
X303074Y208915D01*
X303102Y208749D01*
X303120Y208573D01*
X303130Y208379D01*
Y208286D01*
X303120Y208194D01*
X303111Y208065D01*
X303093Y207917D01*
X303065Y207759D01*
X303028Y207593D01*
X302982Y207436D01*
X302972Y207417D01*
X302954Y207371D01*
X302917Y207288D01*
X302871Y207195D01*
X302806Y207085D01*
X302732Y206974D01*
X302640Y206853D01*
X302538Y206742D01*
X302519Y206724D01*
X302473Y206687D01*
X302399Y206622D01*
X302297Y206548D01*
X302168Y206465D01*
X302011Y206373D01*
X301835Y206290D01*
X301641Y206215D01*
X301632D01*
X301613Y206206D01*
X301586Y206197D01*
X301539Y206188D01*
X301493Y206178D01*
X301428Y206160D01*
X301354Y206141D01*
X301271Y206132D01*
X301077Y206095D01*
X300855Y206068D01*
X300606Y206049D01*
X300328Y206040D01*
X300319D01*
X300291D01*
X300254D01*
X300189D01*
X300125Y206049D01*
X300042D01*
X299949Y206058D01*
X299857D01*
X299635Y206077D01*
X299404Y206114D01*
X299154Y206151D01*
X298923Y206206D01*
X298914D01*
X298895Y206215D01*
X298858Y206225D01*
X298821Y206243D01*
X298766Y206252D01*
X298701Y206280D01*
X298553Y206336D01*
X298387Y206419D01*
X298202Y206511D01*
X298017Y206622D01*
X297832Y206761D01*
X297823D01*
X297813Y206779D01*
X297758Y206826D01*
X297675Y206909D01*
X297573Y207020D01*
X297462Y207149D01*
X297342Y207316D01*
X297231Y207501D01*
X297129Y207713D01*
Y207722D01*
X297120Y207741D01*
X297101Y207778D01*
X297092Y207824D01*
X297064Y207880D01*
X297046Y207944D01*
X297027Y208028D01*
X297000Y208120D01*
X296972Y208213D01*
X296954Y208323D01*
X296907Y208564D01*
X296880Y208832D01*
X296870Y209128D01*
Y209239D01*
X296880Y209313D01*
Y209405D01*
X296889Y209507D01*
X296917Y209720D01*
Y209729D01*
X296926Y209766D01*
Y209821D01*
X296935Y209886D01*
X296954Y210015D01*
X296963Y210080D01*
X296972Y210126D01*
X298155D01*
Y210006D01*
X298146Y209997D01*
X298137Y209969D01*
X298128Y209932D01*
X298109Y209877D01*
X298091Y209821D01*
X298063Y209747D01*
X298044Y209664D01*
Y209655D01*
X298035Y209618D01*
X298017Y209572D01*
X298008Y209507D01*
X297989Y209424D01*
X297980Y209331D01*
X297971Y209220D01*
Y209045D01*
X297980Y208998D01*
Y208934D01*
X297989Y208869D01*
X298017Y208712D01*
X298063Y208536D01*
X298128Y208351D01*
X298220Y208176D01*
X298350Y208018D01*
X298368Y208000D01*
X298414Y207954D01*
X298507Y207898D01*
X298618Y207815D01*
X298775Y207741D01*
X298951Y207658D01*
X299163Y207593D01*
X299413Y207547D01*
X299404Y207556D01*
X299385Y207602D01*
X299348Y207658D01*
X299302Y207732D01*
X299256Y207824D01*
X299209Y207926D01*
X299117Y208148D01*
X299108Y208166D01*
X299098Y208203D01*
X299080Y208268D01*
X299052Y208351D01*
X299034Y208453D01*
X299015Y208573D01*
X299006Y208703D01*
X298997Y208841D01*
Y208961D01*
X299006Y209035D01*
X299015Y209128D01*
X299034Y209230D01*
X299089Y209442D01*
Y209451D01*
X299108Y209488D01*
X299126Y209544D01*
X299154Y209618D01*
X299191Y209692D01*
X299228Y209775D01*
X299339Y209951D01*
X299348Y209969D01*
X299385Y210006D01*
X299431Y210062D01*
X299505Y210136D01*
X299598Y210210D01*
X299709Y210293D01*
X299829Y210376D01*
X299968Y210450D01*
X299986Y210459D01*
X300042Y210478D01*
X300125Y210505D01*
X300236Y210542D01*
X300384Y210579D01*
X300550Y210607D01*
X300744Y210626D01*
X300957Y210635D01*
X300966D01*
X301003D01*
X301049D01*
X301114Y210626D01*
D02*
G37*
G36*
X300143Y205365D02*
X300217D01*
X300310Y205356D01*
X300402Y205346D01*
X300504Y205328D01*
X300744Y205282D01*
X300994Y205217D01*
X301253Y205124D01*
X301512Y205004D01*
X301521D01*
X301539Y204986D01*
X301576Y204967D01*
X301623Y204940D01*
X301678Y204903D01*
X301733Y204856D01*
X301881Y204745D01*
X302048Y204616D01*
X302214Y204459D01*
X302381Y204274D01*
X302529Y204070D01*
Y204061D01*
X302538Y204052D01*
X302556Y204024D01*
X302575Y203987D01*
X302630Y203895D01*
X302695Y203765D01*
X302760Y203617D01*
X302824Y203442D01*
X302880Y203248D01*
X302917Y203044D01*
Y203016D01*
X302926Y202989D01*
Y202952D01*
X302935Y202896D01*
X302945Y202841D01*
X302954Y202693D01*
X302972Y202517D01*
X302991Y202323D01*
X303000Y202101D01*
Y199993D01*
X296981D01*
Y202092D01*
X296991Y202249D01*
X297000Y202425D01*
X297018Y202628D01*
X297037Y202832D01*
X297064Y203044D01*
Y203072D01*
X297074Y203100D01*
X297083Y203137D01*
X297092Y203192D01*
X297111Y203248D01*
X297148Y203386D01*
X297194Y203543D01*
X297268Y203719D01*
X297351Y203904D01*
X297462Y204089D01*
Y204098D01*
X297481Y204117D01*
X297499Y204144D01*
X297527Y204191D01*
X297619Y204292D01*
X297730Y204431D01*
X297878Y204579D01*
X298054Y204736D01*
X298257Y204884D01*
X298488Y205023D01*
X298498D01*
X298516Y205041D01*
X298553Y205060D01*
X298599Y205078D01*
X298664Y205106D01*
X298738Y205134D01*
X298821Y205161D01*
X298914Y205198D01*
X299025Y205236D01*
X299135Y205263D01*
X299394Y205319D01*
X299690Y205356D01*
X300005Y205374D01*
X300014D01*
X300042D01*
X300088D01*
X300143Y205365D01*
D02*
G37*
G36*
X303000Y194899D02*
X296981D01*
Y198976D01*
X298128D01*
Y196406D01*
X299182D01*
Y198773D01*
X300328D01*
Y196406D01*
X301854D01*
Y198976D01*
X303000D01*
Y194899D01*
D02*
G37*
G36*
Y190165D02*
X296981D01*
Y191672D01*
X301854D01*
Y194187D01*
X303000D01*
Y190165D01*
D02*
G37*
G36*
X361077Y210575D02*
X361197Y210566D01*
X361336Y210547D01*
X361484Y210510D01*
X361632Y210473D01*
X361789Y210418D01*
X361808Y210408D01*
X361854Y210390D01*
X361928Y210353D01*
X362020Y210297D01*
X362131Y210233D01*
X362242Y210149D01*
X362362Y210048D01*
X362473Y209937D01*
X362482Y209918D01*
X362519Y209881D01*
X362575Y209817D01*
X362640Y209724D01*
X362704Y209613D01*
X362778Y209493D01*
X362852Y209345D01*
X362917Y209188D01*
Y209179D01*
X362926Y209170D01*
X362935Y209142D01*
X362945Y209114D01*
X362963Y209022D01*
X362991Y208892D01*
X363028Y208735D01*
X363046Y208559D01*
X363065Y208347D01*
X363074Y208125D01*
Y208014D01*
X363065Y207958D01*
Y207884D01*
X363056Y207727D01*
X363037Y207542D01*
X363019Y207357D01*
X362991Y207154D01*
X362954Y206969D01*
Y206960D01*
X362945Y206950D01*
Y206923D01*
X362935Y206886D01*
X362917Y206803D01*
X362889Y206692D01*
X362852Y206562D01*
X362806Y206433D01*
X362760Y206294D01*
X362714Y206174D01*
X361401D01*
Y206313D01*
X361410Y206322D01*
X361447Y206377D01*
X361502Y206460D01*
X361558Y206562D01*
Y206572D01*
X361567Y206590D01*
X361586Y206618D01*
X361604Y206664D01*
X361632Y206710D01*
X361660Y206775D01*
X361687Y206849D01*
X361724Y206932D01*
Y206941D01*
X361734Y206969D01*
X361752Y207015D01*
X361771Y207071D01*
X361798Y207136D01*
X361817Y207209D01*
X361863Y207367D01*
Y207376D01*
X361872Y207404D01*
X361881Y207450D01*
X361891Y207514D01*
X361900Y207589D01*
X361909Y207672D01*
X361918Y207857D01*
Y207949D01*
X361909Y208014D01*
Y208088D01*
X361891Y208171D01*
X361863Y208365D01*
Y208374D01*
X361854Y208411D01*
X361835Y208458D01*
X361817Y208522D01*
X361752Y208670D01*
X361706Y208735D01*
X361650Y208800D01*
X361641Y208809D01*
X361632Y208818D01*
X361567Y208874D01*
X361484Y208938D01*
X361382Y208994D01*
X361373D01*
X361354Y209003D01*
X361317Y209022D01*
X361271Y209031D01*
X361216Y209049D01*
X361142Y209058D01*
X361059Y209068D01*
X360966D01*
X360957D01*
X360929D01*
X360892D01*
X360837Y209058D01*
X360726Y209031D01*
X360606Y208975D01*
X360596D01*
X360578Y208957D01*
X360550Y208938D01*
X360513Y208920D01*
X360430Y208846D01*
X360356Y208744D01*
X360347Y208735D01*
X360337Y208707D01*
X360310Y208661D01*
X360282Y208605D01*
X360254Y208531D01*
X360227Y208448D01*
X360199Y208356D01*
X360180Y208245D01*
Y208236D01*
X360171Y208199D01*
X360162Y208143D01*
X360153Y208078D01*
Y207995D01*
X360143Y207912D01*
X360134Y207746D01*
Y207626D01*
X360143Y207542D01*
Y207441D01*
X360153Y207330D01*
X360190Y207099D01*
Y207089D01*
X360199Y207043D01*
X360208Y206987D01*
X360227Y206914D01*
X360245Y206830D01*
X360263Y206738D01*
X360300Y206562D01*
Y206433D01*
X356926D01*
Y210418D01*
X358063D01*
Y207857D01*
X359071D01*
Y207903D01*
X359062Y207940D01*
Y208032D01*
X359052Y208143D01*
Y208199D01*
X359043Y208236D01*
Y208559D01*
X359052Y208670D01*
X359062Y208790D01*
X359080Y208929D01*
X359136Y209207D01*
Y209225D01*
X359154Y209271D01*
X359173Y209336D01*
X359200Y209428D01*
X359237Y209530D01*
X359283Y209632D01*
X359339Y209743D01*
X359404Y209854D01*
X359413Y209872D01*
X359441Y209909D01*
X359496Y209974D01*
X359561Y210048D01*
X359644Y210131D01*
X359755Y210224D01*
X359866Y210316D01*
X360005Y210390D01*
X360023Y210399D01*
X360069Y210418D01*
X360153Y210455D01*
X360254Y210492D01*
X360384Y210519D01*
X360541Y210556D01*
X360717Y210575D01*
X360911Y210584D01*
X360920D01*
X360929D01*
X360957D01*
X360994D01*
X361077Y210575D01*
D02*
G37*
G36*
X360088Y205416D02*
X360162D01*
X360254Y205406D01*
X360347Y205397D01*
X360448Y205379D01*
X360689Y205333D01*
X360938Y205268D01*
X361197Y205175D01*
X361456Y205055D01*
X361465D01*
X361484Y205037D01*
X361521Y205018D01*
X361567Y204991D01*
X361623Y204953D01*
X361678Y204907D01*
X361826Y204796D01*
X361992Y204667D01*
X362159Y204510D01*
X362325Y204325D01*
X362473Y204121D01*
Y204112D01*
X362482Y204103D01*
X362501Y204075D01*
X362519Y204038D01*
X362575Y203946D01*
X362640Y203816D01*
X362704Y203668D01*
X362769Y203493D01*
X362825Y203298D01*
X362862Y203095D01*
Y203067D01*
X362871Y203040D01*
Y203003D01*
X362880Y202947D01*
X362889Y202892D01*
X362898Y202744D01*
X362917Y202568D01*
X362935Y202374D01*
X362945Y202152D01*
Y200044D01*
X356926D01*
Y202143D01*
X356935Y202300D01*
X356944Y202476D01*
X356963Y202679D01*
X356981Y202882D01*
X357009Y203095D01*
Y203123D01*
X357018Y203151D01*
X357028Y203188D01*
X357037Y203243D01*
X357055Y203298D01*
X357092Y203437D01*
X357138Y203594D01*
X357212Y203770D01*
X357296Y203955D01*
X357407Y204140D01*
Y204149D01*
X357425Y204168D01*
X357444Y204195D01*
X357471Y204242D01*
X357564Y204343D01*
X357675Y204482D01*
X357823Y204630D01*
X357998Y204787D01*
X358202Y204935D01*
X358433Y205074D01*
X358442D01*
X358461Y205092D01*
X358498Y205111D01*
X358544Y205129D01*
X358609Y205157D01*
X358683Y205185D01*
X358766Y205212D01*
X358858Y205249D01*
X358969Y205286D01*
X359080Y205314D01*
X359339Y205369D01*
X359635Y205406D01*
X359949Y205425D01*
X359958D01*
X359986D01*
X360032D01*
X360088Y205416D01*
D02*
G37*
G36*
X362945Y194950D02*
X356926D01*
Y199027D01*
X358072D01*
Y196457D01*
X359126D01*
Y198824D01*
X360273D01*
Y196457D01*
X361798D01*
Y199027D01*
X362945D01*
Y194950D01*
D02*
G37*
G36*
Y190216D02*
X356926D01*
Y191723D01*
X361798D01*
Y194238D01*
X362945D01*
Y190216D01*
D02*
G37*
G36*
X421595Y209877D02*
X423019D01*
Y208407D01*
X421595D01*
Y205772D01*
X420476D01*
X416981Y208351D01*
Y209877D01*
X420513D01*
Y210690D01*
X421595D01*
Y209877D01*
D02*
G37*
G36*
X420143Y205309D02*
X420217D01*
X420310Y205300D01*
X420402Y205291D01*
X420504Y205272D01*
X420744Y205226D01*
X420994Y205161D01*
X421253Y205069D01*
X421512Y204949D01*
X421521D01*
X421539Y204930D01*
X421576Y204912D01*
X421623Y204884D01*
X421678Y204847D01*
X421734Y204801D01*
X421881Y204690D01*
X422048Y204561D01*
X422214Y204403D01*
X422381Y204218D01*
X422529Y204015D01*
Y204006D01*
X422538Y203997D01*
X422556Y203969D01*
X422575Y203932D01*
X422630Y203839D01*
X422695Y203710D01*
X422760Y203562D01*
X422825Y203386D01*
X422880Y203192D01*
X422917Y202989D01*
Y202961D01*
X422926Y202933D01*
Y202896D01*
X422935Y202841D01*
X422945Y202785D01*
X422954Y202637D01*
X422972Y202462D01*
X422991Y202268D01*
X423000Y202046D01*
Y199938D01*
X416981D01*
Y202036D01*
X416991Y202194D01*
X417000Y202369D01*
X417018Y202573D01*
X417037Y202776D01*
X417065Y202989D01*
Y203016D01*
X417074Y203044D01*
X417083Y203081D01*
X417092Y203137D01*
X417111Y203192D01*
X417148Y203331D01*
X417194Y203488D01*
X417268Y203664D01*
X417351Y203849D01*
X417462Y204034D01*
Y204043D01*
X417481Y204061D01*
X417499Y204089D01*
X417527Y204135D01*
X417619Y204237D01*
X417730Y204376D01*
X417878Y204524D01*
X418054Y204681D01*
X418257Y204829D01*
X418488Y204967D01*
X418498D01*
X418516Y204986D01*
X418553Y205004D01*
X418599Y205023D01*
X418664Y205051D01*
X418738Y205078D01*
X418821Y205106D01*
X418914Y205143D01*
X419025Y205180D01*
X419136Y205208D01*
X419394Y205263D01*
X419690Y205300D01*
X420005Y205319D01*
X420014D01*
X420042D01*
X420088D01*
X420143Y205309D01*
D02*
G37*
G36*
X423000Y194843D02*
X416981D01*
Y198921D01*
X418128D01*
Y196350D01*
X419182D01*
Y198717D01*
X420328D01*
Y196350D01*
X421854D01*
Y198921D01*
X423000D01*
Y194843D01*
D02*
G37*
G36*
Y190110D02*
X416981D01*
Y191617D01*
X421854D01*
Y194132D01*
X423000D01*
Y190110D01*
D02*
G37*
G36*
X481345Y205570D02*
X481456Y205561D01*
X481586Y205542D01*
X481715Y205505D01*
X481863Y205468D01*
X482002Y205413D01*
X482020Y205404D01*
X482057Y205385D01*
X482131Y205348D01*
X482214Y205293D01*
X482307Y205219D01*
X482418Y205145D01*
X482519Y205043D01*
X482621Y204932D01*
X482630Y204914D01*
X482658Y204877D01*
X482704Y204803D01*
X482760Y204720D01*
X482825Y204609D01*
X482889Y204479D01*
X482954Y204331D01*
X483009Y204174D01*
Y204165D01*
X483019Y204156D01*
Y204128D01*
X483028Y204100D01*
X483046Y204008D01*
X483074Y203888D01*
X483102Y203730D01*
X483120Y203555D01*
X483130Y203351D01*
X483139Y203129D01*
Y202954D01*
X483130Y202880D01*
X483120Y202713D01*
X483111Y202528D01*
X483083Y202325D01*
X483056Y202122D01*
X483019Y201927D01*
Y201918D01*
X483009Y201909D01*
Y201881D01*
X483000Y201844D01*
X482972Y201752D01*
X482945Y201641D01*
X482908Y201511D01*
X482862Y201373D01*
X482815Y201243D01*
X482760Y201114D01*
X481456D01*
Y201252D01*
X481465Y201271D01*
X481493Y201308D01*
X481530Y201382D01*
X481586Y201474D01*
X481650Y201585D01*
X481706Y201724D01*
X481771Y201872D01*
X481835Y202029D01*
Y202038D01*
X481844Y202048D01*
X481854Y202103D01*
X481881Y202195D01*
X481909Y202306D01*
X481937Y202427D01*
X481955Y202565D01*
X481974Y202713D01*
X481983Y202852D01*
Y202935D01*
X481974Y202991D01*
Y203065D01*
X481965Y203139D01*
X481946Y203323D01*
Y203333D01*
X481937Y203370D01*
X481928Y203416D01*
X481909Y203471D01*
X481863Y203619D01*
X481780Y203758D01*
X481771Y203767D01*
X481761Y203786D01*
X481706Y203841D01*
X481632Y203906D01*
X481530Y203980D01*
X481521D01*
X481502Y203989D01*
X481465Y204008D01*
X481419Y204026D01*
X481354Y204035D01*
X481281Y204054D01*
X481197Y204063D01*
X481105D01*
X481096D01*
X481059D01*
X481012Y204054D01*
X480948Y204045D01*
X480809Y204017D01*
X480744Y203980D01*
X480689Y203943D01*
X480680Y203934D01*
X480661Y203924D01*
X480643Y203897D01*
X480606Y203860D01*
X480541Y203758D01*
X480476Y203629D01*
Y203619D01*
X480467Y203592D01*
X480448Y203555D01*
X480439Y203499D01*
X480421Y203434D01*
X480411Y203351D01*
X480402Y203268D01*
X480393Y203166D01*
Y203074D01*
X480384Y203009D01*
Y202436D01*
X479330D01*
Y202833D01*
X479320Y202907D01*
Y202991D01*
X479311Y203166D01*
Y203176D01*
X479302Y203203D01*
Y203249D01*
X479283Y203305D01*
X479256Y203434D01*
X479210Y203564D01*
Y203573D01*
X479191Y203592D01*
X479182Y203619D01*
X479154Y203656D01*
X479089Y203739D01*
X478997Y203813D01*
X478988D01*
X478969Y203832D01*
X478941Y203841D01*
X478895Y203860D01*
X478849Y203878D01*
X478784Y203888D01*
X478710Y203906D01*
X478627D01*
X478618D01*
X478599D01*
X478562D01*
X478516Y203897D01*
X478424Y203869D01*
X478331Y203813D01*
X478322D01*
X478313Y203795D01*
X478266Y203758D01*
X478202Y203693D01*
X478146Y203610D01*
Y203601D01*
X478137Y203582D01*
X478119Y203555D01*
X478109Y203508D01*
X478072Y203407D01*
X478045Y203268D01*
Y203259D01*
X478035Y203240D01*
Y203203D01*
X478026Y203157D01*
X478017Y203046D01*
Y202852D01*
X478026Y202796D01*
Y202732D01*
X478035Y202649D01*
X478072Y202482D01*
Y202473D01*
X478082Y202445D01*
X478091Y202399D01*
X478109Y202343D01*
X478128Y202279D01*
X478156Y202205D01*
X478211Y202038D01*
Y202029D01*
X478220Y202011D01*
X478239Y201974D01*
X478257Y201937D01*
X478313Y201816D01*
X478377Y201687D01*
Y201678D01*
X478396Y201659D01*
X478414Y201622D01*
X478433Y201585D01*
X478479Y201493D01*
X478525Y201410D01*
Y201289D01*
X477240D01*
X477231Y201308D01*
X477222Y201345D01*
X477194Y201410D01*
X477157Y201511D01*
X477120Y201632D01*
X477083Y201770D01*
X477037Y201937D01*
X476991Y202122D01*
Y202131D01*
X476981Y202149D01*
Y202177D01*
X476972Y202214D01*
X476963Y202260D01*
X476954Y202316D01*
X476926Y202454D01*
X476898Y202621D01*
X476880Y202796D01*
X476870Y203000D01*
X476861Y203203D01*
Y203296D01*
X476870Y203397D01*
Y203518D01*
X476889Y203666D01*
X476907Y203823D01*
X476926Y203980D01*
X476963Y204128D01*
Y204146D01*
X476981Y204193D01*
X477000Y204266D01*
X477028Y204359D01*
X477065Y204470D01*
X477111Y204581D01*
X477166Y204692D01*
X477231Y204803D01*
X477240Y204812D01*
X477268Y204849D01*
X477305Y204904D01*
X477360Y204978D01*
X477425Y205052D01*
X477508Y205126D01*
X477610Y205200D01*
X477712Y205265D01*
X477721Y205274D01*
X477767Y205293D01*
X477823Y205311D01*
X477906Y205348D01*
X478008Y205376D01*
X478119Y205394D01*
X478239Y205413D01*
X478377Y205422D01*
X478387D01*
X478396D01*
X478424D01*
X478461D01*
X478562Y205404D01*
X478683Y205385D01*
X478821Y205348D01*
X478969Y205293D01*
X479126Y205219D01*
X479274Y205117D01*
X479293Y205108D01*
X479339Y205062D01*
X479404Y204997D01*
X479478Y204914D01*
X479570Y204793D01*
X479644Y204664D01*
X479718Y204516D01*
X479773Y204340D01*
X479829D01*
Y204350D01*
X479838Y204377D01*
X479847Y204415D01*
X479857Y204470D01*
X479875Y204535D01*
X479894Y204609D01*
X479940Y204757D01*
Y204766D01*
X479958Y204793D01*
X479977Y204830D01*
X479995Y204886D01*
X480079Y205006D01*
X480125Y205080D01*
X480190Y205154D01*
X480199Y205163D01*
X480217Y205182D01*
X480254Y205219D01*
X480300Y205265D01*
X480356Y205311D01*
X480430Y205357D01*
X480504Y205413D01*
X480596Y205459D01*
X480606Y205468D01*
X480643Y205478D01*
X480689Y205496D01*
X480763Y205524D01*
X480846Y205542D01*
X480948Y205561D01*
X481068Y205570D01*
X481188Y205579D01*
X481197D01*
X481207D01*
X481262D01*
X481345Y205570D01*
D02*
G37*
G36*
X480153Y200420D02*
X480227D01*
X480319Y200411D01*
X480411Y200402D01*
X480513Y200383D01*
X480754Y200337D01*
X481003Y200272D01*
X481262Y200180D01*
X481521Y200060D01*
X481530D01*
X481549Y200041D01*
X481586Y200023D01*
X481632Y199995D01*
X481687Y199958D01*
X481743Y199912D01*
X481891Y199801D01*
X482057Y199671D01*
X482224Y199514D01*
X482390Y199329D01*
X482538Y199126D01*
Y199117D01*
X482547Y199107D01*
X482566Y199080D01*
X482584Y199043D01*
X482640Y198950D01*
X482704Y198821D01*
X482769Y198673D01*
X482834Y198497D01*
X482889Y198303D01*
X482926Y198100D01*
Y198072D01*
X482935Y198044D01*
Y198007D01*
X482945Y197952D01*
X482954Y197896D01*
X482963Y197748D01*
X482982Y197573D01*
X483000Y197379D01*
X483009Y197157D01*
Y195049D01*
X476991D01*
Y197147D01*
X477000Y197305D01*
X477009Y197480D01*
X477028Y197684D01*
X477046Y197887D01*
X477074Y198100D01*
Y198127D01*
X477083Y198155D01*
X477092Y198192D01*
X477102Y198248D01*
X477120Y198303D01*
X477157Y198442D01*
X477203Y198599D01*
X477277Y198775D01*
X477360Y198960D01*
X477471Y199144D01*
Y199154D01*
X477490Y199172D01*
X477508Y199200D01*
X477536Y199246D01*
X477629Y199348D01*
X477739Y199487D01*
X477887Y199634D01*
X478063Y199792D01*
X478266Y199940D01*
X478498Y200078D01*
X478507D01*
X478525Y200097D01*
X478562Y200115D01*
X478609Y200134D01*
X478673Y200161D01*
X478747Y200189D01*
X478830Y200217D01*
X478923Y200254D01*
X479034Y200291D01*
X479145Y200319D01*
X479404Y200374D01*
X479700Y200411D01*
X480014Y200430D01*
X480023D01*
X480051D01*
X480097D01*
X480153Y200420D01*
D02*
G37*
G36*
X483009Y189954D02*
X476991D01*
Y194032D01*
X478137D01*
Y191461D01*
X479191D01*
Y193828D01*
X480337D01*
Y191461D01*
X481863D01*
Y194032D01*
X483009D01*
Y189954D01*
D02*
G37*
G36*
Y185221D02*
X476991D01*
Y186728D01*
X481863D01*
Y189242D01*
X483009D01*
Y185221D01*
D02*
G37*
G36*
X543065Y200834D02*
X542085D01*
X542076Y200843D01*
X542066Y200862D01*
X542039Y200889D01*
X542011Y200926D01*
X541928Y201037D01*
X541817Y201167D01*
X541687Y201324D01*
X541549Y201490D01*
X541401Y201666D01*
X541253Y201833D01*
X541244Y201842D01*
X541234Y201851D01*
X541188Y201907D01*
X541105Y201990D01*
X541012Y202101D01*
X540892Y202230D01*
X540763Y202360D01*
X540633Y202498D01*
X540495Y202628D01*
X540485Y202637D01*
X540476Y202646D01*
X540421Y202702D01*
X540328Y202775D01*
X540217Y202877D01*
X540097Y202979D01*
X539958Y203081D01*
X539820Y203182D01*
X539681Y203266D01*
X539663Y203275D01*
X539616Y203293D01*
X539552Y203330D01*
X539459Y203367D01*
X539348Y203404D01*
X539228Y203441D01*
X539099Y203460D01*
X538960Y203469D01*
X538951D01*
X538941D01*
X538895D01*
X538812Y203460D01*
X538719Y203441D01*
X538618Y203404D01*
X538516Y203358D01*
X538414Y203293D01*
X538322Y203210D01*
X538313Y203201D01*
X538285Y203164D01*
X538248Y203108D01*
X538202Y203034D01*
X538165Y202933D01*
X538128Y202812D01*
X538100Y202674D01*
X538091Y202517D01*
Y202433D01*
X538100Y202378D01*
X538109Y202313D01*
X538119Y202239D01*
X538156Y202082D01*
Y202073D01*
X538165Y202045D01*
X538174Y202008D01*
X538192Y201953D01*
X538211Y201888D01*
X538239Y201823D01*
X538294Y201666D01*
Y201657D01*
X538313Y201629D01*
X538331Y201592D01*
X538350Y201546D01*
X538414Y201435D01*
X538488Y201315D01*
Y201306D01*
X538507Y201287D01*
X538544Y201231D01*
X538590Y201158D01*
X538627Y201093D01*
Y200982D01*
X537314D01*
X537305Y200991D01*
X537296Y201028D01*
X537268Y201093D01*
X537240Y201176D01*
X537203Y201287D01*
X537157Y201416D01*
X537111Y201583D01*
X537065Y201768D01*
Y201777D01*
X537055Y201796D01*
Y201823D01*
X537046Y201860D01*
X537037Y201907D01*
X537028Y201971D01*
X537000Y202101D01*
X536972Y202267D01*
X536954Y202443D01*
X536944Y202628D01*
X536935Y202812D01*
Y202914D01*
X536944Y202988D01*
X536954Y203081D01*
X536963Y203182D01*
X536972Y203293D01*
X536991Y203423D01*
X537055Y203682D01*
X537138Y203950D01*
X537194Y204088D01*
X537259Y204209D01*
X537333Y204329D01*
X537416Y204440D01*
X537425Y204449D01*
X537434Y204468D01*
X537462Y204495D01*
X537508Y204523D01*
X537555Y204569D01*
X537610Y204615D01*
X537684Y204662D01*
X537767Y204717D01*
X537850Y204773D01*
X537952Y204819D01*
X538063Y204865D01*
X538183Y204911D01*
X538313Y204939D01*
X538451Y204967D01*
X538599Y204985D01*
X538756Y204995D01*
X538766D01*
X538784D01*
X538812D01*
X538849D01*
X538895Y204985D01*
X538951D01*
X539089Y204967D01*
X539246Y204930D01*
X539422Y204883D01*
X539607Y204819D01*
X539801Y204736D01*
X539810D01*
X539820Y204726D01*
X539847Y204708D01*
X539894Y204689D01*
X539940Y204662D01*
X539995Y204625D01*
X540125Y204541D01*
X540291Y204421D01*
X540476Y204283D01*
X540680Y204107D01*
X540892Y203904D01*
X540911Y203885D01*
X540957Y203839D01*
X541022Y203774D01*
X541105Y203682D01*
X541207Y203571D01*
X541317Y203460D01*
X541539Y203201D01*
X541549Y203182D01*
X541586Y203145D01*
X541632Y203081D01*
X541687Y203007D01*
X541817Y202850D01*
X541881Y202766D01*
X541928Y202702D01*
Y205253D01*
X543065D01*
Y200834D01*
D02*
G37*
G36*
X540208Y199946D02*
X540282D01*
X540374Y199937D01*
X540467Y199928D01*
X540569Y199909D01*
X540809Y199863D01*
X541059Y199799D01*
X541317Y199706D01*
X541576Y199586D01*
X541586D01*
X541604Y199567D01*
X541641Y199549D01*
X541687Y199521D01*
X541743Y199484D01*
X541798Y199438D01*
X541946Y199327D01*
X542113Y199198D01*
X542279Y199040D01*
X542445Y198855D01*
X542593Y198652D01*
Y198643D01*
X542603Y198633D01*
X542621Y198606D01*
X542640Y198569D01*
X542695Y198476D01*
X542760Y198347D01*
X542825Y198199D01*
X542889Y198023D01*
X542945Y197829D01*
X542982Y197626D01*
Y197598D01*
X542991Y197570D01*
Y197533D01*
X543000Y197478D01*
X543009Y197422D01*
X543019Y197274D01*
X543037Y197099D01*
X543056Y196905D01*
X543065Y196683D01*
Y194575D01*
X537046D01*
Y196673D01*
X537055Y196831D01*
X537065Y197006D01*
X537083Y197210D01*
X537102Y197413D01*
X537129Y197626D01*
Y197654D01*
X537138Y197681D01*
X537148Y197718D01*
X537157Y197774D01*
X537175Y197829D01*
X537212Y197968D01*
X537259Y198125D01*
X537333Y198301D01*
X537416Y198486D01*
X537527Y198671D01*
Y198680D01*
X537545Y198698D01*
X537564Y198726D01*
X537592Y198772D01*
X537684Y198874D01*
X537795Y199013D01*
X537943Y199160D01*
X538119Y199318D01*
X538322Y199466D01*
X538553Y199604D01*
X538562D01*
X538581Y199623D01*
X538618Y199641D01*
X538664Y199660D01*
X538729Y199688D01*
X538803Y199715D01*
X538886Y199743D01*
X538978Y199780D01*
X539089Y199817D01*
X539200Y199845D01*
X539459Y199900D01*
X539755Y199937D01*
X540069Y199956D01*
X540079D01*
X540106D01*
X540153D01*
X540208Y199946D01*
D02*
G37*
G36*
X543065Y189480D02*
X537046D01*
Y193558D01*
X538192D01*
Y190987D01*
X539246D01*
Y193354D01*
X540393D01*
Y190987D01*
X541918D01*
Y193558D01*
X543065D01*
Y189480D01*
D02*
G37*
G36*
Y184747D02*
X537046D01*
Y186254D01*
X541918D01*
Y188769D01*
X543065D01*
Y184747D01*
D02*
G37*
G36*
X593014Y201148D02*
X591960D01*
Y202415D01*
X588789D01*
Y201148D01*
X587809D01*
Y201324D01*
X587799Y201407D01*
Y201500D01*
X587781Y201694D01*
Y201703D01*
X587772Y201740D01*
X587762Y201786D01*
X587753Y201851D01*
X587716Y201999D01*
X587689Y202073D01*
X587661Y202138D01*
X587652Y202147D01*
X587642Y202165D01*
X587624Y202202D01*
X587587Y202248D01*
X587513Y202341D01*
X587402Y202433D01*
X587393Y202443D01*
X587374Y202452D01*
X587337Y202470D01*
X587291Y202489D01*
X587226Y202517D01*
X587152Y202535D01*
X587078Y202554D01*
X586986Y202563D01*
Y203885D01*
X591960D01*
Y205124D01*
X593014D01*
Y201148D01*
D02*
G37*
G36*
X590157Y200076D02*
X590231D01*
X590324Y200067D01*
X590416Y200057D01*
X590518Y200039D01*
X590758Y199993D01*
X591008Y199928D01*
X591267Y199835D01*
X591525Y199715D01*
X591535D01*
X591553Y199697D01*
X591590Y199678D01*
X591636Y199650D01*
X591692Y199613D01*
X591747Y199567D01*
X591895Y199456D01*
X592062Y199327D01*
X592228Y199170D01*
X592395Y198985D01*
X592542Y198781D01*
Y198772D01*
X592552Y198763D01*
X592570Y198735D01*
X592589Y198698D01*
X592644Y198606D01*
X592709Y198476D01*
X592774Y198328D01*
X592838Y198153D01*
X592894Y197959D01*
X592931Y197755D01*
Y197727D01*
X592940Y197700D01*
Y197663D01*
X592949Y197607D01*
X592959Y197552D01*
X592968Y197404D01*
X592986Y197228D01*
X593005Y197034D01*
X593014Y196812D01*
Y194704D01*
X586995D01*
Y196803D01*
X587004Y196960D01*
X587014Y197136D01*
X587032Y197339D01*
X587051Y197542D01*
X587078Y197755D01*
Y197783D01*
X587088Y197811D01*
X587097Y197848D01*
X587106Y197903D01*
X587125Y197959D01*
X587162Y198097D01*
X587208Y198254D01*
X587282Y198430D01*
X587365Y198615D01*
X587476Y198800D01*
Y198809D01*
X587494Y198828D01*
X587513Y198855D01*
X587541Y198902D01*
X587633Y199003D01*
X587744Y199142D01*
X587892Y199290D01*
X588068Y199447D01*
X588271Y199595D01*
X588502Y199734D01*
X588511D01*
X588530Y199752D01*
X588567Y199771D01*
X588613Y199789D01*
X588678Y199817D01*
X588752Y199845D01*
X588835Y199872D01*
X588927Y199909D01*
X589038Y199946D01*
X589149Y199974D01*
X589408Y200030D01*
X589704Y200067D01*
X590019Y200085D01*
X590028D01*
X590055D01*
X590102D01*
X590157Y200076D01*
D02*
G37*
G36*
X593014Y189610D02*
X586995D01*
Y193687D01*
X588142D01*
Y191117D01*
X589196D01*
Y193484D01*
X590342D01*
Y191117D01*
X591868D01*
Y193687D01*
X593014D01*
Y189610D01*
D02*
G37*
G36*
Y184876D02*
X586995D01*
Y186383D01*
X591868D01*
Y188898D01*
X593014D01*
Y184876D01*
D02*
G37*
G36*
X552627Y104812D02*
Y104793D01*
Y104747D01*
X552618Y104664D01*
X552608Y104572D01*
X552590Y104451D01*
X552571Y104331D01*
X552534Y104192D01*
X552488Y104063D01*
X552479Y104045D01*
X552460Y104008D01*
X552433Y103943D01*
X552386Y103860D01*
X552331Y103767D01*
X552266Y103675D01*
X552183Y103573D01*
X552081Y103481D01*
X552072Y103471D01*
X552026Y103434D01*
X551970Y103388D01*
X551878Y103323D01*
X551776Y103259D01*
X551656Y103194D01*
X551517Y103129D01*
X551369Y103074D01*
X551351Y103064D01*
X551295Y103055D01*
X551212Y103037D01*
X551101Y103018D01*
X550963Y102991D01*
X550796Y102972D01*
X550620Y102963D01*
X550426Y102954D01*
X550278D01*
X550177Y102963D01*
X550066D01*
X549936Y102972D01*
X549668Y102991D01*
X549650D01*
X549613Y103000D01*
X549548D01*
X549465Y103009D01*
X549363Y103018D01*
X549261Y103037D01*
X549058Y103064D01*
Y104285D01*
X549197D01*
X549215Y104276D01*
X549252Y104257D01*
X549308Y104239D01*
X549428Y104192D01*
X549566Y104146D01*
X549576D01*
X549604Y104137D01*
X549650Y104128D01*
X549705Y104118D01*
X549779Y104109D01*
X549872Y104100D01*
X549973Y104091D01*
X550149D01*
X550223Y104100D01*
X550306Y104109D01*
X550408Y104118D01*
X550510Y104137D01*
X550611Y104165D01*
X550695Y104202D01*
X550704Y104211D01*
X550732Y104220D01*
X550768Y104248D01*
X550815Y104285D01*
X550870Y104331D01*
X550916Y104377D01*
X550963Y104442D01*
X551000Y104516D01*
Y104525D01*
X551018Y104553D01*
X551027Y104590D01*
X551046Y104646D01*
X551064Y104710D01*
X551083Y104793D01*
X551101Y104969D01*
Y104978D01*
Y105015D01*
X551110Y105071D01*
Y105135D01*
Y105228D01*
X551120Y105320D01*
Y105431D01*
Y105552D01*
Y107965D01*
X549742D01*
Y109065D01*
X552627D01*
Y104812D01*
D02*
G37*
G36*
X556704Y104100D02*
X557943D01*
Y103046D01*
X553967D01*
Y104100D01*
X555234D01*
Y107271D01*
X553967D01*
Y108251D01*
X554143D01*
X554226Y108260D01*
X554319D01*
X554513Y108279D01*
X554522D01*
X554559Y108288D01*
X554605Y108298D01*
X554670Y108307D01*
X554818Y108344D01*
X554892Y108371D01*
X554957Y108399D01*
X554966Y108408D01*
X554984Y108418D01*
X555021Y108436D01*
X555068Y108473D01*
X555160Y108547D01*
X555253Y108658D01*
X555262Y108667D01*
X555271Y108686D01*
X555289Y108723D01*
X555308Y108769D01*
X555336Y108834D01*
X555354Y108908D01*
X555373Y108982D01*
X555382Y109074D01*
X556704D01*
Y104100D01*
D02*
G37*
G36*
X498363Y105357D02*
X498465D01*
X498575Y105347D01*
X498797Y105320D01*
X498806D01*
X498843Y105310D01*
X498899Y105301D01*
X498973Y105292D01*
X499056Y105273D01*
X499149Y105255D01*
X499352Y105209D01*
X499361D01*
X499389Y105199D01*
X499426Y105181D01*
X499482Y105162D01*
X499546Y105144D01*
X499629Y105107D01*
X499796Y105042D01*
X499805D01*
X499833Y105024D01*
X499879Y105005D01*
X499935Y104978D01*
X500064Y104922D01*
X500193Y104857D01*
Y103434D01*
X500027D01*
X500018Y103452D01*
X499962Y103498D01*
X499870Y103563D01*
X499759Y103655D01*
X499750Y103665D01*
X499731Y103683D01*
X499694Y103702D01*
X499648Y103739D01*
X499592Y103776D01*
X499537Y103822D01*
X499389Y103914D01*
X499380Y103924D01*
X499352Y103933D01*
X499306Y103961D01*
X499250Y103988D01*
X499176Y104025D01*
X499102Y104062D01*
X498918Y104136D01*
X498908D01*
X498871Y104155D01*
X498825Y104164D01*
X498760Y104182D01*
X498677Y104201D01*
X498594Y104210D01*
X498400Y104229D01*
X498344D01*
X498279Y104219D01*
X498196D01*
X498104Y104201D01*
X498002Y104182D01*
X497901Y104155D01*
X497799Y104118D01*
X497789D01*
X497752Y104099D01*
X497697Y104071D01*
X497632Y104035D01*
X497558Y103988D01*
X497466Y103924D01*
X497374Y103850D01*
X497281Y103766D01*
X497272Y103757D01*
X497244Y103720D01*
X497198Y103674D01*
X497152Y103600D01*
X497087Y103517D01*
X497031Y103406D01*
X496967Y103286D01*
X496911Y103147D01*
X496902Y103128D01*
X496893Y103082D01*
X496865Y102999D01*
X496847Y102888D01*
X496819Y102749D01*
X496791Y102592D01*
X496782Y102416D01*
X496772Y102222D01*
Y102213D01*
Y102195D01*
Y102167D01*
Y102130D01*
X496782Y102028D01*
X496791Y101899D01*
X496810Y101751D01*
X496837Y101594D01*
X496874Y101436D01*
X496920Y101288D01*
X496930Y101270D01*
X496948Y101224D01*
X496976Y101159D01*
X497022Y101067D01*
X497078Y100974D01*
X497152Y100872D01*
X497225Y100771D01*
X497309Y100678D01*
X497318Y100669D01*
X497346Y100641D01*
X497401Y100604D01*
X497457Y100549D01*
X497540Y100493D01*
X497623Y100438D01*
X497725Y100392D01*
X497826Y100345D01*
X497836D01*
X497882Y100327D01*
X497938Y100318D01*
X498011Y100299D01*
X498095Y100281D01*
X498196Y100272D01*
X498409Y100253D01*
X498455D01*
X498520Y100262D01*
X498594D01*
X498677Y100272D01*
X498770Y100290D01*
X498973Y100345D01*
X498982Y100355D01*
X499019Y100364D01*
X499065Y100382D01*
X499130Y100410D01*
X499278Y100484D01*
X499426Y100567D01*
X499435Y100577D01*
X499463Y100586D01*
X499500Y100614D01*
X499546Y100641D01*
X499657Y100724D01*
X499777Y100817D01*
X499787Y100826D01*
X499805Y100836D01*
X499833Y100863D01*
X499870Y100891D01*
X499962Y100965D01*
X500055Y101048D01*
X500193D01*
Y99624D01*
X500184D01*
X500166Y99615D01*
X500129Y99597D01*
X500082Y99578D01*
X500027Y99550D01*
X499962Y99523D01*
X499805Y99449D01*
X499796D01*
X499768Y99430D01*
X499722Y99412D01*
X499666Y99393D01*
X499602Y99365D01*
X499528Y99338D01*
X499361Y99282D01*
X499352D01*
X499315Y99273D01*
X499260Y99255D01*
X499186Y99236D01*
X499102Y99218D01*
X499010Y99199D01*
X498825Y99162D01*
X498816D01*
X498779Y99153D01*
X498723Y99143D01*
X498649D01*
X498557Y99134D01*
X498437Y99125D01*
X498307Y99116D01*
X498095D01*
X498021Y99125D01*
X497928D01*
X497817Y99143D01*
X497679Y99162D01*
X497531Y99180D01*
X497374Y99218D01*
X497207Y99264D01*
X497031Y99319D01*
X496856Y99384D01*
X496680Y99458D01*
X496495Y99550D01*
X496329Y99661D01*
X496162Y99791D01*
X496005Y99929D01*
X495996Y99939D01*
X495968Y99966D01*
X495931Y100013D01*
X495885Y100077D01*
X495820Y100161D01*
X495756Y100262D01*
X495681Y100382D01*
X495608Y100521D01*
X495534Y100678D01*
X495460Y100845D01*
X495395Y101039D01*
X495330Y101242D01*
X495284Y101464D01*
X495247Y101705D01*
X495219Y101963D01*
X495210Y102232D01*
Y102250D01*
Y102296D01*
X495219Y102370D01*
Y102472D01*
X495238Y102592D01*
X495256Y102731D01*
X495275Y102888D01*
X495312Y103054D01*
X495349Y103230D01*
X495404Y103415D01*
X495469Y103609D01*
X495543Y103803D01*
X495635Y103988D01*
X495746Y104173D01*
X495866Y104349D01*
X496005Y104515D01*
X496014Y104524D01*
X496042Y104552D01*
X496088Y104598D01*
X496153Y104645D01*
X496227Y104709D01*
X496329Y104783D01*
X496440Y104857D01*
X496569Y104941D01*
X496717Y105024D01*
X496874Y105098D01*
X497059Y105172D01*
X497244Y105236D01*
X497447Y105292D01*
X497669Y105329D01*
X497901Y105357D01*
X498150Y105366D01*
X498279D01*
X498363Y105357D01*
D02*
G37*
G36*
X503226D02*
X503318Y105347D01*
X503420Y105338D01*
X503531Y105329D01*
X503661Y105310D01*
X503919Y105246D01*
X504188Y105162D01*
X504326Y105107D01*
X504446Y105042D01*
X504567Y104968D01*
X504678Y104885D01*
X504687Y104876D01*
X504705Y104867D01*
X504733Y104839D01*
X504761Y104793D01*
X504807Y104746D01*
X504853Y104691D01*
X504899Y104617D01*
X504955Y104534D01*
X505010Y104451D01*
X505057Y104349D01*
X505103Y104238D01*
X505149Y104118D01*
X505177Y103988D01*
X505205Y103850D01*
X505223Y103702D01*
X505232Y103544D01*
Y103535D01*
Y103517D01*
Y103489D01*
Y103452D01*
X505223Y103406D01*
Y103350D01*
X505205Y103212D01*
X505168Y103054D01*
X505121Y102879D01*
X505057Y102694D01*
X504973Y102500D01*
Y102490D01*
X504964Y102481D01*
X504946Y102453D01*
X504927Y102407D01*
X504899Y102361D01*
X504862Y102305D01*
X504779Y102176D01*
X504659Y102010D01*
X504520Y101825D01*
X504345Y101621D01*
X504141Y101409D01*
X504123Y101390D01*
X504076Y101344D01*
X504012Y101279D01*
X503919Y101196D01*
X503808Y101094D01*
X503698Y100983D01*
X503439Y100761D01*
X503420Y100752D01*
X503383Y100715D01*
X503318Y100669D01*
X503244Y100614D01*
X503087Y100484D01*
X503004Y100419D01*
X502939Y100373D01*
X505491D01*
Y99236D01*
X501072D01*
Y100216D01*
X501081Y100225D01*
X501100Y100234D01*
X501127Y100262D01*
X501164Y100290D01*
X501275Y100373D01*
X501405Y100484D01*
X501562Y100614D01*
X501728Y100752D01*
X501904Y100900D01*
X502070Y101048D01*
X502080Y101057D01*
X502089Y101067D01*
X502144Y101113D01*
X502227Y101196D01*
X502338Y101288D01*
X502468Y101409D01*
X502597Y101538D01*
X502736Y101668D01*
X502865Y101806D01*
X502875Y101816D01*
X502884Y101825D01*
X502939Y101880D01*
X503013Y101973D01*
X503115Y102084D01*
X503217Y102204D01*
X503318Y102343D01*
X503420Y102481D01*
X503503Y102620D01*
X503513Y102638D01*
X503531Y102685D01*
X503568Y102749D01*
X503605Y102842D01*
X503642Y102953D01*
X503679Y103073D01*
X503698Y103202D01*
X503707Y103341D01*
Y103350D01*
Y103359D01*
Y103406D01*
X503698Y103489D01*
X503679Y103581D01*
X503642Y103683D01*
X503596Y103785D01*
X503531Y103886D01*
X503448Y103979D01*
X503439Y103988D01*
X503402Y104016D01*
X503346Y104053D01*
X503272Y104099D01*
X503171Y104136D01*
X503050Y104173D01*
X502912Y104201D01*
X502754Y104210D01*
X502671D01*
X502616Y104201D01*
X502551Y104192D01*
X502477Y104182D01*
X502320Y104145D01*
X502311D01*
X502283Y104136D01*
X502246Y104127D01*
X502190Y104108D01*
X502126Y104090D01*
X502061Y104062D01*
X501904Y104007D01*
X501895D01*
X501867Y103988D01*
X501830Y103970D01*
X501784Y103951D01*
X501673Y103886D01*
X501553Y103813D01*
X501543D01*
X501525Y103794D01*
X501469Y103757D01*
X501395Y103711D01*
X501331Y103674D01*
X501220D01*
Y104987D01*
X501229Y104996D01*
X501266Y105005D01*
X501331Y105033D01*
X501414Y105061D01*
X501525Y105098D01*
X501654Y105144D01*
X501821Y105190D01*
X502006Y105236D01*
X502015D01*
X502033Y105246D01*
X502061D01*
X502098Y105255D01*
X502144Y105264D01*
X502209Y105273D01*
X502338Y105301D01*
X502505Y105329D01*
X502681Y105347D01*
X502865Y105357D01*
X503050Y105366D01*
X503152D01*
X503226Y105357D01*
D02*
G37*
G36*
X499887Y75385D02*
X499989D01*
X500099Y75375D01*
X500321Y75348D01*
X500331D01*
X500368Y75338D01*
X500423Y75329D01*
X500497Y75320D01*
X500580Y75301D01*
X500673Y75283D01*
X500876Y75237D01*
X500885D01*
X500913Y75227D01*
X500950Y75209D01*
X501006Y75190D01*
X501070Y75172D01*
X501153Y75135D01*
X501320Y75070D01*
X501329D01*
X501357Y75052D01*
X501403Y75033D01*
X501459Y75005D01*
X501588Y74950D01*
X501717Y74885D01*
Y73461D01*
X501551D01*
X501542Y73480D01*
X501486Y73526D01*
X501394Y73591D01*
X501283Y73683D01*
X501274Y73693D01*
X501255Y73711D01*
X501218Y73730D01*
X501172Y73767D01*
X501116Y73804D01*
X501061Y73850D01*
X500913Y73942D01*
X500904Y73952D01*
X500876Y73961D01*
X500830Y73988D01*
X500774Y74016D01*
X500700Y74053D01*
X500626Y74090D01*
X500442Y74164D01*
X500432D01*
X500395Y74183D01*
X500349Y74192D01*
X500284Y74210D01*
X500201Y74229D01*
X500118Y74238D01*
X499924Y74257D01*
X499868D01*
X499804Y74247D01*
X499720D01*
X499628Y74229D01*
X499526Y74210D01*
X499425Y74183D01*
X499323Y74146D01*
X499314D01*
X499277Y74127D01*
X499221Y74099D01*
X499156Y74062D01*
X499082Y74016D01*
X498990Y73952D01*
X498898Y73878D01*
X498805Y73794D01*
X498796Y73785D01*
X498768Y73748D01*
X498722Y73702D01*
X498676Y73628D01*
X498611Y73545D01*
X498555Y73434D01*
X498491Y73314D01*
X498435Y73175D01*
X498426Y73156D01*
X498417Y73110D01*
X498389Y73027D01*
X498371Y72916D01*
X498343Y72777D01*
X498315Y72620D01*
X498306Y72445D01*
X498297Y72250D01*
Y72241D01*
Y72223D01*
Y72195D01*
Y72158D01*
X498306Y72056D01*
X498315Y71927D01*
X498334Y71779D01*
X498361Y71622D01*
X498398Y71464D01*
X498444Y71316D01*
X498454Y71298D01*
X498472Y71252D01*
X498500Y71187D01*
X498546Y71095D01*
X498602Y71002D01*
X498676Y70901D01*
X498750Y70799D01*
X498833Y70706D01*
X498842Y70697D01*
X498870Y70669D01*
X498925Y70632D01*
X498981Y70577D01*
X499064Y70521D01*
X499147Y70466D01*
X499249Y70420D01*
X499351Y70374D01*
X499360D01*
X499406Y70355D01*
X499462Y70346D01*
X499535Y70327D01*
X499619Y70309D01*
X499720Y70300D01*
X499933Y70281D01*
X499979D01*
X500044Y70290D01*
X500118D01*
X500201Y70300D01*
X500294Y70318D01*
X500497Y70374D01*
X500506Y70383D01*
X500543Y70392D01*
X500589Y70410D01*
X500654Y70438D01*
X500802Y70512D01*
X500950Y70595D01*
X500959Y70605D01*
X500987Y70614D01*
X501024Y70642D01*
X501070Y70669D01*
X501181Y70753D01*
X501301Y70845D01*
X501311Y70854D01*
X501329Y70863D01*
X501357Y70891D01*
X501394Y70919D01*
X501486Y70993D01*
X501579Y71076D01*
X501717D01*
Y69652D01*
X501708D01*
X501690Y69643D01*
X501653Y69625D01*
X501606Y69606D01*
X501551Y69578D01*
X501486Y69551D01*
X501329Y69477D01*
X501320D01*
X501292Y69458D01*
X501246Y69440D01*
X501190Y69421D01*
X501126Y69393D01*
X501052Y69366D01*
X500885Y69310D01*
X500876D01*
X500839Y69301D01*
X500784Y69282D01*
X500710Y69264D01*
X500626Y69246D01*
X500534Y69227D01*
X500349Y69190D01*
X500340D01*
X500303Y69181D01*
X500247Y69172D01*
X500173D01*
X500081Y69162D01*
X499961Y69153D01*
X499831Y69144D01*
X499619D01*
X499545Y69153D01*
X499452D01*
X499341Y69172D01*
X499203Y69190D01*
X499055Y69208D01*
X498898Y69246D01*
X498731Y69292D01*
X498555Y69347D01*
X498380Y69412D01*
X498204Y69486D01*
X498019Y69578D01*
X497853Y69689D01*
X497686Y69819D01*
X497529Y69957D01*
X497520Y69967D01*
X497492Y69994D01*
X497455Y70041D01*
X497409Y70105D01*
X497344Y70189D01*
X497280Y70290D01*
X497206Y70410D01*
X497132Y70549D01*
X497058Y70706D01*
X496984Y70873D01*
X496919Y71067D01*
X496854Y71270D01*
X496808Y71492D01*
X496771Y71733D01*
X496743Y71991D01*
X496734Y72260D01*
Y72278D01*
Y72324D01*
X496743Y72398D01*
Y72500D01*
X496762Y72620D01*
X496780Y72759D01*
X496799Y72916D01*
X496836Y73082D01*
X496873Y73258D01*
X496928Y73443D01*
X496993Y73637D01*
X497067Y73831D01*
X497159Y74016D01*
X497270Y74201D01*
X497390Y74377D01*
X497529Y74543D01*
X497538Y74552D01*
X497566Y74580D01*
X497612Y74626D01*
X497677Y74673D01*
X497751Y74737D01*
X497853Y74811D01*
X497964Y74885D01*
X498093Y74969D01*
X498241Y75052D01*
X498398Y75126D01*
X498583Y75200D01*
X498768Y75264D01*
X498971Y75320D01*
X499193Y75357D01*
X499425Y75385D01*
X499674Y75394D01*
X499804D01*
X499887Y75385D01*
D02*
G37*
G36*
X505517Y70318D02*
X506756D01*
Y69264D01*
X502781D01*
Y70318D01*
X504047D01*
Y73489D01*
X502781D01*
Y74469D01*
X502956D01*
X503040Y74479D01*
X503132D01*
X503326Y74497D01*
X503335D01*
X503372Y74506D01*
X503419Y74516D01*
X503483Y74525D01*
X503631Y74562D01*
X503705Y74590D01*
X503770Y74617D01*
X503779Y74626D01*
X503798Y74636D01*
X503835Y74654D01*
X503881Y74691D01*
X503973Y74765D01*
X504066Y74876D01*
X504075Y74885D01*
X504084Y74904D01*
X504103Y74941D01*
X504121Y74987D01*
X504149Y75052D01*
X504168Y75126D01*
X504186Y75200D01*
X504195Y75292D01*
X505517D01*
Y70318D01*
D02*
G37*
%LPC*%
G36*
X29411Y26909D02*
X28736D01*
Y25282D01*
X29272D01*
X29346Y25291D01*
X29430D01*
X29513Y25301D01*
X29605Y25310D01*
X29688Y25319D01*
X29698D01*
X29725Y25328D01*
X29772Y25338D01*
X29818Y25356D01*
X29938Y25402D01*
X30068Y25476D01*
X30077Y25485D01*
X30095Y25495D01*
X30114Y25522D01*
X30151Y25559D01*
X30215Y25643D01*
X30280Y25754D01*
Y25763D01*
X30289Y25781D01*
X30308Y25818D01*
X30317Y25865D01*
X30336Y25920D01*
X30345Y25994D01*
X30354Y26077D01*
Y26170D01*
Y26179D01*
Y26207D01*
Y26253D01*
X30345Y26299D01*
X30317Y26428D01*
X30262Y26558D01*
Y26567D01*
X30243Y26586D01*
X30225Y26613D01*
X30197Y26650D01*
X30160Y26697D01*
X30104Y26734D01*
X30049Y26771D01*
X29975Y26807D01*
X29966D01*
X29947Y26817D01*
X29920Y26826D01*
X29883Y26844D01*
X29781Y26872D01*
X29661Y26891D01*
X29633D01*
X29596Y26900D01*
X29485D01*
X29411Y26909D01*
D02*
G37*
G36*
X290128Y109743D02*
X289453D01*
Y108115D01*
X289989D01*
X290063Y108125D01*
X290147D01*
X290230Y108134D01*
X290322Y108143D01*
X290405Y108152D01*
X290415D01*
X290442Y108162D01*
X290488Y108171D01*
X290535Y108189D01*
X290655Y108236D01*
X290784Y108310D01*
X290794Y108319D01*
X290812Y108328D01*
X290831Y108356D01*
X290868Y108393D01*
X290932Y108476D01*
X290997Y108587D01*
Y108596D01*
X291006Y108615D01*
X291025Y108652D01*
X291034Y108698D01*
X291052Y108753D01*
X291062Y108827D01*
X291071Y108911D01*
Y109003D01*
Y109012D01*
Y109040D01*
Y109086D01*
X291062Y109132D01*
X291034Y109262D01*
X290979Y109391D01*
Y109401D01*
X290960Y109419D01*
X290942Y109447D01*
X290914Y109484D01*
X290877Y109530D01*
X290821Y109567D01*
X290766Y109604D01*
X290692Y109641D01*
X290683D01*
X290664Y109650D01*
X290637Y109659D01*
X290599Y109678D01*
X290498Y109706D01*
X290378Y109724D01*
X290350D01*
X290313Y109733D01*
X290202D01*
X290128Y109743D01*
D02*
G37*
G36*
X290636Y64785D02*
X289961D01*
Y63157D01*
X290497D01*
X290571Y63167D01*
X290655D01*
X290738Y63176D01*
X290830Y63185D01*
X290913Y63194D01*
X290923D01*
X290950Y63204D01*
X290996Y63213D01*
X291043Y63231D01*
X291163Y63278D01*
X291292Y63352D01*
X291302Y63361D01*
X291320Y63370D01*
X291339Y63398D01*
X291376Y63435D01*
X291440Y63518D01*
X291505Y63629D01*
Y63638D01*
X291514Y63657D01*
X291533Y63694D01*
X291542Y63740D01*
X291560Y63795D01*
X291570Y63869D01*
X291579Y63953D01*
Y64045D01*
Y64054D01*
Y64082D01*
Y64128D01*
X291570Y64174D01*
X291542Y64304D01*
X291487Y64433D01*
Y64443D01*
X291468Y64461D01*
X291450Y64489D01*
X291422Y64526D01*
X291385Y64572D01*
X291329Y64609D01*
X291274Y64646D01*
X291200Y64683D01*
X291191D01*
X291172Y64692D01*
X291145Y64701D01*
X291108Y64720D01*
X291006Y64748D01*
X290886Y64766D01*
X290858D01*
X290821Y64775D01*
X290710D01*
X290636Y64785D01*
D02*
G37*
G36*
X27492Y171719D02*
X26817D01*
Y170091D01*
X27353D01*
X27427Y170101D01*
X27510D01*
X27594Y170110D01*
X27686Y170119D01*
X27769Y170128D01*
X27779D01*
X27806Y170138D01*
X27852Y170147D01*
X27899Y170165D01*
X28019Y170212D01*
X28148Y170286D01*
X28158Y170295D01*
X28176Y170304D01*
X28195Y170332D01*
X28232Y170369D01*
X28296Y170452D01*
X28361Y170563D01*
Y170572D01*
X28370Y170591D01*
X28389Y170628D01*
X28398Y170674D01*
X28417Y170729D01*
X28426Y170803D01*
X28435Y170887D01*
Y170979D01*
Y170988D01*
Y171016D01*
Y171062D01*
X28426Y171108D01*
X28398Y171238D01*
X28343Y171367D01*
Y171377D01*
X28324Y171395D01*
X28306Y171423D01*
X28278Y171460D01*
X28241Y171506D01*
X28185Y171543D01*
X28130Y171580D01*
X28056Y171617D01*
X28047D01*
X28028Y171626D01*
X28001Y171635D01*
X27964Y171654D01*
X27862Y171682D01*
X27742Y171700D01*
X27714D01*
X27677Y171709D01*
X27566D01*
X27492Y171719D01*
D02*
G37*
G36*
X38605Y171839D02*
X38587D01*
X38531Y171830D01*
X38457Y171811D01*
X38365Y171783D01*
X38263Y171728D01*
X38161Y171645D01*
X38115Y171598D01*
X38069Y171534D01*
X38023Y171469D01*
X37986Y171386D01*
Y171377D01*
X37977Y171367D01*
X37967Y171340D01*
X37958Y171293D01*
X37940Y171247D01*
X37930Y171182D01*
X37912Y171108D01*
X37893Y171016D01*
X37875Y170914D01*
X37856Y170803D01*
X37847Y170674D01*
X37829Y170526D01*
X37819Y170369D01*
X37810Y170193D01*
X37801Y170008D01*
Y169805D01*
Y169796D01*
Y169759D01*
Y169703D01*
Y169629D01*
X37810Y169537D01*
Y169426D01*
X37819Y169315D01*
X37829Y169195D01*
X37847Y168936D01*
X37875Y168677D01*
X37903Y168547D01*
X37921Y168437D01*
X37958Y168326D01*
X37986Y168233D01*
Y168224D01*
X37995Y168215D01*
X38023Y168159D01*
X38069Y168094D01*
X38134Y168011D01*
X38217Y167928D01*
X38328Y167854D01*
X38457Y167799D01*
X38531Y167789D01*
X38605Y167780D01*
X38624D01*
X38679Y167789D01*
X38753Y167808D01*
X38846Y167836D01*
X38938Y167891D01*
X39040Y167974D01*
X39095Y168020D01*
X39132Y168085D01*
X39178Y168150D01*
X39215Y168233D01*
Y168242D01*
X39225Y168252D01*
X39234Y168279D01*
X39243Y168326D01*
X39262Y168372D01*
X39280Y168437D01*
X39299Y168510D01*
X39317Y168603D01*
X39326Y168705D01*
X39345Y168825D01*
X39363Y168945D01*
X39382Y169093D01*
X39391Y169250D01*
X39400Y169417D01*
X39409Y169601D01*
Y169805D01*
Y169814D01*
Y169851D01*
Y169916D01*
Y169990D01*
X39400Y170082D01*
Y170184D01*
X39391Y170304D01*
Y170424D01*
X39363Y170683D01*
X39336Y170951D01*
X39308Y171071D01*
X39289Y171192D01*
X39262Y171293D01*
X39225Y171386D01*
Y171395D01*
X39215Y171404D01*
X39188Y171460D01*
X39141Y171534D01*
X39077Y171617D01*
X38993Y171700D01*
X38883Y171765D01*
X38753Y171820D01*
X38688Y171830D01*
X38605Y171839D01*
D02*
G37*
G36*
X93187Y171922D02*
X93140D01*
X93104Y171913D01*
X93011Y171904D01*
X92919Y171867D01*
X92909D01*
X92900Y171857D01*
X92845Y171820D01*
X92771Y171765D01*
X92678Y171672D01*
Y171663D01*
X92660Y171654D01*
X92641Y171626D01*
X92623Y171589D01*
X92595Y171543D01*
X92558Y171478D01*
X92530Y171414D01*
X92503Y171330D01*
Y171321D01*
X92493Y171293D01*
X92484Y171247D01*
X92475Y171182D01*
X92456Y171108D01*
X92447Y171025D01*
X92438Y170831D01*
Y170822D01*
Y170785D01*
Y170729D01*
X92447Y170665D01*
X92466Y170508D01*
X92512Y170350D01*
Y170341D01*
X92521Y170323D01*
X92540Y170286D01*
X92567Y170249D01*
X92623Y170147D01*
X92706Y170054D01*
X92715D01*
X92734Y170036D01*
X92752Y170018D01*
X92789Y169990D01*
X92882Y169944D01*
X93002Y169897D01*
X93011D01*
X93030Y169888D01*
X93067D01*
X93113Y169879D01*
X93168Y169869D01*
X93233D01*
X93372Y169860D01*
X93436D01*
X93473Y169869D01*
X93584Y169879D01*
X93714Y169907D01*
X93723D01*
X93742Y169916D01*
X93778Y169925D01*
X93815Y169934D01*
X93908Y169962D01*
X94000Y169999D01*
Y170008D01*
Y170036D01*
Y170073D01*
X94010Y170128D01*
Y170147D01*
X94019Y170193D01*
Y170267D01*
Y170369D01*
Y170378D01*
Y170387D01*
Y170415D01*
Y170452D01*
Y170544D01*
X94010Y170655D01*
X94000Y170785D01*
X93982Y170914D01*
X93963Y171053D01*
X93936Y171173D01*
Y171192D01*
X93917Y171229D01*
X93899Y171284D01*
X93880Y171358D01*
X93806Y171525D01*
X93760Y171598D01*
X93705Y171672D01*
X93695Y171682D01*
X93686Y171691D01*
X93631Y171746D01*
X93557Y171802D01*
X93464Y171857D01*
X93455D01*
X93446Y171867D01*
X93418Y171876D01*
X93381Y171894D01*
X93288Y171913D01*
X93187Y171922D01*
D02*
G37*
G36*
X87436Y171719D02*
X86761D01*
Y170091D01*
X87297D01*
X87371Y170101D01*
X87455D01*
X87538Y170110D01*
X87630Y170119D01*
X87713Y170128D01*
X87723D01*
X87750Y170138D01*
X87796Y170147D01*
X87843Y170165D01*
X87963Y170212D01*
X88092Y170286D01*
X88102Y170295D01*
X88120Y170304D01*
X88139Y170332D01*
X88176Y170369D01*
X88240Y170452D01*
X88305Y170563D01*
Y170572D01*
X88314Y170591D01*
X88333Y170628D01*
X88342Y170674D01*
X88361Y170729D01*
X88370Y170803D01*
X88379Y170887D01*
Y170979D01*
Y170988D01*
Y171016D01*
Y171062D01*
X88370Y171108D01*
X88342Y171238D01*
X88287Y171367D01*
Y171377D01*
X88268Y171395D01*
X88250Y171423D01*
X88222Y171460D01*
X88185Y171506D01*
X88129Y171543D01*
X88074Y171580D01*
X88000Y171617D01*
X87991D01*
X87972Y171626D01*
X87944Y171635D01*
X87907Y171654D01*
X87806Y171682D01*
X87686Y171700D01*
X87658D01*
X87621Y171709D01*
X87510D01*
X87436Y171719D01*
D02*
G37*
G36*
X147380D02*
X146705D01*
Y170091D01*
X147241D01*
X147315Y170101D01*
X147399D01*
X147482Y170110D01*
X147574Y170119D01*
X147657Y170128D01*
X147667D01*
X147694Y170138D01*
X147740Y170147D01*
X147787Y170165D01*
X147907Y170212D01*
X148036Y170286D01*
X148046Y170295D01*
X148064Y170304D01*
X148083Y170332D01*
X148120Y170369D01*
X148184Y170452D01*
X148249Y170563D01*
Y170572D01*
X148258Y170591D01*
X148277Y170628D01*
X148286Y170674D01*
X148305Y170729D01*
X148314Y170803D01*
X148323Y170887D01*
Y170979D01*
Y170988D01*
Y171016D01*
Y171062D01*
X148314Y171108D01*
X148286Y171238D01*
X148231Y171367D01*
Y171377D01*
X148212Y171395D01*
X148194Y171423D01*
X148166Y171460D01*
X148129Y171506D01*
X148073Y171543D01*
X148018Y171580D01*
X147944Y171617D01*
X147935D01*
X147916Y171626D01*
X147888Y171635D01*
X147851Y171654D01*
X147750Y171682D01*
X147630Y171700D01*
X147602D01*
X147565Y171709D01*
X147454D01*
X147380Y171719D01*
D02*
G37*
G36*
X153223Y171922D02*
X153168D01*
X153103Y171913D01*
X153029Y171904D01*
X152946Y171885D01*
X152853Y171848D01*
X152770Y171811D01*
X152687Y171756D01*
X152678Y171746D01*
X152659Y171728D01*
X152622Y171691D01*
X152594Y171645D01*
X152557Y171580D01*
X152521Y171515D01*
X152502Y171432D01*
X152493Y171349D01*
Y171340D01*
Y171312D01*
X152502Y171266D01*
X152511Y171210D01*
X152548Y171081D01*
X152576Y171016D01*
X152613Y170961D01*
X152622Y170951D01*
X152641Y170933D01*
X152669Y170905D01*
X152705Y170868D01*
X152761Y170831D01*
X152826Y170785D01*
X152900Y170729D01*
X152992Y170683D01*
X153001D01*
X153011Y170674D01*
X153066Y170646D01*
X153149Y170609D01*
X153251Y170563D01*
X153260D01*
X153279Y170554D01*
X153316Y170544D01*
X153362Y170526D01*
X153417Y170498D01*
X153491Y170480D01*
X153574Y170452D01*
X153667Y170415D01*
X153676Y170424D01*
X153695Y170452D01*
X153722Y170489D01*
X153759Y170544D01*
X153833Y170665D01*
X153898Y170803D01*
Y170813D01*
X153907Y170840D01*
X153926Y170877D01*
X153935Y170933D01*
X153954Y170998D01*
X153963Y171071D01*
X153972Y171247D01*
Y171256D01*
Y171303D01*
X153963Y171358D01*
X153944Y171423D01*
X153926Y171497D01*
X153889Y171580D01*
X153833Y171663D01*
X153769Y171737D01*
X153759Y171746D01*
X153732Y171765D01*
X153686Y171793D01*
X153621Y171830D01*
X153547Y171867D01*
X153454Y171894D01*
X153343Y171913D01*
X153223Y171922D01*
D02*
G37*
G36*
X152715Y169509D02*
X152705Y169500D01*
X152687Y169481D01*
X152659Y169444D01*
X152622Y169398D01*
X152576Y169342D01*
X152530Y169278D01*
X152437Y169121D01*
X152428Y169111D01*
X152419Y169084D01*
X152400Y169037D01*
X152382Y168973D01*
X152354Y168899D01*
X152336Y168806D01*
X152326Y168714D01*
X152317Y168612D01*
Y168594D01*
Y168547D01*
X152336Y168464D01*
X152354Y168372D01*
X152382Y168270D01*
X152428Y168159D01*
X152493Y168048D01*
X152576Y167946D01*
X152585Y167937D01*
X152622Y167910D01*
X152687Y167863D01*
X152761Y167826D01*
X152863Y167780D01*
X152983Y167734D01*
X153122Y167706D01*
X153279Y167697D01*
X153297D01*
X153362Y167706D01*
X153445Y167715D01*
X153547Y167734D01*
X153556D01*
X153574Y167743D01*
X153602Y167752D01*
X153639Y167761D01*
X153722Y167799D01*
X153815Y167854D01*
X153824D01*
X153833Y167873D01*
X153889Y167919D01*
X153963Y167983D01*
X154028Y168067D01*
Y168076D01*
X154037Y168094D01*
X154055Y168122D01*
X154074Y168159D01*
X154083Y168205D01*
X154101Y168270D01*
X154111Y168409D01*
Y168418D01*
Y168455D01*
X154101Y168510D01*
X154092Y168575D01*
X154055Y168723D01*
X154028Y168797D01*
X153981Y168862D01*
X153972Y168871D01*
X153954Y168890D01*
X153917Y168927D01*
X153870Y168964D01*
X153796Y169019D01*
X153704Y169074D01*
X153584Y169139D01*
X153445Y169213D01*
X153436D01*
X153427Y169222D01*
X153399Y169232D01*
X153362Y169250D01*
X153306Y169269D01*
X153251Y169296D01*
X153186Y169324D01*
X153103Y169352D01*
X153094D01*
X153066Y169370D01*
X153029Y169380D01*
X152974Y169407D01*
X152853Y169454D01*
X152715Y169509D01*
D02*
G37*
G36*
X207324Y171465D02*
X206649D01*
Y169837D01*
X207185D01*
X207259Y169847D01*
X207342D01*
X207426Y169856D01*
X207518Y169865D01*
X207601Y169874D01*
X207611D01*
X207638Y169884D01*
X207684Y169893D01*
X207731Y169911D01*
X207851Y169958D01*
X207980Y170032D01*
X207990Y170041D01*
X208008Y170050D01*
X208027Y170078D01*
X208064Y170115D01*
X208128Y170198D01*
X208193Y170309D01*
Y170318D01*
X208202Y170337D01*
X208221Y170374D01*
X208230Y170420D01*
X208249Y170475D01*
X208258Y170549D01*
X208267Y170633D01*
Y170725D01*
Y170734D01*
Y170762D01*
Y170808D01*
X208258Y170854D01*
X208230Y170984D01*
X208175Y171113D01*
Y171123D01*
X208156Y171141D01*
X208138Y171169D01*
X208110Y171206D01*
X208073Y171252D01*
X208017Y171289D01*
X207962Y171326D01*
X207888Y171363D01*
X207879D01*
X207860Y171372D01*
X207833Y171381D01*
X207796Y171400D01*
X207694Y171428D01*
X207574Y171446D01*
X207546D01*
X207509Y171455D01*
X207398D01*
X207324Y171465D01*
D02*
G37*
G36*
X268183Y169749D02*
X268128D01*
X268082Y169740D01*
X267980Y169731D01*
X267860Y169703D01*
X267851D01*
X267832Y169694D01*
X267795Y169685D01*
X267758Y169675D01*
X267656Y169648D01*
X267546Y169601D01*
Y169592D01*
Y169574D01*
Y169527D01*
Y169472D01*
Y169454D01*
Y169407D01*
Y169333D01*
Y169241D01*
Y169232D01*
Y169222D01*
Y169195D01*
Y169158D01*
X267555Y169065D01*
Y168945D01*
X267564Y168806D01*
X267582Y168668D01*
X267601Y168538D01*
X267629Y168409D01*
Y168400D01*
X267647Y168353D01*
X267666Y168298D01*
X267694Y168233D01*
X267767Y168076D01*
X267814Y168002D01*
X267860Y167937D01*
X267869Y167928D01*
X267878Y167919D01*
X267925Y167863D01*
X267999Y167808D01*
X268091Y167752D01*
X268100D01*
X268119Y167743D01*
X268146Y167734D01*
X268183Y167725D01*
X268267Y167706D01*
X268378Y167697D01*
X268424D01*
X268461Y167706D01*
X268544Y167725D01*
X268646Y167752D01*
X268655D01*
X268673Y167761D01*
X268729Y167799D01*
X268803Y167854D01*
X268877Y167937D01*
X268886Y167946D01*
X268895Y167965D01*
X268923Y167993D01*
X268942Y168030D01*
X269006Y168122D01*
X269062Y168242D01*
Y168252D01*
X269071Y168279D01*
X269080Y168316D01*
X269099Y168372D01*
X269108Y168446D01*
X269117Y168538D01*
X269126Y168649D01*
Y168769D01*
Y168779D01*
Y168815D01*
Y168871D01*
X269117Y168936D01*
X269099Y169093D01*
X269080Y169167D01*
X269053Y169241D01*
Y169250D01*
X269043Y169278D01*
X269025Y169306D01*
X268997Y169352D01*
X268932Y169454D01*
X268840Y169546D01*
X268831Y169555D01*
X268821Y169564D01*
X268794Y169583D01*
X268757Y169611D01*
X268664Y169657D01*
X268544Y169703D01*
X268535D01*
X268516Y169712D01*
X268479Y169722D01*
X268433Y169731D01*
X268322Y169740D01*
X268183Y169749D01*
D02*
G37*
G36*
X262442Y171719D02*
X261767D01*
Y170091D01*
X262303D01*
X262377Y170101D01*
X262460D01*
X262544Y170110D01*
X262636Y170119D01*
X262719Y170128D01*
X262729D01*
X262756Y170138D01*
X262803Y170147D01*
X262849Y170165D01*
X262969Y170212D01*
X263098Y170286D01*
X263108Y170295D01*
X263126Y170304D01*
X263145Y170332D01*
X263182Y170369D01*
X263246Y170452D01*
X263311Y170563D01*
Y170572D01*
X263320Y170591D01*
X263339Y170628D01*
X263348Y170674D01*
X263367Y170729D01*
X263376Y170803D01*
X263385Y170887D01*
Y170979D01*
Y170988D01*
Y171016D01*
Y171062D01*
X263376Y171108D01*
X263348Y171238D01*
X263293Y171367D01*
Y171377D01*
X263274Y171395D01*
X263256Y171423D01*
X263228Y171460D01*
X263191Y171506D01*
X263135Y171543D01*
X263080Y171580D01*
X263006Y171617D01*
X262997D01*
X262978Y171626D01*
X262950Y171635D01*
X262913Y171654D01*
X262812Y171682D01*
X262692Y171700D01*
X262664D01*
X262627Y171709D01*
X262516D01*
X262442Y171719D01*
D02*
G37*
G36*
X322386D02*
X321711D01*
Y170091D01*
X322247D01*
X322321Y170101D01*
X322405D01*
X322488Y170110D01*
X322580Y170119D01*
X322663Y170128D01*
X322673D01*
X322700Y170138D01*
X322747Y170147D01*
X322793Y170165D01*
X322913Y170212D01*
X323042Y170286D01*
X323052Y170295D01*
X323070Y170304D01*
X323089Y170332D01*
X323126Y170369D01*
X323190Y170452D01*
X323255Y170563D01*
Y170572D01*
X323264Y170591D01*
X323283Y170628D01*
X323292Y170674D01*
X323311Y170729D01*
X323320Y170803D01*
X323329Y170887D01*
Y170979D01*
Y170988D01*
Y171016D01*
Y171062D01*
X323320Y171108D01*
X323292Y171238D01*
X323237Y171367D01*
Y171377D01*
X323218Y171395D01*
X323200Y171423D01*
X323172Y171460D01*
X323135Y171506D01*
X323079Y171543D01*
X323024Y171580D01*
X322950Y171617D01*
X322941D01*
X322922Y171626D01*
X322895Y171635D01*
X322858Y171654D01*
X322756Y171682D01*
X322636Y171700D01*
X322608D01*
X322571Y171709D01*
X322460D01*
X322386Y171719D01*
D02*
G37*
G36*
X382330Y171465D02*
X381655D01*
Y169837D01*
X382191D01*
X382265Y169847D01*
X382349D01*
X382432Y169856D01*
X382524Y169865D01*
X382607Y169874D01*
X382617D01*
X382644Y169884D01*
X382691Y169893D01*
X382737Y169911D01*
X382857Y169958D01*
X382986Y170032D01*
X382996Y170041D01*
X383014Y170050D01*
X383033Y170078D01*
X383070Y170115D01*
X383134Y170198D01*
X383199Y170309D01*
Y170318D01*
X383208Y170337D01*
X383227Y170374D01*
X383236Y170420D01*
X383255Y170475D01*
X383264Y170549D01*
X383273Y170633D01*
Y170725D01*
Y170734D01*
Y170762D01*
Y170808D01*
X383264Y170854D01*
X383236Y170984D01*
X383181Y171113D01*
Y171123D01*
X383162Y171141D01*
X383144Y171169D01*
X383116Y171206D01*
X383079Y171252D01*
X383023Y171289D01*
X382968Y171326D01*
X382894Y171363D01*
X382885D01*
X382866Y171372D01*
X382839Y171381D01*
X382802Y171400D01*
X382700Y171428D01*
X382580Y171446D01*
X382552D01*
X382515Y171455D01*
X382404D01*
X382330Y171465D01*
D02*
G37*
G36*
X388358Y171067D02*
X386842Y169033D01*
X388358D01*
Y171067D01*
D02*
G37*
G36*
X442528Y171719D02*
X441853D01*
Y170091D01*
X442389D01*
X442463Y170101D01*
X442547D01*
X442630Y170110D01*
X442722Y170119D01*
X442805Y170128D01*
X442815D01*
X442842Y170138D01*
X442888Y170147D01*
X442935Y170165D01*
X443055Y170212D01*
X443184Y170286D01*
X443194Y170295D01*
X443212Y170304D01*
X443231Y170332D01*
X443268Y170369D01*
X443332Y170452D01*
X443397Y170563D01*
Y170572D01*
X443406Y170591D01*
X443425Y170628D01*
X443434Y170674D01*
X443452Y170729D01*
X443462Y170803D01*
X443471Y170887D01*
Y170979D01*
Y170988D01*
Y171016D01*
Y171062D01*
X443462Y171108D01*
X443434Y171238D01*
X443379Y171367D01*
Y171377D01*
X443360Y171395D01*
X443342Y171423D01*
X443314Y171460D01*
X443277Y171506D01*
X443221Y171543D01*
X443166Y171580D01*
X443092Y171617D01*
X443083D01*
X443064Y171626D01*
X443036Y171635D01*
X442999Y171654D01*
X442898Y171682D01*
X442778Y171700D01*
X442750D01*
X442713Y171709D01*
X442602D01*
X442528Y171719D01*
D02*
G37*
G36*
X502472Y171465D02*
X501797D01*
Y169837D01*
X502333D01*
X502407Y169847D01*
X502491D01*
X502574Y169856D01*
X502666Y169865D01*
X502749Y169874D01*
X502759D01*
X502786Y169884D01*
X502832Y169893D01*
X502879Y169911D01*
X502999Y169958D01*
X503128Y170032D01*
X503138Y170041D01*
X503156Y170050D01*
X503175Y170078D01*
X503212Y170115D01*
X503276Y170198D01*
X503341Y170309D01*
Y170318D01*
X503350Y170337D01*
X503369Y170374D01*
X503378Y170420D01*
X503396Y170475D01*
X503406Y170549D01*
X503415Y170633D01*
Y170725D01*
Y170734D01*
Y170762D01*
Y170808D01*
X503406Y170854D01*
X503378Y170984D01*
X503323Y171113D01*
Y171123D01*
X503304Y171141D01*
X503286Y171169D01*
X503258Y171206D01*
X503221Y171252D01*
X503165Y171289D01*
X503110Y171326D01*
X503036Y171363D01*
X503027D01*
X503008Y171372D01*
X502980Y171381D01*
X502943Y171400D01*
X502842Y171428D01*
X502722Y171446D01*
X502694D01*
X502657Y171455D01*
X502546D01*
X502472Y171465D01*
D02*
G37*
G36*
X557336D02*
X556661D01*
Y169837D01*
X557197D01*
X557271Y169847D01*
X557355D01*
X557438Y169856D01*
X557530Y169865D01*
X557613Y169874D01*
X557623D01*
X557650Y169884D01*
X557696Y169893D01*
X557743Y169911D01*
X557863Y169958D01*
X557992Y170032D01*
X558002Y170041D01*
X558020Y170050D01*
X558039Y170078D01*
X558076Y170115D01*
X558140Y170198D01*
X558205Y170309D01*
Y170318D01*
X558214Y170337D01*
X558233Y170374D01*
X558242Y170420D01*
X558260Y170475D01*
X558270Y170549D01*
X558279Y170633D01*
Y170725D01*
Y170734D01*
Y170762D01*
Y170808D01*
X558270Y170854D01*
X558242Y170984D01*
X558187Y171113D01*
Y171123D01*
X558168Y171141D01*
X558150Y171169D01*
X558122Y171206D01*
X558085Y171252D01*
X558029Y171289D01*
X557974Y171326D01*
X557900Y171363D01*
X557891D01*
X557872Y171372D01*
X557845Y171381D01*
X557808Y171400D01*
X557706Y171428D01*
X557586Y171446D01*
X557558D01*
X557521Y171455D01*
X557410D01*
X557336Y171465D01*
D02*
G37*
G36*
X65208Y211335D02*
X65005D01*
X64995D01*
X64958D01*
X64894D01*
X64820D01*
X64727Y211326D01*
X64626D01*
X64505Y211317D01*
X64385D01*
X64126Y211289D01*
X63858Y211261D01*
X63738Y211233D01*
X63618Y211215D01*
X63516Y211187D01*
X63424Y211150D01*
X63414D01*
X63405Y211141D01*
X63350Y211113D01*
X63276Y211067D01*
X63193Y211002D01*
X63109Y210919D01*
X63045Y210808D01*
X62989Y210679D01*
X62980Y210614D01*
X62971Y210531D01*
Y210512D01*
X62980Y210457D01*
X62998Y210383D01*
X63026Y210290D01*
X63081Y210189D01*
X63165Y210087D01*
X63211Y210041D01*
X63276Y209995D01*
X63340Y209948D01*
X63424Y209911D01*
X63433D01*
X63442Y209902D01*
X63470Y209893D01*
X63516Y209884D01*
X63562Y209865D01*
X63627Y209856D01*
X63701Y209837D01*
X63793Y209819D01*
X63895Y209800D01*
X64006Y209782D01*
X64135Y209773D01*
X64283Y209754D01*
X64441Y209745D01*
X64616Y209736D01*
X64801Y209726D01*
X65005D01*
X65014D01*
X65051D01*
X65106D01*
X65180D01*
X65273Y209736D01*
X65384D01*
X65495Y209745D01*
X65615Y209754D01*
X65874Y209773D01*
X66133Y209800D01*
X66262Y209828D01*
X66373Y209847D01*
X66484Y209884D01*
X66576Y209911D01*
X66586D01*
X66595Y209921D01*
X66650Y209948D01*
X66715Y209995D01*
X66798Y210059D01*
X66881Y210142D01*
X66955Y210253D01*
X67011Y210383D01*
X67020Y210457D01*
X67029Y210531D01*
Y210549D01*
X67020Y210605D01*
X67002Y210679D01*
X66974Y210771D01*
X66918Y210864D01*
X66835Y210965D01*
X66789Y211021D01*
X66724Y211058D01*
X66660Y211104D01*
X66576Y211141D01*
X66567D01*
X66558Y211150D01*
X66530Y211159D01*
X66484Y211169D01*
X66438Y211187D01*
X66373Y211206D01*
X66299Y211224D01*
X66206Y211243D01*
X66105Y211252D01*
X65985Y211270D01*
X65864Y211289D01*
X65717Y211307D01*
X65559Y211317D01*
X65393Y211326D01*
X65208Y211335D01*
D02*
G37*
G36*
X64995Y200795D02*
X64986D01*
X64968D01*
X64940D01*
X64894D01*
X64847Y200786D01*
X64783D01*
X64644Y200767D01*
X64487Y200740D01*
X64311Y200703D01*
X64145Y200656D01*
X63978Y200583D01*
X63969D01*
X63960Y200573D01*
X63904Y200546D01*
X63830Y200499D01*
X63738Y200425D01*
X63627Y200342D01*
X63516Y200231D01*
X63414Y200102D01*
X63313Y199954D01*
X63303Y199944D01*
X63285Y199898D01*
X63257Y199843D01*
X63229Y199760D01*
X63193Y199658D01*
X63165Y199556D01*
X63137Y199436D01*
X63128Y199307D01*
Y199251D01*
X63119Y199177D01*
Y198965D01*
X63109Y198835D01*
Y198484D01*
X66872D01*
Y199085D01*
X66863Y199223D01*
Y199381D01*
X66854Y199427D01*
X66845Y199492D01*
X66826Y199575D01*
X66798Y199676D01*
X66761Y199787D01*
X66706Y199908D01*
X66641Y200028D01*
X66632Y200046D01*
X66595Y200093D01*
X66549Y200157D01*
X66475Y200240D01*
X66382Y200333D01*
X66271Y200425D01*
X66151Y200518D01*
X66003Y200601D01*
X65994D01*
X65985Y200610D01*
X65929Y200629D01*
X65837Y200666D01*
X65717Y200703D01*
X65578Y200730D01*
X65402Y200767D01*
X65208Y200786D01*
X64995Y200795D01*
D02*
G37*
G36*
X124621Y209077D02*
X124547D01*
X124445D01*
X124436D01*
X124427D01*
X124399D01*
X124362D01*
X124270D01*
X124159Y209068D01*
X124029Y209058D01*
X123900Y209040D01*
X123761Y209022D01*
X123641Y208994D01*
X123622D01*
X123585Y208975D01*
X123530Y208957D01*
X123456Y208938D01*
X123290Y208864D01*
X123216Y208818D01*
X123142Y208763D01*
X123132Y208753D01*
X123123Y208744D01*
X123068Y208689D01*
X123012Y208615D01*
X122957Y208522D01*
Y208513D01*
X122948Y208504D01*
X122938Y208476D01*
X122920Y208439D01*
X122901Y208347D01*
X122892Y208245D01*
Y208199D01*
X122901Y208162D01*
X122910Y208069D01*
X122948Y207977D01*
Y207968D01*
X122957Y207958D01*
X122994Y207903D01*
X123049Y207829D01*
X123142Y207736D01*
X123151D01*
X123160Y207718D01*
X123188Y207699D01*
X123225Y207681D01*
X123271Y207653D01*
X123336Y207616D01*
X123400Y207589D01*
X123484Y207561D01*
X123493D01*
X123521Y207551D01*
X123567Y207542D01*
X123632Y207533D01*
X123706Y207514D01*
X123789Y207505D01*
X123983Y207496D01*
X123992D01*
X124029D01*
X124085D01*
X124149Y207505D01*
X124307Y207524D01*
X124464Y207570D01*
X124473D01*
X124492Y207579D01*
X124529Y207598D01*
X124565Y207626D01*
X124667Y207681D01*
X124760Y207764D01*
Y207773D01*
X124778Y207792D01*
X124797Y207810D01*
X124824Y207847D01*
X124871Y207940D01*
X124917Y208060D01*
Y208069D01*
X124926Y208088D01*
Y208125D01*
X124935Y208171D01*
X124944Y208226D01*
Y208291D01*
X124954Y208430D01*
Y208495D01*
X124944Y208531D01*
X124935Y208643D01*
X124908Y208772D01*
Y208781D01*
X124898Y208800D01*
X124889Y208837D01*
X124880Y208874D01*
X124852Y208966D01*
X124815Y209058D01*
X124806D01*
X124778D01*
X124741D01*
X124686Y209068D01*
X124667D01*
X124621Y209077D01*
D02*
G37*
G36*
X125000Y203872D02*
X124991D01*
X124972D01*
X124944D01*
X124898D01*
X124852Y203862D01*
X124787D01*
X124649Y203844D01*
X124492Y203816D01*
X124316Y203779D01*
X124149Y203733D01*
X123983Y203659D01*
X123974D01*
X123965Y203650D01*
X123909Y203622D01*
X123835Y203576D01*
X123743Y203502D01*
X123632Y203419D01*
X123521Y203308D01*
X123419Y203178D01*
X123317Y203030D01*
X123308Y203021D01*
X123290Y202975D01*
X123262Y202920D01*
X123234Y202836D01*
X123197Y202735D01*
X123169Y202633D01*
X123142Y202513D01*
X123132Y202383D01*
Y202328D01*
X123123Y202254D01*
Y202041D01*
X123114Y201912D01*
Y201560D01*
X126877D01*
Y202161D01*
X126868Y202300D01*
Y202457D01*
X126858Y202503D01*
X126849Y202568D01*
X126831Y202651D01*
X126803Y202753D01*
X126766Y202864D01*
X126710Y202984D01*
X126646Y203104D01*
X126636Y203123D01*
X126600Y203169D01*
X126553Y203234D01*
X126479Y203317D01*
X126387Y203410D01*
X126276Y203502D01*
X126156Y203594D01*
X126008Y203678D01*
X125998D01*
X125989Y203687D01*
X125934Y203705D01*
X125841Y203742D01*
X125721Y203779D01*
X125583Y203807D01*
X125407Y203844D01*
X125213Y203862D01*
X125000Y203872D01*
D02*
G37*
G36*
X183558Y209017D02*
X183548D01*
X183502D01*
X183447Y209008D01*
X183382Y208989D01*
X183308Y208971D01*
X183225Y208934D01*
X183142Y208878D01*
X183068Y208813D01*
X183058Y208804D01*
X183040Y208776D01*
X183012Y208730D01*
X182975Y208666D01*
X182938Y208592D01*
X182910Y208499D01*
X182892Y208388D01*
X182883Y208268D01*
Y208213D01*
X182892Y208148D01*
X182901Y208074D01*
X182920Y207991D01*
X182957Y207898D01*
X182994Y207815D01*
X183049Y207732D01*
X183058Y207722D01*
X183077Y207704D01*
X183114Y207667D01*
X183160Y207639D01*
X183225Y207602D01*
X183290Y207565D01*
X183373Y207547D01*
X183456Y207538D01*
X183465D01*
X183493D01*
X183539Y207547D01*
X183595Y207556D01*
X183724Y207593D01*
X183789Y207621D01*
X183844Y207658D01*
X183853Y207667D01*
X183872Y207686D01*
X183900Y207713D01*
X183937Y207750D01*
X183974Y207806D01*
X184020Y207871D01*
X184075Y207944D01*
X184122Y208037D01*
Y208046D01*
X184131Y208055D01*
X184159Y208111D01*
X184196Y208194D01*
X184242Y208296D01*
Y208305D01*
X184251Y208323D01*
X184260Y208361D01*
X184279Y208407D01*
X184307Y208462D01*
X184325Y208536D01*
X184353Y208619D01*
X184390Y208712D01*
X184380Y208721D01*
X184353Y208740D01*
X184316Y208767D01*
X184260Y208804D01*
X184140Y208878D01*
X184002Y208943D01*
X183992D01*
X183965Y208952D01*
X183927Y208971D01*
X183872Y208980D01*
X183807Y208998D01*
X183733Y209008D01*
X183558Y209017D01*
D02*
G37*
G36*
X186396Y209156D02*
X186387D01*
X186350D01*
X186294Y209146D01*
X186230Y209137D01*
X186082Y209100D01*
X186008Y209072D01*
X185943Y209026D01*
X185934Y209017D01*
X185915Y208998D01*
X185878Y208962D01*
X185841Y208915D01*
X185786Y208841D01*
X185730Y208749D01*
X185666Y208629D01*
X185592Y208490D01*
Y208481D01*
X185583Y208471D01*
X185573Y208444D01*
X185555Y208407D01*
X185536Y208351D01*
X185508Y208296D01*
X185481Y208231D01*
X185453Y208148D01*
Y208139D01*
X185434Y208111D01*
X185425Y208074D01*
X185397Y208018D01*
X185351Y207898D01*
X185296Y207759D01*
X185305Y207750D01*
X185324Y207732D01*
X185361Y207704D01*
X185407Y207667D01*
X185462Y207621D01*
X185527Y207575D01*
X185684Y207482D01*
X185693Y207473D01*
X185721Y207464D01*
X185767Y207445D01*
X185832Y207427D01*
X185906Y207399D01*
X185998Y207381D01*
X186091Y207371D01*
X186193Y207362D01*
X186211D01*
X186257D01*
X186341Y207381D01*
X186433Y207399D01*
X186535Y207427D01*
X186646Y207473D01*
X186757Y207538D01*
X186858Y207621D01*
X186868Y207630D01*
X186895Y207667D01*
X186942Y207732D01*
X186978Y207806D01*
X187025Y207908D01*
X187071Y208028D01*
X187099Y208166D01*
X187108Y208323D01*
Y208342D01*
X187099Y208407D01*
X187090Y208490D01*
X187071Y208592D01*
Y208601D01*
X187062Y208619D01*
X187052Y208647D01*
X187043Y208684D01*
X187006Y208767D01*
X186951Y208860D01*
Y208869D01*
X186932Y208878D01*
X186886Y208934D01*
X186821Y209008D01*
X186738Y209072D01*
X186729D01*
X186710Y209082D01*
X186683Y209100D01*
X186646Y209119D01*
X186600Y209128D01*
X186535Y209146D01*
X186396Y209156D01*
D02*
G37*
G36*
X184991Y203802D02*
X184981D01*
X184963D01*
X184935D01*
X184889D01*
X184843Y203793D01*
X184778D01*
X184639Y203775D01*
X184482Y203747D01*
X184307Y203710D01*
X184140Y203664D01*
X183974Y203590D01*
X183965D01*
X183955Y203580D01*
X183900Y203553D01*
X183826Y203507D01*
X183733Y203433D01*
X183622Y203349D01*
X183511Y203238D01*
X183410Y203109D01*
X183308Y202961D01*
X183299Y202952D01*
X183280Y202906D01*
X183253Y202850D01*
X183225Y202767D01*
X183188Y202665D01*
X183160Y202563D01*
X183132Y202443D01*
X183123Y202314D01*
Y202258D01*
X183114Y202184D01*
Y201972D01*
X183105Y201842D01*
Y201491D01*
X186868D01*
Y202092D01*
X186858Y202231D01*
Y202388D01*
X186849Y202434D01*
X186840Y202499D01*
X186821Y202582D01*
X186794Y202684D01*
X186757Y202795D01*
X186701Y202915D01*
X186637Y203035D01*
X186627Y203053D01*
X186590Y203100D01*
X186544Y203165D01*
X186470Y203248D01*
X186378Y203340D01*
X186267Y203433D01*
X186146Y203525D01*
X185998Y203608D01*
X185989D01*
X185980Y203617D01*
X185924Y203636D01*
X185832Y203673D01*
X185712Y203710D01*
X185573Y203738D01*
X185397Y203775D01*
X185203Y203793D01*
X184991Y203802D01*
D02*
G37*
G36*
X244995Y203858D02*
X244986D01*
X244968D01*
X244940D01*
X244894D01*
X244847Y203849D01*
X244783D01*
X244644Y203830D01*
X244487Y203802D01*
X244311Y203765D01*
X244145Y203719D01*
X243978Y203645D01*
X243969D01*
X243960Y203636D01*
X243904Y203608D01*
X243830Y203562D01*
X243738Y203488D01*
X243627Y203405D01*
X243516Y203294D01*
X243414Y203164D01*
X243313Y203016D01*
X243303Y203007D01*
X243285Y202961D01*
X243257Y202906D01*
X243229Y202822D01*
X243193Y202721D01*
X243165Y202619D01*
X243137Y202499D01*
X243128Y202369D01*
Y202314D01*
X243118Y202240D01*
Y202027D01*
X243109Y201898D01*
Y201546D01*
X246872D01*
Y202147D01*
X246863Y202286D01*
Y202443D01*
X246854Y202489D01*
X246845Y202554D01*
X246826Y202637D01*
X246798Y202739D01*
X246761Y202850D01*
X246706Y202970D01*
X246641Y203090D01*
X246632Y203109D01*
X246595Y203155D01*
X246549Y203220D01*
X246475Y203303D01*
X246382Y203396D01*
X246271Y203488D01*
X246151Y203580D01*
X246003Y203664D01*
X245994D01*
X245985Y203673D01*
X245929Y203691D01*
X245837Y203728D01*
X245716Y203765D01*
X245578Y203793D01*
X245402Y203830D01*
X245208Y203849D01*
X244995Y203858D01*
D02*
G37*
G36*
X301151Y209119D02*
X301031D01*
X301022D01*
X300985D01*
X300929D01*
X300864Y209109D01*
X300707Y209091D01*
X300633Y209072D01*
X300559Y209045D01*
X300550D01*
X300522Y209035D01*
X300495Y209017D01*
X300448Y208989D01*
X300347Y208924D01*
X300254Y208832D01*
X300245Y208823D01*
X300236Y208813D01*
X300217Y208786D01*
X300189Y208749D01*
X300143Y208656D01*
X300097Y208536D01*
Y208527D01*
X300088Y208508D01*
X300079Y208471D01*
X300069Y208425D01*
X300060Y208314D01*
X300051Y208176D01*
Y208120D01*
X300060Y208074D01*
X300069Y207972D01*
X300097Y207852D01*
Y207843D01*
X300106Y207824D01*
X300116Y207787D01*
X300125Y207750D01*
X300152Y207649D01*
X300199Y207538D01*
X300208D01*
X300226D01*
X300273D01*
X300328D01*
X300347D01*
X300393D01*
X300467D01*
X300559D01*
X300569D01*
X300578D01*
X300606D01*
X300643D01*
X300735Y207547D01*
X300855D01*
X300994Y207556D01*
X301133Y207575D01*
X301262Y207593D01*
X301391Y207621D01*
X301401D01*
X301447Y207639D01*
X301502Y207658D01*
X301567Y207686D01*
X301724Y207759D01*
X301798Y207806D01*
X301863Y207852D01*
X301872Y207861D01*
X301881Y207871D01*
X301937Y207917D01*
X301992Y207991D01*
X302048Y208083D01*
Y208092D01*
X302057Y208111D01*
X302066Y208139D01*
X302076Y208176D01*
X302094Y208259D01*
X302103Y208370D01*
Y208416D01*
X302094Y208453D01*
X302076Y208536D01*
X302048Y208638D01*
Y208647D01*
X302039Y208666D01*
X302002Y208721D01*
X301946Y208795D01*
X301863Y208869D01*
X301854Y208878D01*
X301835Y208888D01*
X301807Y208915D01*
X301770Y208934D01*
X301678Y208998D01*
X301558Y209054D01*
X301549D01*
X301521Y209063D01*
X301484Y209072D01*
X301428Y209091D01*
X301354Y209100D01*
X301262Y209109D01*
X301151Y209119D01*
D02*
G37*
G36*
X299986Y203812D02*
X299977D01*
X299958D01*
X299931D01*
X299884D01*
X299838Y203802D01*
X299773D01*
X299635Y203784D01*
X299478Y203756D01*
X299302Y203719D01*
X299135Y203673D01*
X298969Y203599D01*
X298960D01*
X298951Y203590D01*
X298895Y203562D01*
X298821Y203516D01*
X298729Y203442D01*
X298618Y203359D01*
X298507Y203248D01*
X298405Y203118D01*
X298303Y202970D01*
X298294Y202961D01*
X298276Y202915D01*
X298248Y202859D01*
X298220Y202776D01*
X298183Y202674D01*
X298155Y202573D01*
X298128Y202453D01*
X298118Y202323D01*
Y202268D01*
X298109Y202194D01*
Y201981D01*
X298100Y201852D01*
Y201500D01*
X301863D01*
Y202101D01*
X301854Y202240D01*
Y202397D01*
X301845Y202443D01*
X301835Y202508D01*
X301817Y202591D01*
X301789Y202693D01*
X301752Y202804D01*
X301696Y202924D01*
X301632Y203044D01*
X301623Y203063D01*
X301586Y203109D01*
X301539Y203174D01*
X301465Y203257D01*
X301373Y203349D01*
X301262Y203442D01*
X301142Y203534D01*
X300994Y203617D01*
X300985D01*
X300975Y203627D01*
X300920Y203645D01*
X300827Y203682D01*
X300707Y203719D01*
X300569Y203747D01*
X300393Y203784D01*
X300199Y203802D01*
X299986Y203812D01*
D02*
G37*
G36*
X359931Y203862D02*
X359921D01*
X359903D01*
X359875D01*
X359829D01*
X359783Y203853D01*
X359718D01*
X359579Y203835D01*
X359422Y203807D01*
X359246Y203770D01*
X359080Y203724D01*
X358914Y203650D01*
X358904D01*
X358895Y203641D01*
X358840Y203613D01*
X358766Y203567D01*
X358673Y203493D01*
X358562Y203410D01*
X358451Y203298D01*
X358350Y203169D01*
X358248Y203021D01*
X358239Y203012D01*
X358220Y202966D01*
X358192Y202910D01*
X358165Y202827D01*
X358128Y202725D01*
X358100Y202624D01*
X358072Y202503D01*
X358063Y202374D01*
Y202318D01*
X358054Y202244D01*
Y202032D01*
X358045Y201902D01*
Y201551D01*
X361808D01*
Y202152D01*
X361798Y202291D01*
Y202448D01*
X361789Y202494D01*
X361780Y202559D01*
X361761Y202642D01*
X361734Y202744D01*
X361697Y202855D01*
X361641Y202975D01*
X361576Y203095D01*
X361567Y203114D01*
X361530Y203160D01*
X361484Y203225D01*
X361410Y203308D01*
X361317Y203400D01*
X361207Y203493D01*
X361086Y203585D01*
X360938Y203668D01*
X360929D01*
X360920Y203678D01*
X360864Y203696D01*
X360772Y203733D01*
X360652Y203770D01*
X360513Y203798D01*
X360337Y203835D01*
X360143Y203853D01*
X359931Y203862D01*
D02*
G37*
G36*
X420513Y208407D02*
X418479D01*
X420513Y206890D01*
Y208407D01*
D02*
G37*
G36*
X419986Y203756D02*
X419977D01*
X419958D01*
X419931D01*
X419884D01*
X419838Y203747D01*
X419773D01*
X419635Y203728D01*
X419478Y203701D01*
X419302Y203664D01*
X419136Y203617D01*
X418969Y203543D01*
X418960D01*
X418951Y203534D01*
X418895Y203507D01*
X418821Y203460D01*
X418729Y203386D01*
X418618Y203303D01*
X418507Y203192D01*
X418405Y203063D01*
X418303Y202915D01*
X418294Y202906D01*
X418276Y202859D01*
X418248Y202804D01*
X418220Y202721D01*
X418183Y202619D01*
X418156Y202517D01*
X418128Y202397D01*
X418119Y202268D01*
Y202212D01*
X418109Y202138D01*
Y201926D01*
X418100Y201796D01*
Y201445D01*
X421863D01*
Y202046D01*
X421854Y202184D01*
Y202342D01*
X421844Y202388D01*
X421835Y202453D01*
X421817Y202536D01*
X421789Y202637D01*
X421752Y202748D01*
X421697Y202869D01*
X421632Y202989D01*
X421623Y203007D01*
X421586Y203053D01*
X421539Y203118D01*
X421465Y203201D01*
X421373Y203294D01*
X421262Y203386D01*
X421142Y203479D01*
X420994Y203562D01*
X420985D01*
X420975Y203571D01*
X420920Y203590D01*
X420827Y203627D01*
X420707Y203664D01*
X420569Y203691D01*
X420393Y203728D01*
X420199Y203747D01*
X419986Y203756D01*
D02*
G37*
G36*
X479995Y198867D02*
X479986D01*
X479968D01*
X479940D01*
X479894D01*
X479847Y198858D01*
X479783D01*
X479644Y198839D01*
X479487Y198812D01*
X479311Y198775D01*
X479145Y198728D01*
X478978Y198654D01*
X478969D01*
X478960Y198645D01*
X478904Y198617D01*
X478830Y198571D01*
X478738Y198497D01*
X478627Y198414D01*
X478516Y198303D01*
X478414Y198174D01*
X478313Y198026D01*
X478303Y198016D01*
X478285Y197970D01*
X478257Y197915D01*
X478229Y197832D01*
X478192Y197730D01*
X478165Y197628D01*
X478137Y197508D01*
X478128Y197379D01*
Y197323D01*
X478119Y197249D01*
Y197036D01*
X478109Y196907D01*
Y196556D01*
X481872D01*
Y197157D01*
X481863Y197295D01*
Y197453D01*
X481854Y197499D01*
X481844Y197563D01*
X481826Y197647D01*
X481798Y197748D01*
X481761Y197859D01*
X481706Y197980D01*
X481641Y198100D01*
X481632Y198118D01*
X481595Y198164D01*
X481549Y198229D01*
X481475Y198312D01*
X481382Y198405D01*
X481271Y198497D01*
X481151Y198590D01*
X481003Y198673D01*
X480994D01*
X480985Y198682D01*
X480929Y198701D01*
X480837Y198738D01*
X480717Y198775D01*
X480578Y198802D01*
X480402Y198839D01*
X480208Y198858D01*
X479995Y198867D01*
D02*
G37*
G36*
X540051Y198393D02*
X540042D01*
X540023D01*
X539995D01*
X539949D01*
X539903Y198384D01*
X539838D01*
X539700Y198365D01*
X539542Y198338D01*
X539367Y198301D01*
X539200Y198254D01*
X539034Y198181D01*
X539025D01*
X539015Y198171D01*
X538960Y198144D01*
X538886Y198097D01*
X538793Y198023D01*
X538683Y197940D01*
X538572Y197829D01*
X538470Y197700D01*
X538368Y197552D01*
X538359Y197542D01*
X538340Y197496D01*
X538313Y197441D01*
X538285Y197358D01*
X538248Y197256D01*
X538220Y197154D01*
X538192Y197034D01*
X538183Y196905D01*
Y196849D01*
X538174Y196775D01*
Y196562D01*
X538165Y196433D01*
Y196082D01*
X541928D01*
Y196683D01*
X541918Y196821D01*
Y196978D01*
X541909Y197025D01*
X541900Y197090D01*
X541881Y197173D01*
X541854Y197274D01*
X541817Y197385D01*
X541761Y197505D01*
X541697Y197626D01*
X541687Y197644D01*
X541650Y197691D01*
X541604Y197755D01*
X541530Y197838D01*
X541438Y197931D01*
X541327Y198023D01*
X541207Y198116D01*
X541059Y198199D01*
X541049D01*
X541040Y198208D01*
X540985Y198227D01*
X540892Y198264D01*
X540772Y198301D01*
X540633Y198328D01*
X540458Y198365D01*
X540263Y198384D01*
X540051Y198393D01*
D02*
G37*
G36*
X590000Y198522D02*
X589991D01*
X589972D01*
X589944D01*
X589898D01*
X589852Y198513D01*
X589787D01*
X589649Y198495D01*
X589492Y198467D01*
X589316Y198430D01*
X589149Y198384D01*
X588983Y198310D01*
X588974D01*
X588965Y198301D01*
X588909Y198273D01*
X588835Y198227D01*
X588743Y198153D01*
X588632Y198069D01*
X588521Y197959D01*
X588419Y197829D01*
X588317Y197681D01*
X588308Y197672D01*
X588289Y197626D01*
X588262Y197570D01*
X588234Y197487D01*
X588197Y197385D01*
X588169Y197284D01*
X588142Y197163D01*
X588132Y197034D01*
Y196978D01*
X588123Y196905D01*
Y196692D01*
X588114Y196562D01*
Y196211D01*
X591877D01*
Y196812D01*
X591868Y196951D01*
Y197108D01*
X591858Y197154D01*
X591849Y197219D01*
X591831Y197302D01*
X591803Y197404D01*
X591766Y197515D01*
X591710Y197635D01*
X591646Y197755D01*
X591636Y197774D01*
X591600Y197820D01*
X591553Y197885D01*
X591479Y197968D01*
X591387Y198060D01*
X591276Y198153D01*
X591156Y198245D01*
X591008Y198328D01*
X590998D01*
X590989Y198338D01*
X590934Y198356D01*
X590841Y198393D01*
X590721Y198430D01*
X590582Y198458D01*
X590407Y198495D01*
X590213Y198513D01*
X590000Y198522D01*
D02*
G37*
%LPD*%
D10*
X360650Y98100D02*
G03*
X360650Y98100I-1000J0D01*
G01*
X250450Y106450D02*
G03*
X250450Y106450I-1000J0D01*
G01*
X551800Y54600D02*
Y95200D01*
X578200D01*
Y39400D02*
Y95200D01*
X565000Y39400D02*
X578200D01*
X305000Y84750D02*
Y95250D01*
X305500Y39750D02*
Y50250D01*
X29750Y144500D02*
X40250D01*
X209750D02*
X220250D01*
X89750D02*
X100250D01*
X149750D02*
X160250D01*
X559750D02*
X570250D01*
X264750D02*
X275250D01*
X324750D02*
X335250D01*
X504750D02*
X515250D01*
X384750D02*
X395250D01*
X444750D02*
X455250D01*
D11*
X35000Y221400D02*
G03*
X35000Y220400I0J-500D01*
G01*
D02*
G03*
X35000Y221400I0J500D01*
G01*
X155000Y220400D02*
G03*
X155000Y221400I0J500D01*
G01*
D02*
G03*
X155000Y220400I0J-500D01*
G01*
X565000D02*
G03*
X565000Y221400I0J500D01*
G01*
D02*
G03*
X565000Y220400I0J-500D01*
G01*
X95000D02*
G03*
X95000Y221400I0J500D01*
G01*
D02*
G03*
X95000Y220400I0J-500D01*
G01*
X510000D02*
G03*
X510000Y221400I0J500D01*
G01*
D02*
G03*
X510000Y220400I0J-500D01*
G01*
X450000D02*
G03*
X450000Y221400I0J500D01*
G01*
D02*
G03*
X450000Y220400I0J-500D01*
G01*
X390000D02*
G03*
X390000Y221400I0J500D01*
G01*
D02*
G03*
X390000Y220400I0J-500D01*
G01*
X330000D02*
G03*
X330000Y221400I0J500D01*
G01*
D02*
G03*
X330000Y220400I0J-500D01*
G01*
X270000D02*
G03*
X270000Y221400I0J500D01*
G01*
D02*
G03*
X270000Y220400I0J-500D01*
G01*
X215000D02*
G03*
X215000Y221400I0J500D01*
G01*
D02*
G03*
X215000Y220400I0J-500D01*
G01*
X52000Y196700D02*
Y198700D01*
X18000Y196700D02*
Y198700D01*
X138000Y196700D02*
Y198700D01*
X172000Y196700D02*
Y198700D01*
X548000Y196700D02*
Y198700D01*
X582000Y196700D02*
Y198700D01*
X78000Y196700D02*
Y198700D01*
X112000Y196700D02*
Y198700D01*
X493000Y196700D02*
Y198700D01*
X527000Y196700D02*
Y198700D01*
X433000Y196700D02*
Y198700D01*
X467000Y196700D02*
Y198700D01*
X373000Y196700D02*
Y198700D01*
X407000Y196700D02*
Y198700D01*
X313000Y196700D02*
Y198700D01*
X347000Y196700D02*
Y198700D01*
X253000Y196700D02*
Y198700D01*
X287000Y196700D02*
Y198700D01*
X198000Y196700D02*
Y198700D01*
X232000Y196700D02*
Y198700D01*
D12*
X116305Y64980D02*
G03*
X116305Y64980I-1732J0D01*
G01*
D13*
X378250Y12050D02*
X441750D01*
X378250Y107950D02*
X441750D01*
X149350Y45500D02*
Y84500D01*
X250650Y45500D02*
Y84500D01*
D14*
X12750Y17200D02*
X108050D01*
Y112500D01*
X12750D02*
X108050D01*
X12750Y17200D02*
Y112500D01*
M02*
