M48
;Layer_Color=9474304
;FILE_FORMAT=4:4
METRIC,LZ
;TYPE=PLATED
T1F00S00C0.3000
T2F00S00C0.7500
T3F00S00C0.7800
T4F00S00C0.9800
T5F00S00C1.1500
%
T01
X0013Y0002
Y00032095
X00122095Y00065
X0017Y0011
X0021
X00295Y0007
X0035Y00065
X00345Y0001
X00465Y00005
X00475Y0006
X00515Y0007
X00435Y00136525
X0037Y0014
X0031Y00145
T02
X00035Y00065
X000604Y000904
X000858Y00065
T03
X003703Y000219
Y000473
Y000727
Y000981
X004497
Y000727
Y000473
Y000219
T04
X00035Y00185
Y002104
X00095
Y00185
X00155
Y002104
X00215
Y00185
X0027
Y002104
X0033
Y00185
X0039
Y002104
X0045
Y00185
X0051
Y002104
X00565
Y00185
T05
X00565Y000546
Y0008
M30
