G04*
G04 #@! TF.GenerationSoftware,Altium Limited,Altium Designer,23.1.1 (15)*
G04*
G04 Layer_Color=255*
%FSLAX44Y44*%
%MOMM*%
G71*
G04*
G04 #@! TF.SameCoordinates,C741470B-7C4C-4177-9209-F2D843503FCF*
G04*
G04*
G04 #@! TF.FilePolarity,Positive*
G04*
G01*
G75*
%ADD31C,1.1300*%
%ADD32R,1.1300X1.1300*%
%ADD33C,1.7250*%
%ADD34R,1.7250X1.7250*%
%ADD35C,1.5240*%
%ADD36C,1.2500*%
D31*
X449700Y98100D02*
D03*
Y72700D02*
D03*
Y47300D02*
D03*
Y21900D02*
D03*
X370300D02*
D03*
Y47300D02*
D03*
Y72700D02*
D03*
D32*
Y98100D02*
D03*
D33*
X565000Y80000D02*
D03*
D34*
Y54600D02*
D03*
D35*
X35000Y185000D02*
D03*
Y210400D02*
D03*
X155000D02*
D03*
Y185000D02*
D03*
X565000Y210400D02*
D03*
Y185000D02*
D03*
X95000Y210400D02*
D03*
Y185000D02*
D03*
X510000Y210400D02*
D03*
Y185000D02*
D03*
X450000Y210400D02*
D03*
Y185000D02*
D03*
X390000Y210400D02*
D03*
Y185000D02*
D03*
X330000Y210400D02*
D03*
Y185000D02*
D03*
X270000Y210400D02*
D03*
Y185000D02*
D03*
X215000Y210400D02*
D03*
Y185000D02*
D03*
D36*
X35000Y65000D02*
D03*
X60400Y90400D02*
D03*
X85800Y65000D02*
D03*
M02*
