G04*
G04 #@! TF.GenerationSoftware,Altium Limited,Altium Designer,23.1.1 (15)*
G04*
G04 Layer_Physical_Order=2*
G04 Layer_Color=16711680*
%FSLAX44Y44*%
%MOMM*%
G71*
G04*
G04 #@! TF.SameCoordinates,C741470B-7C4C-4177-9209-F2D843503FCF*
G04*
G04*
G04 #@! TF.FilePolarity,Positive*
G04*
G01*
G75*
%ADD30C,0.3810*%
%ADD31C,1.1300*%
%ADD32R,1.1300X1.1300*%
%ADD33C,1.7250*%
%ADD34R,1.7250X1.7250*%
%ADD35C,1.5240*%
%ADD36C,1.2500*%
%ADD37C,0.6000*%
G36*
X600000Y0D02*
X470145D01*
X469659Y1173D01*
X470087Y1601D01*
X471000Y3807D01*
Y6194D01*
X470087Y8399D01*
X470001Y8484D01*
Y54854D01*
X471174Y55340D01*
X471601Y54914D01*
X473806Y54000D01*
X476194D01*
X478399Y54914D01*
X480087Y56601D01*
X481000Y58807D01*
Y58927D01*
X487071Y64999D01*
X511516D01*
X511601Y64914D01*
X513806Y64000D01*
X516194D01*
X518399Y64914D01*
X520087Y66601D01*
X521000Y68807D01*
Y71193D01*
X520087Y73399D01*
X518399Y75087D01*
X516194Y76000D01*
X513806D01*
X511601Y75087D01*
X511516Y75001D01*
X485000D01*
X483086Y74620D01*
X481464Y73536D01*
X473927Y66000D01*
X473806D01*
X471601Y65087D01*
X471174Y64660D01*
X470001Y65146D01*
Y82800D01*
X469620Y84714D01*
X468536Y86336D01*
X458257Y96615D01*
X458350Y96961D01*
Y99239D01*
X457761Y101439D01*
X456622Y103411D01*
X455011Y105022D01*
X453039Y106160D01*
X450839Y106750D01*
X448561D01*
X446361Y106160D01*
X444389Y105022D01*
X442778Y103411D01*
X441640Y101439D01*
X441050Y99239D01*
Y96961D01*
X441640Y94761D01*
X442778Y92789D01*
X444389Y91178D01*
X446361Y90040D01*
X448561Y89450D01*
X450839D01*
X451185Y89543D01*
X459999Y80729D01*
Y8484D01*
X459913Y8399D01*
X459000Y6194D01*
Y3807D01*
X459913Y1601D01*
X460341Y1173D01*
X459855Y0D01*
X0D01*
Y230000D01*
X600000D01*
Y0D01*
D02*
G37*
%LPC*%
G36*
X566338Y220560D02*
X566270D01*
Y211670D01*
X575160D01*
Y211738D01*
X574468Y214322D01*
X573130Y216638D01*
X571238Y218530D01*
X568922Y219868D01*
X566338Y220560D01*
D02*
G37*
G36*
X563730D02*
X563662D01*
X561078Y219868D01*
X558762Y218530D01*
X556870Y216638D01*
X555532Y214322D01*
X554840Y211738D01*
Y211670D01*
X563730D01*
Y220560D01*
D02*
G37*
G36*
X511338D02*
X511270D01*
Y211670D01*
X520160D01*
Y211738D01*
X519468Y214322D01*
X518130Y216638D01*
X516238Y218530D01*
X513922Y219868D01*
X511338Y220560D01*
D02*
G37*
G36*
X508730D02*
X508662D01*
X506078Y219868D01*
X503762Y218530D01*
X501870Y216638D01*
X500532Y214322D01*
X499840Y211738D01*
Y211670D01*
X508730D01*
Y220560D01*
D02*
G37*
G36*
X451338D02*
X451270D01*
Y211670D01*
X460160D01*
Y211738D01*
X459468Y214322D01*
X458130Y216638D01*
X456238Y218530D01*
X453922Y219868D01*
X451338Y220560D01*
D02*
G37*
G36*
X448730D02*
X448662D01*
X446078Y219868D01*
X443762Y218530D01*
X441870Y216638D01*
X440532Y214322D01*
X439840Y211738D01*
Y211670D01*
X448730D01*
Y220560D01*
D02*
G37*
G36*
X391338D02*
X391270D01*
Y211670D01*
X400160D01*
Y211738D01*
X399468Y214322D01*
X398130Y216638D01*
X396238Y218530D01*
X393922Y219868D01*
X391338Y220560D01*
D02*
G37*
G36*
X388730D02*
X388662D01*
X386078Y219868D01*
X383762Y218530D01*
X381870Y216638D01*
X380532Y214322D01*
X379840Y211738D01*
Y211670D01*
X388730D01*
Y220560D01*
D02*
G37*
G36*
X331338D02*
X331270D01*
Y211670D01*
X340160D01*
Y211738D01*
X339468Y214322D01*
X338130Y216638D01*
X336238Y218530D01*
X333922Y219868D01*
X331338Y220560D01*
D02*
G37*
G36*
X328730D02*
X328662D01*
X326078Y219868D01*
X323762Y218530D01*
X321870Y216638D01*
X320532Y214322D01*
X319840Y211738D01*
Y211670D01*
X328730D01*
Y220560D01*
D02*
G37*
G36*
X271338D02*
X271270D01*
Y211670D01*
X280160D01*
Y211738D01*
X279468Y214322D01*
X278130Y216638D01*
X276238Y218530D01*
X273922Y219868D01*
X271338Y220560D01*
D02*
G37*
G36*
X268730D02*
X268662D01*
X266078Y219868D01*
X263762Y218530D01*
X261870Y216638D01*
X260532Y214322D01*
X259840Y211738D01*
Y211670D01*
X268730D01*
Y220560D01*
D02*
G37*
G36*
X216338D02*
X216270D01*
Y211670D01*
X225160D01*
Y211738D01*
X224468Y214322D01*
X223130Y216638D01*
X221238Y218530D01*
X218922Y219868D01*
X216338Y220560D01*
D02*
G37*
G36*
X213730D02*
X213662D01*
X211078Y219868D01*
X208762Y218530D01*
X206870Y216638D01*
X205532Y214322D01*
X204840Y211738D01*
Y211670D01*
X213730D01*
Y220560D01*
D02*
G37*
G36*
X156338D02*
X156270D01*
Y211670D01*
X165160D01*
Y211738D01*
X164468Y214322D01*
X163130Y216638D01*
X161238Y218530D01*
X158922Y219868D01*
X156338Y220560D01*
D02*
G37*
G36*
X153730D02*
X153662D01*
X151078Y219868D01*
X148762Y218530D01*
X146870Y216638D01*
X145532Y214322D01*
X144840Y211738D01*
Y211670D01*
X153730D01*
Y220560D01*
D02*
G37*
G36*
X96338D02*
X96270D01*
Y211670D01*
X105160D01*
Y211738D01*
X104468Y214322D01*
X103130Y216638D01*
X101238Y218530D01*
X98922Y219868D01*
X96338Y220560D01*
D02*
G37*
G36*
X93730D02*
X93662D01*
X91078Y219868D01*
X88762Y218530D01*
X86870Y216638D01*
X85532Y214322D01*
X84840Y211738D01*
Y211670D01*
X93730D01*
Y220560D01*
D02*
G37*
G36*
X36338D02*
X36270D01*
Y211670D01*
X45160D01*
Y211738D01*
X44468Y214322D01*
X43130Y216638D01*
X41238Y218530D01*
X38922Y219868D01*
X36338Y220560D01*
D02*
G37*
G36*
X33730D02*
X33662D01*
X31078Y219868D01*
X28762Y218530D01*
X26870Y216638D01*
X25532Y214322D01*
X24840Y211738D01*
Y211670D01*
X33730D01*
Y220560D01*
D02*
G37*
G36*
X575160Y209130D02*
X566270D01*
Y200240D01*
X566338D01*
X568922Y200932D01*
X571238Y202270D01*
X573130Y204162D01*
X574468Y206478D01*
X575160Y209062D01*
Y209130D01*
D02*
G37*
G36*
X563730D02*
X554840D01*
Y209062D01*
X555532Y206478D01*
X556870Y204162D01*
X558762Y202270D01*
X561078Y200932D01*
X563662Y200240D01*
X563730D01*
Y209130D01*
D02*
G37*
G36*
X520160D02*
X511270D01*
Y200240D01*
X511338D01*
X513922Y200932D01*
X516238Y202270D01*
X518130Y204162D01*
X519468Y206478D01*
X520160Y209062D01*
Y209130D01*
D02*
G37*
G36*
X508730D02*
X499840D01*
Y209062D01*
X500532Y206478D01*
X501870Y204162D01*
X503762Y202270D01*
X506078Y200932D01*
X508662Y200240D01*
X508730D01*
Y209130D01*
D02*
G37*
G36*
X460160D02*
X451270D01*
Y200240D01*
X451338D01*
X453922Y200932D01*
X456238Y202270D01*
X458130Y204162D01*
X459468Y206478D01*
X460160Y209062D01*
Y209130D01*
D02*
G37*
G36*
X448730D02*
X439840D01*
Y209062D01*
X440532Y206478D01*
X441870Y204162D01*
X443762Y202270D01*
X446078Y200932D01*
X448662Y200240D01*
X448730D01*
Y209130D01*
D02*
G37*
G36*
X400160D02*
X391270D01*
Y200240D01*
X391338D01*
X393922Y200932D01*
X396238Y202270D01*
X398130Y204162D01*
X399468Y206478D01*
X400160Y209062D01*
Y209130D01*
D02*
G37*
G36*
X388730D02*
X379840D01*
Y209062D01*
X380532Y206478D01*
X381870Y204162D01*
X383762Y202270D01*
X386078Y200932D01*
X388662Y200240D01*
X388730D01*
Y209130D01*
D02*
G37*
G36*
X340160D02*
X331270D01*
Y200240D01*
X331338D01*
X333922Y200932D01*
X336238Y202270D01*
X338130Y204162D01*
X339468Y206478D01*
X340160Y209062D01*
Y209130D01*
D02*
G37*
G36*
X328730D02*
X319840D01*
Y209062D01*
X320532Y206478D01*
X321870Y204162D01*
X323762Y202270D01*
X326078Y200932D01*
X328662Y200240D01*
X328730D01*
Y209130D01*
D02*
G37*
G36*
X280160D02*
X271270D01*
Y200240D01*
X271338D01*
X273922Y200932D01*
X276238Y202270D01*
X278130Y204162D01*
X279468Y206478D01*
X280160Y209062D01*
Y209130D01*
D02*
G37*
G36*
X268730D02*
X259840D01*
Y209062D01*
X260532Y206478D01*
X261870Y204162D01*
X263762Y202270D01*
X266078Y200932D01*
X268662Y200240D01*
X268730D01*
Y209130D01*
D02*
G37*
G36*
X225160D02*
X216270D01*
Y200240D01*
X216338D01*
X218922Y200932D01*
X221238Y202270D01*
X223130Y204162D01*
X224468Y206478D01*
X225160Y209062D01*
Y209130D01*
D02*
G37*
G36*
X213730D02*
X204840D01*
Y209062D01*
X205532Y206478D01*
X206870Y204162D01*
X208762Y202270D01*
X211078Y200932D01*
X213662Y200240D01*
X213730D01*
Y209130D01*
D02*
G37*
G36*
X165160D02*
X156270D01*
Y200240D01*
X156338D01*
X158922Y200932D01*
X161238Y202270D01*
X163130Y204162D01*
X164468Y206478D01*
X165160Y209062D01*
Y209130D01*
D02*
G37*
G36*
X153730D02*
X144840D01*
Y209062D01*
X145532Y206478D01*
X146870Y204162D01*
X148762Y202270D01*
X151078Y200932D01*
X153662Y200240D01*
X153730D01*
Y209130D01*
D02*
G37*
G36*
X105160D02*
X96270D01*
Y200240D01*
X96338D01*
X98922Y200932D01*
X101238Y202270D01*
X103130Y204162D01*
X104468Y206478D01*
X105160Y209062D01*
Y209130D01*
D02*
G37*
G36*
X93730D02*
X84840D01*
Y209062D01*
X85532Y206478D01*
X86870Y204162D01*
X88762Y202270D01*
X91078Y200932D01*
X93662Y200240D01*
X93730D01*
Y209130D01*
D02*
G37*
G36*
X45160D02*
X36270D01*
Y200240D01*
X36338D01*
X38922Y200932D01*
X41238Y202270D01*
X43130Y204162D01*
X44468Y206478D01*
X45160Y209062D01*
Y209130D01*
D02*
G37*
G36*
X33730D02*
X24840D01*
Y209062D01*
X25532Y206478D01*
X26870Y204162D01*
X28762Y202270D01*
X31078Y200932D01*
X33662Y200240D01*
X33730D01*
Y209130D01*
D02*
G37*
G36*
X566398Y195620D02*
X563602D01*
X560901Y194896D01*
X558479Y193498D01*
X556502Y191521D01*
X555104Y189099D01*
X554380Y186398D01*
Y183602D01*
X555104Y180901D01*
X556502Y178479D01*
X558479Y176502D01*
X560901Y175104D01*
X563602Y174380D01*
X566398D01*
X569099Y175104D01*
X571521Y176502D01*
X573498Y178479D01*
X574896Y180901D01*
X575620Y183602D01*
Y186398D01*
X574896Y189099D01*
X573498Y191521D01*
X571521Y193498D01*
X569099Y194896D01*
X566398Y195620D01*
D02*
G37*
G36*
X511398D02*
X508602D01*
X505901Y194896D01*
X503479Y193498D01*
X501502Y191521D01*
X500104Y189099D01*
X499380Y186398D01*
Y183602D01*
X500104Y180901D01*
X501502Y178479D01*
X503479Y176502D01*
X505901Y175104D01*
X508602Y174380D01*
X511398D01*
X514099Y175104D01*
X516521Y176502D01*
X518498Y178479D01*
X519896Y180901D01*
X520620Y183602D01*
Y186398D01*
X519896Y189099D01*
X518498Y191521D01*
X516521Y193498D01*
X514099Y194896D01*
X511398Y195620D01*
D02*
G37*
G36*
X451398D02*
X448602D01*
X445901Y194896D01*
X443479Y193498D01*
X441502Y191521D01*
X440104Y189099D01*
X439380Y186398D01*
Y183602D01*
X440104Y180901D01*
X441502Y178479D01*
X443479Y176502D01*
X445901Y175104D01*
X448602Y174380D01*
X451398D01*
X454099Y175104D01*
X456521Y176502D01*
X458498Y178479D01*
X459896Y180901D01*
X460620Y183602D01*
Y186398D01*
X459896Y189099D01*
X458498Y191521D01*
X456521Y193498D01*
X454099Y194896D01*
X451398Y195620D01*
D02*
G37*
G36*
X391398D02*
X388602D01*
X385901Y194896D01*
X383479Y193498D01*
X381502Y191521D01*
X380104Y189099D01*
X379380Y186398D01*
Y183602D01*
X380104Y180901D01*
X381502Y178479D01*
X383479Y176502D01*
X385901Y175104D01*
X388602Y174380D01*
X391398D01*
X394099Y175104D01*
X396521Y176502D01*
X398498Y178479D01*
X399896Y180901D01*
X400620Y183602D01*
Y186398D01*
X399896Y189099D01*
X398498Y191521D01*
X396521Y193498D01*
X394099Y194896D01*
X391398Y195620D01*
D02*
G37*
G36*
X331398D02*
X328602D01*
X325901Y194896D01*
X323479Y193498D01*
X321502Y191521D01*
X320104Y189099D01*
X319380Y186398D01*
Y183602D01*
X320104Y180901D01*
X321502Y178479D01*
X323479Y176502D01*
X325901Y175104D01*
X328602Y174380D01*
X331398D01*
X334099Y175104D01*
X336521Y176502D01*
X338498Y178479D01*
X339896Y180901D01*
X340620Y183602D01*
Y186398D01*
X339896Y189099D01*
X338498Y191521D01*
X336521Y193498D01*
X334099Y194896D01*
X331398Y195620D01*
D02*
G37*
G36*
X271398D02*
X268602D01*
X265901Y194896D01*
X263479Y193498D01*
X261502Y191521D01*
X260104Y189099D01*
X259380Y186398D01*
Y183602D01*
X260104Y180901D01*
X261502Y178479D01*
X263479Y176502D01*
X265901Y175104D01*
X268602Y174380D01*
X271398D01*
X274099Y175104D01*
X276521Y176502D01*
X278498Y178479D01*
X279896Y180901D01*
X280620Y183602D01*
Y186398D01*
X279896Y189099D01*
X278498Y191521D01*
X276521Y193498D01*
X274099Y194896D01*
X271398Y195620D01*
D02*
G37*
G36*
X216398D02*
X213602D01*
X210901Y194896D01*
X208479Y193498D01*
X206502Y191521D01*
X205104Y189099D01*
X204380Y186398D01*
Y183602D01*
X205104Y180901D01*
X206502Y178479D01*
X208479Y176502D01*
X210901Y175104D01*
X213602Y174380D01*
X216398D01*
X219099Y175104D01*
X221521Y176502D01*
X223498Y178479D01*
X224896Y180901D01*
X225620Y183602D01*
Y186398D01*
X224896Y189099D01*
X223498Y191521D01*
X221521Y193498D01*
X219099Y194896D01*
X216398Y195620D01*
D02*
G37*
G36*
X156398D02*
X153602D01*
X150901Y194896D01*
X148479Y193498D01*
X146502Y191521D01*
X145104Y189099D01*
X144380Y186398D01*
Y183602D01*
X145104Y180901D01*
X146502Y178479D01*
X148479Y176502D01*
X150901Y175104D01*
X153602Y174380D01*
X156398D01*
X159099Y175104D01*
X161521Y176502D01*
X163498Y178479D01*
X164896Y180901D01*
X165620Y183602D01*
Y186398D01*
X164896Y189099D01*
X163498Y191521D01*
X161521Y193498D01*
X159099Y194896D01*
X156398Y195620D01*
D02*
G37*
G36*
X96398D02*
X93602D01*
X90901Y194896D01*
X88479Y193498D01*
X86502Y191521D01*
X85104Y189099D01*
X84380Y186398D01*
Y183602D01*
X85104Y180901D01*
X86502Y178479D01*
X88479Y176502D01*
X90901Y175104D01*
X93602Y174380D01*
X96398D01*
X99099Y175104D01*
X101521Y176502D01*
X103498Y178479D01*
X104896Y180901D01*
X105620Y183602D01*
Y186398D01*
X104896Y189099D01*
X103498Y191521D01*
X101521Y193498D01*
X99099Y194896D01*
X96398Y195620D01*
D02*
G37*
G36*
X36398D02*
X33602D01*
X30901Y194896D01*
X28479Y193498D01*
X26502Y191521D01*
X25104Y189099D01*
X24380Y186398D01*
Y183602D01*
X25104Y180901D01*
X26502Y178479D01*
X28479Y176502D01*
X30901Y175104D01*
X33602Y174380D01*
X36398D01*
X39099Y175104D01*
X41521Y176502D01*
X43498Y178479D01*
X44896Y180901D01*
X45620Y183602D01*
Y186398D01*
X44896Y189099D01*
X43498Y191521D01*
X41521Y193498D01*
X39099Y194896D01*
X36398Y195620D01*
D02*
G37*
G36*
X311194Y151000D02*
X308806D01*
X306601Y150086D01*
X306516Y150001D01*
X140000D01*
X138086Y149620D01*
X136464Y148536D01*
X110654Y122726D01*
X109570Y121104D01*
X109189Y119190D01*
Y47905D01*
X109570Y45991D01*
X110654Y44369D01*
X124000Y31022D01*
Y30902D01*
X124913Y28696D01*
X126601Y27009D01*
X127262Y26735D01*
Y25360D01*
X126601Y25087D01*
X124913Y23399D01*
X124000Y21193D01*
Y18807D01*
X124913Y16601D01*
X126601Y14914D01*
X128806Y14000D01*
X131194D01*
X133399Y14914D01*
X133484Y14999D01*
X192768D01*
X194682Y15380D01*
X196304Y16464D01*
X198536Y18696D01*
X199620Y20318D01*
X200001Y22232D01*
Y44236D01*
X334238D01*
X336151Y44617D01*
X337774Y45701D01*
X351073Y59000D01*
X351194D01*
X353399Y59913D01*
X355087Y61601D01*
X356000Y63807D01*
Y66193D01*
X355087Y68399D01*
X353399Y70087D01*
X351194Y71000D01*
X348806D01*
X346601Y70087D01*
X344913Y68399D01*
X344000Y66193D01*
Y66073D01*
X332166Y54239D01*
X287318D01*
X287162Y54678D01*
X287107Y55509D01*
X288536Y56464D01*
X296073Y64000D01*
X296194D01*
X298399Y64914D01*
X300086Y66601D01*
X301000Y68807D01*
Y71193D01*
X300086Y73399D01*
X298399Y75087D01*
X296194Y76000D01*
X293806D01*
X291601Y75087D01*
X289913Y73399D01*
X289000Y71193D01*
Y71073D01*
X282929Y65001D01*
X129166D01*
X128095Y66073D01*
Y66193D01*
X127182Y68399D01*
X125494Y70087D01*
X123288Y71000D01*
X120901D01*
X120247Y70729D01*
X119191Y71434D01*
Y117119D01*
X142072Y139999D01*
X306516D01*
X306601Y139913D01*
X308806Y139000D01*
X311194D01*
X313399Y139913D01*
X315086Y141601D01*
X316000Y143806D01*
Y146194D01*
X315086Y148399D01*
X313399Y150086D01*
X311194Y151000D01*
D02*
G37*
G36*
X371194Y146000D02*
X368806D01*
X366601Y145087D01*
X364913Y143399D01*
X364000Y141194D01*
Y141073D01*
X347929Y125001D01*
X180000D01*
X178086Y124620D01*
X176464Y123536D01*
X168927Y116000D01*
X168806D01*
X166601Y115087D01*
X164913Y113399D01*
X164000Y111194D01*
Y108806D01*
X164913Y106601D01*
X166601Y104914D01*
X168806Y104000D01*
X171194D01*
X173399Y104914D01*
X175086Y106601D01*
X176000Y108806D01*
Y108927D01*
X182071Y114999D01*
X204854D01*
X205340Y113826D01*
X204914Y113399D01*
X204000Y111194D01*
Y108806D01*
X204914Y106601D01*
X206601Y104914D01*
X208806Y104000D01*
X211194D01*
X213399Y104914D01*
X213484Y104999D01*
X362110D01*
Y99370D01*
X378490D01*
Y106290D01*
X370159D01*
X369633Y107560D01*
X377071Y114999D01*
X415000D01*
X416914Y115380D01*
X418536Y116464D01*
X432952Y130879D01*
X433806Y130525D01*
X436194D01*
X438399Y131438D01*
X440087Y133126D01*
X441000Y135331D01*
Y137718D01*
X440087Y139924D01*
X438399Y141611D01*
X436194Y142525D01*
X433806D01*
X431601Y141611D01*
X431095Y141105D01*
X429192Y140726D01*
X427570Y139642D01*
X412929Y125001D01*
X375000D01*
X373086Y124620D01*
X371464Y123536D01*
X362929Y115001D01*
X353633D01*
X353248Y116271D01*
X353536Y116464D01*
X371073Y134000D01*
X371194D01*
X373399Y134913D01*
X375087Y136601D01*
X376000Y138806D01*
Y141194D01*
X375087Y143399D01*
X373399Y145087D01*
X371194Y146000D01*
D02*
G37*
G36*
X378490Y96830D02*
X371570D01*
Y89910D01*
X378490D01*
Y96830D01*
D02*
G37*
G36*
X369030D02*
X362110D01*
Y89910D01*
X369030D01*
Y96830D01*
D02*
G37*
G36*
X566470Y91165D02*
X566270D01*
Y81270D01*
X576165D01*
Y81470D01*
X575404Y84310D01*
X573934Y86855D01*
X571855Y88934D01*
X569310Y90404D01*
X566470Y91165D01*
D02*
G37*
G36*
X563730D02*
X563530D01*
X560690Y90404D01*
X558144Y88934D01*
X556066Y86855D01*
X554596Y84310D01*
X553835Y81470D01*
Y81270D01*
X563730D01*
Y91165D01*
D02*
G37*
G36*
X61618Y99650D02*
X59182D01*
X56830Y99020D01*
X54720Y97802D01*
X52998Y96080D01*
X51780Y93970D01*
X51150Y91618D01*
Y89182D01*
X51780Y86830D01*
X52998Y84720D01*
X54720Y82998D01*
X56830Y81780D01*
X59182Y81150D01*
X61618D01*
X63970Y81780D01*
X66080Y82998D01*
X67802Y84720D01*
X69020Y86830D01*
X69650Y89182D01*
Y91618D01*
X69020Y93970D01*
X67802Y96080D01*
X66080Y97802D01*
X63970Y99020D01*
X61618Y99650D01*
D02*
G37*
G36*
X576165Y78730D02*
X566270D01*
Y68835D01*
X566470D01*
X569310Y69596D01*
X571855Y71066D01*
X573934Y73144D01*
X575404Y75690D01*
X576165Y78530D01*
Y78730D01*
D02*
G37*
G36*
X563730D02*
X553835D01*
Y78530D01*
X554596Y75690D01*
X556066Y73144D01*
X558144Y71066D01*
X560690Y69596D01*
X563530Y68835D01*
X563730D01*
Y78730D01*
D02*
G37*
G36*
X450839Y81350D02*
X448561D01*
X446361Y80760D01*
X444389Y79622D01*
X442778Y78011D01*
X441640Y76039D01*
X441050Y73839D01*
Y71561D01*
X441640Y69361D01*
X442778Y67389D01*
X444389Y65778D01*
X446361Y64640D01*
X448561Y64050D01*
X450839D01*
X453039Y64640D01*
X455011Y65778D01*
X456622Y67389D01*
X457761Y69361D01*
X458350Y71561D01*
Y73839D01*
X457761Y76039D01*
X456622Y78011D01*
X455011Y79622D01*
X453039Y80760D01*
X450839Y81350D01*
D02*
G37*
G36*
X371439D02*
X369161D01*
X366961Y80760D01*
X364989Y79622D01*
X363378Y78011D01*
X362239Y76039D01*
X361650Y73839D01*
Y71561D01*
X362239Y69361D01*
X363378Y67389D01*
X364989Y65778D01*
X366961Y64640D01*
X369161Y64050D01*
X371439D01*
X373639Y64640D01*
X375611Y65778D01*
X377222Y67389D01*
X378360Y69361D01*
X378950Y71561D01*
Y73839D01*
X378360Y76039D01*
X377222Y78011D01*
X375611Y79622D01*
X373639Y80760D01*
X371439Y81350D01*
D02*
G37*
G36*
X87018Y74250D02*
X84582D01*
X82230Y73620D01*
X80120Y72402D01*
X78398Y70680D01*
X77180Y68570D01*
X76550Y66218D01*
Y63782D01*
X77180Y61430D01*
X78398Y59320D01*
X80120Y57598D01*
X82230Y56380D01*
X84582Y55750D01*
X87018D01*
X89370Y56380D01*
X91480Y57598D01*
X93202Y59320D01*
X94420Y61430D01*
X95050Y63782D01*
Y66218D01*
X94420Y68570D01*
X93202Y70680D01*
X91480Y72402D01*
X89370Y73620D01*
X87018Y74250D01*
D02*
G37*
G36*
X36218D02*
X33782D01*
X31430Y73620D01*
X29320Y72402D01*
X27598Y70680D01*
X26380Y68570D01*
X25750Y66218D01*
Y63782D01*
X26380Y61430D01*
X27598Y59320D01*
X29320Y57598D01*
X31430Y56380D01*
X33782Y55750D01*
X36218D01*
X38570Y56380D01*
X40680Y57598D01*
X42402Y59320D01*
X43620Y61430D01*
X44250Y63782D01*
Y66218D01*
X43620Y68570D01*
X42402Y70680D01*
X40680Y72402D01*
X38570Y73620D01*
X36218Y74250D01*
D02*
G37*
G36*
X576625Y66225D02*
X553375D01*
Y42975D01*
X576625D01*
Y66225D01*
D02*
G37*
G36*
X450839Y55950D02*
X448561D01*
X446361Y55360D01*
X444389Y54222D01*
X442778Y52611D01*
X441640Y50639D01*
X441050Y48439D01*
Y46161D01*
X441640Y43961D01*
X442778Y41989D01*
X444389Y40378D01*
X446361Y39239D01*
X448561Y38650D01*
X450839D01*
X453039Y39239D01*
X455011Y40378D01*
X456622Y41989D01*
X457761Y43961D01*
X458350Y46161D01*
Y48439D01*
X457761Y50639D01*
X456622Y52611D01*
X455011Y54222D01*
X453039Y55360D01*
X450839Y55950D01*
D02*
G37*
G36*
X371439D02*
X369161D01*
X366961Y55360D01*
X364989Y54222D01*
X363378Y52611D01*
X363069Y52075D01*
X362074D01*
X360160Y51694D01*
X358537Y50610D01*
X341464Y33536D01*
X340380Y31914D01*
X339999Y30000D01*
Y13484D01*
X339913Y13399D01*
X339000Y11193D01*
Y8806D01*
X339913Y6601D01*
X341601Y4913D01*
X343806Y4000D01*
X346194D01*
X348399Y4913D01*
X350087Y6601D01*
X351000Y8806D01*
Y11193D01*
X350087Y13399D01*
X350001Y13484D01*
Y27929D01*
X363720Y41647D01*
X364989Y40378D01*
X366961Y39239D01*
X369161Y38650D01*
X371439D01*
X373639Y39239D01*
X375611Y40378D01*
X377222Y41989D01*
X378360Y43961D01*
X378950Y46161D01*
Y48439D01*
X378360Y50639D01*
X377222Y52611D01*
X375611Y54222D01*
X373639Y55360D01*
X371439Y55950D01*
D02*
G37*
G36*
X450839Y30550D02*
X448561D01*
X446361Y29960D01*
X444389Y28822D01*
X442778Y27211D01*
X441640Y25239D01*
X441050Y23039D01*
Y20761D01*
X441640Y18561D01*
X442778Y16589D01*
X444389Y14978D01*
X446361Y13839D01*
X448561Y13250D01*
X450839D01*
X453039Y13839D01*
X455011Y14978D01*
X456622Y16589D01*
X457761Y18561D01*
X458350Y20761D01*
Y23039D01*
X457761Y25239D01*
X456622Y27211D01*
X455011Y28822D01*
X453039Y29960D01*
X450839Y30550D01*
D02*
G37*
G36*
X371439D02*
X369161D01*
X366961Y29960D01*
X364989Y28822D01*
X363378Y27211D01*
X362239Y25239D01*
X361650Y23039D01*
Y20761D01*
X362239Y18561D01*
X363378Y16589D01*
X364989Y14978D01*
X366961Y13839D01*
X369161Y13250D01*
X371439D01*
X373639Y13839D01*
X375611Y14978D01*
X377222Y16589D01*
X378360Y18561D01*
X378950Y20761D01*
Y23039D01*
X378360Y25239D01*
X377222Y27211D01*
X375611Y28822D01*
X373639Y29960D01*
X371439Y30550D01*
D02*
G37*
%LPD*%
G36*
X120901Y59000D02*
X121022D01*
X123559Y56464D01*
X125181Y55380D01*
X127095Y54999D01*
X194914D01*
X195069Y54559D01*
X195125Y53729D01*
X193696Y52774D01*
X191464Y50542D01*
X190380Y48920D01*
X189999Y47006D01*
Y25001D01*
X133484D01*
X133399Y25087D01*
X132738Y25360D01*
Y26735D01*
X133399Y27009D01*
X135086Y28696D01*
X136000Y30902D01*
Y33289D01*
X135086Y35494D01*
X133399Y37182D01*
X131194Y38095D01*
X131073D01*
X119191Y49977D01*
Y58566D01*
X120247Y59271D01*
X120901Y59000D01*
D02*
G37*
D30*
X370074Y47074D02*
X370300Y47300D01*
X345000Y30000D02*
X362074Y47074D01*
X370074D01*
X122095Y65000D02*
X127095Y60000D01*
X285000D02*
X295000Y70000D01*
X127095Y60000D02*
X285000D01*
X195000Y47006D02*
X197232Y49237D01*
X195000Y22232D02*
Y47006D01*
X197232Y49237D02*
X334238D01*
X350000Y65000D01*
X114190Y47905D02*
Y119190D01*
Y47905D02*
X130000Y32095D01*
X192768Y20000D02*
X195000Y22232D01*
X130000Y20000D02*
X192768D01*
X345000Y10000D02*
Y30000D01*
X114190Y119190D02*
X140000Y145000D01*
X210000Y110000D02*
X365000D01*
X375000Y120000D01*
X415000D01*
X434581Y136106D02*
X435000Y136525D01*
X431106Y136106D02*
X434581D01*
X415000Y120000D02*
X431106Y136106D01*
X350000Y120000D02*
X370000Y140000D01*
X180000Y120000D02*
X350000D01*
X170000Y110000D02*
X180000Y120000D01*
X485000Y70000D02*
X515000D01*
X475000Y60000D02*
X485000Y70000D01*
X465000Y5000D02*
Y82800D01*
X449700Y98100D02*
X465000Y82800D01*
X140000Y145000D02*
X310000D01*
D31*
X449700Y98100D02*
D03*
Y72700D02*
D03*
Y47300D02*
D03*
Y21900D02*
D03*
X370300D02*
D03*
Y47300D02*
D03*
Y72700D02*
D03*
D32*
Y98100D02*
D03*
D33*
X565000Y80000D02*
D03*
D34*
Y54600D02*
D03*
D35*
X35000Y185000D02*
D03*
Y210400D02*
D03*
X155000D02*
D03*
Y185000D02*
D03*
X565000Y210400D02*
D03*
Y185000D02*
D03*
X95000Y210400D02*
D03*
Y185000D02*
D03*
X510000Y210400D02*
D03*
Y185000D02*
D03*
X450000Y210400D02*
D03*
Y185000D02*
D03*
X390000Y210400D02*
D03*
Y185000D02*
D03*
X330000Y210400D02*
D03*
Y185000D02*
D03*
X270000Y210400D02*
D03*
Y185000D02*
D03*
X215000Y210400D02*
D03*
Y185000D02*
D03*
D36*
X35000Y65000D02*
D03*
X60400Y90400D02*
D03*
X85800Y65000D02*
D03*
D37*
X130000Y32095D02*
D03*
X122095Y65000D02*
D03*
X295000Y70000D02*
D03*
X130000Y20000D02*
D03*
X345000Y10000D02*
D03*
X350000Y65000D02*
D03*
X515000Y70000D02*
D03*
X475000Y60000D02*
D03*
X465000Y5000D02*
D03*
X435000Y136525D02*
D03*
X310000Y145000D02*
D03*
X370000Y140000D02*
D03*
X210000Y110000D02*
D03*
X170000D02*
D03*
M02*
